<svg width="243" height="220" viewBox="0 0 243 220" fill="none" xmlns="http://www.w3.org/2000/svg">
<path d="M138.06 203.143C137.279 203.468 136.448 203.699 135.58 203.83C131.875 204.386 128.267 202.969 125.932 200.038L4.47041 47.5532C2.13551 44.6222 1.56099 40.7894 2.9309 37.3006C4.30081 33.8119 7.33228 31.3991 11.0396 30.841L203.825 1.89372C207.531 1.33858 211.139 2.7556 213.474 5.68667C215.809 8.61774 216.383 12.4505 215.013 15.9392L143.689 197.371C142.638 200.041 140.613 202.084 138.06 203.143ZM12.0464 39.8722C11.6243 40.0486 11.426 40.3919 11.3414 40.6083C11.2358 40.8749 11.1226 41.401 11.541 41.9221L133.003 194.406C133.419 194.928 133.955 194.935 134.238 194.892C134.521 194.849 135.034 194.685 135.276 194.064L206.6 12.632C206.845 12.0102 206.581 11.544 206.401 11.3182C206.223 11.0946 205.823 10.7325 205.165 10.8325L12.3795 39.7798C12.2545 39.7988 12.1446 39.8312 12.0464 39.8722Z" fill="#14161F"/>
<path d="M139.257 200.975L214.478 9.63138C215.259 7.64403 213.595 5.55834 211.485 5.87633L8.16607 36.4058C6.05601 36.7238 5.07856 39.2055 6.41003 40.8745L134.508 201.689C135.837 203.358 138.476 202.962 139.257 200.975Z" fill="white"/>
<path d="M135.249 199.23L210.916 6.75111C211.597 5.01644 210.146 3.19598 208.303 3.47072L3.78005 34.1806C1.93785 34.4579 1.08496 36.6258 2.24595 38.0831L131.103 199.852C132.264 201.309 134.568 200.964 135.249 199.23Z" fill="#D8B741"/>
<path d="M135.908 198.274L210.411 8.75381C211.353 6.36106 209.35 3.84925 206.809 4.23019L5.42873 34.4676C2.88717 34.8486 1.7128 37.8378 3.31297 39.8496L130.189 199.132C131.792 201.141 134.969 200.666 135.908 198.274Z" stroke="#14161F" stroke-width="5.16053" stroke-miterlimit="10"/>
<path d="M122.895 129.1C145.572 125.655 161.162 104.478 157.717 81.8009C154.271 59.1237 133.094 43.5334 110.417 46.979C87.74 50.4246 72.1497 71.6012 75.5953 94.2784C79.0409 116.956 100.218 132.546 122.895 129.1Z" fill="#F3F4F4"/>
<path d="M85.7338 84.5551C88.1431 83.0648 88.8881 79.9035 87.3978 77.4942C85.9075 75.0849 82.7462 74.3399 80.3369 75.8302C77.9276 77.3205 77.1826 80.4818 78.6729 82.8911C80.1632 85.3004 83.3245 86.0454 85.7338 84.5551Z" fill="#14161F"/>
<path d="M125.681 66.8438C128.482 66.4183 130.407 63.8028 129.982 61.0019C129.556 58.2011 126.941 56.2756 124.14 56.7011C121.339 57.1267 119.413 59.7422 119.839 62.543C120.265 65.3438 122.88 67.2694 125.681 66.8438Z" fill="#14161F"/>
<path d="M143.416 72.2424C143.666 72.2227 143.905 72.1629 144.128 72.0715C144.73 71.8235 145.211 71.3328 145.444 70.6997L151.077 55.299C151.525 54.0722 150.896 52.7166 149.67 52.2688C148.443 51.821 147.087 52.4498 146.639 53.6766L141.523 67.6547L119.085 68.9682L106.561 38.9471C106.111 37.721 104.755 37.0919 103.528 37.5392C102.3 37.9895 101.673 39.3453 102.12 40.5718L115.256 72.4365C115.559 73.2622 122.031 88.8725 122.031 88.8725C122.151 89.2691 122.372 89.6376 122.69 89.9285L152.82 117.543C153.52 118.183 154.502 118.324 155.325 117.985C155.634 117.857 155.92 117.662 156.159 117.399C157.042 116.437 156.976 114.941 156.015 114.059L130.515 90.2611L147.794 89.7575L161.119 101.239C162.107 102.091 163.601 101.979 164.453 100.991C165.305 100.003 165.193 98.5087 164.205 97.6567L150.181 85.5715C149.73 85.1832 149.151 84.9789 148.559 85.0009L136.405 85.4097L133.531 73.0397L143.412 72.2377L143.416 72.2424Z" fill="#14161F"/>
<path d="M123.377 99.9793C122.846 99.5118 122.131 99.3072 121.433 99.421L114.013 100.637L97.3507 81.2042L100.995 76.5581C101.677 75.6872 101.666 74.4597 100.964 73.6033L90.9042 61.3125C90.0775 60.3028 88.588 60.1533 87.5783 60.98C86.5686 61.8068 86.4191 63.2963 87.2459 64.3059L96.1067 75.1295L78.8998 97.0648C78.373 97.7373 78.2493 98.6408 78.5753 99.4291L84.5826 113.922C85.0816 115.128 86.4657 115.701 87.6713 115.202C88.877 114.703 89.4496 113.319 88.9506 112.113L83.4714 98.8966L85.3124 96.5498L103.589 110.155L104.138 121.028C104.164 121.582 104.388 122.107 104.763 122.515L119.19 138.091C119.88 138.837 120.941 139.036 121.83 138.668C122.08 138.565 122.318 138.414 122.531 138.217C123.49 137.33 123.547 135.834 122.658 134.878L108.815 119.934L108.275 109.25L111.067 105.913L121.09 104.273L136.906 118.184C137.885 119.045 139.379 118.951 140.24 117.97C141.101 116.991 141.007 115.497 140.026 114.636L123.37 99.9855L123.377 99.9793Z" fill="#14161F"/>
</svg>
