<?xml version="1.0" encoding="UTF-8"?>
<svg xmlns="http://www.w3.org/2000/svg" viewBox="0 0 1080 1350">
  <defs>
    <style>
      .cls-1 {
        fill: #d1a52b;
      }

      .cls-2 {
        fill: #fff;
      }

      .cls-3 {
        fill: #f7d33c;
      }

      .cls-4 {
        fill: #0d395b;
      }

      .cls-5 {
        fill: #051b32;
      }

      .cls-6 {
        fill: #004978;
      }

      .cls-7 {
        fill: #f6d23b;
      }

      .cls-8 {
        fill: #c6e9fa;
      }

      .cls-9 {
        fill: #a27c2c;
      }

      .cls-10 {
        fill: #c4e5f8;
      }
    </style>
  </defs>
  <g id="prvi">
    <g id="Layer_2" data-name="Layer 2">
      <g id="Layer_10" data-name="Layer 10"/>
      <g id="stages"/>
      <g id="Layer_9" data-name="Layer 9"/>
    </g>
    <g id="shank"/>
    <g id="oznake"/>
  </g>
  <g id="drug">
    <g>
      <g>
        <polygon class="cls-5" points="126.53 599.57 218.45 599.57 218.45 542.38 309.34 542.38 309.34 477.02 438.02 477.02 438.02 545.45 981.34 545.45 981.34 747.66 215.38 747.66 215.38 690.47 127.04 690.47 126.53 599.57"/>
        <path class="cls-4" d="M983.84,750.16H212.88v-57.19H124.56l-.54-95.89h91.93v-57.19h90.89v-65.36h133.68v68.43H983.84v207.21Zm-765.96-5H978.84v-197.21H435.52v-68.43h-123.68v65.36h-90.89v57.19h-91.9l.48,85.89h88.35v57.19Z"/>
      </g>
      <g>
        <rect class="cls-1" x="805.17" y="544.43" width="177.7" height="203.49"/>
        <path class="cls-9" d="M985.37,750.42h-182.7v-208.49h182.7v208.49Zm-177.7-5h172.7v-198.49h-172.7v198.49Z"/>
      </g>
      <g>
        <polyline class="cls-5" points="396.66 600.09 419.64 600.09 419.64 744.6"/>
        <polygon class="cls-4" points="422.14 744.6 417.14 744.6 417.14 602.58 396.66 602.58 396.66 597.58 422.14 597.58 422.14 744.6"/>
      </g>
      <g>
        <polyline class="cls-5" points="218.45 599.57 308.06 599.57 308.06 542.38"/>
        <polygon class="cls-4" points="310.56 602.07 218.45 602.07 218.45 597.07 305.56 597.07 305.56 542.38 310.56 542.38 310.56 602.07"/>
      </g>
      <g>
        <polyline class="cls-5" points="215.38 690.47 318.79 690.47 318.79 746.13"/>
        <polygon class="cls-4" points="321.29 746.13 316.29 746.13 316.29 692.97 215.38 692.97 215.38 687.97 321.29 687.97 321.29 746.13"/>
      </g>
      <g>
        <rect class="cls-5" x="311.38" y="477.02" width="127.15" height="69.45"/>
        <path class="cls-4" d="M441.03,548.97h-132.15v-74.45h132.15v74.45Zm-127.15-5h122.15v-64.45h-122.15v64.45Z"/>
      </g>
      <rect class="cls-3" x="327.3" y="692" width="86.81" height="44.43"/>
      <g>
        <path class="cls-8" d="M315.1,659.87c-12.75,0-25.61-.88-36.65-1.63-79.02-5.4-118.68-8.11-178.82-16.87l.72-4.95c59.96,8.74,99.55,11.44,178.42,16.83,33.15,2.26,83.22,5.68,93.32-16.91,3.8-8.51,.4-17.64-2.88-26.48-3.2-8.61-6.52-17.51-2.82-25.62,8.78-19.31,50.84-20.1,128.56-2.41l-1.11,4.88c-92.18-20.98-117.71-11.8-122.9-.4-2.84,6.24-.02,13.8,2.96,21.81,3.47,9.32,7.4,19.88,2.76,30.26-7.83,17.53-34.46,21.49-61.55,21.49Z"/>
        <polygon class="cls-8" points="511.55 588.34 485.05 592.76 493.05 584.15 489.54 572.93 511.55 588.34"/>
      </g>
      <g>
        <g>
          <g>
            <path class="cls-2" d="M477.93,661.35v-33.14h24.19l.05,5.68c-.7-.74-1.8-1.48-3.29-2.24-1.49-.75-3.12-1.36-4.89-1.81-1.77-.46-3.32-.68-4.65-.68h-3v14.57h10.2v1.05h-10.2v13.89c2.74-.42,5.35-.84,7.84-1.26,.53-.07,1.03-.15,1.53-.24,.49-.09,.96-.18,1.42-.29,1.16-.21,2.2-.45,3.13-.71,.93-.26,1.8-.55,2.6-.87v6.05c-.39,0-.95-.04-1.68-.13-.74-.09-1.51-.2-2.31-.34-2.35-.35-4.37-.61-6.05-.79-1.68-.17-3.4-.26-5.15-.26-3.68,0-6.73,.51-9.15,1.53h-.58Z"/>
            <path class="cls-2" d="M504.7,661.35v-33.14h8.42v33.14h-8.42Z"/>
            <path class="cls-2" d="M529.21,662.35c-2.98,0-5.5-.54-7.55-1.6-2.05-1.07-3.6-2.51-4.66-4.31-1.05-1.81-1.58-3.9-1.58-6.29,0-2.24,.5-4.26,1.5-6.05,1-1.79,2.48-3.19,4.44-4.21,1.96-1.02,4.35-1.53,7.15-1.53,2.14,0,3.96,.23,5.47,.68,1.51,.46,2.65,1.11,3.42,1.97,.77,.86,1.16,1.89,1.16,3.08-.04,1.26-.56,2.34-1.58,3.23-1.02,.89-2.31,1.57-3.89,2.03-1.58,.46-3.23,.68-4.94,.68v.05c1.65,.18,3.22,.49,4.71,.95,1.49,.46,2.73,1.1,3.71,1.92,.98,.82,1.47,1.85,1.47,3.08,0,1.3-.42,2.42-1.26,3.37-.84,.95-1.95,1.67-3.31,2.18-1.37,.51-2.79,.76-4.26,.76Zm2.89-1.89c1.51,0,2.77-.39,3.79-1.18,1.02-.79,1.53-1.85,1.53-3.18,0-1.44-.79-2.59-2.37-3.47-1.58-.88-3.37-1.5-5.37-1.87-2-.37-3.82-.62-5.47-.76h-.32c-.07,0-.16-.02-.26-.05-.04,2.17,.35,4.06,1.16,5.65,.81,1.6,1.86,2.81,3.16,3.63,1.3,.82,2.68,1.24,4.16,1.24Zm-5.52-10.94c1.09,0,2.09-.32,3.02-.97,.93-.65,1.67-1.53,2.21-2.63,.54-1.1,.81-2.3,.81-3.6,0-.67-.09-1.23-.26-1.68-.18-.46-.43-.8-.76-1.03-.33-.23-.76-.34-1.29-.34-.91,0-1.88,.39-2.89,1.16s-1.88,1.91-2.58,3.42-1.09,3.28-1.16,5.31c.28,.07,.75,.16,1.42,.26,.53,.07,1.02,.11,1.47,.11Z"/>
            <path class="cls-2" d="M540.57,661.35v-33.14h8.42v21.25h.11c.95-1.79,2.25-3.54,3.92-5.26,1.67-1.72,3.41-3.12,5.23-4.21s3.52-1.63,5.1-1.63v5.31c-2-.35-4.02-.21-6.05,.42-1.12,.35-2.2,.82-3.23,1.39-1.04,.58-1.9,1.24-2.6,1.97l-.05,.16c1.23-.63,2.35-.95,3.37-.95,1.16,0,2.21,.48,3.16,1.45,.95,.96,1.74,2.1,2.39,3.39,.65,1.3,1.39,2.96,2.24,5,.39,.95,.76,1.85,1.13,2.71s.73,1.57,1.08,2.13h-8.42c-.21-.39-.42-1.02-.63-1.89-.21-.88-.44-2-.68-3.37-.32-1.37-.63-2.65-.95-3.84-.32-1.19-.67-2.17-1.05-2.95-.39-.77-.81-1.16-1.26-1.16s-.86,.16-1.21,.47c-.35,.32-.66,.71-.92,1.18-.26,.47-.46,.97-.6,1.5l-.05,.05v9.99h-8.42Z"/>
            <path class="cls-2" d="M577.28,662.25c-3.02,0-5.45-.63-7.31-1.89-1.86-1.26-2.79-3.12-2.79-5.58v-14.57h-2.52v-.95h1.37c1.51,0,2.93-.52,4.26-1.55,1.33-1.03,2.4-2.38,3.21-4.05,.81-1.67,1.21-3.48,1.21-5.44h.89v11.05h6.63v.95h-6.63v17.36c0,1.16,.18,2.03,.53,2.6,.35,.58,.84,.87,1.47,.87,.7,0,1.52-.42,2.45-1.26,.93-.84,1.87-2.05,2.81-3.63l1.37,5.21c-2.42,.6-4.73,.89-6.94,.89Z"/>
            <path class="cls-2" d="M585.91,661.35v-22.09h8.42v8.52h.11c.6-1.61,1.34-3.08,2.24-4.39,.89-1.32,1.89-2.38,3-3.21,1.1-.82,2.3-1.27,3.6-1.34l.47,5.47c-1.51-.03-2.95,.13-4.31,.5-1.37,.37-2.55,1.08-3.55,2.13-1,1.05-1.52,2.49-1.55,4.31v10.1h-8.42Z"/>
            <path class="cls-2" d="M617.21,662.19c-2.31,0-4.47-.5-6.47-1.5-2-1-3.61-2.44-4.84-4.31-1.23-1.88-1.84-4.06-1.84-6.55s.63-4.51,1.89-6.26c1.26-1.75,2.89-3.08,4.89-3.97,2-.89,4.12-1.34,6.36-1.34s4.37,.46,6.36,1.37c2,.91,3.62,2.26,4.87,4.05,1.24,1.79,1.87,3.91,1.87,6.36,0,2.6-.6,4.81-1.81,6.65-1.21,1.84-2.81,3.22-4.81,4.13-2,.91-4.16,1.37-6.47,1.37Zm1.79-.95c.98,0,1.74-.49,2.26-1.47,.53-.98,.84-2.27,.95-3.87s.02-3.38-.26-5.34c-.25-2.07-.68-3.95-1.29-5.65-.61-1.7-1.37-3.07-2.26-4.1s-1.87-1.55-2.92-1.55c-.98,0-1.75,.51-2.29,1.53-.54,1.02-.87,2.36-.97,4.02-.11,1.67-.04,3.48,.21,5.44,.25,1.93,.67,3.74,1.29,5.44,.61,1.7,1.38,3.05,2.29,4.05,.91,1,1.91,1.5,3,1.5Z"/>
            <path class="cls-2" d="M647.76,662.09c-1.3-.04-2.54-.14-3.73-.32-1.19-.18-2.19-.42-3-.74l1.1-6c.77,.67,1.6,1.33,2.47,2,1.47,1.09,2.82,1.98,4.05,2.68,1.23,.7,2.19,1.07,2.89,1.1,.77-.03,1.38-.21,1.84-.53s.68-.79,.68-1.42c0-.67-.3-1.39-.89-2.18-.6-.79-1.37-1.59-2.31-2.39-.95-.81-2.16-1.75-3.63-2.84l-.16-.1c-.07-.04-.14-.08-.21-.13-.07-.05-.14-.1-.21-.13-2.03-1.54-3.5-2.78-4.39-3.71-.89-.93-1.34-1.94-1.34-3.02-.04-1.93,1.08-3.41,3.34-4.44,2.26-1.03,4.97-1.55,8.13-1.55,1.16,0,2.33,.08,3.52,.24,1.19,.16,2.28,.39,3.26,.71l-1,6c-.7-.88-1.62-1.78-2.76-2.71-1.14-.93-2.3-1.7-3.47-2.31-1.17-.61-2.1-.92-2.76-.92-.6,0-1.1,.11-1.53,.34-.42,.23-.63,.57-.63,1.03,0,.56,.49,1.3,1.47,2.21,.98,.91,2.42,2.07,4.31,3.47l.79,.53,.21,.16c1.51,1.05,2.68,1.94,3.52,2.66s1.53,1.5,2.08,2.34c.54,.84,.82,1.72,.82,2.63,0,1.68-.6,3.08-1.81,4.18-1.21,1.1-2.76,1.91-4.66,2.42s-3.89,.76-6,.76Z"/>
            <path class="cls-2" d="M673.33,662.25c-3.02,0-5.45-.63-7.31-1.89-1.86-1.26-2.79-3.12-2.79-5.58v-14.57h-2.52v-.95h1.37c1.51,0,2.93-.52,4.26-1.55,1.33-1.03,2.4-2.38,3.21-4.05,.81-1.67,1.21-3.48,1.21-5.44h.89v11.05h6.63v.95h-6.63v17.36c0,1.16,.18,2.03,.53,2.6,.35,.58,.84,.87,1.47,.87,.7,0,1.52-.42,2.45-1.26,.93-.84,1.87-2.05,2.81-3.63l1.37,5.21c-2.42,.6-4.73,.89-6.94,.89Z"/>
            <path class="cls-2" d="M689.63,662.3c-1.93,0-3.59-.45-5-1.34-1.4-.89-2.46-2.04-3.16-3.45-.7-1.4-1.05-2.88-1.05-4.42,0-1.37,.29-2.62,.87-3.76,.58-1.14,1.43-2.04,2.55-2.71,1.12-.67,2.44-1,3.95-1,.81,0,1.61,.13,2.42,.39s1.54,.66,2.21,1.18l.05-.05c-.25-.21-.46-.43-.63-.66-.18-.23-.37-.45-.58-.66-.74-.91-1.28-1.67-1.63-2.29-.35-.61-.53-1.27-.53-1.97,0-1.05,.42-1.85,1.26-2.39,.84-.54,1.93-.82,3.26-.82,1.82,0,3.67,.48,5.55,1.45,1.88,.96,3.45,2.43,4.73,4.39,1.28,1.96,1.92,4.37,1.92,7.21v9.94h-8.47v-10.99c0-2.45-.31-4.46-.92-6.02-.61-1.56-1.36-2.71-2.24-3.44-.88-.74-1.77-1.1-2.68-1.1-.6,0-1.04,.17-1.34,.5-.3,.33-.45,.75-.45,1.24,0,.63,.18,1.27,.53,1.92,.35,.65,.93,1.45,1.74,2.39,.28,.35,.58,.71,.89,1.08,.32,.37,.61,.75,.89,1.13,.07,.04,.1,.06,.1,.08,0,.02,.02,.04,.05,.08,.53,.63,.98,1.32,1.37,2.05,.38,.74,.69,1.55,.92,2.45,.23,.89,.34,1.9,.34,3.02s-.25,2.14-.74,3.16-1.26,1.84-2.31,2.47-2.35,.95-3.89,.95Zm3.52-2.42c.84,0,1.51-.4,2-1.21,.49-.81,.74-1.88,.74-3.21s-.22-2.58-.66-3.84c-.44-1.26-1.04-2.31-1.81-3.13-.77-.82-1.63-1.24-2.58-1.24-.49,0-.91,.17-1.26,.5-.35,.33-.62,.81-.82,1.42-.19,.61-.29,1.39-.29,2.34,0,1.44,.24,2.81,.71,4.1,.47,1.3,1.08,2.33,1.81,3.1,.74,.77,1.46,1.16,2.16,1.16Z"/>
            <path class="cls-2" d="M715.04,671.66c-1.93,0-3.88-.19-5.84-.58v-7c1.93,1.82,3.77,3.27,5.52,4.34,1.75,1.07,3.3,1.6,4.63,1.6,1.4,0,2.51-.57,3.31-1.71,.81-1.14,1.21-2.88,1.21-5.23v-4.16c-.84,1.05-1.9,1.86-3.18,2.42-1.28,.56-2.59,.84-3.92,.84-1.58,0-3.04-.39-4.39-1.18s-2.45-1.99-3.31-3.6c-.86-1.61-1.29-3.59-1.29-5.94,0-4.49,1.26-7.79,3.79-9.91,2.52-2.12,5.8-3.18,9.83-3.18s7.56,.68,10.89,2.05v17.04c0,3.37-.73,6.1-2.18,8.21-1.46,2.1-3.46,3.63-6.02,4.58-2.56,.95-5.58,1.42-9.05,1.42Zm6.05-11.89c.6,0,1.15-.29,1.66-.87,.51-.58,.88-1.43,1.13-2.55v-15.2c-.32-.6-.71-1.07-1.18-1.42s-.99-.53-1.55-.53c-.84,0-1.63,.37-2.37,1.1s-1.33,1.87-1.79,3.39c-.46,1.53-.68,3.45-.68,5.76,0,2,.24,3.78,.71,5.34,.47,1.56,1.08,2.78,1.81,3.66,.74,.88,1.49,1.31,2.26,1.31Z"/>
            <path class="cls-2" d="M748.01,662.35c-2.98,0-5.5-.54-7.55-1.6-2.05-1.07-3.6-2.51-4.66-4.31-1.05-1.81-1.58-3.9-1.58-6.29,0-2.24,.5-4.26,1.5-6.05,1-1.79,2.48-3.19,4.44-4.21,1.96-1.02,4.35-1.53,7.15-1.53,2.14,0,3.96,.23,5.47,.68,1.51,.46,2.65,1.11,3.42,1.97,.77,.86,1.16,1.89,1.16,3.08-.04,1.26-.56,2.34-1.58,3.23-1.02,.89-2.31,1.57-3.89,2.03-1.58,.46-3.23,.68-4.94,.68v.05c1.65,.18,3.22,.49,4.71,.95,1.49,.46,2.73,1.1,3.71,1.92,.98,.82,1.47,1.85,1.47,3.08,0,1.3-.42,2.42-1.26,3.37-.84,.95-1.95,1.67-3.31,2.18-1.37,.51-2.79,.76-4.26,.76Zm2.89-1.89c1.51,0,2.77-.39,3.79-1.18,1.02-.79,1.53-1.85,1.53-3.18,0-1.44-.79-2.59-2.37-3.47-1.58-.88-3.37-1.5-5.37-1.87-2-.37-3.82-.62-5.47-.76h-.32c-.07,0-.16-.02-.26-.05-.04,2.17,.35,4.06,1.16,5.65,.81,1.6,1.86,2.81,3.16,3.63,1.3,.82,2.68,1.24,4.16,1.24Zm-5.52-10.94c1.09,0,2.09-.32,3.02-.97,.93-.65,1.67-1.53,2.21-2.63,.54-1.1,.81-2.3,.81-3.6,0-.67-.09-1.23-.26-1.68-.18-.46-.43-.8-.76-1.03-.33-.23-.76-.34-1.29-.34-.91,0-1.88,.39-2.89,1.16s-1.88,1.91-2.58,3.42-1.09,3.28-1.16,5.31c.28,.07,.75,.16,1.42,.26,.53,.07,1.02,.11,1.47,.11Z"/>
          </g>
          <path class="cls-2" d="M470.64,663.17c-1.36-1.74-3.13-3.12-4.3-5.01-.36-.58-.92-.55-1.5-.58-1.39-.07-2.76-.24-4.07-.75-.41-.11-.36-.31-.1-.55,1.71,.08,3.42,.17,5.11-.19,1.03-.22,1.46-.06,1.81,1.1,.67,2.2,2,4.05,4.05,5.27,1.86,1.27,3.91,.73,5.9,.57,.88-.07,1.22-.8,1.3-1.64,.07-.76-.04-1.52-.04-2.28,0-2.27,.46-2.62,2.77-2.13,.3,.06,.59,.24,1.03-.08-.15-1.15-.66-2.35-.42-3.62-1.24-.7-2.64-.85-4-1.02-1.47-.19-2.38-.68-2.24-2.33,.02-.25,0-.53-.11-.75-.21-.45,.12-1.35-.71-1.27-.57,.05-.85,.69-.87,1.31-.01,.29,.18,.62,.02,.75-3.78-1.2-5.33-4.12-6.09-7.64-.15-.11-.36-.21-.43-.37-1.05-2.47-2.8-4.3-5.06-5.69-.98-1.18-1.85-2.45-3.03-3.46-.23-.17-.45-.35-.68-.52-1.12-.73-1.58-1.64-.94-2.96,.27-.55,.23-1.2,.22-1.81-.04-.51-.21-.98-.46-1.42-.08-.14-.15-.29-.22-.44-.23-.6-.68-1.1-.79-1.75,.34-.76,.13-1.52-.58-1.74-.85-.26-.97,.55-1,1.19-.03,.52-.33,.58-.76,.59-.92,.02-1.84,.07-3.26,.13,1.84-1.08,3.77-1.32,4.27-3.38,.13-.56,2.41,.15,2.56,.86,.1,.49,.15,.99,.23,1.48,.49,.47,.47,1.17,.77,1.73,.09,.22,.17,.44,.29,.65,1.87,.08,3.1,1.55,4.72,2.18,.15,.25,.23,.49-.09,.68-.09,.07-.16,.14-.23,.23-1.21,.89-2.21,.43-3.02-.65-.96,1.02-.62,2.12-.71,3.15,1.51,1.57,2.79,3.41,4.97,4.17,2.31-.44,2.22,1.45,2.71,2.78,.23,.56,.47,1.12,.83,1.61,.16,.2,.3,.42,.45,.63,.85,1.14,1,2.55,1.54,3.81,.4,1.08,.57,2.34,2.05,2.56,.66,.36,1.32,.56,1.99,0,.15-.08,.31-.12,.47-.14,.43-.35,.79-.81,1.47-.9,.1,.31,.17,.61,.28,.89,.53,1.31,.14,2.69,.32,4.02,1.45-.23,2.57,.52,3.8,1.12,2.26,1.11,3.99,.39,5.2-1.94,.3-.58,.53-.9,.88-.05-.12,.94-.15,1.9-.37,2.81-.16,.66-.19,1.52-1.44,1.2-1.05-.27-.87,.88-1,1.43-.17,.71-.03,1.5-.02,2.26,.01,.74,.73,1.36,.39,2.18-.97,.18-1.67-.51-2.49-.77-1-.32-1.47-.06-1.54,.94-.08,1.13-.17,2.26-.16,3.39,0,1.51-.54,2.18-2.18,2.01-1.5-.16-3.02-.04-4.53-.03-.37,0-.75-.09-1.08,.19-1.03,.87-.41,2.53-1.29,3.24-1.26,1.02-1.21,1.99-.5,3.11,.88,1.4-.63,1.97-1,2.9-.27,.68-1.2,.77-2.1,.14,1.81-.83,2.48-2.05,1.86-3.93-.55-1.66,.21-3.04,1.18-4.37,.72-.98,1.7-2.11-.02-3.14Z"/>
          <path class="cls-2" d="M724.41,678.92c.19-.11,.39-.19,.59-.27-.29-.43,.36-.69,.53-1.05,.09-.19,.25-.36,.43-.48,1.15-.81,.97-1.68,.28-2.73-.63-.98-1.31-1.97-1.53-3.16,.95-.54,1.45-1.53,2.12-2.26,.44,.11,.5,.4,.62,.63,.94,1.77,1.43,1.87,2.9,.63,.49-.42,.93-.9,1.46-1.27,.59-.41,1.25-.59,1.78-.05,1.19,1.21,2.67,2.25,2.87,4.15,.33,2-.14,3.88-1.2,5.53-.56,.87-.43,1.23,.28,1.78,1.16,.89,2.04,2.06,2.92,3.21,.3,.04,.45-.04,.3-.37-.38-1.13-1.03-2.12-1.74-3.06-.3-.39-.62-.75-.44-1.3,.59-1.8,.51-3.71,.9-5.55-.27-1.68,1-1.66,2.03-1.73,1.4-.1,2.71-.36,3.49-1.63,.88-1.43,2.04-1.67,3.57-.95-.08-.93-.65-1.49-1.24-1.29-.81,.27-2-.4-2.43,.94-.34,1.08-.95,1.64-2.3,1.38-.95-.18-1.68,1.13-2.82,.94-.37-.06-.52-.36-.72-.6-.84-.98-1.75-1.9-2.47-2.96-.78-1.15-1.53-1.14-2.5-.31-.73,.62-1.51,1.19-2.29,1.76-.69,.5-1.11,.34-1.45-.49-.28-.68-.22-1.51-.87-2.04-.72,.22-.73,1.03-1.2,1.45-.48,.42-.92,.94-1.48,1.23-.42,.22-1.08,.97-1.47,.14-.47-.98-1.05-.53-1.57-.28-.71,.36-1.36,.86-2.03,1.3-.36,.69-.03,.67,.51,.54,2.17-.49,3.59,.24,4.11,2.31,.28,1.13,.41,2.27,1.35,3.08-.77,.85-1.88,1.35-2.44,2.41-.12,.23-.28,.44-.42,.67,.19,.18,.4,.27,.62,.33,.29-.24,.61-.43,.96-.6Z"/>
          <path class="cls-2" d="M768.96,634.45c-1.79-1.15-1.37-3.05-1.78-5.15-.41,1.36-.66,2.25-.95,3.12-.13,.4-.18,.71,.3,.91,.6,.25,1.32,.63,.8,1.34-.44,.6-1.22,.54-1.83-.03-.65-.11-1.27,.15-1.92,.17-.16,.02-.32,.03-.49,.07-.5,.09-1,.1-1.49-.03-.58-.19-1.21-.37-1.64-.8-1.03-1.04-2.05-.91-3.11-.09-.24,.15-.48,.31-.72,.47-1.34,.78-2.83,1.18-4.26,1.72-1.25,1.02-2.6,1.8-4.07,2.3,0,.03,0,.06,0,.09,.67,.01,1.34,.1,2,.29,.71,.2,1.34,.54,1.89,1,.22-.26,.38-.64,.46-1.19,1.44-1.81,3.6-2.41,5.58-3.31,.94,.42,2.09,.47,2.74,1.71-1.29,.41-2.05,1.2-1.61,2.64,.06,.09,.11,.19,.14,.29,.07,.37,.32,.37,.61,.31,1.13-1.32,2.92-1.99,3.61-3.73,.23-.04,.47-.04,.71-.06,.62-.1,1.28,.15,1.88-.16,.49,.09,.98,.21,1.47,.27,.72,.09,2.15-1.82,1.66-2.13Z"/>
        </g>
        <g>
          <path class="cls-7" d="M479.03,660.4v-33.14h24.19l.05,5.68c-.7-.74-1.8-1.48-3.29-2.24-1.49-.75-3.12-1.36-4.89-1.81-1.77-.46-3.32-.68-4.65-.68h-3v14.57h10.2v1.05h-10.2v13.89c2.74-.42,5.35-.84,7.84-1.26,.53-.07,1.03-.15,1.53-.24,.49-.09,.96-.18,1.42-.29,1.16-.21,2.2-.45,3.13-.71,.93-.26,1.8-.55,2.6-.87v6.05c-.39,0-.95-.04-1.68-.13-.74-.09-1.51-.2-2.31-.34-2.35-.35-4.37-.61-6.05-.79-1.68-.17-3.4-.26-5.15-.26-3.68,0-6.73,.51-9.15,1.53h-.58Z"/>
          <path class="cls-7" d="M505.8,660.4v-33.14h8.42v33.14h-8.42Z"/>
          <path class="cls-7" d="M530.31,661.4c-2.98,0-5.5-.54-7.55-1.6-2.05-1.07-3.6-2.51-4.66-4.31-1.05-1.81-1.58-3.9-1.58-6.29,0-2.24,.5-4.26,1.5-6.05,1-1.79,2.48-3.19,4.44-4.21,1.96-1.02,4.35-1.53,7.15-1.53,2.14,0,3.96,.23,5.47,.68,1.51,.46,2.65,1.11,3.42,1.97,.77,.86,1.16,1.89,1.16,3.08-.04,1.26-.56,2.34-1.58,3.23-1.02,.89-2.31,1.57-3.89,2.03-1.58,.46-3.23,.68-4.94,.68v.05c1.65,.18,3.22,.49,4.71,.95,1.49,.46,2.73,1.1,3.71,1.92,.98,.82,1.47,1.85,1.47,3.08,0,1.3-.42,2.42-1.26,3.37-.84,.95-1.95,1.67-3.31,2.18-1.37,.51-2.79,.76-4.26,.76Zm2.89-1.89c1.51,0,2.77-.39,3.79-1.18,1.02-.79,1.53-1.85,1.53-3.18,0-1.44-.79-2.59-2.37-3.47-1.58-.88-3.37-1.5-5.37-1.87-2-.37-3.82-.62-5.47-.76h-.32c-.07,0-.16-.02-.26-.05-.04,2.17,.35,4.06,1.16,5.65,.81,1.6,1.86,2.81,3.16,3.63,1.3,.82,2.68,1.24,4.16,1.24Zm-5.52-10.94c1.09,0,2.09-.32,3.02-.97,.93-.65,1.67-1.53,2.21-2.63,.54-1.1,.81-2.3,.81-3.6,0-.67-.09-1.23-.26-1.68-.18-.46-.43-.8-.76-1.03-.33-.23-.76-.34-1.29-.34-.91,0-1.88,.39-2.89,1.16s-1.88,1.91-2.58,3.42-1.09,3.28-1.16,5.31c.28,.07,.75,.16,1.42,.26,.53,.07,1.02,.11,1.47,.11Z"/>
          <path class="cls-7" d="M541.67,660.4v-33.14h8.42v21.25h.11c.95-1.79,2.25-3.54,3.92-5.26,1.67-1.72,3.41-3.12,5.23-4.21s3.52-1.63,5.1-1.63v5.31c-2-.35-4.02-.21-6.05,.42-1.12,.35-2.2,.82-3.23,1.39-1.04,.58-1.9,1.24-2.6,1.97l-.05,.16c1.23-.63,2.35-.95,3.37-.95,1.16,0,2.21,.48,3.16,1.45,.95,.96,1.74,2.1,2.39,3.39,.65,1.3,1.39,2.96,2.24,5,.39,.95,.76,1.85,1.13,2.71s.73,1.57,1.08,2.13h-8.42c-.21-.39-.42-1.02-.63-1.89-.21-.88-.44-2-.68-3.37-.32-1.37-.63-2.65-.95-3.84-.32-1.19-.67-2.17-1.05-2.95-.39-.77-.81-1.16-1.26-1.16s-.86,.16-1.21,.47c-.35,.32-.66,.71-.92,1.18-.26,.47-.46,.97-.6,1.5l-.05,.05v9.99h-8.42Z"/>
          <path class="cls-7" d="M578.38,661.29c-3.02,0-5.45-.63-7.31-1.89-1.86-1.26-2.79-3.12-2.79-5.58v-14.57h-2.52v-.95h1.37c1.51,0,2.93-.52,4.26-1.55,1.33-1.03,2.4-2.38,3.21-4.05,.81-1.67,1.21-3.48,1.21-5.44h.89v11.05h6.63v.95h-6.63v17.36c0,1.16,.18,2.03,.53,2.6,.35,.58,.84,.87,1.47,.87,.7,0,1.52-.42,2.45-1.26,.93-.84,1.87-2.05,2.81-3.63l1.37,5.21c-2.42,.6-4.73,.89-6.94,.89Z"/>
          <path class="cls-7" d="M587.01,660.4v-22.09h8.42v8.52h.11c.6-1.61,1.34-3.08,2.24-4.39,.89-1.32,1.89-2.38,3-3.21,1.1-.82,2.3-1.27,3.6-1.34l.47,5.47c-1.51-.03-2.95,.13-4.31,.5-1.37,.37-2.55,1.08-3.55,2.13-1,1.05-1.52,2.49-1.55,4.31v10.1h-8.42Z"/>
          <path class="cls-7" d="M618.3,661.24c-2.31,0-4.47-.5-6.47-1.5-2-1-3.61-2.44-4.84-4.31-1.23-1.88-1.84-4.06-1.84-6.55s.63-4.51,1.89-6.26c1.26-1.75,2.89-3.08,4.89-3.97,2-.89,4.12-1.34,6.36-1.34s4.37,.46,6.36,1.37c2,.91,3.62,2.26,4.87,4.05,1.24,1.79,1.87,3.91,1.87,6.36,0,2.6-.6,4.81-1.81,6.65-1.21,1.84-2.81,3.22-4.81,4.13-2,.91-4.16,1.37-6.47,1.37Zm1.79-.95c.98,0,1.74-.49,2.26-1.47,.53-.98,.84-2.27,.95-3.87s.02-3.38-.26-5.34c-.25-2.07-.68-3.95-1.29-5.65-.61-1.7-1.37-3.07-2.26-4.1s-1.87-1.55-2.92-1.55c-.98,0-1.75,.51-2.29,1.53-.54,1.02-.87,2.36-.97,4.02-.11,1.67-.04,3.48,.21,5.44,.25,1.93,.67,3.74,1.29,5.44,.61,1.7,1.38,3.05,2.29,4.05,.91,1,1.91,1.5,3,1.5Z"/>
          <path class="cls-7" d="M648.86,661.13c-1.3-.04-2.54-.14-3.73-.32-1.19-.18-2.19-.42-3-.74l1.1-6c.77,.67,1.6,1.33,2.47,2,1.47,1.09,2.82,1.98,4.05,2.68,1.23,.7,2.19,1.07,2.89,1.1,.77-.03,1.38-.21,1.84-.53s.68-.79,.68-1.42c0-.67-.3-1.39-.89-2.18-.6-.79-1.37-1.59-2.31-2.39-.95-.81-2.16-1.75-3.63-2.84l-.16-.1c-.07-.04-.14-.08-.21-.13-.07-.05-.14-.1-.21-.13-2.03-1.54-3.5-2.78-4.39-3.71-.89-.93-1.34-1.94-1.34-3.02-.04-1.93,1.08-3.41,3.34-4.44,2.26-1.03,4.97-1.55,8.13-1.55,1.16,0,2.33,.08,3.52,.24,1.19,.16,2.28,.39,3.26,.71l-1,6c-.7-.88-1.62-1.78-2.76-2.71-1.14-.93-2.3-1.7-3.47-2.31-1.17-.61-2.1-.92-2.76-.92-.6,0-1.1,.11-1.53,.34-.42,.23-.63,.57-.63,1.03,0,.56,.49,1.3,1.47,2.21,.98,.91,2.42,2.07,4.31,3.47l.79,.53,.21,.16c1.51,1.05,2.68,1.94,3.52,2.66s1.53,1.5,2.08,2.34c.54,.84,.82,1.72,.82,2.63,0,1.68-.6,3.08-1.81,4.18-1.21,1.1-2.76,1.91-4.66,2.42s-3.89,.76-6,.76Z"/>
          <path class="cls-7" d="M674.43,661.29c-3.02,0-5.45-.63-7.31-1.89-1.86-1.26-2.79-3.12-2.79-5.58v-14.57h-2.52v-.95h1.37c1.51,0,2.93-.52,4.26-1.55,1.33-1.03,2.4-2.38,3.21-4.05,.81-1.67,1.21-3.48,1.21-5.44h.89v11.05h6.63v.95h-6.63v17.36c0,1.16,.18,2.03,.53,2.6,.35,.58,.84,.87,1.47,.87,.7,0,1.52-.42,2.45-1.26,.93-.84,1.87-2.05,2.81-3.63l1.37,5.21c-2.42,.6-4.73,.89-6.94,.89Z"/>
          <path class="cls-7" d="M690.73,661.34c-1.93,0-3.59-.45-5-1.34-1.4-.89-2.46-2.04-3.16-3.45-.7-1.4-1.05-2.88-1.05-4.42,0-1.37,.29-2.62,.87-3.76,.58-1.14,1.43-2.04,2.55-2.71,1.12-.67,2.44-1,3.95-1,.81,0,1.61,.13,2.42,.39s1.54,.66,2.21,1.18l.05-.05c-.25-.21-.46-.43-.63-.66-.18-.23-.37-.45-.58-.66-.74-.91-1.28-1.67-1.63-2.29-.35-.61-.53-1.27-.53-1.97,0-1.05,.42-1.85,1.26-2.39,.84-.54,1.93-.82,3.26-.82,1.82,0,3.67,.48,5.55,1.45,1.88,.96,3.45,2.43,4.73,4.39,1.28,1.96,1.92,4.37,1.92,7.21v9.94h-8.47v-10.99c0-2.45-.31-4.46-.92-6.02-.61-1.56-1.36-2.71-2.24-3.44-.88-.74-1.77-1.1-2.68-1.1-.6,0-1.04,.17-1.34,.5-.3,.33-.45,.75-.45,1.24,0,.63,.18,1.27,.53,1.92,.35,.65,.93,1.45,1.74,2.39,.28,.35,.58,.71,.89,1.08,.32,.37,.61,.75,.89,1.13,.07,.04,.1,.06,.1,.08,0,.02,.02,.04,.05,.08,.53,.63,.98,1.32,1.37,2.05,.38,.74,.69,1.55,.92,2.45,.23,.89,.34,1.9,.34,3.02s-.25,2.14-.74,3.16-1.26,1.84-2.31,2.47-2.35,.95-3.89,.95Zm3.52-2.42c.84,0,1.51-.4,2-1.21,.49-.81,.74-1.88,.74-3.21s-.22-2.58-.66-3.84c-.44-1.26-1.04-2.31-1.81-3.13-.77-.82-1.63-1.24-2.58-1.24-.49,0-.91,.17-1.26,.5-.35,.33-.62,.81-.82,1.42-.19,.61-.29,1.39-.29,2.34,0,1.44,.24,2.81,.71,4.1,.47,1.3,1.08,2.33,1.81,3.1,.74,.77,1.46,1.16,2.16,1.16Z"/>
          <path class="cls-7" d="M716.13,670.71c-1.93,0-3.88-.19-5.84-.58v-7c1.93,1.82,3.77,3.27,5.52,4.34,1.75,1.07,3.3,1.6,4.63,1.6,1.4,0,2.51-.57,3.31-1.71,.81-1.14,1.21-2.88,1.21-5.23v-4.16c-.84,1.05-1.9,1.86-3.18,2.42-1.28,.56-2.59,.84-3.92,.84-1.58,0-3.04-.39-4.39-1.18s-2.45-1.99-3.31-3.6c-.86-1.61-1.29-3.59-1.29-5.94,0-4.49,1.26-7.79,3.79-9.91,2.52-2.12,5.8-3.18,9.83-3.18s7.56,.68,10.89,2.05v17.04c0,3.37-.73,6.1-2.18,8.21-1.46,2.1-3.46,3.63-6.02,4.58-2.56,.95-5.58,1.42-9.05,1.42Zm6.05-11.89c.6,0,1.15-.29,1.66-.87,.51-.58,.88-1.43,1.13-2.55v-15.2c-.32-.6-.71-1.07-1.18-1.42s-.99-.53-1.55-.53c-.84,0-1.63,.37-2.37,1.1s-1.33,1.87-1.79,3.39c-.46,1.53-.68,3.45-.68,5.76,0,2,.24,3.78,.71,5.34,.47,1.56,1.08,2.78,1.81,3.66,.74,.88,1.49,1.31,2.26,1.31Z"/>
          <path class="cls-7" d="M749.11,661.4c-2.98,0-5.5-.54-7.55-1.6-2.05-1.07-3.6-2.51-4.66-4.31-1.05-1.81-1.58-3.9-1.58-6.29,0-2.24,.5-4.26,1.5-6.05,1-1.79,2.48-3.19,4.44-4.21,1.96-1.02,4.35-1.53,7.15-1.53,2.14,0,3.96,.23,5.47,.68,1.51,.46,2.65,1.11,3.42,1.97,.77,.86,1.16,1.89,1.16,3.08-.04,1.26-.56,2.34-1.58,3.23-1.02,.89-2.31,1.57-3.89,2.03-1.58,.46-3.23,.68-4.94,.68v.05c1.65,.18,3.22,.49,4.71,.95,1.49,.46,2.73,1.1,3.71,1.92,.98,.82,1.47,1.85,1.47,3.08,0,1.3-.42,2.42-1.26,3.37-.84,.95-1.95,1.67-3.31,2.18-1.37,.51-2.79,.76-4.26,.76Zm2.89-1.89c1.51,0,2.77-.39,3.79-1.18,1.02-.79,1.53-1.85,1.53-3.18,0-1.44-.79-2.59-2.37-3.47-1.58-.88-3.37-1.5-5.37-1.87-2-.37-3.82-.62-5.47-.76h-.32c-.07,0-.16-.02-.26-.05-.04,2.17,.35,4.06,1.16,5.65,.81,1.6,1.86,2.81,3.16,3.63,1.3,.82,2.68,1.24,4.16,1.24Zm-5.52-10.94c1.09,0,2.09-.32,3.02-.97,.93-.65,1.67-1.53,2.21-2.63,.54-1.1,.81-2.3,.81-3.6,0-.67-.09-1.23-.26-1.68-.18-.46-.43-.8-.76-1.03-.33-.23-.76-.34-1.29-.34-.91,0-1.88,.39-2.89,1.16s-1.88,1.91-2.58,3.42-1.09,3.28-1.16,5.31c.28,.07,.75,.16,1.42,.26,.53,.07,1.02,.11,1.47,.11Z"/>
        </g>
      </g>
      <g>
        <rect class="cls-3" x="532.65" y="481.82" width="59.86" height="31.2"/>
        <g>
          <path class="cls-2" d="M620.95,511.9c-1.31,0-2.59-.1-3.84-.31s-2.42-.5-3.5-.89l.77-5.52c1.63,1.28,3.54,2.3,5.71,3.07,2.18,.77,4.14,1.15,5.9,1.15,1.6,0,2.89-.32,3.86-.96,.98-.64,1.46-1.57,1.46-2.78,0-.93-.36-1.84-1.08-2.74-.72-.9-1.62-1.71-2.71-2.45-1.09-.74-2.59-1.66-4.51-2.78-.03-.03-.06-.06-.1-.1-.03-.03-.1-.06-.19-.1-.16-.13-.31-.23-.46-.31-.14-.08-.31-.17-.5-.26-1.86-1.09-3.4-2.08-4.63-2.98-1.23-.9-2.26-1.87-3.07-2.93-.82-1.06-1.22-2.16-1.22-3.31,0-2.53,1.43-4.42,4.3-5.69,2.86-1.26,6.38-1.9,10.54-1.9,1.41,0,2.75,.06,4.03,.17,1.28,.11,2.5,.3,3.65,.55l-.72,5.52c-1.31-.93-2.71-1.75-4.2-2.47-1.49-.72-2.94-1.29-4.34-1.7-1.41-.42-2.66-.62-3.74-.62-1.25,0-2.25,.2-3,.6-.75,.4-1.13,1-1.13,1.8,0,.54,.31,1.13,.94,1.75s1.44,1.25,2.45,1.87c1.01,.62,2.25,1.34,3.72,2.14,.22,.13,.43,.26,.62,.38,.19,.13,.4,.24,.62,.34,.06,.03,.12,.06,.17,.07,.05,.02,.1,.04,.17,.07,1.92,1.06,3.5,2,4.75,2.83,1.25,.83,2.31,1.89,3.19,3.17,.88,1.28,1.32,2.75,1.32,4.42,0,2.27-.72,4.23-2.16,5.88-1.44,1.65-3.33,2.9-5.66,3.74s-4.8,1.27-7.39,1.27Zm-.82-33.46l-3.94-3.22,8.3-4.18,8.35,4.18-3.55,3.22-4.8-6.72-4.37,6.72Z"/>
          <path class="cls-2" d="M646.1,511.95c-1.76,0-3.28-.41-4.56-1.22-1.28-.82-2.24-1.86-2.88-3.14-.64-1.28-.96-2.62-.96-4.03,0-1.25,.26-2.39,.79-3.43,.53-1.04,1.3-1.86,2.33-2.47,1.02-.61,2.22-.91,3.6-.91,.74,0,1.47,.12,2.21,.36,.74,.24,1.41,.6,2.02,1.08l.05-.05c-.22-.19-.42-.39-.58-.6-.16-.21-.34-.41-.53-.6-.67-.83-1.17-1.53-1.49-2.09-.32-.56-.48-1.16-.48-1.8,0-.96,.38-1.69,1.15-2.18,.77-.5,1.76-.74,2.98-.74,1.66,0,3.35,.44,5.06,1.32,1.71,.88,3.15,2.22,4.32,4.01,1.17,1.79,1.75,3.98,1.75,6.58v9.07h-7.73v-10.03c0-2.24-.28-4.07-.84-5.5-.56-1.42-1.24-2.47-2.04-3.14-.8-.67-1.62-1.01-2.45-1.01-.54,0-.95,.15-1.22,.46-.27,.3-.41,.68-.41,1.13,0,.58,.16,1.16,.48,1.75,.32,.59,.85,1.32,1.58,2.18,.26,.32,.53,.65,.82,.98s.56,.68,.82,1.03c.06,.03,.1,.06,.1,.07,0,.02,.02,.04,.05,.07,.48,.58,.9,1.2,1.25,1.87,.35,.67,.63,1.42,.84,2.23,.21,.82,.31,1.74,.31,2.76s-.22,1.95-.67,2.88c-.45,.93-1.15,1.68-2.11,2.26s-2.14,.86-3.55,.86Zm3.22-2.21c.77,0,1.38-.37,1.82-1.1,.45-.74,.67-1.71,.67-2.93s-.2-2.35-.6-3.5c-.4-1.15-.95-2.1-1.66-2.86-.7-.75-1.49-1.13-2.35-1.13-.45,0-.83,.15-1.15,.46-.32,.3-.57,.74-.74,1.3-.18,.56-.26,1.27-.26,2.14,0,1.31,.22,2.56,.65,3.74,.43,1.18,.98,2.13,1.66,2.83,.67,.71,1.33,1.06,1.97,1.06Z"/>
          <path class="cls-2" d="M663.14,511.27v-20.35h7.68v3.6h.1c.7-1.38,1.71-2.46,3.02-3.26,1.31-.8,2.67-1.2,4.08-1.2,1.25,0,2.4,.27,3.46,.82,1.06,.54,1.9,1.36,2.54,2.45,.64,1.09,.96,2.4,.96,3.94v13.82h-7.68v-14.5c0-1.25-.26-2.23-.79-2.95-.53-.72-1.19-1.08-1.99-1.08-.48,0-.98,.18-1.51,.53-.53,.35-.99,.85-1.39,1.49-.4,.64-.66,1.41-.79,2.3v14.4h-7.68Z"/>
          <path class="cls-2" d="M687.38,511.08v-30.24h7.68v19.39h.1c.86-1.63,2.06-3.23,3.58-4.8,1.52-1.57,3.11-2.85,4.78-3.84,1.66-.99,3.22-1.49,4.66-1.49v4.85c-1.82-.32-3.67-.19-5.52,.38-1.02,.32-2.01,.74-2.95,1.27-.94,.53-1.74,1.13-2.38,1.8l-.05,.14c1.12-.58,2.14-.86,3.07-.86,1.06,0,2.02,.44,2.88,1.32,.86,.88,1.59,1.91,2.18,3.1s1.27,2.7,2.04,4.56c.35,.86,.7,1.69,1.03,2.47,.34,.79,.66,1.43,.98,1.94h-7.68c-.19-.35-.38-.93-.58-1.73-.19-.8-.4-1.82-.62-3.07-.29-1.25-.58-2.42-.86-3.5s-.61-1.98-.96-2.69c-.35-.7-.74-1.06-1.15-1.06s-.78,.14-1.1,.43c-.32,.29-.6,.65-.84,1.08-.24,.43-.42,.89-.55,1.37l-.05,.05v9.12h-7.68Z"/>
        </g>
      </g>
    </g>
  </g>
  <g id="trec">
    <g/>
    <g>
      <g>
        <path class="cls-6" d="M326.98,207.08c-7.43,0-14.29-1.66-20.6-4.99-6.31-3.33-11.3-7.97-14.97-13.93-3.68-5.96-5.51-12.73-5.51-20.31,0-9.21,2.17-16.61,6.5-22.22,4.33-5.61,9.79-9.63,16.36-12.07,6.58-2.44,13.73-3.66,21.47-3.66,3.95,0,7.25,.16,9.92,.46,2.67,.31,5.17,.77,7.49,1.39l.93,14.51c-4.64-4.56-9.09-7.97-13.35-10.21-4.26-2.24-8.2-3.37-11.84-3.37s-7.14,1.2-10.04,3.6c-2.9,2.4-5.11,5.92-6.61,10.56s-2.19,10.33-2.03,17.06c.15,5.88,1.16,11.76,3.02,17.64,1.86,5.88,4.51,10.83,7.95,14.85,3.44,4.02,7.52,6.38,12.24,7.08,1.55,.16,3.02,.12,4.41-.12v-44.33h18.57v41.66c-3.71,2.09-7.6,3.68-11.66,4.76-4.06,1.08-8.14,1.62-12.24,1.62Z"/>
        <path class="cls-6" d="M376.41,207.54c-4.26,0-7.93-.99-11.03-2.96-3.1-1.97-5.42-4.51-6.96-7.6-1.55-3.09-2.32-6.34-2.32-9.75,0-3.02,.64-5.78,1.92-8.3,1.28-2.51,3.15-4.51,5.63-5.98,2.48-1.47,5.38-2.21,8.7-2.21,1.78,0,3.56,.29,5.34,.87,1.78,.58,3.4,1.45,4.87,2.61l.12-.12c-.54-.46-1.01-.95-1.39-1.45-.39-.5-.81-.99-1.28-1.45-1.62-2.01-2.83-3.69-3.6-5.05-.77-1.35-1.16-2.8-1.16-4.35,0-2.32,.93-4.08,2.79-5.28,1.86-1.2,4.25-1.8,7.2-1.8,4.02,0,8.1,1.06,12.24,3.19,4.14,2.13,7.62,5.36,10.45,9.69,2.82,4.33,4.24,9.63,4.24,15.9v21.93h-18.68v-24.26c0-5.41-.68-9.84-2.03-13.29-1.35-3.44-3-5.98-4.93-7.6-1.94-1.62-3.91-2.44-5.92-2.44-1.32,0-2.3,.37-2.96,1.1-.66,.74-.99,1.64-.99,2.73,0,1.39,.39,2.81,1.16,4.24,.77,1.43,2.05,3.19,3.83,5.28,.62,.77,1.28,1.57,1.97,2.38s1.35,1.64,1.97,2.5c.15,.08,.23,.14,.23,.17s.04,.1,.12,.17c1.16,1.39,2.17,2.9,3.02,4.53,.85,1.62,1.53,3.42,2.03,5.4,.5,1.97,.75,4.2,.75,6.67s-.54,4.72-1.62,6.96c-1.08,2.25-2.79,4.06-5.11,5.45s-5.18,2.09-8.59,2.09Zm7.78-5.34c1.86,0,3.33-.89,4.41-2.67,1.08-1.78,1.62-4.14,1.62-7.08s-.48-5.69-1.45-8.47c-.97-2.79-2.3-5.09-4-6.91-1.7-1.82-3.6-2.73-5.69-2.73-1.08,0-2.01,.37-2.79,1.1-.77,.74-1.38,1.78-1.8,3.13-.43,1.35-.64,3.08-.64,5.16,0,3.17,.52,6.19,1.57,9.05,1.04,2.86,2.38,5.15,4,6.85,1.62,1.7,3.21,2.55,4.76,2.55Z"/>
        <path class="cls-6" d="M417.61,205.45v-73.11h18.57v73.11h-18.57Z"/>
        <path class="cls-6" d="M471.69,207.66c-6.58,0-12.13-1.18-16.65-3.54-4.53-2.36-7.95-5.53-10.27-9.52-2.32-3.98-3.48-8.61-3.48-13.87,0-4.95,1.1-9.4,3.31-13.35s5.47-7.04,9.81-9.28c4.33-2.24,9.59-3.37,15.78-3.37,4.72,0,8.74,.5,12.07,1.51,3.33,1.01,5.84,2.46,7.54,4.35,1.7,1.9,2.55,4.16,2.55,6.79-.08,2.79-1.24,5.16-3.48,7.14-2.25,1.97-5.11,3.46-8.59,4.47-3.48,1.01-7.12,1.51-10.91,1.51v.12c3.64,.39,7.1,1.08,10.39,2.09,3.29,1.01,6.01,2.42,8.18,4.24,2.17,1.82,3.25,4.08,3.25,6.79,0,2.86-.93,5.34-2.79,7.43-1.86,2.09-4.29,3.7-7.31,4.82-3.02,1.12-6.15,1.68-9.4,1.68Zm6.38-4.18c3.33,0,6.11-.87,8.36-2.61,2.24-1.74,3.37-4.08,3.37-7.02,0-3.17-1.74-5.72-5.22-7.66-3.48-1.93-7.43-3.31-11.84-4.12-4.41-.81-8.43-1.37-12.07-1.68h-.7c-.16,0-.35-.04-.58-.12-.08,4.8,.77,8.96,2.55,12.48,1.78,3.52,4.1,6.19,6.96,8.01,2.86,1.82,5.92,2.73,9.17,2.73Zm-12.19-24.14c2.4,0,4.62-.71,6.67-2.15,2.05-1.43,3.67-3.37,4.87-5.8,1.2-2.44,1.8-5.09,1.8-7.95,0-1.47-.19-2.71-.58-3.71-.39-1-.95-1.76-1.68-2.26-.74-.5-1.68-.75-2.84-.75-2.01,0-4.14,.85-6.38,2.55-2.24,1.7-4.14,4.22-5.69,7.54-1.55,3.33-2.4,7.24-2.55,11.72,.62,.16,1.66,.35,3.13,.58,1.16,.16,2.24,.23,3.25,.23Z"/>
        <path class="cls-6" d="M496.76,205.45v-48.74h18.57v18.8h.23c1.31-3.56,2.96-6.79,4.93-9.69,1.97-2.9,4.18-5.26,6.62-7.08,2.44-1.82,5.09-2.8,7.95-2.96l1.04,12.07c-3.33-.08-6.5,.29-9.52,1.1s-5.63,2.38-7.83,4.7-3.35,5.49-3.42,9.52v22.28h-18.57Z"/>
        <path class="cls-6" d="M550.38,152.18c-2.94,0-5.4-.95-7.37-2.84-1.97-1.9-2.96-4.12-2.96-6.67s.99-4.76,2.96-6.62c1.97-1.86,4.43-2.79,7.37-2.79,2.63,0,4.91,.93,6.85,2.79,1.93,1.86,2.9,4.06,2.9,6.62s-.99,4.78-2.96,6.67c-1.97,1.9-4.24,2.84-6.79,2.84Zm-9.63,53.73v-49.21h18.57v49.21h-18.57Z"/>
        <path class="cls-6" d="M549.45,216.94c5.65,3.02,9.86,4.58,12.65,4.7,2.79,.12,4.58-.58,5.4-2.09,.81-1.51,1.22-3.54,1.22-6.09v-56.75h18.57v38.88c0,7.43-1.76,13.56-5.28,18.39-3.52,4.83-8.14,8.34-13.87,10.5-5.72,2.17-11.95,3.25-18.68,3.25v-10.79Zm28.9-64.29c-2.71,0-5.05-.97-7.02-2.9-1.97-1.93-2.96-4.22-2.96-6.85s.99-4.99,2.96-6.85,4.31-2.79,7.02-2.79,4.89,.93,6.79,2.79c1.89,1.86,2.84,4.14,2.84,6.85s-.93,4.91-2.79,6.85c-1.86,1.94-4.14,2.9-6.85,2.9Z"/>
        <path class="cls-6" d="M613.16,207.54c-4.26,0-7.93-.99-11.03-2.96-3.1-1.97-5.42-4.51-6.96-7.6-1.55-3.09-2.32-6.34-2.32-9.75,0-3.02,.64-5.78,1.92-8.3,1.28-2.51,3.15-4.51,5.63-5.98,2.48-1.47,5.38-2.21,8.7-2.21,1.78,0,3.56,.29,5.34,.87,1.78,.58,3.4,1.45,4.87,2.61l.12-.12c-.54-.46-1.01-.95-1.39-1.45-.39-.5-.81-.99-1.28-1.45-1.62-2.01-2.83-3.69-3.6-5.05-.77-1.35-1.16-2.8-1.16-4.35,0-2.32,.93-4.08,2.79-5.28,1.86-1.2,4.25-1.8,7.2-1.8,4.02,0,8.1,1.06,12.24,3.19,4.14,2.13,7.62,5.36,10.45,9.69,2.82,4.33,4.24,9.63,4.24,15.9v21.93h-18.68v-24.26c0-5.41-.68-9.84-2.03-13.29-1.35-3.44-3-5.98-4.93-7.6-1.94-1.62-3.91-2.44-5.92-2.44-1.32,0-2.3,.37-2.96,1.1-.66,.74-.99,1.64-.99,2.73,0,1.39,.39,2.81,1.16,4.24,.77,1.43,2.05,3.19,3.83,5.28,.62,.77,1.28,1.57,1.97,2.38s1.35,1.64,1.97,2.5c.15,.08,.23,.14,.23,.17s.04,.1,.12,.17c1.16,1.39,2.17,2.9,3.02,4.53,.85,1.62,1.53,3.42,2.03,5.4,.5,1.97,.75,4.2,.75,6.67s-.54,4.72-1.62,6.96c-1.08,2.25-2.79,4.06-5.11,5.45s-5.18,2.09-8.59,2.09Zm7.78-5.34c1.86,0,3.33-.89,4.41-2.67,1.08-1.78,1.62-4.14,1.62-7.08s-.48-5.69-1.45-8.47c-.97-2.79-2.3-5.09-4-6.91-1.7-1.82-3.6-2.73-5.69-2.73-1.08,0-2.01,.37-2.79,1.1-.77,.74-1.38,1.78-1.8,3.13-.43,1.35-.64,3.08-.64,5.16,0,3.17,.52,6.19,1.57,9.05,1.04,2.86,2.38,5.15,4,6.85,1.62,1.7,3.21,2.55,4.76,2.55Z"/>
        <path class="cls-6" d="M690.56,207.43c-3.17,0-6.27-.25-9.28-.75-3.02-.5-5.84-1.22-8.47-2.15l1.86-13.35c3.95,3.1,8.55,5.57,13.81,7.43,5.26,1.86,10.02,2.79,14.27,2.79,3.87,0,6.98-.77,9.34-2.32,2.36-1.55,3.54-3.79,3.54-6.73,0-2.24-.87-4.45-2.61-6.61-1.74-2.17-3.93-4.14-6.56-5.92-2.63-1.78-6.27-4.02-10.91-6.73-.08-.08-.16-.15-.23-.23-.08-.08-.23-.15-.46-.23-.39-.31-.75-.56-1.1-.75-.35-.19-.75-.41-1.22-.64-4.49-2.63-8.22-5.03-11.2-7.2-2.98-2.17-5.45-4.53-7.43-7.08-1.97-2.55-2.96-5.22-2.96-8.01,0-6.11,3.46-10.69,10.39-13.75,6.92-3.06,15.42-4.58,25.47-4.58,3.4,0,6.65,.14,9.75,.41,3.09,.27,6.04,.72,8.82,1.33l-1.74,13.35c-3.17-2.24-6.56-4.24-10.15-5.98s-7.1-3.11-10.5-4.12c-3.41-1-6.42-1.51-9.05-1.51-3.02,0-5.44,.48-7.25,1.45-1.82,.97-2.73,2.42-2.73,4.35,0,1.32,.75,2.73,2.26,4.24,1.51,1.51,3.48,3.02,5.92,4.53,2.44,1.51,5.43,3.23,8.99,5.16,.54,.31,1.04,.62,1.51,.93,.46,.31,.97,.58,1.51,.81,.15,.08,.29,.14,.41,.17,.12,.04,.25,.1,.41,.17,4.64,2.55,8.47,4.84,11.49,6.85,3.02,2.01,5.59,4.57,7.72,7.66,2.13,3.1,3.19,6.65,3.19,10.68,0,5.49-1.74,10.23-5.22,14.22-3.48,3.99-8.05,7-13.69,9.05-5.65,2.05-11.61,3.08-17.87,3.08Z"/>
        <path class="cls-6" d="M769.13,207.08c-7.89,0-14.7-1.74-20.43-5.22-5.73-3.48-10.12-8.18-13.17-14.1-3.06-5.92-4.58-12.55-4.58-19.9,0-7.89,1.47-14.6,4.41-20.14,2.94-5.53,7.2-9.73,12.77-12.59,5.57-2.86,12.3-4.29,20.19-4.29,2.94,0,6.25,.14,9.92,.41,3.67,.27,6.98,.64,9.92,1.1l-2.55,13.35c-3.02-4.02-5.98-7.04-8.88-9.05-2.9-2.01-5.71-3.02-8.41-3.02-3.33,0-6.27,1.33-8.82,4-2.55,2.67-4.55,6.5-5.98,11.49-1.43,4.99-2.15,10.89-2.15,17.7,0,7.66,.81,14.33,2.44,20.02,1.62,5.69,3.89,10.02,6.79,13,2.9,2.98,6.13,4.47,9.69,4.47,3.17,0,6.46-1.2,9.86-3.6,3.4-2.4,6.62-5.72,9.63-9.98l2.55,13.35c-3.48,1.01-7.37,1.76-11.66,2.26-4.29,.5-8.14,.75-11.55,.75Z"/>
      </g>
      <g>
        <path class="cls-10" d="M330.2,200.95c-7.43,0-14.29-1.66-20.6-4.99-6.31-3.33-11.3-7.97-14.97-13.93-3.68-5.96-5.51-12.73-5.51-20.31,0-9.21,2.17-16.61,6.5-22.22,4.33-5.61,9.79-9.63,16.36-12.07,6.58-2.44,13.73-3.66,21.47-3.66,3.95,0,7.25,.16,9.92,.46,2.67,.31,5.17,.77,7.49,1.39l.93,14.51c-4.64-4.56-9.09-7.97-13.35-10.21-4.26-2.24-8.2-3.37-11.84-3.37s-7.14,1.2-10.04,3.6c-2.9,2.4-5.11,5.92-6.61,10.56s-2.19,10.33-2.03,17.06c.15,5.88,1.16,11.76,3.02,17.64,1.86,5.88,4.51,10.83,7.95,14.85,3.44,4.02,7.52,6.38,12.24,7.08,1.55,.16,3.02,.12,4.41-.12v-44.33h18.57v41.66c-3.71,2.09-7.6,3.68-11.66,4.76-4.06,1.08-8.14,1.62-12.24,1.62Z"/>
        <path class="cls-10" d="M379.64,201.41c-4.26,0-7.93-.99-11.03-2.96-3.1-1.97-5.42-4.51-6.96-7.6-1.55-3.09-2.32-6.34-2.32-9.75,0-3.02,.64-5.78,1.92-8.3,1.28-2.51,3.15-4.51,5.63-5.98,2.48-1.47,5.38-2.21,8.7-2.21,1.78,0,3.56,.29,5.34,.87,1.78,.58,3.4,1.45,4.87,2.61l.12-.12c-.54-.46-1.01-.95-1.39-1.45-.39-.5-.81-.99-1.28-1.45-1.62-2.01-2.83-3.69-3.6-5.05-.77-1.35-1.16-2.8-1.16-4.35,0-2.32,.93-4.08,2.79-5.28,1.86-1.2,4.25-1.8,7.2-1.8,4.02,0,8.1,1.06,12.24,3.19,4.14,2.13,7.62,5.36,10.45,9.69,2.82,4.33,4.24,9.63,4.24,15.9v21.93h-18.68v-24.26c0-5.41-.68-9.84-2.03-13.29-1.35-3.44-3-5.98-4.93-7.6-1.94-1.62-3.91-2.44-5.92-2.44-1.32,0-2.3,.37-2.96,1.1-.66,.74-.99,1.64-.99,2.73,0,1.39,.39,2.81,1.16,4.24,.77,1.43,2.05,3.19,3.83,5.28,.62,.77,1.28,1.57,1.97,2.38s1.35,1.64,1.97,2.5c.15,.08,.23,.14,.23,.17s.04,.1,.12,.17c1.16,1.39,2.17,2.9,3.02,4.53,.85,1.62,1.53,3.42,2.03,5.4,.5,1.97,.75,4.2,.75,6.67s-.54,4.72-1.62,6.96c-1.08,2.25-2.79,4.06-5.11,5.45s-5.18,2.09-8.59,2.09Zm7.78-5.34c1.86,0,3.33-.89,4.41-2.67,1.08-1.78,1.62-4.14,1.62-7.08s-.48-5.69-1.45-8.47c-.97-2.79-2.3-5.09-4-6.91-1.7-1.82-3.6-2.73-5.69-2.73-1.08,0-2.01,.37-2.79,1.1-.77,.74-1.38,1.78-1.8,3.13-.43,1.35-.64,3.08-.64,5.16,0,3.17,.52,6.19,1.57,9.05,1.04,2.86,2.38,5.15,4,6.85,1.62,1.7,3.21,2.55,4.76,2.55Z"/>
        <path class="cls-10" d="M420.84,199.33V126.21h18.57v73.11h-18.57Z"/>
        <path class="cls-10" d="M474.92,201.53c-6.58,0-12.13-1.18-16.65-3.54-4.53-2.36-7.95-5.53-10.27-9.52-2.32-3.98-3.48-8.61-3.48-13.87,0-4.95,1.1-9.4,3.31-13.35s5.47-7.04,9.81-9.28c4.33-2.24,9.59-3.37,15.78-3.37,4.72,0,8.74,.5,12.07,1.51,3.33,1.01,5.84,2.46,7.54,4.35,1.7,1.9,2.55,4.16,2.55,6.79-.08,2.79-1.24,5.16-3.48,7.14-2.25,1.97-5.11,3.46-8.59,4.47-3.48,1.01-7.12,1.51-10.91,1.51v.12c3.64,.39,7.1,1.08,10.39,2.09,3.29,1.01,6.01,2.42,8.18,4.24,2.17,1.82,3.25,4.08,3.25,6.79,0,2.86-.93,5.34-2.79,7.43-1.86,2.09-4.29,3.7-7.31,4.82-3.02,1.12-6.15,1.68-9.4,1.68Zm6.38-4.18c3.33,0,6.11-.87,8.36-2.61,2.24-1.74,3.37-4.08,3.37-7.02,0-3.17-1.74-5.72-5.22-7.66-3.48-1.93-7.43-3.31-11.84-4.12-4.41-.81-8.43-1.37-12.07-1.68h-.7c-.16,0-.35-.04-.58-.12-.08,4.8,.77,8.96,2.55,12.48,1.78,3.52,4.1,6.19,6.96,8.01,2.86,1.82,5.92,2.73,9.17,2.73Zm-12.19-24.14c2.4,0,4.62-.71,6.67-2.15,2.05-1.43,3.67-3.37,4.87-5.8,1.2-2.44,1.8-5.09,1.8-7.95,0-1.47-.19-2.71-.58-3.71-.39-1-.95-1.76-1.68-2.26-.74-.5-1.68-.75-2.84-.75-2.01,0-4.14,.85-6.38,2.55-2.24,1.7-4.14,4.22-5.69,7.54-1.55,3.33-2.4,7.24-2.55,11.72,.62,.16,1.66,.35,3.13,.58,1.16,.16,2.24,.23,3.25,.23Z"/>
        <path class="cls-10" d="M499.98,199.33v-48.74h18.57v18.8h.23c1.31-3.56,2.96-6.79,4.93-9.69,1.97-2.9,4.18-5.26,6.62-7.08,2.44-1.82,5.09-2.8,7.95-2.96l1.04,12.07c-3.33-.08-6.5,.29-9.52,1.1s-5.63,2.38-7.83,4.7-3.35,5.49-3.42,9.52v22.28h-18.57Z"/>
        <path class="cls-10" d="M553.6,146.06c-2.94,0-5.4-.95-7.37-2.84-1.97-1.9-2.96-4.12-2.96-6.67s.99-4.76,2.96-6.62,4.43-2.79,7.37-2.79c2.63,0,4.91,.93,6.85,2.79,1.93,1.86,2.9,4.06,2.9,6.62s-.99,4.78-2.96,6.67c-1.97,1.9-4.24,2.84-6.79,2.84Zm-9.63,53.73v-49.21h18.57v49.21h-18.57Z"/>
        <path class="cls-10" d="M552.67,210.81c5.65,3.02,9.86,4.58,12.65,4.7,2.79,.12,4.59-.58,5.4-2.09,.81-1.51,1.22-3.54,1.22-6.09v-56.75h18.57v38.88c0,7.43-1.76,13.56-5.28,18.39-3.52,4.83-8.14,8.34-13.87,10.5-5.72,2.17-11.95,3.25-18.68,3.25v-10.79Zm28.9-64.29c-2.71,0-5.05-.97-7.02-2.9-1.97-1.93-2.96-4.22-2.96-6.85s.99-4.99,2.96-6.85,4.31-2.79,7.02-2.79,4.89,.93,6.79,2.79c1.89,1.86,2.84,4.14,2.84,6.85s-.93,4.91-2.79,6.85c-1.86,1.94-4.14,2.9-6.85,2.9Z"/>
        <path class="cls-10" d="M616.38,201.41c-4.26,0-7.93-.99-11.03-2.96-3.1-1.97-5.42-4.51-6.96-7.6-1.55-3.09-2.32-6.34-2.32-9.75,0-3.02,.64-5.78,1.92-8.3,1.28-2.51,3.15-4.51,5.63-5.98,2.48-1.47,5.38-2.21,8.71-2.21,1.78,0,3.56,.29,5.34,.87,1.78,.58,3.4,1.45,4.88,2.61l.12-.12c-.54-.46-1.01-.95-1.39-1.45-.39-.5-.81-.99-1.28-1.45-1.62-2.01-2.83-3.69-3.6-5.05-.78-1.35-1.16-2.8-1.16-4.35,0-2.32,.93-4.08,2.79-5.28,1.86-1.2,4.26-1.8,7.2-1.8,4.02,0,8.11,1.06,12.24,3.19,4.14,2.13,7.62,5.36,10.45,9.69,2.82,4.33,4.24,9.63,4.24,15.9v21.93h-18.69v-24.26c0-5.41-.68-9.84-2.03-13.29-1.35-3.44-3-5.98-4.93-7.6-1.94-1.62-3.91-2.44-5.92-2.44-1.32,0-2.3,.37-2.96,1.1-.66,.74-.99,1.64-.99,2.73,0,1.39,.39,2.81,1.16,4.24,.77,1.43,2.05,3.19,3.83,5.28,.62,.77,1.28,1.57,1.97,2.38,.7,.81,1.35,1.64,1.97,2.5,.15,.08,.23,.14,.23,.17s.04,.1,.12,.17c1.16,1.39,2.17,2.9,3.02,4.53,.85,1.62,1.53,3.42,2.03,5.4,.5,1.97,.75,4.2,.75,6.67s-.54,4.72-1.62,6.96c-1.08,2.25-2.79,4.06-5.11,5.45-2.32,1.39-5.19,2.09-8.59,2.09Zm7.78-5.34c1.86,0,3.32-.89,4.41-2.67,1.08-1.78,1.62-4.14,1.62-7.08s-.48-5.69-1.45-8.47c-.97-2.79-2.3-5.09-4-6.91-1.7-1.82-3.6-2.73-5.69-2.73-1.08,0-2.01,.37-2.79,1.1-.77,.74-1.38,1.78-1.8,3.13-.43,1.35-.64,3.08-.64,5.16,0,3.17,.52,6.19,1.57,9.05,1.04,2.86,2.38,5.15,4,6.85,1.62,1.7,3.21,2.55,4.76,2.55Z"/>
        <path class="cls-10" d="M693.79,201.3c-3.17,0-6.27-.25-9.28-.75-3.02-.5-5.84-1.22-8.47-2.15l1.86-13.35c3.95,3.1,8.55,5.57,13.81,7.43,5.26,1.86,10.02,2.79,14.27,2.79,3.87,0,6.98-.77,9.34-2.32,2.36-1.55,3.54-3.79,3.54-6.73,0-2.24-.87-4.45-2.61-6.61-1.74-2.17-3.93-4.14-6.56-5.92-2.63-1.78-6.27-4.02-10.91-6.73-.08-.08-.16-.15-.23-.23-.08-.08-.23-.15-.46-.23-.39-.31-.75-.56-1.1-.75-.35-.19-.75-.41-1.22-.64-4.49-2.63-8.22-5.03-11.2-7.2-2.98-2.17-5.45-4.53-7.43-7.08-1.97-2.55-2.96-5.22-2.96-8.01,0-6.11,3.46-10.69,10.39-13.75,6.92-3.06,15.42-4.58,25.47-4.58,3.4,0,6.65,.14,9.75,.41,3.09,.27,6.04,.72,8.82,1.33l-1.74,13.35c-3.17-2.24-6.56-4.24-10.15-5.98s-7.1-3.11-10.5-4.12c-3.4-1-6.42-1.51-9.05-1.51-3.02,0-5.44,.48-7.25,1.45-1.82,.97-2.73,2.42-2.73,4.35,0,1.32,.76,2.73,2.26,4.24,1.51,1.51,3.48,3.02,5.92,4.53,2.44,1.51,5.44,3.23,8.99,5.16,.54,.31,1.04,.62,1.51,.93,.46,.31,.97,.58,1.51,.81,.15,.08,.29,.14,.41,.17,.12,.04,.25,.1,.41,.17,4.64,2.55,8.47,4.84,11.49,6.85,3.02,2.01,5.59,4.57,7.72,7.66,2.13,3.1,3.19,6.65,3.19,10.68,0,5.49-1.74,10.23-5.22,14.22-3.48,3.99-8.05,7-13.69,9.05-5.65,2.05-11.61,3.08-17.87,3.08Z"/>
        <path class="cls-10" d="M772.36,200.95c-7.89,0-14.7-1.74-20.43-5.22-5.73-3.48-10.12-8.18-13.17-14.1-3.06-5.92-4.58-12.55-4.58-19.9,0-7.89,1.47-14.6,4.41-20.14,2.94-5.53,7.2-9.73,12.77-12.59,5.57-2.86,12.3-4.29,20.19-4.29,2.94,0,6.25,.14,9.92,.41,3.67,.27,6.98,.64,9.92,1.1l-2.55,13.35c-3.02-4.02-5.98-7.04-8.88-9.05-2.9-2.01-5.71-3.02-8.41-3.02-3.33,0-6.27,1.33-8.82,4-2.55,2.67-4.55,6.5-5.98,11.49-1.43,4.99-2.15,10.89-2.15,17.7,0,7.66,.81,14.33,2.44,20.02,1.62,5.69,3.89,10.02,6.79,13,2.9,2.98,6.13,4.47,9.69,4.47,3.17,0,6.46-1.2,9.87-3.6,3.4-2.4,6.62-5.72,9.63-9.98l2.55,13.35c-3.48,1.01-7.37,1.76-11.66,2.26-4.29,.5-8.14,.75-11.55,.75Z"/>
      </g>
    </g>
  </g>
  <g id="cet"/>
  <g id="pet"/>
</svg>