<?xml version="1.0" encoding="UTF-8"?>
<svg xmlns="http://www.w3.org/2000/svg" xmlns:xlink="http://www.w3.org/1999/xlink" viewBox="0 0 1080 1350">
  <defs>
    <style>
      .cls-1 {
        fill: #fff;
      }

      .cls-2 {
        fill: #f7d33c;
      }

      .cls-3 {
        fill: #b54477;
      }

      .cls-4 {
        fill: #0d395b;
      }

      .cls-5 {
        fill: #b79cca;
      }

      .cls-6 {
        fill: #051b32;
      }

      .cls-7 {
        fill: #0293b9;
      }

      .cls-8 {
        fill: #7a274e;
      }

      .cls-9 {
        fill: #8a5da6;
      }

      .cls-10 {
        fill: #472d60;
      }

      .cls-11 {
        fill: #004978;
      }

      .cls-12 {
        clip-path: url(#clippath);
      }

      .cls-13 {
        fill: #e780b0;
      }

      .cls-14 {
        fill: none;
      }

      .cls-15 {
        fill: #6a3c87;
      }

      .cls-16 {
        fill: #c6e9fa;
      }

      .cls-17 {
        fill: #c4e5f8;
      }
    </style>
    <clipPath id="clippath">
      <rect class="cls-14" x="-56.28" y="106.81" width="1001.87" height="1250.04"/>
    </clipPath>
  </defs>
  <g id="prvi">
    <g id="Layer_2" data-name="Layer 2">
      <g id="Layer_10" data-name="Layer 10"/>
      <g id="stages"/>
      <g id="Layer_9" data-name="Layer 9"/>
    </g>
    <g id="shank"/>
    <g id="oznake"/>
  </g>
  <g id="drug"/>
  <g id="trec">
    <g class="cls-12">
      <g>
        <g>
          <polygon class="cls-6" points="232.47 289.53 232.47 783.46 265.49 783.46 265.49 1024.94 471.1 1024.94 471.1 1092.48 516.79 1092.48 516.79 1233.56 664.71 1233.56 664.71 1029.57 1009.9 1029.57 1009.9 1559.24 1241.03 1559.24 1241.03 1029.44 1338.59 1029.44 1338.59 1017.94 1433.14 1017.94 1433.14 858.35 1337.09 858.35 1337.09 761.07 1430.14 761.07 1430.14 454.62 1317.58 454.62 1317.58 687.25 1250.04 687.25 1250.04 342.06 483.11 342.06 483.11 288.95 232.47 289.53"/>
          <path class="cls-4" d="M1243.53,1561.74h-236.13v-529.67h-340.19v203.99h-152.92v-141.08h-45.69v-67.54h-205.62v-241.48h-33.02V287.03l255.64-.59v53.12h766.93v345.19h62.54v-232.63h117.56v311.45h-93.05v92.27h96.05v164.59h-94.55v11.51h-97.55v529.8Zm-231.13-5h226.13v-529.8h97.55v-11.51h94.55v-154.59h-96.05v-102.27h93.05V457.12h-107.56v232.63h-72.54V344.56H480.61v-53.1l-245.64,.57v488.94h33.02v241.48h205.62v67.54h45.69v141.08h142.92v-203.99h350.19v529.67Z"/>
        </g>
        <g>
          <rect class="cls-6" x="265.99" y="783.23" width="90.05" height="240.2"/>
          <path class="cls-4" d="M358.54,1025.94h-95.05v-245.2h95.05v245.2Zm-90.05-5h85.05v-235.2h-85.05v235.2Z"/>
        </g>
        <polygon class="cls-4" points="1252.79 702.76 480.11 702.76 480.11 340.43 485.11 340.43 485.11 697.76 1247.79 697.76 1247.79 655.33 1252.79 655.33 1252.79 702.76"/>
        <g>
          <polyline class="cls-6" points="433.83 1022.39 433.83 931.76 752.38 931.76 752.38 1027.82"/>
          <polygon class="cls-4" points="754.88 1027.82 749.88 1027.82 749.88 934.26 436.33 934.26 436.33 1022.39 431.33 1022.39 431.33 929.26 754.88 929.26 754.88 1027.82"/>
        </g>
        <rect class="cls-7" x="749.88" y="701.13" width="5" height="230.63"/>
        <g>
          <rect class="cls-9" x="232.38" y="289.36" width="250.64" height="123.82"/>
          <path class="cls-10" d="M485.52,415.68H229.88v-128.82h255.64v128.82Zm-250.64-5h245.64v-118.82H234.88v118.82Z"/>
        </g>
        <g>
          <rect class="cls-13" x="659.33" y="701.01" width="93.55" height="231.75"/>
          <path class="cls-3" d="M755.38,935.26h-98.55v-236.75h98.55v236.75Zm-93.55-5h88.55v-226.75h-88.55v226.75Z"/>
        </g>
        <g>
          <path class="cls-16" d="M399.32,1117.79l-3.97-3.04c36.69-48.04,21.51-67.08,3.93-89.13-11.28-14.14-24.06-30.18-22.81-55.32,1.96-39.57,20.3-62.31,36.05-77.71l3.49,3.58c-15.1,14.76-32.68,36.55-34.55,74.38-1.15,23.26,10.48,37.85,21.73,51.96,18.1,22.7,35.19,44.15-3.87,95.28Z"/>
          <polygon class="cls-16" points="427.3 882.47 415.96 906.83 413.38 895.36 402.15 891.92 427.3 882.47"/>
        </g>
        <g>
          <g>
            <path class="cls-1" d="M284.31,481.36v-35.96h9.13v13.13c1.07-1.03,2.06-2.01,3-2.94,.93-.93,1.84-1.8,2.71-2.6,2.05-1.9,3.71-3.35,4.97-4.34,1.86-1.45,3.46-2.44,4.79-3,1.33-.55,2.74-.83,4.22-.83v6.91c-.15-.04-.29-.08-.43-.11-.13-.04-.28-.06-.43-.06-.88-.3-1.77-.49-2.68-.57-.91-.08-1.87-.06-2.85,.06-1.29,.15-2.64,.54-4.02,1.17-1.39,.63-2.86,1.53-4.42,2.71-.38,.34-.79,.7-1.23,1.08-.44,.38-.85,.78-1.23,1.2l.06,.11c.76-.3,1.47-.51,2.14-.63,.67-.11,1.3-.17,1.91-.17,2.28,0,4.28,.98,5.99,2.94,1.71,1.96,3.15,4.37,4.31,7.22,1.16,2.85,2.41,6.53,3.74,11.02,.19,.61,.38,1.22,.57,1.83,.19,.61,.36,1.22,.51,1.83h-10.79c-.42-3.43-1.06-6.85-1.91-10.28-.86-3.42-1.88-6.29-3.05-8.59-1.18-2.3-2.46-3.45-3.82-3.45-.34,0-.66,.11-.94,.31-.29,.21-.66,.54-1.11,1v21.01h-9.13Z"/>
            <path class="cls-1" d="M322.22,455.15c-1.45,0-2.65-.47-3.62-1.4-.97-.93-1.46-2.03-1.46-3.28s.49-2.34,1.46-3.25c.97-.91,2.18-1.37,3.62-1.37,1.29,0,2.42,.46,3.37,1.37,.95,.91,1.43,2,1.43,3.25s-.49,2.35-1.46,3.28c-.97,.93-2.08,1.4-3.34,1.4Zm-4.74,26.43v-24.2h9.13v24.2h-9.13Z"/>
            <path class="cls-1" d="M329.86,481.58v-24.2h9.13v4.28h.11c.84-1.64,2.04-2.93,3.6-3.88,1.56-.95,3.18-1.43,4.85-1.43,1.48,0,2.85,.32,4.11,.97,1.26,.65,2.26,1.62,3.03,2.91,.76,1.29,1.14,2.85,1.14,4.68v16.44h-9.13v-17.24c0-1.48-.31-2.65-.94-3.51-.63-.86-1.42-1.28-2.37-1.28-.57,0-1.17,.21-1.8,.63-.63,.42-1.18,1.01-1.66,1.77-.48,.76-.79,1.68-.94,2.74v17.13h-9.13Z"/>
            <path class="cls-1" d="M372.22,482.27c-2.51,0-4.85-.54-7.02-1.63-2.17-1.08-3.92-2.65-5.25-4.68-1.33-2.04-2-4.4-2-7.11s.68-4.89,2.05-6.79c1.37-1.9,3.14-3.34,5.31-4.31,2.17-.97,4.47-1.46,6.91-1.46s4.74,.49,6.91,1.48c2.17,.99,3.93,2.45,5.28,4.4s2.03,4.24,2.03,6.91c0,2.82-.66,5.22-1.97,7.22-1.31,2-3.05,3.49-5.22,4.48-2.17,.99-4.51,1.48-7.02,1.48Zm1.94-1.03c1.06,0,1.88-.53,2.45-1.6,.57-1.06,.91-2.46,1.03-4.2,.11-1.73,.02-3.66-.29-5.79-.27-2.24-.73-4.29-1.4-6.14-.67-1.85-1.48-3.33-2.45-4.45-.97-1.12-2.03-1.68-3.17-1.68-1.07,0-1.89,.55-2.48,1.66-.59,1.1-.94,2.56-1.06,4.37-.11,1.81-.04,3.78,.23,5.91,.27,2.09,.73,4.06,1.4,5.91,.67,1.85,1.49,3.31,2.48,4.4,.99,1.08,2.07,1.63,3.25,1.63Z"/>
            <path class="cls-1" d="M291.68,529.25c-1.41-.04-2.76-.15-4.05-.34-1.29-.19-2.38-.46-3.25-.8l1.2-6.51c.84,.72,1.73,1.45,2.68,2.17,1.6,1.18,3.06,2.15,4.4,2.91,1.33,.76,2.38,1.16,3.14,1.2,.84-.04,1.5-.23,2-.57,.49-.34,.74-.86,.74-1.54,0-.72-.32-1.51-.97-2.37-.65-.86-1.48-1.72-2.51-2.6-1.03-.88-2.34-1.9-3.94-3.08l-.17-.11c-.08-.04-.15-.09-.23-.14s-.15-.1-.23-.14c-2.21-1.67-3.8-3.02-4.77-4.02-.97-1.01-1.46-2.1-1.46-3.28-.04-2.09,1.17-3.7,3.62-4.82,2.45-1.12,5.39-1.68,8.82-1.68,1.26,0,2.53,.09,3.83,.26,1.29,.17,2.47,.43,3.54,.77l-1.08,6.51c-.76-.95-1.76-1.93-3-2.94-1.24-1.01-2.49-1.85-3.77-2.51-1.28-.67-2.27-1-3-1-.65,0-1.2,.12-1.66,.37-.46,.25-.68,.62-.68,1.11,0,.61,.53,1.41,1.6,2.4,1.07,.99,2.63,2.25,4.68,3.77l.86,.57,.23,.17c1.64,1.14,2.91,2.1,3.83,2.88,.91,.78,1.66,1.63,2.25,2.54,.59,.91,.88,1.87,.88,2.85,0,1.83-.66,3.34-1.97,4.54-1.31,1.2-3,2.07-5.05,2.63-2.05,.55-4.22,.83-6.51,.83Z"/>
            <path class="cls-1" d="M319.42,529.42c-3.27,0-5.92-.68-7.94-2.05s-3.03-3.39-3.03-6.05v-15.81h-2.74v-1.03h1.48c1.64,0,3.18-.56,4.62-1.68,1.45-1.12,2.61-2.59,3.48-4.4,.88-1.81,1.31-3.78,1.31-5.91h.97v11.99h7.19v1.03h-7.19v18.84c0,1.26,.19,2.2,.57,2.83,.38,.63,.91,.94,1.6,.94,.76,0,1.65-.46,2.66-1.37,1.01-.91,2.03-2.23,3.05-3.94l1.48,5.65c-2.63,.65-5.14,.97-7.54,.97Z"/>
            <path class="cls-1" d="M337.12,529.48c-2.09,0-3.9-.48-5.42-1.46-1.52-.97-2.66-2.22-3.42-3.74-.76-1.52-1.14-3.12-1.14-4.8,0-1.48,.31-2.84,.94-4.08,.63-1.24,1.55-2.22,2.77-2.94,1.22-.72,2.64-1.08,4.28-1.08,.88,0,1.75,.14,2.63,.43,.88,.29,1.67,.71,2.4,1.28l.06-.06c-.27-.23-.5-.47-.68-.71-.19-.25-.4-.49-.63-.71-.8-.99-1.39-1.82-1.77-2.48-.38-.67-.57-1.38-.57-2.14,0-1.14,.46-2.01,1.37-2.6,.91-.59,2.09-.89,3.54-.89,1.98,0,3.99,.52,6.02,1.57,2.04,1.05,3.75,2.64,5.14,4.77,1.39,2.13,2.08,4.74,2.08,7.82v10.79h-9.19v-11.93c0-2.66-.33-4.84-1-6.54-.67-1.69-1.48-2.94-2.43-3.74s-1.92-1.2-2.91-1.2c-.65,0-1.13,.18-1.46,.54-.32,.36-.48,.81-.48,1.34,0,.69,.19,1.38,.57,2.08,.38,.7,1.01,1.57,1.88,2.6,.3,.38,.63,.77,.97,1.17,.34,.4,.67,.81,.97,1.23,.08,.04,.11,.07,.11,.09,0,.02,.02,.05,.06,.09,.57,.68,1.07,1.43,1.48,2.23,.42,.8,.75,1.68,1,2.65,.25,.97,.37,2.06,.37,3.28s-.27,2.32-.8,3.42c-.53,1.1-1.37,2-2.51,2.68s-2.55,1.03-4.22,1.03Zm3.82-2.63c.91,0,1.64-.44,2.17-1.31,.53-.88,.8-2.04,.8-3.48s-.24-2.8-.71-4.17c-.48-1.37-1.13-2.5-1.97-3.4-.84-.89-1.77-1.34-2.8-1.34-.53,0-.99,.18-1.37,.54-.38,.36-.68,.88-.88,1.54-.21,.67-.31,1.51-.31,2.54,0,1.56,.26,3.04,.77,4.45,.51,1.41,1.17,2.53,1.97,3.37,.8,.84,1.58,1.26,2.34,1.26Z"/>
            <path class="cls-1" d="M364.69,539.64c-2.09,0-4.21-.21-6.34-.63v-7.59c2.09,1.98,4.09,3.55,5.99,4.71,1.9,1.16,3.58,1.74,5.02,1.74,1.52,0,2.72-.62,3.6-1.85,.88-1.24,1.31-3.13,1.31-5.68v-4.51c-.91,1.14-2.06,2.02-3.45,2.63s-2.81,.91-4.25,.91c-1.71,0-3.3-.43-4.77-1.28-1.47-.86-2.67-2.16-3.6-3.91-.93-1.75-1.4-3.9-1.4-6.45,0-4.87,1.37-8.46,4.11-10.76,2.74-2.3,6.3-3.45,10.68-3.45s8.2,.74,11.82,2.23v18.5c0,3.65-.79,6.62-2.37,8.91-1.58,2.28-3.76,3.94-6.54,4.97-2.78,1.03-6.05,1.54-9.82,1.54Zm6.56-12.9c.65,0,1.25-.31,1.8-.94s.96-1.55,1.23-2.77v-16.5c-.34-.65-.77-1.16-1.28-1.54-.51-.38-1.08-.57-1.68-.57-.91,0-1.77,.4-2.57,1.2-.8,.8-1.45,2.03-1.94,3.68-.5,1.66-.74,3.74-.74,6.25,0,2.17,.26,4.1,.77,5.79,.51,1.69,1.17,3.02,1.97,3.97,.8,.95,1.62,1.43,2.46,1.43Z"/>
            <path class="cls-1" d="M400.48,529.54c-3.24,0-5.97-.58-8.19-1.74-2.23-1.16-3.91-2.72-5.05-4.68-1.14-1.96-1.71-4.23-1.71-6.82,0-2.44,.54-4.62,1.63-6.56,1.08-1.94,2.69-3.46,4.82-4.57,2.13-1.1,4.72-1.66,7.76-1.66,2.32,0,4.3,.25,5.94,.74,1.64,.5,2.87,1.21,3.71,2.14,.84,.93,1.26,2.05,1.26,3.34-.04,1.37-.61,2.54-1.71,3.51-1.1,.97-2.51,1.7-4.22,2.2-1.71,.49-3.5,.74-5.37,.74v.06c1.79,.19,3.49,.53,5.11,1.03,1.62,.5,2.96,1.19,4.03,2.08,1.06,.89,1.6,2.01,1.6,3.34,0,1.41-.46,2.63-1.37,3.65-.91,1.03-2.11,1.82-3.6,2.37s-3.03,.83-4.62,.83Zm3.14-2.05c1.64,0,3.01-.43,4.11-1.28,1.1-.86,1.66-2.01,1.66-3.45,0-1.56-.86-2.82-2.57-3.77-1.71-.95-3.65-1.63-5.82-2.03-2.17-.4-4.15-.68-5.94-.83h-.34c-.08,0-.17-.02-.29-.06-.04,2.36,.38,4.41,1.26,6.14,.88,1.73,2.02,3.05,3.42,3.94,1.41,.89,2.91,1.34,4.51,1.34Zm-5.99-11.87c1.18,0,2.27-.35,3.28-1.06,1.01-.7,1.81-1.66,2.4-2.85s.88-2.5,.88-3.91c0-.72-.09-1.33-.29-1.83-.19-.49-.47-.87-.83-1.11-.36-.25-.83-.37-1.4-.37-.99,0-2.04,.42-3.14,1.26-1.1,.84-2.04,2.07-2.8,3.71-.76,1.64-1.18,3.56-1.26,5.77,.3,.08,.82,.17,1.54,.29,.57,.08,1.1,.11,1.6,.11Z"/>
          </g>
          <g>
            <path class="cls-5" d="M285.52,480.11v-35.96h9.13v13.13c1.07-1.03,2.06-2.01,3-2.94,.93-.93,1.84-1.8,2.71-2.6,2.05-1.9,3.71-3.35,4.97-4.34,1.86-1.45,3.46-2.44,4.79-3,1.33-.55,2.74-.83,4.22-.83v6.91c-.15-.04-.29-.08-.43-.11-.13-.04-.28-.06-.43-.06-.88-.3-1.77-.49-2.68-.57-.91-.08-1.87-.06-2.85,.06-1.29,.15-2.64,.54-4.02,1.17-1.39,.63-2.86,1.53-4.42,2.71-.38,.34-.79,.7-1.23,1.08-.44,.38-.85,.78-1.23,1.2l.06,.11c.76-.3,1.47-.51,2.14-.63,.67-.11,1.3-.17,1.91-.17,2.28,0,4.28,.98,5.99,2.94,1.71,1.96,3.15,4.37,4.31,7.22,1.16,2.85,2.41,6.53,3.74,11.02,.19,.61,.38,1.22,.57,1.83,.19,.61,.36,1.22,.51,1.83h-10.79c-.42-3.43-1.06-6.85-1.91-10.28-.86-3.42-1.88-6.29-3.05-8.59-1.18-2.3-2.46-3.45-3.82-3.45-.34,0-.66,.11-.94,.31-.29,.21-.66,.54-1.11,1v21.01h-9.13Z"/>
            <path class="cls-5" d="M323.42,453.9c-1.45,0-2.65-.47-3.62-1.4-.97-.93-1.46-2.03-1.46-3.28s.49-2.34,1.46-3.25c.97-.91,2.18-1.37,3.62-1.37,1.29,0,2.42,.46,3.37,1.37,.95,.91,1.43,2,1.43,3.25s-.49,2.35-1.46,3.28c-.97,.93-2.08,1.4-3.34,1.4Zm-4.74,26.43v-24.2h9.13v24.2h-9.13Z"/>
            <path class="cls-5" d="M331.07,480.34v-24.2h9.13v4.28h.11c.84-1.64,2.04-2.93,3.6-3.88,1.56-.95,3.18-1.43,4.85-1.43,1.48,0,2.85,.32,4.11,.97,1.26,.65,2.26,1.62,3.03,2.91,.76,1.29,1.14,2.85,1.14,4.68v16.44h-9.13v-17.24c0-1.48-.31-2.65-.94-3.51-.63-.86-1.42-1.28-2.37-1.28-.57,0-1.17,.21-1.8,.63-.63,.42-1.18,1.01-1.66,1.77-.48,.76-.79,1.68-.94,2.74v17.13h-9.13Z"/>
            <path class="cls-5" d="M373.43,481.02c-2.51,0-4.85-.54-7.02-1.63-2.17-1.08-3.92-2.65-5.25-4.68-1.33-2.04-2-4.4-2-7.11s.68-4.89,2.05-6.79c1.37-1.9,3.14-3.34,5.31-4.31,2.17-.97,4.47-1.46,6.91-1.46s4.74,.49,6.91,1.48c2.17,.99,3.93,2.45,5.28,4.4s2.03,4.24,2.03,6.91c0,2.82-.66,5.22-1.97,7.22-1.31,2-3.05,3.49-5.22,4.48-2.17,.99-4.51,1.48-7.02,1.48Zm1.94-1.03c1.06,0,1.88-.53,2.45-1.6,.57-1.06,.91-2.46,1.03-4.2,.11-1.73,.02-3.66-.29-5.79-.27-2.24-.73-4.29-1.4-6.14-.67-1.85-1.48-3.33-2.45-4.45-.97-1.12-2.03-1.68-3.17-1.68-1.07,0-1.89,.55-2.48,1.66-.59,1.1-.94,2.56-1.06,4.37-.11,1.81-.04,3.78,.23,5.91,.27,2.09,.73,4.06,1.4,5.91,.67,1.85,1.49,3.31,2.48,4.4,.99,1.08,2.07,1.63,3.25,1.63Z"/>
            <path class="cls-5" d="M292.88,528c-1.41-.04-2.76-.15-4.05-.34-1.29-.19-2.38-.46-3.25-.8l1.2-6.51c.84,.72,1.73,1.45,2.68,2.17,1.6,1.18,3.06,2.15,4.4,2.91,1.33,.76,2.38,1.16,3.14,1.2,.84-.04,1.5-.23,2-.57,.49-.34,.74-.86,.74-1.54,0-.72-.32-1.51-.97-2.37-.65-.86-1.48-1.72-2.51-2.6-1.03-.88-2.34-1.9-3.94-3.08l-.17-.11c-.08-.04-.15-.09-.23-.14s-.15-.1-.23-.14c-2.21-1.67-3.8-3.02-4.77-4.02-.97-1.01-1.46-2.1-1.46-3.28-.04-2.09,1.17-3.7,3.62-4.82,2.45-1.12,5.39-1.68,8.82-1.68,1.26,0,2.53,.09,3.83,.26,1.29,.17,2.47,.43,3.54,.77l-1.08,6.51c-.76-.95-1.76-1.93-3-2.94-1.24-1.01-2.49-1.85-3.77-2.51-1.28-.67-2.27-1-3-1-.65,0-1.2,.12-1.66,.37-.46,.25-.68,.62-.68,1.11,0,.61,.53,1.41,1.6,2.4,1.07,.99,2.63,2.25,4.68,3.77l.86,.57,.23,.17c1.64,1.14,2.91,2.1,3.83,2.88,.91,.78,1.66,1.63,2.25,2.54,.59,.91,.88,1.87,.88,2.85,0,1.83-.66,3.34-1.97,4.54-1.31,1.2-3,2.07-5.05,2.63-2.05,.55-4.22,.83-6.51,.83Z"/>
            <path class="cls-5" d="M320.62,528.17c-3.27,0-5.92-.68-7.94-2.05s-3.03-3.39-3.03-6.05v-15.81h-2.74v-1.03h1.48c1.64,0,3.18-.56,4.62-1.68,1.45-1.12,2.61-2.59,3.48-4.4,.88-1.81,1.31-3.78,1.31-5.91h.97v11.99h7.19v1.03h-7.19v18.84c0,1.26,.19,2.2,.57,2.83,.38,.63,.91,.94,1.6,.94,.76,0,1.65-.46,2.66-1.37,1.01-.91,2.03-2.23,3.05-3.94l1.48,5.65c-2.63,.65-5.14,.97-7.54,.97Z"/>
            <path class="cls-5" d="M338.32,528.23c-2.09,0-3.9-.48-5.42-1.46-1.52-.97-2.66-2.22-3.42-3.74-.76-1.52-1.14-3.12-1.14-4.8,0-1.48,.31-2.84,.94-4.08,.63-1.24,1.55-2.22,2.77-2.94,1.22-.72,2.64-1.08,4.28-1.08,.88,0,1.75,.14,2.63,.43,.88,.29,1.67,.71,2.4,1.28l.06-.06c-.27-.23-.5-.47-.68-.71-.19-.25-.4-.49-.63-.71-.8-.99-1.39-1.82-1.77-2.48-.38-.67-.57-1.38-.57-2.14,0-1.14,.46-2.01,1.37-2.6,.91-.59,2.09-.89,3.54-.89,1.98,0,3.99,.52,6.02,1.57,2.04,1.05,3.75,2.64,5.14,4.77,1.39,2.13,2.08,4.74,2.08,7.82v10.79h-9.19v-11.93c0-2.66-.33-4.84-1-6.54-.67-1.69-1.48-2.94-2.43-3.74s-1.92-1.2-2.91-1.2c-.65,0-1.13,.18-1.46,.54-.32,.36-.48,.81-.48,1.34,0,.69,.19,1.38,.57,2.08,.38,.7,1.01,1.57,1.88,2.6,.3,.38,.63,.77,.97,1.17,.34,.4,.67,.81,.97,1.23,.08,.04,.11,.07,.11,.09,0,.02,.02,.05,.06,.09,.57,.68,1.07,1.43,1.48,2.23,.42,.8,.75,1.68,1,2.65,.25,.97,.37,2.06,.37,3.28s-.27,2.32-.8,3.42c-.53,1.1-1.37,2-2.51,2.68s-2.55,1.03-4.22,1.03Zm3.82-2.63c.91,0,1.64-.44,2.17-1.31,.53-.88,.8-2.04,.8-3.48s-.24-2.8-.71-4.17c-.48-1.37-1.13-2.5-1.97-3.4-.84-.89-1.77-1.34-2.8-1.34-.53,0-.99,.18-1.37,.54-.38,.36-.68,.88-.88,1.54-.21,.67-.31,1.51-.31,2.54,0,1.56,.26,3.04,.77,4.45,.51,1.41,1.17,2.53,1.97,3.37,.8,.84,1.58,1.26,2.34,1.26Z"/>
            <path class="cls-5" d="M365.89,538.39c-2.09,0-4.21-.21-6.34-.63v-7.59c2.09,1.98,4.09,3.55,5.99,4.71,1.9,1.16,3.58,1.74,5.02,1.74,1.52,0,2.72-.62,3.6-1.85,.88-1.24,1.31-3.13,1.31-5.68v-4.51c-.91,1.14-2.06,2.02-3.45,2.63s-2.81,.91-4.25,.91c-1.71,0-3.3-.43-4.77-1.28-1.47-.86-2.67-2.16-3.6-3.91-.93-1.75-1.4-3.9-1.4-6.45,0-4.87,1.37-8.46,4.11-10.76,2.74-2.3,6.3-3.45,10.68-3.45s8.2,.74,11.82,2.23v18.5c0,3.65-.79,6.62-2.37,8.91-1.58,2.28-3.76,3.94-6.54,4.97-2.78,1.03-6.05,1.54-9.82,1.54Zm6.56-12.9c.65,0,1.25-.31,1.8-.94s.96-1.55,1.23-2.77v-16.5c-.34-.65-.77-1.16-1.28-1.54-.51-.38-1.08-.57-1.68-.57-.91,0-1.77,.4-2.57,1.2-.8,.8-1.45,2.03-1.94,3.68-.5,1.66-.74,3.74-.74,6.25,0,2.17,.26,4.1,.77,5.79,.51,1.69,1.17,3.02,1.97,3.97,.8,.95,1.62,1.43,2.46,1.43Z"/>
            <path class="cls-5" d="M401.68,528.29c-3.24,0-5.97-.58-8.19-1.74-2.23-1.16-3.91-2.72-5.05-4.68-1.14-1.96-1.71-4.23-1.71-6.82,0-2.44,.54-4.62,1.63-6.56,1.08-1.94,2.69-3.46,4.82-4.57,2.13-1.1,4.72-1.66,7.76-1.66,2.32,0,4.3,.25,5.94,.74,1.64,.5,2.87,1.21,3.71,2.14,.84,.93,1.26,2.05,1.26,3.34-.04,1.37-.61,2.54-1.71,3.51-1.1,.97-2.51,1.7-4.22,2.2-1.71,.49-3.5,.74-5.37,.74v.06c1.79,.19,3.49,.53,5.11,1.03,1.62,.5,2.96,1.19,4.03,2.08,1.06,.89,1.6,2.01,1.6,3.34,0,1.41-.46,2.63-1.37,3.65-.91,1.03-2.11,1.82-3.6,2.37s-3.03,.83-4.62,.83Zm3.14-2.05c1.64,0,3.01-.43,4.11-1.28,1.1-.86,1.66-2.01,1.66-3.45,0-1.56-.86-2.82-2.57-3.77-1.71-.95-3.65-1.63-5.82-2.03-2.17-.4-4.15-.68-5.94-.83h-.34c-.08,0-.17-.02-.29-.06-.04,2.36,.38,4.41,1.26,6.14,.88,1.73,2.02,3.05,3.42,3.94,1.41,.89,2.91,1.34,4.51,1.34Zm-5.99-11.87c1.18,0,2.27-.35,3.28-1.06,1.01-.7,1.81-1.66,2.4-2.85s.88-2.5,.88-3.91c0-.72-.09-1.33-.29-1.83-.19-.49-.47-.87-.83-1.11-.36-.25-.83-.37-1.4-.37-.99,0-2.04,.42-3.14,1.26-1.1,.84-2.04,2.07-2.8,3.71-.76,1.64-1.18,3.56-1.26,5.77,.3,.08,.82,.17,1.54,.29,.57,.08,1.1,.11,1.6,.11Z"/>
          </g>
        </g>
        <g>
          <g>
            <path class="cls-1" d="M490.84,785.29v-35.3h8.97c1.23,1.98,2.35,3.98,3.36,6s1.87,3.96,2.58,5.83c.71,1.87,1.31,3.72,1.79,5.55,.19,.67,.36,1.33,.53,1.96,.17,.64,.33,1.27,.48,1.91h.11c.11-1.12,.49-2.33,1.12-3.62,.63-1.29,1.49-2.75,2.58-4.4l.11-.17c.34-.56,.68-1.13,1.04-1.71,.35-.58,.72-1.15,1.09-1.71,1.53-2.39,2.65-4.31,3.36-5.77,.71-1.46,1.06-2.75,1.06-3.87h7.96v35.3h-8.97v-29.2h-.17c-.67,1.27-1.43,2.57-2.27,3.89-.84,1.33-1.69,2.72-2.55,4.17-.79,1.27-1.44,2.43-1.96,3.47-.52,1.05-.94,2.09-1.26,3.14s-.48,2.05-.48,3.03c0,1.91,.34,3.84,1.01,5.8,.67,1.96,1.64,3.86,2.91,5.69h-8.97c-.41-.63-.86-1.73-1.34-3.28-.49-1.55-1.18-3.88-2.07-6.98-1.16-4.04-2.15-7.35-2.97-9.95-.82-2.6-1.77-5.18-2.83-7.76-1.06-2.58-2.16-4.61-3.28-6.11v34.07h-.95Z"/>
            <path class="cls-1" d="M544.13,786.36c-3.18,0-5.86-.57-8.04-1.71-2.19-1.14-3.84-2.67-4.96-4.59-1.12-1.92-1.68-4.16-1.68-6.7,0-2.39,.53-4.54,1.6-6.44,1.06-1.91,2.64-3.4,4.74-4.48,2.09-1.08,4.63-1.62,7.62-1.62,2.28,0,4.22,.24,5.83,.73,1.61,.49,2.82,1.19,3.64,2.1,.82,.92,1.23,2.01,1.23,3.28-.04,1.34-.6,2.49-1.68,3.45-1.08,.95-2.47,1.67-4.15,2.16-1.68,.49-3.44,.73-5.27,.73v.06c1.76,.19,3.43,.52,5.02,1.01,1.59,.49,2.9,1.17,3.95,2.04,1.04,.88,1.57,1.97,1.57,3.28,0,1.38-.45,2.58-1.35,3.59-.9,1.01-2.07,1.78-3.53,2.33-1.46,.54-2.97,.81-4.54,.81Zm3.08-2.02c1.61,0,2.95-.42,4.04-1.26,1.08-.84,1.62-1.97,1.62-3.39,0-1.53-.84-2.76-2.52-3.7-1.68-.93-3.59-1.6-5.72-1.99-2.13-.39-4.07-.66-5.83-.81h-.34c-.08,0-.17-.02-.28-.06-.04,2.32,.37,4.32,1.23,6.02,.86,1.7,1.98,2.99,3.36,3.87,1.38,.88,2.86,1.32,4.43,1.32Zm-5.88-11.66c1.16,0,2.23-.35,3.22-1.04,.99-.69,1.77-1.62,2.35-2.8,.58-1.18,.87-2.46,.87-3.84,0-.71-.09-1.31-.28-1.79-.19-.49-.46-.85-.81-1.09-.36-.24-.81-.36-1.37-.36-.97,0-2,.41-3.08,1.23-1.08,.82-2,2.04-2.75,3.64-.75,1.61-1.16,3.49-1.23,5.66,.3,.08,.8,.17,1.51,.28,.56,.08,1.08,.11,1.57,.11Z"/>
            <path class="cls-1" d="M556.24,785.52v-23.76h8.97v4.2h.11c.82-1.61,2-2.88,3.53-3.81,1.53-.93,3.12-1.4,4.76-1.4,1.46,0,2.8,.32,4.03,.95,1.23,.64,2.22,1.59,2.97,2.86,.75,1.27,1.12,2.8,1.12,4.6v16.14h-8.97v-16.92c0-1.46-.31-2.61-.92-3.45s-1.39-1.26-2.33-1.26c-.56,0-1.15,.21-1.77,.62-.62,.41-1.16,.99-1.62,1.74-.47,.75-.78,1.64-.92,2.69v16.81h-8.97Z"/>
            <path class="cls-1" d="M607.91,785.29l-23.2-.06,13.34-22.42h-1.79c-1.76,0-3.68,.51-5.77,1.54-2.09,1.03-3.85,2.21-5.27,3.56v-6.16h22.36l-13.06,22.53h3.03c1.49,0,3.2-.53,5.13-1.6s3.65-2.46,5.18-4.17l.06,6.78Z"/>
            <path class="cls-1" d="M619.34,786.3c-2.05,0-3.83-.48-5.32-1.43-1.49-.95-2.62-2.18-3.36-3.67-.75-1.49-1.12-3.06-1.12-4.71,0-1.46,.31-2.79,.92-4.01,.62-1.21,1.52-2.18,2.72-2.89,1.2-.71,2.6-1.07,4.2-1.07,.86,0,1.72,.14,2.58,.42s1.64,.7,2.35,1.26l.06-.06c-.26-.22-.49-.46-.67-.7-.19-.24-.39-.48-.62-.7-.79-.97-1.36-1.78-1.74-2.44-.37-.65-.56-1.35-.56-2.1,0-1.12,.45-1.97,1.34-2.55s2.05-.87,3.47-.87c1.94,0,3.91,.51,5.91,1.54,2,1.03,3.68,2.59,5.04,4.68,1.36,2.09,2.04,4.65,2.04,7.68v10.59h-9.02v-11.71c0-2.61-.33-4.75-.98-6.42-.65-1.66-1.45-2.89-2.38-3.67-.93-.79-1.89-1.18-2.86-1.18-.64,0-1.11,.18-1.43,.53-.32,.36-.48,.79-.48,1.32,0,.67,.19,1.35,.56,2.05,.37,.69,.99,1.54,1.85,2.55,.3,.37,.62,.76,.95,1.15,.34,.39,.65,.79,.95,1.21,.08,.04,.11,.07,.11,.08,0,.02,.02,.05,.06,.08,.56,.67,1.05,1.4,1.46,2.19,.41,.79,.74,1.65,.98,2.61,.24,.95,.36,2.03,.36,3.22s-.26,2.28-.79,3.36c-.52,1.08-1.34,1.96-2.47,2.63-1.12,.67-2.5,1.01-4.15,1.01Zm3.75-2.58c.9,0,1.61-.43,2.13-1.29s.79-2,.79-3.42-.23-2.75-.7-4.09-1.11-2.46-1.93-3.33c-.82-.88-1.74-1.32-2.75-1.32-.52,0-.97,.18-1.34,.53-.37,.36-.66,.86-.87,1.51-.21,.65-.31,1.48-.31,2.49,0,1.53,.25,2.99,.76,4.37,.5,1.38,1.15,2.49,1.93,3.31,.78,.82,1.55,1.23,2.3,1.23Z"/>
            <path class="cls-1" d="M498.07,832.31c-1.38-.04-2.71-.15-3.98-.34-1.27-.19-2.33-.45-3.19-.78l1.18-6.39c.82,.71,1.7,1.42,2.63,2.13,1.57,1.16,3.01,2.11,4.32,2.86,1.31,.75,2.33,1.14,3.08,1.18,.82-.04,1.48-.22,1.96-.56,.49-.34,.73-.84,.73-1.51,0-.71-.32-1.49-.95-2.33-.64-.84-1.46-1.69-2.47-2.55-1.01-.86-2.3-1.87-3.87-3.03l-.17-.11c-.08-.04-.15-.08-.22-.14-.08-.06-.15-.1-.22-.14-2.17-1.64-3.73-2.96-4.68-3.95-.95-.99-1.43-2.06-1.43-3.22-.04-2.05,1.15-3.63,3.56-4.74,2.41-1.1,5.3-1.65,8.66-1.65,1.23,0,2.48,.08,3.75,.25,1.27,.17,2.43,.42,3.47,.76l-1.07,6.39c-.75-.93-1.73-1.9-2.94-2.89-1.21-.99-2.45-1.81-3.7-2.46s-2.23-.98-2.94-.98c-.64,0-1.18,.12-1.63,.36-.45,.24-.67,.61-.67,1.09,0,.6,.52,1.38,1.57,2.35,1.04,.97,2.58,2.21,4.59,3.7l.84,.56,.22,.17c1.61,1.12,2.86,2.06,3.75,2.83s1.63,1.6,2.21,2.49c.58,.9,.87,1.83,.87,2.8,0,1.79-.64,3.28-1.93,4.46-1.29,1.18-2.94,2.04-4.96,2.58s-4.15,.81-6.39,.81Z"/>
            <path class="cls-1" d="M525.3,832.48c-3.21,0-5.81-.67-7.79-2.02-1.98-1.35-2.97-3.33-2.97-5.94v-15.52h-2.69v-1.01h1.46c1.61,0,3.12-.55,4.54-1.65,1.42-1.1,2.56-2.54,3.42-4.32,.86-1.77,1.29-3.71,1.29-5.8h.95v11.77h7.06v1.01h-7.06v18.49c0,1.23,.19,2.16,.56,2.77,.37,.62,.9,.92,1.57,.92,.75,0,1.62-.45,2.61-1.35,.99-.9,1.99-2.19,3-3.87l1.46,5.55c-2.58,.63-5.04,.95-7.4,.95Z"/>
            <path class="cls-1" d="M542.68,832.53c-2.05,0-3.83-.48-5.32-1.43-1.49-.95-2.62-2.18-3.36-3.67s-1.12-3.06-1.12-4.71c0-1.46,.31-2.79,.92-4.01,.62-1.21,1.52-2.18,2.72-2.89,1.2-.71,2.6-1.06,4.2-1.06,.86,0,1.72,.14,2.58,.42,.86,.28,1.64,.7,2.35,1.26l.06-.06c-.26-.22-.49-.46-.67-.7-.19-.24-.39-.48-.62-.7-.79-.97-1.36-1.78-1.74-2.44-.37-.65-.56-1.35-.56-2.1,0-1.12,.45-1.97,1.34-2.55,.9-.58,2.05-.87,3.47-.87,1.94,0,3.91,.51,5.91,1.54,2,1.03,3.68,2.59,5.04,4.68,1.36,2.09,2.04,4.65,2.04,7.68v10.59h-9.02v-11.71c0-2.62-.33-4.75-.98-6.42-.65-1.66-1.45-2.89-2.38-3.67-.93-.78-1.89-1.18-2.86-1.18-.64,0-1.11,.18-1.43,.53s-.48,.79-.48,1.32c0,.67,.19,1.35,.56,2.05,.37,.69,.99,1.54,1.85,2.55,.3,.37,.62,.76,.95,1.15,.34,.39,.65,.79,.95,1.21,.08,.04,.11,.07,.11,.08,0,.02,.02,.05,.06,.08,.56,.67,1.05,1.4,1.46,2.19s.74,1.65,.98,2.61c.24,.95,.36,2.03,.36,3.22s-.26,2.28-.79,3.36c-.52,1.08-1.34,1.96-2.47,2.63-1.12,.67-2.5,1.01-4.15,1.01Zm3.75-2.58c.9,0,1.61-.43,2.13-1.29,.52-.86,.79-2,.79-3.42s-.23-2.75-.7-4.09-1.11-2.46-1.93-3.33c-.82-.88-1.74-1.32-2.75-1.32-.52,0-.97,.18-1.34,.53-.37,.36-.66,.86-.87,1.51-.21,.65-.31,1.48-.31,2.49,0,1.53,.25,2.99,.76,4.37,.5,1.38,1.15,2.49,1.93,3.31,.78,.82,1.55,1.23,2.3,1.23Z"/>
            <path class="cls-1" d="M569.74,842.51c-2.06,0-4.13-.21-6.22-.62v-7.45c2.05,1.94,4.02,3.48,5.88,4.62s3.51,1.71,4.93,1.71c1.49,0,2.67-.61,3.53-1.82s1.29-3.07,1.29-5.58v-4.43c-.9,1.12-2.03,1.98-3.39,2.58-1.36,.6-2.75,.9-4.17,.9-1.68,0-3.24-.42-4.68-1.26-1.44-.84-2.62-2.12-3.53-3.84-.92-1.72-1.37-3.83-1.37-6.33,0-4.78,1.34-8.3,4.03-10.56,2.69-2.26,6.18-3.39,10.48-3.39s8.05,.73,11.6,2.19v18.16c0,3.59-.78,6.5-2.33,8.74-1.55,2.24-3.69,3.87-6.42,4.88-2.73,1.01-5.94,1.51-9.64,1.51Zm6.44-12.67c.63,0,1.22-.31,1.76-.92,.54-.62,.94-1.52,1.21-2.72v-16.2c-.34-.63-.76-1.14-1.26-1.51-.5-.37-1.06-.56-1.65-.56-.9,0-1.74,.39-2.52,1.18s-1.42,1.99-1.91,3.62c-.49,1.62-.73,3.67-.73,6.14,0,2.13,.25,4.03,.76,5.69,.5,1.66,1.15,2.96,1.93,3.89,.79,.93,1.59,1.4,2.41,1.4Z"/>
            <path class="cls-1" d="M604.88,832.59c-3.18,0-5.86-.57-8.04-1.71-2.19-1.14-3.84-2.67-4.96-4.59s-1.68-4.16-1.68-6.7c0-2.39,.53-4.54,1.6-6.44,1.06-1.91,2.64-3.4,4.74-4.48,2.09-1.08,4.63-1.62,7.62-1.62,2.28,0,4.22,.24,5.83,.73,1.61,.49,2.82,1.19,3.64,2.1,.82,.92,1.23,2.01,1.23,3.28-.04,1.34-.6,2.49-1.68,3.45-1.08,.95-2.47,1.67-4.15,2.16-1.68,.49-3.44,.73-5.27,.73v.06c1.76,.19,3.43,.52,5.02,1.01s2.9,1.17,3.95,2.04c1.04,.88,1.57,1.97,1.57,3.28,0,1.38-.45,2.58-1.35,3.59-.9,1.01-2.07,1.78-3.53,2.33s-2.97,.81-4.54,.81Zm3.08-2.02c1.61,0,2.95-.42,4.04-1.26,1.08-.84,1.62-1.97,1.62-3.39,0-1.53-.84-2.76-2.52-3.7-1.68-.93-3.59-1.6-5.72-1.99-2.13-.39-4.07-.66-5.83-.81h-.34c-.08,0-.17-.02-.28-.06-.04,2.32,.37,4.32,1.23,6.02,.86,1.7,1.98,2.99,3.36,3.87,1.38,.88,2.86,1.32,4.43,1.32Zm-5.88-11.66c1.16,0,2.23-.35,3.22-1.04s1.77-1.62,2.35-2.8c.58-1.18,.87-2.46,.87-3.84,0-.71-.09-1.31-.28-1.79-.19-.49-.46-.85-.81-1.09-.36-.24-.81-.36-1.37-.36-.97,0-2,.41-3.08,1.23-1.08,.82-2,2.04-2.75,3.64-.75,1.61-1.16,3.49-1.23,5.66,.3,.08,.8,.17,1.51,.28,.56,.08,1.08,.11,1.57,.11Z"/>
          </g>
          <g>
            <path class="cls-13" d="M492,784.04v-35.3h8.97c1.23,1.98,2.35,3.98,3.36,6s1.87,3.96,2.58,5.83c.71,1.87,1.31,3.72,1.79,5.55,.19,.67,.36,1.33,.53,1.96,.17,.64,.33,1.27,.48,1.91h.11c.11-1.12,.49-2.33,1.12-3.62,.63-1.29,1.49-2.75,2.58-4.4l.11-.17c.34-.56,.68-1.13,1.04-1.71,.35-.58,.72-1.15,1.09-1.71,1.53-2.39,2.65-4.31,3.36-5.77,.71-1.46,1.06-2.75,1.06-3.87h7.96v35.3h-8.97v-29.2h-.17c-.67,1.27-1.43,2.57-2.27,3.89-.84,1.33-1.69,2.72-2.55,4.17-.79,1.27-1.44,2.43-1.96,3.47-.52,1.05-.94,2.09-1.26,3.14s-.48,2.05-.48,3.03c0,1.91,.34,3.84,1.01,5.8,.67,1.96,1.64,3.86,2.91,5.69h-8.97c-.41-.63-.86-1.73-1.34-3.28-.49-1.55-1.18-3.88-2.07-6.98-1.16-4.04-2.15-7.35-2.97-9.95-.82-2.6-1.77-5.18-2.83-7.76-1.06-2.58-2.16-4.61-3.28-6.11v34.07h-.95Z"/>
            <path class="cls-13" d="M545.29,785.1c-3.18,0-5.86-.57-8.04-1.71-2.19-1.14-3.84-2.67-4.96-4.59-1.12-1.92-1.68-4.16-1.68-6.7,0-2.39,.53-4.54,1.6-6.44,1.06-1.91,2.64-3.4,4.74-4.48,2.09-1.08,4.63-1.62,7.62-1.62,2.28,0,4.22,.24,5.83,.73,1.61,.49,2.82,1.19,3.64,2.1,.82,.92,1.23,2.01,1.23,3.28-.04,1.34-.6,2.49-1.68,3.45-1.08,.95-2.47,1.67-4.15,2.16-1.68,.49-3.44,.73-5.27,.73v.06c1.76,.19,3.43,.52,5.02,1.01,1.59,.49,2.9,1.17,3.95,2.04,1.04,.88,1.57,1.97,1.57,3.28,0,1.38-.45,2.58-1.35,3.59-.9,1.01-2.07,1.78-3.53,2.33-1.46,.54-2.97,.81-4.54,.81Zm3.08-2.02c1.61,0,2.95-.42,4.04-1.26,1.08-.84,1.62-1.97,1.62-3.39,0-1.53-.84-2.76-2.52-3.7-1.68-.93-3.59-1.6-5.72-1.99-2.13-.39-4.07-.66-5.83-.81h-.34c-.08,0-.17-.02-.28-.06-.04,2.32,.37,4.32,1.23,6.02,.86,1.7,1.98,2.99,3.36,3.87,1.38,.88,2.86,1.32,4.43,1.32Zm-5.88-11.66c1.16,0,2.23-.35,3.22-1.04,.99-.69,1.77-1.62,2.35-2.8,.58-1.18,.87-2.46,.87-3.84,0-.71-.09-1.31-.28-1.79-.19-.49-.46-.85-.81-1.09-.36-.24-.81-.36-1.37-.36-.97,0-2,.41-3.08,1.23-1.08,.82-2,2.04-2.75,3.64-.75,1.61-1.16,3.49-1.23,5.66,.3,.08,.8,.17,1.51,.28,.56,.08,1.08,.11,1.57,.11Z"/>
            <path class="cls-13" d="M557.39,784.26v-23.76h8.97v4.2h.11c.82-1.61,2-2.88,3.53-3.81,1.53-.93,3.12-1.4,4.76-1.4,1.46,0,2.8,.32,4.03,.95,1.23,.64,2.22,1.59,2.97,2.86,.75,1.27,1.12,2.8,1.12,4.6v16.14h-8.97v-16.92c0-1.46-.31-2.61-.92-3.45s-1.39-1.26-2.33-1.26c-.56,0-1.15,.21-1.77,.62-.62,.41-1.16,.99-1.62,1.74-.47,.75-.78,1.64-.92,2.69v16.81h-8.97Z"/>
            <path class="cls-13" d="M609.06,784.04l-23.2-.06,13.34-22.42h-1.79c-1.76,0-3.68,.51-5.77,1.54-2.09,1.03-3.85,2.21-5.27,3.56v-6.16h22.36l-13.06,22.53h3.03c1.49,0,3.2-.53,5.13-1.6s3.65-2.46,5.18-4.17l.06,6.78Z"/>
            <path class="cls-13" d="M620.5,785.04c-2.05,0-3.83-.48-5.32-1.43-1.49-.95-2.62-2.18-3.36-3.67-.75-1.49-1.12-3.06-1.12-4.71,0-1.46,.31-2.79,.92-4.01,.62-1.21,1.52-2.18,2.72-2.89,1.2-.71,2.6-1.07,4.2-1.07,.86,0,1.72,.14,2.58,.42s1.64,.7,2.35,1.26l.06-.06c-.26-.22-.49-.46-.67-.7-.19-.24-.39-.48-.62-.7-.79-.97-1.36-1.78-1.74-2.44-.37-.65-.56-1.35-.56-2.1,0-1.12,.45-1.97,1.34-2.55s2.05-.87,3.47-.87c1.94,0,3.91,.51,5.91,1.54,2,1.03,3.68,2.59,5.04,4.68,1.36,2.09,2.04,4.65,2.04,7.68v10.59h-9.02v-11.71c0-2.61-.33-4.75-.98-6.42-.65-1.66-1.45-2.89-2.38-3.67-.93-.79-1.89-1.18-2.86-1.18-.64,0-1.11,.18-1.43,.53-.32,.36-.48,.79-.48,1.32,0,.67,.19,1.35,.56,2.05,.37,.69,.99,1.54,1.85,2.55,.3,.37,.62,.76,.95,1.15,.34,.39,.65,.79,.95,1.21,.08,.04,.11,.07,.11,.08,0,.02,.02,.05,.06,.08,.56,.67,1.05,1.4,1.46,2.19,.41,.79,.74,1.65,.98,2.61,.24,.95,.36,2.03,.36,3.22s-.26,2.28-.79,3.36c-.52,1.08-1.34,1.96-2.47,2.63-1.12,.67-2.5,1.01-4.15,1.01Zm3.75-2.58c.9,0,1.61-.43,2.13-1.29s.79-2,.79-3.42-.23-2.75-.7-4.09-1.11-2.46-1.93-3.33c-.82-.88-1.74-1.32-2.75-1.32-.52,0-.97,.18-1.34,.53-.37,.36-.66,.86-.87,1.51-.21,.65-.31,1.48-.31,2.49,0,1.53,.25,2.99,.76,4.37,.5,1.38,1.15,2.49,1.93,3.31,.78,.82,1.55,1.23,2.3,1.23Z"/>
            <path class="cls-13" d="M499.23,831.05c-1.38-.04-2.71-.15-3.98-.34-1.27-.19-2.33-.45-3.19-.78l1.18-6.39c.82,.71,1.7,1.42,2.63,2.13,1.57,1.16,3.01,2.11,4.32,2.86,1.31,.75,2.33,1.14,3.08,1.18,.82-.04,1.48-.22,1.96-.56,.49-.34,.73-.84,.73-1.51,0-.71-.32-1.49-.95-2.33-.64-.84-1.46-1.69-2.47-2.55-1.01-.86-2.3-1.87-3.87-3.03l-.17-.11c-.08-.04-.15-.08-.22-.14-.08-.06-.15-.1-.22-.14-2.17-1.64-3.73-2.96-4.68-3.95-.95-.99-1.43-2.06-1.43-3.22-.04-2.05,1.15-3.63,3.56-4.74,2.41-1.1,5.3-1.65,8.66-1.65,1.23,0,2.48,.08,3.75,.25,1.27,.17,2.43,.42,3.47,.76l-1.07,6.39c-.75-.93-1.73-1.9-2.94-2.89-1.21-.99-2.45-1.81-3.7-2.46s-2.23-.98-2.94-.98c-.64,0-1.18,.12-1.63,.36-.45,.24-.67,.61-.67,1.09,0,.6,.52,1.38,1.57,2.35,1.04,.97,2.58,2.21,4.59,3.7l.84,.56,.22,.17c1.61,1.12,2.86,2.06,3.75,2.83s1.63,1.6,2.21,2.49c.58,.9,.87,1.83,.87,2.8,0,1.79-.64,3.28-1.93,4.46-1.29,1.18-2.94,2.04-4.96,2.58s-4.15,.81-6.39,.81Z"/>
            <path class="cls-13" d="M526.46,831.22c-3.21,0-5.81-.67-7.79-2.02-1.98-1.35-2.97-3.33-2.97-5.94v-15.52h-2.69v-1.01h1.46c1.61,0,3.12-.55,4.54-1.65,1.42-1.1,2.56-2.54,3.42-4.32,.86-1.77,1.29-3.71,1.29-5.8h.95v11.77h7.06v1.01h-7.06v18.49c0,1.23,.19,2.16,.56,2.77,.37,.62,.9,.92,1.57,.92,.75,0,1.62-.45,2.61-1.35,.99-.9,1.99-2.19,3-3.87l1.46,5.55c-2.58,.63-5.04,.95-7.4,.95Z"/>
            <path class="cls-13" d="M543.83,831.28c-2.05,0-3.83-.48-5.32-1.43-1.49-.95-2.62-2.18-3.36-3.67s-1.12-3.06-1.12-4.71c0-1.46,.31-2.79,.92-4.01,.62-1.21,1.52-2.18,2.72-2.89,1.2-.71,2.6-1.06,4.2-1.06,.86,0,1.72,.14,2.58,.42,.86,.28,1.64,.7,2.35,1.26l.06-.06c-.26-.22-.49-.46-.67-.7-.19-.24-.39-.48-.62-.7-.79-.97-1.36-1.78-1.74-2.44-.37-.65-.56-1.35-.56-2.1,0-1.12,.45-1.97,1.34-2.55,.9-.58,2.05-.87,3.47-.87,1.94,0,3.91,.51,5.91,1.54,2,1.03,3.68,2.59,5.04,4.68,1.36,2.09,2.04,4.65,2.04,7.68v10.59h-9.02v-11.71c0-2.62-.33-4.75-.98-6.42-.65-1.66-1.45-2.89-2.38-3.67-.93-.78-1.89-1.18-2.86-1.18-.64,0-1.11,.18-1.43,.53s-.48,.79-.48,1.32c0,.67,.19,1.35,.56,2.05,.37,.69,.99,1.54,1.85,2.55,.3,.37,.62,.76,.95,1.15,.34,.39,.65,.79,.95,1.21,.08,.04,.11,.07,.11,.08,0,.02,.02,.05,.06,.08,.56,.67,1.05,1.4,1.46,2.19s.74,1.65,.98,2.61c.24,.95,.36,2.03,.36,3.22s-.26,2.28-.79,3.36c-.52,1.08-1.34,1.96-2.47,2.63-1.12,.67-2.5,1.01-4.15,1.01Zm3.75-2.58c.9,0,1.61-.43,2.13-1.29,.52-.86,.79-2,.79-3.42s-.23-2.75-.7-4.09-1.11-2.46-1.93-3.33c-.82-.88-1.74-1.32-2.75-1.32-.52,0-.97,.18-1.34,.53-.37,.36-.66,.86-.87,1.51-.21,.65-.31,1.48-.31,2.49,0,1.53,.25,2.99,.76,4.37,.5,1.38,1.15,2.49,1.93,3.31,.78,.82,1.55,1.23,2.3,1.23Z"/>
            <path class="cls-13" d="M570.9,841.25c-2.06,0-4.13-.21-6.22-.62v-7.45c2.05,1.94,4.02,3.48,5.88,4.62s3.51,1.71,4.93,1.71c1.49,0,2.67-.61,3.53-1.82s1.29-3.07,1.29-5.58v-4.43c-.9,1.12-2.03,1.98-3.39,2.58-1.36,.6-2.75,.9-4.17,.9-1.68,0-3.24-.42-4.68-1.26-1.44-.84-2.62-2.12-3.53-3.84-.92-1.72-1.37-3.83-1.37-6.33,0-4.78,1.34-8.3,4.03-10.56,2.69-2.26,6.18-3.39,10.48-3.39s8.05,.73,11.6,2.19v18.16c0,3.59-.78,6.5-2.33,8.74-1.55,2.24-3.69,3.87-6.42,4.88-2.73,1.01-5.94,1.51-9.64,1.51Zm6.44-12.67c.63,0,1.22-.31,1.76-.92,.54-.62,.94-1.52,1.21-2.72v-16.2c-.34-.63-.76-1.14-1.26-1.51-.5-.37-1.06-.56-1.65-.56-.9,0-1.74,.39-2.52,1.18s-1.42,1.99-1.91,3.62c-.49,1.62-.73,3.67-.73,6.14,0,2.13,.25,4.03,.76,5.69,.5,1.66,1.15,2.96,1.93,3.89,.79,.93,1.59,1.4,2.41,1.4Z"/>
            <path class="cls-13" d="M606.04,831.33c-3.18,0-5.86-.57-8.04-1.71-2.19-1.14-3.84-2.67-4.96-4.59s-1.68-4.16-1.68-6.7c0-2.39,.53-4.54,1.6-6.44,1.06-1.91,2.64-3.4,4.74-4.48,2.09-1.08,4.63-1.62,7.62-1.62,2.28,0,4.22,.24,5.83,.73,1.61,.49,2.82,1.19,3.64,2.1,.82,.92,1.23,2.01,1.23,3.28-.04,1.34-.6,2.49-1.68,3.45-1.08,.95-2.47,1.67-4.15,2.16-1.68,.49-3.44,.73-5.27,.73v.06c1.76,.19,3.43,.52,5.02,1.01s2.9,1.17,3.95,2.04c1.04,.88,1.57,1.97,1.57,3.28,0,1.38-.45,2.58-1.35,3.59-.9,1.01-2.07,1.78-3.53,2.33s-2.97,.81-4.54,.81Zm3.08-2.02c1.61,0,2.95-.42,4.04-1.26,1.08-.84,1.62-1.97,1.62-3.39,0-1.53-.84-2.76-2.52-3.7-1.68-.93-3.59-1.6-5.72-1.99-2.13-.39-4.07-.66-5.83-.81h-.34c-.08,0-.17-.02-.28-.06-.04,2.32,.37,4.32,1.23,6.02,.86,1.7,1.98,2.99,3.36,3.87,1.38,.88,2.86,1.32,4.43,1.32Zm-5.88-11.66c1.16,0,2.23-.35,3.22-1.04s1.77-1.62,2.35-2.8c.58-1.18,.87-2.46,.87-3.84,0-.71-.09-1.31-.28-1.79-.19-.49-.46-.85-.81-1.09-.36-.24-.81-.36-1.37-.36-.97,0-2,.41-3.08,1.23-1.08,.82-2,2.04-2.75,3.64-.75,1.61-1.16,3.49-1.23,5.66,.3,.08,.8,.17,1.51,.28,.56,.08,1.08,.11,1.57,.11Z"/>
          </g>
        </g>
        <g>
          <rect class="cls-10" x="134.62" y="861.09" width="120.77" height="97.72"/>
          <path class="cls-15" d="M257.88,961.31h-125.77v-102.72h125.77v102.72Zm-120.77-5h115.77v-92.72h-115.77v92.72Z"/>
        </g>
        <g>
          <g>
            <path class="cls-1" d="M141.02,923.17v-18.24h6.88v2.93h.09c.72-1.18,1.65-2.08,2.8-2.71,1.15-.63,2.34-.95,3.57-.95,1.46,0,2.75,.41,3.85,1.23,1.1,.82,1.81,2,2.13,3.55h.09c.72-1.49,1.7-2.66,2.95-3.51,1.25-.85,2.59-1.27,4.02-1.27,1.09,0,2.1,.24,3.03,.73,.93,.49,1.68,1.21,2.24,2.17,.56,.96,.84,2.13,.84,3.51v12.39h-6.88v-12.99c0-1.15-.23-2.04-.69-2.67s-1.03-.95-1.72-.95c-.6,0-1.19,.23-1.76,.69-.57,.46-1.04,1.09-1.4,1.89-.36,.8-.54,1.72-.54,2.75v11.27h-6.88v-12.95c0-1.17-.26-2.07-.77-2.69-.52-.62-1.15-.92-1.89-.92-.49,0-.97,.19-1.44,.58-.47,.39-.86,.9-1.16,1.55-.3,.64-.45,1.34-.45,2.09v12.52h-6.88Z"/>
            <path class="cls-1" d="M186.37,923.81c-2.44,0-4.5-.44-6.17-1.31-1.68-.87-2.95-2.05-3.81-3.53-.86-1.48-1.29-3.19-1.29-5.14,0-1.83,.41-3.48,1.23-4.95s2.03-2.61,3.64-3.44c1.61-.83,3.56-1.25,5.85-1.25,1.75,0,3.24,.19,4.47,.56,1.23,.37,2.17,.91,2.8,1.61,.63,.7,.95,1.54,.95,2.52-.03,1.03-.46,1.91-1.29,2.65s-1.89,1.28-3.18,1.66c-1.29,.37-2.64,.56-4.04,.56v.04c1.35,.14,2.63,.4,3.85,.77s2.23,.9,3.03,1.57c.8,.67,1.2,1.51,1.2,2.52,0,1.06-.34,1.98-1.03,2.75s-1.59,1.37-2.71,1.79c-1.12,.42-2.28,.62-3.48,.62Zm2.37-1.55c1.23,0,2.27-.32,3.1-.97s1.25-1.51,1.25-2.6c0-1.18-.65-2.12-1.94-2.84-1.29-.72-2.75-1.23-4.39-1.53-1.63-.3-3.13-.51-4.47-.62h-.26c-.06,0-.13-.01-.21-.04-.03,1.78,.29,3.32,.95,4.62,.66,1.31,1.52,2.29,2.58,2.97,1.06,.67,2.19,1.01,3.4,1.01Zm-4.52-8.95c.89,0,1.71-.26,2.47-.8,.76-.53,1.36-1.25,1.81-2.15s.67-1.89,.67-2.95c0-.54-.07-1-.21-1.38-.14-.37-.35-.65-.62-.84s-.62-.28-1.05-.28c-.75,0-1.54,.32-2.37,.95-.83,.63-1.54,1.56-2.11,2.8-.57,1.23-.89,2.68-.95,4.34,.23,.06,.62,.13,1.16,.21,.43,.06,.83,.09,1.2,.09Z"/>
            <path class="cls-1" d="M195.66,923v-18.07h6.88v6.97h.09c.49-1.32,1.1-2.52,1.83-3.59,.73-1.08,1.55-1.95,2.45-2.62s1.89-1.04,2.95-1.1l.39,4.47c-1.23-.03-2.41,.11-3.53,.41-1.12,.3-2.09,.88-2.9,1.74s-1.24,2.04-1.27,3.53v8.26h-6.88Z"/>
            <path class="cls-1" d="M220.7,923.73c-2.21,0-4.07-.46-5.59-1.38-1.52-.92-2.67-2.14-3.44-3.66-.77-1.52-1.16-3.18-1.16-4.99,0-1.92,.38-3.6,1.14-5.03,.76-1.43,1.89-2.54,3.38-3.33s3.37-1.18,5.64-1.18c1.35,0,2.6,.06,3.76,.19,1.16,.13,2.19,.34,3.08,.62l-.09,4.22c-1.03-1.35-2.03-2.39-2.99-3.14-.96-.75-1.84-1.12-2.65-1.12-1.38,0-2.45,.72-3.23,2.15-.77,1.43-1.16,3.36-1.16,5.76,0,2.15,.2,3.98,.6,5.48,.4,1.51,.96,2.65,1.68,3.42,.72,.77,1.52,1.16,2.41,1.16s1.76-.48,2.69-1.44c.93-.96,1.63-2.01,2.09-3.16l1.68,3.27c-1.15,.72-2.36,1.25-3.64,1.61s-2.67,.54-4.19,.54Z"/>
            <path class="cls-1" d="M229.99,923v-27.1h6.88v13.08h.09c.57-1.49,1.48-2.67,2.73-3.53,1.25-.86,2.6-1.29,4.07-1.29,1.12,0,2.14,.24,3.05,.71,.92,.47,1.66,1.2,2.21,2.17,.56,.97,.84,2.17,.84,3.57v12.39h-6.88v-12.99c0-1.03-.23-1.83-.69-2.39-.46-.56-1.05-.84-1.76-.84-.63,0-1.23,.2-1.79,.6-.56,.4-1.01,1.03-1.36,1.87-.34,.85-.52,1.84-.52,2.99v10.75h-6.88Z"/>
          </g>
          <g>
            <path class="cls-1" d="M260.28,890.99c-1.08,.28-2.07,.51-3.04,.79-1.9,.54-3.14,1.77-3.68,3.67-.28,.99-.52,1.99-.8,3.08-.17-.72-.3-1.36-.46-1.99-.15-.56-.32-1.11-.52-1.66-.52-1.44-1.52-2.44-2.97-2.92-1.02-.34-2.08-.57-3.12-.84-.1-.03-.21-.05-.32-.18,.45-.1,.91-.23,1.37-.3,3.28-.5,5.18-2.37,5.68-5.65,.07-.49,.21-.96,.35-1.58,.26,1.04,.47,1.93,.7,2.83,.54,2.12,1.87,3.48,3.99,4.04,.9,.24,1.81,.45,2.82,.71Z"/>
            <path class="cls-1" d="M127.61,890.35c6.56-.45,10.02-3.97,10.66-10.59,.62,6.6,4.05,10.12,10.6,10.58-2.66,.93-5.51,1.14-7.54,3.18-2.05,2.06-2.31,4.87-3.05,7.76-.82-2.85-1.03-5.7-3.09-7.75-2.05-2.05-4.9-2.26-7.58-3.18Z"/>
            <path class="cls-1" d="M239.38,952.39c-.54-5.77-3.78-8.83-9.63-9.35,7.47-2.11,7.82-2.46,9.45-9.2,.91,1.95,1.63,4.34,3.01,6.25,1.5,2.06,4.24,2.16,6.81,2.79-1.71,.53-3.26,.94-4.76,1.48-1.59,.58-2.79,1.69-3.4,3.28-.59,1.54-1,3.15-1.49,4.73Z"/>
            <path class="cls-1" d="M152.66,871.32c.42,3.39,2.28,5.2,5.67,5.61-3.31,.5-5.3,2.18-5.62,5.68-.5-3.36-2.27-5.27-5.7-5.65,3.32-.48,5.26-2.21,5.66-5.65Z"/>
            <path class="cls-1" d="M249.43,926.43c.42,3.39,2.28,5.2,5.67,5.61-3.31,.5-5.3,2.18-5.62,5.68-.5-3.36-2.27-5.27-5.7-5.65,3.32-.48,5.26-2.21,5.66-5.65Z"/>
          </g>
        </g>
        <g>
          <path class="cls-6" d="M482.61,700.26s-11.67,82.64-87.53,82.64h-129.9"/>
          <path class="cls-4" d="M395.07,785.39h-129.9v-5h129.9c30.47,0,54.01-13.45,69.99-39.97,12.04-19.99,15.04-40.32,15.07-40.52l4.95,.7c-.12,.86-3.13,21.4-15.65,42.25-11.65,19.4-34,42.53-74.36,42.53Z"/>
        </g>
        <g>
          <polyline class="cls-6" points="270.02 783.18 133.48 783.18 133.48 637.87 270.02 637.87"/>
          <polygon class="cls-4" points="270.02 785.68 130.98 785.68 130.98 635.37 270.02 635.37 270.02 640.37 135.98 640.37 135.98 780.68 270.02 780.68 270.02 785.68"/>
        </g>
        <g>
          <path class="cls-16" d="M158.96,833.91l-4.61-1.95c31.47-74.38,51.29-111.61,78.81-122.06,16.53-6.28,36.03-3.02,65.19,10.89,18.28,8.72,34.88,9.97,47.99,3.61,12.62-6.12,22.09-19.48,25.97-36.66l4.88,1.1c-4.22,18.66-14.67,33.26-28.67,40.05-14.53,7.05-32.62,5.8-52.32-3.59-27.81-13.26-46.13-16.47-61.26-10.73-25.82,9.8-45.07,46.29-75.98,119.33Z"/>
          <polygon class="cls-16" points="376.71 670.76 383.68 696.7 374.34 689.58 363.52 694.17 376.71 670.76"/>
        </g>
        <rect class="cls-2" x="450.28" y="888.6" width="92.68" height="38.04"/>
        <rect class="cls-2" x="222.5" y="574.84" width="72" height="29.55" transform="translate(-331.12 848.12) rotate(-90)"/>
        <rect class="cls-2" x="119.8" y="534.11" width="91.53" height="37.57" transform="translate(-403.8 647.33) rotate(-82.75)"/>
        <rect class="cls-8" x="133.71" y="431.58" width="91.53" height="37.57" transform="translate(-289.94 571.54) rotate(-82.75)"/>
        <rect class="cls-2" x="378.32" y="718.47" width="74.32" height="30.51" transform="translate(-353.33 387.46) rotate(-36.23)"/>
        <g>
          <g>
            <rect class="cls-2" x="722.1" y="1097.65" width="59.86" height="31.2"/>
            <g>
              <path class="cls-1" d="M810.4,1127.73c-1.31,0-2.59-.1-3.84-.31s-2.42-.5-3.5-.89l.77-5.52c1.63,1.28,3.54,2.3,5.71,3.07,2.18,.77,4.14,1.15,5.9,1.15,1.6,0,2.89-.32,3.86-.96,.98-.64,1.46-1.57,1.46-2.78,0-.93-.36-1.84-1.08-2.74-.72-.9-1.62-1.71-2.71-2.45-1.09-.74-2.59-1.66-4.51-2.78-.03-.03-.06-.06-.1-.1-.03-.03-.1-.06-.19-.1-.16-.13-.31-.23-.46-.31-.14-.08-.31-.17-.5-.26-1.86-1.09-3.4-2.08-4.63-2.98-1.23-.9-2.26-1.87-3.07-2.93-.82-1.06-1.22-2.16-1.22-3.31,0-2.53,1.43-4.42,4.3-5.69,2.86-1.26,6.38-1.9,10.54-1.9,1.41,0,2.75,.06,4.03,.17,1.28,.11,2.5,.3,3.65,.55l-.72,5.52c-1.31-.93-2.71-1.75-4.2-2.47-1.49-.72-2.94-1.29-4.34-1.7-1.41-.42-2.66-.62-3.74-.62-1.25,0-2.25,.2-3,.6-.75,.4-1.13,1-1.13,1.8,0,.54,.31,1.13,.94,1.75s1.44,1.25,2.45,1.87c1.01,.62,2.25,1.34,3.72,2.14,.22,.13,.43,.26,.62,.38,.19,.13,.4,.24,.62,.34,.06,.03,.12,.06,.17,.07,.05,.02,.1,.04,.17,.07,1.92,1.06,3.5,2,4.75,2.83,1.25,.83,2.31,1.89,3.19,3.17,.88,1.28,1.32,2.75,1.32,4.42,0,2.27-.72,4.23-2.16,5.88-1.44,1.65-3.33,2.9-5.66,3.74s-4.8,1.27-7.39,1.27Zm-.82-33.46l-3.94-3.22,8.3-4.18,8.35,4.18-3.55,3.22-4.8-6.72-4.37,6.72Z"/>
              <path class="cls-1" d="M835.55,1127.78c-1.76,0-3.28-.41-4.56-1.22-1.28-.82-2.24-1.86-2.88-3.14-.64-1.28-.96-2.62-.96-4.03,0-1.25,.26-2.39,.79-3.43,.53-1.04,1.3-1.86,2.33-2.47,1.02-.61,2.22-.91,3.6-.91,.74,0,1.47,.12,2.21,.36,.74,.24,1.41,.6,2.02,1.08l.05-.05c-.22-.19-.42-.39-.58-.6s-.34-.41-.53-.6c-.67-.83-1.17-1.53-1.49-2.09-.32-.56-.48-1.16-.48-1.8,0-.96,.38-1.69,1.15-2.18,.77-.5,1.76-.74,2.98-.74,1.66,0,3.35,.44,5.06,1.32,1.71,.88,3.15,2.22,4.32,4.01,1.17,1.79,1.75,3.98,1.75,6.58v9.07h-7.73v-10.03c0-2.24-.28-4.07-.84-5.5-.56-1.42-1.24-2.47-2.04-3.14s-1.62-1.01-2.45-1.01c-.54,0-.95,.15-1.22,.46-.27,.3-.41,.68-.41,1.13,0,.58,.16,1.16,.48,1.75,.32,.59,.85,1.32,1.58,2.18,.26,.32,.53,.65,.82,.98s.56,.68,.82,1.03c.06,.03,.1,.06,.1,.07,0,.02,.02,.04,.05,.07,.48,.58,.9,1.2,1.25,1.87,.35,.67,.63,1.42,.84,2.23,.21,.82,.31,1.74,.31,2.76s-.22,1.95-.67,2.88c-.45,.93-1.15,1.68-2.11,2.26s-2.14,.86-3.55,.86Zm3.22-2.21c.77,0,1.38-.37,1.82-1.1,.45-.74,.67-1.71,.67-2.93s-.2-2.35-.6-3.5c-.4-1.15-.95-2.1-1.66-2.86-.7-.75-1.49-1.13-2.35-1.13-.45,0-.83,.15-1.15,.46-.32,.3-.57,.74-.74,1.3-.18,.56-.26,1.27-.26,2.14,0,1.31,.22,2.56,.65,3.74,.43,1.18,.98,2.13,1.66,2.83,.67,.71,1.33,1.06,1.97,1.06Z"/>
              <path class="cls-1" d="M852.59,1127.1v-20.35h7.68v3.6h.1c.7-1.38,1.71-2.46,3.02-3.26,1.31-.8,2.67-1.2,4.08-1.2,1.25,0,2.4,.27,3.46,.82,1.06,.54,1.9,1.36,2.54,2.45,.64,1.09,.96,2.4,.96,3.94v13.82h-7.68v-14.5c0-1.25-.26-2.23-.79-2.95-.53-.72-1.19-1.08-1.99-1.08-.48,0-.98,.18-1.51,.53-.53,.35-.99,.85-1.39,1.49-.4,.64-.66,1.41-.79,2.3v14.4h-7.68Z"/>
              <path class="cls-1" d="M876.83,1126.91v-30.24h7.68v19.39h.1c.86-1.63,2.06-3.23,3.58-4.8,1.52-1.57,3.11-2.85,4.78-3.84,1.66-.99,3.22-1.49,4.66-1.49v4.85c-1.82-.32-3.67-.19-5.52,.38-1.02,.32-2.01,.74-2.95,1.27-.94,.53-1.74,1.13-2.38,1.8l-.05,.14c1.12-.58,2.14-.86,3.07-.86,1.06,0,2.02,.44,2.88,1.32,.86,.88,1.59,1.91,2.18,3.1s1.27,2.7,2.04,4.56c.35,.86,.7,1.69,1.03,2.47,.34,.79,.66,1.43,.98,1.94h-7.68c-.19-.35-.38-.93-.58-1.73-.19-.8-.4-1.82-.62-3.07-.29-1.25-.58-2.42-.86-3.5s-.61-1.98-.96-2.69c-.35-.7-.74-1.06-1.15-1.06s-.78,.14-1.1,.43c-.32,.29-.6,.65-.84,1.08-.24,.43-.42,.89-.55,1.37l-.05,.05v9.12h-7.68Z"/>
            </g>
          </g>
          <g>
            <rect class="cls-8" x="722.1" y="1145.97" width="59.86" height="31.2"/>
            <g>
              <path class="cls-1" d="M802.91,1176.24v-30.24h7.68v14.26h9.65v-14.26h7.68v30.24h-7.68v-15.12h-9.65v15.12h-7.68Z"/>
              <path class="cls-1" d="M830.32,1176.24v-20.16h7.68v7.78h.1c.54-1.47,1.22-2.81,2.04-4.01,.82-1.2,1.73-2.18,2.74-2.93,1.01-.75,2.1-1.16,3.29-1.22l.43,4.99c-1.38-.03-2.69,.12-3.94,.46s-2.33,.98-3.24,1.94-1.38,2.27-1.42,3.94v9.22h-7.68Z"/>
              <path class="cls-1" d="M851.82,1177.11c-1.76,0-3.28-.41-4.56-1.22-1.28-.82-2.24-1.86-2.88-3.14-.64-1.28-.96-2.62-.96-4.03,0-1.25,.26-2.39,.79-3.43,.53-1.04,1.3-1.86,2.33-2.47,1.02-.61,2.22-.91,3.6-.91,.74,0,1.47,.12,2.21,.36,.74,.24,1.41,.6,2.02,1.08l.05-.05c-.22-.19-.42-.39-.58-.6s-.34-.41-.53-.6c-.67-.83-1.17-1.53-1.49-2.09-.32-.56-.48-1.16-.48-1.8,0-.96,.38-1.69,1.15-2.18,.77-.5,1.76-.74,2.98-.74,1.66,0,3.35,.44,5.06,1.32,1.71,.88,3.15,2.22,4.32,4.01,1.17,1.79,1.75,3.98,1.75,6.58v9.07h-7.73v-10.03c0-2.24-.28-4.07-.84-5.5-.56-1.42-1.24-2.47-2.04-3.14s-1.62-1.01-2.45-1.01c-.54,0-.95,.15-1.22,.46-.27,.3-.41,.68-.41,1.13,0,.58,.16,1.16,.48,1.75,.32,.59,.85,1.32,1.58,2.18,.26,.32,.53,.65,.82,.98s.56,.68,.82,1.03c.06,.03,.1,.06,.1,.07,0,.02,.02,.04,.05,.07,.48,.58,.9,1.2,1.25,1.87,.35,.67,.63,1.42,.84,2.23,.21,.82,.31,1.74,.31,2.76s-.22,1.95-.67,2.88c-.45,.93-1.15,1.68-2.11,2.26s-2.14,.86-3.55,.86Zm3.22-2.21c.77,0,1.38-.37,1.82-1.1,.45-.74,.67-1.71,.67-2.93s-.2-2.35-.6-3.5c-.4-1.15-.95-2.1-1.66-2.86-.7-.75-1.49-1.13-2.35-1.13-.45,0-.83,.15-1.15,.46-.32,.3-.57,.74-.74,1.3-.18,.56-.26,1.27-.26,2.14,0,1.31,.22,2.56,.65,3.74,.43,1.18,.98,2.13,1.66,2.83,.67,.71,1.33,1.06,1.97,1.06Z"/>
              <path class="cls-1" d="M868.86,1176.44v-20.35h7.68v3.6h.1c.7-1.38,1.71-2.46,3.02-3.26,1.31-.8,2.67-1.2,4.08-1.2,1.25,0,2.4,.27,3.46,.82,1.06,.54,1.9,1.36,2.54,2.45,.64,1.09,.96,2.4,.96,3.94v13.82h-7.68v-14.5c0-1.25-.26-2.23-.79-2.95-.53-.72-1.19-1.08-1.99-1.08-.48,0-.98,.18-1.51,.53-.53,.35-.99,.85-1.39,1.49-.4,.64-.66,1.41-.79,2.3v14.4h-7.68Z"/>
              <path class="cls-1" d="M901.26,1177.11c-1.76,0-3.28-.41-4.56-1.22-1.28-.82-2.24-1.86-2.88-3.14-.64-1.28-.96-2.62-.96-4.03,0-1.25,.26-2.39,.79-3.43s1.3-1.86,2.33-2.47c1.02-.61,2.22-.91,3.6-.91,.74,0,1.47,.12,2.21,.36s1.41,.6,2.02,1.08l.05-.05c-.22-.19-.42-.39-.58-.6s-.34-.41-.53-.6c-.67-.83-1.17-1.53-1.49-2.09-.32-.56-.48-1.16-.48-1.8,0-.96,.38-1.69,1.15-2.18,.77-.5,1.76-.74,2.98-.74,1.66,0,3.35,.44,5.06,1.32,1.71,.88,3.15,2.22,4.32,4.01,1.17,1.79,1.75,3.98,1.75,6.58v9.07h-7.73v-10.03c0-2.24-.28-4.07-.84-5.5-.56-1.42-1.24-2.47-2.04-3.14-.8-.67-1.62-1.01-2.45-1.01-.54,0-.95,.15-1.22,.46-.27,.3-.41,.68-.41,1.13,0,.58,.16,1.16,.48,1.75,.32,.59,.85,1.32,1.58,2.18,.26,.32,.53,.65,.82,.98s.56,.68,.82,1.03c.06,.03,.1,.06,.1,.07,0,.02,.02,.04,.05,.07,.48,.58,.9,1.2,1.25,1.87,.35,.67,.63,1.42,.84,2.23,.21,.82,.31,1.74,.31,2.76s-.22,1.95-.67,2.88c-.45,.93-1.15,1.68-2.11,2.26s-2.14,.86-3.55,.86Zm3.22-2.21c.77,0,1.38-.37,1.82-1.1,.45-.74,.67-1.71,.67-2.93s-.2-2.35-.6-3.5-.95-2.1-1.66-2.86c-.71-.75-1.49-1.13-2.35-1.13-.45,0-.83,.15-1.15,.46-.32,.3-.57,.74-.74,1.3-.18,.56-.26,1.27-.26,2.14,0,1.31,.22,2.56,.65,3.74,.43,1.18,.98,2.13,1.66,2.83,.67,.71,1.33,1.06,1.97,1.06Z"/>
            </g>
          </g>
        </g>
      </g>
    </g>
    <g>
      <g>
        <path class="cls-11" d="M193.88,207.43c-3.17,0-6.27-.25-9.28-.75-3.02-.5-5.84-1.22-8.47-2.15l1.86-13.35c3.95,3.1,8.55,5.57,13.81,7.43,5.26,1.86,10.02,2.79,14.27,2.79,3.87,0,6.98-.77,9.34-2.32,2.36-1.55,3.54-3.79,3.54-6.73,0-2.24-.87-4.45-2.61-6.61-1.74-2.17-3.93-4.14-6.56-5.92-2.63-1.78-6.27-4.02-10.91-6.73-.08-.08-.16-.15-.23-.23-.08-.08-.23-.15-.46-.23-.39-.31-.75-.56-1.1-.75-.35-.19-.75-.41-1.22-.64-4.49-2.63-8.22-5.03-11.2-7.2-2.98-2.17-5.45-4.53-7.43-7.08-1.97-2.55-2.96-5.22-2.96-8.01,0-6.11,3.46-10.69,10.39-13.75,6.92-3.06,15.42-4.58,25.47-4.58,3.4,0,6.65,.14,9.75,.41,3.09,.27,6.04,.72,8.82,1.33l-1.74,13.35c-3.17-2.24-6.56-4.24-10.15-5.98s-7.1-3.11-10.5-4.12c-3.41-1-6.42-1.51-9.05-1.51-3.02,0-5.44,.48-7.25,1.45-1.82,.97-2.73,2.42-2.73,4.35,0,1.32,.75,2.73,2.26,4.24,1.51,1.51,3.48,3.02,5.92,4.53,2.44,1.51,5.43,3.23,8.99,5.16,.54,.31,1.04,.62,1.51,.93,.46,.31,.97,.58,1.51,.81,.15,.08,.29,.14,.41,.17,.12,.04,.25,.1,.41,.17,4.64,2.55,8.47,4.84,11.49,6.85,3.02,2.01,5.59,4.57,7.72,7.66,2.13,3.1,3.19,6.65,3.19,10.68,0,5.49-1.74,10.23-5.22,14.22-3.48,3.99-8.05,7-13.69,9.05-5.65,2.05-11.61,3.08-17.87,3.08Z"/>
        <path class="cls-11" d="M272.45,207.08c-7.89,0-14.7-1.74-20.43-5.22-5.73-3.48-10.12-8.18-13.17-14.1-3.06-5.92-4.58-12.55-4.58-19.9,0-7.89,1.47-14.6,4.41-20.14,2.94-5.53,7.2-9.73,12.77-12.59,5.57-2.86,12.3-4.29,20.19-4.29,2.94,0,6.25,.14,9.92,.41,3.67,.27,6.98,.64,9.92,1.1l-2.55,13.35c-3.02-4.02-5.98-7.04-8.88-9.05-2.9-2.01-5.71-3.02-8.41-3.02-3.33,0-6.27,1.33-8.82,4-2.55,2.67-4.55,6.5-5.98,11.49-1.43,4.99-2.15,10.89-2.15,17.7,0,7.66,.81,14.33,2.44,20.02,1.62,5.69,3.89,10.02,6.79,13,2.9,2.98,6.13,4.47,9.69,4.47,3.17,0,6.46-1.2,9.86-3.6,3.4-2.4,6.62-5.72,9.63-9.98l2.55,13.35c-3.48,1.01-7.37,1.76-11.66,2.26-4.29,.5-8.14,.75-11.55,.75Z"/>
        <path class="cls-11" d="M319.33,205.92v-49.21h18.57v7.89h.23c1.93-3.17,4.45-5.61,7.54-7.31,3.09-1.7,6.3-2.55,9.63-2.55,3.95,0,7.41,1.1,10.39,3.31,2.98,2.21,4.89,5.4,5.75,9.57h.23c1.93-4.02,4.58-7.18,7.95-9.46,3.37-2.28,6.98-3.42,10.85-3.42,2.94,0,5.67,.66,8.18,1.97,2.51,1.32,4.53,3.27,6.03,5.86,1.51,2.59,2.26,5.74,2.26,9.46v33.42h-18.57v-35.05c0-3.09-.62-5.49-1.86-7.2-1.24-1.7-2.79-2.55-4.64-2.55-1.62,0-3.21,.62-4.76,1.86-1.55,1.24-2.81,2.94-3.77,5.11-.97,2.17-1.45,4.64-1.45,7.43v30.41h-18.57v-34.93c0-3.17-.7-5.59-2.09-7.25-1.39-1.66-3.1-2.5-5.11-2.5-1.32,0-2.61,.52-3.89,1.57s-2.32,2.44-3.13,4.18-1.22,3.62-1.22,5.63v33.77h-18.57Z"/>
        <path class="cls-11" d="M441.65,207.66c-6.58,0-12.13-1.18-16.65-3.54-4.53-2.36-7.95-5.53-10.27-9.52-2.32-3.98-3.48-8.61-3.48-13.87,0-4.95,1.1-9.4,3.31-13.35s5.47-7.04,9.81-9.28c4.33-2.24,9.59-3.37,15.78-3.37,4.72,0,8.74,.5,12.07,1.51,3.33,1.01,5.84,2.46,7.54,4.35,1.7,1.9,2.55,4.16,2.55,6.79-.08,2.79-1.24,5.16-3.48,7.14-2.25,1.97-5.11,3.46-8.59,4.47-3.48,1.01-7.12,1.51-10.91,1.51v.12c3.64,.39,7.1,1.08,10.39,2.09,3.29,1.01,6.01,2.42,8.18,4.24,2.17,1.82,3.25,4.08,3.25,6.79,0,2.86-.93,5.34-2.79,7.43-1.86,2.09-4.29,3.7-7.31,4.82-3.02,1.12-6.15,1.68-9.4,1.68Zm6.38-4.18c3.33,0,6.11-.87,8.36-2.61,2.24-1.74,3.37-4.08,3.37-7.02,0-3.17-1.74-5.72-5.22-7.66-3.48-1.93-7.43-3.31-11.84-4.12-4.41-.81-8.43-1.37-12.07-1.68h-.7c-.16,0-.35-.04-.58-.12-.08,4.8,.77,8.96,2.55,12.48,1.78,3.52,4.1,6.19,6.96,8.01,2.86,1.82,5.92,2.73,9.17,2.73Zm-12.19-24.14c2.4,0,4.62-.71,6.67-2.15,2.05-1.43,3.67-3.37,4.87-5.8,1.2-2.44,1.8-5.09,1.8-7.95,0-1.47-.19-2.71-.58-3.71-.39-1-.95-1.76-1.68-2.26-.74-.5-1.68-.75-2.84-.75-2.01,0-4.14,.85-6.38,2.55-2.24,1.7-4.14,4.22-5.69,7.54-1.55,3.33-2.4,7.24-2.55,11.72,.62,.16,1.66,.35,3.13,.58,1.16,.16,2.24,.23,3.25,.23Z"/>
        <path class="cls-11" d="M466.72,205.92v-49.21h18.57v8.7h.23c1.7-3.33,4.14-5.96,7.31-7.89,3.17-1.93,6.46-2.9,9.86-2.9,3.02,0,5.8,.66,8.36,1.97,2.55,1.32,4.6,3.29,6.15,5.92,1.55,2.63,2.32,5.8,2.32,9.52v33.42h-18.57v-35.05c0-3.02-.64-5.4-1.92-7.14s-2.88-2.61-4.82-2.61c-1.16,0-2.38,.43-3.66,1.28-1.28,.85-2.4,2.05-3.37,3.6-.97,1.55-1.61,3.41-1.92,5.57v34.82h-18.57Z"/>
        <path class="cls-11" d="M573.72,205.45l-48.05-.12,27.62-46.42h-3.71c-3.64,0-7.62,1.06-11.95,3.19-4.33,2.13-7.97,4.58-10.91,7.37v-12.77h46.31l-27.04,46.65h6.27c3.09,0,6.63-1.1,10.62-3.31,3.98-2.21,7.56-5.09,10.73-8.65l.12,14.04Z"/>
        <path class="cls-11" d="M597.4,207.54c-4.26,0-7.93-.99-11.03-2.96-3.1-1.97-5.42-4.51-6.96-7.6-1.55-3.09-2.32-6.34-2.32-9.75,0-3.02,.64-5.78,1.92-8.3,1.28-2.51,3.15-4.51,5.63-5.98,2.48-1.47,5.38-2.21,8.7-2.21,1.78,0,3.56,.29,5.34,.87,1.78,.58,3.4,1.45,4.87,2.61l.12-.12c-.54-.46-1.01-.95-1.39-1.45-.39-.5-.81-.99-1.28-1.45-1.62-2.01-2.83-3.69-3.6-5.05-.77-1.35-1.16-2.8-1.16-4.35,0-2.32,.93-4.08,2.79-5.28,1.86-1.2,4.25-1.8,7.2-1.8,4.02,0,8.1,1.06,12.24,3.19,4.14,2.13,7.62,5.36,10.45,9.69,2.82,4.33,4.24,9.63,4.24,15.9v21.93h-18.68v-24.26c0-5.41-.68-9.84-2.03-13.29-1.35-3.44-3-5.98-4.93-7.6-1.94-1.62-3.91-2.44-5.92-2.44-1.32,0-2.3,.37-2.96,1.1-.66,.74-.99,1.64-.99,2.73,0,1.39,.39,2.81,1.16,4.24,.77,1.43,2.05,3.19,3.83,5.28,.62,.77,1.28,1.57,1.97,2.38s1.35,1.64,1.97,2.5c.15,.08,.23,.14,.23,.17s.04,.1,.12,.17c1.16,1.39,2.17,2.9,3.02,4.53,.85,1.62,1.53,3.42,2.03,5.4,.5,1.97,.75,4.2,.75,6.67s-.54,4.72-1.62,6.96c-1.08,2.25-2.79,4.06-5.11,5.45s-5.18,2.09-8.59,2.09Zm7.78-5.34c1.86,0,3.33-.89,4.41-2.67,1.08-1.78,1.62-4.14,1.62-7.08s-.48-5.69-1.45-8.47c-.97-2.79-2.3-5.09-4-6.91-1.7-1.82-3.6-2.73-5.69-2.73-1.08,0-2.01,.37-2.79,1.1-.77,.74-1.38,1.78-1.8,3.13-.43,1.35-.64,3.08-.64,5.16,0,3.17,.52,6.19,1.57,9.05,1.04,2.86,2.38,5.15,4,6.85,1.62,1.7,3.21,2.55,4.76,2.55Z"/>
        <path class="cls-11" d="M667.03,152.18c-2.94,0-5.4-.95-7.37-2.84-1.97-1.9-2.96-4.12-2.96-6.67s.99-4.76,2.96-6.62c1.97-1.86,4.43-2.79,7.37-2.79,2.63,0,4.91,.93,6.85,2.79,1.93,1.86,2.9,4.06,2.9,6.62s-.99,4.78-2.96,6.67c-1.97,1.9-4.24,2.84-6.79,2.84Zm-9.63,53.73v-49.21h18.57v49.21h-18.57Z"/>
        <path class="cls-11" d="M700.91,205.45v-73.11h18.57v46.89h.23c2.09-3.95,4.97-7.81,8.65-11.61,3.67-3.79,7.52-6.89,11.55-9.28,4.02-2.4,7.78-3.6,11.26-3.6v11.72c-4.41-.77-8.86-.46-13.35,.93-2.48,.77-4.86,1.8-7.14,3.08-2.28,1.28-4.2,2.73-5.74,4.35l-.12,.35c2.71-1.39,5.18-2.09,7.43-2.09,2.55,0,4.87,1.06,6.96,3.19,2.09,2.13,3.85,4.62,5.28,7.49,1.43,2.86,3.08,6.54,4.93,11.03,.85,2.09,1.68,4.08,2.5,5.98,.81,1.9,1.6,3.46,2.38,4.7h-18.57c-.46-.85-.93-2.24-1.39-4.18-.46-1.93-.97-4.41-1.51-7.43-.7-3.02-1.39-5.84-2.09-8.47-.7-2.63-1.47-4.8-2.32-6.5-.85-1.7-1.78-2.55-2.79-2.55s-1.9,.35-2.67,1.04-1.45,1.57-2.03,2.61c-.58,1.04-1.03,2.15-1.33,3.31l-.12,.12v22.05h-18.57Z"/>
        <path class="cls-11" d="M768.69,152.18c-2.94,0-5.4-.95-7.37-2.84-1.97-1.9-2.96-4.12-2.96-6.67s.99-4.76,2.96-6.62c1.97-1.86,4.43-2.79,7.37-2.79,2.63,0,4.91,.93,6.85,2.79,1.93,1.86,2.9,4.06,2.9,6.62s-.99,4.78-2.96,6.67c-1.97,1.9-4.24,2.84-6.79,2.84Zm-9.63,53.73v-49.21h18.57v49.21h-18.57Z"/>
        <path class="cls-11" d="M784.24,205.92v-49.21h18.57v8.7h.23c1.7-3.33,4.14-5.96,7.31-7.89,3.17-1.93,6.46-2.9,9.86-2.9,3.02,0,5.8,.66,8.36,1.97,2.55,1.32,4.6,3.29,6.15,5.92,1.55,2.63,2.32,5.8,2.32,9.52v33.42h-18.57v-35.05c0-3.02-.64-5.4-1.92-7.14s-2.88-2.61-4.82-2.61c-1.16,0-2.38,.43-3.66,1.28-1.28,.85-2.4,2.05-3.37,3.6-.97,1.55-1.61,3.41-1.92,5.57v34.82h-18.57Z"/>
        <path class="cls-11" d="M870.35,207.31c-5.11,0-9.87-1.1-14.27-3.31-4.41-2.21-7.97-5.38-10.68-9.52-2.71-4.14-4.06-8.95-4.06-14.45s1.39-9.94,4.18-13.81c2.79-3.87,6.38-6.79,10.79-8.76,4.41-1.97,9.09-2.96,14.04-2.96s9.63,1.01,14.04,3.02c4.41,2.01,7.99,4.99,10.74,8.94,2.75,3.95,4.12,8.63,4.12,14.04,0,5.73-1.33,10.62-4,14.68-2.67,4.06-6.21,7.1-10.62,9.11-4.41,2.01-9.17,3.02-14.27,3.02Zm3.95-2.09c2.17,0,3.83-1.08,4.99-3.25,1.16-2.17,1.86-5.01,2.09-8.53,.23-3.52,.04-7.45-.58-11.78-.54-4.56-1.49-8.72-2.84-12.48-1.35-3.75-3.02-6.77-4.99-9.05-1.97-2.28-4.12-3.42-6.44-3.42-2.17,0-3.85,1.12-5.05,3.37-1.2,2.24-1.92,5.2-2.15,8.88-.23,3.68-.08,7.68,.46,12.01,.54,4.26,1.49,8.26,2.84,12.01,1.35,3.75,3.04,6.73,5.05,8.94,2.01,2.21,4.22,3.31,6.61,3.31Z"/>
      </g>
      <g>
        <path class="cls-17" d="M198.79,201.3c-3.17,0-6.27-.25-9.28-.75-3.02-.5-5.84-1.22-8.47-2.15l1.86-13.35c3.95,3.1,8.55,5.57,13.81,7.43,5.26,1.86,10.02,2.79,14.27,2.79,3.87,0,6.98-.77,9.34-2.32,2.36-1.55,3.54-3.79,3.54-6.73,0-2.24-.87-4.45-2.61-6.61-1.74-2.17-3.93-4.14-6.56-5.92-2.63-1.78-6.27-4.02-10.91-6.73-.08-.08-.16-.15-.23-.23-.08-.08-.23-.15-.46-.23-.39-.31-.75-.56-1.1-.75-.35-.19-.75-.41-1.22-.64-4.49-2.63-8.22-5.03-11.2-7.2-2.98-2.17-5.45-4.53-7.43-7.08-1.97-2.55-2.96-5.22-2.96-8.01,0-6.11,3.46-10.69,10.39-13.75,6.92-3.06,15.42-4.58,25.47-4.58,3.4,0,6.65,.14,9.75,.41,3.09,.27,6.04,.72,8.82,1.33l-1.74,13.35c-3.17-2.24-6.56-4.24-10.15-5.98s-7.1-3.11-10.5-4.12c-3.41-1-6.42-1.51-9.05-1.51-3.02,0-5.44,.48-7.25,1.45-1.82,.97-2.73,2.42-2.73,4.35,0,1.32,.75,2.73,2.26,4.24,1.51,1.51,3.48,3.02,5.92,4.53,2.44,1.51,5.43,3.23,8.99,5.16,.54,.31,1.04,.62,1.51,.93,.46,.31,.97,.58,1.51,.81,.15,.08,.29,.14,.41,.17,.12,.04,.25,.1,.41,.17,4.64,2.55,8.47,4.84,11.49,6.85,3.02,2.01,5.59,4.57,7.72,7.66,2.13,3.1,3.19,6.65,3.19,10.68,0,5.49-1.74,10.23-5.22,14.22-3.48,3.99-8.05,7-13.69,9.05-5.65,2.05-11.61,3.08-17.87,3.08Z"/>
        <path class="cls-17" d="M277.36,200.95c-7.89,0-14.7-1.74-20.43-5.22-5.73-3.48-10.12-8.18-13.17-14.1-3.06-5.92-4.58-12.55-4.58-19.9,0-7.89,1.47-14.6,4.41-20.14,2.94-5.53,7.2-9.73,12.77-12.59,5.57-2.86,12.3-4.29,20.19-4.29,2.94,0,6.25,.14,9.92,.41,3.67,.27,6.98,.64,9.92,1.1l-2.55,13.35c-3.02-4.02-5.98-7.04-8.88-9.05-2.9-2.01-5.71-3.02-8.41-3.02-3.33,0-6.27,1.33-8.82,4-2.55,2.67-4.55,6.5-5.98,11.49-1.43,4.99-2.15,10.89-2.15,17.7,0,7.66,.81,14.33,2.44,20.02,1.62,5.69,3.89,10.02,6.79,13,2.9,2.98,6.13,4.47,9.69,4.47,3.17,0,6.46-1.2,9.86-3.6,3.4-2.4,6.62-5.72,9.63-9.98l2.55,13.35c-3.48,1.01-7.37,1.76-11.66,2.26-4.29,.5-8.14,.75-11.55,.75Z"/>
        <path class="cls-17" d="M324.24,199.79v-49.21h18.57v7.89h.23c1.93-3.17,4.45-5.61,7.54-7.31,3.09-1.7,6.3-2.55,9.63-2.55,3.95,0,7.41,1.1,10.39,3.31,2.98,2.21,4.89,5.4,5.75,9.57h.23c1.93-4.02,4.58-7.18,7.95-9.46,3.37-2.28,6.98-3.42,10.85-3.42,2.94,0,5.67,.66,8.18,1.97,2.51,1.32,4.53,3.27,6.03,5.86,1.51,2.59,2.26,5.74,2.26,9.46v33.42h-18.57v-35.05c0-3.09-.62-5.49-1.86-7.2-1.24-1.7-2.79-2.55-4.64-2.55-1.62,0-3.21,.62-4.76,1.86-1.55,1.24-2.81,2.94-3.77,5.11-.97,2.17-1.45,4.64-1.45,7.43v30.41h-18.57v-34.93c0-3.17-.7-5.59-2.09-7.25-1.39-1.66-3.1-2.5-5.11-2.5-1.32,0-2.61,.52-3.89,1.57s-2.32,2.44-3.13,4.18-1.22,3.62-1.22,5.63v33.77h-18.57Z"/>
        <path class="cls-17" d="M446.56,201.53c-6.58,0-12.13-1.18-16.65-3.54-4.53-2.36-7.95-5.53-10.27-9.52-2.32-3.98-3.48-8.61-3.48-13.87,0-4.95,1.1-9.4,3.31-13.35s5.47-7.04,9.81-9.28c4.33-2.24,9.59-3.37,15.78-3.37,4.72,0,8.74,.5,12.07,1.51,3.33,1.01,5.84,2.46,7.54,4.35,1.7,1.9,2.55,4.16,2.55,6.79-.08,2.79-1.24,5.16-3.48,7.14-2.25,1.97-5.11,3.46-8.59,4.47-3.48,1.01-7.12,1.51-10.91,1.51v.12c3.64,.39,7.1,1.08,10.39,2.09,3.29,1.01,6.01,2.42,8.18,4.24,2.17,1.82,3.25,4.08,3.25,6.79,0,2.86-.93,5.34-2.79,7.43-1.86,2.09-4.29,3.7-7.31,4.82-3.02,1.12-6.15,1.68-9.4,1.68Zm6.38-4.18c3.33,0,6.11-.87,8.36-2.61,2.24-1.74,3.37-4.08,3.37-7.02,0-3.17-1.74-5.72-5.22-7.66-3.48-1.93-7.43-3.31-11.84-4.12-4.41-.81-8.43-1.37-12.07-1.68h-.7c-.16,0-.35-.04-.58-.12-.08,4.8,.77,8.96,2.55,12.48,1.78,3.52,4.1,6.19,6.96,8.01,2.86,1.82,5.92,2.73,9.17,2.73Zm-12.19-24.14c2.4,0,4.62-.71,6.67-2.15,2.05-1.43,3.67-3.37,4.87-5.8,1.2-2.44,1.8-5.09,1.8-7.95,0-1.47-.19-2.71-.58-3.71-.39-1-.95-1.76-1.68-2.26-.74-.5-1.68-.75-2.84-.75-2.01,0-4.14,.85-6.38,2.55-2.24,1.7-4.14,4.22-5.69,7.54-1.55,3.33-2.4,7.24-2.55,11.72,.62,.16,1.66,.35,3.13,.58,1.16,.16,2.24,.23,3.25,.23Z"/>
        <path class="cls-17" d="M471.63,199.79v-49.21h18.57v8.7h.23c1.7-3.33,4.14-5.96,7.31-7.89,3.17-1.93,6.46-2.9,9.86-2.9,3.02,0,5.8,.66,8.36,1.97,2.55,1.32,4.6,3.29,6.15,5.92,1.55,2.63,2.32,5.8,2.32,9.52v33.42h-18.57v-35.05c0-3.02-.64-5.4-1.92-7.14s-2.88-2.61-4.82-2.61c-1.16,0-2.38,.43-3.66,1.28-1.28,.85-2.4,2.05-3.37,3.6-.97,1.55-1.61,3.41-1.92,5.57v34.82h-18.57Z"/>
        <path class="cls-17" d="M578.63,199.33l-48.05-.12,27.62-46.42h-3.71c-3.64,0-7.62,1.06-11.95,3.19-4.33,2.13-7.97,4.58-10.91,7.37v-12.77h46.31l-27.04,46.65h6.27c3.09,0,6.63-1.1,10.62-3.31,3.98-2.21,7.56-5.09,10.73-8.65l.12,14.04Z"/>
        <path class="cls-17" d="M602.31,201.41c-4.26,0-7.93-.99-11.03-2.96-3.1-1.97-5.42-4.51-6.96-7.6-1.55-3.09-2.32-6.34-2.32-9.75,0-3.02,.64-5.78,1.92-8.3,1.28-2.51,3.15-4.51,5.63-5.98,2.48-1.47,5.38-2.21,8.7-2.21,1.78,0,3.56,.29,5.34,.87,1.78,.58,3.4,1.45,4.87,2.61l.12-.12c-.54-.46-1.01-.95-1.39-1.45-.39-.5-.81-.99-1.28-1.45-1.62-2.01-2.83-3.69-3.6-5.05-.77-1.35-1.16-2.8-1.16-4.35,0-2.32,.93-4.08,2.79-5.28,1.86-1.2,4.25-1.8,7.2-1.8,4.02,0,8.1,1.06,12.24,3.19,4.14,2.13,7.62,5.36,10.45,9.69,2.82,4.33,4.24,9.63,4.24,15.9v21.93h-18.68v-24.26c0-5.41-.68-9.84-2.03-13.29-1.35-3.44-3-5.98-4.93-7.6-1.94-1.62-3.91-2.44-5.92-2.44-1.32,0-2.3,.37-2.96,1.1-.66,.74-.99,1.64-.99,2.73,0,1.39,.39,2.81,1.16,4.24,.77,1.43,2.05,3.19,3.83,5.28,.62,.77,1.28,1.57,1.97,2.38s1.35,1.64,1.97,2.5c.15,.08,.23,.14,.23,.17s.04,.1,.12,.17c1.16,1.39,2.17,2.9,3.02,4.53,.85,1.62,1.53,3.42,2.03,5.4,.5,1.97,.75,4.2,.75,6.67s-.54,4.72-1.62,6.96c-1.08,2.25-2.79,4.06-5.11,5.45s-5.18,2.09-8.59,2.09Zm7.78-5.34c1.86,0,3.33-.89,4.41-2.67,1.08-1.78,1.62-4.14,1.62-7.08s-.48-5.69-1.45-8.47c-.97-2.79-2.3-5.09-4-6.91-1.7-1.82-3.6-2.73-5.69-2.73-1.08,0-2.01,.37-2.79,1.1-.77,.74-1.38,1.78-1.8,3.13-.43,1.35-.64,3.08-.64,5.16,0,3.17,.52,6.19,1.57,9.05,1.04,2.86,2.38,5.15,4,6.85,1.62,1.7,3.21,2.55,4.76,2.55Z"/>
        <path class="cls-17" d="M671.94,146.06c-2.94,0-5.4-.95-7.37-2.84-1.97-1.9-2.96-4.12-2.96-6.67s.99-4.76,2.96-6.62c1.97-1.86,4.43-2.79,7.37-2.79,2.63,0,4.91,.93,6.85,2.79,1.93,1.86,2.9,4.06,2.9,6.62s-.99,4.78-2.96,6.67c-1.97,1.9-4.24,2.84-6.79,2.84Zm-9.63,53.73v-49.21h18.57v49.21h-18.57Z"/>
        <path class="cls-17" d="M705.83,199.33V126.21h18.57v46.89h.23c2.09-3.95,4.97-7.81,8.65-11.61,3.67-3.79,7.52-6.89,11.55-9.28,4.02-2.4,7.78-3.6,11.26-3.6v11.72c-4.41-.77-8.86-.46-13.35,.93-2.48,.77-4.86,1.8-7.14,3.08-2.28,1.28-4.2,2.73-5.74,4.35l-.12,.35c2.71-1.39,5.18-2.09,7.43-2.09,2.55,0,4.87,1.06,6.96,3.19,2.09,2.13,3.85,4.62,5.28,7.49,1.43,2.86,3.08,6.54,4.93,11.03,.85,2.09,1.68,4.08,2.5,5.98,.81,1.9,1.6,3.46,2.38,4.7h-18.57c-.46-.85-.93-2.24-1.39-4.18-.46-1.93-.97-4.41-1.51-7.43-.7-3.02-1.39-5.84-2.09-8.47-.7-2.63-1.47-4.8-2.32-6.5-.85-1.7-1.78-2.55-2.79-2.55s-1.9,.35-2.67,1.04-1.45,1.57-2.03,2.61c-.58,1.04-1.03,2.15-1.33,3.31l-.12,.12v22.05h-18.57Z"/>
        <path class="cls-17" d="M773.6,146.06c-2.94,0-5.4-.95-7.37-2.84-1.97-1.9-2.96-4.12-2.96-6.67s.99-4.76,2.96-6.62c1.97-1.86,4.43-2.79,7.37-2.79,2.63,0,4.91,.93,6.85,2.79,1.93,1.86,2.9,4.06,2.9,6.62s-.99,4.78-2.96,6.67c-1.97,1.9-4.24,2.84-6.79,2.84Zm-9.63,53.73v-49.21h18.57v49.21h-18.57Z"/>
        <path class="cls-17" d="M789.15,199.79v-49.21h18.57v8.7h.23c1.7-3.33,4.14-5.96,7.31-7.89,3.17-1.93,6.46-2.9,9.86-2.9,3.02,0,5.8,.66,8.36,1.97,2.55,1.32,4.6,3.29,6.15,5.92,1.55,2.63,2.32,5.8,2.32,9.52v33.42h-18.57v-35.05c0-3.02-.64-5.4-1.92-7.14s-2.88-2.61-4.82-2.61c-1.16,0-2.38,.43-3.66,1.28-1.28,.85-2.4,2.05-3.37,3.6-.97,1.55-1.61,3.41-1.92,5.57v34.82h-18.57Z"/>
        <path class="cls-17" d="M875.26,201.18c-5.11,0-9.87-1.1-14.27-3.31-4.41-2.21-7.97-5.38-10.68-9.52-2.71-4.14-4.06-8.95-4.06-14.45s1.39-9.94,4.18-13.81c2.79-3.87,6.38-6.79,10.79-8.76,4.41-1.97,9.09-2.96,14.04-2.96s9.63,1.01,14.04,3.02c4.41,2.01,7.99,4.99,10.74,8.94,2.75,3.95,4.12,8.63,4.12,14.04,0,5.73-1.33,10.62-4,14.68-2.67,4.06-6.21,7.1-10.62,9.11-4.41,2.01-9.17,3.02-14.27,3.02Zm3.95-2.09c2.17,0,3.83-1.08,4.99-3.25,1.16-2.17,1.86-5.01,2.09-8.53,.23-3.52,.04-7.45-.58-11.78-.54-4.56-1.49-8.72-2.84-12.48-1.35-3.75-3.02-6.77-4.99-9.05-1.97-2.28-4.12-3.42-6.44-3.42-2.17,0-3.85,1.12-5.05,3.37-1.2,2.24-1.92,5.2-2.15,8.88-.23,3.68-.08,7.68,.46,12.01,.54,4.26,1.49,8.26,2.84,12.01,1.35,3.75,3.04,6.73,5.05,8.94,2.01,2.21,4.22,3.31,6.61,3.31Z"/>
      </g>
    </g>
    <g/>
  </g>
  <g id="cet"/>
  <g id="pet"/>
</svg>