<?xml version="1.0" encoding="UTF-8"?>
<svg xmlns="http://www.w3.org/2000/svg" xmlns:xlink="http://www.w3.org/1999/xlink" viewBox="0 0 1080 1350">
  <defs>
    <style>
      .cls-1 {
        fill: #fff;
      }

      .cls-2 {
        fill: #4c6e51;
      }

      .cls-3 {
        fill: #0d395b;
      }

      .cls-4 {
        fill: #84bfdb;
      }

      .cls-5 {
        fill: #051b32;
      }

      .cls-6 {
        fill: #f7d33e;
      }

      .cls-7 {
        fill: #325041;
      }

      .cls-8 {
        fill: #004978;
      }

      .cls-9 {
        clip-path: url(#clippath);
      }

      .cls-10 {
        fill: #91d899;
      }

      .cls-11 {
        fill: none;
      }

      .cls-12 {
        fill: #a37b0a;
      }

      .cls-13 {
        fill: #c4e5f8;
      }
    </style>
    <clipPath id="clippath">
      <rect class="cls-11" x="-1136.28" y="106.81" width="1001.87" height="1250.04"/>
    </clipPath>
  </defs>
  <g id="prvi">
    <g id="Layer_2" data-name="Layer 2">
      <g id="Layer_10" data-name="Layer 10"/>
      <g id="stages"/>
      <g id="Layer_9" data-name="Layer 9"/>
    </g>
    <g id="shank"/>
    <g id="oznake"/>
  </g>
  <g id="drug"/>
  <g id="trec">
    <g class="cls-9">
      <g>
        <g>
          <polygon class="cls-5" points="-847.53 289.53 -847.53 783.46 -814.51 783.46 -814.51 1024.94 -608.9 1024.94 -608.9 1092.48 -563.21 1092.48 -563.21 1233.56 -415.29 1233.56 -415.29 1029.57 -70.1 1029.57 -70.1 1559.24 161.03 1559.24 161.03 1029.44 258.59 1029.44 258.59 1017.94 353.14 1017.94 353.14 858.35 257.09 858.35 257.09 761.07 350.14 761.07 350.14 454.62 237.58 454.62 237.58 687.25 170.04 687.25 170.04 342.06 -596.89 342.06 -596.89 288.95 -847.53 289.53"/>
          <path class="cls-3" d="M163.53,1561.74H-72.6v-529.67H-412.79v203.99h-152.92v-141.08h-45.69v-67.54h-205.62v-241.48h-33.02V287.03l255.64-.59v53.12H172.54v345.19h62.54v-232.63h117.56v311.45h-93.05v92.27h96.05v164.59h-94.55v11.51h-97.55v529.8Zm-231.13-5H158.53v-529.8h97.55v-11.51h94.55v-154.59h-96.05v-102.27h93.05V457.12h-107.56v232.63h-72.54V344.56H-599.39v-53.1l-245.64,.57v488.94h33.02v241.48h205.62v67.54h45.69v141.08h142.92v-203.99H-67.6v529.67Z"/>
        </g>
        <polygon class="cls-3" points="172.79 702.76 -599.89 702.76 -599.89 340.43 -594.89 340.43 -594.89 697.76 167.79 697.76 167.79 655.33 172.79 655.33 172.79 702.76"/>
      </g>
    </g>
    <g/>
    <g>
      <path class="cls-1" d="M718.49,886.79c-3.96,0-7.45-.39-10.47-1.16-3.02-.77-5.63-1.64-7.82-2.61v-48.13h20.94c5.13,0,9.02,.94,11.67,2.81,2.65,1.87,3.97,4.3,3.97,7.3,0,1.87-.56,3.64-1.68,5.29-1.12,1.66-2.7,3.01-4.73,4.05-2.03,1.04-4.36,1.54-6.98,1.48v.24c3.1,.05,5.94,.64,8.5,1.76,2.57,1.12,4.6,2.67,6.1,4.65,1.5,1.98,2.25,4.33,2.25,7.06,0,4.06-1.11,7.38-3.33,9.95-2.22,2.57-4.97,4.42-8.26,5.57-3.29,1.15-6.67,1.72-10.15,1.72Zm-1.92-31.36c2.73,0,4.79-.91,6.18-2.73,1.39-1.82,2.09-4.22,2.09-7.22,0-2.62-.6-4.8-1.8-6.54-1.2-1.74-3.12-2.61-5.74-2.61h-4.25v19.09h3.53Zm1.52,29.92c1.98,0,3.66-.71,5.05-2.13,1.39-1.42,2.43-3.27,3.13-5.57,.69-2.3,1.04-4.81,1.04-7.54s-.48-5.24-1.44-7.22c-.96-1.98-2.3-3.49-4.01-4.53-1.71-1.04-3.69-1.56-5.94-1.56h-2.89v27.11c1.82,.96,3.5,1.44,5.05,1.44Z"/>
      <path class="cls-1" d="M743.19,885.42v-33.69h12.83v12.99h.16c.91-2.46,2.04-4.69,3.41-6.7,1.36-2.01,2.89-3.64,4.57-4.89,1.68-1.26,3.52-1.94,5.49-2.04l.72,8.34c-2.3-.05-4.49,.2-6.58,.76s-3.89,1.64-5.41,3.25c-1.52,1.6-2.31,3.8-2.37,6.58v15.4h-12.83Z"/>
      <path class="cls-1" d="M785.3,886.79c-2.14,0-4.13-.44-5.98-1.32-1.84-.88-3.34-2.21-4.49-3.97-1.15-1.76-1.72-3.85-1.72-6.26v-23.5h12.83v23.9c0,2.14,.51,3.78,1.52,4.93,1.02,1.15,2.3,1.72,3.85,1.72,1.12,0,2.26-.49,3.41-1.48,1.15-.99,2.1-2.35,2.85-4.09,.75-1.74,1.12-3.65,1.12-5.74v-19.25h12.83v33.69h-12.83v-7.3h-.24c-1.18,2.83-2.97,4.99-5.37,6.46-2.41,1.47-5,2.21-7.78,2.21Z"/>
      <path class="cls-1" d="M834.07,886.79c-4.12,0-7.59-.86-10.43-2.57-2.83-1.71-4.97-3.98-6.42-6.82-1.44-2.83-2.17-5.94-2.17-9.3,0-3.58,.71-6.71,2.12-9.38,1.42-2.67,3.52-4.75,6.3-6.22,2.78-1.47,6.28-2.21,10.51-2.21,2.51,0,4.85,.12,7.02,.36,2.17,.24,4.08,.63,5.74,1.16l-.16,7.86c-1.92-2.51-3.78-4.46-5.58-5.86-1.79-1.39-3.44-2.09-4.93-2.09-2.57,0-4.57,1.34-6.02,4.01-1.44,2.67-2.17,6.26-2.17,10.75,0,4.01,.37,7.42,1.12,10.23,.75,2.81,1.79,4.93,3.13,6.38,1.34,1.44,2.83,2.17,4.49,2.17s3.27-.9,5.01-2.69c1.74-1.79,3.04-3.76,3.89-5.9l3.13,6.1c-2.14,1.34-4.4,2.34-6.78,3.01-2.38,.67-4.99,1-7.82,1Z"/>
      <path class="cls-1" d="M858.54,848.6c-2.03,0-3.73-.65-5.09-1.97-1.36-1.31-2.05-2.85-2.05-4.61s.68-3.29,2.05-4.57c1.36-1.28,3.06-1.92,5.09-1.92,1.82,0,3.39,.64,4.73,1.92,1.34,1.28,2,2.81,2,4.57s-.68,3.3-2.04,4.61c-1.36,1.31-2.93,1.97-4.69,1.97Zm-6.66,37.14v-34.01h12.83v34.01h-12.83Z"/>
      <path class="cls-1" d="M879.23,886.54c-1.98-.05-3.88-.21-5.7-.48-1.82-.27-3.34-.64-4.57-1.12l1.68-9.14c1.18,1.02,2.43,2.03,3.77,3.05,2.25,1.66,4.3,3.02,6.18,4.09,1.87,1.07,3.34,1.63,4.41,1.68,1.18-.05,2.11-.32,2.81-.8,.69-.48,1.04-1.2,1.04-2.17,0-1.02-.46-2.13-1.36-3.33-.91-1.2-2.09-2.42-3.53-3.65-1.44-1.23-3.29-2.67-5.53-4.33l-.24-.16c-.11-.05-.21-.12-.32-.2-.11-.08-.21-.15-.32-.2-3.1-2.35-5.33-4.24-6.7-5.66-1.36-1.42-2.05-2.95-2.05-4.61-.05-2.94,1.64-5.2,5.09-6.78,3.45-1.58,7.58-2.37,12.39-2.37,1.76,0,3.56,.12,5.38,.36,1.82,.24,3.48,.6,4.97,1.08l-1.52,9.14c-1.07-1.34-2.47-2.71-4.21-4.13-1.74-1.42-3.5-2.59-5.29-3.53-1.79-.94-3.2-1.4-4.21-1.4-.91,0-1.68,.17-2.33,.52-.64,.35-.96,.87-.96,1.56,0,.86,.75,1.98,2.25,3.37s3.69,3.16,6.58,5.29l1.2,.8,.32,.24c2.3,1.6,4.09,2.96,5.37,4.05,1.28,1.1,2.34,2.29,3.17,3.57,.83,1.28,1.24,2.62,1.24,4.01,0,2.57-.92,4.69-2.77,6.38-1.84,1.68-4.21,2.92-7.1,3.69s-5.94,1.16-9.14,1.16Z"/>
      <path class="cls-1" d="M918.21,886.79c-4.6,0-8.32-.96-11.15-2.89-2.83-1.92-4.25-4.76-4.25-8.5v-22.22h-3.85v-1.44h2.09c2.3,0,4.46-.79,6.5-2.37,2.03-1.58,3.66-3.64,4.89-6.18,1.23-2.54,1.84-5.31,1.84-8.3h1.36v16.84h10.11v1.44h-10.11v26.47c0,1.76,.27,3.09,.8,3.97,.53,.88,1.28,1.32,2.25,1.32,1.07,0,2.31-.64,3.73-1.92,1.42-1.28,2.85-3.13,4.29-5.54l2.09,7.94c-3.69,.91-7.22,1.36-10.59,1.36Z"/>
      <path class="cls-1" d="M943.08,886.87c-2.94,0-5.48-.68-7.62-2.04-2.14-1.36-3.74-3.11-4.81-5.25-1.07-2.14-1.6-4.38-1.6-6.74,0-2.08,.44-4,1.32-5.74,.88-1.74,2.18-3.11,3.89-4.13,1.71-1.01,3.72-1.52,6.02-1.52,1.23,0,2.46,.2,3.69,.6,1.23,.4,2.35,1,3.37,1.8l.08-.08c-.37-.32-.7-.65-.96-1-.27-.35-.56-.68-.88-1-1.12-1.39-1.95-2.55-2.49-3.49-.54-.93-.8-1.94-.8-3.01,0-1.6,.64-2.82,1.92-3.65s2.94-1.24,4.97-1.24c2.78,0,5.6,.74,8.46,2.21,2.86,1.47,5.27,3.7,7.22,6.7,1.95,3,2.93,6.66,2.93,10.99v15.16h-12.91v-16.76c0-3.74-.47-6.8-1.4-9.18-.94-2.38-2.07-4.13-3.41-5.25-1.34-1.12-2.7-1.68-4.09-1.68-.91,0-1.59,.25-2.05,.76-.45,.51-.68,1.14-.68,1.88,0,.96,.27,1.94,.8,2.93,.53,.99,1.42,2.21,2.65,3.65,.43,.54,.88,1.08,1.36,1.64,.48,.56,.93,1.14,1.36,1.72,.11,.05,.16,.09,.16,.12s.03,.07,.08,.12c.8,.96,1.5,2.01,2.09,3.13,.59,1.12,1.05,2.37,1.4,3.73,.35,1.36,.52,2.9,.52,4.61s-.38,3.26-1.12,4.81c-.75,1.55-1.92,2.81-3.53,3.77s-3.58,1.44-5.94,1.44Zm5.37-3.69c1.28,0,2.3-.61,3.05-1.84,.75-1.23,1.12-2.86,1.12-4.89s-.33-3.93-1-5.86c-.67-1.92-1.59-3.52-2.77-4.77-1.18-1.26-2.49-1.88-3.93-1.88-.75,0-1.39,.25-1.92,.76-.54,.51-.95,1.23-1.24,2.17-.29,.94-.44,2.13-.44,3.57,0,2.19,.36,4.28,1.08,6.26,.72,1.98,1.64,3.56,2.77,4.73,1.12,1.18,2.22,1.76,3.29,1.76Z"/>
      <path class="cls-1" d="M971.55,885.42v-33.69h12.83v12.99h.16c.91-2.46,2.04-4.69,3.41-6.7,1.36-2.01,2.89-3.64,4.57-4.89,1.68-1.26,3.52-1.94,5.49-2.04l.72,8.34c-2.3-.05-4.49,.2-6.58,.76s-3.89,1.64-5.41,3.25c-1.52,1.6-2.31,3.8-2.37,6.58v15.4h-12.83Z"/>
      <path class="cls-1" d="M780.49,967.56v-50.53h12.83v32.41h.16c1.44-2.73,3.44-5.4,5.98-8.02,2.54-2.62,5.2-4.76,7.98-6.42,2.78-1.66,5.37-2.49,7.78-2.49v8.1c-3.05-.53-6.12-.32-9.22,.64-1.71,.54-3.36,1.24-4.93,2.12-1.58,.88-2.9,1.89-3.97,3.01l-.08,.24c1.87-.96,3.58-1.44,5.13-1.44,1.76,0,3.37,.74,4.81,2.21,1.44,1.47,2.66,3.2,3.65,5.17,.99,1.98,2.13,4.52,3.41,7.62,.59,1.44,1.16,2.82,1.72,4.13,.56,1.31,1.11,2.39,1.64,3.25h-12.83c-.32-.59-.64-1.55-.96-2.89-.32-1.34-.67-3.05-1.04-5.13-.48-2.08-.96-4.04-1.44-5.86-.48-1.82-1.02-3.32-1.6-4.49-.59-1.17-1.23-1.76-1.92-1.76s-1.31,.24-1.84,.72c-.54,.48-1,1.08-1.4,1.8-.4,.72-.71,1.48-.92,2.29l-.08,.08v15.24h-12.83Z"/>
      <path class="cls-1" d="M827.33,930.75c-2.03,0-3.73-.65-5.09-1.97-1.36-1.31-2.05-2.85-2.05-4.61s.68-3.29,2.05-4.57c1.36-1.28,3.06-1.92,5.09-1.92,1.82,0,3.39,.64,4.73,1.92,1.34,1.28,2,2.81,2,4.57s-.68,3.3-2.04,4.61c-1.36,1.31-2.93,1.97-4.69,1.97Zm-6.66,37.14v-34.01h12.83v34.01h-12.83Z"/>
      <path class="cls-1" d="M838.08,967.88v-34.01h12.83v6.02h.16c1.18-2.3,2.86-4.12,5.05-5.45,2.19-1.34,4.46-2,6.82-2,2.09,0,4.01,.45,5.78,1.36,1.76,.91,3.18,2.27,4.25,4.09,1.07,1.82,1.6,4.01,1.6,6.58v23.1h-12.83v-24.22c0-2.08-.44-3.73-1.32-4.93-.88-1.2-1.99-1.8-3.33-1.8-.8,0-1.64,.29-2.53,.88-.88,.59-1.66,1.42-2.33,2.49-.67,1.07-1.11,2.35-1.32,3.85v24.06h-12.83Z"/>
      <path class="cls-1" d="M897.6,968.85c-3.53,0-6.82-.76-9.87-2.29-3.05-1.52-5.51-3.72-7.38-6.58-1.87-2.86-2.81-6.19-2.81-9.99s.96-6.87,2.89-9.55c1.92-2.67,4.41-4.69,7.46-6.06,3.05-1.36,6.28-2.05,9.71-2.05s6.66,.7,9.71,2.09c3.05,1.39,5.52,3.45,7.42,6.18,1.9,2.73,2.85,5.96,2.85,9.71,0,3.96-.92,7.34-2.77,10.15s-4.29,4.91-7.34,6.3c-3.05,1.39-6.34,2.08-9.87,2.08Zm2.73-1.44c1.5,0,2.65-.75,3.45-2.25,.8-1.5,1.28-3.46,1.44-5.9,.16-2.43,.03-5.15-.4-8.14-.38-3.16-1.03-6.03-1.97-8.62-.94-2.59-2.08-4.68-3.45-6.26-1.36-1.58-2.85-2.37-4.45-2.37-1.5,0-2.66,.78-3.49,2.33-.83,1.55-1.32,3.6-1.48,6.14s-.05,5.31,.32,8.3c.37,2.94,1.03,5.71,1.96,8.3,.93,2.59,2.1,4.65,3.49,6.18,1.39,1.52,2.91,2.29,4.57,2.29Z"/>
    </g>
    <g>
      <path class="cls-10" d="M720.02,885.25c-3.96,0-7.45-.39-10.47-1.16-3.02-.77-5.63-1.64-7.82-2.61v-48.13h20.94c5.13,0,9.02,.94,11.67,2.81,2.65,1.87,3.97,4.3,3.97,7.3,0,1.87-.56,3.64-1.68,5.29-1.12,1.66-2.7,3.01-4.73,4.05-2.03,1.04-4.36,1.54-6.98,1.48v.24c3.1,.05,5.94,.64,8.5,1.76,2.57,1.12,4.6,2.67,6.1,4.65,1.5,1.98,2.25,4.33,2.25,7.06,0,4.06-1.11,7.38-3.33,9.95-2.22,2.57-4.97,4.42-8.26,5.57-3.29,1.15-6.67,1.72-10.15,1.72Zm-1.92-31.36c2.73,0,4.79-.91,6.18-2.73,1.39-1.82,2.09-4.22,2.09-7.22,0-2.62-.6-4.8-1.8-6.54-1.2-1.74-3.12-2.61-5.74-2.61h-4.25v19.09h3.53Zm1.52,29.92c1.98,0,3.66-.71,5.05-2.13,1.39-1.42,2.43-3.27,3.13-5.57,.69-2.3,1.04-4.81,1.04-7.54s-.48-5.24-1.44-7.22c-.96-1.98-2.3-3.49-4.01-4.53-1.71-1.04-3.69-1.56-5.94-1.56h-2.89v27.11c1.82,.96,3.5,1.44,5.05,1.44Z"/>
      <path class="cls-10" d="M744.72,883.89v-33.69h12.83v12.99h.16c.91-2.46,2.04-4.69,3.41-6.7,1.36-2.01,2.89-3.64,4.57-4.89,1.68-1.26,3.52-1.94,5.49-2.04l.72,8.34c-2.3-.05-4.49,.2-6.58,.76s-3.89,1.64-5.41,3.25c-1.52,1.6-2.31,3.8-2.37,6.58v15.4h-12.83Z"/>
      <path class="cls-10" d="M786.83,885.25c-2.14,0-4.13-.44-5.98-1.32-1.84-.88-3.34-2.21-4.49-3.97-1.15-1.76-1.72-3.85-1.72-6.26v-23.5h12.83v23.9c0,2.14,.51,3.78,1.52,4.93,1.02,1.15,2.3,1.72,3.85,1.72,1.12,0,2.26-.49,3.41-1.48,1.15-.99,2.1-2.35,2.85-4.09,.75-1.74,1.12-3.65,1.12-5.74v-19.25h12.83v33.69h-12.83v-7.3h-.24c-1.18,2.83-2.97,4.99-5.37,6.46-2.41,1.47-5,2.21-7.78,2.21Z"/>
      <path class="cls-10" d="M835.6,885.25c-4.12,0-7.59-.86-10.43-2.57-2.83-1.71-4.97-3.98-6.42-6.82-1.44-2.83-2.17-5.94-2.17-9.3,0-3.58,.71-6.71,2.12-9.38,1.42-2.67,3.52-4.75,6.3-6.22,2.78-1.47,6.28-2.21,10.51-2.21,2.51,0,4.85,.12,7.02,.36,2.17,.24,4.08,.63,5.74,1.16l-.16,7.86c-1.92-2.51-3.78-4.46-5.58-5.86-1.79-1.39-3.44-2.09-4.93-2.09-2.57,0-4.57,1.34-6.02,4.01-1.44,2.67-2.17,6.26-2.17,10.75,0,4.01,.37,7.42,1.12,10.23,.75,2.81,1.79,4.93,3.13,6.38,1.34,1.44,2.83,2.17,4.49,2.17s3.27-.9,5.01-2.69c1.74-1.79,3.04-3.76,3.89-5.9l3.13,6.1c-2.14,1.34-4.4,2.34-6.78,3.01-2.38,.67-4.99,1-7.82,1Z"/>
      <path class="cls-10" d="M860.07,847.07c-2.03,0-3.73-.65-5.09-1.97-1.36-1.31-2.05-2.85-2.05-4.61s.68-3.29,2.05-4.57c1.36-1.28,3.06-1.92,5.09-1.92,1.82,0,3.39,.64,4.73,1.92,1.34,1.28,2,2.81,2,4.57s-.68,3.3-2.04,4.61c-1.36,1.31-2.93,1.97-4.69,1.97Zm-6.66,37.14v-34.01h12.83v34.01h-12.83Z"/>
      <path class="cls-10" d="M880.76,885.01c-1.98-.05-3.88-.21-5.7-.48-1.82-.27-3.34-.64-4.57-1.12l1.68-9.14c1.18,1.02,2.43,2.03,3.77,3.05,2.25,1.66,4.3,3.02,6.18,4.09,1.87,1.07,3.34,1.63,4.41,1.68,1.18-.05,2.11-.32,2.81-.8,.69-.48,1.04-1.2,1.04-2.17,0-1.02-.46-2.13-1.36-3.33-.91-1.2-2.09-2.42-3.53-3.65-1.44-1.23-3.29-2.67-5.53-4.33l-.24-.16c-.11-.05-.21-.12-.32-.2-.11-.08-.21-.15-.32-.2-3.1-2.35-5.33-4.24-6.7-5.66-1.36-1.42-2.05-2.95-2.05-4.61-.05-2.94,1.64-5.2,5.09-6.78,3.45-1.58,7.58-2.37,12.39-2.37,1.76,0,3.56,.12,5.38,.36,1.82,.24,3.48,.6,4.97,1.08l-1.52,9.14c-1.07-1.34-2.47-2.71-4.21-4.13-1.74-1.42-3.5-2.59-5.29-3.53-1.79-.94-3.2-1.4-4.21-1.4-.91,0-1.68,.17-2.33,.52-.64,.35-.96,.87-.96,1.56,0,.86,.75,1.98,2.25,3.37s3.69,3.16,6.58,5.29l1.2,.8,.32,.24c2.3,1.6,4.09,2.96,5.37,4.05,1.28,1.1,2.34,2.29,3.17,3.57,.83,1.28,1.24,2.62,1.24,4.01,0,2.57-.92,4.69-2.77,6.38-1.84,1.68-4.21,2.92-7.1,3.69s-5.94,1.16-9.14,1.16Z"/>
      <path class="cls-10" d="M919.75,885.25c-4.6,0-8.32-.96-11.15-2.89-2.83-1.92-4.25-4.76-4.25-8.5v-22.22h-3.85v-1.44h2.09c2.3,0,4.46-.79,6.5-2.37,2.03-1.58,3.66-3.64,4.89-6.18,1.23-2.54,1.84-5.31,1.84-8.3h1.36v16.84h10.11v1.44h-10.11v26.47c0,1.76,.27,3.09,.8,3.97,.53,.88,1.28,1.32,2.25,1.32,1.07,0,2.31-.64,3.73-1.92,1.42-1.28,2.85-3.13,4.29-5.54l2.09,7.94c-3.69,.91-7.22,1.36-10.59,1.36Z"/>
      <path class="cls-10" d="M944.61,885.33c-2.94,0-5.48-.68-7.62-2.04-2.14-1.36-3.74-3.11-4.81-5.25-1.07-2.14-1.6-4.38-1.6-6.74,0-2.08,.44-4,1.32-5.74,.88-1.74,2.18-3.11,3.89-4.13,1.71-1.01,3.72-1.52,6.02-1.52,1.23,0,2.46,.2,3.69,.6,1.23,.4,2.35,1,3.37,1.8l.08-.08c-.37-.32-.7-.65-.96-1-.27-.35-.56-.68-.88-1-1.12-1.39-1.95-2.55-2.49-3.49-.54-.93-.8-1.94-.8-3.01,0-1.6,.64-2.82,1.92-3.65s2.94-1.24,4.97-1.24c2.78,0,5.6,.74,8.46,2.21,2.86,1.47,5.27,3.7,7.22,6.7,1.95,3,2.93,6.66,2.93,10.99v15.16h-12.91v-16.76c0-3.74-.47-6.8-1.4-9.18-.94-2.38-2.07-4.13-3.41-5.25-1.34-1.12-2.7-1.68-4.09-1.68-.91,0-1.59,.25-2.05,.76-.45,.51-.68,1.14-.68,1.88,0,.96,.27,1.94,.8,2.93,.53,.99,1.42,2.21,2.65,3.65,.43,.54,.88,1.08,1.36,1.64,.48,.56,.93,1.14,1.36,1.72,.11,.05,.16,.09,.16,.12s.03,.07,.08,.12c.8,.96,1.5,2.01,2.09,3.13,.59,1.12,1.05,2.37,1.4,3.73,.35,1.36,.52,2.9,.52,4.61s-.38,3.26-1.12,4.81c-.75,1.55-1.92,2.81-3.53,3.77s-3.58,1.44-5.94,1.44Zm5.37-3.69c1.28,0,2.3-.61,3.05-1.84,.75-1.23,1.12-2.86,1.12-4.89s-.33-3.93-1-5.86c-.67-1.92-1.59-3.52-2.77-4.77-1.18-1.26-2.49-1.88-3.93-1.88-.75,0-1.39,.25-1.92,.76-.54,.51-.95,1.23-1.24,2.17-.29,.94-.44,2.13-.44,3.57,0,2.19,.36,4.28,1.08,6.26,.72,1.98,1.64,3.56,2.77,4.73,1.12,1.18,2.22,1.76,3.29,1.76Z"/>
      <path class="cls-10" d="M973.09,883.89v-33.69h12.83v12.99h.16c.91-2.46,2.04-4.69,3.41-6.7,1.36-2.01,2.89-3.64,4.57-4.89,1.68-1.26,3.52-1.94,5.49-2.04l.72,8.34c-2.3-.05-4.49,.2-6.58,.76s-3.89,1.64-5.41,3.25c-1.52,1.6-2.31,3.8-2.37,6.58v15.4h-12.83Z"/>
      <path class="cls-10" d="M782.02,966.03v-50.53h12.83v32.41h.16c1.44-2.73,3.44-5.4,5.98-8.02,2.54-2.62,5.2-4.76,7.98-6.42,2.78-1.66,5.37-2.49,7.78-2.49v8.1c-3.05-.53-6.12-.32-9.22,.64-1.71,.54-3.36,1.24-4.93,2.12-1.58,.88-2.9,1.89-3.97,3.01l-.08,.24c1.87-.96,3.58-1.44,5.13-1.44,1.76,0,3.37,.74,4.81,2.21,1.44,1.47,2.66,3.2,3.65,5.17,.99,1.98,2.13,4.52,3.41,7.62,.59,1.44,1.16,2.82,1.72,4.13,.56,1.31,1.11,2.39,1.64,3.25h-12.83c-.32-.59-.64-1.55-.96-2.89-.32-1.34-.67-3.05-1.04-5.13-.48-2.08-.96-4.04-1.44-5.86-.48-1.82-1.02-3.32-1.6-4.49-.59-1.17-1.23-1.76-1.92-1.76s-1.31,.24-1.84,.72c-.54,.48-1,1.08-1.4,1.8-.4,.72-.71,1.48-.92,2.29l-.08,.08v15.24h-12.83Z"/>
      <path class="cls-10" d="M828.87,929.21c-2.03,0-3.73-.65-5.09-1.97-1.36-1.31-2.05-2.85-2.05-4.61s.68-3.29,2.05-4.57c1.36-1.28,3.06-1.92,5.09-1.92,1.82,0,3.39,.64,4.73,1.92,1.34,1.28,2,2.81,2,4.57s-.68,3.3-2.04,4.61c-1.36,1.31-2.93,1.97-4.69,1.97Zm-6.66,37.14v-34.01h12.83v34.01h-12.83Z"/>
      <path class="cls-10" d="M839.61,966.35v-34.01h12.83v6.02h.16c1.18-2.3,2.86-4.12,5.05-5.45,2.19-1.34,4.46-2,6.82-2,2.09,0,4.01,.45,5.78,1.36,1.76,.91,3.18,2.27,4.25,4.09,1.07,1.82,1.6,4.01,1.6,6.58v23.1h-12.83v-24.22c0-2.08-.44-3.73-1.32-4.93-.88-1.2-1.99-1.8-3.33-1.8-.8,0-1.64,.29-2.53,.88-.88,.59-1.66,1.42-2.33,2.49-.67,1.07-1.11,2.35-1.32,3.85v24.06h-12.83Z"/>
      <path class="cls-10" d="M899.13,967.32c-3.53,0-6.82-.76-9.87-2.29-3.05-1.52-5.51-3.72-7.38-6.58-1.87-2.86-2.81-6.19-2.81-9.99s.96-6.87,2.89-9.55c1.92-2.67,4.41-4.69,7.46-6.06,3.05-1.36,6.28-2.05,9.71-2.05s6.66,.7,9.71,2.09c3.05,1.39,5.52,3.45,7.42,6.18,1.9,2.73,2.85,5.96,2.85,9.71,0,3.96-.92,7.34-2.77,10.15s-4.29,4.91-7.34,6.3c-3.05,1.39-6.34,2.08-9.87,2.08Zm2.73-1.44c1.5,0,2.65-.75,3.45-2.25,.8-1.5,1.28-3.46,1.44-5.9,.16-2.43,.03-5.15-.4-8.14-.38-3.16-1.03-6.03-1.97-8.62-.94-2.59-2.08-4.68-3.45-6.26-1.36-1.58-2.85-2.37-4.45-2.37-1.5,0-2.66,.78-3.49,2.33-.83,1.55-1.32,3.6-1.48,6.14s-.05,5.31,.32,8.3c.37,2.94,1.03,5.71,1.96,8.3,.93,2.59,2.1,4.65,3.49,6.18,1.39,1.52,2.91,2.29,4.57,2.29Z"/>
    </g>
  </g>
  <g id="cet">
    <g>
      <g>
        <g>
          <path class="cls-5" d="M109.14,689.71h191.33v262.89h310.34V508.17H106.88s1.51,180.78,2.26,181.54Z"/>
          <path class="cls-3" d="M613.32,955.09H297.97v-262.89H108.11l-.73-.73q-.98-.98-1.4-30.42c-.22-15.09-.47-36.08-.74-62.38-.47-44.77-.84-90.04-.85-90.49l-.02-2.52h508.95v449.42Zm-310.34-5h305.34V510.67H109.41c.4,47.51,1.45,159.59,2.07,176.54h191.5v262.89Z"/>
        </g>
        <rect class="cls-3" x="296.71" y="687.96" width="316.37" height="5"/>
        <rect class="cls-3" x="461.43" y="510.68" width="5" height="177.27"/>
        <rect class="cls-3" x="160.63" y="511.69" width="5" height="176.26"/>
      </g>
      <g>
        <rect class="cls-5" x="728.14" y="515.33" width="247.07" height="288.5"/>
        <path class="cls-3" d="M977.71,806.33h-252.07v-293.5h252.07v293.5Zm-247.07-5h242.07v-283.5h-242.07v283.5Z"/>
      </g>
      <g>
        <rect class="cls-5" x="256.03" y="649.03" width="44.44" height="40.3"/>
        <path class="cls-3" d="M302.97,691.83h-49.44v-45.3h49.44v45.3Zm-44.44-5h39.44v-35.3h-39.44v35.3Z"/>
      </g>
      <rect class="cls-3" x="728.9" y="610.06" width="245.19" height="5"/>
    </g>
    <g>
      <rect class="cls-2" x="758.27" y="685.94" width="186.81" height="93.4"/>
      <path class="cls-7" d="M947.58,781.84h-191.81v-98.4h191.81v98.4Zm-186.81-5h181.81v-88.4h-181.81v88.4Z"/>
    </g>
    <rect class="cls-3" x="401.8" y="565.92" width="5" height="76.83"/>
    <g>
      <rect class="cls-6" x="403.92" y="615.87" width="60.01" height="69.3"/>
      <path class="cls-12" d="M466.43,687.67h-65.01v-74.3h65.01v74.3Zm-60.01-5h55.01v-64.3h-55.01v64.3Z"/>
    </g>
    <g>
      <rect class="cls-6" x="823.58" y="624.17" width="54.46" height="50.72"/>
      <path class="cls-12" d="M880.54,677.39h-59.46v-55.72h59.46v55.72Zm-54.46-5h49.46v-45.72h-49.46v45.72Z"/>
    </g>
    <g>
      <path class="cls-4" d="M185.51,749.04c-1.09-2.02,.51-3.75,5.28-8.89,12.58-13.55,45.99-49.53,29.58-103.72-12.52-41.34-5.18-89.32,33.07-101.04,13.7-4.2,49.87-13.66,89.69-10.84,40.82,2.89,71.17,17.66,90.19,43.89l-3.24,2.35c-49.22-67.88-162.69-35.49-175.47-31.58-35.74,10.96-42.35,56.62-30.41,96.06,17.08,56.39-17.47,93.6-30.47,107.61-2.1,2.26-4.27,4.6-4.56,5.32,.05-.12,.12-.57-.14-1.06l-3.52,1.91Z"/>
      <polygon class="cls-4" points="439.13 581.61 421.61 569.17 431 568.8 435.33 560.46 439.13 581.61"/>
    </g>
    <g>
      <g>
        <path class="cls-8" d="M299,197.75V124.64h18.57c2.55,4.1,4.88,8.24,6.96,12.42,2.09,4.18,3.87,8.2,5.34,12.07,1.47,3.87,2.71,7.7,3.71,11.49,.39,1.39,.75,2.75,1.1,4.06,.35,1.32,.68,2.63,.99,3.95h.23c.23-2.32,1-4.82,2.32-7.49,1.31-2.67,3.09-5.7,5.34-9.11l.23-.35c.7-1.16,1.41-2.34,2.15-3.54,.73-1.2,1.49-2.38,2.26-3.54,3.17-4.95,5.49-8.94,6.96-11.95,1.47-3.02,2.21-5.69,2.21-8.01h16.48v73.11h-18.57v-60.46h-.35c-1.39,2.63-2.96,5.32-4.7,8.07-1.74,2.75-3.5,5.63-5.28,8.65-1.62,2.63-2.98,5.03-4.06,7.2-1.08,2.17-1.96,4.33-2.61,6.5-.66,2.17-.99,4.26-.99,6.27,0,3.95,.7,7.95,2.09,12.01,1.39,4.06,3.4,7.99,6.04,11.78h-18.57c-.85-1.31-1.78-3.58-2.79-6.79-1.01-3.21-2.44-8.03-4.29-14.45-2.4-8.36-4.45-15.22-6.15-20.6-1.7-5.38-3.66-10.74-5.86-16.07s-4.47-9.55-6.79-12.65v70.56h-1.97Z"/>
        <path class="cls-8" d="M379.66,197.75V124.64h18.57c2.55,4.1,4.88,8.24,6.96,12.42,2.09,4.18,3.87,8.2,5.34,12.07,1.47,3.87,2.71,7.7,3.71,11.49,.39,1.39,.75,2.75,1.1,4.06,.35,1.32,.68,2.63,.99,3.95h.23c.23-2.32,1-4.82,2.32-7.49,1.31-2.67,3.09-5.7,5.34-9.11l.23-.35c.7-1.16,1.41-2.34,2.15-3.54,.73-1.2,1.49-2.38,2.26-3.54,3.17-4.95,5.49-8.94,6.96-11.95,1.47-3.02,2.21-5.69,2.21-8.01h16.48v73.11h-18.57v-60.46h-.35c-1.39,2.63-2.96,5.32-4.7,8.07-1.74,2.75-3.5,5.63-5.28,8.65-1.62,2.63-2.98,5.03-4.06,7.2-1.08,2.17-1.96,4.33-2.61,6.5-.66,2.17-.99,4.26-.99,6.27,0,3.95,.7,7.95,2.09,12.01,1.39,4.06,3.4,7.99,6.04,11.78h-18.57c-.85-1.31-1.78-3.58-2.79-6.79-1.01-3.21-2.44-8.03-4.29-14.45-2.4-8.36-4.45-15.22-6.15-20.6-1.7-5.38-3.66-10.74-5.86-16.07s-4.47-9.55-6.79-12.65v70.56h-1.97Z"/>
        <path class="cls-8" d="M505.46,199.73c-5.96,0-10.99-1.24-15.09-3.71-4.1-2.48-7.2-5.76-9.28-9.86-2.09-4.1-3.13-8.59-3.13-13.46,0-5.18,1.02-9.71,3.08-13.58,2.05-3.87,5.09-6.87,9.11-8.99,4.02-2.13,9.09-3.19,15.2-3.19,3.64,0,7.02,.17,10.16,.52,3.13,.35,5.9,.91,8.3,1.68l-.23,11.37c-2.79-3.64-5.47-6.46-8.07-8.47-2.59-2.01-4.97-3.02-7.14-3.02-3.71,0-6.62,1.93-8.7,5.8-2.09,3.87-3.13,9.05-3.13,15.55,0,5.8,.54,10.73,1.62,14.8,1.08,4.06,2.59,7.14,4.53,9.23,1.93,2.09,4.1,3.13,6.5,3.13s4.74-1.29,7.25-3.89c2.51-2.59,4.39-5.43,5.63-8.53l4.53,8.82c-3.1,1.93-6.37,3.39-9.81,4.35-3.44,.97-7.22,1.45-11.32,1.45Z"/>
        <path class="cls-8" d="M556.76,199.96c-6.58,0-12.13-1.18-16.65-3.54-4.53-2.36-7.95-5.53-10.27-9.52-2.32-3.98-3.48-8.61-3.48-13.87,0-4.95,1.1-9.4,3.31-13.35s5.47-7.04,9.81-9.28c4.33-2.24,9.59-3.37,15.78-3.37,4.72,0,8.74,.5,12.07,1.51,3.33,1.01,5.84,2.46,7.54,4.35,1.7,1.9,2.55,4.16,2.55,6.79-.08,2.79-1.24,5.16-3.48,7.14-2.25,1.97-5.11,3.46-8.59,4.47-3.48,1.01-7.12,1.51-10.91,1.51v.12c3.64,.39,7.1,1.08,10.39,2.09,3.29,1.01,6.01,2.42,8.18,4.24,2.17,1.82,3.25,4.08,3.25,6.79,0,2.86-.93,5.34-2.79,7.43-1.86,2.09-4.29,3.7-7.31,4.82-3.02,1.12-6.15,1.68-9.4,1.68Zm6.38-4.18c3.33,0,6.11-.87,8.36-2.61,2.24-1.74,3.37-4.08,3.37-7.02,0-3.17-1.74-5.72-5.22-7.66-3.48-1.93-7.43-3.31-11.84-4.12-4.41-.81-8.43-1.37-12.07-1.68h-.7c-.16,0-.35-.04-.58-.12-.08,4.8,.77,8.96,2.55,12.48,1.78,3.52,4.1,6.19,6.96,8.01,2.86,1.82,5.92,2.73,9.17,2.73Zm-12.19-24.14c2.4,0,4.62-.71,6.67-2.15,2.05-1.43,3.67-3.37,4.87-5.8,1.2-2.44,1.8-5.09,1.8-7.95,0-1.47-.19-2.71-.58-3.71-.39-1-.95-1.76-1.68-2.26-.74-.5-1.68-.75-2.84-.75-2.01,0-4.14,.85-6.38,2.55-2.24,1.7-4.14,4.22-5.69,7.54-1.55,3.33-2.4,7.24-2.55,11.72,.62,.16,1.66,.35,3.13,.58,1.16,.16,2.24,.23,3.25,.23Z"/>
        <path class="cls-8" d="M581.82,198.22v-49.21h18.57v8.7h.23c1.7-3.33,4.14-5.96,7.31-7.89,3.17-1.93,6.46-2.9,9.86-2.9,3.02,0,5.8,.66,8.36,1.97,2.55,1.32,4.6,3.29,6.15,5.92,1.55,2.63,2.32,5.8,2.32,9.52v33.42h-18.57v-35.05c0-3.02-.64-5.4-1.92-7.14s-2.88-2.61-4.82-2.61c-1.16,0-2.38,.43-3.66,1.28-1.28,.85-2.4,2.05-3.37,3.6-.97,1.55-1.61,3.41-1.92,5.57v34.82h-18.57Z"/>
        <path class="cls-8" d="M664.8,199.73c-6.66,0-12.03-1.39-16.13-4.18-4.1-2.79-6.15-6.89-6.15-12.3v-32.15h-5.57v-2.09h3.02c3.33,0,6.46-1.14,9.4-3.42,2.94-2.28,5.3-5.26,7.08-8.94,1.78-3.67,2.67-7.68,2.67-12.01h1.97v24.37h14.62v2.09h-14.62v38.3c0,2.55,.39,4.47,1.16,5.74,.77,1.28,1.86,1.92,3.25,1.92,1.55,0,3.35-.93,5.4-2.79,2.05-1.86,4.12-4.53,6.21-8.01l3.02,11.49c-5.34,1.31-10.45,1.97-15.32,1.97Z"/>
        <path class="cls-8" d="M700.78,199.84c-4.26,0-7.93-.99-11.03-2.96-3.1-1.97-5.42-4.51-6.96-7.6-1.55-3.09-2.32-6.34-2.32-9.75,0-3.02,.64-5.78,1.92-8.3,1.28-2.51,3.15-4.51,5.63-5.98,2.48-1.47,5.38-2.21,8.7-2.21,1.78,0,3.56,.29,5.34,.87,1.78,.58,3.4,1.45,4.87,2.61l.12-.12c-.54-.46-1.01-.95-1.39-1.45-.39-.5-.81-.99-1.28-1.45-1.62-2.01-2.83-3.69-3.6-5.05-.77-1.35-1.16-2.8-1.16-4.35,0-2.32,.93-4.08,2.79-5.28,1.86-1.2,4.25-1.8,7.2-1.8,4.02,0,8.1,1.06,12.24,3.19,4.14,2.13,7.62,5.36,10.45,9.69,2.82,4.33,4.24,9.63,4.24,15.9v21.93h-18.68v-24.26c0-5.41-.68-9.84-2.03-13.29-1.35-3.44-3-5.98-4.93-7.6-1.94-1.62-3.91-2.44-5.92-2.44-1.32,0-2.3,.37-2.96,1.1-.66,.74-.99,1.64-.99,2.73,0,1.39,.39,2.81,1.16,4.24,.77,1.43,2.05,3.19,3.83,5.28,.62,.77,1.28,1.57,1.97,2.38s1.35,1.64,1.97,2.5c.15,.08,.23,.14,.23,.17s.04,.1,.12,.17c1.16,1.39,2.17,2.9,3.02,4.53,.85,1.62,1.53,3.42,2.03,5.4,.5,1.97,.75,4.2,.75,6.67s-.54,4.72-1.62,6.96c-1.08,2.25-2.79,4.06-5.11,5.45s-5.18,2.09-8.59,2.09Zm7.78-5.34c1.86,0,3.33-.89,4.41-2.67,1.08-1.78,1.62-4.14,1.62-7.08s-.48-5.69-1.45-8.47c-.97-2.79-2.3-5.09-4-6.91-1.7-1.82-3.6-2.73-5.69-2.73-1.08,0-2.01,.37-2.79,1.1-.77,.74-1.38,1.78-1.8,3.13-.43,1.35-.64,3.08-.64,5.16,0,3.17,.52,6.19,1.57,9.05,1.04,2.86,2.38,5.15,4,6.85,1.62,1.7,3.21,2.55,4.76,2.55Z"/>
        <path class="cls-8" d="M741.98,197.75v-48.74h18.57v18.8h.23c1.31-3.56,2.96-6.79,4.93-9.69,1.97-2.9,4.18-5.26,6.62-7.08,2.44-1.82,5.09-2.8,7.95-2.96l1.04,12.07c-3.33-.08-6.5,.29-9.52,1.1s-5.63,2.38-7.83,4.7-3.35,5.49-3.42,9.52v22.28h-18.57Z"/>
      </g>
      <g>
        <path class="cls-13" d="M302.23,191.63V118.51h18.57c2.55,4.1,4.88,8.24,6.96,12.42,2.09,4.18,3.87,8.2,5.34,12.07,1.47,3.87,2.71,7.7,3.71,11.49,.39,1.39,.76,2.75,1.1,4.06,.35,1.32,.68,2.63,.99,3.95h.23c.23-2.32,1-4.82,2.32-7.49,1.31-2.67,3.09-5.7,5.34-9.11l.23-.35c.7-1.16,1.41-2.34,2.15-3.54,.73-1.2,1.49-2.38,2.26-3.54,3.17-4.95,5.49-8.94,6.96-11.95,1.47-3.02,2.21-5.69,2.21-8.01h16.48v73.11h-18.57v-60.46h-.35c-1.39,2.63-2.96,5.32-4.7,8.07-1.74,2.75-3.5,5.63-5.28,8.65-1.62,2.63-2.98,5.03-4.06,7.2-1.08,2.17-1.96,4.33-2.61,6.5-.66,2.17-.99,4.26-.99,6.27,0,3.95,.7,7.95,2.09,12.01,1.39,4.06,3.4,7.99,6.04,11.78h-18.57c-.85-1.31-1.78-3.58-2.79-6.79-1.01-3.21-2.44-8.03-4.29-14.45-2.4-8.36-4.45-15.22-6.15-20.6-1.7-5.38-3.66-10.74-5.86-16.07s-4.47-9.55-6.79-12.65v70.56h-1.97Z"/>
        <path class="cls-13" d="M382.89,191.63V118.51h18.57c2.55,4.1,4.88,8.24,6.96,12.42,2.09,4.18,3.87,8.2,5.34,12.07,1.47,3.87,2.71,7.7,3.71,11.49,.39,1.39,.75,2.75,1.1,4.06,.35,1.32,.68,2.63,.99,3.95h.23c.23-2.32,1.01-4.82,2.32-7.49,1.31-2.67,3.09-5.7,5.34-9.11l.23-.35c.7-1.16,1.41-2.34,2.15-3.54,.73-1.2,1.49-2.38,2.26-3.54,3.17-4.95,5.49-8.94,6.96-11.95,1.47-3.02,2.21-5.69,2.21-8.01h16.48v73.11h-18.57v-60.46h-.35c-1.39,2.63-2.96,5.32-4.7,8.07-1.74,2.75-3.5,5.63-5.28,8.65-1.62,2.63-2.98,5.03-4.06,7.2-1.08,2.17-1.96,4.33-2.61,6.5-.66,2.17-.99,4.26-.99,6.27,0,3.95,.7,7.95,2.09,12.01,1.39,4.06,3.4,7.99,6.04,11.78h-18.57c-.85-1.31-1.78-3.58-2.79-6.79-1.01-3.21-2.44-8.03-4.29-14.45-2.4-8.36-4.45-15.22-6.15-20.6-1.7-5.38-3.66-10.74-5.86-16.07s-4.47-9.55-6.79-12.65v70.56h-1.97Z"/>
        <path class="cls-13" d="M508.69,193.6c-5.96,0-10.99-1.24-15.09-3.71-4.1-2.48-7.2-5.76-9.29-9.86-2.09-4.1-3.13-8.59-3.13-13.46,0-5.18,1.02-9.71,3.07-13.58,2.05-3.87,5.09-6.87,9.11-8.99,4.02-2.13,9.09-3.19,15.2-3.19,3.63,0,7.02,.17,10.15,.52s5.9,.91,8.3,1.68l-.23,11.37c-2.79-3.64-5.47-6.46-8.07-8.47-2.59-2.01-4.97-3.02-7.14-3.02-3.71,0-6.62,1.93-8.71,5.8-2.09,3.87-3.13,9.05-3.13,15.55,0,5.8,.54,10.73,1.62,14.8,1.08,4.06,2.59,7.14,4.53,9.23,1.93,2.09,4.1,3.13,6.5,3.13s4.74-1.29,7.25-3.89c2.51-2.59,4.39-5.43,5.63-8.53l4.53,8.82c-3.1,1.93-6.37,3.39-9.81,4.35-3.44,.97-7.22,1.45-11.32,1.45Z"/>
        <path class="cls-13" d="M559.98,193.83c-6.58,0-12.13-1.18-16.65-3.54-4.53-2.36-7.95-5.53-10.27-9.52-2.32-3.98-3.48-8.61-3.48-13.87,0-4.95,1.1-9.4,3.31-13.35s5.47-7.04,9.81-9.28c4.33-2.24,9.59-3.37,15.78-3.37,4.72,0,8.74,.5,12.07,1.51,3.33,1.01,5.84,2.46,7.54,4.35,1.7,1.9,2.55,4.16,2.55,6.79-.08,2.79-1.24,5.16-3.48,7.14-2.24,1.97-5.11,3.46-8.59,4.47-3.48,1.01-7.12,1.51-10.91,1.51v.12c3.63,.39,7.1,1.08,10.39,2.09,3.29,1.01,6.01,2.42,8.18,4.24,2.17,1.82,3.25,4.08,3.25,6.79,0,2.86-.93,5.34-2.79,7.43-1.86,2.09-4.29,3.7-7.31,4.82-3.02,1.12-6.15,1.68-9.4,1.68Zm6.38-4.18c3.33,0,6.11-.87,8.36-2.61,2.24-1.74,3.37-4.08,3.37-7.02,0-3.17-1.74-5.72-5.22-7.66-3.48-1.93-7.43-3.31-11.84-4.12-4.41-.81-8.43-1.37-12.07-1.68h-.7c-.16,0-.35-.04-.58-.12-.08,4.8,.77,8.96,2.55,12.48,1.78,3.52,4.1,6.19,6.96,8.01,2.86,1.82,5.92,2.73,9.17,2.73Zm-12.19-24.14c2.4,0,4.62-.71,6.67-2.15,2.05-1.43,3.67-3.37,4.87-5.8s1.8-5.09,1.8-7.95c0-1.47-.19-2.71-.58-3.71-.39-1-.95-1.76-1.68-2.26-.74-.5-1.68-.75-2.84-.75-2.01,0-4.14,.85-6.38,2.55-2.24,1.7-4.14,4.22-5.69,7.54-1.55,3.33-2.4,7.24-2.55,11.72,.62,.16,1.66,.35,3.13,.58,1.16,.16,2.24,.23,3.25,.23Z"/>
        <path class="cls-13" d="M585.05,192.09v-49.21h18.57v8.7h.23c1.7-3.33,4.14-5.96,7.31-7.89,3.17-1.93,6.46-2.9,9.87-2.9,3.02,0,5.8,.66,8.36,1.97,2.55,1.32,4.6,3.29,6.15,5.92,1.55,2.63,2.32,5.8,2.32,9.52v33.42h-18.57v-35.05c0-3.02-.64-5.4-1.92-7.14-1.28-1.74-2.88-2.61-4.82-2.61-1.16,0-2.38,.43-3.66,1.28-1.28,.85-2.4,2.05-3.37,3.6-.97,1.55-1.61,3.41-1.91,5.57v34.82h-18.57Z"/>
        <path class="cls-13" d="M668.03,193.6c-6.66,0-12.03-1.39-16.13-4.18s-6.15-6.89-6.15-12.3v-32.15h-5.57v-2.09h3.02c3.33,0,6.46-1.14,9.4-3.42,2.94-2.28,5.3-5.26,7.08-8.94,1.78-3.67,2.67-7.68,2.67-12.01h1.97v24.37h14.62v2.09h-14.62v38.3c0,2.55,.39,4.47,1.16,5.74,.77,1.28,1.86,1.92,3.25,1.92,1.55,0,3.35-.93,5.4-2.79,2.05-1.86,4.12-4.53,6.21-8.01l3.02,11.49c-5.34,1.31-10.45,1.97-15.32,1.97Z"/>
        <path class="cls-13" d="M704,193.71c-4.26,0-7.93-.99-11.03-2.96-3.1-1.97-5.42-4.51-6.96-7.6-1.55-3.09-2.32-6.34-2.32-9.75,0-3.02,.64-5.78,1.91-8.3,1.28-2.51,3.15-4.51,5.63-5.98,2.47-1.47,5.38-2.21,8.7-2.21,1.78,0,3.56,.29,5.34,.87,1.78,.58,3.4,1.45,4.87,2.61l.12-.12c-.54-.46-1.01-.95-1.39-1.45-.39-.5-.81-.99-1.28-1.45-1.62-2.01-2.82-3.69-3.6-5.05-.77-1.35-1.16-2.8-1.16-4.35,0-2.32,.93-4.08,2.79-5.28,1.86-1.2,4.25-1.8,7.2-1.8,4.02,0,8.1,1.06,12.24,3.19,4.14,2.13,7.62,5.36,10.45,9.69,2.82,4.33,4.23,9.63,4.23,15.9v21.93h-18.68v-24.26c0-5.41-.68-9.84-2.03-13.29-1.36-3.44-3-5.98-4.93-7.6-1.94-1.62-3.91-2.44-5.92-2.44-1.32,0-2.3,.37-2.96,1.1-.66,.74-.99,1.64-.99,2.73,0,1.39,.39,2.81,1.16,4.24,.77,1.43,2.05,3.19,3.83,5.28,.62,.77,1.28,1.57,1.97,2.38,.7,.81,1.35,1.64,1.97,2.5,.15,.08,.23,.14,.23,.17s.04,.1,.12,.17c1.16,1.39,2.16,2.9,3.02,4.53,.85,1.62,1.53,3.42,2.03,5.4,.5,1.97,.76,4.2,.76,6.67s-.54,4.72-1.62,6.96c-1.09,2.25-2.79,4.06-5.11,5.45-2.32,1.39-5.18,2.09-8.59,2.09Zm7.78-5.34c1.86,0,3.33-.89,4.41-2.67,1.08-1.78,1.62-4.14,1.62-7.08s-.48-5.69-1.45-8.47c-.97-2.79-2.3-5.09-4-6.91-1.7-1.82-3.6-2.73-5.69-2.73-1.08,0-2.01,.37-2.79,1.1-.78,.74-1.38,1.78-1.8,3.13-.43,1.35-.64,3.08-.64,5.16,0,3.17,.52,6.19,1.57,9.05,1.04,2.86,2.38,5.15,4,6.85,1.62,1.7,3.21,2.55,4.76,2.55Z"/>
        <path class="cls-13" d="M745.2,191.63v-48.74h18.57v18.8h.23c1.31-3.56,2.96-6.79,4.93-9.69s4.18-5.26,6.62-7.08c2.44-1.82,5.09-2.8,7.95-2.96l1.04,12.07c-3.33-.08-6.5,.29-9.52,1.1s-5.63,2.38-7.83,4.7-3.35,5.49-3.42,9.52v22.28h-18.57Z"/>
      </g>
    </g>
    <g>
      <g>
        <rect class="cls-6" x="115.46" y="1001.39" width="59.86" height="31.2"/>
        <path class="cls-12" d="M177.82,1035.09H112.96v-36.2h64.86v36.2Zm-59.86-5h54.86v-26.2h-54.86v26.2Z"/>
      </g>
      <g>
        <path class="cls-1" d="M203.76,1031.47c-1.31,0-2.59-.1-3.84-.31s-2.42-.5-3.5-.89l.77-5.52c1.63,1.28,3.54,2.3,5.71,3.07,2.18,.77,4.14,1.15,5.9,1.15,1.6,0,2.89-.32,3.86-.96,.98-.64,1.46-1.57,1.46-2.78,0-.93-.36-1.84-1.08-2.74-.72-.9-1.62-1.71-2.71-2.45-1.09-.74-2.59-1.66-4.51-2.78-.03-.03-.06-.06-.1-.1-.03-.03-.1-.06-.19-.1-.16-.13-.31-.23-.46-.31-.14-.08-.31-.17-.5-.26-1.86-1.09-3.4-2.08-4.63-2.98-1.23-.9-2.26-1.87-3.07-2.93-.82-1.06-1.22-2.16-1.22-3.31,0-2.53,1.43-4.42,4.3-5.69,2.86-1.26,6.38-1.9,10.54-1.9,1.41,0,2.75,.06,4.03,.17,1.28,.11,2.5,.3,3.65,.55l-.72,5.52c-1.31-.93-2.71-1.75-4.2-2.47-1.49-.72-2.94-1.29-4.34-1.7-1.41-.42-2.66-.62-3.74-.62-1.25,0-2.25,.2-3,.6-.75,.4-1.13,1-1.13,1.8,0,.54,.31,1.13,.94,1.75s1.44,1.25,2.45,1.87c1.01,.62,2.25,1.34,3.72,2.14,.22,.13,.43,.26,.62,.38,.19,.13,.4,.24,.62,.34,.06,.03,.12,.06,.17,.07,.05,.02,.1,.04,.17,.07,1.92,1.06,3.5,2,4.75,2.83,1.25,.83,2.31,1.89,3.19,3.17,.88,1.28,1.32,2.75,1.32,4.42,0,2.27-.72,4.23-2.16,5.88-1.44,1.65-3.33,2.9-5.66,3.74s-4.8,1.27-7.39,1.27Z"/>
        <path class="cls-1" d="M230.74,1031.47c-2.75,0-4.98-.58-6.67-1.73s-2.54-2.85-2.54-5.09v-13.3h-2.3v-.86h1.25c1.38,0,2.67-.47,3.89-1.42,1.22-.94,2.19-2.18,2.93-3.7,.74-1.52,1.1-3.17,1.1-4.97h.82v10.08h6.05v.86h-6.05v15.84c0,1.06,.16,1.85,.48,2.38,.32,.53,.77,.79,1.34,.79,.64,0,1.38-.38,2.23-1.15,.85-.77,1.7-1.87,2.57-3.31l1.25,4.75c-2.21,.54-4.32,.82-6.34,.82Z"/>
        <path class="cls-1" d="M246.05,1031.47c-1.28,0-2.47-.26-3.58-.79-1.1-.53-2-1.32-2.69-2.38-.69-1.06-1.03-2.3-1.03-3.74v-14.06h7.68v14.3c0,1.28,.3,2.26,.91,2.95,.61,.69,1.38,1.03,2.3,1.03,.67,0,1.35-.3,2.04-.89,.69-.59,1.26-1.41,1.7-2.45,.45-1.04,.67-2.18,.67-3.43v-11.52h7.68v20.16h-7.68v-4.37h-.14c-.7,1.7-1.78,2.98-3.22,3.86-1.44,.88-2.99,1.32-4.66,1.32Z"/>
        <path class="cls-1" d="M274.18,1031.33c-1.63,0-3.28-.18-4.94-.55-1.66-.37-3.25-.9-4.75-1.61v-28.75h7.68v12.29c.67-.93,1.59-1.67,2.76-2.23s2.42-.84,3.77-.84,2.69,.35,3.94,1.06,2.26,1.78,3.05,3.22,1.18,3.25,1.18,5.42c0,2.72-.58,4.98-1.73,6.79-1.15,1.81-2.67,3.13-4.56,3.96-1.89,.83-4.02,1.25-6.38,1.25Zm0-.91c1.21,0,2.19-.46,2.93-1.39,.74-.93,1.25-2.13,1.56-3.6,.3-1.47,.47-3.15,.5-5.04v-.82c0-1.73-.18-3.17-.55-4.32-.37-1.15-.85-2.02-1.44-2.59-.59-.58-1.26-.86-1.99-.86-.54,0-1.08,.18-1.61,.55s-1,.9-1.42,1.61v15.89c.42,.16,.8,.3,1.15,.43,.16,.06,.3,.1,.43,.12,.13,.02,.27,.02,.43,.02Z"/>
        <path class="cls-1" d="M292.8,1008.62c-1.22,0-2.23-.39-3.05-1.18-.82-.78-1.22-1.7-1.22-2.76s.41-1.97,1.22-2.74c.82-.77,1.83-1.15,3.05-1.15,1.09,0,2.03,.38,2.83,1.15,.8,.77,1.2,1.68,1.2,2.74s-.41,1.98-1.22,2.76c-.82,.78-1.75,1.18-2.81,1.18Zm-3.98,22.22v-20.35h7.68v20.35h-7.68Z"/>
        <path class="cls-1" d="M305.18,1031.33c-1.18-.03-2.32-.13-3.41-.29-1.09-.16-2-.38-2.74-.67l1.01-5.47c.7,.61,1.46,1.22,2.26,1.82,1.34,.99,2.58,1.81,3.7,2.45,1.12,.64,2,.98,2.64,1.01,.7-.03,1.26-.19,1.68-.48,.42-.29,.62-.72,.62-1.3,0-.61-.27-1.27-.82-1.99-.54-.72-1.25-1.45-2.11-2.18-.86-.74-1.97-1.6-3.31-2.59l-.14-.1c-.06-.03-.13-.07-.19-.12-.06-.05-.13-.09-.19-.12-1.86-1.41-3.19-2.54-4.01-3.38-.82-.85-1.22-1.77-1.22-2.76-.03-1.76,.98-3.11,3.05-4.06,2.06-.94,4.54-1.42,7.42-1.42,1.06,0,2.13,.07,3.22,.22,1.09,.14,2.08,.36,2.98,.65l-.91,5.47c-.64-.8-1.48-1.62-2.52-2.47-1.04-.85-2.1-1.55-3.17-2.11-1.07-.56-1.91-.84-2.52-.84-.54,0-1.01,.1-1.39,.31s-.58,.52-.58,.94c0,.51,.45,1.18,1.34,2.02,.9,.83,2.21,1.89,3.94,3.17l.72,.48,.19,.14c1.38,.96,2.45,1.77,3.22,2.42,.77,.66,1.4,1.37,1.9,2.14,.5,.77,.74,1.57,.74,2.4,0,1.54-.55,2.81-1.66,3.82-1.1,1.01-2.52,1.75-4.25,2.21-1.73,.46-3.55,.7-5.47,.7Zm-1.87-23.23l-3.94-3.22,8.3-4.18,8.35,4.18-3.55,3.22-4.8-6.72-4.37,6.72Z"/>
        <path class="cls-1" d="M328.51,1031.47c-2.75,0-4.98-.58-6.67-1.73-1.7-1.15-2.54-2.85-2.54-5.09v-13.3h-2.3v-.86h1.25c1.38,0,2.67-.47,3.89-1.42,1.22-.94,2.19-2.18,2.93-3.7,.74-1.52,1.1-3.17,1.1-4.97h.82v10.08h6.05v.86h-6.05v15.84c0,1.06,.16,1.85,.48,2.38,.32,.53,.77,.79,1.34,.79,.64,0,1.38-.38,2.23-1.15,.85-.77,1.7-1.87,2.57-3.31l1.25,4.75c-2.21,.54-4.32,.82-6.34,.82Z"/>
        <path class="cls-1" d="M346.9,1031.57c-2.72,0-5.02-.49-6.89-1.46s-3.29-2.29-4.25-3.94c-.96-1.65-1.44-3.56-1.44-5.74,0-2.05,.46-3.89,1.37-5.52s2.26-2.91,4.06-3.84c1.79-.93,3.97-1.39,6.53-1.39,1.95,0,3.62,.21,4.99,.62,1.38,.42,2.42,1.02,3.12,1.8s1.06,1.72,1.06,2.81c-.03,1.15-.51,2.14-1.44,2.95-.93,.82-2.11,1.43-3.55,1.85-1.44,.42-2.94,.62-4.51,.62v.05c1.5,.16,2.94,.45,4.3,.86,1.36,.42,2.49,1,3.38,1.75,.9,.75,1.34,1.69,1.34,2.81,0,1.18-.38,2.21-1.15,3.07-.77,.86-1.78,1.53-3.02,1.99-1.25,.46-2.54,.7-3.89,.7Zm2.64-1.73c1.38,0,2.53-.36,3.46-1.08,.93-.72,1.39-1.69,1.39-2.9,0-1.31-.72-2.37-2.16-3.17-1.44-.8-3.07-1.37-4.9-1.7s-3.49-.57-4.99-.7h-.29c-.06,0-.14-.02-.24-.05-.03,1.98,.32,3.7,1.06,5.16,.74,1.46,1.7,2.56,2.88,3.31,1.18,.75,2.45,1.13,3.79,1.13Zm-5.04-9.98c.99,0,1.91-.3,2.76-.89,.85-.59,1.52-1.39,2.02-2.4,.5-1.01,.74-2.1,.74-3.29,0-.61-.08-1.12-.24-1.54-.16-.42-.39-.73-.7-.94-.3-.21-.7-.31-1.18-.31-.83,0-1.71,.35-2.64,1.06-.93,.7-1.71,1.74-2.35,3.12-.64,1.38-.99,2.99-1.06,4.85,.26,.06,.69,.14,1.3,.24,.48,.07,.93,.1,1.34,.1Z"/>
      </g>
    </g>
  </g>
  <g id="pet"/>
</svg>