<?xml version="1.0" encoding="UTF-8"?>
<svg xmlns="http://www.w3.org/2000/svg" viewBox="0 0 1080 1350">
  <defs>
    <style>
      .cls-1 {
        fill: #fff;
      }

      .cls-2 {
        fill: #f7d33c;
      }

      .cls-3 {
        fill: #0d395b;
      }

      .cls-4 {
        fill: #84bfdb;
      }

      .cls-5 {
        fill: #051b32;
      }

      .cls-6 {
        fill: #0293b9;
      }

      .cls-7 {
        fill: #e05f9a;
      }

      .cls-8 {
        fill: #00385b;
      }

      .cls-9 {
        fill: #c4e5f8;
      }
    </style>
  </defs>
  <g id="prvi">
    <g id="Layer_2" data-name="Layer 2">
      <g id="Layer_10" data-name="Layer 10"/>
      <g id="stages"/>
      <g id="Layer_9" data-name="Layer 9"/>
    </g>
    <g id="shank"/>
    <g id="oznake"/>
  </g>
  <g id="drug"/>
  <g id="trec"/>
  <g id="cet"/>
  <g id="pet">
    <g>
      <g>
        <polygon class="cls-5" points="785.26 255.91 824.06 255.91 824.06 922.81 700.49 922.81 700.49 672.6 624.91 672.6 465.6 788 465.6 1025.96 409.43 1025.96 409.43 969.79 353.26 969.79 224.57 790.04 569.77 543.91 785.26 255.91"/>
        <path class="cls-3" d="M468.1,1028.46h-61.17v-56.17h-54.96l-130.89-182.83,2.04-1.45,344.87-245.9,216.01-288.69h42.56V925.31h-128.57v-250.21h-72.26l-157.63,114.18v239.18Zm-56.17-5h51.17v-236.73l161.01-116.63h78.88v250.21h118.57V258.42h-35.06l-214.97,287.31-.32,.23-343.15,244.67,126.47,176.66h57.39v56.17Z"/>
      </g>
      <g>
        <line class="cls-5" x1="500.83" y1="596" x2="582.02" y2="703.74"/>
        <rect class="cls-3" x="538.93" y="582.42" width="5" height="134.91" transform="translate(-282.08 456.7) rotate(-37)"/>
      </g>
      <polygon class="cls-3" points="546.17 655.44 543.66 651.12 621.39 605.8 621.39 472 626.39 472 626.39 608.67 546.17 655.44"/>
      <rect class="cls-3" x="621.08" y="605.24" width="202.98" height="5"/>
      <polygon class="cls-3" points="824.06 674.58 735.27 674.58 735.27 607.06 740.27 607.06 740.27 669.58 824.06 669.58 824.06 674.58"/>
    </g>
    <g>
      <polygon class="cls-4" points="785.09 255.4 825.09 255.4 825.09 608.26 623.89 608.26 623.89 468.96 785.09 255.4"/>
      <path class="cls-6" d="M827.58,610.76h-206.19v-142.63l162.45-215.22h43.75v357.85Zm-201.19-5h196.19V257.9h-36.25l-159.94,211.89v135.96Z"/>
    </g>
    <g>
      <rect class="cls-4" x="700.49" y="672.85" width="125.11" height="249.96"/>
      <path class="cls-6" d="M828.1,925.31h-130.11v-254.96h130.11v254.96Zm-125.11-5h120.11v-244.96h-120.11v244.96Z"/>
    </g>
    <rect class="cls-2" x="773" y="821.7" width="45.45" height="93.96"/>
    <g>
      <path class="cls-1" d="M248.15,711.4c-2.1,1.43-4.26,2.66-6.48,3.69-2.22,1.03-4.41,1.83-6.57,2.4l-4.79-9.66c4,.27,8.17-.17,12.48-1.32,4.32-1.15,7.88-2.68,10.7-4.6,2.56-1.75,4.27-3.66,5.13-5.75,.86-2.09,.63-4.1-.7-6.05-1.01-1.48-2.58-2.55-4.71-3.2-2.13-.65-4.46-.96-7-.96-2.54,.01-5.96,.17-10.25,.47-.08-.01-.17-.03-.26-.05-.09-.02-.22,0-.41,.06-.4-.03-.75-.03-1.07,0-.32,.03-.68,.07-1.09,.13-4.15,.29-7.71,.38-10.65,.29-2.95-.09-5.65-.53-8.11-1.33-2.46-.8-4.31-2.12-5.57-3.96-2.76-4.04-2.54-8.63,.66-13.78,3.2-5.15,8.12-9.99,14.78-14.52,2.25-1.54,4.46-2.91,6.63-4.13,2.17-1.21,4.31-2.25,6.43-3.1l4.87,9.61c-3.11-.05-6.25,.16-9.41,.63s-6.1,1.14-8.8,2.01-4.93,1.9-6.67,3.09c-2,1.36-3.38,2.77-4.14,4.23-.77,1.46-.71,2.83,.16,4.11,.59,.87,1.73,1.46,3.41,1.78,1.68,.32,3.66,.42,5.96,.32,2.29-.1,5.05-.31,8.28-.64,.5-.04,.97-.06,1.42-.07,.45,0,.9-.05,1.36-.14,.14-.02,.25-.04,.35-.07,.09-.03,.21-.05,.35-.07,4.22-.41,7.78-.62,10.69-.65,2.9-.03,5.75,.5,8.56,1.58,2.8,1.09,5.11,2.96,6.93,5.62,2.48,3.63,3.47,7.55,2.96,11.76-.5,4.21-2.16,8.26-4.97,12.16-2.81,3.9-6.29,7.27-10.43,10.1Z"/>
      <path class="cls-1" d="M257.22,651.68c-1.95,1.33-4,1.81-6.16,1.44-2.16-.36-3.82-1.39-4.97-3.08-1.15-1.69-1.5-3.59-1.03-5.71,.47-2.12,1.67-3.84,3.62-5.17,1.74-1.19,3.67-1.6,5.78-1.25,2.12,.36,3.75,1.38,4.9,3.07,1.15,1.69,1.5,3.6,1.05,5.75-.45,2.14-1.52,3.79-3.21,4.94Zm17.87,39.88l-22.2-32.54,12.28-8.38,22.2,32.54-12.28,8.38Z"/>
      <path class="cls-1" d="M291.54,679.89l-32.98-48.35,12.28-8.38,32.98,48.35-12.28,8.38Z"/>
      <path class="cls-1" d="M328.29,656.95c-4.35,2.97-8.55,4.69-12.61,5.17-4.06,.48-7.75-.07-11.08-1.66-3.33-1.59-6.18-4.12-8.56-7.6-2.23-3.27-3.51-6.71-3.83-10.32-.32-3.6,.44-7.12,2.3-10.56,1.85-3.44,4.82-6.55,8.92-9.35,3.12-2.13,6.01-3.61,8.66-4.45,2.65-.84,4.97-1.01,6.95-.53,1.98,.49,3.56,1.6,4.75,3.34,1.21,1.88,1.51,3.97,.92,6.29-.59,2.32-1.81,4.59-3.66,6.83-1.85,2.24-4.03,4.21-6.53,5.92l.05,.08c2.58-1.38,5.18-2.49,7.81-3.31,2.63-.82,5.07-1.11,7.32-.89,2.25,.23,3.99,1.23,5.21,3.02,1.29,1.89,1.79,3.95,1.51,6.17-.29,2.22-1.17,4.38-2.66,6.48-1.49,2.1-3.31,3.89-5.46,5.35Zm-16.61-16.11c1.59-1.08,2.73-2.56,3.44-4.43,.71-1.87,.91-3.88,.61-6.04-.31-2.15-1.11-4.17-2.4-6.07-.66-.97-1.35-1.7-2.06-2.19-.71-.49-1.42-.73-2.13-.74-.71,0-1.45,.26-2.22,.78-1.33,.91-2.35,2.43-3.07,4.57-.71,2.14-.83,4.66-.36,7.55,.48,2.9,1.68,5.87,3.6,8.9,.48-.18,1.26-.52,2.33-1.03,.84-.42,1.59-.86,2.25-1.31Zm18.95,10.46c2.2-1.5,3.65-3.33,4.35-5.5,.7-2.16,.38-4.22-.94-6.16-1.43-2.1-3.73-3-6.91-2.71-3.18,.29-6.4,1.16-9.69,2.62-3.28,1.45-6.2,2.9-8.74,4.33-.21,.14-.36,.24-.46,.31s-.25,.13-.44,.18c2.11,3.21,4.55,5.57,7.32,7.1,2.76,1.53,5.5,2.24,8.22,2.15,2.71-.09,5.14-.87,7.29-2.33Z"/>
      <path class="cls-1" d="M344.08,644.49l-22.2-32.54,12.28-8.38,3.93,5.76,.15-.1c-.38-2.97,.05-5.81,1.27-8.52,1.22-2.71,2.96-4.83,5.21-6.37,2-1.36,4.13-2.18,6.42-2.47,2.28-.28,4.53,.1,6.74,1.14,2.21,1.04,4.15,2.79,5.83,5.25l15.08,22.1-12.28,8.38-15.81-23.18c-1.36-2-2.86-3.28-4.49-3.86-1.63-.57-3.08-.43-4.36,.45-.77,.52-1.38,1.36-1.84,2.49s-.66,2.44-.6,3.9c.06,1.46,.47,2.98,1.25,4.55l15.71,23.02-12.28,8.38Z"/>
      <path class="cls-1" d="M399.63,608.05c-4.4,3-8.58,4.51-12.55,4.52-3.97,0-7.17-1.78-9.62-5.36l-14.5-21.26-3.68,2.51-.94-1.38,2-1.36c2.2-1.5,3.76-3.67,4.67-6.5,.92-2.83,1.13-5.87,.65-9.1-.48-3.23-1.7-6.28-3.65-9.15l1.3-.89,11,16.12,9.67-6.6,.94,1.38-9.67,6.6,17.28,25.33c1.15,1.69,2.27,2.78,3.36,3.28,1.09,.5,2.09,.43,3.01-.2,1.02-.7,1.79-2.12,2.31-4.28,.52-2.15,.68-4.85,.49-8.1l7.18,6.24c-2.94,3.28-6.02,6.02-9.24,8.21Z"/>
      <path class="cls-1" d="M444.42,577.61c-3.79,2.58-7.63,4.25-11.54,5.01-3.91,.75-7.75,.34-11.53-1.24-3.78-1.58-7.15-4.55-10.12-8.9-2.37-3.48-3.71-6.84-4.01-10.08-.3-3.24,.17-6.15,1.41-8.72,1.24-2.57,3.09-4.7,5.55-6.37,1.84-1.26,3.86-2.17,6.06-2.73,2.2-.56,4.32-.68,6.35-.34l-12.72-18.65,12.35-8.43,31.57,46.27c-1.93,2.89-4.01,5.55-6.25,7.98-2.24,2.43-4.62,4.5-7.12,6.21Zm-.41-2.42c.46-.31,.87-.65,1.23-1,.36-.36,.67-.78,.94-1.26l-18.06-26.48c-2.29-.39-4.15-.09-5.58,.88-1.48,1.01-2.38,2.42-2.7,4.2-.32,1.79-.11,3.79,.61,6,.72,2.21,1.85,4.44,3.38,6.69,1.96,2.87,4.19,5.31,6.7,7.35,2.51,2.03,4.96,3.4,7.35,4.1,2.39,.7,4.43,.54,6.14-.48Z"/>
      <path class="cls-1" d="M445.84,522.99c-1.95,1.33-4,1.81-6.16,1.44-2.16-.36-3.82-1.39-4.97-3.08-1.15-1.69-1.5-3.59-1.03-5.71,.47-2.12,1.67-3.84,3.62-5.17,1.74-1.19,3.67-1.6,5.78-1.25,2.12,.36,3.75,1.38,4.9,3.07,1.15,1.69,1.5,3.6,1.05,5.75-.45,2.14-1.52,3.79-3.21,4.94Zm17.87,39.88l-22.2-32.54,12.28-8.38,22.2,32.54-12.28,8.38Z"/>
      <path class="cls-1" d="M490.41,545.78c-1.93,1.24-3.85,2.33-5.76,3.26s-3.62,1.57-5.11,1.91l-4.36-9.85c1.79,.21,3.65,.36,5.6,.46,3.23,.12,6.09,.08,8.58-.12,2.49-.2,4.26-.62,5.32-1.27,1.09-.82,1.81-1.69,2.16-2.6,.35-.91,.21-1.83-.42-2.75-.66-.97-1.82-1.74-3.48-2.29-1.66-.56-3.57-.95-5.76-1.19-2.18-.23-4.89-.41-8.12-.53h-.33c-.14,.02-.28,.03-.44,.02-.15,0-.3,0-.44,.02-4.5-.23-7.87-.57-10.1-1.04-2.23-.46-3.88-1.49-4.97-3.08-1.97-2.78-1.82-6.05,.45-9.81,2.27-3.76,5.71-7.21,10.31-10.35,1.69-1.15,3.48-2.2,5.38-3.16,1.89-.96,3.72-1.69,5.46-2.21l4.51,9.74c-1.9-.58-4.14-.98-6.72-1.2-2.59-.22-5.04-.2-7.37,.08s-3.97,.74-4.95,1.41c-.87,.59-1.5,1.27-1.88,2.02-.39,.75-.35,1.46,.1,2.12,.56,.82,2.01,1.41,4.35,1.76,2.34,.35,5.59,.61,9.75,.77l1.67-.02,.46,.02c3.25,.03,5.84,.16,7.79,.37,1.94,.21,3.73,.66,5.36,1.35,1.63,.69,2.9,1.7,3.81,3.03,1.67,2.46,2.18,5.09,1.51,7.91-.67,2.82-2.13,5.54-4.38,8.16-2.26,2.63-4.92,4.99-7.99,7.08Z"/>
      <path class="cls-1" d="M529.47,519.47c-3.94,2.69-7.82,4.14-11.65,4.35-3.83,.21-7.36-.56-10.59-2.34-3.23-1.77-5.95-4.26-8.14-7.49-2.34-3.43-3.7-6.88-4.09-10.37-.39-3.48,.27-6.83,1.97-10.06,1.7-3.22,4.57-6.21,8.61-8.97,2.4-1.64,4.72-3.05,6.95-4.24,2.23-1.18,4.31-2.06,6.25-2.63l4.98,7.62c-3.48-1.15-6.54-1.8-9.16-1.96-2.62-.16-4.65,.25-6.08,1.23-2.46,1.68-3.5,4.26-3.14,7.76,.36,3.5,2.01,7.4,4.94,11.7,2.62,3.84,5.2,6.85,7.75,9.05s4.93,3.55,7.16,4.06c2.22,.51,4.12,.22,5.71-.86,1.53-1.05,2.55-3,3.04-5.84,.49-2.85,.45-5.57-.13-8.18l6.97,3.79c-1.17,2.68-2.68,5.11-4.52,7.3-1.84,2.19-4.12,4.21-6.83,6.06Z"/>
      <path class="cls-1" d="M562.42,496.88c-3.38,2.3-7.02,3.72-10.93,4.25-3.91,.53-7.7,.04-11.35-1.48-3.66-1.51-6.73-4.09-9.2-7.72-2.41-3.53-3.56-7.2-3.47-11.02,.1-3.81,1.16-7.37,3.18-10.66,2.03-3.29,4.68-6.06,7.95-8.29,3.27-2.23,6.82-3.68,10.65-4.34,3.82-.66,7.53-.3,11.13,1.07,3.6,1.37,6.62,3.85,9.06,7.43,2.58,3.79,3.91,7.62,3.98,11.51,.07,3.89-.9,7.5-2.91,10.81-2.01,3.32-4.7,6.13-8.08,8.44Zm1.67-3.16c1.43-.98,2.04-2.44,1.83-4.4-.21-1.96-1.03-4.15-2.47-6.58-1.44-2.43-3.33-4.94-5.7-7.53-2.42-2.77-4.92-5.1-7.51-6.97-2.59-1.87-5.05-3.11-7.38-3.73-2.33-.62-4.27-.41-5.8,.64-1.43,.98-2.04,2.48-1.82,4.5,.22,2.03,1.08,4.31,2.58,6.84,1.5,2.53,3.41,5.11,5.73,7.73,2.28,2.57,4.71,4.79,7.3,6.66,2.59,1.87,5.04,3.08,7.37,3.63,2.32,.55,4.28,.29,5.87-.8Z"/>
    </g>
    <g>
      <path class="cls-4" d="M250.96,708.68c-2.1,1.43-4.26,2.66-6.48,3.69-2.22,1.03-4.41,1.83-6.57,2.4l-4.79-9.66c4,.27,8.17-.17,12.48-1.32,4.32-1.15,7.88-2.68,10.7-4.6,2.56-1.75,4.27-3.66,5.13-5.75,.86-2.09,.63-4.1-.7-6.05-1.01-1.48-2.58-2.55-4.71-3.2-2.13-.65-4.46-.96-7-.96-2.54,.01-5.96,.17-10.25,.47-.08-.01-.17-.03-.26-.05-.09-.02-.22,0-.41,.06-.4-.03-.75-.03-1.07,0-.32,.03-.68,.07-1.09,.13-4.15,.29-7.71,.38-10.65,.29-2.95-.09-5.65-.53-8.11-1.33-2.46-.8-4.31-2.12-5.57-3.96-2.76-4.04-2.54-8.63,.66-13.78,3.2-5.15,8.12-9.99,14.78-14.52,2.25-1.54,4.46-2.91,6.63-4.13,2.17-1.21,4.31-2.25,6.43-3.1l4.87,9.61c-3.11-.05-6.25,.16-9.41,.63s-6.1,1.14-8.8,2.01-4.93,1.9-6.67,3.09c-2,1.36-3.38,2.77-4.14,4.23-.77,1.46-.71,2.83,.16,4.11,.59,.87,1.73,1.46,3.41,1.78,1.68,.32,3.66,.42,5.96,.32,2.29-.1,5.05-.31,8.28-.64,.5-.04,.97-.06,1.42-.07,.45,0,.9-.05,1.36-.14,.14-.02,.25-.04,.35-.07,.09-.03,.21-.05,.35-.07,4.22-.41,7.78-.62,10.69-.65,2.9-.03,5.75,.5,8.56,1.58,2.8,1.09,5.11,2.96,6.93,5.62,2.48,3.63,3.47,7.55,2.96,11.76-.5,4.21-2.16,8.26-4.97,12.16-2.81,3.9-6.29,7.27-10.43,10.1Z"/>
      <path class="cls-4" d="M260.03,648.96c-1.95,1.33-4,1.81-6.16,1.44-2.16-.36-3.82-1.39-4.97-3.08-1.15-1.69-1.5-3.59-1.03-5.71,.47-2.12,1.67-3.84,3.62-5.17,1.74-1.19,3.67-1.6,5.78-1.25,2.12,.36,3.75,1.38,4.9,3.07,1.15,1.69,1.5,3.6,1.05,5.75-.45,2.14-1.52,3.79-3.21,4.94Zm17.87,39.88l-22.2-32.54,12.28-8.38,22.2,32.54-12.28,8.38Z"/>
      <path class="cls-4" d="M294.34,677.17l-32.98-48.35,12.28-8.38,32.98,48.35-12.28,8.38Z"/>
      <path class="cls-4" d="M331.1,654.23c-4.35,2.97-8.55,4.69-12.61,5.17-4.06,.48-7.75-.07-11.08-1.66-3.33-1.59-6.18-4.12-8.56-7.6-2.23-3.27-3.51-6.71-3.83-10.32-.32-3.6,.44-7.12,2.3-10.56,1.85-3.44,4.82-6.55,8.92-9.35,3.12-2.13,6.01-3.61,8.66-4.45,2.65-.84,4.97-1.01,6.95-.53,1.98,.49,3.56,1.6,4.75,3.34,1.21,1.88,1.51,3.97,.92,6.29-.59,2.32-1.81,4.59-3.66,6.83-1.85,2.24-4.03,4.21-6.53,5.92l.05,.08c2.58-1.38,5.18-2.49,7.81-3.31,2.63-.82,5.07-1.11,7.32-.89,2.25,.23,3.99,1.23,5.21,3.02,1.29,1.89,1.79,3.95,1.51,6.17-.29,2.22-1.17,4.38-2.66,6.48-1.49,2.1-3.31,3.89-5.46,5.35Zm-16.61-16.11c1.59-1.08,2.73-2.56,3.44-4.43,.71-1.87,.91-3.88,.61-6.04-.31-2.15-1.11-4.17-2.4-6.07-.66-.97-1.35-1.7-2.06-2.19-.71-.49-1.42-.73-2.13-.74-.71,0-1.45,.26-2.22,.78-1.33,.91-2.35,2.43-3.07,4.57-.71,2.14-.83,4.66-.36,7.55,.48,2.9,1.68,5.87,3.6,8.9,.48-.18,1.26-.52,2.33-1.03,.84-.42,1.59-.86,2.25-1.31Zm18.95,10.46c2.2-1.5,3.65-3.33,4.35-5.5,.7-2.16,.38-4.22-.94-6.16-1.43-2.1-3.73-3-6.91-2.71-3.18,.29-6.4,1.16-9.69,2.62-3.28,1.45-6.2,2.9-8.74,4.33-.21,.14-.36,.24-.46,.31s-.25,.13-.44,.18c2.11,3.21,4.55,5.57,7.32,7.1,2.76,1.53,5.5,2.24,8.22,2.15,2.71-.09,5.14-.87,7.29-2.33Z"/>
      <path class="cls-4" d="M346.89,641.77l-22.2-32.54,12.28-8.38,3.93,5.76,.15-.1c-.38-2.97,.05-5.81,1.27-8.52,1.22-2.71,2.96-4.83,5.21-6.37,2-1.36,4.13-2.18,6.42-2.47,2.28-.28,4.53,.1,6.74,1.14,2.21,1.04,4.15,2.79,5.83,5.25l15.08,22.1-12.28,8.38-15.81-23.18c-1.36-2-2.86-3.28-4.49-3.86-1.63-.57-3.08-.43-4.36,.45-.77,.52-1.38,1.36-1.84,2.49s-.66,2.44-.6,3.9c.06,1.46,.47,2.98,1.25,4.55l15.71,23.02-12.28,8.38Z"/>
      <path class="cls-4" d="M402.44,605.33c-4.4,3-8.58,4.51-12.55,4.52-3.97,0-7.17-1.78-9.62-5.36l-14.5-21.26-3.68,2.51-.94-1.38,2-1.36c2.2-1.5,3.76-3.67,4.67-6.5,.92-2.83,1.13-5.87,.65-9.1-.48-3.23-1.7-6.28-3.65-9.15l1.3-.89,11,16.12,9.67-6.6,.94,1.38-9.67,6.6,17.28,25.33c1.15,1.69,2.27,2.78,3.36,3.28,1.09,.5,2.09,.43,3.01-.2,1.02-.7,1.79-2.12,2.31-4.28,.52-2.15,.68-4.85,.49-8.1l7.18,6.24c-2.94,3.28-6.02,6.02-9.24,8.21Z"/>
      <path class="cls-4" d="M447.23,574.88c-3.79,2.58-7.63,4.25-11.54,5.01-3.91,.75-7.75,.34-11.53-1.24-3.78-1.58-7.15-4.55-10.12-8.9-2.37-3.48-3.71-6.84-4.01-10.08-.3-3.24,.17-6.15,1.41-8.72,1.24-2.57,3.09-4.7,5.55-6.37,1.84-1.26,3.86-2.17,6.06-2.73,2.2-.56,4.32-.68,6.35-.34l-12.72-18.65,12.35-8.43,31.57,46.27c-1.93,2.89-4.01,5.55-6.25,7.98-2.24,2.43-4.62,4.5-7.12,6.21Zm-.41-2.42c.46-.31,.87-.65,1.23-1,.36-.36,.67-.78,.94-1.26l-18.06-26.48c-2.29-.39-4.15-.09-5.58,.88-1.48,1.01-2.38,2.42-2.7,4.2-.32,1.79-.11,3.79,.61,6,.72,2.21,1.85,4.44,3.38,6.69,1.96,2.87,4.19,5.31,6.7,7.35,2.51,2.03,4.96,3.4,7.35,4.1,2.39,.7,4.43,.54,6.14-.48Z"/>
      <path class="cls-4" d="M448.65,520.27c-1.95,1.33-4,1.81-6.16,1.44-2.16-.36-3.82-1.39-4.97-3.08-1.15-1.69-1.5-3.59-1.03-5.71,.47-2.12,1.67-3.84,3.62-5.17,1.74-1.19,3.67-1.6,5.78-1.25,2.12,.36,3.75,1.38,4.9,3.07,1.15,1.69,1.5,3.6,1.05,5.75-.45,2.14-1.52,3.79-3.21,4.94Zm17.87,39.88l-22.2-32.54,12.28-8.38,22.2,32.54-12.28,8.38Z"/>
      <path class="cls-4" d="M493.22,543.06c-1.93,1.24-3.85,2.33-5.76,3.26s-3.62,1.57-5.11,1.91l-4.36-9.85c1.79,.21,3.65,.36,5.6,.46,3.23,.12,6.09,.08,8.58-.12,2.49-.2,4.26-.62,5.32-1.27,1.09-.82,1.81-1.69,2.16-2.6,.35-.91,.21-1.83-.42-2.75-.66-.97-1.82-1.74-3.48-2.29-1.66-.56-3.57-.95-5.76-1.19-2.18-.23-4.89-.41-8.12-.53h-.33c-.14,.02-.28,.03-.44,.02-.15,0-.3,0-.44,.02-4.5-.23-7.87-.57-10.1-1.04-2.23-.46-3.88-1.49-4.97-3.08-1.97-2.78-1.82-6.05,.45-9.81,2.27-3.76,5.71-7.21,10.31-10.35,1.69-1.15,3.48-2.2,5.38-3.16,1.89-.96,3.72-1.69,5.46-2.21l4.51,9.74c-1.9-.58-4.14-.98-6.72-1.2-2.59-.22-5.04-.2-7.37,.08s-3.97,.74-4.95,1.41c-.87,.59-1.5,1.27-1.88,2.02-.39,.75-.35,1.46,.1,2.12,.56,.82,2.01,1.41,4.35,1.76,2.34,.35,5.59,.61,9.75,.77l1.67-.02,.46,.02c3.25,.03,5.84,.16,7.79,.37,1.94,.21,3.73,.66,5.36,1.35,1.63,.69,2.9,1.7,3.81,3.03,1.67,2.46,2.18,5.09,1.51,7.91-.67,2.82-2.13,5.54-4.38,8.16-2.26,2.63-4.92,4.99-7.99,7.08Z"/>
      <path class="cls-4" d="M532.28,516.75c-3.94,2.69-7.82,4.14-11.65,4.35-3.83,.21-7.36-.56-10.59-2.34-3.23-1.77-5.95-4.26-8.14-7.49-2.34-3.43-3.7-6.88-4.09-10.37-.39-3.48,.27-6.83,1.97-10.06,1.7-3.22,4.57-6.21,8.61-8.97,2.4-1.64,4.72-3.05,6.95-4.24,2.23-1.18,4.31-2.06,6.25-2.63l4.98,7.62c-3.48-1.15-6.54-1.8-9.16-1.96-2.62-.16-4.65,.25-6.08,1.23-2.46,1.68-3.5,4.26-3.14,7.76,.36,3.5,2.01,7.4,4.94,11.7,2.62,3.84,5.2,6.85,7.75,9.05s4.93,3.55,7.16,4.06c2.22,.51,4.12,.22,5.71-.86,1.53-1.05,2.55-3,3.04-5.84,.49-2.85,.45-5.57-.13-8.18l6.97,3.79c-1.17,2.68-2.68,5.11-4.52,7.3-1.84,2.19-4.12,4.21-6.83,6.06Z"/>
      <path class="cls-4" d="M565.23,494.16c-3.38,2.3-7.02,3.72-10.93,4.25-3.91,.53-7.7,.04-11.35-1.48-3.66-1.51-6.73-4.09-9.2-7.72-2.41-3.53-3.56-7.2-3.47-11.02,.1-3.81,1.16-7.37,3.18-10.66,2.03-3.29,4.68-6.06,7.95-8.29,3.27-2.23,6.82-3.68,10.65-4.34,3.82-.66,7.53-.3,11.13,1.07,3.6,1.37,6.62,3.85,9.06,7.43,2.58,3.79,3.91,7.62,3.98,11.51,.07,3.89-.9,7.5-2.91,10.81-2.01,3.32-4.7,6.13-8.08,8.44Zm1.67-3.16c1.43-.98,2.04-2.44,1.83-4.4-.21-1.96-1.03-4.15-2.47-6.58-1.44-2.43-3.33-4.94-5.7-7.53-2.42-2.77-4.92-5.1-7.51-6.97-2.59-1.87-5.05-3.11-7.38-3.73-2.33-.62-4.27-.41-5.8,.64-1.43,.98-2.04,2.48-1.82,4.5,.22,2.03,1.08,4.31,2.58,6.84,1.5,2.53,3.41,5.11,5.73,7.73,2.28,2.57,4.71,4.79,7.3,6.66,2.59,1.87,5.04,3.08,7.37,3.63,2.32,.55,4.28,.29,5.87-.8Z"/>
    </g>
    <g>
      <path class="cls-4" d="M616.44,760.01l-.76-3.93c14.01-2.71,24.04-7.65,29.81-14.68,8.12-9.9,5.53-21.06,2.53-33.99-2.93-12.61-6.24-26.91,1.33-41.44,4.7-9.03,13.05-16.96,24.79-23.56l1.96,3.49c-11.06,6.21-18.87,13.59-23.21,21.92-6.89,13.22-3.88,26.17-.98,38.68,3.1,13.38,6.04,26.01-3.34,37.43-6.37,7.77-17.19,13.17-32.14,16.07Z"/>
      <polygon class="cls-4" points="673.52 653.42 672.99 645.39 666.84 640.2 685.85 638.89 673.52 653.42"/>
    </g>
    <g/>
    <g>
      <path class="cls-7" d="M547.82,854.11c-4.72,0-8.79-1.04-12.21-3.12-3.42-2.08-6.05-4.89-7.87-8.43-1.83-3.54-2.74-7.5-2.74-11.9,0-4.72,.88-8.73,2.64-12.03,1.76-3.31,4.3-5.81,7.63-7.53,3.33-1.71,7.35-2.57,12.07-2.57,1.76,0,3.73,.08,5.93,.24,2.2,.16,4.17,.38,5.93,.66l-1.53,7.98c-1.8-2.4-3.57-4.21-5.31-5.41-1.73-1.2-3.41-1.8-5.03-1.8-1.99,0-3.75,.8-5.27,2.39-1.53,1.59-2.72,3.88-3.57,6.87s-1.28,6.51-1.28,10.58c0,4.58,.49,8.57,1.46,11.96,.97,3.4,2.32,5.99,4.06,7.77,1.73,1.78,3.66,2.67,5.79,2.67,1.9,0,3.86-.72,5.9-2.15,2.03-1.43,3.95-3.42,5.76-5.96l1.53,7.98c-2.08,.6-4.4,1.05-6.97,1.35-2.57,.3-4.87,.45-6.9,.45Z"/>
      <path class="cls-7" d="M564.88,853.14v-43.7h11.1v21.09h.14c.92-2.4,2.39-4.3,4.4-5.69,2.01-1.39,4.2-2.08,6.55-2.08,1.8,0,3.44,.38,4.92,1.14,1.48,.76,2.67,1.93,3.57,3.5,.9,1.57,1.35,3.49,1.35,5.76v19.98h-11.1v-20.95c0-1.67-.37-2.95-1.11-3.85-.74-.9-1.69-1.35-2.84-1.35-1.02,0-1.98,.32-2.88,.97-.9,.65-1.63,1.65-2.19,3.02-.55,1.36-.83,2.97-.83,4.82v17.34h-11.1Z"/>
      <path class="cls-7" d="M606.57,821.3c-1.76,0-3.23-.57-4.4-1.7-1.18-1.13-1.77-2.46-1.77-3.99s.59-2.84,1.77-3.95c1.18-1.11,2.65-1.67,4.4-1.67,1.57,0,2.94,.55,4.09,1.67,1.16,1.11,1.73,2.43,1.73,3.95s-.59,2.86-1.77,3.99c-1.18,1.13-2.53,1.7-4.06,1.7Zm-5.76,32.11v-29.41h11.1v29.41h-11.1Z"/>
      <path class="cls-7" d="M615.86,853.14v-43.7h11.1v43.7h-11.1Z"/>
      <path class="cls-7" d="M630.42,853.14v-43.7h11.1v43.7h-11.1Z"/>
      <path class="cls-7" d="M544.59,910.37l-28.72-.07,16.51-27.75h-2.22c-2.17,0-4.55,.64-7.14,1.91-2.59,1.27-4.76,2.74-6.52,4.41v-7.63h27.68l-16.16,27.88h3.75c1.85,0,3.96-.66,6.35-1.98,2.38-1.32,4.52-3.04,6.42-5.17l.07,8.39Z"/>
      <path class="cls-7" d="M563.74,911.47c-3.05,0-5.9-.66-8.53-1.98-2.64-1.32-4.76-3.21-6.38-5.69-1.62-2.47-2.43-5.35-2.43-8.64s.83-5.94,2.5-8.25c1.67-2.31,3.82-4.06,6.45-5.24,2.64-1.18,5.43-1.77,8.39-1.77s5.76,.6,8.39,1.8c2.64,1.2,4.77,2.98,6.42,5.34,1.64,2.36,2.46,5.16,2.46,8.39,0,3.42-.8,6.35-2.39,8.77-1.6,2.43-3.71,4.24-6.35,5.45-2.64,1.2-5.48,1.8-8.53,1.8Zm2.36-1.25c1.29,0,2.29-.65,2.98-1.94,.69-1.29,1.11-2.99,1.25-5.1,.14-2.1,.02-4.45-.35-7.04-.32-2.73-.89-5.21-1.7-7.46-.81-2.24-1.8-4.05-2.98-5.41-1.18-1.36-2.46-2.05-3.85-2.05-1.29,0-2.3,.67-3.02,2.01-.72,1.34-1.14,3.11-1.28,5.31-.14,2.2-.05,4.59,.28,7.18,.32,2.54,.89,4.94,1.7,7.18,.81,2.24,1.81,4.02,3.02,5.34,1.2,1.32,2.52,1.98,3.95,1.98Z"/>
      <path class="cls-7" d="M583.43,910.64v-29.41h11.1v5.2h.14c1.02-1.99,2.47-3.56,4.37-4.72,1.9-1.16,3.86-1.73,5.9-1.73,1.8,0,3.47,.39,4.99,1.18s2.75,1.97,3.68,3.54c.92,1.57,1.39,3.47,1.39,5.69v19.98h-11.1v-20.95c0-1.8-.38-3.23-1.14-4.27-.76-1.04-1.72-1.56-2.88-1.56-.69,0-1.42,.25-2.18,.76-.76,.51-1.43,1.23-2.01,2.15-.58,.92-.96,2.04-1.14,3.33v20.81h-11.1Z"/>
      <path class="cls-7" d="M630.25,911.61c-2.54,0-4.74-.59-6.59-1.77-1.85-1.18-3.24-2.69-4.16-4.54-.93-1.85-1.39-3.79-1.39-5.83,0-1.8,.38-3.46,1.14-4.96,.76-1.5,1.88-2.69,3.36-3.57,1.48-.88,3.21-1.32,5.2-1.32,1.06,0,2.13,.17,3.19,.52,1.06,.35,2.03,.87,2.91,1.56l.07-.07c-.32-.28-.6-.57-.83-.87s-.49-.59-.76-.87c-.97-1.2-1.69-2.21-2.15-3.02-.46-.81-.69-1.67-.69-2.6,0-1.39,.55-2.44,1.67-3.16,1.11-.72,2.54-1.08,4.3-1.08,2.4,0,4.84,.64,7.32,1.91,2.47,1.27,4.55,3.2,6.24,5.79,1.69,2.59,2.53,5.76,2.53,9.5v13.11h-11.17v-14.5c0-3.24-.41-5.88-1.21-7.94-.81-2.06-1.79-3.57-2.95-4.54-1.16-.97-2.34-1.46-3.54-1.46-.79,0-1.38,.22-1.77,.66-.39,.44-.59,.98-.59,1.63,0,.83,.23,1.68,.69,2.53,.46,.86,1.22,1.91,2.29,3.16,.37,.46,.76,.94,1.18,1.42s.81,.98,1.18,1.49c.09,.05,.14,.08,.14,.1s.02,.06,.07,.1c.69,.83,1.29,1.73,1.8,2.71,.51,.97,.91,2.05,1.21,3.23s.45,2.51,.45,3.99-.32,2.82-.97,4.16c-.65,1.34-1.67,2.43-3.05,3.26-1.39,.83-3.1,1.25-5.13,1.25Zm4.65-3.19c1.11,0,1.99-.53,2.64-1.59s.97-2.47,.97-4.23-.29-3.4-.87-5.06c-.58-1.67-1.38-3.04-2.39-4.13-1.02-1.09-2.15-1.63-3.4-1.63-.65,0-1.2,.22-1.67,.66-.46,.44-.82,1.06-1.08,1.87-.25,.81-.38,1.84-.38,3.09,0,1.9,.31,3.7,.94,5.41,.62,1.71,1.42,3.08,2.39,4.09,.97,1.02,1.92,1.53,2.84,1.53Z"/>
    </g>
    <path class="cls-1" d="M551.56,458.52c4.46-3.69,4.77-8.58,1.11-14.84,4.55,5.61,9.22,7.06,14.24,4.18-1.34,2.17-3.27,3.78-3.47,6.63-.2,2.87,1.36,5.53,2.62,8.49-2.37-2.14-4.29-4.59-7.06-5.41-2.76-.81-4.94,.43-7.46,.95Z"/>
    <g>
      <g>
        <path class="cls-8" d="M252.71,199.79v-71.03h-5.45c-1.62,0-3.79,.58-6.5,1.74-2.71,1.16-5.44,2.65-8.18,4.47-2.75,1.82-4.93,3.54-6.56,5.16l2.21-13.46h67.54l2.09,13.46c-1.78-1.55-4.06-3.23-6.85-5.05-2.79-1.82-5.49-3.33-8.12-4.53-2.63-1.2-4.64-1.8-6.04-1.8h-5.57v71.03h-18.57Z"/>
        <path class="cls-8" d="M318.05,202c-6.58,0-12.13-1.18-16.65-3.54-4.53-2.36-7.95-5.53-10.27-9.52-2.32-3.98-3.48-8.61-3.48-13.87,0-4.95,1.1-9.4,3.31-13.35s5.47-7.04,9.81-9.28c4.33-2.24,9.59-3.37,15.78-3.37,4.72,0,8.74,.5,12.07,1.51,3.33,1.01,5.84,2.46,7.54,4.35,1.7,1.9,2.55,4.16,2.55,6.79-.08,2.79-1.24,5.16-3.48,7.14-2.24,1.97-5.11,3.46-8.59,4.47-3.48,1.01-7.12,1.51-10.91,1.51v.12c3.63,.39,7.1,1.08,10.39,2.09,3.29,1.01,6.01,2.42,8.18,4.24,2.17,1.82,3.25,4.08,3.25,6.79,0,2.86-.93,5.34-2.79,7.43-1.86,2.09-4.29,3.7-7.31,4.82-3.02,1.12-6.15,1.68-9.4,1.68Zm6.38-4.18c3.33,0,6.11-.87,8.36-2.61,2.24-1.74,3.37-4.08,3.37-7.02,0-3.17-1.74-5.72-5.22-7.66-3.48-1.93-7.43-3.31-11.84-4.12-4.41-.81-8.43-1.37-12.07-1.68h-.7c-.16,0-.35-.04-.58-.12-.08,4.8,.77,8.96,2.55,12.48,1.78,3.52,4.1,6.19,6.96,8.01,2.86,1.82,5.92,2.73,9.17,2.73Zm-12.19-24.14c2.4,0,4.62-.71,6.67-2.15,2.05-1.43,3.67-3.37,4.87-5.8s1.8-5.09,1.8-7.95c0-1.47-.19-2.71-.58-3.71-.39-1-.95-1.76-1.68-2.26-.74-.5-1.68-.75-2.84-.75-2.01,0-4.14,.85-6.38,2.55-2.24,1.7-4.14,4.22-5.69,7.54-1.55,3.33-2.4,7.24-2.55,11.72,.62,.16,1.66,.35,3.13,.58,1.16,.16,2.24,.23,3.25,.23Z"/>
        <path class="cls-8" d="M361.34,201.88c-4.26,0-7.93-.99-11.03-2.96-3.1-1.97-5.42-4.51-6.96-7.6-1.55-3.09-2.32-6.34-2.32-9.75,0-3.02,.64-5.78,1.91-8.3,1.28-2.51,3.15-4.51,5.63-5.98,2.47-1.47,5.38-2.21,8.7-2.21,1.78,0,3.56,.29,5.34,.87,1.78,.58,3.4,1.45,4.87,2.61l.12-.12c-.54-.46-1.01-.95-1.39-1.45-.39-.5-.81-.99-1.28-1.45-1.62-2.01-2.82-3.69-3.6-5.05-.77-1.35-1.16-2.8-1.16-4.35,0-2.32,.93-4.08,2.79-5.28,1.86-1.2,4.25-1.8,7.2-1.8,4.02,0,8.1,1.06,12.24,3.19,4.14,2.13,7.62,5.36,10.45,9.69,2.82,4.33,4.23,9.63,4.23,15.9v21.93h-18.68v-24.26c0-5.41-.68-9.84-2.03-13.29-1.36-3.44-3-5.98-4.93-7.6-1.94-1.62-3.91-2.44-5.92-2.44-1.32,0-2.3,.37-2.96,1.1-.66,.74-.99,1.64-.99,2.73,0,1.39,.39,2.81,1.16,4.24,.77,1.43,2.05,3.19,3.83,5.28,.62,.77,1.28,1.57,1.97,2.38,.7,.81,1.35,1.64,1.97,2.5,.15,.08,.23,.14,.23,.17s.04,.1,.12,.17c1.16,1.39,2.16,2.9,3.02,4.53,.85,1.62,1.53,3.42,2.03,5.4,.5,1.97,.76,4.2,.76,6.67s-.54,4.72-1.62,6.96c-1.09,2.25-2.79,4.06-5.11,5.45-2.32,1.39-5.18,2.09-8.59,2.09Zm7.78-5.34c1.86,0,3.33-.89,4.41-2.67,1.08-1.78,1.62-4.14,1.62-7.08s-.48-5.69-1.45-8.47c-.97-2.79-2.3-5.09-4-6.91-1.7-1.82-3.6-2.73-5.69-2.73-1.08,0-2.01,.37-2.79,1.1-.78,.74-1.38,1.78-1.8,3.13-.43,1.35-.64,3.08-.64,5.16,0,3.17,.52,6.19,1.57,9.05,1.04,2.86,2.38,5.15,4,6.85,1.62,1.7,3.21,2.55,4.76,2.55Z"/>
        <path class="cls-8" d="M425.87,201.77c-6.66,0-12.03-1.39-16.13-4.18s-6.15-6.89-6.15-12.3v-32.15h-5.57v-2.09h3.02c3.33,0,6.46-1.14,9.4-3.42,2.94-2.28,5.3-5.26,7.08-8.94,1.78-3.67,2.67-7.68,2.67-12.01h1.97v24.37h14.62v2.09h-14.62v38.3c0,2.55,.39,4.47,1.16,5.74,.77,1.28,1.86,1.92,3.25,1.92,1.55,0,3.35-.93,5.4-2.79,2.05-1.86,4.12-4.53,6.21-8.01l3.02,11.49c-5.34,1.31-10.45,1.97-15.32,1.97Z"/>
        <path class="cls-8" d="M461.84,201.88c-4.26,0-7.93-.99-11.03-2.96-3.1-1.97-5.42-4.51-6.96-7.6-1.55-3.09-2.32-6.34-2.32-9.75,0-3.02,.64-5.78,1.91-8.3,1.28-2.51,3.15-4.51,5.63-5.98,2.47-1.47,5.38-2.21,8.7-2.21,1.78,0,3.56,.29,5.34,.87,1.78,.58,3.4,1.45,4.87,2.61l.12-.12c-.54-.46-1.01-.95-1.39-1.45-.39-.5-.81-.99-1.28-1.45-1.62-2.01-2.82-3.69-3.6-5.05-.77-1.35-1.16-2.8-1.16-4.35,0-2.32,.93-4.08,2.79-5.28,1.86-1.2,4.25-1.8,7.2-1.8,4.02,0,8.1,1.06,12.24,3.19,4.14,2.13,7.62,5.36,10.45,9.69,2.82,4.33,4.23,9.63,4.23,15.9v21.93h-18.68v-24.26c0-5.41-.68-9.84-2.03-13.29-1.36-3.44-3-5.98-4.93-7.6-1.94-1.62-3.91-2.44-5.92-2.44-1.32,0-2.3,.37-2.96,1.1-.66,.74-.99,1.64-.99,2.73,0,1.39,.39,2.81,1.16,4.24,.77,1.43,2.05,3.19,3.83,5.28,.62,.77,1.28,1.57,1.97,2.38,.7,.81,1.35,1.64,1.97,2.5,.15,.08,.23,.14,.23,.17s.04,.1,.12,.17c1.16,1.39,2.16,2.9,3.02,4.53,.85,1.62,1.53,3.42,2.03,5.4,.5,1.97,.76,4.2,.76,6.67s-.54,4.72-1.62,6.96c-1.09,2.25-2.79,4.06-5.11,5.45-2.32,1.39-5.18,2.09-8.59,2.09Zm7.78-5.34c1.86,0,3.33-.89,4.41-2.67,1.08-1.78,1.62-4.14,1.62-7.08s-.48-5.69-1.45-8.47c-.97-2.79-2.3-5.09-4-6.91-1.7-1.82-3.6-2.73-5.69-2.73-1.08,0-2.01,.37-2.79,1.1-.78,.74-1.38,1.78-1.8,3.13-.43,1.35-.64,3.08-.64,5.16,0,3.17,.52,6.19,1.57,9.05,1.04,2.86,2.38,5.15,4,6.85,1.62,1.7,3.21,2.55,4.76,2.55Z"/>
        <path class="cls-8" d="M503.04,199.79v-48.74h18.57v18.8h.23c1.31-3.56,2.96-6.79,4.93-9.69,1.97-2.9,4.18-5.26,6.62-7.08,2.44-1.82,5.09-2.8,7.95-2.96l1.04,12.07c-3.33-.08-6.5,.29-9.52,1.1s-5.63,2.38-7.83,4.7-3.35,5.49-3.42,9.52v22.28h-18.57Z"/>
        <path class="cls-8" d="M588.1,201.88c-4.64,0-8.7-.64-12.19-1.91-3.48-1.28-6.23-3.17-8.24-5.69-2.01-2.51-3.02-5.59-3.02-9.23s1.01-7.06,3.02-10.74c2.01-3.67,4.93-6.98,8.76-9.92,3.83-2.94,8.3-4.99,13.4-6.15-2.48-2.94-4.37-5.53-5.69-7.78-1.32-2.24-1.94-4.25-1.86-6.03,0-3.87,2.01-7.27,6.04-10.21,4.02-2.94,9.28-5.18,15.78-6.73,6.5-1.55,13.19-2.32,20.08-2.32,5.41,0,10.44,.5,15.09,1.51l-2.21,13c-4.49-3.95-8.82-6.85-13-8.7-4.18-1.86-7.97-2.79-11.37-2.79-3.87,0-6.89,.85-9.05,2.55-2.17,1.7-3.25,4.06-3.25,7.08,0,2.09,.56,4.35,1.68,6.79,1.12,2.44,2.84,4.97,5.16,7.6l18.11,20.77c.77-1,1.53-2.01,2.26-3.02,.73-1,1.49-1.97,2.26-2.9,3.79-5.03,7.14-8.82,10.04-11.37,2.9-2.55,6.09-3.79,9.57-3.71v14.97c-4.02-.31-7.93,.29-11.72,1.8-3.79,1.51-7.08,3.85-9.87,7.02l21.01,24.02h-22.05l-11.14-12.53c-.08,.08-.16,.17-.23,.29-.08,.12-.19,.21-.35,.29-3.02,3.1-5.86,5.63-8.53,7.6-2.67,1.97-5.55,3.54-8.64,4.7-3.1,1.16-6.38,1.74-9.87,1.74Zm4.41-2.79c1.93,0,3.96-.6,6.09-1.8,2.13-1.2,4.33-2.84,6.61-4.93,2.28-2.09,4.86-4.83,7.72-8.24l-21.12-23.79c-2.55,1.32-4.68,3.12-6.38,5.4-1.7,2.28-3,4.78-3.89,7.49-.89,2.71-1.34,5.45-1.34,8.24,0,3.1,.5,6,1.51,8.7,1,2.71,2.44,4.87,4.29,6.5,1.86,1.62,4.02,2.44,6.5,2.44Z"/>
        <path class="cls-8" d="M699.05,199.79v-71.03h-5.46c-1.62,0-3.79,.58-6.5,1.74-2.71,1.16-5.44,2.65-8.18,4.47-2.75,1.82-4.93,3.54-6.56,5.16l2.21-13.46h67.54l2.09,13.46c-1.78-1.55-4.06-3.23-6.85-5.05-2.79-1.82-5.49-3.33-8.12-4.53-2.63-1.2-4.64-1.8-6.04-1.8h-5.57v71.03h-18.57Z"/>
        <path class="cls-8" d="M766.13,200.84c-6.89,0-12.84-.35-17.87-1.04V126.68c8.04-1,14.78-1.51,20.19-1.51,9.28,0,17.18,1.32,23.67,3.95,6.5,2.63,11.43,6.6,14.8,11.9,3.37,5.3,5.05,11.9,5.05,19.79,0,8.51-1.97,15.77-5.92,21.76-3.95,6-9.36,10.54-16.25,13.64-6.89,3.1-14.78,4.64-23.68,4.64Zm6.96-2.67c4.25,0,7.75-1.7,10.5-5.11,2.75-3.4,4.8-7.81,6.15-13.23,1.35-5.41,2.03-11.22,2.03-17.41,0-10.06-1.66-18.43-4.99-25.13-3.33-6.69-8.16-10.04-14.51-10.04-1.62,0-3.44,.19-5.46,.58v69.28c2.16,.7,4.25,1.04,6.27,1.04Z"/>
      </g>
      <g>
        <path class="cls-9" d="M253.64,191.63V120.6h-5.45c-1.62,0-3.79,.58-6.5,1.74-2.71,1.16-5.44,2.65-8.18,4.47-2.75,1.82-4.93,3.54-6.56,5.16l2.21-13.46h67.54l2.09,13.46c-1.78-1.55-4.06-3.23-6.85-5.05-2.79-1.82-5.49-3.33-8.12-4.53-2.63-1.2-4.64-1.8-6.04-1.8h-5.57v71.03h-18.57Z"/>
        <path class="cls-9" d="M318.98,193.83c-6.58,0-12.13-1.18-16.65-3.54-4.53-2.36-7.95-5.53-10.27-9.52-2.32-3.98-3.48-8.61-3.48-13.87,0-4.95,1.1-9.4,3.31-13.35s5.47-7.04,9.81-9.28c4.33-2.24,9.59-3.37,15.78-3.37,4.72,0,8.74,.5,12.07,1.51,3.33,1.01,5.84,2.46,7.54,4.35,1.7,1.9,2.55,4.16,2.55,6.79-.08,2.79-1.24,5.16-3.48,7.14-2.25,1.97-5.11,3.46-8.59,4.47-3.48,1.01-7.12,1.51-10.91,1.51v.12c3.64,.39,7.1,1.08,10.39,2.09,3.29,1.01,6.01,2.42,8.18,4.24,2.17,1.82,3.25,4.08,3.25,6.79,0,2.86-.93,5.34-2.79,7.43-1.86,2.09-4.29,3.7-7.31,4.82-3.02,1.12-6.15,1.68-9.4,1.68Zm6.38-4.18c3.33,0,6.11-.87,8.36-2.61,2.24-1.74,3.37-4.08,3.37-7.02,0-3.17-1.74-5.72-5.22-7.66-3.48-1.93-7.43-3.31-11.84-4.12-4.41-.81-8.43-1.37-12.07-1.68h-.7c-.16,0-.35-.04-.58-.12-.08,4.8,.77,8.96,2.55,12.48,1.78,3.52,4.1,6.19,6.96,8.01,2.86,1.82,5.92,2.73,9.17,2.73Zm-12.19-24.14c2.4,0,4.62-.71,6.67-2.15,2.05-1.43,3.67-3.37,4.87-5.8,1.2-2.44,1.8-5.09,1.8-7.95,0-1.47-.19-2.71-.58-3.71-.39-1-.95-1.76-1.68-2.26-.74-.5-1.68-.75-2.84-.75-2.01,0-4.14,.85-6.38,2.55-2.24,1.7-4.14,4.22-5.69,7.54-1.55,3.33-2.4,7.24-2.55,11.72,.62,.16,1.66,.35,3.13,.58,1.16,.16,2.24,.23,3.25,.23Z"/>
        <path class="cls-9" d="M362.27,193.71c-4.26,0-7.93-.99-11.03-2.96-3.1-1.97-5.42-4.51-6.96-7.6-1.55-3.09-2.32-6.34-2.32-9.75,0-3.02,.64-5.78,1.92-8.3,1.28-2.51,3.15-4.51,5.63-5.98,2.48-1.47,5.38-2.21,8.7-2.21,1.78,0,3.56,.29,5.34,.87,1.78,.58,3.4,1.45,4.87,2.61l.12-.12c-.54-.46-1.01-.95-1.39-1.45-.39-.5-.81-.99-1.28-1.45-1.62-2.01-2.83-3.69-3.6-5.05-.77-1.35-1.16-2.8-1.16-4.35,0-2.32,.93-4.08,2.79-5.28,1.86-1.2,4.25-1.8,7.2-1.8,4.02,0,8.1,1.06,12.24,3.19,4.14,2.13,7.62,5.36,10.45,9.69,2.82,4.33,4.24,9.63,4.24,15.9v21.93h-18.68v-24.26c0-5.41-.68-9.84-2.03-13.29-1.35-3.44-3-5.98-4.93-7.6-1.94-1.62-3.91-2.44-5.92-2.44-1.32,0-2.3,.37-2.96,1.1-.66,.74-.99,1.64-.99,2.73,0,1.39,.39,2.81,1.16,4.24,.77,1.43,2.05,3.19,3.83,5.28,.62,.77,1.28,1.57,1.97,2.38s1.35,1.64,1.97,2.5c.15,.08,.23,.14,.23,.17s.04,.1,.12,.17c1.16,1.39,2.17,2.9,3.02,4.53,.85,1.62,1.53,3.42,2.03,5.4,.5,1.97,.75,4.2,.75,6.67s-.54,4.72-1.62,6.96c-1.08,2.25-2.79,4.06-5.11,5.45s-5.18,2.09-8.59,2.09Zm7.78-5.34c1.86,0,3.33-.89,4.41-2.67,1.08-1.78,1.62-4.14,1.62-7.08s-.48-5.69-1.45-8.47c-.97-2.79-2.3-5.09-4-6.91-1.7-1.82-3.6-2.73-5.69-2.73-1.08,0-2.01,.37-2.79,1.1-.77,.74-1.38,1.78-1.8,3.13-.43,1.35-.64,3.08-.64,5.16,0,3.17,.52,6.19,1.57,9.05,1.04,2.86,2.38,5.15,4,6.85,1.62,1.7,3.21,2.55,4.76,2.55Z"/>
        <path class="cls-9" d="M426.79,193.6c-6.66,0-12.03-1.39-16.13-4.18-4.1-2.79-6.15-6.89-6.15-12.3v-32.15h-5.57v-2.09h3.02c3.33,0,6.46-1.14,9.4-3.42,2.94-2.28,5.3-5.26,7.08-8.94,1.78-3.67,2.67-7.68,2.67-12.01h1.97v24.37h14.62v2.09h-14.62v38.3c0,2.55,.39,4.47,1.16,5.74,.77,1.28,1.86,1.92,3.25,1.92,1.55,0,3.35-.93,5.4-2.79,2.05-1.86,4.12-4.53,6.21-8.01l3.02,11.49c-5.34,1.31-10.45,1.97-15.32,1.97Z"/>
        <path class="cls-9" d="M462.77,193.71c-4.26,0-7.93-.99-11.03-2.96-3.1-1.97-5.42-4.51-6.96-7.6-1.55-3.09-2.32-6.34-2.32-9.75,0-3.02,.64-5.78,1.92-8.3,1.28-2.51,3.15-4.51,5.63-5.98,2.48-1.47,5.38-2.21,8.7-2.21,1.78,0,3.56,.29,5.34,.87,1.78,.58,3.4,1.45,4.87,2.61l.12-.12c-.54-.46-1.01-.95-1.39-1.45-.39-.5-.81-.99-1.28-1.45-1.62-2.01-2.83-3.69-3.6-5.05-.77-1.35-1.16-2.8-1.16-4.35,0-2.32,.93-4.08,2.79-5.28,1.86-1.2,4.25-1.8,7.2-1.8,4.02,0,8.1,1.06,12.24,3.19,4.14,2.13,7.62,5.36,10.45,9.69,2.82,4.33,4.24,9.63,4.24,15.9v21.93h-18.68v-24.26c0-5.41-.68-9.84-2.03-13.29-1.35-3.44-3-5.98-4.93-7.6-1.94-1.62-3.91-2.44-5.92-2.44-1.32,0-2.3,.37-2.96,1.1-.66,.74-.99,1.64-.99,2.73,0,1.39,.39,2.81,1.16,4.24,.77,1.43,2.05,3.19,3.83,5.28,.62,.77,1.28,1.57,1.97,2.38s1.35,1.64,1.97,2.5c.15,.08,.23,.14,.23,.17s.04,.1,.12,.17c1.16,1.39,2.17,2.9,3.02,4.53,.85,1.62,1.53,3.42,2.03,5.4,.5,1.97,.75,4.2,.75,6.67s-.54,4.72-1.62,6.96c-1.08,2.25-2.79,4.06-5.11,5.45s-5.18,2.09-8.59,2.09Zm7.78-5.34c1.86,0,3.33-.89,4.41-2.67,1.08-1.78,1.62-4.14,1.62-7.08s-.48-5.69-1.45-8.47c-.97-2.79-2.3-5.09-4-6.91-1.7-1.82-3.6-2.73-5.69-2.73-1.08,0-2.01,.37-2.79,1.1-.77,.74-1.38,1.78-1.8,3.13-.43,1.35-.64,3.08-.64,5.16,0,3.17,.52,6.19,1.57,9.05,1.04,2.86,2.38,5.15,4,6.85,1.62,1.7,3.21,2.55,4.76,2.55Z"/>
        <path class="cls-9" d="M503.97,191.63v-48.74h18.57v18.8h.23c1.31-3.56,2.96-6.79,4.93-9.69,1.97-2.9,4.18-5.26,6.62-7.08,2.44-1.82,5.09-2.8,7.95-2.96l1.04,12.07c-3.33-.08-6.5,.29-9.52,1.1s-5.63,2.38-7.83,4.7-3.35,5.49-3.42,9.52v22.28h-18.57Z"/>
        <path class="cls-9" d="M589.03,193.71c-4.64,0-8.7-.64-12.19-1.91-3.48-1.28-6.23-3.17-8.24-5.69-2.01-2.51-3.02-5.59-3.02-9.23s1-7.06,3.02-10.74c2.01-3.67,4.93-6.98,8.76-9.92,3.83-2.94,8.3-4.99,13.4-6.15-2.48-2.94-4.37-5.53-5.69-7.78-1.32-2.24-1.93-4.25-1.86-6.03,0-3.87,2.01-7.27,6.03-10.21,4.02-2.94,9.28-5.18,15.78-6.73,6.5-1.55,13.19-2.32,20.08-2.32,5.41,0,10.44,.5,15.09,1.51l-2.21,13c-4.49-3.95-8.82-6.85-13-8.7-4.18-1.86-7.97-2.79-11.37-2.79-3.87,0-6.89,.85-9.05,2.55-2.17,1.7-3.25,4.06-3.25,7.08,0,2.09,.56,4.35,1.68,6.79,1.12,2.44,2.84,4.97,5.16,7.6l18.1,20.77c.77-1,1.53-2.01,2.26-3.02,.73-1,1.49-1.97,2.26-2.9,3.79-5.03,7.14-8.82,10.04-11.37s6.09-3.79,9.58-3.71v14.97c-4.02-.31-7.93,.29-11.72,1.8-3.79,1.51-7.08,3.85-9.87,7.02l21.01,24.02h-22.05l-11.14-12.53c-.08,.08-.16,.17-.23,.29-.08,.12-.19,.21-.35,.29-3.02,3.1-5.86,5.63-8.53,7.6-2.67,1.97-5.55,3.54-8.65,4.7-3.1,1.16-6.38,1.74-9.86,1.74Zm4.41-2.79c1.93,0,3.96-.6,6.09-1.8,2.13-1.2,4.33-2.84,6.61-4.93,2.28-2.09,4.85-4.83,7.72-8.24l-21.12-23.79c-2.55,1.32-4.68,3.12-6.38,5.4-1.7,2.28-3,4.78-3.89,7.49-.89,2.71-1.33,5.45-1.33,8.24,0,3.1,.5,6,1.51,8.7,1,2.71,2.44,4.87,4.29,6.5,1.86,1.62,4.02,2.44,6.5,2.44Z"/>
        <path class="cls-9" d="M699.98,191.63V120.6h-5.45c-1.62,0-3.79,.58-6.5,1.74-2.71,1.16-5.44,2.65-8.18,4.47-2.75,1.82-4.93,3.54-6.56,5.16l2.21-13.46h67.54l2.09,13.46c-1.78-1.55-4.06-3.23-6.85-5.05-2.79-1.82-5.49-3.33-8.12-4.53-2.63-1.2-4.64-1.8-6.04-1.8h-5.57v71.03h-18.57Z"/>
        <path class="cls-9" d="M767.05,192.67c-6.89,0-12.84-.35-17.87-1.04V118.51c8.05-1,14.78-1.51,20.19-1.51,9.28,0,17.18,1.32,23.67,3.95,6.5,2.63,11.43,6.6,14.8,11.9,3.37,5.3,5.05,11.9,5.05,19.79,0,8.51-1.97,15.77-5.92,21.76-3.95,6-9.36,10.54-16.25,13.64-6.89,3.1-14.78,4.64-23.68,4.64Zm6.96-2.67c4.25,0,7.75-1.7,10.5-5.11,2.75-3.4,4.8-7.81,6.15-13.23,1.35-5.41,2.03-11.22,2.03-17.41,0-10.06-1.67-18.43-4.99-25.13-3.33-6.69-8.16-10.04-14.51-10.04-1.62,0-3.44,.19-5.46,.58v69.28c2.17,.7,4.25,1.04,6.27,1.04Z"/>
      </g>
    </g>
    <g>
      <rect class="cls-2" x="144.06" y="1001.65" width="59.86" height="31.2"/>
      <g>
        <path class="cls-1" d="M232.36,1031.73c-1.31,0-2.59-.1-3.84-.31s-2.42-.5-3.5-.89l.77-5.52c1.63,1.28,3.54,2.3,5.71,3.07,2.18,.77,4.14,1.15,5.9,1.15,1.6,0,2.89-.32,3.86-.96,.98-.64,1.46-1.57,1.46-2.78,0-.93-.36-1.84-1.08-2.74-.72-.9-1.62-1.71-2.71-2.45-1.09-.74-2.59-1.66-4.51-2.78-.03-.03-.06-.06-.1-.1-.03-.03-.1-.06-.19-.1-.16-.13-.31-.23-.46-.31-.14-.08-.31-.17-.5-.26-1.86-1.09-3.4-2.08-4.63-2.98-1.23-.9-2.26-1.87-3.07-2.93-.82-1.06-1.22-2.16-1.22-3.31,0-2.53,1.43-4.42,4.3-5.69,2.86-1.26,6.38-1.9,10.54-1.9,1.41,0,2.75,.06,4.03,.17,1.28,.11,2.5,.3,3.65,.55l-.72,5.52c-1.31-.93-2.71-1.75-4.2-2.47-1.49-.72-2.94-1.29-4.34-1.7-1.41-.42-2.66-.62-3.74-.62-1.25,0-2.25,.2-3,.6-.75,.4-1.13,1-1.13,1.8,0,.54,.31,1.13,.94,1.75,.62,.62,1.44,1.25,2.45,1.87s2.25,1.34,3.72,2.14c.22,.13,.43,.26,.62,.38,.19,.13,.4,.24,.62,.34,.06,.03,.12,.06,.17,.07,.05,.02,.1,.04,.17,.07,1.92,1.06,3.5,2,4.75,2.83,1.25,.83,2.31,1.89,3.19,3.17,.88,1.28,1.32,2.75,1.32,4.42,0,2.27-.72,4.23-2.16,5.88-1.44,1.65-3.33,2.9-5.66,3.74s-4.8,1.27-7.39,1.27Zm-.82-33.46l-3.94-3.22,8.3-4.18,8.35,4.18-3.55,3.22-4.8-6.72-4.37,6.72Z"/>
        <path class="cls-1" d="M257.51,1031.78c-1.76,0-3.28-.41-4.56-1.22-1.28-.82-2.24-1.86-2.88-3.14-.64-1.28-.96-2.62-.96-4.03,0-1.25,.26-2.39,.79-3.43,.53-1.04,1.3-1.86,2.33-2.47,1.02-.61,2.22-.91,3.6-.91,.74,0,1.47,.12,2.21,.36,.74,.24,1.41,.6,2.02,1.08l.05-.05c-.22-.19-.42-.39-.58-.6s-.34-.41-.53-.6c-.67-.83-1.17-1.53-1.49-2.09-.32-.56-.48-1.16-.48-1.8,0-.96,.38-1.69,1.15-2.18,.77-.5,1.76-.74,2.98-.74,1.66,0,3.35,.44,5.06,1.32,1.71,.88,3.15,2.22,4.32,4.01,1.17,1.79,1.75,3.98,1.75,6.58v9.07h-7.73v-10.03c0-2.24-.28-4.07-.84-5.5-.56-1.42-1.24-2.47-2.04-3.14s-1.62-1.01-2.45-1.01c-.54,0-.95,.15-1.22,.46s-.41,.68-.41,1.13c0,.58,.16,1.16,.48,1.75,.32,.59,.85,1.32,1.58,2.18,.26,.32,.53,.65,.82,.98,.29,.34,.56,.68,.82,1.03,.06,.03,.1,.06,.1,.07,0,.02,.02,.04,.05,.07,.48,.58,.9,1.2,1.25,1.87s.63,1.42,.84,2.23c.21,.82,.31,1.74,.31,2.76s-.22,1.95-.67,2.88c-.45,.93-1.15,1.68-2.11,2.26-.96,.58-2.14,.86-3.55,.86Zm3.22-2.21c.77,0,1.38-.37,1.82-1.1,.45-.74,.67-1.71,.67-2.93s-.2-2.35-.6-3.5c-.4-1.15-.95-2.1-1.66-2.86-.7-.75-1.49-1.13-2.35-1.13-.45,0-.83,.15-1.15,.46-.32,.3-.57,.74-.74,1.3-.18,.56-.26,1.27-.26,2.14,0,1.31,.22,2.56,.65,3.74,.43,1.18,.98,2.13,1.66,2.83,.67,.71,1.33,1.06,1.97,1.06Z"/>
        <path class="cls-1" d="M274.55,1031.1v-20.35h7.68v3.6h.1c.7-1.38,1.71-2.46,3.02-3.26,1.31-.8,2.67-1.2,4.08-1.2,1.25,0,2.4,.27,3.46,.82,1.06,.54,1.9,1.36,2.54,2.45,.64,1.09,.96,2.4,.96,3.94v13.82h-7.68v-14.5c0-1.25-.26-2.23-.79-2.95-.53-.72-1.19-1.08-1.99-1.08-.48,0-.98,.18-1.51,.53-.53,.35-.99,.85-1.39,1.49-.4,.64-.66,1.41-.79,2.3v14.4h-7.68Z"/>
        <path class="cls-1" d="M298.79,1030.91v-30.24h7.68v19.39h.1c.86-1.63,2.06-3.23,3.58-4.8,1.52-1.57,3.11-2.85,4.78-3.84,1.66-.99,3.22-1.49,4.66-1.49v4.85c-1.82-.32-3.66-.19-5.52,.38-1.03,.32-2.01,.74-2.95,1.27-.94,.53-1.74,1.13-2.38,1.8l-.05,.14c1.12-.58,2.14-.86,3.07-.86,1.06,0,2.02,.44,2.88,1.32,.86,.88,1.59,1.91,2.18,3.1s1.27,2.7,2.04,4.56c.35,.86,.7,1.69,1.03,2.47,.34,.79,.66,1.43,.98,1.94h-7.68c-.19-.35-.38-.93-.57-1.73-.19-.8-.4-1.82-.62-3.07-.29-1.25-.58-2.42-.86-3.5-.29-1.09-.61-1.98-.96-2.69-.35-.7-.74-1.06-1.15-1.06s-.78,.14-1.1,.43-.6,.65-.84,1.08c-.24,.43-.42,.89-.55,1.37l-.05,.05v9.12h-7.68Z"/>
      </g>
    </g>
  </g>
</svg>