<svg xmlns="http://www.w3.org/2000/svg" viewBox="0 0 1600 1600"><defs><style>.cls-1{fill:#0c2544;}.cls-2{fill:#072341;}.cls-3{fill:#07172c;}.cls-4{fill:#18325b;}.cls-5{fill:#fec161;}.cls-6{fill:#f3eaf4;}.cls-7{fill:#b99ecb;}.cls-8{fill:#c22d26;}.cls-9{fill:#1d527f;}.cls-10{fill:#2f89c2;}.cls-11{fill:#773594;}.cls-12{fill:#a57eb8;}.cls-13{fill:#dc963b;}.cls-14,.cls-15{fill:none;stroke:#fed;stroke-miterlimit:10;}.cls-14{stroke-width:17px;}.cls-15{stroke-width:11px;}</style></defs><g id="Layer_3" data-name="Layer 3"><g id="nebo"><path class="cls-1" d="M1500.36,1273.2h8.5c2.18-5.33-.45-12,1.7-17.38h18.71c2.18-5.34-.46-12,1.7-17.39h102c2.16,5.34-.48,12,1.7,17.39h28.91c2.16,5.34-.48,12,1.7,17.38H1684c2.15,5.35-.48,12,1.7,17.39h18.71c1.46,5.54,1,11.14.25,17.65-9.64,3.38-19.58-1.2-29.16,2.63-1.73,4.26-.11,9.55-2.11,15.92-29.9,0-60.45,0-91.26,0A43.68,43.68,0,0,1,1582,1308h8.51c1.65-4.44.5-9.12.85-15.68-9.63.12-18.82-1.79-28.06,1.19-1.76,4.21-.08,9.49-2.1,15.84-13,.17-26.56.08-39.64,0-2.56-5.21-.92-10.48-2.34-15.77-5.75-3.8-12.34.18-18.79-2.41A40.92,40.92,0,0,1,1500.36,1273.2Z"/><path class="cls-2" d="M1835.86,995c-5.23,4.86-11.26,7.7-16.8,7.65v290.67c-.23.06-.47.12-.69.2-1.77,4.22,0,9.55-1.82,14.88-6.27,2.17-13,.75-19.41.79-3.13-4.34-.65-10.66-2.74-16-5.78-3.43-12.44,1-18.39-2.26-1.9-4.74-.17-10.07-2.25-16-12.5-.94-25.67.32-38.2-.6-2.3-5.49-.5-10.85-2.46-16.29-12.63-2.41-25.84.77-38.52-1.59-2.19-5-.28-10.39-2.37-15.92-5.51-1.75-11.73.12-17.53-1-3.08-4.5-.66-10.75-2.8-16.27-9-2.14-18.63.25-28-1.22-3-4.35-.45-10.66-2.32-15.12-1.63-2.73-3.7-1.81-5.6-1.81q-48.79-.09-97.59,0c-1.94,0-4-.75-5.75,1.42-1.8,4.21,0,9.57-1.86,15-12.65,3.27-25.94-1.6-39,2.43-1.73,4.23-.16,9.52-1.53,14.77-9.54,3.39-19.49-1.23-29.07,2.61-1.82,4.21,0,9.57-1.84,14.94-6.5,1.88-13.36,1.27-19.93.23-2.15-5-.33-10.31-2.4-16.25-8.56-.06-17.69-1.8-26.85,1.08-2,4.33.26,10.14-1.69,14.52-2.57,3.33-6-.54-8.52,2.87-2,4.33.27,10.13-1.69,14.51-2.57,3.33-6-.54-8.51,2.89-2.08,10.2.14,21-1.57,33.26-23.74.11-47.57,0-70.86.05-2.47-5.51-.79-10.85-2.33-16-5.89-3.73-12.56.77-18.54-2.35-2-4.54-.27-9.9-2.07-15.43-5.72-2.87-12.33.79-18.21-1.76-2.13-4.89-.43-10.2-1.84-14.69-2.44-4.06-6.1,0-8.71-3.4-1.79-4.2,0-9.53-2-15.45-8.61-.2-17.73-1.87-26.89,1-2,4.33.26,10.14-1.69,14.52-2.57,3.33-6-.54-8.52,2.87-1.73,4.23-.16,9.51-1.54,14.78-9.54,3.4-19.48-1.24-29.07,2.62-2,4.33.27,10.12-1.68,14.51-2.58,3.32-6-.54-8.52,2.87-2,4.33.26,10.12-1.69,14.52-2.57,3.31-6-.54-8.51,2.87-2,4.33.25,10.12-1.69,14.51-2.57,3.32-6-.54-8.51,2.87-1.74,4.24-.17,9.52-1.55,14.77-9.54,3.39-19.48-1.22-29.07,2.62-1.79,4.22,0,9.58-2.17,15.87-16.39.1-33.44.1-49.9,0-2.45-5.71-.61-11.1-2.22-15.51-2.3-3.65-5.47-.43-8.34-3-2.51-3.61,0-9.89-1.95-14.54-2.27-3.43-5.46-.24-8.17-2.73-2.54-3.89-.2-10.14-2.25-15.58-5.76-2-12,.34-17.81-1.25-2.93-4.54-.4-10.85-3.09-16.72-15.6-.41-31.91,0-47.66-.24-3.19-5-.66-11.35-3.07-16.49-5.64-2.25-11.92.46-17.66-1.4-2.84-4.66-.3-11-2.45-15.38-2.48-3-5.61,0-8.21-2.57-2.3-4.24.12-10.49-2-14.91-2.5-2.86-5.63.14-8.24-2.61-2.06-4-.19-9.4-2-15.25-9.06-2.35-18.92.44-28.22-1.42-2.37-4.85-.62-10.18-2.51-16.71-15.84-.31-32.39.08-49-.21-2-11.36,0-22.14-1.37-32.39-2.49-4.62-6.19-.27-9-3.95-1.66-3.89-.12-9.17-1.26-13.43-2.54-4.56-6.23-.31-8.87-3.84-1.86-4.06,0-9.46-2.24-15.85-11.81.7-24.34-1.57-36.89,1.46-1.74,4.24-.16,9.52-1.54,14.77-9.54,3.41-19.48-1.22-29.07,2.61-1.93,4.37.12,10.09-1.44,14.22-2.82,3.63-6.22-.24-8.77,3.18-1.83,4.22,0,9.57-1.7,14.65-5.87,3.74-12.56-1.16-18.7,2.74-1.77,4.23,0,9.55-2.13,15.83-16.4.21-33.45.06-50,.08-2.3-5.52-.82-10.72-2.39-16.45a3.6,3.6,0,0,0-.12-.44h-.13c-26.24-1.21-52.89.11-79-.7-2.42-5.41-.7-10.76-2.49-16.34-9.16-2.41-19,.65-28.29-1.46-2.32-5-.42-10.4-2.54-16.21-8.57-.41-17.68-1.92-26.84.9-1.83,4.24,0,9.59-1.71,14.66-5.86,3.74-12.56-1.16-18.69,2.74-2.11,10.2.19,21-1.33,31.11-2.62,4.49-6.29.17-8.88,3.66a289.52,289.52,0,0,0,0,49.27H531c1.8,11.36.6,22.79.63,33.69-2.86,4.66-6.5.6-9.13,4-1.84,4.22,0,9.58-1.71,14.64-5.86,3.75-12.56-1.15-18.7,2.75-2.1,10.2.19,21-1.32,31.1-2.63,4.49-6.29.18-8.88,3.67-1.76,4.23-.05,9.56-2.14,15.86-13,.14-26.69,0-39.72.06-2.43-5.71-.66-11-2.52-16.4-3.93-2.06-8.46-1.05-12.87-.87-18.32.71-36.68-2-55,1.35-1.72,4.22-.13,9.47-2,15.89-13.05.08-26.65.08-39.71,0-2.61-4.79-.93-10.28-2.09-14.55a8.21,8.21,0,0,0-.5-1.36,3.42,3.42,0,0,0-.42-.43c-2.41-2.17-5.32.21-8.09-2.44a39.94,39.94,0,0,1,.09-17.37h8.49c1.41-4.54,1-9.15.23-14.86-6.07-2.8-12.61.44-18.54-1.76-2.2-4.76-.52-10-1.78-14.68-2.33-4.28-5.94-.25-9.16-3.82-.62-11-1.22-22.7.34-34.42h8.51c1.9-10.4.29-20.86.82-30.36-3-4.76-6.11-1.78-8.85-3.81-2.76-3.83-.17-10.16-2.5-15.57-.56-1.1-2-.95-3.41-1q-55.2,0-110.4,0c-1.67,0-3.42-.48-4.91,1.44-1.72,4.24-.13,9.52-1.69,15-16.25,3.08-32.89-1.47-49.33,2.4-1.78,4.22,0,9.56-2.16,15.86-13,.11-26.64.11-39.7,0-2.42-5.65-.69-11-2.64-16.88-8.62-.17-17.75-1.85-26.92,1-1.85,4.38,0,10-1.4,14.15-2.86,3.68-6.26-.18-8.8,3.23-1.84,4.24,0,9.58-1.71,14.66-5.87,3.74-12.56-1.16-18.7,2.73-1.65,4.26-.23,9.5-1.57,14.89C18.24,1277,5,1272.06-8.07,1276.11c-1.72,4.22-.16,9.5-1.74,15.49-10,.85-20.28.45-30.1.24-2.08-5.49-.73-10.69-1.61-14.62-2.78-4.86-6.47-.51-9.08-4.14-1.7-4-.09-9.12-1.4-13.6h0a4.42,4.42,0,0,0-.15-.48,4.3,4.3,0,0,0-.63-.82c-2.33-2.44-5.6.79-8-2.49-1.78-4.14,0-9.5-2-15.4-8.57-.11-17.7-1.83-26.85,1-2,4.33.26,10.14-1.68,14.52-2.58,3.33-6-.54-8.52,2.87-2,4.33.26,10.13-1.69,14.51-2.58,3.33-6-.54-8.52,2.89-1.77,4.22,0,9.55-2.16,15.92-13,0-26.61,0-39.65,0-2.54-5.6-.66-11-2.86-17.09-15.79-.74-32.32.19-48.27-.46-2.32-5.42-.75-10.72-2.21-16.1-9.44-3.07-19.35.81-28.75-2,0-.1-.07-.19-.1-.29v-1.44c-.05-.09-.09-.21-.14-.33,0-3.43,0-7,0-10.53l.15.36V908.07h39.78a3.32,3.32,0,0,1,.89,2.47c0,4.35,0,8.69,0,13a3.66,3.66,0,0,0,.41,1.16c.23.24.44.7.67.7,9.61,0,19.23,0,28.7,0,1.42,2.79.58,5.79.81,8.52s-.46,5.69.5,8.33c7,.71,31.15.76,39.74.08.2-.34.55-.69.55-1,0-3.85,0-7.72,0-11.54.83-1.4,1.64-2.76,2.43-4.13,2.45-.89,5,.67,7.37-.73,1-4.41-.05-8.77.52-12.23,1-1.93,1.71-3.37,2.38-4.71h68.12c.24-.39.61-.73.62-1.08.11-3.82.18-7.64.26-11.86l2.2-3.95c2.16-1,4.41-.27,6.64-.4,2.54-.14,5.1,0,7.64,0,2.27,0,4.54.1,6.81,0s4.48.52,6.62-.33c.25-.46.61-.8.61-1.14q0-14.49,0-28.92c.82-1.41,1.62-2.78,2.44-4.17,2.45-.43,5,0,7.26-.22,1-4.89.06-9.25.62-12.71l2.3-4.57H40.59c1.61,5.3-.16,11.28,1.09,16.86,3,1.18,6.1-.16,9.13.78,1.24,2.49.42,5.47.64,8.22s-.47,5.69.52,8.31c7.18.7,41.66.74,49.94.06.19-.35.53-.7.54-1.05,0-3.85,0-7.7,0-11.51l2.56-4.35c12.33,0,24.79,0,37.24,0,.22,0,.44-.52.7-.86.68-2.17.18-4.6.31-6.91.11-1.87-.19-3.81,0-4.74,1.07-2.15,1.8-3.59,2.47-4.92h17.13c1.05-3.71,1.08-4.93.34-16.86-3-1.19-6.08.19-9.12-.78-1.23-2.49-.4-5.47-.63-8.22s.47-5.69-.56-8.42c-2.18-1-4.43-.24-6.66-.39-2-.15-4,.07-5.95,0-2.22-.15-4.48.52-6.62-.35-.25-.48-.6-.81-.6-1.18,0-4.82,0-9.64,0-14.62-3.1-2.92-6.61.14-9.73-1.84a3.51,3.51,0,0,1-.45-1.16c0-3.84,0-7.66,0-11.26l2.55-4.35h6.79c.85-2.39.85-2.39.87-12.43a13.77,13.77,0,0,1,3-5.12h16.69c.3-.51.67-.85.67-1.19,0-3.84,0-7.7,0-11.73l2.79-4.29h87.94c.23,0,.47.43.7.65a3.41,3.41,0,0,1,.43,1.13c0,4.79,0,9.58,0,14.13.35.59.55,1.22.75,1.24,6.22.11,12.44.14,18.66.25.21,0,.43.52.75.94.77,5-.22,10.26.48,15.37.21.35.41,1,.62,1,2.83.08,5.66.05,8.66.05,1.68,5.22-.05,11.18,1.08,16.78,2.09,1.49,4.35.35,6.55.57s4.54.05,6.81.05H336.3c.29-.49.66-.83.67-1.17.12-3.83.17-7.65.25-11.84l2.15-3.85c7.43-.7,30.16-.72,38,0,.19.34.53.69.53,1.06,0,4.8,0,9.63,0,14.42.5.49.94,1.35,1.41,1.35,5.66.09,11.33,0,17,.09a4.44,4.44,0,0,1,1.55.64,3.48,3.48,0,0,1,.44,1.12c0,4.79,0,9.6,0,14.15.34.59.54,1.22.74,1.22q14.43.16,28.86.19c.22,0,.43-.52.78-1,.62-4-.08-8.28.23-11.44l2.49-5h6.88a3.3,3.3,0,0,0,.84-2.44c0-3.38,0-6.76,0-10.38.7-1.25,1.47-2.61,2.22-4,1.95-1,3.91-.38,5.85-.49s4,.06,6,0,3.91.51,5.81-.46c.2-.38.54-.73.54-1.1,0-3.85,0-7.69,0-11.46.86-1.45,1.66-2.81,2.46-4.19,28-.72,33.11-.62,38,.7.65,2.74.23,5.61.34,8.43a64.94,64.94,0,0,0,.16,6.9c.3.51.49,1.15.69,1.15,2.83.06,5.67,0,8.66,0,1.68,5.21-.06,11.17,1,16.53.23.29.43.83.65.83,2.82,0,5.64,0,8.29,0a3.28,3.28,0,0,1,.92,2.54q0,6.51,0,13a5.77,5.77,0,0,0,.59,1.53c2.85.72,5.93-.09,8.84.45.31.52.67.85.68,1.2,0,4.81,0,9.63,0,14.39.48.59.91,1.55,1.33,1.55,6,.12,11.91.08,17.86.05.24,0,.48-.32.72-.49.18-.35.53-.71.53-1.06,0-9.65,0-19.29,0-28.86.85-1.45,1.65-2.82,2.55-4.34,5.56,0,11.21,0,16.87,0,.22,0,.42.54.66.86.63,2.73.2,5.61.33,8.42.1,2.35-.25,4.76.21,6.92.25.46.45,1.12.64,1.12,16.44,0,32.88,0,49.32,0,1.63,2.3.59,5.4.82,8.11s-.29,5.69.42,8.68c2.09,1.45,4.35.34,6.55.55s4.54,0,6.8,0h46.62c.3-.51.68-.84.68-1.19,0-3.82,0-7.65,0-11.44.85-1.52,1.61-2.9,2.36-4.25,7.69-.68,30.47-.68,38.05,0,.18.35.52.69.52,1,0,4.83,0,9.65,0,14.61,3.11,2.89,6.62-.17,9.73,1.83a4,4,0,0,1,.45,1.2c0,10.6,0,21.18,0,31.33.49,1.41.95,1.65,1.57,1.65,15.86,0,31.73,0,47.61,0,.63,0,1.13,0,1.61,1.16.76,4.81-.25,10.12.47,15.21.2.37.41,1,.61,1,16.43,0,32.87,0,49.48,0,1.68,5.2-.07,11.16,1,16.53.22.28.43.82.65.82q29.73,0,59.38,0c.29-.49.66-.82.67-1.17.11-3.82.16-7.66.24-11.83l2.21-4c2.17-1,4.43-.25,6.65-.38,2.54-.14,5.1,0,7.65,0H928.5c1-4.59,0-8.95.67-13.39.63-1.09,1.43-2.46,2.29-3.92h6.67c.37-.76,1-1.44,1-2.12.06-10.15,0-20.29,0-30.43a6.54,6.54,0,0,0-.24-1.28c-.2-.33-.39-1-.59-1-9.64,0-19.28,0-29.08,0-1.67-5.21.07-11.18-1-16.52-.22-.31-.44-.83-.64-.83-13,0-26.05,0-38.92,0a3.34,3.34,0,0,1-.92-2.52q0-6.51,0-13a3.29,3.29,0,0,0-.43-1.12c-.22-.24-.45-.67-.68-.67-9.61,0-19.21,0-28.69,0-1.38-2.84-.56-5.82-.78-8.57s.47-5.69-.54-8.31c-1.93-1-3.9-.38-5.84-.49s-4,0-6,0H807.33c-.44-.85-.79-1.2-.79-1.55,0-3.85,0-7.71,0-11.48.84-1.45,1.65-2.81,2.55-4.35h17.35c1-5,.07-9.33.61-12.61l2.29-4.7h78.4a3.24,3.24,0,0,1,.84,2.45q0,6.51,0,13a3.42,3.42,0,0,0,.42,1.12c.23.24.45.67.68.67,19.81,0,39.62,0,59.29,0,1.39,2.82.57,5.81.79,8.55s-.46,5.69.58,8.42c2.18,1,4.43.26,6.65.38,2.55.15,5.1,0,7.65,0h55.73c.45.84.8,1.19.8,1.54,0,4.82,0,9.65,0,14.42,1.41,2.71,3.21,1,4.81,1.4s3.34-.54,4.92.66a3.78,3.78,0,0,1,.47,1.15c0,4.8,0,9.59,0,14.16.33.57.52,1.21.73,1.22,2.82.13,5.63.14,8.46.27.22,0,.42.51.66.81.66,2.73.22,5.6.35,8.42.1,2.35-.23,4.75.21,7,.22.38.42,1,.63,1,13,0,26.07,0,39.18,0a3,3,0,0,0,.51-1c.62-3.76.1-7.6.29-11.45a13.38,13.38,0,0,1,2.67-4.78h47.62c1.31,2.67.56,5.65.69,8.39s0,5.6,0,8.17c2.73,1.22,5,.53,7.21.64,2.55.14,5.1,0,7.65,0h21.25c2.56,0,5.1-.1,7.66,0,2.23.11,4.47-.52,6.61.35.26.46.61.81.61,1.16,0,4.82,0,9.64,0,14.43.48.49.94,1.36,1.39,1.36,9.35.08,18.7.07,28.05,0,.24,0,.47-.42.7-.64a3.26,3.26,0,0,0,.44-1.11c0-3.84,0-7.66,0-11.28.94-1.58,1.74-3,2.55-4.33h47.69a3.53,3.53,0,0,0,.5-1c.63-3.74.11-7.6.29-11.44a13.85,13.85,0,0,1,2.94-5.11h47.57c1.26-4.15-.12-8.59.91-13.62l2.38-3.6c1.79,0,4,0,6.26,0,.24,0,.46.41.69.64a3.51,3.51,0,0,1,.45,1.12c0,4.79,0,9.6,0,14.15.33.57.53,1.21.73,1.22,2.82.13,5.65.14,8.46.27.22,0,.43.51.66.81.67,2.73.22,5.61.35,8.42.1,2.35-.23,4.76.22,7,.21.38.42,1,.62,1,9.64,0,19.26,0,29,0a3,3,0,0,0,.52-1c.62-3.76.05-7.62.39-11.8a13.66,13.66,0,0,1,2.84-4.75h6.5c.3-.5.67-.84.67-1.18,0-3.86,0-7.7,0-11.73l2.86-4.31c.93,0,2.31.09,3.7,0,1.09-.1,2.24.63,3.37-.8.9-3.93-.12-8.31.47-12.45.81-1.38,1.61-2.74,2.4-4.11h57.83c1.64,2.27.6,5.38.82,8.09s-.28,5.7.36,8.43c.23.3.44.84.65.84,2.83,0,5.65,0,8.3,0a3.33,3.33,0,0,1,.93,2.54c0,4.34,0,8.69,0,13a3.69,3.69,0,0,0,.43,1.12c6.22.94,25.63,1.11,39.71.35.2-.33.57-.67.57-1,0-3.86,0-7.71,0-11.73l2.64-4.07c2.2-1,4.76.68,7.25-.88,1-4.14-.08-8.51.51-12.62.81-1.4,1.61-2.76,2.4-4.13h7c1.69,5.22-.07,11.19,1,16.55,5,1.3,5.64,1.31,29.52.66.19-.33.57-.68.57-1,0-3.82,0-7.64,0-11.43l2.5-4.48a21.11,21.11,0,0,1,7.18,0c.3.61.64,1,.64,1.32,0,4.82,0,9.63,0,14.29.41,1.08.86,1.51,1.44,1.51h46.75a15.57,15.57,0,0,1,2.26.35,6,6,0,0,1,.56,1.46c0,4.81,0,9.6,0,13.93.48,1.43,1,1.67,1.56,1.67q54-.06,108,0c.79,0,1.69-.56,2.36.87a4.26,4.26,0,0,1,.31,1.14q0,5.09,0,10.15c0,1.4-.09,2.78-.13,4-.3.53-.51,1.16-.71,1.18-6.23,0-12.47,0-18.87,0-1.67,5.22.07,11.18-1,16.53-.21.3-.43.82-.65.82q-50.14.07-100.13,0a3.26,3.26,0,0,0-.91,2.5q0,6.53,0,13a3.52,3.52,0,0,1-.42,1.14c-.23.23-.46.67-.68.67-13,0-26,0-38.9,0-1.38,2.83-.56,5.81-.79,8.55s.48,5.7-.56,8.41c-2.18,1-4.43.25-6.66.4-2,.14-4-.07-6,.06-2.22.14-4.48-.54-6.62.35-.25.46-.59.81-.59,1.16,0,4.82,0,9.64,0,14.43.49.49,1,1.35,1.4,1.35,17.57.08,35.14.06,52.71.06q22.53,0,45.06,0a16.27,16.27,0,0,1,2.27.33,5.15,5.15,0,0,1,.57,1.43c0,4.79,0,9.59,0,14,.47,1.34.93,1.62,1.54,1.62,15.86,0,31.74,0,47.61-.05a1.36,1.36,0,0,1,1.53.92c.67,2.67.22,5.56.34,8.36.09,2.37-.15,4.76.15,7,.28.48.48,1.13.68,1.13,9.64.05,19.26,0,28.89,0a7.59,7.59,0,0,1,.85,2.28c.08,4.35,0,8.7,0,13a5,5,0,0,0,.32,1.22c.21.29.43.84.63.84,9.63.05,19.26.05,28.81.05.27.46.62.78.65,1.16.41,5.14,0,10.37.23,15.08.61.67.84,1.11,1.07,1.11,6.21,0,12.42,0,18.5,0,1.4,2.79.56,5.77.79,8.51s-.46,5.7.52,8.33c1.64,1,3.33.33,5,.54,1.37.19,2.78-.46,4.1.43.23.4.57.74.58,1.09,0,4.83,0,9.65,0,14.44.49.49.93,1.36,1.39,1.36,3.73,0,7.48,0,11.21,0C1824.67,995,1830.26,995,1835.86,995Z"/><path class="cls-3" d="M1835.86,995c-5.23,4.86-11.26,7.7-16.8,7.65a14,14,0,0,1-9.52-3.73c-7.48-6.84-13-19.06-19.46-31.12-6.75-2.46-15.85-.17-18.88-16.21-10.85-7.12-25.11,6.3-31.14-17.81-10.81-6.14-24.48,6.23-30.8-18.2-11-2.66-21.75-1.35-32.46-1.23-7.88.08-14.74-1.92-18.15-14.68-4.3-3.71-8.33-2.79-12.26-2.82-22.67-.09-45.34,0-68-.05a91,91,0,0,1-9.34-.25c-5.32-.54-9.72-3.63-9.88-14.07s4-14.09,9.36-15c2.53-.41,5.1-.32,8.48-2.88,3.32-13.85,11-15.23,19.34-14.93,6.75.24,13.58,1.38,21.36-1.87,3.31-15.48,11.53-15.58,20.1-15.48,23.24.28,46.47.14,69.72.06,3.66,0,7.38.57,12-2.09,3.14-11.65,9.75-16.77,18.18-16.9-3.31-4.55-6.69-3.49-9.9-3.5-27.21-.11-54.41-.26-81.62.06-7.89.1-14.73-1.92-18.19-14.78-16.89-9.69-35.8,8.42-51.07-13.64-8.52,15.51-32,15.84-41.28-.81-3.72,8.45-9.77,12.43-13.15,21.84-2,5.69-5.94,6.95-9.77,7.07-8.22.31-16.44.26-24.66,0-4.88-.15-8.67-3.14-11.36-10.49-3.15-8.61-9.84-11.53-12.19-23.06-16.65-1.86-33.22-1.33-49.6-.32-8,16.83-17.77,29.2-25.45,45-1.5,3.07-3.59,5-5.86,5.45a56,56,0,0,1-21.2.19c-2.6-.42-5.26-2.38-6.45-6.29-3-10-9.53-13.28-13.57-22.8-5.34,11.82-12.46,12.66-20,12.61-10.14,0-20.36-1.55-31.11,1.54-3.59,15.55-11.47,15.86-19.73,15.82-10.15-.07-20.35-1.18-29.88,1-12.07,23.06-31.83,23-43.63-.14-9.8-2-20.28-1-30.71-.81-8.13.19-15.42-1.19-19.18-16.4a146.35,146.35,0,0,0-40.37.12c-3.7,15.09-11,17-19.15,16.15a45.67,45.67,0,0,0-5.1,0c-19.12,0-19.63.85-32.28-22.22-5.15-9.4-11.9-16.24-15.46-28.23-8.93-3.19-17.72-1.32-26.45-1.64s-17.58-.42-26.35,0c-7.88.41-14.82-1.51-18.35-16.1-11.79-2.66-23.4-.87-35-1.35-4-.17-7.94-.25-11.9-.09-6.7.27-11.42-4.76-14.33-16.56-23.57-1.43-46.94-.78-70.62-.41-3.69,14.08-10.62,17.44-18.33,19.31,5,4.35,10.3,2.76,15.37,3,6.29.34,9.47,7.49,12.47,14.87,10.14,7.13,24.06-6.63,30.35,17.3,7.19,4.28,14.33,2.3,21.34,2.37,8.23.07,16.24,0,19.37,14.94,5.6,3.68,10.47,2.33,15.24,2.58,5.56.3,10.94.75,13.23,11.66,2.56,12.07-.68,25.41-4.6,34.53-8.5,19.77-20.39,19.46-33,18.23-4.3,17.6-12.83,17.67-21.61,17.38-10.77-.33-21.56-.46-32.31,0-7.91.36-14.73-1.86-18.54-16-11.06-2.94-22.11-1.44-33.08-1.3-7.69.08-14.08-2.41-17.67-15.48-8.22-3.81-16.47-1.49-24.6-2.05-4.25-.28-8.51.16-12.75-.24-8.41-.79-11-4.95-12.06-19-.29-3.83-.24-7.73-1.41-12.26-3.84-5-8-10.71-10.88-19.24-9.87-2.59-19.66-1.69-29.89-.37-3.71,15.18-11,16.72-19.14,16.39q-17.42-.75-34.86,0c-7.68.33-14.08-2.38-17.85-15.93-10.36-3-20.85-1.36-31.26-1.44-8.26-.07-16.18-.19-19.25-14.71-4.15-3-7.12-2.74-9.44-.5-2.36,3.72-2.53,7.66-2.64,11.5-.28,9.34-1.65,17.94-7.79,19.78-6.38,1.91-13,3.22-18.22-6.44-9.09-16.74-18.29-33.3-28.49-48.13-2.2-3.2-3.29-7.85-6.13-12.21-9-3.14-18.82-1.46-29.29-.67-3.49,15.66-11.62,16.73-19.9,17.56-3.58,11.61-10.9,16.65-14.93,27.35a8.34,8.34,0,0,1-6.67,5.71,71.76,71.76,0,0,1-19.53.12c-5.51-.62-8.07-8-11.33-15.38-7.65-1.86-16.65-1-19.95-17.53a76.79,76.79,0,0,0-30.17,0c-3.76,15.81-11.85,16.44-20.47,16.11-11.89-.46-23.8-.14-35.7-.13-6,0-10.88-2.3-14.36-12-2.9-8.07-9.6-10.44-11.13-21.11-8.57-1.89-17.52-1.18-21.05-18.73-27.07-.42-53.62-.5-80.74.06-3.73,16.73-12.31,17.4-20.09,18.1a122.59,122.59,0,0,1-9.66,18.89c3.37,6.09,6.54,11.45,9.38,19,10.29-2.72,16.68,8.78,23.31,20.06,2.85,4.86,4.68,9.69,3.77,16.53-.94,7.17-4.14,10-8,10.93-2.79.67-5.67.41-9.48,3.09-3.38,14.66-11.51,15.18-20.1,14.88-6.46-.21-13-1.35-19.68,1.6C98.66,889.84,83,875.38,69.76,879.5c-16.7,5.22-24.62-15.28-34.5-33.55-9.09-2.23-18.86-1.89-28.71-.08C3.12,853.55-.22,860.67-4.75,865c-2.74,10.94.47,26.5-9,30.59-6.61,2.88-13.6-.5-21.2,3.34-3.8,15.48-12.32,15.51-21.1,15.3-13.33-.31-26.65-.16-40,0-3.38,0-6.82-.49-10.52,2.76-3.19,10.66-10.11,16.34-14.75,26.16-4.45,9.4-37,8.26-42.46.16-1.94-2.89-2.65-7.51-5.65-10.36-9.47-5.25-23.1,6.95-29.12-16.13-4.71-3.57-9-2.59-13.23-2.59l-22.35-.05V-13.46H1819.06V995C1824.67,995,1830.26,995,1835.86,995Z"/><path class="cls-3" d="M286.13,888.46a7.18,7.18,0,0,1-.27,1.25c-.21.32-.4.94-.61.94-9.06.05-18.14,0-27.17,0l-2.5,4.25v11.31c-.44.67-.84,1.75-1.23,1.76-7.65.1-15.31,0-22.95.08-1.39,0-2.79-.27-3.7.08-1.19,1.76-2,3-2.83,4.16V924c-.37,1.05-.84,1.43-1.41,1.43-8.79,0-17.58,0-26.51,0-.73,1.19-1.53,2.49-2.53,4.09-.32,3.89,0,8.17-.13,11.93-.48.73-.68,1.33-.88,1.33-5.67.05-11.34.05-17,.05-.83,1.41-1.63,2.79-2.5,4.25v11.33c-.44.66-.84,1.73-1.24,1.73-5.38.11-10.77.06-16.15.09-.26,0-.5.26-.29.13-1.18,1.73-2.05,3-2.82,4.08v11.73c-.38,1.07-.85,1.45-1.43,1.45-5.39,0-10.77,0-16.3,0-.73,1.19-1.53,2.49-2.31,3.74-.83,4.21.16,8.57-.62,12.69a1.25,1.25,0,0,1-1.46,1c-10.22-.06-20.42,0-30.62,0H94.82c-.84,1.44-1.65,2.8-2.5,4.26v11.34c-.44.65-.85,1.72-1.25,1.72-11,.08-22.1,0-33.16.09-1.38,0-2.79-.41-3.59.05-1.27,1.82-2.13,3-2.91,4.17v11.72c-.39,1.08-.85,1.43-1.44,1.43-5.38,0-10.76,0-16.28,0-.74,1.21-1.55,2.51-2.4,3.89-.62,4.09.06,8.42-.32,12.23-.43.65-.63,1.24-.84,1.24q-14.44.06-28.85,0c-1.57-2.42-.59-5.5-.82-8.21s.33-5.7-.4-8.39c-.24-.27-.46-.75-.68-.75-2.81-.06-5.63,0-8.33,0-1.45-2.71-.57-5.71-.8-8.43s.42-5.7-.49-8.33c-.25-.22-.49-.59-.73-.59q-17.43,0-34.85,0a14,14,0,0,0-2,.19c-1.21,1.69-2.07,2.91-2.85,4v11.85c-1.67,1.31-1.67,1.31-17.73,1.31-.73,1.21-1.54,2.53-2.4,3.92-.59,4.08.05,8.39-.28,12.17-.46.7-.66,1.27-.87,1.27-2.26.06-4.53,0-6.73,0l-2.5,4.27v11.39c-.46.62-.86,1.65-1.27,1.65q-34.43.12-68.86.06c-.25,0-.5-.27-.72-.39-.22-.38-.59-.72-.6-1.05,0-4.82,0-9.66,0-14.48-.46-.49-.9-1.38-1.36-1.38-8.78-.1-17.57-.07-26.35-.08a14.91,14.91,0,0,1-2.28-.32c-.29-.63-.6-1-.61-1.36,0-4.81,0-9.61,0-14.61-2.14-2.06-4.42-.79-6.59-1a64.25,64.25,0,0,0-6.8-.07H-203a9.71,9.71,0,0,1-.63-1.93c0-4.78,0-9.57,0-14-.4-.7-.6-1.33-.8-1.33-6.23,0-12.46,0-18.66,0a6.84,6.84,0,0,1-.9-2.25c-.09-4.35,0-8.7-.06-13a5.57,5.57,0,0,0-.29-1.24c-.21-.32-.41-.89-.62-.89-2.84-.06-5.66,0-8.58,0a14.82,14.82,0,0,1-.56-2.61V942.85l19.06,0c.24,0,.47.38.7.57.17.36.48.73.48,1.09,0,4.81,0,9.61,0,14.6,2.14,2.09,4.42.82,6.59,1s4.53-.09,6.8.11,4.46-.82,6.54.5a5.2,5.2,0,0,1,.45,1.39c0,4.78,0,9.57,0,14.36,2.27,2.23,4.56.76,6.74,1a54.94,54.94,0,0,0,6.79.06h6.4c.74,3.71.38,6.6.48,9.42.08,2.35-.2,4.73.18,6.85.33.5.54,1.08.75,1.08,9.62,0,19.25,0,29,0,1.69,5.29-.1,11.27,1.07,16.57.26.3.48.78.7.78,9.62,0,19.23,0,28.73,0,1.46-2.71.59-5.71.81-8.44s-.43-5.69.54-8.48c2.16-1.08,4.41-.26,6.62-.43,2-.16,4,0,6,0h6.45c.45-.77.82-1.1.82-1.45,0-4.84,0-9.66,0-15.37-2.82-1-5.06-.43-7.3-.55-2-.11-4,.11-6,0-2.21-.18-4.46.65-6.58-.41-.24-.53-.55-.88-.55-1.26,0-4.8,0-9.61,0-14.59,2.14-2.08,4.42-.81,6.59-1.05s4.54.11,6.8-.09,4.46.82,6.54-.49a5.45,5.45,0,0,0,.46-1.4c0-4.79,0-9.56,0-13.74.52-1.6,1-1.74,1.63-1.74q69.29,0,138.58,0c.78,0,1.74.76,2.5-1.67.41-2,0-4.87.14-7.69.11-2.35-.28-4.76.25-7,.24-.37.45-1,.65-1,19.84,0,39.66,0,59.6,0,1.72-5.27-.08-11.25,1.08-16.56.24-.28.46-.79.69-.79,9.61,0,19.23,0,28.71,0,.33-.56.69-.88.71-1.26.28-5.15,0-10.37.17-15.1a6.21,6.21,0,0,1,1.16-1,2.16,2.16,0,0,1,.84,0h27.21c.24,0,.5-.26.75-.38.2-.34.57-.69.57-1,0-4.84,0-9.66,0-14.47.46-.5.9-1.44,1.34-1.44,11.91-.08,23.81-.05,35.71-.08,1.09,0,2.22.45,3.43-.63.83-5,0-10.28.45-15.47.33-.89.78-1.28,1.37-1.28q29.32,0,58.66,0c.23,0,.44.45.67.7a3.74,3.74,0,0,1,.41,1.14c0,4.79,0,9.59,0,14.15,1.63,2.4,3.39,1,5,1.35s3.35-.78,4.87.87a5.38,5.38,0,0,1,.32,1.27Q286.16,881.95,286.13,888.46Z"/><path class="cls-3" d="M1021.18,925.46c-.88-6.1.14-11.4-.65-16.4-.28-.39-.49-.95-.7-.95-6.22-.05-12.44,0-18.75,0-1.66-5.33.12-11.3-1.05-16.57-.28-.31-.5-.78-.72-.78-6.21,0-12.42,0-18.48,0-.35-.59-.7-.89-.73-1.28-.43-5.13.26-10.4-.43-15.56-3.17-1.42-6.28.24-9.28-.93-.2-.36-.58-.69-.58-1,0-4.82,0-9.64,0-14.48.42-.49.86-1.39,1.31-1.41,2.54-.14,5.09-.06,7.64-.09.24,0,.48-.35.71-.54.18-.36.5-.71.5-1.08,0-4.8,0-9.61,0-14.23.41-1.11.87-1.52,1.45-1.52q14,0,28,0c.23,0,.45.43.9.88.57,4.88-.06,10.14.38,15.28.33,1,.8,1.22,1.4,1.22,15.86,0,31.72,0,47.57,0,.64,0,1.14,0,1.68,1.19.68,4.73-.2,10,.43,15.14a3.72,3.72,0,0,0,.61,1c.23.18.54.09.82.09q24.21,0,48.42,0c.21,0,.42.57.7,1,.78,5-.24,10.31.49,15.35.24.39.44,1,.65,1q80.7.08,161.4,0c.21,0,.42-.55.71-.95.79-5-.23-10.29.48-15.21.26-.49.45-1.15.64-1.15,13-.05,26.06,0,39.08,0,1,2.84,1,2.84.54,16.5-.21.29-.42.84-.63.85-2.25.06-4.51,0-6.69,0-.88,1.5-1.68,2.86-2.51,4.29v11.42c-.45.59-.86,1.6-1.28,1.61-5.38.11-10.76.07-16.14.09-.25,0-.49.28-.07,0l-3,4.16V924.1c-.26.44-.43,1-.66,1.08a4.41,4.41,0,0,1-1.64.27h-25.62c-.73,1.19-1.54,2.49-2.32,3.75-.82,4.19.16,8.56-.61,12.68a3.35,3.35,0,0,1-.62.92c-.25.16-.56,0-.84,0q-99.83,0-199.63,0c-.8,0-1.7.55-2.36-.9a4.23,4.23,0,0,1-.31-1.15c0-4.34,0-8.68,0-13,0-1.39-.69-2.3-1.7-2.3Z"/><path class="cls-4" d="M46,1323.36a5.13,5.13,0,0,1,.31,1.21q0,5,0,10c0,1.39-.08,2.77-.11,4-.3.5-.5,1.13-.7,1.13-2.24.06-4.48,0-6.73,0-.61,1-1.19,2-1.83,2.92-.17.23-.55,0-.82,0V1356c-.65.71-.87,1.16-1.08,1.17-2.48,0-5,0-7.43,0a4.49,4.49,0,0,1,0,1.39c-.53,1.1-1.13,2.08-1.7,3.09v11.49c-1.77,1.65-1.77,1.65-9.65.87-.18-.36-.51-.71-.51-1.06,0-5.27,0-10.53,0-15.78-3,0-6.08,0-9.12,0-.22,0-.44-.46-.65-.69a3.67,3.67,0,0,1-.41-1.11c0-5.19,0-10.38,0-15.55H-3.84a7.06,7.06,0,0,1-.85-2.22c-.08-4.31,0-8.64,0-13a5.42,5.42,0,0,1,.28-1.24c.19-.32.4-.92.61-.92,3.1-.07,6.2,0,9.3,0v-15.85c.43-.5.85-1.44,1.29-1.45,2.53-.15,5.07-.07,7.61-.1.24,0,.48-.29.54-.33.35-.51.73-.83.74-1.15,0-4.8,0-9.59,0-14.4.45-.49.87-1.39,1.32-1.43,2.54-.12,5.07-.07,7.61,0,.24,0,.48.31.72.47.19.35.53.7.53,1,0,5.28,0,10.56,0,15.85,3,0,6.09,0,9.13,0,.21,0,.43.46.65.7a3.49,3.49,0,0,1,.41,1.11c0,5.18,0,10.37,0,15.54,3.09,0,6.17,0,9.26,0C45.55,1322.49,45.76,1323,46,1323.36Z"/><path class="cls-4" d="M1819.06,1291v322.51H-234.1V1254.63c-.05-.09-.09-.21-.14-.33,0-3.43,0-7,0-10.53l.15.36c6.34,15.91,18,7.82,28.43,11.77a2.48,2.48,0,0,1,.35.13,36.4,36.4,0,0,0,1.68,5.42c4.71,11.72,13.18,10.49,21.56,10.42,9-.06,18-1.23,26.47.92l.25.43a46.87,46.87,0,0,0,2.73,4.09c12.08,16.2,30.38,17.42,39.75,2.14a25.53,25.53,0,0,1,1.36-3.61,19.45,19.45,0,0,1,1.54-1.6h0c.22-.21.44-.43.68-.62,0,0,.06,0,.08,0,3.44-3.12,7.15-5.71,7.65-14a11.52,11.52,0,0,1,1.52-3c1.85-2.21,4.41-2,6-5.08,2.08-3,1.77-8.1,3.57-11.37a8.12,8.12,0,0,1,2.1-2.33c8.44-1.15,16.84-1.53,25.19.3l.16.36c.72,1.68,1.45,3.32,2.21,4.9,2.09,4.41,4.33,8.52,6.64,12.49.45.77.91,1.57,1.37,2.33l.78,1.3h0c.48.8.94,1.56,1.41,2.32,2.36,3.84,4.76,7.61,7.09,11.44q1.61,2.61,3.17,5.29c1,1.72,2,3.46,3,5.24,6,11.2,22.14,6.31,27.54-6.87a10.06,10.06,0,0,1,1.88-3.3c8.27-3.74,16.7-1.22,25.06-1.74,5.55-.35,10.7-1.41,13.47-11.15a13.06,13.06,0,0,1,1.52-3.51c2.64-3.62,5.81-2.7,8.82-2.78,4.92-.11,8.71-2.88,10.28-11.53a13.85,13.85,0,0,1,1.46-3.25c1.9-2.81,4.87-2.2,6.3-5.71,2.16-3.17,1.88-8.21,3.72-11.32a6.48,6.48,0,0,1,2.24-2.29,90,90,0,0,1,24-.06c.15.27.3.52.47.78a48.47,48.47,0,0,0,2.93,4.31c13.17,17.19,32.76,17.31,40.71-.65a10.17,10.17,0,0,1,2-3.39c11.48-3.68,23.08-1.08,34.62-1.59,6.39-.27,11.72-2.81,14.78-13.32a8.07,8.07,0,0,1,2.52-3.1c15.81-2.35,31.66-.77,47.49-1,19.53-.3,39.06-.13,58.58,0,3.31,0,6.68-.64,10.31,1.44a9.07,9.07,0,0,1,1.14.73c.69,1.25,1.39,2.54,2.1,3.84,2.35,4.28,4.85,8.67,7.5,12.77q1.23,1.95,2.52,3.76c0,.3.07.52.11.82v.06a117.24,117.24,0,0,1,.18,28.19c-1.14,5-4,6.71-6.25,9.71-4.33,13.51-3.4,15.89,2.81,26.79,0,.06.07.14.11.2,1.07,1.86,2.11,3.64,3.18,5.27,4.37,6.74,9,11.39,15.77,11.8a4.39,4.39,0,0,1,1.49.33,5.7,5.7,0,0,1,3.07,3.78c1.15,3.47.83,8.68-.38,13.64-1.41,3.59-3.89,4.82-5.63,7.6a38.64,38.64,0,0,0,2.77,9.72c.35.84.72,1.67,1.12,2.46.29.62.6,1.21.92,1.79.41.75.82,1.48,1.26,2.18,3.3,5.34,7.39,9.27,10.8,9.48,5.87.37,11.76-.36,17.61.19,6.45.64,10.76-3.61,13.05-13.91a7.46,7.46,0,0,1,2.23-2.65c21.92-1.84,43.82-.92,65-.49.2.33.41.67.62,1,1,1.49,1.93,2.87,2.94,4.16,13,16.45,30.91,17.21,40,1.36a16.21,16.21,0,0,1,1.55-3.74c1.8-3,4.67-3.11,5.65-5.47,4.55-8.79,1.88-18.74,3.77-27a12.21,12.21,0,0,1,1.58-3.26c2.48-2.81,5.31-2.18,8-2.13,5.25.08,9.16-3,10.75-12.17a12,12,0,0,1,1.56-3.1c9-7.62,10.07-14.26,4.71-28.54-2.19-2.35-4.75-3.82-6.13-8-1.64-15-.9-30-.51-45a15,15,0,0,1,1.21-4.15c1.72-3.27,4.64-3.38,5.65-5.79,4.59-8.77,1.8-18.83,3.8-27.19a10.07,10.07,0,0,1,1.69-3.25c2-2.21,4.31-2.25,6.5-1.92,6.13.9,10.13-3.55,12.55-12.37a.83.83,0,0,0,0-.15c.15-.52.29-1.06.42-1.61a6.86,6.86,0,0,1,2.36-2.56,75.88,75.88,0,0,1,24.48.08c.12.19.24.38.35.57.91,1.48,1.76,3,2.62,4.59,3,5.33,5.9,10.42,10.72,11.07,5.34.74,10.76-.81,17.11,1.68l1,.41a35.06,35.06,0,0,0,1.84,5.28v.07c4.88,11,13.18,10.45,21.61,10.34,18.92-.25,37.85-.49,56.34.21.19.38.39.76.58,1.12.35.67.7,1.3,1.06,1.91.08.15.16.3.25.44.59,1,1.17,1.92,1.77,2.78,13.08,19.06,28.81,9.24,43.49,8.85,2.93-.08,4.9-4.43,6.63-8.31a15.57,15.57,0,0,1,1.53-3.73c2.83-4.38,6.36-3.14,9.69-3.36,4.68-.32,8.22-3.29,9.76-11.35a14.06,14.06,0,0,1,1.41-3.26c1.85-2.86,4.73-2.29,6.41-5.68,2-2.81,1.81-7.68,3.38-11a9,9,0,0,1,2-2.53c4.95-1.92,10-1.1,15-.92,6.18.22,10.9-2.94,13.29-13.34a8.39,8.39,0,0,1,2.13-2.95c11.84-2.45,23.67-.89,35.25-.81.19.35.37.71.57,1.06.83,1.57,1.68,3.12,2.51,4.65,2.35,4.31,4.68,8.51,7,12.61,1,1.82,2.1,3.63,3.17,5.41q3.6,6.1,7.34,12,1.26,2,2.55,4c.14.52.27,1,.38,1.52v.06c1.47,7.33.18,16.44,5.07,25.1,12.71,7.26,27.69-.21,43.4,4.26h.08a6.57,6.57,0,0,1,.76.21,42.58,42.58,0,0,0,1.66,5.73c6.2,16.54,18.65,6.9,28.21,11.29l0,.11c.77,1.6,1.53,3.16,2.33,4.68v0c2.28,4.44,4.7,8.61,7.14,12.7,1,1.73,2.08,3.44,3.13,5.16,2.49,4.06,5,8.08,7.37,12.24q1.41,2.45,2.78,5c.68,1.23,1.34,2.49,2,3.77,4.2,8.28,10.36,6.46,16.47,8.52l0,.1a36.84,36.84,0,0,0,1.93,5.55c4.49,10.12,11.64,10.88,19.37,10.58,9.58-.38,19.21-1.18,29.53.92,0,.11.07.22.1.33a39.48,39.48,0,0,0,2,5.22v.06c4.13,9,10.37,11.85,17.41,11.17.16.33.31.65.48,1,.82,1.68,1.68,3.3,2.53,4.9,2.31,4.3,4.7,8.37,7.12,12.35,1,1.7,2.06,3.4,3.09,5.08,2.49,4.08,5,8.12,7.37,12.31,1,1.71,1.93,3.44,2.87,5.22.52,1,1,1.92,1.51,2.88,2.78,5.51,6.49,7.73,10.58,7.84q13.17.4,26.35,0c5.06-.15,9.47-2.91,12.06-11.11a13,13,0,0,1,1.68-3.58c5.5-4.84,11.44-2,17.17-2.51,5-.46,9.4-2,11.68-10.67a16,16,0,0,1,1.33-3.51l1.11-.94h0l.58-.49.06,0c3.56-2.94,7.15-5.86,7.72-14.07a11.68,11.68,0,0,1,1.53-3c4.42-2.17,7.9-6,8.71-14.51a11,11,0,0,1,1.56-3c4.69-1.65,7.29-6.84,8.81-13.85,0-.16.07-.31.11-.49a.29.29,0,0,1,0-.09c.09-.45.18-.92.27-1.38a8.74,8.74,0,0,1,1.95-2.57c5.57-2.13,11.22-.75,16.84-1.07,4.85-.28,8.88-2.6,10.76-11.1a15,15,0,0,1,1.43-3.39c1.87-3,5-2.37,6.37-5.9,2.27-3.22,2-8.36,3.91-11.5a6.35,6.35,0,0,1,2.3-2.24c8.17-.94,16.33-1.35,23.79.24.14.17.27.36.41.55,1,1.43,2,3,3,4.6,2.43,4,4.64,8.47,6.9,12.66,1.08,2,2.17,3.93,3.3,5.74,4.46,7.19,9.55,12.34,17,11l.37.59c1.18,1.89,2.19,3.5,3.1,4.92,5.33,8.26,7.17,9.31,16.77,12.59l2.05.7a36.15,36.15,0,0,0,1.55,4.71c4.13,10,11.15,11,18.77,10.67,12.15-.55,24.33-.17,36.49-.11,4.28,0,8.51-.17,12.21-4.53,3.46-6.25,2.95-14.26,3.36-21.83a15.27,15.27,0,0,1,.9-4,18.86,18.86,0,0,1,1.44-1.73c.29-.32.6-.62.92-.92,3.34-3.22,7.14-5.68,7.56-14a12.53,12.53,0,0,1,1.51-3c1.84-2.22,4.4-2,6-5,2.1-2.92,1.77-8.06,3.54-11.34a8,8,0,0,1,2.06-2.38,70.88,70.88,0,0,1,24.62.09l.26.48c1,1.82,1.92,3.49,2.82,5,9,15.09,14,14.28,20.24-1.06a10.86,10.86,0,0,1,1.8-3.33c5.34-3.76,10.94-1.7,16.42-1.91,5.75-.2,10.35-2.91,12.64-12.75a9.24,9.24,0,0,1,2-3.19c8.33-3.17,16.78-1.16,25.18-1.46,6.09-.2,11.1-2.84,13.77-13.07a8.53,8.53,0,0,1,2.22-3.14c9.56-2.69,19.18-1.08,28.78-1.19,22.63-.28,45.26-.12,67.9-.06,3,0,6.07-.48,10.16,1.43.48.22,1,.49,1.51.79a40.27,40.27,0,0,0,1.44,5c5.85,16.18,18,7.65,28.51,11.5l0,.08a39.12,39.12,0,0,0,2.06,5.13v.06c4.22,8.79,10.54,12.32,17.79,11.1q.23.6.45,1.14a43.84,43.84,0,0,0,2.16,4.76c10.3,19.48,25,6.89,37.48,12.6a12.6,12.6,0,0,1,1.41.73,45.87,45.87,0,0,0,1.92,4.52,0,0,0,0,1,0,0c9.62,19.37,24.43,6.61,37.42,12.1a18.86,18.86,0,0,1,1.86.92,33.44,33.44,0,0,0,1.53,4.39s0,0,0,0a0,0,0,0,1,0,0c4,9,10.61,11.18,17.21,11.37.1.18.21.35.31.51,1,1.73,2,3.3,2.9,4.73,9.15,14.26,12.77,13.45,20-.21a12.46,12.46,0,0,1,1.87-3.62C1818.44,1291.22,1818.74,1291.1,1819.06,1291Z"/><path class="cls-4" d="M808.22,1137c-.2-1.1,0-2,.6-2.43a2.94,2.94,0,0,1,1.59-.45q17.4,0,34.81,0a5.31,5.31,0,0,1,1.57.5c.18.36.52.71.52,1.07,0,4.81,0,9.62,0,14.59,3.11,2.87,6.61-.16,9.72,1.81a4,4,0,0,1,.47,1.18c0,4.79,0,9.59,0,14.55,3.22,2.47,6.69-.25,9.86,1.65.72,3.91.21,7.75.32,11.52.1,3.36,0,6.75,0,10.12v11.08c.4.69.6,1.33.8,1.33,16.41.07,32.82.09,49.23.16.21,0,.42.53.65.84.64,2.72.21,5.6.34,8.41.1,2.35-.23,4.75.21,7,.23.38.43,1,.63,1,9.62,0,19.24,0,28.86,0a7.16,7.16,0,0,1,.87,2.21c.08,4.34,0,8.68,0,13a5.49,5.49,0,0,0,.29,1.23c.21.32.41.89.62.9,2.82.06,5.65,0,8.57,0,1.7,5.29-.08,11.25,1.07,16.56.24.3.46.79.68.79,2.81,0,5.63,0,8.54,0,1.47,5.47-.15,11.4.94,16.59.38.36.61.76.84.76,6.2,0,12.4,0,18.46,0,1.37,2.84.64,5.81.76,8.56s0,5.6,0,7.9a8.18,8.18,0,0,0,1.26.91,2.68,2.68,0,0,0,.85,0H1039a4,4,0,0,1,.85,0,4.13,4.13,0,0,1,.75.39c.2.34.57.68.58,1,0,4.82,0,9.64,0,14.44.45.52.89,1.45,1.33,1.46,5.38.1,10.75,0,16.13.08a18.88,18.88,0,0,1,2.3.27c.3.59.64.94.64,1.3,0,4.81,0,9.62,0,14.6,3.1,2.88,6.6-.15,9.71,1.81a3.63,3.63,0,0,1,.47,1.18c0,4.79,0,9.58,0,14.54,3.22,2.49,6.69-.25,9.92,1.7.75,5.26-.13,10.54.49,15.66.2.34.4,1,.6,1q24.62.1,49.23.07c.21,0,.43-.54.79-1,.14-4,.24-8.2.48-12.39.06-1.07.76-1.37,1.41-1v15.92c-.44.49-.89,1.4-1.33,1.4q-25.9.12-51.81,0c-.24,0-.48-.32-.73-.49-.18-.35-.52-.7-.52-1.06,0-4.81,0-9.63,0-14.61-3.1-2.89-6.6.14-9.72-1.82a3.68,3.68,0,0,1-.46-1.17c0-4.79,0-9.59,0-14.55-3.22-2.49-6.7.26-9.92-1.7-.76-5.26.14-10.54-.5-15.66-.2-.34-.4-1-.6-1-6.22,0-12.45,0-18.65,0a7,7,0,0,1-.9-2.24c-.09-4.34,0-8.68-.06-13a6,6,0,0,0-.27-1.24c-.21-.32-.42-.91-.62-.91-16.42,0-32.84,0-49.42,0-1.67-5.21.06-11.17-1-16.52-.22-.29-.43-.83-.64-.83-6.22-.05-12.44,0-18.74,0-1.63-5.37.13-11.33-1.11-16.91-3-1.14-6.08.08-9.12-.77-1.28-2.46-.43-5.46-.65-8.19s.44-5.69-.5-8.33c-1.63-1.09-3.32-.36-5-.57-1.38-.18-2.79.4-4.1-.38-.24-.4-.62-.74-.62-1.08,0-4.82,0-9.65,0-14.47-.45-.49-.9-1.39-1.34-1.4-8.78-.08-17.55,0-26.33-.08a16.68,16.68,0,0,1-2.29-.28c-.3-.61-.63-1-.63-1.32,0-4.81,0-9.62,0-14.26-.41-1.09-.87-1.51-1.44-1.51q-23.36,0-46.71,0a14.91,14.91,0,0,1-2.27-.33c-.28-.66-.58-1-.58-1.41,0-10.58,0-21.17,0-31.9-3.19-2.66-6.68.29-9.93-1.84-.72-5.15.11-10.43-.47-15.6-1.47-2.07-3.22-.68-4.82-1.06s-3.34.8-4.93-.94c-.78-5.08.24-10.38-.5-15.42-.24-.39-.45-1-.65-1Q826.47,1137,808.22,1137Z"/><path class="cls-4" d="M1532.67,1206.55c-.2-1.1,0-2,.6-2.43a2.94,2.94,0,0,1,1.59-.45q53,0,106.08,0a8.22,8.22,0,0,1,1.64.33c1.2,2.51.4,5.48.62,8.22s-.47,5.69.53,8.3c1.93,1,3.89.4,5.83.5s4,0,5.94,0h5.94c2,0,4-.06,5.94,0s3.91-.43,5.82.39c.22.36.59.7.59,1,0,4.82,0,9.64,0,14.46.44.5.88,1.41,1.33,1.41,5.37.1,10.75.06,16.12.08a18.8,18.8,0,0,1,2.3.28c.3.6.63,1,.63,1.31,0,4.81,0,9.62,0,14.29.4,1,.86,1.5,1.42,1.5q18.25,0,36.5,0a15,15,0,0,1,2.27.31c.29.63.6,1,.61,1.36,0,4.8,0,9.6,0,14.16.42,1.17.89,1.55,1.47,1.55q18.24,0,36.49,0a14.59,14.59,0,0,1,2.26.33,5.15,5.15,0,0,1,.57,1.43c0,4.79,0,9.58,0,14.5,2.16,2.26,4.45.76,6.62,1s4.52-.09,6.78.11,4.46-.81,6.73.63c.71,5.19-.09,10.46.46,15.58.2.35.4,1,.61,1,7.15.63,15.82.28,19.42-.76.15-4.15.24-8.37.49-12.56.06-1.06.76-1.36,1.41-1v15.91c-.45.49-.89,1.41-1.34,1.41-7.07.09-14.15.07-21.22,0-.24,0-.48-.34-.72-.52-.18-.35-.51-.71-.51-1.07,0-4.81,0-9.61,0-14.27-.4-1.07-.86-1.5-1.43-1.5-5.66,0-11.32,0-17,0a4.78,4.78,0,0,1-1.54-.63,3.53,3.53,0,0,1-.44-1.13c0-4.79,0-9.58,0-14-.46-1.33-.93-1.62-1.53-1.62-12.45,0-24.9,0-37.36.05-.62,0-1.13,0-1.71-1.16-.63-4.71.15-10-.39-15.12a4.2,4.2,0,0,0-.61-1,1.26,1.26,0,0,0-.81-.14c-12.74,0-25.47,0-38.21,0-.22,0-.43-.52-.76-1-.75-4.94.2-10.24-.47-15.34-.21-.35-.41-1-.61-1-6.22-.05-12.45,0-18.66,0a7.11,7.11,0,0,1-.87-2.24c-.09-4.33,0-8.67-.06-13a5.44,5.44,0,0,0-.29-1.24c-.2-.31-.41-.89-.62-.89-9.62,0-19.24,0-28.84,0-1.61-2.35-.6-5.43-.82-8.14s.3-5.68-.37-8.4c-.23-.3-.45-.81-.67-.81Q1586.58,1206.53,1532.67,1206.55Z"/><path class="cls-4" d="M553.13,1154.39c-.2-1.11,0-2,.61-2.44a3,3,0,0,1,1.59-.44q12.31,0,24.63,0a5.34,5.34,0,0,1,1.56.53c.17.37.5.72.5,1.09,0,4.8,0,9.61,0,14.21.42,1.13.88,1.54,1.45,1.53,9.06,0,18.12,0,27.19,0,.62,0,1.13,0,1.76,1.12.56,4.7-.08,10,.36,15.1.33,1,.8,1.22,1.41,1.22q38.65,0,77.3,0a15.53,15.53,0,0,1,2.46.43c.74,5.41-.07,10.69.5,15.82.2.34.4,1,.6,1q24.61.12,49.24.11c.21,0,.43-.54.8-1,.14-4,.23-8.19.48-12.39.06-1.06.76-1.37,1.41-1v15.94c-.45.48-.9,1.39-1.35,1.39q-25.92.1-51.85,0c-.23,0-.47-.36-.71-.55-.17-.36-.49-.72-.49-1.09,0-4.8,0-9.61,0-14.19-.43-1.16-.89-1.54-1.47-1.54q-38.67,0-77.35,0a13.41,13.41,0,0,1-2.25-.36,5.66,5.66,0,0,1-.54-1.47c0-4.79,0-9.59,0-13.89-.49-1.46-1-1.68-1.58-1.68-9.07,0-18.13,0-27.2.06a1.31,1.31,0,0,1-1.51-1c-.62-2.69-.19-5.57-.32-8.39-.11-2.35.24-4.75-.21-6.9-.26-.47-.46-1.13-.65-1.13C570.7,1154.38,561.91,1154.39,553.13,1154.39Z"/><path class="cls-4" d="M1236.77,1241.33c-.2-1.11,0-2,.6-2.44a3,3,0,0,1,1.59-.44q12.3,0,24.61,0a5.24,5.24,0,0,1,1.57.51c.18.36.51.71.51,1.07,0,4.81,0,9.62,0,14.58,3.11,2.87,6.61-.15,9.72,1.81a4,4,0,0,1,.46,1.19c0,4.79,0,9.58,0,14.5,2.17,2.24,4.46.74,6.63,1s4.52-.1,6.78.11,4.46-.84,6.72.63c.72,5.2-.11,10.47.5,15.83,2,2,4.32.55,6.5.82a54.77,54.77,0,0,0,6.78.06h6.49c.94,6-.07,11.28.63,16.17.27.51.46,1.17.65,1.17q34.8.08,69.6,0c.21,0,.42-.56.63-.85a5,5,0,0,0,.31-1.22c0-7.71,0-15.43,0-23.14a52,52,0,0,1,.27-5.6c.13-1.08.77-1.37,1.42-1v33.29c-.44.5-.88,1.42-1.33,1.42q-36.09.11-72.19,0c-.25,0-.49-.29-.74-.45-.19-.35-.54-.69-.54-1,0-4.82,0-9.64,0-14.44-.47-.49-.92-1.36-1.38-1.37-5.66-.09-11.32,0-17-.09a4.82,4.82,0,0,1-1.55-.58,3.08,3.08,0,0,1-.47-1.1c0-4.8,0-9.61,0-14.59-2.14-2.07-4.43-.8-6.59-1s-4.54.1-6.8-.09-4.45.8-6.53-.49a5,5,0,0,1-.47-1.37c0-4.79,0-9.57,0-14.12-1.65-2.39-3.4-1-5-1.36s-3.34.79-4.88-.87c-.61-2.8-.2-5.67-.33-8.49-.1-2.35.26-4.75-.24-7-.23-.38-.43-1-.63-1C1254.32,1241.32,1245.54,1241.33,1236.77,1241.33Z"/><path class="cls-4" d="M185.8,1206.55c-.2-1.1,0-2,.61-2.43a3,3,0,0,1,1.58-.45q58.8,0,117.61,0c.21,0,.42.57.7,1,.76,5-.22,10.27.47,15.3.23.4.43,1,.63,1,2.82.06,5.64,0,8.46,0a6.69,6.69,0,0,1,.85,2.22c.06,10.09,0,20.19,0,30.28a2,2,0,0,1-1.7,2.28v-30.31c-.42-.52-.84-1.48-1.27-1.5-2.79-.14-5.58-.07-8.1-.07-.45-.81-.81-1.15-.81-1.5,0-4.81,0-9.62,0-14.43-.44-.49-.88-1.38-1.33-1.39-3.39-.12-6.77-.07-10.16-.07Z"/><path class="cls-4" d="M379.67,1345.65a2.31,2.31,0,0,1,.6-2.43,3,3,0,0,1,1.58-.45q33.38,0,66.85,0c1.65,5.3-.06,11.21,1,16.53.23.3.44.82.66.82q19.44.06,38.87,0c.21,0,.42-.57.74-1,.15-4,.25-8.21.49-12.38.07-1.06.76-1.36,1.41-1v15.86c-.43.51-.86,1.46-1.3,1.46-14.07.08-28.15.07-42.07.07-.36-.63-.72-1-.74-1.31-.21-5.15,0-10.34-.12-15-.7-.62-.93-1-1.16-1Q413.09,1345.64,379.67,1345.65Z"/><path class="cls-4" d="M1582,1308v15.84c.43.52.86,1.48,1.29,1.48,13,.08,25.92.06,38.89.06q24.93,0,49.87,0c.64,0,1.13,0,1.6-1.29.14-3.84.24-8,.48-12.22.06-1.05.76-1.35,1.41-1v15.86c-.43.51-.86,1.46-1.29,1.47-11.84.08-23.68.06-35.52.06h-57.5a6.24,6.24,0,0,1-.88-2.16c.05-5.7-.38-11.44.24-17.1C1580.69,1307.92,1581.34,1307.64,1582,1308Z"/><path class="cls-4" d="M1500.36,1273.2V1289c.41.53.83,1.51,1.25,1.52,6.16.1,12.31.07,18.3.07.37.62.71.93.75,1.31.44,5.1-.35,10.34.45,15.29.34.34.56.76.79.76q19.38,0,38.77,0a7.43,7.43,0,0,0,.87-2.19c.25-3.74-.32-7.58.32-11.29.18-1.07.78-1.35,1.42-1v15.81c-.42.52-.84,1.51-1.26,1.51-14,.08-28.1.06-42.28.06-1.61-5.27,0-11.17-1-16.5-.21-.3-.42-.84-.63-.85-6.19,0-12.37,0-18.56,0a6.82,6.82,0,0,1-.84-2.22c.06-5.68-.38-11.4.24-17C1499.06,1273.15,1499.71,1272.87,1500.36,1273.2Z"/><path class="cls-4" d="M63.36,1223.94a2.49,2.49,0,0,1,.59-2.45,1.36,1.36,0,0,1,.74-.43c9,0,17.93,0,26.73,0,.37.63.71.93.74,1.31.45,5.1-.34,10.34.45,15.3.34.33.57.75.8.75q19.38,0,38.77,0a7.43,7.43,0,0,0,.87-2.19c.25-3.74-.32-7.58.31-11.28.19-1.08.78-1.36,1.43-1v15.83c-.43.52-.85,1.49-1.27,1.49-14.06.08-28.12.07-42.1.07-.28-.49-.62-.78-.66-1.17-.54-5.1.2-10.35-.41-15.23-.38-.46-.6-1-.82-1C80.81,1223.93,72.09,1223.94,63.36,1223.94Z"/><path class="cls-4" d="M327,1325.36c0,5.26,0,10.52,0,15.78,0,.36.34.71.59,1.22,2.9,1.18,6-.32,9,.76,1.18,2.5.4,5.44.61,8.16s-.43,5.64.47,8.23c.26.23.5.6.73.6q19.36,0,38.72,0a7.45,7.45,0,0,0,.86-2.2c.25-3.74-.32-7.57.32-11.28.19-1.07.78-1.35,1.42-1v15.79c-.42.53-.83,1.53-1.25,1.53-14,.08-28.08.07-42.12.07-1.62-2.28-.6-5.36-.82-8s.23-5.65-.31-8.38c-.21-.34-.41-.93-.62-.93-2.81-.06-5.62,0-8.51,0a2.72,2.72,0,0,1-.5-1,119.94,119.94,0,0,1,0-18.28C325.63,1325.32,326.31,1325,327,1325.36Z"/><path class="cls-4" d="M306.55,1255.82q0,16.47,0,33a5.82,5.82,0,0,0,.58,1.51c2.83.77,5.88-.08,8.88.51.2.34.54.64.57,1,.43,5.1-.16,10.31.37,15.17.4.48.61,1,.83,1,6.17,0,12.33,0,18.56,0,.16.3.48.61.52,1a81.36,81.36,0,0,1,0,15.37c-.1,1.07-.76,1.35-1.41,1q0-6.43,0-12.89c-.42-.53-.83-1.52-1.25-1.53-6.15-.1-12.3-.07-18.31-.07-.33-.56-.68-.86-.71-1.24-.39-5.1.14-10.3-.33-15.13-.44-.51-.65-1-.87-1-2.8,0-5.59,0-8.25,0a3.34,3.34,0,0,1-.9-2.47q0-16.47,0-33A2,2,0,0,1,306.55,1255.82Z"/><path class="cls-4" d="M1410.23,1241.33a2.46,2.46,0,0,1,.59-2.45,1.31,1.31,0,0,1,.73-.43c9,0,17.9,0,26.92,0,1.56,5.41-.09,11.28,1,16.53.27.33.48.82.7.82,6.16,0,12.33,0,18.49,0a7.65,7.65,0,0,0,.85-2.22c.25-3.74-.33-7.57.32-11.26.18-1.07.77-1.35,1.41-1v15.79c-.41.53-.83,1.52-1.24,1.52-7.29.1-14.57.07-21.72.07-.33-.57-.69-.88-.71-1.25-.28-5.13,0-10.31-.16-15-.62-.67-.84-1.12-1.07-1.12C1427.64,1241.32,1418.93,1241.33,1410.23,1241.33Z"/><path class="cls-4" d="M134.79,1223.94c-.2-1.1,0-2.11.59-2.4a5.64,5.64,0,0,1,2.41-.48q22.71,0,45.43,0a7.77,7.77,0,0,0,.85-2.21c.25-3.74-.33-7.57.31-11.27.19-1.06.78-1.34,1.42-1v15.81c-.42.53-.83,1.51-1.26,1.51C168,1224,151.37,1223.94,134.79,1223.94Z"/><path class="cls-4" d="M-8.06,1276.1c-.2-1.09,0-2.1.59-2.4a5.63,5.63,0,0,1,2.4-.48q17.63,0,35.26,0A8.55,8.55,0,0,0,31,1271c.24-3.73-.34-7.55.31-11.24.19-1.06.78-1.34,1.42-1,0,5.26,0,10.53,0,15.79,0,.35-.33.7-.51,1.06-.24.18-.47.52-.71.52Q11.72,1276.11-8.06,1276.1Z"/><path class="cls-4" d="M1491.85,1223.94c-.19-1.09,0-2.1.6-2.4a5.63,5.63,0,0,1,2.4-.48q17.63,0,35.25,0a7.89,7.89,0,0,0,.83-2.24c.25-3.73-.33-7.55.32-11.24.19-1.06.78-1.34,1.42-1,0,5.26,0,10.52,0,15.78,0,.36-.34.71-.51,1.06-.24.19-.48.53-.71.53Q1511.65,1224,1491.85,1223.94Z"/><path class="cls-4" d="M1196,1276.1c-.19-1.09,0-2.1.59-2.39a5.75,5.75,0,0,1,2.39-.49c8.37,0,16.73,0,25.09,0a8.71,8.71,0,0,0,.81-2.29c.25-3.71-.34-7.52.32-11.2.19-1,.77-1.33,1.41-1,0,5.25,0,10.5,0,15.75,0,.36-.32.71-.49,1.07-.23.19-.47.55-.7.55Q1210.65,1276.11,1196,1276.1Z"/><path class="cls-4" d="M777.61,1154.39c-.2-1.09,0-2.1.59-2.39a5.72,5.72,0,0,1,2.39-.49c8.36,0,16.73,0,25.08,0a8.37,8.37,0,0,0,.81-2.29c.25-3.71-.33-7.52.33-11.2.18-1,.77-1.33,1.41-1,0,5.25,0,10.5,0,15.75,0,.36-.32.71-.5,1.07-.23.19-.46.55-.7.55Q792.32,1154.4,777.61,1154.39Z"/><path class="cls-4" d="M1461.24,1241.33c-.19-1.09,0-2.1.59-2.39a5.45,5.45,0,0,1,2.39-.49c8.37,0,16.73,0,25.09,0a8.48,8.48,0,0,0,.81-2.29c.25-3.72-.34-7.52.32-11.2.19-1.06.78-1.33,1.41-1,0,5.25,0,10.49,0,15.74,0,.36-.32.72-.49,1.07-.23.19-.47.55-.7.55Q1475.94,1241.34,1461.24,1241.33Z"/><path class="cls-4" d="M1134.73,1345.65c-.19-1.09,0-2.1.59-2.39a5.6,5.6,0,0,1,2.39-.49c8.37,0,16.73,0,25.09,0a9.09,9.09,0,0,0,.81-2.29c.25-3.72-.34-7.52.32-11.2.19-1,.77-1.33,1.41-1,0,5.25,0,10.5,0,15.75,0,.35-.32.71-.49,1.06s-.47.55-.7.55Q1149.43,1345.67,1134.73,1345.65Z"/><path class="cls-4" d="M1563.28,1293.49c-.2-1.09,0-2.1.59-2.39a5.45,5.45,0,0,1,2.39-.49c8.37,0,16.74,0,25.08,0,.22.38.57.69.59,1.06a83.4,83.4,0,0,1,0,15.32c-.11,1.06-.76,1.34-1.4,1,0-4.29,0-8.58,0-12.86,0-.36-.33-.71-.5-1.07-.23-.18-.47-.54-.7-.54C1580.61,1293.48,1571.94,1293.49,1563.28,1293.49Z"/><path class="cls-4" d="M522.52,1293.49c-.2-1.1,0-2.29.6-2.4,2.45-.42,4.92-.58,7.27-.83.28-.57.61-.93.61-1.28q0-16.59,0-33.16c.65-.34,1.14,0,1.44,1a4.41,4.41,0,0,1,.25,1.25c0,11.48,0,23,0,34-.48.77-.68,1.37-.89,1.38C528.73,1293.51,525.62,1293.49,522.52,1293.49Z"/><path class="cls-4" d="M522.52,1206.55c-.19-1.08,0-2.07.58-2.4,2.38-1.27,4.88.13,7.28-.85a3.05,3.05,0,0,0,.66-2.39c0-9,0-18,0-26.93a2,2,0,0,1,1.7-2.2q0,16.38,0,32.78a4.34,4.34,0,0,1-.35,1.17c-.22.27-.43.78-.64.79C528.65,1206.57,525.59,1206.55,522.52,1206.55Z"/><path class="cls-4" d="M32.75,1258.71a2.31,2.31,0,0,1,.58-2.39,2.82,2.82,0,0,1,1.55-.48c5.26,0,10.52,0,15.75,0a9.89,9.89,0,0,0,.8-2.37c.25-3.7-.35-7.48.32-11.13.19-1,.77-1.32,1.41-1,0,5.22,0,10.45,0,15.67a3.14,3.14,0,0,1-.47,1.09c-.22.21-.45.6-.68.6C45.58,1258.72,39.16,1258.71,32.75,1258.71Z"/><path class="cls-4" d="M491.91,1345.65c-.19-1.08,0-2.07.58-2.4,2.38-1.27,4.88.13,7.28-.86a3.07,3.07,0,0,0,.66-2.38c0-9,0-18,0-26.93a2,2,0,0,1,1.7-2.21q0,16.39,0,32.79a4.18,4.18,0,0,1-.35,1.16c-.22.28-.43.79-.64.79C498,1345.67,495,1345.65,491.91,1345.65Z"/><path class="cls-4" d="M532.72,1171.78a2.31,2.31,0,0,1,.59-2.4,2.79,2.79,0,0,1,1.54-.48c5.26,0,10.52,0,15.75,0a9.89,9.89,0,0,0,.8-2.37c.25-3.69-.35-7.48.32-11.13.2-1.05.78-1.32,1.41-1,0,5.23,0,10.45,0,15.68,0,.36-.3.72-.46,1.08-.23.21-.46.6-.69.6Q542.34,1171.8,532.72,1171.78Z"/><path class="cls-4" d="M502.11,1310.87a2.29,2.29,0,0,1,.59-2.39,2.77,2.77,0,0,1,1.54-.48c5.26,0,10.52,0,15.75,0a9.89,9.89,0,0,0,.8-2.37c.25-3.7-.35-7.48.32-11.13.2-1,.78-1.32,1.41-1,0,5.22,0,10.45,0,15.68,0,.36-.3.72-.46,1.08s-.46.6-.69.6C514.94,1310.88,508.53,1310.87,502.11,1310.87Z"/><path class="cls-4" d="M522.52,1255.82c-.65.33-1.14,0-1.44-1a4.55,4.55,0,0,1-.25-1.26q0-22.36,0-44.71a2,2,0,0,1,1.7-2.28Z"/><path class="cls-4" d="M747,1189.16c-.19-1.08,0-2,.58-2.39a2.81,2.81,0,0,1,1.54-.48c5.26,0,10.52,0,15.76,0a9.85,9.85,0,0,0,.79-2.37c.25-3.7-.35-7.48.33-11.13.19-1,.77-1.32,1.4-1,0,5.22,0,10.45,0,15.68,0,.36-.3.72-.46,1.08s-.46.6-.68.6C759.82,1189.17,753.41,1189.16,747,1189.16Z"/><path class="cls-4" d="M53.16,1241.33c-.19-1.07,0-2,.57-2.38,2.35-1.33,4.83.08,7.21-.75a3.33,3.33,0,0,0,.74-2.3c.15-3.66-.41-7.39.29-11,.2-1,.77-1.29,1.39-1,0,5.18,0,10.37,0,15.55a3.54,3.54,0,0,1-.4,1.11c-.22.24-.44.69-.66.69C59.24,1241.34,56.2,1241.33,53.16,1241.33Z"/><path class="cls-4" d="M1165.34,1328.26c-.19-1.06,0-2,.57-2.37,2.36-1.33,4.83.08,7.22-.76a3.35,3.35,0,0,0,.73-2.29c.15-3.67-.41-7.4.29-11,.2-1,.77-1.28,1.39-1,0,5.19,0,10.37,0,15.55a3.8,3.8,0,0,1-.41,1.12c-.22.24-.44.69-.65.69C1171.42,1328.28,1168.38,1328.26,1165.34,1328.26Z"/><path class="cls-4" d="M1175.54,1310.87c-.18-1.06,0-2,.57-2.37,2.36-1.33,4.83.08,7.22-.75a3.33,3.33,0,0,0,.73-2.3c.15-3.66-.41-7.4.29-11,.2-1,.77-1.28,1.4-1,0,5.18,0,10.36,0,15.55a3.58,3.58,0,0,1-.41,1.11c-.21.24-.43.69-.65.69C1181.63,1310.89,1178.59,1310.87,1175.54,1310.87Z"/><path class="cls-4" d="M1185.75,1293.49c-.19-1.07,0-2,.57-2.38,2.36-1.33,4.83.08,7.22-.75a3.35,3.35,0,0,0,.73-2.29c.15-3.67-.41-7.4.29-11,.2-1,.77-1.29,1.39-1,0,5.18,0,10.37,0,15.55a3.54,3.54,0,0,1-.4,1.11c-.22.24-.44.69-.66.7C1191.83,1293.5,1188.79,1293.49,1185.75,1293.49Z"/><path class="cls-4" d="M1389.82,1276.1c-.19-1.07,0-2,.57-2.38,2.36-1.32,4.83.09,7.22-.75a3.35,3.35,0,0,0,.73-2.29c.15-3.67-.41-7.4.29-11,.2-1,.77-1.29,1.39-1,0,5.19,0,10.37,0,15.55a3.6,3.6,0,0,1-.4,1.12c-.22.24-.44.69-.66.69C1395.9,1276.12,1392.86,1276.1,1389.82,1276.1Z"/><path class="cls-4" d="M1400,1258.71c-.19-1.06,0-2,.57-2.37,2.36-1.33,4.83.08,7.22-.75a3.34,3.34,0,0,0,.73-2.3c.15-3.67-.41-7.4.29-11,.2-1,.77-1.28,1.4-1q0,7.77,0,15.54a3.54,3.54,0,0,1-.41,1.12c-.22.24-.43.69-.65.69C1406.11,1258.73,1403.06,1258.71,1400,1258.71Z"/><path class="cls-4" d="M767.4,1171.78c-.18-1.07,0-2,.57-2.38,2.36-1.33,4.83.08,7.22-.75a3.33,3.33,0,0,0,.73-2.3c.15-3.66-.41-7.39.29-11,.2-1,.77-1.29,1.4-1,0,5.18,0,10.37,0,15.55a3.58,3.58,0,0,1-.41,1.11c-.22.24-.43.69-.65.7C773.49,1171.79,770.45,1171.78,767.4,1171.78Z"/><path class="cls-4" d="M1226.56,1258.71c-.18-1.06,0-2,.57-2.37,2.36-1.33,4.83.08,7.22-.75a3.34,3.34,0,0,0,.73-2.3c.15-3.67-.41-7.4.29-11,.2-1,.77-1.28,1.4-1q0,7.77,0,15.54a3.54,3.54,0,0,1-.41,1.12c-.22.24-.43.69-.65.69C1232.65,1258.73,1229.6,1258.71,1226.56,1258.71Z"/><path class="cls-4" d="M1510.56,1255.82v15.27a2,2,0,0,1-1.7,2.11v-15.27A2,2,0,0,1,1510.56,1255.82Z"/><path class="cls-4" d="M1531,1238.43q0,7.63,0,15.27a2,2,0,0,1-1.69,2.12c0-5.1,0-10.19,0-15.28A2,2,0,0,1,1531,1238.43Z"/><path class="cls-4" d="M296.72,1168.88c-.86-6.14.15-11.44-.64-16.42-.3-.4-.52-.93-.73-.93-19.83,0-39.65,0-59.32,0a3.36,3.36,0,0,1-.92-2.54q0-6.51,0-13a3.5,3.5,0,0,0-.43-1.13c-.23-.22-.46-.64-.69-.65-2.8,0-5.61,0-8.21,0-.41-.68-.78-1-.78-1.37,0-4.81,0-9.63,0-14.4-.47-.57-.89-1.52-1.33-1.54-2.55-.15-5.1-.06-7.65-.1-.24,0-.48-.32-.72-.49-.18-.36-.52-.71-.52-1.07,0-4.81,0-9.63,0-14.3-.4-1.06-.85-1.5-1.42-1.5-6,0-11.91,0-17.86,0-.23,0-.45.43-.87.86-.62,4.91.06,10.18-.42,15.36-1.44,2.2-3.2.74-4.81,1.12s-3.34-.75-4.89.86c-.64,2.78-.21,5.66-.34,8.48-.1,2.35.25,4.75-.19,6.81-.29.55-.48,1.2-.67,1.21-2.84.07-5.67,0-8.5,0-1.61,2.32-.64,5.42-.8,8.13s0,5.65,0,8c-.58.74-.8,1.26-1,1.26-13,0-26,0-38.95,0a6.89,6.89,0,0,0-.7,1.23,4.83,4.83,0,0,0-.15,1.34c0,4.35,0,8.7,0,13a3.42,3.42,0,0,1-.45,1.12c-.23.22-.46.63-.69.63q-8.5.06-17,0a7.27,7.27,0,0,1-1.61-.35c-.2-.34-.57-.68-.57-1,0-4.82,0-9.64,0-14.43-.46-.55-.89-1.47-1.33-1.5-2.55-.14-5.1,0-7.65-.09-.24,0-.48-.34-.72-.52-.18-.36-.51-.71-.51-1.07,0-4.82,0-9.63,0-14.26-.41-1.1-.87-1.52-1.44-1.52-6,0-11.9,0-17.86,0-.22,0-.45.44-.84.86-.67,4.92.08,10.2-.43,15.33-.2.35-.39,1-.61,1-7.1.67-16,.32-19.31-.72-.61-2.76-.21-5.64-.32-8.46a59.57,59.57,0,0,0-.17-6.88c-.31-.5-.51-1.11-.71-1.11-13-.05-26.07-.05-39.22-.05-1.71-5.24.07-11.22-1.07-16.55-.24-.29-.45-.8-.67-.8-6.22,0-12.44,0-18.53,0-.33-.56-.7-.89-.7-1.24,0-3.83,0-7.67,0-12.21l2.81-3.8c1.28-.58,3.24,0,5.19-.12s4,0,5.95,0h5.55c.44-.92.76-1.28.76-1.64,0-3.85,0-7.69,0-11.4l2.55-4.35q18.59,0,37.32,0c.21,0,.42-.57.72-1,.53-3.61.05-7.45.25-11.64.4-.79.91-1.88,1.47-2.88a23.34,23.34,0,0,1,1.33-1.94h27c.27-.46.64-.8.64-1.15.05-3.83,0-7.67,0-11.84.83-1.14,1.7-2.35,2.79-3.87a178.5,178.5,0,0,1,27.42.17c.17.37.49.73.49,1.1,0,4.8,0,9.61,0,14.16.44,1.19.9,1.56,1.48,1.56,6,0,11.91,0,17.86,0,.22,0,.44-.47.74-.81.87-4-.12-8.38.47-12.15l2.37-4.43h6.85a3.34,3.34,0,0,0,.84-2.38v-27.83l2.18-3.95c2.44-1.45,5,.18,7.38-1,.24-.38.62-.71.62-1.05,0-3.86,0-7.72,0-11.58l2.55-4.34c5.51,0,11.15,0,16.8,0,.22,0,.44-.49.73-.83.85-4-.12-8.39.45-12l2.38-4.55h17.08c.23-.39.6-.72.61-1.08.12-3.81.19-7.63.29-11.87l2.1-3.8a5.44,5.44,0,0,1,1.6-.55q12.77-.06,25.51,0c.25,0,.49.29.74.44.19.35.55.69.56,1,0,4.83,0,9.65,0,14.44.22.38.4,1,.63,1,3.14.7,13.43.55,19.46-.23.83-4.07-.08-8.43.44-12.59l2.42-4.12h6.77a7.05,7.05,0,0,0,.85-2.26c.06-9.17,0-18.35,0-27.54a13.21,13.21,0,0,1,2.68-4.84H316c1.33,2.65.5,5.64.72,8.38s-.46,5.7.56,8.43c2.18,1,4.43.24,6.65.4,2,.14,4-.07,5.95,0,2.23.14,4.48-.52,6.63.35.25.46.6.8.6,1.16,0,4.82,0,9.64,0,14.43.48.5.93,1.36,1.39,1.36,5.67.09,11.34.05,17,.09a5.08,5.08,0,0,1,1.54.62,3.53,3.53,0,0,1,.44,1.13c0,4.8,0,9.6,0,14.07,1,2.28,2.18,1.4,3.24,1.51s2.28-.09,3.4.06,2.25-.77,3.32,1c.76,4.93-.22,10.23.48,15.33.2.36.4,1,.61,1,6.23,0,12.46,0,18.77,0a3.14,3.14,0,0,0,.52-1c.6-3.75.06-7.6.37-11.74a13.71,13.71,0,0,1,2.86-4.8h6.49c.3-.5.67-.84.68-1.19,0-3.85,0-7.7,0-11.72l2.86-4.31a36,36,0,0,0,3.71,0c1.09-.09,2.24.64,3.36-.79.91-3.95-.12-8.32.48-12.44l2.4-4.13h27.35c1.47-3.89.18-8.35,1.07-13.48.28-.51,1-1.89,1.74-3.21a4.81,4.81,0,0,1,1.6-.66c10.77,0,21.54,0,32.31,0h3.95c.41.7.79,1,.79,1.38,0,4.82,0,9.64,0,14.41.47.57.9,1.52,1.34,1.53,6.19.1,12.38.07,18.3.07.45-.89.79-1.24.79-1.6,0-3.85,0-7.7,0-11.44.86-1.48,1.67-2.84,2.51-4.28h6.69c.36-.77,1-1.46,1-2.17.07-8.2,0-16.42.05-24.63,0-1.38.1-2.77.11-3.16,1-2.18,1.74-3.67,2.36-5h47.75c.26-.44.63-.78.64-1.12,0-3.84,0-7.67,0-11.88l2.87-3.85a183,183,0,0,1,27.35.12c.17.36.5.71.5,1.08,0,4.81,0,9.62,0,14.23.42,1.13.88,1.53,1.46,1.53,2.55,0,5.1,0,7.65,0,.23,0,.45.45.83.86.69,4.93-.09,10.21.44,15.34.21.35.4,1,.61,1,7.45.68,16.07.32,19.38-.77.56-3.71.08-7.55.27-11.74.4-.8.9-1.88,1.46-2.88a17.47,17.47,0,0,1,1.18-1.72h57.92c1.34,3.58.42,7.5.6,11.2s0,7.72,0,11.58v10.93c2.09,1.5,3.78.73,5.43.94,1.38.19,2.79-.37,4.13.37.22.38.59.72.6,1.06,0,4.83,0,9.65,0,14.47.46.51.9,1.42,1.35,1.43,5.95.1,11.9.07,17.85,0,.24,0,.47-.36.71-.55.17-.36.49-.72.49-1.08,0-3.85,0-7.69,0-11.38.88-1.52,1.69-2.88,2.55-4.35,5.6,0,11.26,0,16.92,0,.21,0,.42.57.68,1,.77,5-.25,10.32.5,15.35.25.39.46,1,.66,1,2.83.07,5.66.05,8.45.05,1.59,2.41.66,5.48.81,8.2s0,5.64,0,8.63c3.39,1.11,6.47.08,9.49.8.21.34.55.65.58,1,.44,5.14-.26,10.41.44,15.55,3.18,1.46,6.29-.25,9.28,1,.21.36.59.7.59,1.05q0,15.93,0,31.88c1.34,2.79,3.17,1,4.75,1.4s3.34-.48,4.95.62c.72,7.73.75,11.82.41,50.31-.34.94-.8,1.29-1.39,1.29-2.55,0-5.1,0-7.65,0-.23,0-.45.48-.82.92-.7,4.91.15,10.2-.45,15.33-.2.34-.4,1-.6,1-2.83.07-5.66,0-8.45,0a7.39,7.39,0,0,0-.91,2.27c-.08,4.34,0,8.69,0,13a5.52,5.52,0,0,1-.3,1.23c-.2.31-.41.89-.62.89-2.83.06-5.65,0-8.42,0-.26-.44-.59-.73-.64-1.13-.61-5.11.23-10.4-.45-15.31-.39-.44-.62-.91-.84-.92-9.61,0-19.23,0-28.72,0-1.44-2.73-.65-5.73-.78-8.47s0-5.62,0-7.92c-.75-.61-1-1-1.22-1-2.27,0-4.54,0-6.8,0a6.39,6.39,0,0,0-1.52.39c-.25.41-.64.73-.64,1.06,0,4.83,0,9.66,0,14.48-1.36,2.75-3.18,1-4.77,1.39s-3.33-.5-4.93.63a3.25,3.25,0,0,0-.48,1.14c0,4.8,0,9.6,0,14.21-.31.54-.5,1.14-.72,1.18-3,.55-6.09.08-8.86.32a9.78,9.78,0,0,0-.61,1.92c0,4.78,0,9.56,0,14,.41.7.61,1.33.81,1.34,2.83.06,5.66,0,8.47,0a7.53,7.53,0,0,1,.88,2.28c.08,4.34,0,8.69,0,13a7.3,7.3,0,0,1-.37,1.51c-2,1.53-4.32.37-6.51.57-2.55.24-5.1,0-7.65,0H644.15a3.35,3.35,0,0,1-.89-2.46c0-4.34,0-8.69,0-13a3.85,3.85,0,0,0-.4-1.15c-.22-.24-.45-.7-.67-.7-13,0-26,0-38.91,0-1.42-2.77-.66-5.76-.78-8.51s0-5.61,0-7.91c-.76-.6-1-1-1.24-1q-34.43,0-68.87,0c-.24,0-.49.29-.74.44-.19.35-.55.69-.55,1,0,4.82,0,9.65,0,14.45-.47.5-.92,1.37-1.37,1.38-5.67.09-11.34,0-17,.09a4.6,4.6,0,0,0-1.54.6,3.09,3.09,0,0,0-.46,1.11c0,4.8,0,9.61,0,14.2-.33.55-.51,1.15-.73,1.19-3,.52-6.09.08-9,.31-.82,4.47-.31,8.3-.42,12.08-.09,3.37,0,6.76,0,10.14-.07,3.81.25,7.64-.17,11.35-.24.42-.44,1.06-.64,1.06-2.83.07-5.67,0-8.48,0a7.12,7.12,0,0,0-.86,2.28c-.06,9.17,0,18.35-.05,27.53,0,1.37-.12,2.75-.17,3.9-.36.51-.57,1.06-.78,1.07-2.83.05-5.65,0-8.35,0a3.37,3.37,0,0,0-.9,2.49c0,9.66,0,19.32,0,29a4.74,4.74,0,0,1-.44,2.59c-.23.24-.45.68-.68.69-2.81,0-5.62,0-8.3,0-1.4,2.8-.57,5.79-.79,8.53s.46,5.69-.56,8.43c-2.18,1-4.43.24-6.65.4-2,.14-4-.07-6,0-2.23.14-4.48-.52-6.63.34-.25.46-.6.81-.6,1.16,0,4.82,0,9.65,0,14.44-.48.49-.94,1.36-1.39,1.36q-34.44.1-68.87,0c-.23,0-.46-.41-.69-.63a3.22,3.22,0,0,1-.45-1.12c0-3.83,0-7.67,0-11.27l2.54-4.33h6.79a7.63,7.63,0,0,0,.84-2.28q.08-15.21,0-30.43a4.65,4.65,0,0,0-.33-1.21c-.21-.29-.42-.83-.63-.83-2.83-.06-5.65,0-8.33,0a3.36,3.36,0,0,1-.91-2.51q0-6.52,0-13a3.52,3.52,0,0,0-.42-1.14c-.23-.23-.45-.67-.68-.67-6.21,0-12.42,0-18.49,0-1.39,2.83-.57,5.82-.79,8.56s.47,5.7-.52,8.29c-1.08,1-2.21.47-3.3.52-1.95.08-3.9,0-5.57,0-.45-.85-.79-1.2-.8-1.56,0-4.81,0-9.63,0-14.39-1.42-2.7-3.22-1-4.82-1.4s-3.33.56-4.92-.68a3.71,3.71,0,0,1-.44-1.16c0-4.8,0-9.59,0-14.13-.35-.6-.54-1.21-.75-1.24-3-.43-6.1-.08-9.05-.26-.94-5.9.07-11.21-.64-16.29-.22-.37-.42-1-.62-1C316.46,1168.87,306.83,1168.88,296.72,1168.88Z"/><path class="cls-4" d="M1819.06,1082v104.32h-1.12c-.25,0-.48.34-.72.49-.19.37-.53.72-.53,1.07,0,10.61,0,21.24,0,31.7-.39,1-.85,1.5-1.41,1.5q-24.24,0-48.47,0c-.22,0-.45-.43-.68-.67a3.29,3.29,0,0,1-.43-1.12c0-4.79,0-9.58,0-13.94-.48-1.42-1-1.65-1.56-1.65-9.07,0-18.13,0-27.21,0-.63,0-1.13,0-1.61-1.15-.76-4.83.25-10.12-.47-15.22-.21-.36-.41-1-.61-1-6.24-.06-12.47,0-18.87,0-1.68-5.21.07-11.17-1-16.53-.22-.29-.42-.83-.64-.83-6.22,0-12.44,0-18.5,0a3.32,3.32,0,0,1-.92-2.54q0-23.17,0-46.36a4.47,4.47,0,0,0-.47-2.57c-.23-.24-.46-.67-.68-.67-2.82,0-5.62,0-8.28,0-1.38-2.84-.57-5.82-.8-8.56s.48-5.7-.52-8.28c-.27-.19-.52-.51-.75-.51q-8.94,0-17.86,0c-.24,0-.49.3-.72.48-.19.34-.53.69-.53,1.06,0,4.82,0,9.63,0,14.4-2,1.86-2.15,1.86-9.75.73a3.26,3.26,0,0,1-.43-1.13c0-4.79,0-9.58,0-14.18-1.59-2.47-3.36-1-5-1.38s-3.34.75-5-.92c-.81-5,.2-10.34-.51-15.41-.22-.38-.42-1-.61-1-9.64,0-19.28,0-29.59,0-.31-6.17-.08-11.39-.2-16.1-.54-.71-.75-1.25-1-1.25-6.22,0-12.44,0-18.5,0a3.37,3.37,0,0,1-.92-2.54q0-6.51,0-13a3.76,3.76,0,0,0-.43-1.12c-.23-.24-.46-.65-.69-.65-2.8,0-5.61,0-8.22,0-.39-.68-.77-1-.77-1.38,0-4.8,0-9.62,0-14.38-.47-.59-.89-1.56-1.33-1.56-5.94-.11-11.89-.08-17.85,0-.24,0-.48.31-.72.49-.19.35-.52.7-.53,1.06,0,4.81,0,9.63,0,14.31-.4,1-.85,1.5-1.42,1.5q-18.29,0-36.56,0a13.4,13.4,0,0,0-2.26.35,5.41,5.41,0,0,0-.56,1.44c0,4.79,0,9.58,0,14.14-.35.58-.54,1.22-.75,1.22q-19.53.17-39.06.19c-.22,0-.43-.54-.67-.84-.64-2.73-.22-5.62-.32-8.43-.09-2.34.15-4.74-.16-6.91-.3-.49-.5-1.13-.7-1.13-2.83-.08-5.67,0-8.5,0a7.4,7.4,0,0,1-.82-2.3c-.06-9.16,0-18.35,0-27.52,0-1.38-.11-2.74-.17-3.88-.38-.51-.59-1-.81-1-2.82-.07-5.63-.05-8.3-.05a3.33,3.33,0,0,1-.92-2.52q0-6.52,0-13a5,5,0,0,0-.53-1.41c-2.88-1.18-6,.27-9-.76-1.21-2.51-.4-5.49-.63-8.22s.49-5.71-.53-8.31c-1.93-1-3.91-.4-5.85-.49s-4,0-6,0h-6c-2,0-4,.08-6,0s-3.92.51-5.82-.46c-.2-.38-.53-.72-.53-1.09,0-3.85,0-7.71,0-11.47l2.5-4.26h6.68a6.55,6.55,0,0,0,1-2.16c.23-3.78-.22-7.63.14-10.45l2.37-5h17.14c.26-.43.62-.77.63-1.11,0-3.84,0-7.67,0-11.46.85-1.52,1.63-2.88,2.43-4.33,2.41-1,5,.08,7.18-.52.39-.76.71-1.11.72-1.48,0-3.85,0-7.7,0-11.45.86-1.46,1.67-2.82,2.51-4.26h6.69a6.56,6.56,0,0,0,1-2.18c.23-3.77-.22-7.63.12-10.32l2.3-4.87h27.42c1.22,1.5.74,3.57.8,5.37s0,3.87,0,5.81-.44,3.82.44,5.49c1.61,1.19,3.3.39,5,.62,1.38.17,2.79-.35,4.14.33.21.38.59.71.59,1.06,0,4.82,0,9.65,0,14.44.47.54.89,1.49,1.34,1.49,5.38.11,10.76.06,16.14.08a20.69,20.69,0,0,1,2.3.28c.31.61.63,1,.63,1.32,0,4.82,0,9.63,0,14.26.42,1.11.87,1.52,1.45,1.52q23.38,0,46.76,0a17,17,0,0,1,2.49.39c.72,5.4,0,10.66.49,15.8.33,1,.8,1.19,1.41,1.19q34,0,68,0c.64,0,1.14,0,1.59,1.15.77,4.85-.26,10.16.46,15,.27.51.45,1.17.65,1.17,2.82.07,5.66,0,8.49,0,1.61,2.32.59,5.41.82,8.12s-.3,5.7.37,8.41c.24.3.44.82.66.82,6.22,0,12.44,0,18.55,0,.31-.53.69-.88.69-1.21,0-3.84,0-7.66,0-11.45.84-1.53,1.61-2.89,2.37-4.24,8.11-.68,30.79-.65,38,0,.17.35.51.7.51,1.06,0,4.82,0,9.63,0,14.28.41,1.09.87,1.51,1.45,1.51,5.66,0,11.33,0,17,0a1.46,1.46,0,0,1,1.54.75,3.59,3.59,0,0,1,.41,1.13c0,4.8,0,9.59,0,13.89.5,1.46,1,1.68,1.58,1.68,9.07,0,18.14,0,27.2-.06.65,0,1.14,0,1.59,1.14.78,4.87-.25,10.17.46,15,.27.54.46,1.2.65,1.2,6.24,0,12.47,0,18.7,0a7.65,7.65,0,0,1,.8,2.34c.06,9.66,0,19.32,0,29a21.54,21.54,0,0,0,.35,2.63c.21.28.43.79.65.81,2.81,0,5.64,0,8.34,0,.32.52.67.84.69,1.22.33,5.16,0,10.37.2,15.45C1809.11,1081.58,1813.68,1081.83,1819.06,1082Z"/><path class="cls-4" d="M929.35,1116.72c-.69-4.8-.18-8.64-.45-12.25a14,14,0,0,1,3-5.3H969c.29-.5.66-.83.66-1.18.05-3.85,0-7.69,0-11.74l2.71-4.09a.74.74,0,0,1,.45-.2c.85,0,1.7,0,2.55,0,7.93,0,15.86,0,23.8,0,.23,0,.46-.4.88-.79.8-3.92-.11-8.28.41-12.44l2.41-4.11h6.77a7.23,7.23,0,0,0,.86-2.26c.09-3.37,0-6.75,0-10.2.56-2.21,1.78-3.41,2.56-4.82h57.91c1.38,2.59.51,5.59.74,8.33s-.43,5.68.54,8.46c2.16,1.08,4.4.26,6.62.43,2,.16,4,0,6,.06,2.23.12,4.48-.45,6.65.3.25.43.62.77.62,1.11,0,4.83,0,9.65,0,14.48.45.49.89,1.41,1.34,1.41q24.23.12,48.44,0c.24,0,.48-.34.94-.7.86-3.91-.14-8.27.49-12.63.68-1.17,1.49-2.53,2.33-4h6.69a6.37,6.37,0,0,0,1-2.17c.1-3.8,0-7.6,0-10.13l2.46-5.25h17.15c.26-.44.63-.77.63-1.12,0-3.83,0-7.66,0-11.45.84-1.51,1.62-2.88,2.43-4.33,2.18-.89,4.42-.25,6.65-.36,2.55-.13,5.1,0,7.65,0,2.26,0,4.53.11,6.8,0s4.47.57,6.87-.48c.91-4.08-.11-8.46.54-12.87.66-1.11,1.46-2.48,2.36-4q33.83,0,67.84,0c.22,0,.44.51.78.94.74,4.93-.19,10.23.47,15.34.2.35.4,1,.61,1,9.62,0,19.25,0,28.86,0a7,7,0,0,1,.88,2.25c.08,4.34,0,8.69,0,13a6.13,6.13,0,0,0,.3,1.23c.21.31.42.88.63.88,6.22,0,12.45,0,18.76,0,1.68,5.31-.1,11.28,1.06,16.57.27.31.49.78.71.78,9.62,0,19.23,0,28.7,0,.34.58.7.9.72,1.27.26,5.16,0,10.37.16,15.39,2.64,1.35,4.89.51,7.11.69,2,.16,4-.05,5.94,0,2.24.12,4.49-.43,6.66.3.25.42.62.76.62,1.1,0,4.83,0,9.65,0,14.46.45.51.89,1.44,1.33,1.45,11.9.08,23.8,0,35.7.08,1.08,0,2.22-.49,3.25.5.19.37.52.73.53,1.09,0,4.81,0,9.62,0,14.59,3.13,2.84,6.63-.2,9.73,1.79a4.19,4.19,0,0,1,.45,1.24c0,4.79,0,9.58,0,14.09-.36.62-.56,1.26-.76,1.26q-45,.13-90,.16c-.22,0-.43-.5-.79-.94-.72-4.93.19-10.22-.46-15.33-.2-.35-.4-1-.6-1-6.23,0-12.46,0-18.66,0a7.22,7.22,0,0,1-.89-2.26c-.08-4.34,0-8.69,0-13a5,5,0,0,0-.3-1.23c-.21-.31-.41-.88-.62-.88-9.63,0-19.25,0-29,0-1.69-5.3.1-11.27-1.07-16.61-6.11-1.21-32.65-1.46-60.29-.56-1.41,5.26.21,11.19-.89,16.38-.38.36-.6.67-.85.77a2.37,2.37,0,0,1-.84,0q-18.7,0-37.39,0c-.26,0-.51.22-.77.33-.2.34-.57.68-.57,1,0,4.81,0,9.63,0,14.4-.47.57-.9,1.54-1.32,1.54-8.5.09-17,0-25.5.09-1.09,0-2.22-.46-3.27.46-.19.37-.54.72-.54,1.07,0,4.82,0,9.64,0,14.42-.5.5-1,1.35-1.41,1.36-12.18.07-24.36,0-36.54.07a14.91,14.91,0,0,0-2.27.33,5.54,5.54,0,0,0-.58,1.41c0,4.8,0,9.6,0,14.18-.32.55-.52,1.19-.72,1.2q-50.12.16-100.23.22c-.22,0-.44-.46-.84-.9-.66-4.91.12-10.18-.42-15.32-.33-1-.8-1.17-1.43-1.16-12.46,0-24.92,0-37.39.06a1.32,1.32,0,0,1-1.51-1c-.6-2.69-.19-5.57-.3-8.39-.09-2.35.17-4.74-.13-6.64-.37-.7-.56-1.37-.75-1.37C955.87,1116.71,942.84,1116.72,929.35,1116.72Z"/><path class="cls-4" d="M877.94,977.05c2.82,1,5.07.42,7.3.55,2,.11,4-.1,5.94,0,2.22.17,4.47-.63,6.59.4.24.52.56.88.56,1.24,0,10.6,0,21.2,0,31.57-.43,1.16-.89,1.55-1.47,1.54-2.55,0-5.1,0-7.65,0-.22,0-.45.46-.67.7a4.1,4.1,0,0,0-.4,1.16c0,4.79,0,9.57,0,14-.39.65-.59,1.29-.79,1.29q-14.43.14-28.86.12c-.21,0-.43-.55-.7-.94-.8-5,.23-10.31-.5-15.37-.24-.38-.44-1-.64-1-9.63-.05-19.26-.05-28.89-.05-1.62-2.3-.59-5.4-.82-8.11s.29-5.69-.37-8.41c-.23-.3-.44-.83-.66-.83-9.62,0-19.23,0-28.7,0a3.33,3.33,0,0,1-.91-2.53c0-4.34,0-8.69,0-13a3.52,3.52,0,0,0-.42-1.14c-.23-.23-.45-.66-.68-.66-2.81,0-5.62,0-8.28,0-1.39-2.83-.57-5.81-.79-8.55s.47-5.7-.53-8.31c-1.65-1-3.33-.32-5-.53-1.38-.18-2.79.47-4.1-.43-.22-.41-.56-.75-.57-1.11,0-3.85,0-7.7,0-11.5.83-1.42,1.63-2.79,2.44-4.15,2.44-.81,5,.6,7.35-.66.94-4.47,0-8.84.5-12.2,1-2,1.74-3.47,2.34-4.66h47.77c.24.4.58.7.61,1.08.43,5.14.06,10.38.25,15.09.6.66.82,1.12,1,1.12,6.22,0,12.43,0,18.51,0,1.44,2.74.58,5.74.81,8.47s-.44,5.69.54,8.46c2.16,1.05,4.41.25,6.63.42,2,.15,4-.05,5.95.06,2.23.12,4.48-.47,6.62.3.27.45.64.78.65,1.13C878,966.51,877.94,971.34,877.94,977.05Z"/></g><rect class="cls-5" x="148.66" y="1462.45" width="10" height="9.95"/><rect class="cls-6" x="53.68" y="300.49" width="10" height="9.96"/><rect class="cls-7" x="277.98" y="934.45" width="10" height="9.95"/><rect class="cls-8" x="1453.52" y="101.35" width="10" height="9.95"/><rect class="cls-9" x="914.61" y="1455.56" width="10" height="9.95"/><rect class="cls-5" x="1411.38" y="1034.53" width="9.95" height="10"/><rect class="cls-6" x="1542.74" y="1480.02" width="9.96" height="10"/><rect class="cls-7" x="1413.69" y="325.98" width="9.95" height="10"/><rect class="cls-8" x="786.36" y="505.72" width="9.95" height="10"/><rect class="cls-9" x="1386.87" y="734.49" width="9.95" height="10"/><rect class="cls-9" x="173.86" y="740.62" width="9.95" height="10"/></g><g id="Layer_22" data-name="Layer 22"><path class="cls-5" d="M588.51,175.61H552.76V164.32h6V153h6V130.46H552.76v5.64H540.84V113.53h65.54V136.1H594.46v-5.64H582.55V153h6v11.28h6v11.29Z"/><path class="cls-5" d="M648.09,175.61H624.25V170h-6v-5.65h-6V147.39h6V136.1h11.91v-5.64h17.88v5.64H654v5.65h6V153H630.21v5.64h6v5.64h11.92v-5.64H660V170h-6v5.64Zm-11.92-28.22h6v-5.64H630.21v5.64Z"/><path class="cls-5" d="M713.63,175.61H671.92V170h-6V158.68h6V153h17.87v-5.65h6v-5.64H683.83v5.64H671.92V136.1h6v-5.64h29.79v5.64h6v28.22h6v11.29ZM695.75,170V158.68h-6V170Z"/><path class="cls-5" d="M755.33,175.61H737.46V170h-6V141.75h-6V130.46h6v-5.64h11.92v-5.65h11.91v11.29h11.92v11.29H755.33v22.57h6v-5.64h6V170h-6v5.64Z"/><path class="cls-5" d="M820.87,175.61h-41.7V170h-6V158.68h6V153H797v-5.65h6v-5.64H791.08v5.64H779.17V136.1h6v-5.64h29.79v5.64h6v28.22h6v11.29ZM803,170V158.68h-6V170Z"/><path class="cls-5" d="M862.58,175.61H832.79V170h6V141.75h-6V136.1h6v-5.64h17.87v5.64h11.92v-5.64h11.91v5.64h6v11.29h-6V153H868.54v-5.65h-6V170h6v5.64Z"/><path class="cls-5" d="M975.78,175.61H940V170H928.12V158.68h-6V147.39h6v-5.64h6V136.1h-6V124.82h6v-5.65H940v-5.64h23.84v5.64h6v5.65H952V136.1h6v5.65h-6v5.64h-6V153h6v11.28h23.83v-5.64h6V153H957.91v-5.65h6v-5.64h6V136.1h11.92V124.82h-6v-5.65h23.83v5.65h6V136.1h-6v5.65h-6v5.64h6v11.29h-6V170H981.74v5.64Z"/><path class="cls-5" d="M1089,175.61h-35.75V164.32h6V153h6V130.46h-11.91v5.64h-11.92V113.53h65.54V136.1h-11.92v-5.64H1083V153h6v11.28h6v11.29Z"/><path class="cls-5" d="M1166.44,175.61h-53.62V164.32h6v-39.5h-6V113.53h53.62v5.64h11.92v5.65h6v39.5h-6V170h-6v5.64Zm-17.87-11.29h6v-5.64h6V130.46h-6v-5.64h-11.91v39.5Z"/><polyline class="cls-10" points="720.21 1167.06 799 1108.39 799 1324.63 720.21 1322.96 720.21 1167.06"/><polyline class="cls-11" points="772.18 885.45 830.85 969.26 954.89 880.42 951.54 711.11 889.51 803.31 778.88 882.09"/><polygon class="cls-12" points="951.54 711.11 1075.58 597.13 1197.95 578.69 1254.94 582.04 1254.94 900.53 958.24 907.24 951.54 711.11"/><polygon class="cls-13" points="1062.17 997.76 1253.27 997.76 1254.94 1373.24 1062.17 1373.24 1062.17 997.76"/><polygon class="cls-13" points="279.3 328.08 328.32 329.62 334.45 374.05 280.83 375.58 279.3 328.08"/><polygon class="cls-12" points="279.3 416.94 331.38 415.41 331.38 459.84 279.3 459.84 279.3 416.94"/><polygon class="cls-11" points="280.83 496.61 331.38 492.01 331.38 536.45 279.3 541.04 280.83 496.61"/><polygon class="cls-10" points="280.83 573.21 339.05 573.21 334.45 616.11 276.23 616.11 280.83 573.21"/><polyline class="cls-14" points="971.65 997.76 949.86 997.76 720.21 1167.06 720.21 1520.76 634.72 1522.43 631.37 1440.3 547.55 1441.97 361.49 1170.41 882.81 804.99 1194.6 370.83 1253.27 370.83 1256.62 1373.24 1063.85 1374.92 1068.88 994.4 1038.7 994.4"/><path class="cls-15" d="M772.18,885.45l114,159.24Z"/><path class="cls-15" d="M839.23,836.83l57,85.49Z"/><polyline class="cls-15" points="956.57 940.76 954.89 704.41 1070.55 598.8 1162.75 583.72"/><line class="cls-15" x1="1254.95" y1="905.56" x2="1094.02" y2="905.56"/><line class="cls-15" x1="1186.22" y1="580.36" x2="1248.24" y2="580.36"/><line class="cls-15" x1="1258.3" y1="992.73" x2="1129.22" y2="994.4"/><rect class="cls-15" x="279.63" y="330.91" width="53.07" height="44.63"/><rect class="cls-15" x="279.63" y="415.57" width="53.07" height="44.63"/><rect class="cls-15" x="279.63" y="495.19" width="53.07" height="44.63"/><rect class="cls-15" x="281.31" y="572.3" width="53.07" height="44.63"/><path class="cls-5" d="M373.64,373.39h-3v-3h-3v-9h-3v-6h-3v-6h-3v-3h-3v-6h18v6h-3v6h3v3h6v-6h3v-3h-3v-6h15v6h-6v6h-3v6h-3v6h-3v6h-3v3Z"/><path class="cls-5" d="M412.64,373.39h-12v-3h-3v-15h3v-3h3v-3h12v3h3v3h3v12h-3v3h-3v3Zm-3-6h3v-9h-3v-3h-3v12Z"/><path class="cls-5" d="M439.64,373.39h-9v-3h-3v-15h-3v-6h3v-3h6v-3h6v6h6v6h-6v12h3v-3h3v6h-3v3Z"/><path class="cls-5" d="M472.64,373.39h-21v-3h-3v-6h3v-3h9v-3h3v-3h-6v3h-6v-6h3v-3h15v3h3v15h3v6Zm-9-3v-6h-3v6Z"/><path class="cls-5" d="M493.64,373.39h-15v-6h3v-9h-3v-3h3v-3h-3v-6h3v-3h3v-3h9v3h3v6h-6v-3h-3v6h3v3h6v3h-6v9h6v6Z"/><path class="cls-5" d="M523.64,373.39h-21v-3h-3v-6h3v-3h9v-3h3v-3h-6v3h-6v-6h3v-3h15v3h3v15h3v6Zm-9-3v-6h-3v6Z"/><path class="cls-5" d="M562.64,373.39h-12v-3h-3v-3h-3v6h-15v-3h3v-24h-3v-3h3v-3h9v3h3v12h3v-3h3v-3h9v6h-6v6h3v3h3v3h3v3h3v3Z"/><path class="cls-5" d="M374.08,452.53h-15v-3h-3v-6h6v3h9v-3h-6v-3h-6v-3h-3v-12h3v-3h3v-3h15v3h3v6h-6v-3h-6v6h9v3h3v3h3v9h-3v3h-3v3Z"/><path class="cls-5" d="M392.08,428.53h-3v-3h-3v-3h3v-3h9v6h-3v3Zm6,24h-12v-3h3v-12h-3v-3h3v-3h9v18h3v3Z"/><path class="cls-5" d="M419.08,452.53h-15v-3h3v-21h-3v-6h6v-3h9v30h3v3Z"/><path class="cls-5" d="M443.08,452.53h-12v-3h-3v-3h-3v-9h3v-6h6v-3h9v3h3v3h3v6h-15v3h3v3h6v-3h6v6h-3v3Zm-6-15h3v-3h-6v3Z"/><path class="cls-5" d="M479.08,452.53h-9v-15h-3v15h-12v-18h-3v-3h3v-3h9v3h6v-3h6v3h3v3h3v18Z"/><path class="cls-5" d="M500.08,452.53h-9v-3h-3v-15h-3v-6h3v-3h6v-3h6v6h6v6h-6v12h3v-3h3v6h-3v3Z"/><path class="cls-5" d="M542.08,452.53h-15v-3h-3v-6h6v3h9v-3h-6v-3h-6v-3h-3v-12h3v-3h3v-3h15v3h3v6h-6v-3h-6v6h9v3h3v3h3v9h-3v3h-3v3Z"/><path class="cls-5" d="M569.08,452.53h-9v-3h-3v-15h-3v-6h3v-3h6v-3h6v6h6v6h-6v12h3v-3h3v6h-3v3Z"/><path class="cls-5" d="M602.08,452.53h-21v-3h-3v-6h3v-3h9v-3h3v-3h-6v3h-6v-6h3v-3h15v3h3v15h3v6Zm-9-3v-6h-3v6Z"/><path class="cls-5" d="M626.08,461.53h-15v-3h-3v-6h3v-3h-3v-3h3v-6h-3v-6h3v-3h6v-3h9v3h3v-3h6v6h-3v6h-3v3h-12v3h15v3h3v6h-3v3h-3v3Zm-6-21h3v-9h-3v3h-3v6Zm0,18h3v-6h-6v6Z"/><path class="cls-5" d="M656.08,452.53h-12v-3h-3v-3h-3v-9h3v-6h6v-3h9v3h3v3h3v6h-15v3h3v3h6v-3h6v6h-3v3Zm-6-15h3v-3h-6v3Z"/><path class="cls-5" d="M389.43,539.34h-6v-9h-3v-6h-3v6h-3v6h-3v3h-6v-12h-3v-12h-3v-9h9v12h3v3h3v-9h-3v-3h3v-3h12v3h3v3h-3v3h3v6h3v-15h9v9h-3v9h-3v6h-3v9Z"/><path class="cls-5" d="M428.43,539.34h-15v-3h-3v-3h-3v-6h-3v-9h3v-6h3v-3h6v-3h12v3h3v-3h6v15h-6v-3h-3v-3h-3v-3h-6v3h-3v9h3v6h15v-3h3v9h-6v3Z"/><path class="cls-5" d="M380.11,615.58h-15v-3h-3v-3h-3v-6h6v-3h-3v-12h3v-3h3v-3h15v3h3v3h3v3h-3v3h-3v-3h-3v-3h-6v6h9v3h3v3h3v9h-3v3h-3v3Zm-6-6h3v-3h-6v-3h-6v3h3v3h6Z"/><path class="cls-5" d="M416.11,615.58h-21v-3h-3v-6h3v-3h9v-3h3v-3h-6v3h-6v-6h3v-3h15v3h3v15h3v6Zm-9-3v-6h-3v6Z"/><path class="cls-5" d="M449.11,615.58h-9v-15h-3v15h-12v-18h-3v-3h3v-3h9v3h6v-3h6v3h3v3h3v18Z"/><path class="cls-5" d="M488.11,615.58h-12v-3h-3v-3h-3v6h-15v-3h3v-24h-3v-3h3v-3h9v3h3v12h3v-3h3v-3h9v6h-6v6h3v3h3v3h3v3h3v3Z"/><path class="cls-5" d="M879.63,1215h-15v-3h-3v-3h-3v-6h-3v-9h3v-6h3v-3h6v-3h12v3h3v-3h6v15h-6v-3h-3v-3h-3v-3h-6v3h-3v9h3v6h15v-3h3v9h-6v3Z"/><path class="cls-5" d="M921.63,1215h-12v-6h3v-9h-9v9h3v6h-15v-6h3v-21h-3v-6h12v3h3v9h3v-3h9v3h3v15h3v6Z"/><path class="cls-5" d="M933.63,1191h-3v-3h-3v-3h3v-3h9v6h-3v3Zm6,24h-12v-3h3v-12h-3v-3h3v-3h9v18h3v3Z"/><path class="cls-5" d="M960.63,1215h-15v-3h3v-21h-3v-6h6v-3h9v30h3v3Z"/><path class="cls-5" d="M981.63,1215h-15v-3h3v-21h-3v-6h6v-3h9v30h3v3Z"/><path class="cls-5" d="M891.63,1272.58h-21v-3h3v-6h3v-3h3v-6h-3v3h-6v-9h21v9h-3v6h-3v3h6v-3h3v9Z"/><path class="cls-5" d="M912.63,1272.58h-12v-3h-3v-15h3v-3h3v-3h12v3h3v3h3v12h-3v3h-3v3Zm-3-6h3v-9h-3v-3h-3v12Z"/><path class="cls-5" d="M951.63,1272.58h-9v-15h-3v15h-12v-18h-3v-3h3v-3h9v3h6v-3h6v3h3v3h3v18Z"/><path class="cls-5" d="M981.63,1272.58h-21v-3h-3v-6h3v-3h9v-3h3v-3h-6v3h-6v-6h3v-3h15v3h3v15h3v6Zm-9-3v-6h-3v6Z"/><path class="cls-5" d="M376.75,578.05h-1.5v-1h-1.5v-2h-1.5v-2h-1.5v-1h-1.5v-2h7.5v2h-1.5v1h1.5v1h1.5v-1h1.5v-1h-1.5v-2h6v2h-1.5v1h-1.5v2h-1.5v1h-1.5v2Z"/></g></svg>