<?xml version="1.0" encoding="utf-8"?>
<!-- Generator: Adobe Illustrator 26.2.1, SVG Export Plug-In . SVG Version: 6.00 Build 0)  -->
<svg version="1.1" id="Layer_1" xmlns="http://www.w3.org/2000/svg" xmlns:xlink="http://www.w3.org/1999/xlink" x="0px" y="0px"
	 viewBox="0 0 1943.2 1196.3" style="enable-background:new 0 0 1943.2 1196.3;" xml:space="preserve">
<style type="text/css">
	.st0{fill:#C6E9FA;}
	.st1{fill:#051B32;}
	.st2{fill:#0D395B;}
	.st3{fill:#08243C;}
	.st4{fill:#0A3250;}
	.st5{fill:#D1A52B;}
	.st6{fill:#A27C2C;}
	.st7{fill:#84BFDB;}
	.st8{fill:#0293B9;}
	.st9{fill:#4C6E51;}
	.st10{fill:#325041;}
	.st11{fill:#807F41;}
	.st12{fill:#585C2E;}
	.st13{fill:#219AD6;}
	.st14{fill:#8A5DA6;}
	.st15{fill:#472D60;}
	.st16{fill:#E780B0;}
	.st17{fill:#B54477;}
	.st18{fill:#C2E6EE;}
	.st19{fill:#BE1F42;}
	.st20{fill:#6A3C87;}
	.st21{fill:#BD9DEA;}
	.st22{fill:#A256D8;}
	.st23{fill:#F7D33C;}
	.st24{fill:#7A274E;}
	.st25{fill:#FFFFFF;}
</style>
<g>
	<g>
		<path class="st0" d="M216,196.1V96.3h-7.7c-2.3,0-5.3,0.8-9.1,2.4s-7.6,3.7-11.5,6.3c-3.9,2.6-6.9,5-9.2,7.3l3.1-18.9h94.9
			l2.9,18.9c-2.5-2.2-5.7-4.5-9.6-7.1s-7.7-4.7-11.4-6.4c-3.7-1.7-6.5-2.5-8.5-2.5h-7.8v99.8H216z"/>
		<path class="st0" d="M285.1,196.1V93.4h26.1v102.7H285.1z"/>
		<path class="st0" d="M359.1,198.7c-7.2,0-13.9-1.5-20.1-4.6s-11.2-7.6-15-13.4c-3.8-5.8-5.7-12.6-5.7-20.3c0-7.5,2-14,5.9-19.4
			s9-9.5,15.2-12.3s12.8-4.2,19.7-4.2c7,0,13.5,1.4,19.7,4.2c6.2,2.8,11.2,7,15.1,12.6c3.9,5.5,5.8,12.1,5.8,19.7
			c0,8-1.9,14.9-5.6,20.6c-3.8,5.7-8.7,10-14.9,12.8C373,197.3,366.3,198.7,359.1,198.7z M364.7,195.8c3,0,5.4-1.5,7-4.6
			c1.6-3,2.6-7,2.9-12c0.3-4.9,0.1-10.5-0.8-16.5c-0.8-6.4-2.1-12.3-4-17.5c-1.9-5.3-4.2-9.5-7-12.7s-5.8-4.8-9-4.8
			c-3,0-5.4,1.6-7.1,4.7c-1.7,3.2-2.7,7.3-3,12.5s-0.1,10.8,0.7,16.9c0.8,6,2.1,11.6,4,16.9c1.9,5.3,4.3,9.5,7.1,12.6
			C358.2,194.2,361.3,195.8,364.7,195.8z"/>
		<path class="st0" d="M444.7,198.9c-8.4,0-15.4-1.7-21.2-5.2c-5.8-3.5-10.1-8.1-13-13.9c-2.9-5.8-4.4-12.1-4.4-18.9
			c0-7.3,1.4-13.6,4.3-19.1c2.9-5.4,7.1-9.6,12.8-12.6c5.7-3,12.8-4.5,21.4-4.5c5.1,0,9.9,0.2,14.3,0.7s8.3,1.3,11.7,2.4l-0.3,16
			c-3.9-5.1-7.7-9.1-11.3-11.9c-3.6-2.8-7-4.2-10-4.2c-5.2,0-9.3,2.7-12.2,8.2c-2.9,5.4-4.4,12.7-4.4,21.8c0,8.2,0.8,15.1,2.3,20.8
			s3.6,10,6.4,13c2.7,2.9,5.8,4.4,9.1,4.4c3.3,0,6.7-1.8,10.2-5.5c3.5-3.6,6.2-7.6,7.9-12l6.4,12.4c-4.3,2.7-8.9,4.8-13.8,6.1
			C455.8,198.2,450.5,198.9,444.7,198.9z"/>
		<path class="st0" d="M480,196.1v-68.5h26V154h0.3c1.8-5,4.2-9.5,6.9-13.6c2.8-4.1,5.9-7.4,9.3-9.9c3.4-2.6,7.1-3.9,11.2-4.2
			l1.5,17c-4.7-0.1-9.1,0.4-13.4,1.5c-4.2,1.1-7.9,3.3-11,6.6c-3.1,3.3-4.7,7.7-4.8,13.4v31.3H480z"/>
		<path class="st0" d="M577.5,198.9c-9.4,0-16.9-2-22.7-5.9s-8.6-9.7-8.6-17.3v-45.2h-7.8v-2.9h4.2c4.7,0,9.1-1.6,13.2-4.8
			c4.1-3.2,7.4-7.4,9.9-12.6s3.8-10.8,3.8-16.9h2.8v34.2h20.5v2.9h-20.5v53.8c0,3.6,0.5,6.3,1.6,8.1s2.6,2.7,4.6,2.7
			c2.2,0,4.7-1.3,7.6-3.9c2.9-2.6,5.8-6.4,8.7-11.3l4.2,16.1C591.5,197.9,584.3,198.9,577.5,198.9z"/>
	</g>
</g>
<g>
	<g>
		<path class="st1" d="M267.3,837.4l252.1-514.3c0,0,241.2,126.1,373.1,174s268.1,91.6,382.4,111.8
			c114.3,20.2,284.9,43.7,372.3,43.7l44.5,177.3l-957.2,292.5l-207.3-94.7l26.9-61.4L267.3,837.4z"/>
		<path class="st2" d="M734.3,1126.4l-212.1-96.8l26.9-61.3l-287-129l255.6-521.5l3.5,1.8c2.4,1.3,242.5,126.5,372.7,173.8
			c159.5,57.9,284.4,94.4,381.7,111.6c119.1,21,286.2,43.6,371.6,43.6h3l46.2,183.8l-3.5,1.1L734.3,1126.4z M532.3,1025.7
			l202.5,92.5l952.3-291l-42.9-170.8c-86.7-0.5-251.9-22.9-370-43.8c-97.8-17.3-223.1-53.9-383-111.9
			c-122-44.3-339.8-156.6-370.1-172.3L272.6,835.5l286.7,128.8L532.3,1025.7z"/>
	</g>
	<path class="st3" d="M958.7,746.8c-19.2-16.7-41.7-34.5-67.9-52.1c-24.9-16.8-48.8-30.4-70.6-41.6c-1.1-0.6-6.7-4-8.6-11.3
		c-1.2-4.6-0.7-9.7,1.8-14.1l0,0c5.1-8.8,16.5-11.9,25.3-6.8l140.6,81.2c0.6,0.6,10.6,11.7,6.8,25.3
		C983,738.8,971.7,747,958.7,746.8z"/>
	<path class="st3" d="M708.4,628.7L560.9,559c-6-2.8-8.5-10-5.7-16l8-16.8c2.8-6,10-8.5,16-5.7l147.5,69.7c6,2.8,8.5,10,5.7,16
		l-8,16.8C721.6,629,714.4,631.5,708.4,628.7z"/>
	<path class="st3" d="M559.3,604.1l-37-17c-6-2.8-13.2-0.1-15.9,5.9l-64.8,140.7c-2.8,6-0.1,13.2,5.9,15.9l37,17
		c6,2.8,13.2,0.1,15.9-5.9L565.2,620C568,614,565.3,606.9,559.3,604.1z"/>
	<path class="st3" d="M978.5,917.4c-18.9-6.6-32.2-21.7-34-38.9c-1.2-11.6,3.1-20.9,5.7-25.4c5.2-5.2,10.4-10.4,15.6-15.6
		c6.3,12.4,12.6,24.7,18.9,37.1c4.7,4.5,9.4,9.1,14.1,13.6c1.4,0.9,10.8,6.9,10.4,14C1008.7,910.1,996.5,918.8,978.5,917.4z"/>
	<path class="st3" d="M1131.8,656.2c-31.9,8.2-58.8-10.7-94.9-31.8c-105.1-61.2-123.2-44.2-166.6-80.5c-9.4-7.9-26.9-24-47.4-21.3
		c-13.2,1.8-27.9,11.5-31.9,6.7c-1.5-1.8-2.1-6.4-1.7-10c0.2-1.4,0.5-2.8,1-4.2l7.1-20.1c3.4-9.6,14.1-14.7,23.7-11.3l330.2,117.4
		c9.6,3.4,14.7,14.1,11.3,23.7l-7.1,20.1C1150.3,648.6,1142.3,653.5,1131.8,656.2z"/>
	<g>
		<polygon class="st4" points="778.2,448.2 758.6,485.2 716,467.3 686.3,530 760.8,569.2 746.8,601.2 592.7,526.6 577,551.9 
			440.9,482.4 521.6,321.6 		"/>
		<path class="st2" d="M748.7,606.4l-154.6-74.8l-15.7,25.3l-142.7-72.8l84.1-167.7l263.6,130.1l-23.1,43.6l-42.4-17.9l-26.5,56.1
			l74.4,39.2L748.7,606.4z M591.3,521.7l153.6,74.3l11-25l-74.6-39.3l32.9-69.4l42.7,18l16.1-30.3L523.3,326.8l-77.2,153.9
			l129.6,66.1L591.3,521.7z"/>
	</g>
	<g>
		<polygon class="st4" points="496.1,572 414.3,733.4 458.5,755.2 538.1,592.7 		"/>
		<path class="st2" d="M460.3,760.4L409,735.1l85.3-168.3l48.9,24.1L460.3,760.4z M419.5,731.6l37.3,18.4l76.2-155.5l-35.1-17.3
			L419.5,731.6z"/>
	</g>
	<g>
		<polygon class="st4" points="388.1,890.6 408.3,848 362.9,825 380.2,791.4 588.7,892.8 632.4,804.9 553.4,966.2 		"/>
		<path class="st2" d="M555.2,971.3l-172.3-78.8l20.2-42.7l-45.5-23l20.9-40.4l208.4,101.4l42-84.5l6.9,3.4L555.2,971.3z
			 M393.3,888.7l158.3,72.4l32.5-66.3l-202.1-98.3l-13.8,26.8l45.3,22.9L393.3,888.7z"/>
	</g>
	<g>
		<polygon class="st4" points="896.8,866.2 795.1,1088.4 659.8,1025 762.8,804.7 		"/>
		<path class="st2" d="M797,1093.6l-142.3-66.7l106.2-227.3l141,64.7L797,1093.6z M664.9,1023.1l128.3,60.2l98.5-215.2l-127-58.3
			L664.9,1023.1z"/>
	</g>
	<g>
		<circle class="st4" cx="1080.9" cy="822.7" r="67"/>
		<path class="st2" d="M1080.9,893.5c-39.1,0-70.9-31.8-70.9-70.9c0-39.1,31.8-70.9,70.9-70.9s70.9,31.8,70.9,70.9
			C1151.7,861.7,1119.9,893.5,1080.9,893.5z M1080.9,759.5c-34.8,0-63.2,28.3-63.2,63.2s28.3,63.2,63.2,63.2s63.2-28.3,63.2-63.2
			S1115.7,759.5,1080.9,759.5z"/>
	</g>
	<g>
		<polygon class="st4" points="1202,661.7 1270.6,673.3 1278.3,628.6 1209.6,616.4 		"/>
		<path class="st2" d="M1273.8,677.7l-76.2-12.9l8.8-52.9l76.4,13.5L1273.8,677.7z M1206.5,658.5l61,10.3l6.4-37.1l-61.1-10.8
			L1206.5,658.5z"/>
	</g>
	<g>
		<polygon class="st4" points="1283,670.6 1292.5,672.8 1291.1,683.1 1498.4,717.3 1499.9,711.1 1523.6,715.3 1530.9,679.6 
			1505.7,674.1 1506.9,666.6 1298.4,632.7 1296.8,644.7 1287.4,643.3 		"/>
		<path class="st2" d="M1501.3,721.7l-214.5-35.4l1.5-10.5l-9.6-2.2l5.6-34.6l9.3,1.3l1.6-12.1l216.3,35.2l-1.3,7.8l25.3,5.5
			l-8.8,43.2l-23.8-4.2L1501.3,721.7z M1295.4,679.9l200.1,33l1.6-6.2l23.5,4.2l5.8-28.3l-25.1-5.4l1.2-7.4l-200.8-32.6l-1.5,12
			l-9.6-1.4l-3.2,19.9l9.5,2.1L1295.4,679.9z"/>
	</g>
	<g>
		<path class="st5" d="M1225.9,775.7l139.7-38.2l13.9,44.5c0,0-91.9,25.5-139.2,39.2L1225.9,775.7z"/>
		<path class="st6" d="M1237.8,826l-16.8-52.9l147.2-40.2l16.2,51.8l-3.8,1.1c-0.9,0.3-92.4,25.7-139.2,39.2L1237.8,826z
			 M1230.8,778.4l12.1,38.1c42-12.1,114.4-32.3,131.8-37.1l-11.6-37.1L1230.8,778.4z"/>
	</g>
	<g>
		<polyline class="st4" points="934.5,1031 1625.6,839.4 1606.5,783.9 1520.8,805.2 1518.6,794.6 1424.4,820.9 1427.8,849.5 
			1269.2,896 1267,886.5 1007,963.8 991.9,958.7 993.6,946.4 981.8,940.8 958.8,994 925.5,1005.8 932,1027.7 		"/>
		<polygon class="st2" points="935.5,1034.7 933.4,1027.3 1620.6,836.8 1604,788.5 1517.8,809.9 1515.6,799.4 1428.7,823.7 
			1432,852.3 1266.4,900.8 1264.2,891.3 1007,967.8 987.6,961.4 989.4,948.7 983.8,946 961.7,997.1 930.3,1008.2 935.7,1026.6 
			928.2,1028.7 920.8,1003.4 956,991 979.9,935.6 997.8,944.1 996.2,956.1 1007.1,959.7 1269.8,881.6 1272.1,891.1 1423.6,846.7 
			1420.2,818.1 1521.5,789.7 1523.8,800.5 1609,779.3 1630.6,842 1626.6,843.1 		"/>
	</g>
	<g>
		<polygon class="st7" points="821.6,1080.6 830.8,1084.5 910.7,1037.5 934.5,1031 925.5,1005.8 911.5,1008.3 892.7,999.4 
			920.5,939.7 893.3,927.4 		"/>
		<path class="st8" d="M831.1,1088.8l-14.7-6.2l75-160.3l34.2,15.5l-27.8,59.7l14.2,6.8l16-2.9l11.5,32.2l-27.3,7.4L831.1,1088.8z
			 M826.8,1078.6l3.8,1.6l78.6-46.3l20.3-5.5l-6.5-18.2l-12,2.2l-23.3-11.2l27.7-59.6l-20.1-9.1L826.8,1078.6z"/>
	</g>
	<g>
		<polygon class="st9" points="1292.5,932.1 1404,901 1392.7,859.4 1349.5,872.2 1340.1,838.8 1285.5,854.4 1294.2,887.9 
			1282.1,891.9 		"/>
		<path class="st10" d="M1289.7,936.9l-12.2-47.6l12.1-4l-8.8-33.7l62-17.6l9.3,33.4l43.3-12.8l13.3,49.1L1289.7,936.9z
			 M1286.8,894.4l8.5,32.9l104-29l-9.2-34.1l-43.2,12.8l-9.4-33.4l-47.3,13.5l8.7,33.4L1286.8,894.4z"/>
	</g>
	<g>
		
			<rect x="940.7" y="579.2" transform="matrix(0.9308 0.3655 -0.3655 0.9308 284.44 -310.5099)" class="st11" width="43.2" height="33.6"/>
		<path class="st12" d="M978.4,624.5L931,605.9l15.1-38.5l47.4,18.6L978.4,624.5z M941.1,601.5l33,13l9.5-24.1l-33-13L941.1,601.5z"
			/>
	</g>
	<g>
		
			<rect x="1000.8" y="602.6" transform="matrix(0.9308 0.3655 -0.3655 0.9308 297.1808 -330.8641)" class="st11" width="43.2" height="33.6"/>
		<path class="st12" d="M1038.6,648l-47.4-18.6l15.1-38.5l47.4,18.6L1038.6,648z M1001.2,625l33,13l9.5-24.1l-33-13L1001.2,625z"/>
	</g>
	<g>
		
			<rect x="1081" y="615.8" transform="matrix(0.9308 0.3655 -0.3655 0.9308 313.5166 -364.5314)" class="st13" width="77" height="59.9"/>
	</g>
	<g>
		
			<rect x="760.6" y="580.9" transform="matrix(0.9188 0.3948 -0.3948 0.9188 300.1799 -259.7032)" class="st13" width="41.2" height="37.3"/>
	</g>
	<g>
		<polygon class="st4" points="589.3,740.5 568.7,783.3 632.1,813.5 620.9,838.8 641.5,848.3 693.6,738.8 668.8,728.5 658.4,749 
			641.3,742.2 633.6,758.8 		"/>
		<path class="st2" d="M643.4,853.4l-27.5-12.6l11.2-25.4l-63.6-30.3l23.9-49.5l44.3,18.3l7.7-16.6l17.2,6.9l10.4-20.6l31.9,13.3
			L643.4,853.4z M626,836.9l13.7,6.3l48.7-102.4l-17.8-7.4l-10.3,20.5l-17-6.8l-7.7,16.7l-44.4-18.3l-17.3,36l63.3,30.2L626,836.9z"
			/>
	</g>
	<g>
		<polygon class="st14" points="950.7,803.3 916.3,878.6 764.2,805.5 798,731.3 		"/>
		<path class="st15" d="M918.1,883.8l-159.1-76.5l37.1-81.2l159.7,75.3L918.1,883.8z M769.2,803.7l145.1,69.8l31.2-68.3l-145.7-68.7
			L769.2,803.7z"/>
	</g>
	<g>
		<polygon class="st16" points="725.5,886 801.1,720.9 770.9,706.6 762.5,726.2 685.4,691.8 667.9,729.7 692.6,740.4 640.3,848.1 		
			"/>
		<path class="st17" d="M727.4,891.1L635.1,850l52.3-107.6l-24.6-10.7l20.8-45l76.9,34.4l8.4-19.7l37.3,17.6L727.4,891.1z
			 M645.6,846.2l78,34.8L796,722.8l-23.2-10.9l-8.4,19.5l-77.1-34.5l-14.3,30.9l24.8,10.7L645.6,846.2z"/>
	</g>
	<g>
		
			<rect x="777.6" y="734.4" transform="matrix(0.9035 0.4286 -0.4286 0.9035 406.6729 -263.1053)" class="st14" width="19.8" height="73.9"/>
	</g>
	<g>
		<polygon class="st14" points="762.9,795.6 756.7,759.9 791.7,732.4 800.2,736.5 		"/>
	</g>
	<g>
		<path class="st14" d="M766.9,807.1c0,0-11.6-6.9-16-16.2c-7.4-15.7-5.1-25.7-2.2-33.7c4.6-13.1,29.3-67.3,29.3-67.3l31.8,14.3
			l-13.7,30.4"/>
		<path class="st15" d="M764.9,810.4c-0.5-0.3-12.7-7.7-17.5-17.9c-7.7-16.4-5.7-27.3-2.4-36.6c4.7-13.1,28.5-65.4,29.5-67.6
			l1.6-3.5l38.9,17.5l-15.3,33.9l-7-3.2l12.1-26.8L780,695c-5.5,12.2-23.8,52.6-27.6,63.5c-2.6,7.3-4.7,16.2,2.1,30.7
			c3.8,8,14.4,14.4,14.5,14.5L764.9,810.4z"/>
	</g>
	<g>
		<g>
			<path class="st18" d="M695.6,721.6c-20.9-5.3-33.5-11.2-38.5-18.2c-3.9-5.5-1.2-11.4,1.1-16.6c1.9-4.1,3.7-8.1,2.8-11.8l6-1.4
				c1.4,5.8-1,11.1-3.2,15.8c-2.2,4.9-3.5,8-1.7,10.4c2.8,3.9,11.1,9.7,35,15.8L695.6,721.6z"/>
		</g>
		<g>
			<g>
				<polygon class="st18" points="713.4,722.4 687.1,726.8 695.1,718.3 691.6,707.2 				"/>
			</g>
		</g>
	</g>
	<g>
		<g>
			<rect x="619.9" y="562.3" class="st19" width="9.8" height="27.6"/>
			<path class="st19" d="M631.3,591.5h-12.9v-30.7h12.9V591.5z M621.5,588.4h6.7v-24.5h-6.7V588.4z"/>
		</g>
		<g>
			<rect x="610.8" y="571.8" class="st19" width="27.2" height="7.9"/>
			<path class="st19" d="M639.6,581.3h-30.3v-11h30.3V581.3z M612.4,578.2h24.1v-4.8h-24.1V578.2z"/>
		</g>
	</g>
	<g>
		
			<rect x="709.1" y="678.8" transform="matrix(0.9102 0.4142 -0.4142 0.9102 349.8908 -239.2415)" class="st15" width="35.1" height="17"/>
		<path class="st20" d="M741.1,707.4l-39-17.7l10.2-22.5l39,17.7L741.1,707.4z M712.3,685.8l24.9,11.3l3.8-8.4l-24.9-11.3
			L712.3,685.8z"/>
	</g>
	<g>
		
			<rect x="1067.4" y="896.8" transform="matrix(0.9587 -0.2845 0.2845 0.9587 -213.1758 351.8798)" class="st21" width="74.3" height="25.7"/>
		<path class="st22" d="M1070,937.4l-9.5-32.1l78.7-23.3l9.5,32.1L1070,937.4z M1070.1,910.5l5.1,17.3l63.8-18.9l-5.1-17.3
			L1070.1,910.5z"/>
	</g>
	<g>
		<g>
			<path class="st0" d="M207.3,484.9c-3,0-5.3-0.8-7-2.5s-2.5-4-2.5-7.1v-11.7h4.9v11.6c0,2,0.4,3.4,1.2,4.3c0.8,0.9,2,1.3,3.4,1.3
				c1.5,0,2.6-0.4,3.5-1.3c0.8-0.9,1.2-2.3,1.2-4.3v-11.6h4.8v11.7c0,3.1-0.8,5.5-2.5,7.1S210.3,484.9,207.3,484.9z"/>
			<path class="st0" d="M221.3,484.5v-22.3h4.7v22.3H221.3z"/>
			<path class="st0" d="M235.3,484.8c-1.2,0-2.3-0.2-3.2-0.6c-0.9-0.4-1.6-1-2.1-1.8c-0.5-0.7-0.7-1.6-0.7-2.5
				c0-0.9,0.2-1.8,0.7-2.5c0.5-0.7,1.2-1.3,2.2-1.7c1-0.4,2.4-0.6,4-0.6h4.3v2.7h-3.8c-1.1,0-1.9,0.2-2.3,0.5
				c-0.4,0.4-0.6,0.8-0.6,1.4c0,0.6,0.2,1.1,0.7,1.4s1.1,0.5,1.9,0.5c0.8,0,1.5-0.2,2.1-0.5s1.1-0.9,1.3-1.7l0.7,2.2
				c-0.3,1-1,1.8-1.9,2.3C237.9,484.5,236.7,484.8,235.3,484.8z M240.2,484.5v-3.2l-0.3-0.7V475c0-1-0.3-1.8-0.9-2.3
				c-0.6-0.6-1.5-0.8-2.8-0.8c-0.9,0-1.7,0.1-2.5,0.4c-0.8,0.3-1.5,0.6-2.1,1.1l-1.7-3.3c0.9-0.6,1.9-1.1,3.2-1.5
				c1.2-0.3,2.5-0.5,3.8-0.5c2.5,0,4.4,0.6,5.7,1.7c1.4,1.2,2,3,2,5.4v9.2H240.2z"/>
			<path class="st0" d="M247.8,484.5v-2.9l9.5-11.3l0.8,1.6H248v-3.6h13.9v2.9l-9.5,11.2l-0.9-1.5h10.7v3.6H247.8z"/>
			<path class="st0" d="M273.7,484.5v-22.3h4.7v22.3H273.7z M277.5,481.2l0.1-5.7l7.5-7.1h5.6l-7.2,7.4l-2.4,2L277.5,481.2z
				 M285.7,484.5l-5.5-6.8l2.9-3.6l8.2,10.4H285.7z"/>
			<path class="st0" d="M298.4,484.8c-1.2,0-2.3-0.2-3.2-0.6c-0.9-0.4-1.6-1-2.1-1.8c-0.5-0.7-0.7-1.6-0.7-2.5
				c0-0.9,0.2-1.8,0.7-2.5c0.5-0.7,1.2-1.3,2.2-1.7c1-0.4,2.4-0.6,4-0.6h4.3v2.7h-3.8c-1.1,0-1.9,0.2-2.3,0.5
				c-0.4,0.4-0.6,0.8-0.6,1.4c0,0.6,0.2,1.1,0.7,1.4s1.1,0.5,1.9,0.5c0.8,0,1.5-0.2,2.1-0.5s1.1-0.9,1.3-1.7l0.7,2.2
				c-0.3,1-1,1.8-1.9,2.3C301,484.5,299.9,484.8,298.4,484.8z M303.4,484.5v-3.2l-0.3-0.7V475c0-1-0.3-1.8-0.9-2.3
				c-0.6-0.6-1.5-0.8-2.8-0.8c-0.9,0-1.7,0.1-2.5,0.4c-0.8,0.3-1.5,0.6-2.1,1.1l-1.7-3.3c0.9-0.6,1.9-1.1,3.2-1.5
				c1.2-0.3,2.5-0.5,3.8-0.5c2.5,0,4.4,0.6,5.7,1.7c1.4,1.2,2,3,2,5.4v9.2H303.4z"/>
			<path class="st0" d="M312,484.5v-16.2h4.5v4.6l-0.6-1.4c0.5-1.1,1.3-2,2.3-2.6c1.1-0.6,2.4-0.9,3.9-0.9v4.4
				c-0.2,0-0.4-0.1-0.5-0.1c-0.2,0-0.3,0-0.5,0c-1.3,0-2.4,0.4-3.2,1.1c-0.8,0.7-1.2,1.9-1.2,3.4v7.6H312z"/>
			<path class="st0" d="M323,472.3v-3.6h11.2v3.6H323z M331.5,484.8c-1.9,0-3.4-0.5-4.4-1.5c-1.1-1-1.6-2.4-1.6-4.3v-14.2h4.7v14.1
				c0,0.7,0.2,1.2,0.5,1.6c0.3,0.4,0.8,0.6,1.4,0.6c0.8,0,1.4-0.2,1.9-0.6l1.2,3.3c-0.5,0.3-1,0.6-1.7,0.8
				C332.9,484.7,332.2,484.8,331.5,484.8z"/>
			<path class="st0" d="M346,484.8c-1.8,0-3.5-0.4-4.8-1.1c-1.4-0.7-2.5-1.7-3.2-3c-0.8-1.3-1.1-2.7-1.1-4.3c0-1.6,0.4-3,1.1-4.3
				c0.7-1.3,1.8-2.2,3.1-3c1.3-0.7,2.8-1.1,4.4-1.1c1.6,0,3,0.3,4.3,1c1.3,0.7,2.3,1.6,3,2.9s1.1,2.7,1.1,4.5c0,0.2,0,0.4,0,0.6
				c0,0.2,0,0.4-0.1,0.6h-13.1V475h10.7l-1.8,0.8c0-0.8-0.1-1.6-0.5-2.2s-0.8-1.1-1.4-1.5c-0.6-0.4-1.3-0.5-2.1-0.5
				s-1.5,0.2-2.1,0.5c-0.6,0.4-1.1,0.8-1.4,1.5c-0.3,0.6-0.5,1.4-0.5,2.2v0.7c0,0.9,0.2,1.7,0.6,2.3c0.4,0.7,1,1.2,1.7,1.5
				c0.7,0.4,1.5,0.5,2.5,0.5c0.8,0,1.6-0.1,2.2-0.4c0.6-0.3,1.2-0.7,1.8-1.2l2.5,2.7c-0.7,0.8-1.7,1.5-2.8,1.9
				C348.8,484.5,347.5,484.8,346,484.8z"/>
			<path class="st0" d="M200,502.2c-0.9,0-1.6-0.2-2.1-0.8c-0.5-0.5-0.8-1.1-0.8-1.9s0.3-1.4,0.8-1.9c0.5-0.5,1.3-0.8,2.1-0.8
				c0.9,0,1.6,0.2,2.1,0.7c0.6,0.5,0.8,1.1,0.8,1.8c0,0.8-0.3,1.4-0.8,1.9C201.6,501.9,200.9,502.2,200,502.2z M197.6,520.6v-16.2
				h4.7v16.2H197.6z"/>
			<path class="st0" d="M215.2,520.6v-22.3h4.7v9.4l-0.3,4.8l0.1,4.8v3.3H215.2z M224.7,520.8c-1.4,0-2.6-0.3-3.6-0.9
				c-1-0.6-1.8-1.5-2.4-2.7c-0.5-1.2-0.8-2.8-0.8-4.7c0-1.9,0.3-3.5,0.9-4.7c0.6-1.2,1.4-2.1,2.4-2.7c1-0.6,2.2-0.9,3.5-0.9
				c1.5,0,2.9,0.3,4.1,1c1.2,0.7,2.2,1.7,2.9,2.9c0.7,1.2,1.1,2.7,1.1,4.4s-0.4,3.1-1.1,4.4c-0.7,1.2-1.7,2.2-2.9,2.9
				C227.6,520.4,226.2,520.8,224.7,520.8z M223.9,517c0.8,0,1.5-0.2,2.1-0.5c0.6-0.4,1.1-0.9,1.5-1.5c0.4-0.7,0.6-1.5,0.6-2.4
				c0-0.9-0.2-1.7-0.6-2.4c-0.4-0.7-0.9-1.2-1.5-1.5c-0.6-0.4-1.3-0.5-2.1-0.5c-0.8,0-1.5,0.2-2.1,0.5c-0.6,0.4-1.1,0.9-1.5,1.5
				c-0.4,0.7-0.6,1.5-0.6,2.4c0,0.9,0.2,1.7,0.6,2.4c0.4,0.7,0.9,1.2,1.5,1.5S223.1,517,223.9,517z"/>
			<path class="st0" d="M235.9,520.6v-16.2h4.5v4.6l-0.6-1.4c0.5-1.1,1.3-2,2.3-2.6c1.1-0.6,2.4-0.9,3.9-0.9v4.4
				c-0.2,0-0.4-0.1-0.5-0.1c-0.2,0-0.3,0-0.5,0c-1.3,0-2.4,0.4-3.2,1.1c-0.8,0.7-1.2,1.9-1.2,3.4v7.6H235.9z"/>
			<path class="st0" d="M255.7,520.8c-1.4,0-2.6-0.3-3.6-0.8c-1-0.5-1.9-1.3-2.4-2.4c-0.6-1.1-0.9-2.4-0.9-4.1v-9.1h4.7v8.4
				c0,1.4,0.3,2.4,0.9,3c0.6,0.6,1.4,0.9,2.4,0.9c0.7,0,1.4-0.2,1.9-0.5c0.6-0.3,1-0.8,1.3-1.4c0.3-0.6,0.5-1.4,0.5-2.4v-8h4.7v16.2
				h-4.4v-4.5l0.8,1.3c-0.6,1.1-1.4,2-2.4,2.5C258.1,520.5,256.9,520.8,255.7,520.8z"/>
			<path class="st0" d="M277.3,520.8c-1.7,0-3.3-0.4-4.6-1.1c-1.4-0.7-2.4-1.7-3.2-3c-0.8-1.3-1.2-2.7-1.2-4.3
				c0-1.6,0.4-3.1,1.2-4.3c0.8-1.2,1.8-2.2,3.2-2.9c1.4-0.7,2.9-1.1,4.6-1.1c1.7,0,3.2,0.4,4.5,1.1c1.3,0.7,2.2,1.7,2.7,3l-3.6,2
				c-0.4-0.8-1-1.3-1.6-1.7c-0.6-0.4-1.3-0.5-2-0.5c-0.8,0-1.5,0.2-2.1,0.5c-0.6,0.4-1.2,0.9-1.5,1.5c-0.4,0.7-0.6,1.5-0.6,2.4
				c0,0.9,0.2,1.7,0.6,2.4c0.4,0.7,0.9,1.2,1.5,1.5c0.6,0.4,1.4,0.5,2.1,0.5c0.7,0,1.4-0.2,2-0.5c0.6-0.4,1.2-0.9,1.6-1.7l3.6,2
				c-0.6,1.3-1.5,2.3-2.7,3C280.4,520.4,279,520.8,277.3,520.8z"/>
			<path class="st0" d="M294.9,520.8c-1.7,0-3.2-0.4-4.5-1.1c-1.3-0.7-2.4-1.7-3.1-3c-0.8-1.3-1.1-2.7-1.1-4.3
				c0-1.6,0.4-3.1,1.1-4.3c0.8-1.3,1.8-2.2,3.1-2.9c1.3-0.7,2.8-1.1,4.5-1.1c1.7,0,3.3,0.4,4.6,1.1c1.3,0.7,2.4,1.7,3.2,2.9
				c0.8,1.3,1.1,2.7,1.1,4.3s-0.4,3.1-1.1,4.3c-0.8,1.2-1.8,2.2-3.2,2.9C298.1,520.4,296.6,520.8,294.9,520.8z M294.9,517
				c0.8,0,1.5-0.2,2.1-0.5c0.6-0.4,1.1-0.9,1.5-1.5c0.4-0.7,0.6-1.5,0.6-2.4c0-0.9-0.2-1.7-0.6-2.4c-0.4-0.7-0.9-1.2-1.5-1.5
				c-0.6-0.4-1.3-0.5-2.1-0.5c-0.8,0-1.5,0.2-2.1,0.5c-0.6,0.4-1.1,0.9-1.5,1.5c-0.4,0.7-0.6,1.5-0.6,2.4c0,0.9,0.2,1.7,0.6,2.4
				c0.4,0.7,0.9,1.2,1.5,1.5C293.4,516.8,294.1,517,294.9,517z"/>
			<path class="st0" d="M312.3,520.8c-1.4,0-2.7-0.2-4-0.5c-1.3-0.3-2.3-0.7-3-1.2l1.5-3.3c0.8,0.4,1.6,0.8,2.7,1.1
				c1,0.3,2,0.4,3,0.4c1.1,0,1.8-0.1,2.3-0.4c0.5-0.3,0.7-0.6,0.7-1.1c0-0.4-0.2-0.7-0.5-0.9c-0.4-0.2-0.8-0.3-1.4-0.4
				c-0.6-0.1-1.2-0.2-1.9-0.3c-0.7-0.1-1.4-0.2-2.1-0.4s-1.3-0.4-1.9-0.8s-1.1-0.8-1.4-1.4c-0.4-0.6-0.5-1.3-0.5-2.3
				c0-1,0.3-1.9,0.9-2.7c0.6-0.8,1.5-1.4,2.6-1.8c1.1-0.4,2.4-0.7,4-0.7c1.1,0,2.2,0.1,3.4,0.4c1.1,0.3,2.1,0.6,2.9,1l-1.6,3.3
				c-0.8-0.4-1.5-0.8-2.3-0.9s-1.5-0.3-2.3-0.3c-1.1,0-1.9,0.1-2.3,0.4c-0.5,0.3-0.7,0.6-0.7,1.1c0,0.4,0.2,0.7,0.5,0.9
				c0.4,0.2,0.8,0.4,1.4,0.5c0.6,0.1,1.2,0.2,1.9,0.3c0.7,0.1,1.4,0.2,2.1,0.4c0.7,0.2,1.3,0.4,1.9,0.8c0.6,0.3,1.1,0.8,1.4,1.4
				c0.4,0.6,0.5,1.3,0.5,2.3c0,1-0.3,1.9-0.9,2.6c-0.6,0.8-1.5,1.4-2.6,1.8C315.3,520.6,313.9,520.8,312.3,520.8z M310.5,502.3
				l-4-4.3h3.4l4.2,3.6H311l4.2-3.6h3.4l-4,4.3H310.5z"/>
			<path class="st0" d="M325.1,502.2c-0.9,0-1.6-0.2-2.1-0.8c-0.5-0.5-0.8-1.1-0.8-1.9s0.3-1.4,0.8-1.9c0.5-0.5,1.3-0.8,2.1-0.8
				c0.9,0,1.6,0.2,2.1,0.7c0.6,0.5,0.8,1.1,0.8,1.8c0,0.8-0.3,1.4-0.8,1.9C326.7,501.9,326,502.2,325.1,502.2z M322.8,520.6v-16.2
				h4.7v16.2H322.8z"/>
		</g>
	</g>
	<g>
		<g>
			<path class="st0" d="M1531.6,610.8l-9.1-21h5.3l7.9,18.6h-3.1l8-18.6h4.8l-9.1,21H1531.6z"/>
			<path class="st0" d="M1547.6,610.8v-21h4.9v21H1547.6z"/>
			<path class="st0" d="M1557.5,610.8v-21h9.1c1.9,0,3.5,0.3,4.9,0.9s2.4,1.5,3.2,2.6c0.7,1.1,1.1,2.5,1.1,4.1
				c0,1.6-0.4,2.9-1.1,4.1s-1.8,2-3.2,2.6c-1.4,0.6-3,0.9-4.9,0.9h-6.4l2.2-2.2v8H1557.5z M1562.4,603.4l-2.2-2.3h6.2
				c1.5,0,2.6-0.3,3.4-1c0.8-0.6,1.1-1.5,1.1-2.7c0-1.2-0.4-2.1-1.1-2.7c-0.8-0.6-1.9-0.9-3.4-0.9h-6.2l2.2-2.3V603.4z"/>
			<path class="st0" d="M1576,613.8l9.9-28.3h4.1l-9.9,28.3H1576z"/>
			<path class="st0" d="M1590.9,616.7v-22h4.5v3.3l-0.1,4.8l0.3,4.8v9.1H1590.9z M1600.4,611.1c-1.3,0-2.5-0.3-3.5-0.9
				c-1-0.6-1.8-1.5-2.4-2.7s-0.9-2.8-0.9-4.7c0-1.9,0.3-3.5,0.8-4.7c0.5-1.2,1.3-2.1,2.4-2.7c1-0.6,2.2-0.9,3.6-0.9
				c1.5,0,2.9,0.3,4.1,1s2.2,1.7,2.9,2.9c0.7,1.2,1.1,2.7,1.1,4.4c0,1.7-0.4,3.2-1.1,4.4c-0.7,1.2-1.7,2.2-2.9,2.9
				S1602,611.1,1600.4,611.1z M1599.6,607.2c0.8,0,1.5-0.2,2.1-0.5s1.1-0.9,1.5-1.5s0.6-1.5,0.6-2.4c0-0.9-0.2-1.7-0.6-2.4
				s-0.9-1.2-1.5-1.5c-0.6-0.4-1.3-0.5-2.1-0.5c-0.8,0-1.5,0.2-2.1,0.5c-0.6,0.3-1.1,0.9-1.5,1.5s-0.6,1.5-0.6,2.4
				c0,0.9,0.2,1.7,0.6,2.4s0.9,1.2,1.5,1.5C1598.2,607,1598.9,607.2,1599.6,607.2z"/>
			<path class="st0" d="M1619.3,611.1c-1.7,0-3.2-0.4-4.5-1.1c-1.3-0.7-2.4-1.7-3.1-3c-0.8-1.2-1.1-2.7-1.1-4.3
				c0-1.6,0.4-3.1,1.1-4.3c0.8-1.3,1.8-2.2,3.1-2.9c1.3-0.7,2.8-1.1,4.5-1.1c1.7,0,3.3,0.4,4.6,1.1c1.3,0.7,2.4,1.7,3.2,2.9
				c0.8,1.3,1.1,2.7,1.1,4.3s-0.4,3.1-1.1,4.3c-0.8,1.2-1.8,2.2-3.2,2.9C1622.6,610.7,1621,611.1,1619.3,611.1z M1619.3,607.2
				c0.8,0,1.5-0.2,2.1-0.5c0.6-0.3,1.1-0.9,1.5-1.5c0.4-0.7,0.6-1.5,0.6-2.4c0-0.9-0.2-1.7-0.6-2.4s-0.9-1.2-1.5-1.5
				c-0.6-0.4-1.3-0.5-2.1-0.5c-0.8,0-1.5,0.2-2.1,0.5c-0.6,0.3-1.1,0.9-1.5,1.5s-0.6,1.5-0.6,2.4c0,0.9,0.2,1.7,0.6,2.4
				c0.4,0.7,0.9,1.2,1.5,1.5C1617.9,607.1,1618.5,607.2,1619.3,607.2z"/>
			<path class="st0" d="M1631.3,616.7v-22h4.5v3.3l-0.1,4.8l0.3,4.8v9.1H1631.3z M1640.8,611.1c-1.3,0-2.5-0.3-3.5-0.9
				c-1-0.6-1.8-1.5-2.4-2.7s-0.9-2.8-0.9-4.7c0-1.9,0.3-3.5,0.8-4.7c0.5-1.2,1.3-2.1,2.4-2.7c1-0.6,2.2-0.9,3.6-0.9
				c1.5,0,2.9,0.3,4.1,1s2.2,1.7,2.9,2.9c0.7,1.2,1.1,2.7,1.1,4.4c0,1.7-0.4,3.2-1.1,4.4c-0.7,1.2-1.7,2.2-2.9,2.9
				S1642.4,611.1,1640.8,611.1z M1640,607.2c0.8,0,1.5-0.2,2.1-0.5s1.1-0.9,1.5-1.5s0.6-1.5,0.6-2.4c0-0.9-0.2-1.7-0.6-2.4
				s-0.9-1.2-1.5-1.5c-0.6-0.4-1.3-0.5-2.1-0.5c-0.8,0-1.5,0.2-2.1,0.5c-0.6,0.3-1.1,0.9-1.5,1.5s-0.6,1.5-0.6,2.4
				c0,0.9,0.2,1.7,0.6,2.4s0.9,1.2,1.5,1.5C1638.6,607,1639.3,607.2,1640,607.2z"/>
			<path class="st0" d="M1654.4,592.4c-0.9,0-1.6-0.2-2.1-0.8c-0.5-0.5-0.8-1.1-0.8-1.9c0-0.7,0.3-1.4,0.8-1.9
				c0.5-0.5,1.3-0.8,2.1-0.8c0.9,0,1.6,0.2,2.1,0.7c0.5,0.5,0.8,1.1,0.8,1.8c0,0.8-0.3,1.4-0.8,1.9
				C1656,592.2,1655.3,592.4,1654.4,592.4z M1652.1,610.8v-16.2h4.7v16.2H1652.1z"/>
			<path class="st0" d="M1666.5,611.1c-1.4,0-2.7-0.2-4-0.5c-1.3-0.3-2.3-0.7-3-1.2l1.5-3.3c0.8,0.4,1.6,0.8,2.7,1.1s2,0.4,3,0.4
				c1.1,0,1.8-0.1,2.3-0.4c0.5-0.3,0.7-0.6,0.7-1.1c0-0.4-0.2-0.7-0.5-0.9c-0.4-0.2-0.8-0.3-1.4-0.4c-0.6-0.1-1.2-0.2-1.9-0.3
				c-0.7-0.1-1.4-0.2-2.1-0.4c-0.7-0.2-1.3-0.4-1.9-0.8c-0.6-0.3-1.1-0.8-1.4-1.4c-0.3-0.6-0.5-1.3-0.5-2.3c0-1,0.3-1.9,0.9-2.7
				c0.6-0.8,1.5-1.4,2.6-1.8c1.1-0.4,2.4-0.7,4-0.7c1.1,0,2.2,0.1,3.4,0.4c1.1,0.3,2.1,0.6,2.9,1l-1.6,3.3c-0.8-0.4-1.5-0.8-2.3-0.9
				c-0.8-0.2-1.5-0.3-2.3-0.3c-1.1,0-1.9,0.1-2.3,0.4c-0.5,0.3-0.7,0.6-0.7,1.1c0,0.4,0.2,0.7,0.5,0.9s0.8,0.4,1.4,0.5
				c0.6,0.1,1.2,0.2,1.9,0.3c0.7,0.1,1.4,0.2,2.1,0.4c0.7,0.2,1.3,0.4,1.9,0.8s1.1,0.8,1.4,1.4c0.3,0.6,0.5,1.3,0.5,2.3
				c0,1-0.3,1.9-0.9,2.6s-1.5,1.4-2.6,1.8C1669.5,610.9,1668.1,611.1,1666.5,611.1z"/>
			<path class="st0" d="M1673.8,613.8l9.9-28.3h4.1l-9.9,28.3H1673.8z"/>
			<path class="st0" d="M1688.8,616.7v-22h4.5v3.3l-0.1,4.8l0.3,4.8v9.1H1688.8z M1698.3,611.1c-1.3,0-2.5-0.3-3.5-0.9
				c-1-0.6-1.8-1.5-2.4-2.7s-0.9-2.8-0.9-4.7c0-1.9,0.3-3.5,0.8-4.7c0.5-1.2,1.3-2.1,2.4-2.7c1-0.6,2.2-0.9,3.6-0.9
				c1.5,0,2.9,0.3,4.1,1s2.2,1.7,2.9,2.9c0.7,1.2,1.1,2.7,1.1,4.4c0,1.7-0.4,3.2-1.1,4.4c-0.7,1.2-1.7,2.2-2.9,2.9
				S1699.9,611.1,1698.3,611.1z M1697.5,607.2c0.8,0,1.5-0.2,2.1-0.5s1.1-0.9,1.5-1.5s0.6-1.5,0.6-2.4c0-0.9-0.2-1.7-0.6-2.4
				s-0.9-1.2-1.5-1.5c-0.6-0.4-1.3-0.5-2.1-0.5c-0.8,0-1.5,0.2-2.1,0.5c-0.6,0.3-1.1,0.9-1.5,1.5s-0.6,1.5-0.6,2.4
				c0,0.9,0.2,1.7,0.6,2.4s0.9,1.2,1.5,1.5C1696.1,607,1696.8,607.2,1697.5,607.2z"/>
			<path class="st0" d="M1709.5,610.8v-16.2h4.5v4.6l-0.6-1.4c0.5-1.1,1.2-2,2.3-2.6c1.1-0.6,2.4-0.9,3.9-0.9v4.4
				c-0.2,0-0.4-0.1-0.5-0.1c-0.2,0-0.3,0-0.5,0c-1.3,0-2.4,0.4-3.2,1.1c-0.8,0.7-1.2,1.9-1.2,3.4v7.6H1709.5z"/>
			<path class="st0" d="M1730.5,611.1c-1.8,0-3.5-0.4-4.8-1.1c-1.4-0.7-2.5-1.7-3.2-3c-0.8-1.2-1.1-2.7-1.1-4.3c0-1.6,0.4-3,1.1-4.3
				c0.7-1.3,1.8-2.2,3.1-3c1.3-0.7,2.8-1.1,4.4-1.1c1.6,0,3,0.3,4.3,1c1.3,0.7,2.3,1.6,3,2.9c0.7,1.2,1.1,2.7,1.1,4.5
				c0,0.2,0,0.4,0,0.6s0,0.4-0.1,0.6h-13.1v-2.7h10.7l-1.8,0.8c0-0.8-0.1-1.6-0.5-2.2c-0.3-0.6-0.8-1.1-1.4-1.5
				c-0.6-0.3-1.3-0.5-2.1-0.5c-0.8,0-1.5,0.2-2.1,0.5c-0.6,0.4-1.1,0.8-1.4,1.5c-0.3,0.6-0.5,1.4-0.5,2.2v0.7c0,0.9,0.2,1.7,0.6,2.3
				c0.4,0.7,1,1.2,1.7,1.5c0.7,0.3,1.5,0.5,2.5,0.5c0.8,0,1.6-0.1,2.2-0.4c0.6-0.3,1.2-0.7,1.8-1.2l2.5,2.7
				c-0.7,0.8-1.7,1.5-2.8,1.9S1732,611.1,1730.5,611.1z"/>
			<path class="st0" d="M1746.9,611.1c-1.4,0-2.7-0.2-4-0.5c-1.3-0.3-2.3-0.7-3-1.2l1.5-3.3c0.8,0.4,1.6,0.8,2.7,1.1s2,0.4,3,0.4
				c1.1,0,1.8-0.1,2.3-0.4c0.5-0.3,0.7-0.6,0.7-1.1c0-0.4-0.2-0.7-0.5-0.9c-0.4-0.2-0.8-0.3-1.4-0.4c-0.6-0.1-1.2-0.2-1.9-0.3
				c-0.7-0.1-1.4-0.2-2.1-0.4c-0.7-0.2-1.3-0.4-1.9-0.8c-0.6-0.3-1.1-0.8-1.4-1.4c-0.3-0.6-0.5-1.3-0.5-2.3c0-1,0.3-1.9,0.9-2.7
				c0.6-0.8,1.5-1.4,2.6-1.8c1.1-0.4,2.4-0.7,4-0.7c1.1,0,2.2,0.1,3.4,0.4c1.1,0.3,2.1,0.6,2.9,1l-1.6,3.3c-0.8-0.4-1.5-0.8-2.3-0.9
				c-0.8-0.2-1.5-0.3-2.3-0.3c-1.1,0-1.9,0.1-2.3,0.4c-0.5,0.3-0.7,0.6-0.7,1.1c0,0.4,0.2,0.7,0.5,0.9s0.8,0.4,1.4,0.5
				c0.6,0.1,1.2,0.2,1.9,0.3c0.7,0.1,1.4,0.2,2.1,0.4c0.7,0.2,1.3,0.4,1.9,0.8s1.1,0.8,1.4,1.4c0.3,0.6,0.5,1.3,0.5,2.3
				c0,1-0.3,1.9-0.9,2.6s-1.5,1.4-2.6,1.8C1749.9,610.9,1748.5,611.1,1746.9,611.1z"/>
			<path class="st0" d="M1762.8,611.1c-1.4,0-2.7-0.2-4-0.5c-1.3-0.3-2.3-0.7-3-1.2l1.5-3.3c0.8,0.4,1.6,0.8,2.7,1.1s2,0.4,3,0.4
				c1.1,0,1.8-0.1,2.3-0.4c0.5-0.3,0.7-0.6,0.7-1.1c0-0.4-0.2-0.7-0.5-0.9c-0.4-0.2-0.8-0.3-1.4-0.4c-0.6-0.1-1.2-0.2-1.9-0.3
				c-0.7-0.1-1.4-0.2-2.1-0.4c-0.7-0.2-1.3-0.4-1.9-0.8c-0.6-0.3-1.1-0.8-1.4-1.4c-0.3-0.6-0.5-1.3-0.5-2.3c0-1,0.3-1.9,0.9-2.7
				c0.6-0.8,1.5-1.4,2.6-1.8c1.1-0.4,2.4-0.7,4-0.7c1.1,0,2.2,0.1,3.4,0.4c1.1,0.3,2.1,0.6,2.9,1l-1.6,3.3c-0.8-0.4-1.5-0.8-2.3-0.9
				c-0.8-0.2-1.5-0.3-2.3-0.3c-1.1,0-1.9,0.1-2.3,0.4c-0.5,0.3-0.7,0.6-0.7,1.1c0,0.4,0.2,0.7,0.5,0.9s0.8,0.4,1.4,0.5
				c0.6,0.1,1.2,0.2,1.9,0.3c0.7,0.1,1.4,0.2,2.1,0.4c0.7,0.2,1.3,0.4,1.9,0.8s1.1,0.8,1.4,1.4c0.3,0.6,0.5,1.3,0.5,2.3
				c0,1-0.3,1.9-0.9,2.6s-1.5,1.4-2.6,1.8C1765.8,610.9,1764.4,611.1,1762.8,611.1z"/>
			<path class="st0" d="M1715.6,647.1c-1.4,0-2.6-0.3-3.6-0.8c-1-0.5-1.9-1.3-2.4-2.4c-0.6-1.1-0.9-2.4-0.9-4.1v-9.1h4.7v8.4
				c0,1.4,0.3,2.4,0.9,3c0.6,0.6,1.4,0.9,2.4,0.9c0.7,0,1.4-0.2,1.9-0.5c0.6-0.3,1-0.8,1.3-1.4s0.5-1.4,0.5-2.4v-8h4.7v16.2h-4.4
				v-4.5l0.8,1.3c-0.6,1.1-1.4,2-2.4,2.5C1718,646.8,1716.8,647.1,1715.6,647.1z"/>
			<path class="st0" d="M1729.4,646.9v-22.3h4.7v22.3H1729.4z"/>
			<path class="st0" d="M1743.4,647.1c-1.2,0-2.3-0.2-3.2-0.6s-1.6-1-2.1-1.8s-0.7-1.6-0.7-2.5c0-0.9,0.2-1.8,0.7-2.5
				c0.5-0.7,1.2-1.3,2.2-1.7s2.4-0.6,4-0.6h4.3v2.7h-3.8c-1.1,0-1.9,0.2-2.3,0.5s-0.6,0.8-0.6,1.4c0,0.6,0.2,1.1,0.7,1.4
				c0.5,0.4,1.1,0.5,1.9,0.5s1.5-0.2,2.1-0.5s1.1-0.9,1.3-1.7l0.7,2.2c-0.3,1-1,1.8-1.9,2.3C1746,646.8,1744.8,647.1,1743.4,647.1z
				 M1748.3,646.9v-3.2l-0.3-0.7v-5.6c0-1-0.3-1.8-0.9-2.3s-1.5-0.8-2.8-0.8c-0.9,0-1.7,0.1-2.5,0.4c-0.8,0.3-1.5,0.6-2.1,1.1
				l-1.7-3.3c0.9-0.6,1.9-1.1,3.2-1.5c1.2-0.3,2.5-0.5,3.8-0.5c2.5,0,4.4,0.6,5.7,1.7c1.4,1.2,2,3,2,5.4v9.2H1748.3z"/>
			<path class="st0" d="M1755.9,646.9V644l9.5-11.3l0.8,1.6H1756v-3.6h13.9v2.9l-9.5,11.2l-0.9-1.5h10.7v3.6H1755.9z"/>
		</g>
	</g>
	
		<rect x="597.7" y="724.4" transform="matrix(0.9053 0.4248 -0.4248 0.9053 368.8798 -191.084)" class="st23" width="30.7" height="14.8"/>
	
		<rect x="803.8" y="753.2" transform="matrix(0.9116 0.411 -0.411 0.9116 385.1119 -269.6731)" class="st23" width="31.8" height="15.1"/>
	
		<rect x="880.4" y="944.3" transform="matrix(-0.4134 0.9105 -0.9105 -0.4134 2133.5325 529.284)" class="st23" width="31.8" height="15.1"/>
	
		<rect x="837.9" y="722.4" transform="matrix(0.8908 0.4545 -0.4545 0.8908 425.1743 -308.0493)" class="st23" width="30.8" height="16"/>
	
		<rect x="873.4" y="735.6" transform="matrix(0.9136 0.4065 -0.4065 0.9136 381.1134 -298.9286)" class="st24" width="41.5" height="23.7"/>
	
		<rect x="1265.9" y="790.1" transform="matrix(-0.9594 0.2821 -0.2821 -0.9594 2731.8574 1199.5519)" class="st23" width="27.4" height="12.7"/>
	
		<rect x="689.6" y="753.1" transform="matrix(0.91 0.4147 -0.4147 0.91 381.7742 -219.6889)" class="st23" width="14.4" height="32.7"/>
	
		<rect x="762.4" y="764.7" transform="matrix(0.9367 -0.3502 0.3502 0.9367 -224.8017 319.0213)" class="st23" width="14.4" height="32.7"/>
	<g>
		<g>
			<path class="st25" d="M1272.1,978.8c-2.8,0-5.2-0.3-7.4-0.8c-2.1-0.5-4-1.2-5.5-1.8v-33.8h14.7c3.6,0,6.3,0.7,8.2,2
				c1.9,1.3,2.8,3,2.8,5.1c0,1.3-0.4,2.6-1.2,3.7c-0.8,1.2-1.9,2.1-3.3,2.8c-1.4,0.7-3.1,1.1-4.9,1v0.2c2.2,0,4.2,0.5,6,1.2
				c1.8,0.8,3.2,1.9,4.3,3.3c1.1,1.4,1.6,3,1.6,5c0,2.9-0.8,5.2-2.3,7c-1.6,1.8-3.5,3.1-5.8,3.9
				C1277,978.4,1274.6,978.8,1272.1,978.8z M1270.8,956.8c1.9,0,3.4-0.6,4.3-1.9c1-1.3,1.5-3,1.5-5.1c0-1.8-0.4-3.4-1.3-4.6
				c-0.8-1.2-2.2-1.8-4-1.8h-3v13.4H1270.8z M1271.9,977.8c1.4,0,2.6-0.5,3.5-1.5c1-1,1.7-2.3,2.2-3.9c0.5-1.6,0.7-3.4,0.7-5.3
				c0-2-0.3-3.7-1-5.1c-0.7-1.4-1.6-2.5-2.8-3.2c-1.2-0.7-2.6-1.1-4.2-1.1h-2v19C1269.6,977.4,1270.8,977.8,1271.9,977.8z"/>
			<path class="st25" d="M1289.5,977.8v-23.7h9v9.1h0.1c0.6-1.7,1.4-3.3,2.4-4.7s2-2.6,3.2-3.4c1.2-0.9,2.5-1.4,3.9-1.4l0.5,5.9
				c-1.6,0-3.2,0.1-4.6,0.5c-1.5,0.4-2.7,1.2-3.8,2.3c-1.1,1.1-1.6,2.7-1.7,4.6v10.8H1289.5z"/>
			<path class="st25" d="M1319.1,978.8c-1.5,0-2.9-0.3-4.2-0.9c-1.3-0.6-2.3-1.6-3.2-2.8c-0.8-1.2-1.2-2.7-1.2-4.4v-16.5h9v16.8
				c0,1.5,0.4,2.7,1.1,3.5c0.7,0.8,1.6,1.2,2.7,1.2c0.8,0,1.6-0.3,2.4-1c0.8-0.7,1.5-1.7,2-2.9c0.5-1.2,0.8-2.6,0.8-4v-13.5h9v23.7
				h-9v-5.1h-0.2c-0.8,2-2.1,3.5-3.8,4.5C1322.8,978.3,1321,978.8,1319.1,978.8z"/>
			<path class="st25" d="M1353.3,978.8c-2.9,0-5.3-0.6-7.3-1.8c-2-1.2-3.5-2.8-4.5-4.8c-1-2-1.5-4.2-1.5-6.5c0-2.5,0.5-4.7,1.5-6.6
				c1-1.9,2.5-3.3,4.4-4.4c2-1,4.4-1.5,7.4-1.5c1.8,0,3.4,0.1,4.9,0.3c1.5,0.2,2.9,0.4,4,0.8l-0.1,5.5c-1.4-1.8-2.7-3.1-3.9-4.1
				c-1.3-1-2.4-1.5-3.5-1.5c-1.8,0-3.2,0.9-4.2,2.8c-1,1.9-1.5,4.4-1.5,7.6c0,2.8,0.3,5.2,0.8,7.2c0.5,2,1.3,3.5,2.2,4.5
				c0.9,1,2,1.5,3.2,1.5c1.1,0,2.3-0.6,3.5-1.9c1.2-1.3,2.1-2.6,2.7-4.1l2.2,4.3c-1.5,0.9-3.1,1.6-4.8,2.1
				C1357.1,978.5,1355.3,978.8,1353.3,978.8z"/>
			<path class="st25" d="M1370.5,952c-1.4,0-2.6-0.5-3.6-1.4c-1-0.9-1.4-2-1.4-3.2c0-1.2,0.5-2.3,1.4-3.2c1-0.9,2.1-1.4,3.6-1.4
				c1.3,0,2.4,0.5,3.3,1.4c0.9,0.9,1.4,2,1.4,3.2c0,1.2-0.5,2.3-1.4,3.2C1372.9,951.5,1371.8,952,1370.5,952z M1365.8,978v-23.9h9
				V978H1365.8z"/>
			<path class="st25" d="M1385.1,978.6c-1.4,0-2.7-0.2-4-0.3c-1.3-0.2-2.3-0.5-3.2-0.8l1.2-6.4c0.8,0.7,1.7,1.4,2.6,2.1
				c1.6,1.2,3,2.1,4.3,2.9c1.3,0.8,2.3,1.1,3.1,1.2c0.8,0,1.5-0.2,2-0.6c0.5-0.3,0.7-0.8,0.7-1.5c0-0.7-0.3-1.5-1-2.3
				c-0.6-0.8-1.5-1.7-2.5-2.6c-1-0.9-2.3-1.9-3.9-3l-0.2-0.1c-0.1,0-0.2-0.1-0.2-0.1c-0.1-0.1-0.2-0.1-0.2-0.1c-2.2-1.7-3.7-3-4.7-4
				c-1-1-1.4-2.1-1.4-3.2c0-2.1,1.2-3.7,3.6-4.8c2.4-1.1,5.3-1.7,8.7-1.7c1.2,0,2.5,0.1,3.8,0.3c1.3,0.2,2.4,0.4,3.5,0.8l-1.1,6.4
				c-0.8-0.9-1.7-1.9-3-2.9c-1.2-1-2.5-1.8-3.7-2.5c-1.3-0.7-2.2-1-3-1c-0.6,0-1.2,0.1-1.6,0.4c-0.5,0.2-0.7,0.6-0.7,1.1
				c0,0.6,0.5,1.4,1.6,2.4c1.1,1,2.6,2.2,4.6,3.7l0.8,0.6l0.2,0.2c1.6,1.1,2.9,2.1,3.8,2.8c0.9,0.8,1.6,1.6,2.2,2.5
				c0.6,0.9,0.9,1.8,0.9,2.8c0,1.8-0.6,3.3-1.9,4.5c-1.3,1.2-3,2-5,2.6C1389.4,978.3,1387.3,978.6,1385.1,978.6z"/>
			<path class="st25" d="M1412.4,978.8c-3.2,0-5.8-0.7-7.8-2c-2-1.4-3-3.3-3-6v-15.6h-2.7v-1h1.5c1.6,0,3.1-0.6,4.6-1.7
				c1.4-1.1,2.6-2.6,3.4-4.3c0.9-1.8,1.3-3.7,1.3-5.8h1v11.8h7.1v1h-7.1v18.6c0,1.2,0.2,2.2,0.6,2.8c0.4,0.6,0.9,0.9,1.6,0.9
				c0.8,0,1.6-0.5,2.6-1.4c1-0.9,2-2.2,3-3.9l1.5,5.6C1417.3,978.5,1414.8,978.8,1412.4,978.8z"/>
			<path class="st25" d="M1429.9,978.8c-2.1,0-3.9-0.5-5.4-1.4c-1.5-1-2.6-2.2-3.4-3.7c-0.8-1.5-1.1-3.1-1.1-4.7
				c0-1.5,0.3-2.8,0.9-4c0.6-1.2,1.5-2.2,2.7-2.9c1.2-0.7,2.6-1.1,4.2-1.1c0.9,0,1.7,0.1,2.6,0.4c0.9,0.3,1.7,0.7,2.4,1.3l0.1-0.1
				c-0.3-0.2-0.5-0.5-0.7-0.7c-0.2-0.2-0.4-0.5-0.6-0.7c-0.8-1-1.4-1.8-1.7-2.5c-0.4-0.7-0.6-1.4-0.6-2.1c0-1.1,0.5-2,1.4-2.6
				c0.9-0.6,2.1-0.9,3.5-0.9c2,0,3.9,0.5,5.9,1.6c2,1,3.7,2.6,5.1,4.7c1.4,2.1,2.1,4.7,2.1,7.7v10.6h-9.1V966c0-2.6-0.3-4.8-1-6.5
				c-0.7-1.7-1.5-2.9-2.4-3.7c-0.9-0.8-1.9-1.2-2.9-1.2c-0.6,0-1.1,0.2-1.4,0.5c-0.3,0.4-0.5,0.8-0.5,1.3c0,0.7,0.2,1.4,0.6,2.1
				c0.4,0.7,1,1.6,1.9,2.6c0.3,0.4,0.6,0.8,1,1.2c0.3,0.4,0.7,0.8,1,1.2c0.1,0,0.1,0.1,0.1,0.1c0,0,0,0,0.1,0.1
				c0.6,0.7,1.1,1.4,1.5,2.2c0.4,0.8,0.7,1.7,1,2.6c0.2,1,0.4,2,0.4,3.2c0,1.2-0.3,2.3-0.8,3.4c-0.5,1.1-1.4,2-2.5,2.6
				C1432.9,978.5,1431.6,978.8,1429.9,978.8z M1433.7,976.2c0.9,0,1.6-0.4,2.1-1.3c0.5-0.9,0.8-2,0.8-3.4c0-1.4-0.2-2.8-0.7-4.1
				c-0.5-1.4-1.1-2.5-1.9-3.4c-0.8-0.9-1.7-1.3-2.8-1.3c-0.5,0-1,0.2-1.4,0.5c-0.4,0.4-0.7,0.9-0.9,1.5c-0.2,0.7-0.3,1.5-0.3,2.5
				c0,1.5,0.3,3,0.8,4.4s1.2,2.5,1.9,3.3C1432.2,975.8,1432.9,976.2,1433.7,976.2z"/>
			<path class="st25" d="M1449.9,977.8v-23.7h9v9.1h0.1c0.6-1.7,1.4-3.3,2.4-4.7s2-2.6,3.2-3.4c1.2-0.9,2.5-1.4,3.9-1.4l0.5,5.9
				c-1.6,0-3.2,0.1-4.6,0.5c-1.5,0.4-2.7,1.2-3.8,2.3c-1.1,1.1-1.6,2.7-1.7,4.6v10.8H1449.9z"/>
		</g>
	</g>
	<g>
		<path class="st25" d="M761.1,861.8l12.8-29.6l7.5,3.3l-4.7,10.8c1.2-0.5,2.4-0.9,3.5-1.4c1.1-0.4,2.2-0.8,3.2-1.2
			c2.4-0.8,4.2-1.4,5.6-1.8c2-0.5,3.7-0.8,5-0.8c1.3,0,2.6,0.3,3.8,0.8l-2.5,5.7c-0.1-0.1-0.2-0.2-0.3-0.2c-0.1-0.1-0.2-0.1-0.3-0.2
			c-0.6-0.6-1.3-1-2-1.4c-0.7-0.4-1.5-0.7-2.4-1c-1.1-0.3-2.4-0.5-3.7-0.5c-1.4,0-2.9,0.2-4.6,0.7c-0.4,0.1-0.9,0.3-1.4,0.5
			c-0.5,0.2-1,0.3-1.4,0.6l0,0.1c0.7,0,1.4,0.1,2,0.2s1.1,0.3,1.6,0.5c1.9,0.8,3.2,2.3,3.9,4.6c0.7,2.2,1,4.7,1,7.5
			c-0.1,2.8-0.3,6.2-0.8,10.4c-0.1,0.6-0.1,1.1-0.2,1.7c-0.1,0.6-0.1,1.1-0.2,1.7l-8.9-3.8c0.9-3,1.6-6,2.1-9.1
			c0.5-3.1,0.7-5.8,0.6-8.2c-0.2-2.3-0.8-3.7-1.9-4.2c-0.3-0.1-0.6-0.1-0.9-0.1c-0.3,0.1-0.7,0.2-1.3,0.4l-7.5,17.3L761.1,861.8z"/>
		<path class="st25" d="M788.3,873.8l8.6-19.9l7.5,3.3l-8.6,19.9L788.3,873.8z M801.6,853.8c-1.2-0.5-2-1.3-2.5-2.4
			c-0.5-1.1-0.5-2.2,0-3.2c0.4-1,1.2-1.8,2.4-2.2c1.1-0.4,2.3-0.4,3.5,0.2c1.1,0.5,1.8,1.2,2.3,2.3c0.5,1.1,0.5,2.2,0,3.2
			c-0.4,1-1.2,1.8-2.4,2.2C803.7,854.2,802.7,854.2,801.6,853.8z"/>
		<path class="st25" d="M798.5,878.2l8.6-19.9l7.5,3.3l-1.5,3.5l0.1,0c1.3-1,2.7-1.7,4.3-1.9c1.6-0.2,3.1,0,4.5,0.6
			c1.2,0.5,2.2,1.3,3,2.3c0.8,1,1.3,2.1,1.5,3.5c0.2,1.3-0.1,2.8-0.7,4.3l-5.9,13.5l-7.5-3.3l6.1-14.2c0.5-1.2,0.7-2.3,0.5-3.2
			c-0.2-0.9-0.7-1.6-1.5-1.9c-0.5-0.2-1-0.2-1.7-0.1c-0.7,0.1-1.3,0.4-2,0.9c-0.7,0.5-1.2,1.1-1.8,1.9l-6.1,14.1L798.5,878.2z"/>
		<path class="st25" d="M833.1,893.9c-2.1-0.9-3.8-2.2-5.2-3.8c-1.4-1.7-2.3-3.6-2.7-5.7c-0.4-2.1-0.1-4.3,0.9-6.6
			c0.9-2.2,2.3-3.8,4.1-4.9c1.8-1.1,3.8-1.6,5.9-1.7c2.1,0,4.2,0.4,6.2,1.3c2,0.9,3.7,2.1,5.2,3.7c1.4,1.6,2.4,3.4,2.8,5.5
			c0.4,2.1,0.2,4.2-0.8,6.4c-1,2.3-2.4,4.1-4.2,5.2c-1.8,1.2-3.8,1.8-5.9,1.8C837.3,895.2,835.2,894.8,833.1,893.9z M835.1,893.8
			c0.9,0.4,1.7,0.2,2.6-0.4c0.8-0.7,1.6-1.7,2.3-3.1s1.3-3,1.8-4.9c0.6-1.9,0.9-3.8,1-5.5c0.1-1.8,0-3.3-0.4-4.5
			c-0.4-1.3-1.1-2.1-2-2.5c-0.9-0.4-1.8-0.2-2.6,0.5c-0.9,0.7-1.7,1.8-2.4,3.2c-0.7,1.4-1.4,3.1-1.9,4.9c-0.5,1.8-0.8,3.6-1,5.4
			c-0.1,1.8,0,3.3,0.5,4.5C833.4,892.5,834.1,893.3,835.1,893.8z"/>
		<path class="st25" d="M748.9,906.6c-1.1-0.5-2.2-1.1-3.2-1.7c-1-0.6-1.8-1.2-2.4-1.8l3.3-4.9c0.4,0.9,0.9,1.8,1.4,2.7
			c0.9,1.5,1.8,2.9,2.6,4c0.8,1.1,1.5,1.8,2.2,2.1c0.7,0.3,1.3,0.3,1.8,0.2c0.5-0.1,0.9-0.4,1.2-1c0.3-0.6,0.3-1.4,0-2.3
			c-0.2-0.9-0.6-1.9-1.1-3c-0.5-1.1-1.2-2.4-2.1-3.9l-0.1-0.2c0-0.1-0.1-0.1-0.1-0.2c0-0.1-0.1-0.1-0.1-0.2c-1.2-2.2-2-3.8-2.5-5
			c-0.4-1.2-0.4-2.2,0-3.2c0.7-1.7,2.3-2.6,4.7-2.7c2.4,0,5,0.5,7.9,1.8c1,0.4,2.1,1,3.1,1.6c1,0.6,1.9,1.2,2.6,1.9l-3.2,5
			c-0.3-1.1-0.8-2.2-1.4-3.5c-0.7-1.3-1.4-2.4-2.2-3.4c-0.8-1-1.5-1.6-2.1-1.9c-0.5-0.2-1-0.3-1.5-0.3c-0.5,0-0.8,0.3-1,0.7
			c-0.2,0.5-0.1,1.3,0.5,2.5c0.5,1.2,1.4,2.8,2.5,4.8l0.5,0.8l0.1,0.2c0.9,1.5,1.6,2.8,2.1,3.7c0.5,1,0.8,1.9,0.9,2.9
			c0.2,1,0.1,1.9-0.3,2.7c-0.7,1.5-1.7,2.5-3.2,3c-1.5,0.5-3.2,0.6-5.1,0.4C752.7,907.9,750.8,907.4,748.9,906.6z"/>
		<path class="st25" d="M771.7,916.6c-2.7-1.2-4.6-2.7-5.8-4.5c-1.2-1.8-1.3-3.9-0.3-6.1l5.6-13l-2.3-1l0.4-0.8l1.2,0.5
			c1.3,0.6,2.8,0.7,4.4,0.3c1.6-0.4,3.1-1.2,4.4-2.4c1.4-1.2,2.4-2.6,3.2-4.4l0.8,0.3l-4.3,9.9l5.9,2.6l-0.4,0.8l-5.9-2.6l-6.7,15.5
			c-0.4,1-0.6,1.9-0.5,2.5c0.1,0.7,0.4,1.1,1,1.3c0.6,0.3,1.5,0.2,2.7-0.2c1.2-0.4,2.5-1.1,3.9-2.2l-0.8,5.2
			C775.8,918.1,773.6,917.5,771.7,916.6z"/>
		<path class="st25" d="M786.2,923c-1.7-0.7-3-1.8-3.9-3.1c-0.9-1.3-1.4-2.8-1.5-4.3c-0.1-1.5,0.2-3,0.8-4.4c0.5-1.2,1.3-2.2,2.2-3
			c1-0.8,2.1-1.3,3.3-1.4c1.3-0.2,2.6,0,3.9,0.6c0.7,0.3,1.4,0.7,2,1.3c0.6,0.5,1.1,1.2,1.5,1.9l0.1,0c-0.1-0.3-0.2-0.6-0.3-0.8
			c-0.1-0.3-0.2-0.5-0.3-0.8c-0.3-1.1-0.5-2-0.6-2.7c-0.1-0.7,0-1.3,0.3-2c0.4-0.9,1.1-1.5,2.1-1.6c1-0.2,2,0,3.2,0.5
			c1.6,0.7,3.1,1.9,4.4,3.4c1.3,1.6,2.1,3.5,2.5,5.8c0.4,2.2,0,4.6-1.1,7.2l-3.8,8.9l-7.6-3.3l4.3-9.8c0.9-2.2,1.5-4.1,1.5-5.7
			c0.1-1.6-0.2-2.9-0.7-3.9c-0.5-1-1.2-1.7-2-2c-0.5-0.2-1-0.3-1.4-0.1c-0.4,0.2-0.7,0.5-0.9,0.9c-0.2,0.6-0.3,1.2-0.3,1.9
			c0.1,0.7,0.3,1.7,0.6,2.8c0.1,0.4,0.2,0.9,0.4,1.3c0.1,0.5,0.3,0.9,0.4,1.4c0,0.1,0.1,0.1,0.1,0.1c0,0,0,0,0,0.1
			c0.2,0.8,0.4,1.6,0.4,2.4c0.1,0.8,0,1.7-0.1,2.5c-0.1,0.9-0.4,1.8-0.9,2.8c-0.4,1-1,1.8-1.9,2.5c-0.8,0.7-1.8,1.2-3,1.3
			C788.9,923.8,787.6,923.6,786.2,923z M790.3,922.2c0.8,0.3,1.5,0.2,2.3-0.3c0.7-0.5,1.4-1.4,1.9-2.6c0.5-1.2,0.8-2.4,0.9-3.7
			c0.1-1.3,0-2.5-0.4-3.5c-0.4-1-1-1.7-1.8-2.1c-0.4-0.2-0.9-0.2-1.3,0c-0.4,0.2-0.9,0.5-1.3,1c-0.4,0.5-0.8,1.1-1.2,2
			c-0.6,1.3-0.9,2.6-1,3.9c-0.1,1.3,0.1,2.5,0.4,3.5C789.2,921.3,789.7,921.9,790.3,922.2z"/>
		<path class="st25" d="M805.3,941.2c-1.7-0.7-3.4-1.7-5-2.8l2.7-6.2c1,2.4,2.1,4.4,3.3,6c1.2,1.6,2.3,2.7,3.5,3.2
			c1.3,0.5,2.5,0.5,3.6-0.2c1.2-0.7,2.2-2.1,3.1-4.2l1.6-3.7c-1.2,0.6-2.4,0.9-3.8,0.9c-1.4,0-2.6-0.2-3.8-0.8
			c-1.4-0.6-2.6-1.5-3.5-2.8c-0.9-1.2-1.4-2.7-1.6-4.5c-0.1-1.8,0.2-3.7,1.1-5.8c1.7-4,4.1-6.5,7.2-7.4c3.1-0.9,6.4-0.6,10,1
			c3.5,1.5,6.5,3.5,8.9,6l-6.6,15.2c-1.3,3-3,5.2-5.1,6.5c-2.1,1.3-4.5,1.9-7.2,1.8C811.3,943.2,808.4,942.5,805.3,941.2z
			 M815.3,932.9c0.5,0.2,1.1,0.2,1.8-0.1c0.7-0.3,1.3-0.9,2-1.8l5.9-13.6c-0.1-0.7-0.2-1.2-0.5-1.7c-0.3-0.5-0.7-0.9-1.2-1.1
			c-0.8-0.3-1.6-0.3-2.5,0.1c-0.9,0.4-1.9,1.2-2.9,2.3s-1.9,2.8-2.8,4.9c-0.8,1.8-1.2,3.5-1.4,5c-0.2,1.6-0.1,2.9,0.2,4
			C814.1,931.9,814.6,932.6,815.3,932.9z"/>
		<path class="st25" d="M838.3,945.6c-2.7-1.2-4.7-2.6-6.1-4.4c-1.4-1.7-2.3-3.6-2.5-5.7c-0.2-2,0.1-4.1,1-6.2
			c0.9-2,2.1-3.6,3.7-4.8c1.6-1.2,3.5-1.9,5.6-2c2.1-0.1,4.5,0.3,7,1.4c1.9,0.8,3.5,1.7,4.6,2.7c1.2,1,1.9,2,2.3,3.1
			c0.4,1.1,0.3,2.1-0.2,3.2c-0.5,1.1-1.4,1.9-2.7,2.3c-1.3,0.4-2.7,0.5-4.3,0.3c-1.6-0.2-3.1-0.6-4.7-1.3l0,0
			c1.4,0.8,2.7,1.7,3.8,2.7c1.2,1,2,2,2.6,3.2c0.6,1.1,0.6,2.2,0.1,3.3c-0.5,1.2-1.3,2-2.4,2.5c-1.1,0.5-2.4,0.7-3.8,0.7
			C841,946.5,839.7,946.2,838.3,945.6z M841.7,945c1.3,0.6,2.6,0.7,3.8,0.4c1.2-0.3,2.1-1.1,2.6-2.3c0.6-1.3,0.3-2.6-0.8-4
			c-1.1-1.4-2.4-2.6-4.1-3.7c-1.6-1.1-3.2-2-4.6-2.8c-0.1-0.1-0.2-0.1-0.3-0.1c-0.1,0-0.1-0.1-0.2-0.1c-0.9,1.9-1.3,3.8-1.2,5.5
			c0.1,1.7,0.6,3.2,1.4,4.5C839.3,943.6,840.3,944.5,841.7,945z M841,933.1c1,0.4,2,0.5,3.1,0.3c1.1-0.2,2.1-0.7,3-1.5
			c0.9-0.8,1.6-1.7,2.1-2.9c0.3-0.6,0.4-1.1,0.4-1.6c0-0.5-0.1-0.9-0.3-1.2c-0.2-0.3-0.5-0.6-1-0.8c-0.8-0.4-1.8-0.4-3-0.1
			c-1.2,0.3-2.4,1-3.6,2.1c-1.2,1.1-2.2,2.5-3.1,4.3c0.2,0.2,0.6,0.4,1.2,0.8C840.1,932.7,840.6,932.9,841,933.1z"/>
	</g>
	<g>
		<path class="st25" d="M1143,777.3l-6.6-24.8l18.1-4.9l1.2,4.2c-0.7-0.4-1.6-0.7-2.9-1c-1.3-0.3-2.6-0.4-4-0.4
			c-1.4,0-2.6,0.2-3.6,0.4l-2.2,0.6l2.9,10.9l7.6-2l0.2,0.8l-7.6,2l2.8,10.4c2-0.9,3.8-1.7,5.6-2.5c0.4-0.2,0.7-0.3,1.1-0.5
			c0.4-0.2,0.7-0.3,1-0.5c0.8-0.4,1.6-0.8,2.2-1.2c0.6-0.4,1.2-0.8,1.8-1.2l1.2,4.5c-0.3,0.1-0.7,0.2-1.3,0.2
			c-0.6,0.1-1.2,0.2-1.8,0.2c-1.8,0.2-3.4,0.4-4.7,0.6c-1.3,0.2-2.6,0.5-3.9,0.8c-2.8,0.7-4.9,1.7-6.5,3L1143,777.3z"/>
		<path class="st25" d="M1163,771.9l-6.6-24.8l6.3-1.7l6.6,24.8L1163,771.9z"/>
		<path class="st25" d="M1181.5,767.7c-2.2,0.6-4.2,0.7-6,0.3c-1.7-0.4-3.2-1.2-4.3-2.3c-1.1-1.1-2-2.6-2.4-4.4
			c-0.4-1.7-0.5-3.3-0.1-4.8c0.4-1.5,1.2-2.9,2.5-4c1.3-1.2,2.9-2,5-2.6c1.6-0.4,3-0.6,4.2-0.6c1.2,0,2.2,0.3,3,0.8
			c0.8,0.5,1.2,1.2,1.5,2.1c0.2,0.9,0,1.9-0.5,2.7c-0.6,0.9-1.4,1.6-2.5,2.3c-1.1,0.7-2.3,1.2-3.6,1.5l0,0c1.3-0.2,2.5-0.3,3.7-0.2
			c1.2,0,2.3,0.3,3.2,0.7c0.9,0.4,1.5,1.1,1.7,2c0.3,1,0.2,1.9-0.3,2.8c-0.4,0.9-1.1,1.6-2,2.3
			C1183.6,767,1182.6,767.4,1181.5,767.7z M1177,758.7c0.8-0.2,1.5-0.7,2.1-1.3c0.6-0.7,0.9-1.5,1.1-2.4c0.2-0.9,0.1-1.9-0.1-2.9
			c-0.1-0.5-0.3-0.9-0.5-1.2c-0.2-0.3-0.5-0.5-0.8-0.6c-0.3-0.1-0.6-0.1-1,0c-0.7,0.2-1.3,0.7-1.9,1.4c-0.6,0.8-1,1.8-1.2,3.1
			c-0.2,1.3-0.2,2.7,0.2,4.2c0.2,0,0.6,0,1.1-0.1C1176.3,758.8,1176.7,758.7,1177,758.7z M1183.3,765.7c1.1-0.3,2-0.8,2.6-1.6
			c0.6-0.8,0.8-1.7,0.5-2.7c-0.3-1.1-1.1-1.8-2.5-2.1c-1.4-0.3-2.8-0.4-4.4-0.3c-1.6,0.1-3,0.3-4.2,0.5c-0.1,0-0.2,0-0.2,0.1
			c-0.1,0-0.1,0-0.2,0c0.4,1.6,1.1,3,2,4c0.9,1,2,1.7,3.1,2.1C1181.1,766,1182.2,766,1183.3,765.7z"/>
		<path class="st25" d="M1189.8,764.7l-6.6-24.8l6.3-1.7l4.3,15.9l0.1,0c0.4-1.5,1-3.1,1.9-4.7c0.9-1.6,1.9-3,3.1-4.2
			c1.1-1.2,2.3-1.9,3.5-2.2l1.1,4c-1.6,0.1-3,0.6-4.4,1.5c-0.8,0.5-1.5,1.1-2.1,1.7c-0.7,0.6-1.2,1.3-1.6,2l0,0.1
			c0.8-0.7,1.6-1.2,2.3-1.4c0.9-0.2,1.7-0.1,2.7,0.4c0.9,0.5,1.7,1.2,2.5,2.1c0.7,0.8,1.6,1.9,2.7,3.3c0.5,0.6,0.9,1.2,1.4,1.8
			c0.4,0.6,0.9,1,1.2,1.4l-6.3,1.7c-0.2-0.2-0.5-0.7-0.9-1.3c-0.3-0.6-0.7-1.4-1.2-2.4c-0.5-1-1-1.9-1.5-2.7s-0.9-1.5-1.4-2
			s-0.8-0.7-1.2-0.6c-0.3,0.1-0.6,0.3-0.8,0.6c-0.2,0.3-0.3,0.7-0.5,1.1c-0.1,0.4-0.2,0.8-0.2,1.2l0,0l0,0l2,7.4L1189.8,764.7z"/>
		<path class="st25" d="M1217.5,758c-2.3,0.6-4.2,0.6-5.8,0c-1.6-0.6-2.7-1.8-3.2-3.6l-2.9-10.9l-1.9,0.5l-0.2-0.7l1-0.3
			c1.1-0.3,2.1-1,2.9-2s1.3-2.3,1.6-3.7c0.3-1.4,0.2-2.8-0.2-4.3l0.7-0.2l2.2,8.3l5-1.3l0.2,0.7l-5,1.3l3.5,13
			c0.2,0.9,0.5,1.5,0.9,1.8c0.4,0.4,0.8,0.5,1.3,0.4c0.5-0.1,1-0.6,1.6-1.4c0.5-0.8,1-1.9,1.4-3.3l2.1,3.6
			C1220.8,756.9,1219.1,757.6,1217.5,758z"/>
		<path class="st25" d="M1223.7,755.6l-4.4-16.5l6.3-1.7l1.7,6.4l0.1,0c0.1-1.3,0.4-2.6,0.8-3.7c0.4-1.2,0.9-2.2,1.6-3
			c0.7-0.8,1.5-1.4,2.4-1.7l1.5,4c-1.1,0.3-2.2,0.7-3.1,1.2c-0.9,0.6-1.7,1.3-2.2,2.3c-0.5,1-0.6,2.2-0.3,3.5l2,7.6L1223.7,755.6z"
			/>
		<path class="st25" d="M1247.3,750c-1.7,0.5-3.4,0.5-5.1,0.2c-1.7-0.3-3.2-1.1-4.5-2.3c-1.3-1.2-2.2-2.7-2.7-4.5
			c-0.5-1.8-0.4-3.5,0.2-5.1c0.6-1.6,1.5-2.9,2.9-4c1.3-1.1,2.8-1.8,4.5-2.3c1.7-0.5,3.4-0.5,5-0.3c1.7,0.3,3.2,1,4.5,2.1
			c1.3,1.1,2.2,2.6,2.7,4.4c0.5,1.9,0.5,3.7,0,5.3c-0.5,1.6-1.5,3-2.8,4.1C1250.6,748.7,1249.1,749.5,1247.3,750z M1248.5,748.9
			c0.7-0.2,1.2-0.7,1.4-1.6c0.2-0.8,0.2-1.9-0.1-3.1c-0.2-1.2-0.7-2.5-1.3-3.9c-0.6-1.5-1.3-2.8-2.1-4c-0.8-1.2-1.6-2-2.5-2.6
			c-0.9-0.6-1.7-0.8-2.5-0.6c-0.7,0.2-1.2,0.7-1.4,1.6c-0.2,0.9-0.2,1.9,0.1,3.2c0.3,1.3,0.7,2.6,1.2,4c0.6,1.4,1.3,2.7,2.1,3.8
			c0.8,1.2,1.6,2,2.5,2.6C1246.8,748.9,1247.7,749.1,1248.5,748.9z"/>
		<path class="st25" d="M1270.2,743.7c-1,0.2-1.9,0.4-2.9,0.5c-0.9,0.1-1.7,0.1-2.4,0l-0.4-4.7c0.7,0.3,1.5,0.7,2.3,1
			c1.3,0.5,2.5,0.9,3.6,1.2c1.1,0.3,1.9,0.4,2.4,0.2c0.6-0.2,1-0.4,1.3-0.8c0.3-0.3,0.4-0.7,0.2-1.2c-0.1-0.5-0.5-1-1.1-1.5
			c-0.6-0.5-1.3-0.9-2.2-1.3c-0.9-0.4-2-0.9-3.3-1.4l-0.1,0c-0.1,0-0.1,0-0.2-0.1c-0.1,0-0.1,0-0.2-0.1c-1.8-0.7-3.2-1.4-4-1.9
			c-0.9-0.5-1.4-1.2-1.6-2c-0.4-1.4,0.1-2.8,1.6-4c1.5-1.2,3.4-2.2,5.8-2.8c0.9-0.2,1.8-0.4,2.7-0.5c0.9-0.1,1.8-0.2,2.6-0.1
			l0.5,4.7c-0.7-0.5-1.6-1-2.6-1.5c-1-0.5-2.1-0.8-3.1-1c-1-0.2-1.8-0.3-2.3-0.1c-0.4,0.1-0.8,0.3-1.1,0.6c-0.3,0.3-0.4,0.6-0.3,0.9
			c0.1,0.4,0.6,0.9,1.5,1.4c0.9,0.5,2.2,1.1,3.9,1.7l0.7,0.2l0.2,0.1c1.3,0.5,2.4,0.9,3.2,1.3c0.8,0.4,1.4,0.8,2,1.3
			c0.6,0.5,1,1.1,1.1,1.8c0.3,1.3,0.2,2.4-0.5,3.5c-0.7,1.1-1.7,2-3,2.7C1273.2,742.7,1271.7,743.3,1270.2,743.7z"/>
		<path class="st25" d="M1289.3,738.7c-2.3,0.6-4.2,0.6-5.8,0c-1.6-0.6-2.7-1.8-3.2-3.6l-2.9-10.9l-1.9,0.5l-0.2-0.7l1-0.3
			c1.1-0.3,2.1-1,2.9-2c0.8-1,1.3-2.3,1.6-3.7c0.3-1.4,0.2-2.8-0.2-4.3l0.7-0.2l2.2,8.3l5-1.3l0.2,0.7l-5,1.3l3.5,13
			c0.2,0.9,0.5,1.5,0.9,1.8c0.4,0.4,0.8,0.5,1.3,0.4c0.5-0.1,1.1-0.6,1.6-1.4c0.5-0.8,1-1.9,1.4-3.3l2.1,3.6
			C1292.6,737.6,1291,738.3,1289.3,738.7z"/>
		<path class="st25" d="M1301.5,735.5c-1.4,0.4-2.8,0.4-4,0c-1.2-0.4-2.2-1-3.1-1.9c-0.8-0.9-1.4-1.9-1.7-3.1c-0.3-1-0.3-2-0.1-3
			c0.2-1,0.7-1.8,1.4-2.5c0.7-0.7,1.6-1.2,2.8-1.5c0.6-0.2,1.2-0.2,1.9-0.2c0.7,0,1.3,0.2,1.9,0.4l0-0.1c-0.2-0.1-0.4-0.2-0.6-0.4
			c-0.2-0.1-0.4-0.3-0.6-0.4c-0.7-0.5-1.3-1-1.7-1.4c-0.4-0.4-0.6-0.8-0.8-1.4c-0.2-0.8-0.1-1.5,0.5-2c0.5-0.6,1.3-1,2.3-1.3
			c1.4-0.4,2.8-0.4,4.4,0c1.6,0.3,3.1,1.1,4.4,2.3c1.4,1.2,2.3,2.9,2.9,5l2,7.4l-6.3,1.7l-2.2-8.2c-0.5-1.8-1.1-3.3-1.9-4.3
			c-0.8-1-1.6-1.8-2.4-2.1c-0.8-0.4-1.5-0.5-2.2-0.3c-0.4,0.1-0.7,0.3-0.9,0.6c-0.2,0.3-0.2,0.6-0.1,1c0.1,0.5,0.4,0.9,0.8,1.3
			c0.4,0.4,1,0.9,1.8,1.4c0.3,0.2,0.6,0.4,0.9,0.6c0.3,0.2,0.6,0.4,0.9,0.7c0.1,0,0.1,0,0.1,0c0,0,0,0,0.1,0c0.5,0.4,1,0.8,1.4,1.3
			c0.4,0.5,0.8,1,1.2,1.6c0.4,0.6,0.6,1.4,0.9,2.2c0.2,0.8,0.2,1.7,0.1,2.5c-0.2,0.9-0.6,1.6-1.2,2.3
			C1303.6,734.7,1302.7,735.2,1301.5,735.5z M1303.7,733c0.6-0.2,1-0.6,1.3-1.3c0.2-0.7,0.2-1.6-0.1-2.5c-0.3-1-0.7-1.9-1.3-2.7
			c-0.6-0.9-1.2-1.5-2-2c-0.7-0.5-1.5-0.6-2.2-0.4c-0.4,0.1-0.6,0.3-0.8,0.6c-0.2,0.3-0.3,0.7-0.3,1.2c0,0.5,0.1,1.1,0.3,1.8
			c0.3,1.1,0.7,2.1,1.4,2.9c0.6,0.9,1.3,1.5,2,2C1302.5,733,1303.1,733.1,1303.7,733z"/>
		<path class="st25" d="M1322.4,737.4c-1.4,0.4-2.9,0.6-4.5,0.7l-1.4-5.2c1.8,1,3.5,1.7,5,2.1c1.5,0.4,2.8,0.5,3.8,0.3
			c1-0.3,1.8-0.9,2.1-1.9c0.4-1,0.3-2.4-0.1-4.2l-0.8-3.1c-0.4,1-1.1,1.8-1.9,2.4c-0.8,0.7-1.8,1.1-2.8,1.4c-1.2,0.3-2.4,0.3-3.5,0
			c-1.2-0.3-2.2-1-3.2-2c-1-1-1.7-2.4-2.2-4.2c-0.9-3.4-0.6-6.1,0.8-8.2c1.5-2.1,3.7-3.5,6.7-4.4c2.9-0.8,5.8-1,8.6-0.6l3.4,12.7
			c0.7,2.5,0.7,4.7,0,6.6c-0.7,1.9-1.9,3.4-3.6,4.6C1327.2,735.8,1325,736.7,1322.4,737.4z M1324.5,727.3c0.4-0.1,0.8-0.4,1.1-1
			c0.3-0.5,0.4-1.2,0.3-2.1l-3-11.4c-0.4-0.4-0.7-0.7-1.2-0.8c-0.4-0.2-0.8-0.2-1.3-0.1c-0.6,0.2-1.1,0.6-1.5,1.3
			c-0.4,0.7-0.6,1.7-0.7,2.9c0,1.2,0.2,2.7,0.6,4.4c0.4,1.5,0.9,2.8,1.6,3.8c0.7,1.1,1.4,1.9,2.1,2.4
			C1323.3,727.3,1324,727.5,1324.5,727.3z"/>
		<path class="st25" d="M1345.2,723.8c-2.2,0.6-4.2,0.7-6,0.3c-1.7-0.4-3.2-1.2-4.3-2.3c-1.1-1.1-2-2.6-2.4-4.4
			c-0.4-1.7-0.5-3.3-0.1-4.8c0.4-1.5,1.2-2.9,2.5-4c1.3-1.2,2.9-2,5-2.6c1.6-0.4,3-0.6,4.2-0.6c1.2,0,2.2,0.3,3,0.8
			c0.7,0.5,1.2,1.2,1.5,2.1c0.2,0.9,0,1.9-0.5,2.7c-0.6,0.9-1.4,1.6-2.5,2.3c-1.1,0.7-2.3,1.2-3.6,1.5l0,0c1.3-0.2,2.5-0.3,3.7-0.2
			c1.2,0,2.3,0.3,3.2,0.7c0.9,0.4,1.5,1.1,1.7,2c0.3,1,0.2,1.9-0.3,2.8c-0.4,0.9-1.1,1.6-2,2.3
			C1347.3,723.1,1346.3,723.5,1345.2,723.8z M1340.7,714.8c0.8-0.2,1.5-0.7,2.1-1.3c0.6-0.7,0.9-1.5,1.1-2.4
			c0.2-0.9,0.1-1.9-0.1-2.9c-0.1-0.5-0.3-0.9-0.5-1.2c-0.2-0.3-0.5-0.5-0.8-0.6c-0.3-0.1-0.6-0.1-1,0c-0.7,0.2-1.3,0.7-1.9,1.4
			s-1,1.8-1.2,3.1c-0.2,1.3-0.2,2.7,0.2,4.2c0.2,0,0.6,0,1.1-0.1C1339.9,714.9,1340.3,714.8,1340.7,714.8z M1347,721.8
			c1.1-0.3,2-0.8,2.6-1.6c0.6-0.8,0.8-1.7,0.5-2.7c-0.3-1.1-1.1-1.8-2.5-2.1c-1.4-0.3-2.8-0.4-4.4-0.3c-1.6,0.1-3,0.3-4.2,0.5
			c-0.1,0-0.2,0-0.2,0.1c-0.1,0-0.1,0-0.2,0c0.4,1.6,1.1,3,2,4c0.9,1,2,1.7,3.1,2.1C1344.8,722.1,1345.9,722.1,1347,721.8z"/>
	</g>
	<g>
		<path class="st0" d="M181.5,697.3c-2.9,0-5.2-0.8-6.9-2.5s-2.5-4-2.5-7.1v-11.6h4.8v11.5c0,2,0.4,3.4,1.2,4.3
			c0.8,0.9,1.9,1.3,3.4,1.3c1.5,0,2.6-0.4,3.4-1.3s1.2-2.3,1.2-4.3v-11.5h4.7v11.6c0,3.1-0.8,5.4-2.5,7.1S184.4,697.3,181.5,697.3z"
			/>
		<path class="st0" d="M195.3,696.9v-22h4.6v22H195.3z"/>
		<path class="st0" d="M209.2,697.2c-1.2,0-2.3-0.2-3.2-0.6c-0.9-0.4-1.6-1-2.1-1.7c-0.5-0.7-0.7-1.6-0.7-2.5c0-0.9,0.2-1.8,0.7-2.5
			c0.5-0.7,1.2-1.3,2.2-1.7c1-0.4,2.3-0.6,4-0.6h4.2v2.7h-3.7c-1.1,0-1.8,0.2-2.2,0.5c-0.4,0.4-0.6,0.8-0.6,1.3
			c0,0.6,0.2,1.1,0.7,1.4c0.5,0.3,1.1,0.5,1.9,0.5c0.8,0,1.5-0.2,2.1-0.5c0.6-0.4,1.1-0.9,1.3-1.6l0.7,2.2c-0.3,1-0.9,1.8-1.8,2.3
			C211.7,696.9,210.6,697.2,209.2,697.2z M214,696.9v-3.1l-0.3-0.7v-5.6c0-1-0.3-1.8-0.9-2.3c-0.6-0.6-1.5-0.8-2.8-0.8
			c-0.8,0-1.7,0.1-2.5,0.4c-0.8,0.3-1.5,0.6-2.1,1.1l-1.6-3.2c0.9-0.6,1.9-1.1,3.1-1.4c1.2-0.3,2.5-0.5,3.7-0.5
			c2.4,0,4.3,0.6,5.7,1.7c1.3,1.1,2,2.9,2,5.4v9.1H214z"/>
		<path class="st0" d="M221.4,696.9v-2.8l9.4-11.1l0.8,1.5h-10V681h13.7v2.8l-9.4,11.1l-0.9-1.5h10.5v3.6H221.4z"/>
		<path class="st0" d="M247,696.9v-22h4.6v22H247z M250.8,693.7l0.1-5.7l7.4-7h5.5l-7.1,7.3l-2.4,2L250.8,693.7z M258.9,696.9
			l-5.4-6.7l2.9-3.6l8.1,10.3H258.9z"/>
		<path class="st0" d="M271.4,697.2c-1.2,0-2.3-0.2-3.2-0.6c-0.9-0.4-1.6-1-2.1-1.7c-0.5-0.7-0.7-1.6-0.7-2.5c0-0.9,0.2-1.8,0.7-2.5
			c0.5-0.7,1.2-1.3,2.2-1.7c1-0.4,2.3-0.6,4-0.6h4.2v2.7h-3.7c-1.1,0-1.8,0.2-2.2,0.5c-0.4,0.4-0.6,0.8-0.6,1.3
			c0,0.6,0.2,1.1,0.7,1.4c0.5,0.3,1.1,0.5,1.9,0.5c0.8,0,1.5-0.2,2.1-0.5c0.6-0.4,1.1-0.9,1.3-1.6l0.7,2.2c-0.3,1-0.9,1.8-1.8,2.3
			C274,696.9,272.9,697.2,271.4,697.2z M276.3,696.9v-3.1l-0.3-0.7v-5.6c0-1-0.3-1.8-0.9-2.3c-0.6-0.6-1.5-0.8-2.8-0.8
			c-0.8,0-1.7,0.1-2.5,0.4c-0.8,0.3-1.5,0.6-2.1,1.1l-1.6-3.2c0.9-0.6,1.9-1.1,3.1-1.4c1.2-0.3,2.5-0.5,3.7-0.5
			c2.4,0,4.3,0.6,5.7,1.7c1.3,1.1,2,2.9,2,5.4v9.1H276.3z"/>
		<path class="st0" d="M284.8,696.9V681h4.4v4.5l-0.6-1.3c0.5-1.1,1.2-2,2.3-2.6c1-0.6,2.3-0.9,3.8-0.9v4.3c-0.2,0-0.4-0.1-0.5-0.1
			c-0.2,0-0.3,0-0.5,0c-1.3,0-2.3,0.4-3.1,1.1c-0.8,0.7-1.2,1.9-1.2,3.4v7.5H284.8z"/>
		<path class="st0" d="M295.7,684.9v-3.6h11v3.6H295.7z M304.1,697.2c-1.9,0-3.3-0.5-4.4-1.4c-1-1-1.6-2.4-1.6-4.3v-14h4.7v13.9
			c0,0.7,0.2,1.2,0.5,1.6c0.3,0.4,0.8,0.6,1.4,0.6c0.8,0,1.4-0.2,1.9-0.6l1.2,3.3c-0.5,0.3-1,0.6-1.7,0.8
			C305.5,697.1,304.8,697.2,304.1,697.2z"/>
		<path class="st0" d="M318.4,697.2c-1.8,0-3.4-0.4-4.8-1.1c-1.4-0.7-2.4-1.7-3.2-2.9c-0.8-1.2-1.1-2.6-1.1-4.2c0-1.6,0.4-3,1.1-4.2
			c0.7-1.2,1.7-2.2,3-2.9c1.3-0.7,2.7-1.1,4.4-1.1c1.6,0,3,0.3,4.2,1c1.3,0.7,2.2,1.6,3,2.8s1.1,2.7,1.1,4.4c0,0.2,0,0.4,0,0.6
			s0,0.4-0.1,0.6h-12.9v-2.7h10.5l-1.8,0.8c0-0.8-0.1-1.6-0.5-2.2c-0.3-0.6-0.8-1.1-1.4-1.4c-0.6-0.3-1.3-0.5-2.1-0.5
			c-0.8,0-1.5,0.2-2.1,0.5c-0.6,0.3-1.1,0.8-1.4,1.5c-0.3,0.6-0.5,1.4-0.5,2.2v0.7c0,0.9,0.2,1.7,0.6,2.3c0.4,0.7,0.9,1.2,1.6,1.5
			s1.5,0.5,2.5,0.5c0.8,0,1.6-0.1,2.2-0.4c0.6-0.3,1.2-0.6,1.8-1.2l2.5,2.7c-0.7,0.8-1.6,1.5-2.8,1.9
			C321.1,697,319.8,697.2,318.4,697.2z"/>
	</g>
	<g>
		<path class="st25" d="M774.3,1127.5c-1.3,0-2.6-0.1-3.8-0.3c-1.2-0.2-2.4-0.5-3.5-0.9l0.8-5.4c1.6,1.3,3.5,2.3,5.6,3
			c2.1,0.8,4.1,1.1,5.8,1.1c1.6,0,2.9-0.3,3.8-0.9c1-0.6,1.4-1.5,1.4-2.7c0-0.9-0.4-1.8-1.1-2.7c-0.7-0.9-1.6-1.7-2.7-2.4
			c-1.1-0.7-2.6-1.6-4.5-2.7c0,0-0.1-0.1-0.1-0.1c0,0-0.1-0.1-0.2-0.1c-0.2-0.1-0.3-0.2-0.5-0.3c-0.1-0.1-0.3-0.2-0.5-0.3
			c-1.8-1.1-3.4-2.1-4.6-2.9c-1.2-0.9-2.2-1.8-3-2.9c-0.8-1-1.2-2.1-1.2-3.3c0-2.5,1.4-4.4,4.2-5.6c2.8-1.2,6.3-1.9,10.4-1.9
			c1.4,0,2.7,0.1,4,0.2c1.3,0.1,2.5,0.3,3.6,0.5l-0.7,5.4c-1.3-0.9-2.7-1.7-4.1-2.4c-1.5-0.7-2.9-1.3-4.3-1.7
			c-1.4-0.4-2.6-0.6-3.7-0.6c-1.2,0-2.2,0.2-3,0.6c-0.7,0.4-1.1,1-1.1,1.8c0,0.5,0.3,1.1,0.9,1.7c0.6,0.6,1.4,1.2,2.4,1.8
			c1,0.6,2.2,1.3,3.7,2.1c0.2,0.1,0.4,0.3,0.6,0.4c0.2,0.1,0.4,0.2,0.6,0.3c0.1,0,0.1,0.1,0.2,0.1c0,0,0.1,0,0.2,0.1
			c1.9,1,3.5,2,4.7,2.8c1.2,0.8,2.3,1.9,3.2,3.1s1.3,2.7,1.3,4.4c0,2.2-0.7,4.2-2.1,5.8c-1.4,1.6-3.3,2.9-5.6,3.7
			C779.3,1127.1,776.9,1127.5,774.3,1127.5z"/>
		<path class="st25" d="M795.3,1104.9c-1.2,0-2.2-0.4-3-1.2c-0.8-0.8-1.2-1.7-1.2-2.7c0-1,0.4-1.9,1.2-2.7c0.8-0.8,1.8-1.1,3-1.1
			c1.1,0,2,0.4,2.8,1.1s1.2,1.7,1.2,2.7c0,1-0.4,2-1.2,2.7C797.3,1104.6,796.4,1104.9,795.3,1104.9z M791.4,1126.9v-20.1h7.6v20.1
			H791.4z"/>
		<path class="st25" d="M801.7,1126.7v-29.9h7.6v29.9H801.7z"/>
		<path class="st25" d="M823.8,1127.6c-2.7,0-5-0.5-6.8-1.4c-1.8-1-3.2-2.3-4.2-3.9c-0.9-1.6-1.4-3.5-1.4-5.7c0-2,0.4-3.8,1.4-5.4
			c0.9-1.6,2.2-2.9,4-3.8c1.8-0.9,3.9-1.4,6.4-1.4c1.9,0,3.6,0.2,4.9,0.6c1.4,0.4,2.4,1,3.1,1.8c0.7,0.8,1,1.7,1,2.8
			c0,1.1-0.5,2.1-1.4,2.9c-0.9,0.8-2.1,1.4-3.5,1.8c-1.4,0.4-2.9,0.6-4.5,0.6v0c1.5,0.2,2.9,0.4,4.2,0.9c1.3,0.4,2.5,1,3.3,1.7
			c0.9,0.7,1.3,1.7,1.3,2.8c0,1.2-0.4,2.2-1.1,3c-0.8,0.9-1.8,1.5-3,2C826.4,1127.4,825.1,1127.6,823.8,1127.6z M826.4,1125.9
			c1.4,0,2.5-0.4,3.4-1.1c0.9-0.7,1.4-1.7,1.4-2.9c0-1.3-0.7-2.3-2.1-3.1c-1.4-0.8-3-1.4-4.8-1.7c-1.8-0.3-3.4-0.6-4.9-0.7
			c-0.1,0-0.2,0-0.3,0c-0.1,0-0.1,0-0.2,0c0,2,0.3,3.7,1,5.1c0.7,1.4,1.7,2.5,2.8,3.3C823.8,1125.5,825,1125.9,826.4,1125.9z
			 M821.4,1116c1,0,1.9-0.3,2.7-0.9c0.8-0.6,1.5-1.4,2-2.4c0.5-1,0.7-2.1,0.7-3.2c0-0.6-0.1-1.1-0.2-1.5c-0.2-0.4-0.4-0.7-0.7-0.9
			c-0.3-0.2-0.7-0.3-1.2-0.3c-0.8,0-1.7,0.3-2.6,1c-0.9,0.7-1.7,1.7-2.3,3.1c-0.6,1.4-1,3-1,4.8c0.3,0.1,0.7,0.1,1.3,0.2
			C820.5,1116,821,1116,821.4,1116z"/>
		<path class="st25" d="M834,1126.9v-20.1h7.6v3.6h0.1c0.7-1.4,1.7-2.4,3-3.2c1.3-0.8,2.6-1.2,4-1.2c1.2,0,2.4,0.3,3.4,0.8
			c1,0.5,1.9,1.3,2.5,2.4c0.6,1.1,0.9,2.4,0.9,3.9v13.6H848v-14.3c0-1.2-0.3-2.2-0.8-2.9c-0.5-0.7-1.2-1.1-2-1.1
			c-0.5,0-1,0.2-1.5,0.5c-0.5,0.3-1,0.8-1.4,1.5c-0.4,0.6-0.7,1.4-0.8,2.3v14.2H834z"/>
		<path class="st25" d="M867.9,1127.5c-2.7,0-4.9-0.6-6.6-1.7c-1.7-1.1-2.5-2.8-2.5-5v-13.1h-2.3v-0.9h1.2c1.4,0,2.6-0.5,3.8-1.4
			c1.2-0.9,2.2-2.1,2.9-3.7c0.7-1.5,1.1-3.1,1.1-4.9h0.8v10h6v0.9h-6v15.6c0,1,0.2,1.8,0.5,2.3c0.3,0.5,0.8,0.8,1.3,0.8
			c0.6,0,1.4-0.4,2.2-1.1c0.8-0.8,1.7-1.8,2.5-3.3l1.2,4.7C871.9,1127.2,869.9,1127.5,867.9,1127.5z"/>
		<path class="st25" d="M895.5,1127.5c-2.3,0-4.4-0.4-6.3-1.2c-1.9-0.8-3.4-2.1-4.5-3.8c-1.1-1.8-1.7-4-1.7-6.7
			c0-2.1,0.4-3.9,1.2-5.4c0.8-1.5,1.8-2.5,3.1-3.3c1.3-0.7,2.7-1.1,4.2-1.1c1.1,0,2.3,0.2,3.3,0.6c1.1,0.4,2,1,2.8,1.7v-11.5h7.6
			v28.6c-1.6,0.7-3.3,1.2-4.9,1.6C898.6,1127.4,897,1127.5,895.5,1127.5z M896,1126.4c0.3,0,0.6,0,0.8-0.1c0.3,0,0.5-0.1,0.8-0.3
			v-16.3c-0.9-0.8-1.7-1.2-2.6-1.2c-0.9,0-1.7,0.3-2.3,1c-0.6,0.7-1.1,1.6-1.5,2.7c-0.3,1.1-0.5,2.4-0.5,3.8c0,1.8,0.2,3.4,0.7,5
			c0.5,1.6,1.1,2.9,1.9,3.8C894.1,1125.8,895,1126.3,896,1126.4z"/>
		<path class="st25" d="M911.8,1104.9c-1.2,0-2.2-0.4-3-1.2c-0.8-0.8-1.2-1.7-1.2-2.7c0-1,0.4-1.9,1.2-2.7c0.8-0.8,1.8-1.1,3-1.1
			c1.1,0,2,0.4,2.8,1.1s1.2,1.7,1.2,2.7c0,1-0.4,2-1.2,2.7C913.8,1104.6,912.8,1104.9,911.8,1104.9z M907.9,1126.9v-20.1h7.6v20.1
			H907.9z"/>
		<path class="st25" d="M924,1127.4c-1.2,0-2.3-0.1-3.4-0.3c-1.1-0.2-2-0.4-2.7-0.7l1-5.4c0.7,0.6,1.4,1.2,2.2,1.8
			c1.3,1,2.5,1.8,3.6,2.4c1.1,0.6,2,1,2.6,1c0.7,0,1.2-0.2,1.7-0.5c0.4-0.3,0.6-0.7,0.6-1.3c0-0.6-0.3-1.3-0.8-2
			c-0.5-0.7-1.2-1.4-2.1-2.2c-0.9-0.7-1.9-1.6-3.3-2.6l-0.1-0.1c-0.1,0-0.1-0.1-0.2-0.1c-0.1,0-0.1-0.1-0.2-0.1
			c-1.8-1.4-3.2-2.5-4-3.3c-0.8-0.8-1.2-1.7-1.2-2.7c0-1.7,1-3.1,3-4c2-0.9,4.5-1.4,7.3-1.4c1,0,2.1,0.1,3.2,0.2
			c1.1,0.1,2.1,0.4,2.9,0.6l-0.9,5.4c-0.6-0.8-1.5-1.6-2.5-2.4c-1-0.8-2.1-1.5-3.1-2.1c-1.1-0.6-1.9-0.8-2.5-0.8
			c-0.5,0-1,0.1-1.4,0.3c-0.4,0.2-0.6,0.5-0.6,0.9c0,0.5,0.4,1.2,1.3,2c0.9,0.8,2.2,1.9,3.9,3.1l0.7,0.5l0.2,0.1
			c1.4,0.9,2.4,1.7,3.2,2.4c0.8,0.6,1.4,1.4,1.9,2.1c0.5,0.8,0.7,1.5,0.7,2.4c0,1.5-0.5,2.8-1.6,3.8c-1.1,1-2.5,1.7-4.2,2.2
			S925.9,1127.4,924,1127.4z"/>
		<path class="st25" d="M948.1,1127.5c-2.4,0-4.5-0.5-6.2-1.5c-1.7-1-2.9-2.4-3.8-4c-0.9-1.7-1.3-3.5-1.3-5.5c0-2.1,0.4-4,1.3-5.5
			c0.8-1.6,2.1-2.8,3.7-3.7c1.6-0.9,3.7-1.3,6.2-1.3c1.5,0,2.9,0.1,4.1,0.2c1.3,0.1,2.4,0.4,3.4,0.7l-0.1,4.6
			c-1.1-1.5-2.2-2.6-3.3-3.5c-1.1-0.8-2-1.2-2.9-1.2c-1.5,0-2.7,0.8-3.6,2.4c-0.9,1.6-1.3,3.7-1.3,6.4c0,2.4,0.2,4.4,0.7,6
			c0.4,1.7,1.1,2.9,1.8,3.8c0.8,0.9,1.7,1.3,2.7,1.3c0.9,0,1.9-0.5,3-1.6s1.8-2.2,2.3-3.5l1.8,3.6c-1.3,0.8-2.6,1.4-4,1.8
			C951.3,1127.3,949.7,1127.5,948.1,1127.5z"/>
		<path class="st25" d="M968.4,1127.5c-2.1,0-4-0.4-5.8-1.3c-1.8-0.9-3.3-2.2-4.4-3.9c-1.1-1.7-1.7-3.7-1.7-5.9
			c0-2.2,0.6-4.1,1.7-5.6c1.1-1.6,2.6-2.8,4.4-3.6c1.8-0.8,3.7-1.2,5.7-1.2c2,0,3.9,0.4,5.7,1.2c1.8,0.8,3.3,2,4.4,3.7
			c1.1,1.6,1.7,3.5,1.7,5.7c0,2.3-0.5,4.3-1.6,6c-1.1,1.7-2.5,2.9-4.3,3.7C972.5,1127,970.5,1127.5,968.4,1127.5z M970,1126.6
			c0.9,0,1.6-0.4,2-1.3c0.5-0.9,0.8-2,0.9-3.5c0.1-1.4,0-3-0.2-4.8c-0.2-1.9-0.6-3.6-1.2-5.1c-0.6-1.5-1.2-2.8-2-3.7
			c-0.8-0.9-1.7-1.4-2.6-1.4c-0.9,0-1.6,0.5-2.1,1.4c-0.5,0.9-0.8,2.1-0.9,3.6c-0.1,1.5,0,3.1,0.2,4.9c0.2,1.7,0.6,3.4,1.2,4.9
			c0.6,1.5,1.2,2.7,2.1,3.7C968.2,1126.1,969.1,1126.6,970,1126.6z"/>
	</g>
	<g>
		<path class="st25" d="M1037.5,970.8l-10.4-29.9h8l5.3,15.1l0.1,0c-0.3-3.3-0.1-6.1,0.8-8.5c0.9-2.4,2-4.2,3.6-5.4
			c1.5-1.2,3.1-1.8,4.8-1.8c1.4,0,2.6,0.5,3.6,1.5c1,1,1.5,2.4,1.5,4.3c0,1.9-0.6,4.2-1.8,6.8l-8.4,17.9H1037.5z M1049.5,958.1
			c1.2-2.5,1.8-4.7,1.8-6.5c0-1.8-0.4-3.2-1.2-4.1c-0.8-0.9-1.8-1.4-3.1-1.4c-1.4,0-2.7,0.6-3.8,1.9c-1.2,1.3-1.9,3-2.2,5.3
			c-0.3,2.3,0.1,4.8,1,7.7l2.6,7.4L1049.5,958.1z"/>
		<path class="st25" d="M1066.1,971.6c-2.1,0-4-0.4-5.8-1.3c-1.8-0.9-3.3-2.2-4.4-3.9c-1.1-1.7-1.7-3.7-1.7-5.9
			c0-2.2,0.6-4.1,1.7-5.6c1.1-1.6,2.6-2.8,4.4-3.6c1.8-0.8,3.7-1.2,5.7-1.2c2,0,3.9,0.4,5.7,1.2c1.8,0.8,3.3,2,4.4,3.7
			c1.1,1.6,1.7,3.5,1.7,5.7c0,2.3-0.5,4.3-1.6,6c-1.1,1.7-2.5,2.9-4.3,3.7S1068.2,971.6,1066.1,971.6z M1067.7,970.7
			c0.9,0,1.6-0.4,2-1.3c0.5-0.9,0.8-2,0.9-3.5c0.1-1.4,0-3-0.2-4.8c-0.2-1.9-0.6-3.6-1.2-5.1c-0.6-1.5-1.2-2.8-2-3.7
			s-1.7-1.4-2.6-1.4c-0.9,0-1.6,0.5-2.1,1.4c-0.5,0.9-0.8,2.1-0.9,3.6c-0.1,1.5,0,3.1,0.2,4.9c0.2,1.7,0.6,3.4,1.2,4.9
			c0.6,1.5,1.2,2.7,2.1,3.7C1065.9,970.3,1066.8,970.7,1067.7,970.7z"/>
		<path class="st25" d="M1089.7,971.6c-2.7,0-4.9-0.6-6.6-1.7c-1.7-1.1-2.5-2.8-2.5-5v-13.1h-2.3v-0.9h1.2c1.4,0,2.6-0.5,3.8-1.4
			c1.2-0.9,2.2-2.1,2.9-3.7c0.7-1.5,1.1-3.1,1.1-4.9h0.8v10h6v0.9h-6v15.6c0,1,0.2,1.8,0.5,2.3c0.3,0.5,0.8,0.8,1.3,0.8
			c0.6,0,1.4-0.4,2.2-1.1c0.8-0.8,1.7-1.8,2.5-3.3l1.2,4.7C1093.7,971.4,1091.7,971.6,1089.7,971.6z"/>
		<path class="st25" d="M1104.4,971.7c-1.7,0-3.2-0.4-4.5-1.2c-1.3-0.8-2.2-1.8-2.8-3.1c-0.6-1.3-0.9-2.6-0.9-4
			c0-1.2,0.3-2.4,0.8-3.4c0.5-1,1.3-1.8,2.3-2.4c1-0.6,2.2-0.9,3.6-0.9c0.7,0,1.5,0.1,2.2,0.4s1.4,0.6,2,1.1l0,0
			c-0.2-0.2-0.4-0.4-0.6-0.6c-0.2-0.2-0.3-0.4-0.5-0.6c-0.7-0.8-1.2-1.5-1.5-2.1c-0.3-0.6-0.5-1.1-0.5-1.8c0-0.9,0.4-1.7,1.1-2.2
			c0.8-0.5,1.7-0.7,2.9-0.7c1.6,0,3.3,0.4,5,1.3c1.7,0.9,3.1,2.2,4.3,4c1.2,1.8,1.7,3.9,1.7,6.5v9h-7.6v-9.9c0-2.2-0.3-4-0.8-5.4
			c-0.6-1.4-1.2-2.4-2-3.1c-0.8-0.7-1.6-1-2.4-1c-0.5,0-0.9,0.1-1.2,0.4c-0.3,0.3-0.4,0.7-0.4,1.1c0,0.6,0.2,1.1,0.5,1.7
			c0.3,0.6,0.8,1.3,1.6,2.2c0.3,0.3,0.5,0.6,0.8,1c0.3,0.3,0.6,0.7,0.8,1c0.1,0,0.1,0.1,0.1,0.1c0,0,0,0,0,0.1
			c0.5,0.6,0.9,1.2,1.2,1.8c0.3,0.7,0.6,1.4,0.8,2.2c0.2,0.8,0.3,1.7,0.3,2.7c0,1-0.2,1.9-0.7,2.8c-0.4,0.9-1.1,1.7-2.1,2.2
			C1106.9,971.4,1105.8,971.7,1104.4,971.7z M1107.5,969.5c0.8,0,1.4-0.4,1.8-1.1c0.4-0.7,0.7-1.7,0.7-2.9c0-1.2-0.2-2.3-0.6-3.5
			c-0.4-1.1-0.9-2.1-1.6-2.8c-0.7-0.7-1.5-1.1-2.3-1.1c-0.4,0-0.8,0.2-1.1,0.4c-0.3,0.3-0.6,0.7-0.7,1.3c-0.2,0.6-0.3,1.3-0.3,2.1
			c0,1.3,0.2,2.5,0.6,3.7c0.4,1.2,1,2.1,1.6,2.8C1106.3,969.1,1106.9,969.5,1107.5,969.5z"/>
		<path class="st25" d="M1118.2,975.7c0.9,0,1.8-0.4,2.4-1.1c0.7-0.7,1.2-1.6,1.6-2.8c0.4-1.2,0.6-2.7,0.8-4.4c0-0.5,0.1-1,0.1-1.6
			c0-0.6,0-1.1,0-1.7v-12.4h-2.6v-0.9h2.6c0-2.7,0.4-4.7,1.1-6.1c0.7-1.4,1.7-2.3,2.9-2.9c1.2-0.5,2.7-0.8,4.6-0.9
			c0.3,0,0.6-0.1,0.8-0.1c0.3,0,0.5,0,0.8,0c0.4,0,1,0,1.7,0v5.2c-1.4-1.2-2.6-2.1-3.8-2.7c-1.2-0.6-2.1-1-2.8-1
			c-0.5,0-0.9,0.1-1.1,0.3c-0.2,0.2-0.3,0.5-0.3,1c0,0.5,0.2,1.2,0.6,2.2c0.7,1.5,1.7,3.2,3.1,5h3.6v0.9h-3.6v12.4
			c0,3.1-0.7,5.6-2.2,7.4s-3.1,3.1-5,3.8c-1.9,0.7-3.6,1.1-5.3,1.3V975.7z"/>
		<path class="st25" d="M1142.4,971.7c-1.7,0-3.2-0.4-4.5-1.2c-1.3-0.8-2.2-1.8-2.8-3.1c-0.6-1.3-0.9-2.6-0.9-4
			c0-1.2,0.3-2.4,0.8-3.4c0.5-1,1.3-1.8,2.3-2.4c1-0.6,2.2-0.9,3.6-0.9c0.7,0,1.5,0.1,2.2,0.4c0.7,0.2,1.4,0.6,2,1.1l0,0
			c-0.2-0.2-0.4-0.4-0.6-0.6c-0.2-0.2-0.3-0.4-0.5-0.6c-0.7-0.8-1.2-1.5-1.5-2.1c-0.3-0.6-0.5-1.1-0.5-1.8c0-0.9,0.4-1.7,1.1-2.2
			c0.8-0.5,1.7-0.7,2.9-0.7c1.6,0,3.3,0.4,5,1.3c1.7,0.9,3.1,2.2,4.3,4c1.2,1.8,1.7,3.9,1.7,6.5v9h-7.6v-9.9c0-2.2-0.3-4-0.8-5.4
			c-0.6-1.4-1.2-2.4-2-3.1c-0.8-0.7-1.6-1-2.4-1c-0.5,0-0.9,0.1-1.2,0.4c-0.3,0.3-0.4,0.7-0.4,1.1c0,0.6,0.2,1.1,0.5,1.7
			c0.3,0.6,0.8,1.3,1.6,2.2c0.3,0.3,0.5,0.6,0.8,1c0.3,0.3,0.6,0.7,0.8,1c0.1,0,0.1,0.1,0.1,0.1c0,0,0,0,0,0.1
			c0.5,0.6,0.9,1.2,1.2,1.8c0.3,0.7,0.6,1.4,0.8,2.2c0.2,0.8,0.3,1.7,0.3,2.7c0,1-0.2,1.9-0.7,2.8c-0.4,0.9-1.1,1.7-2.1,2.2
			C1145,971.4,1143.8,971.7,1142.4,971.7z M1145.6,969.5c0.8,0,1.4-0.4,1.8-1.1c0.4-0.7,0.7-1.7,0.7-2.9c0-1.2-0.2-2.3-0.6-3.5
			c-0.4-1.1-0.9-2.1-1.6-2.8c-0.7-0.7-1.5-1.1-2.3-1.1c-0.4,0-0.8,0.2-1.1,0.4c-0.3,0.3-0.6,0.7-0.7,1.3c-0.2,0.6-0.3,1.3-0.3,2.1
			c0,1.3,0.2,2.5,0.6,3.7c0.4,1.2,1,2.1,1.6,2.8C1144.3,969.1,1145,969.5,1145.6,969.5z"/>
		<path class="st25" d="M1159.2,970.8V941h7.6v19.1h0.1c0.9-1.6,2-3.2,3.5-4.7c1.5-1.5,3.1-2.8,4.7-3.8c1.6-1,3.2-1.5,4.6-1.5v4.8
			c-1.8-0.3-3.6-0.2-5.4,0.4c-1,0.3-2,0.7-2.9,1.3c-0.9,0.5-1.7,1.1-2.3,1.8l0,0.1c1.1-0.6,2.1-0.9,3-0.9c1,0,2,0.4,2.8,1.3
			c0.9,0.9,1.6,1.9,2.2,3.1s1.3,2.7,2,4.5c0.3,0.9,0.7,1.7,1,2.4c0.3,0.8,0.7,1.4,1,1.9h-7.6c-0.2-0.3-0.4-0.9-0.6-1.7
			s-0.4-1.8-0.6-3c-0.3-1.2-0.6-2.4-0.9-3.5c-0.3-1.1-0.6-2-0.9-2.7c-0.3-0.7-0.7-1-1.1-1s-0.8,0.1-1.1,0.4
			c-0.3,0.3-0.6,0.6-0.8,1.1c-0.2,0.4-0.4,0.9-0.5,1.3l0,0v0v9H1159.2z"/>
	</g>
	<g>
		<g>
			<path class="st18" d="M907.7,1005.9l-5.6-2.6c6-12.9,13.6-28.9,33.7-29.1c1.1,0,1.5-0.2,1.6-0.3c0.6-0.6,0.3-4.1,0.1-6.4
				c-0.7-8.1-1.9-21.7,11.7-34.5l4.2,4.5c-11.4,10.7-10.5,21.5-9.8,29.4c0.4,4.5,0.8,8.5-1.6,11.1c-1.4,1.5-3.4,2.3-6.1,2.3
				C920.8,980.5,914.7,991,907.7,1005.9z"/>
		</g>
		<g>
			<g>
				<polygon class="st18" points="896.9,1020.1 899.1,993.6 905.5,1003.4 917.1,1002.7 				"/>
			</g>
		</g>
	</g>
	<g>
		<g>
			<path class="st18" d="M1200.2,820.7c-3.8,0-7.1-1.1-9.8-3.5c-7.7-6.9-6.6-13.9-5.6-20.5c0.9-6,1.9-12.3-3-20.3l5.3-3.2
				c6,10,4.8,18,3.8,24.5c-0.9,6.2-1.6,10.3,3.6,15c8.3,7.5,31.8-8.8,40.6-15l3.5,5.1C1225.3,811.9,1211,820.7,1200.2,820.7z"/>
		</g>
		<g>
			<g>
				<polygon class="st18" points="1251.1,790 1236.8,812.4 1235.8,800.8 1225.2,796 				"/>
			</g>
		</g>
	</g>
	<g>
		<g>
			<path class="st18" d="M1349.2,857.6l-1.8-5.9c15.6-4.6,23.3-9.4,23-14.2c-0.3-4.5-3.6-7.7-7.3-11.3c-4.9-4.8-11.1-10.7-9.4-21
				l6.1,1c-1.2,7.1,2.9,11,7.6,15.6c4.1,4,8.7,8.5,9.2,15.4C1377.3,847.8,1362.3,853.7,1349.2,857.6z"/>
		</g>
		<g>
			<g>
				<polygon class="st18" points="1331.5,859.3 1352.5,843 1349.6,854.3 1357.9,862.4 				"/>
			</g>
		</g>
	</g>
	<g>
		<g>
			<path class="st18" d="M1685.1,731.2c-8.3,0-17.2-3-26.1-6c-3.2-1.1-6.6-2.2-10-3.2c-11.6-3.5-20.6-2.1-30.2,0.1l-2-9.1
				c10.1-2.2,21.1-4.1,34.9,0.1c3.5,1.1,6.9,2.2,10.2,3.3c21.9,7.4,32.7,10.1,40.9-9.3c10.4-24.8,0.3-34.2-12.4-46.2
				c-3.5-3.3-7.2-6.7-10.5-10.6l7-6c3,3.5,6.5,6.8,9.8,9.9c12.9,12.1,27.6,25.9,14.6,56.6C1704.8,726.4,1695.5,731.2,1685.1,731.2z"
				/>
		</g>
		<g>
			<g>
				<polygon class="st18" points="1591.8,720.3 1626.7,701 1619.8,717 1630.3,731 				"/>
			</g>
		</g>
	</g>
	<g>
		<g>
			<path class="st18" d="M454.9,796.1c-10.8,0-20.9-2-30.1-5.9c-19.7-8.5-28.3-22.1-35.8-34.2c-7-11.1-13-20.7-26.6-25.1
				c-22-7.1-31.9,0.5-44.4,10.2c-9.1,7-19.4,14.9-35.4,16.7c-8.9,1-32.5,3.6-48.5-9.8c-9.2-7.6-14.4-19.2-15.4-34.3l9.3-0.7
				c0.9,12.5,5,21.8,12.1,27.8c13,10.8,33,8.6,41.6,7.7c13.3-1.5,21.8-7.9,30.7-14.8c12.9-10,26.3-20.3,52.9-11.7
				c16.8,5.4,24.3,17.4,31.6,29c7.2,11.4,14.6,23.3,31.6,30.6c14.4,6.2,31.5,6.8,50.8,1.9l2.3,9
				C472.2,794.9,463.3,796.1,454.9,796.1z"/>
		</g>
		<g>
			<g>
				<polygon class="st18" points="474.7,804 476,789.1 466.2,777.9 501.4,780.9 				"/>
			</g>
		</g>
	</g>
	<g>
		<g>
			<path class="st18" d="M569.8,597c-11.8-18-24.1-33.6-55.6-41.2c-15.1-3.7-26.5,0.8-39.7,6c-12.4,4.9-26.5,10.4-45.9,9.9
				c-27.7-0.8-66-33.6-81.7-62.5l8.1-4.4c15.5,28.5,52.1,57.1,73.8,57.7c17.5,0.5,30.1-4.5,42.2-9.2c14.1-5.5,27.3-10.7,45.3-6.4
				c34.8,8.5,48.8,26.2,61.2,45.2L569.8,597z"/>
		</g>
		<g>
			<g>
				<polygon class="st18" points="588.4,616.1 555.1,594.1 572.5,592.8 580.1,577.1 				"/>
			</g>
		</g>
	</g>
	<g>
		<path class="st25" d="M593.1,1004.6l-32.2-15.4l3.9-8.2c2.3-0.3,4.7-0.4,6.9-0.5c2.3,0,4.4,0,6.5,0.2c2,0.2,4,0.4,5.9,0.8
			c0.7,0.1,1.4,0.2,2,0.4c0.7,0.1,1.3,0.3,1.9,0.4l0-0.1c-1-0.6-1.9-1.5-2.8-2.6c-0.9-1.1-1.9-2.6-2.9-4.3l-0.1-0.2
			c-0.4-0.6-0.7-1.1-1.1-1.7c-0.4-0.6-0.7-1.2-1.1-1.7c-1.5-2.4-2.8-4.3-3.8-5.6c-1-1.3-2-2.2-3.1-2.7l3.5-7.3l32.2,15.4l-3.9,8.2
			L578.3,967l-0.1,0.2c0.9,1.2,1.7,2.4,2.6,3.8c0.8,1.3,1.7,2.7,2.7,4.2c0.8,1.3,1.6,2.4,2.3,3.3c0.7,0.9,1.5,1.8,2.3,2.5
			c0.8,0.7,1.7,1.3,2.6,1.8c1.7,0.8,3.7,1.4,5.7,1.6c2.1,0.2,4.2,0.2,6.5-0.2l-3.9,8.2c-0.8,0.1-2,0-3.6-0.2
			c-1.6-0.2-4.1-0.6-7.3-1.2c-4.2-0.7-7.7-1.2-10.4-1.6c-2.7-0.4-5.5-0.7-8.3-0.8c-2.8-0.2-5.2,0-7,0.3l31.1,14.9L593.1,1004.6z"/>
		<path class="st25" d="M617.3,956.4c-1.4,2.9-3.1,5.1-5.1,6.6c-2,1.5-4.1,2.3-6.4,2.5c-2.2,0.2-4.5-0.3-6.9-1.4
			c-2.2-1-3.9-2.5-5.2-4.3s-2-3.9-2-6.3c-0.1-2.4,0.5-4.9,1.8-7.7c1-2.1,2.1-3.7,3.2-5c1.1-1.3,2.3-2.1,3.5-2.4
			c1.2-0.4,2.4-0.2,3.5,0.3c1.2,0.6,2,1.6,2.4,3c0.4,1.4,0.5,3,0.2,4.7c-0.3,1.7-0.8,3.5-1.6,5.1l0.1,0c0.9-1.5,2-2.9,3.1-4.1
			c1.1-1.2,2.3-2.1,3.6-2.7c1.3-0.6,2.5-0.6,3.7,0c1.3,0.6,2.2,1.5,2.7,2.8c0.5,1.3,0.7,2.7,0.6,4.2
			C618.4,953.5,618,955,617.3,956.4z M603.6,953c0.5-1.1,0.7-2.2,0.5-3.4c-0.2-1.2-0.7-2.3-1.5-3.4c-0.8-1-1.9-1.9-3.1-2.5
			c-0.6-0.3-1.2-0.5-1.8-0.5c-0.5,0-1,0-1.4,0.3c-0.4,0.2-0.7,0.6-0.9,1.1c-0.4,0.9-0.5,2-0.2,3.4c0.3,1.3,1,2.7,2.1,4.1
			c1.1,1.4,2.7,2.6,4.6,3.6c0.2-0.2,0.5-0.7,0.9-1.3C603.2,953.9,603.4,953.4,603.6,953z M616.9,952.7c0.7-1.5,0.9-2.9,0.6-4.2
			c-0.3-1.4-1.1-2.3-2.4-3c-1.4-0.7-2.9-0.4-4.5,0.7c-1.6,1.1-3,2.6-4.3,4.4s-2.4,3.4-3.3,5c-0.1,0.1-0.1,0.2-0.1,0.3
			c0,0.1-0.1,0.1-0.2,0.2c2.1,1,4.1,1.5,6,1.5c1.9,0,3.6-0.5,5-1.4C615.1,955.3,616.2,954.1,616.9,952.7z"/>
		<path class="st25" d="M621.9,945l-21.7-10.4l3.9-8.2l3.8,1.8l0-0.1c-1.1-1.5-1.8-3.1-1.9-4.9c-0.2-1.8,0.1-3.5,0.8-5
			c0.6-1.3,1.5-2.4,2.6-3.3c1.1-0.8,2.4-1.3,3.9-1.5c1.5-0.1,3,0.2,4.7,1l14.7,7l-3.9,8.2l-15.5-7.4c-1.3-0.6-2.5-0.9-3.6-0.7
			c-1,0.2-1.8,0.7-2.2,1.6c-0.2,0.5-0.3,1.1-0.2,1.9c0.1,0.7,0.4,1.5,0.9,2.2c0.5,0.8,1.2,1.4,2.1,2l15.4,7.3L621.9,945z"/>
		<path class="st25" d="M644.2,897.7L634,918.8l-14.6-22l-0.8,1.6c-0.8,1.6-1.1,3.6-1.1,5.9c0,2.4,0.3,4.5,0.9,6.4l-5.6-2.7
			l9.8-20.4l14.9,21.8l1.3-2.8c0.7-1.4,0.9-3.2,0.8-5.4c-0.1-2.2-0.6-4.4-1.5-6.6L644.2,897.7z"/>
		<path class="st25" d="M650.1,887.7c-0.9,1.9-2.1,3.3-3.6,4.2c-1.5,1-3.1,1.4-4.8,1.5c-1.7,0-3.3-0.3-4.8-1
			c-1.3-0.6-2.4-1.5-3.3-2.6c-0.8-1.1-1.3-2.3-1.4-3.7c-0.1-1.4,0.2-2.8,0.9-4.3c0.4-0.8,0.9-1.5,1.5-2.2c0.6-0.7,1.4-1.2,2.2-1.6
			l0-0.1c-0.3,0.1-0.6,0.2-0.9,0.3c-0.3,0.1-0.6,0.2-0.9,0.3c-1.2,0.3-2.2,0.5-3,0.5c-0.8,0.1-1.5-0.1-2.2-0.4
			c-1-0.5-1.6-1.3-1.7-2.3c-0.1-1.1,0.1-2.3,0.7-3.6c0.8-1.8,2.2-3.3,4-4.7c1.8-1.4,4-2.2,6.5-2.6c2.5-0.3,5.1,0.2,7.9,1.5l9.7,4.6
			l-3.9,8.2l-10.7-5.1c-2.4-1.1-4.5-1.8-6.3-1.9c-1.8-0.1-3.3,0.1-4.4,0.6c-1.1,0.5-1.9,1.2-2.3,2.1c-0.3,0.6-0.3,1.1-0.1,1.5
			c0.2,0.4,0.5,0.8,1,1c0.6,0.3,1.3,0.4,2.1,0.4c0.8,0,1.8-0.2,3.1-0.6c0.5-0.1,1-0.2,1.5-0.4c0.5-0.1,1-0.3,1.5-0.3
			c0.1-0.1,0.1-0.1,0.1-0.1c0,0,0.1,0,0.1,0c0.9-0.2,1.7-0.3,2.6-0.4c0.9,0,1.8,0,2.8,0.2c1,0.2,2,0.6,3.1,1.1
			c1.1,0.5,2,1.2,2.7,2.2c0.8,1,1.2,2.1,1.3,3.4C651.2,884.8,650.9,886.2,650.1,887.7z M649.4,883.1c0.4-0.8,0.3-1.7-0.2-2.5
			c-0.6-0.9-1.5-1.6-2.8-2.2c-1.3-0.6-2.6-1-4-1.1c-1.4-0.2-2.7-0.1-3.9,0.3c-1.2,0.4-2,1-2.4,1.9c-0.2,0.5-0.3,1-0.1,1.5
			c0.2,0.5,0.5,1,1,1.5c0.5,0.5,1.2,0.9,2.1,1.4c1.4,0.7,2.8,1.1,4.3,1.2c1.5,0.1,2.8,0,3.9-0.3
			C648.4,884.3,649.1,883.8,649.4,883.1z"/>
		<path class="st25" d="M635.2,1016.6c-0.6,1.2-1.3,2.4-2,3.5c-0.7,1.1-1.4,1.9-2.1,2.6l-5.3-3.9c1-0.4,2-0.9,3.1-1.5
			c1.7-0.9,3.2-1.8,4.5-2.7c1.3-0.9,2.1-1.6,2.4-2.3c0.3-0.8,0.4-1.4,0.3-2c-0.1-0.6-0.4-1-1.1-1.3c-0.6-0.3-1.5-0.4-2.5-0.1
			c-1,0.2-2.2,0.6-3.4,1.1c-1.2,0.5-2.7,1.3-4.5,2.2l-0.2,0.1c-0.1,0.1-0.1,0.1-0.2,0.1c-0.1,0-0.2,0.1-0.2,0.1
			c-2.4,1.3-4.3,2.1-5.7,2.5s-2.5,0.4-3.6-0.1c-1.9-0.9-2.8-2.6-2.8-5.3c0-2.7,0.8-5.6,2.3-8.6c0.5-1.1,1.2-2.2,1.9-3.3
			c0.7-1.1,1.4-2,2.2-2.8l5.4,3.8c-1.2,0.3-2.5,0.8-3.9,1.4c-1.4,0.7-2.7,1.4-3.9,2.3c-1.1,0.9-1.9,1.6-2.2,2.3
			c-0.3,0.6-0.4,1.1-0.4,1.6c0,0.5,0.3,0.9,0.7,1.1c0.5,0.3,1.5,0.1,2.8-0.4c1.3-0.5,3.1-1.4,5.4-2.6l0.9-0.5l0.3-0.1
			c1.7-1,3.1-1.7,4.2-2.2c1.1-0.5,2.2-0.8,3.2-0.9c1.1-0.1,2.1,0,2.9,0.4c1.6,0.8,2.7,2,3.2,3.7c0.5,1.7,0.6,3.6,0.2,5.7
			C636.8,1012.5,636.2,1014.6,635.2,1016.6z"/>
		<path class="st25" d="M647.2,991.8c-1.4,2.9-3.2,5-5.2,6.2c-2.1,1.2-4.3,1.3-6.7,0.1l-14.2-6.8l-1.2,2.5l-0.9-0.4l0.6-1.3
			c0.7-1.5,0.9-3.1,0.5-4.9c-0.4-1.8-1.2-3.4-2.4-5c-1.2-1.6-2.8-2.8-4.7-3.7l0.4-0.9l10.7,5.1l3.1-6.4l0.9,0.4l-3.1,6.4l16.9,8.1
			c1.1,0.5,2.1,0.8,2.8,0.7c0.7-0.1,1.2-0.4,1.5-1c0.3-0.7,0.3-1.7-0.1-3c-0.4-1.3-1.1-2.8-2.2-4.4l5.7,1.1
			C649,987.3,648.3,989.7,647.2,991.8z"/>
		<path class="st25" d="M654.9,976c-0.9,1.9-2.1,3.3-3.6,4.2c-1.5,0.9-3.1,1.4-4.8,1.5c-1.7,0-3.3-0.3-4.8-1
			c-1.3-0.6-2.4-1.5-3.3-2.6c-0.8-1.1-1.3-2.3-1.4-3.7c-0.1-1.4,0.2-2.8,0.9-4.3c0.4-0.8,0.9-1.5,1.5-2.2c0.6-0.7,1.4-1.2,2.2-1.6
			l0-0.1c-0.3,0.1-0.6,0.2-0.9,0.3c-0.3,0.1-0.6,0.2-0.9,0.3c-1.2,0.3-2.2,0.5-3,0.5c-0.8,0.1-1.5-0.1-2.2-0.4
			c-1-0.5-1.6-1.3-1.7-2.3c-0.1-1.1,0.1-2.3,0.7-3.6c0.8-1.8,2.2-3.3,4-4.7c1.8-1.4,4-2.2,6.5-2.6c2.5-0.3,5.1,0.2,7.9,1.5l9.7,4.6
			l-3.9,8.2l-10.7-5.1c-2.4-1.1-4.5-1.8-6.3-1.9c-1.8-0.1-3.3,0.1-4.4,0.6c-1.1,0.5-1.9,1.2-2.3,2.1c-0.3,0.6-0.3,1.1-0.1,1.5
			c0.2,0.4,0.5,0.8,1,1c0.6,0.3,1.3,0.4,2.1,0.4c0.8,0,1.8-0.2,3.1-0.6c0.5-0.1,1-0.2,1.5-0.4c0.5-0.1,1-0.2,1.5-0.3
			c0.1-0.1,0.1-0.1,0.1-0.1c0,0,0.1,0,0.1,0c0.9-0.2,1.7-0.3,2.6-0.4c0.9,0,1.8,0,2.8,0.2c1,0.2,2,0.6,3.1,1.1
			c1.1,0.5,2,1.2,2.7,2.2c0.8,1,1.2,2.1,1.3,3.4C655.9,973.1,655.6,974.5,654.9,976z M654.2,971.4c0.4-0.8,0.3-1.7-0.2-2.5
			c-0.6-0.9-1.5-1.6-2.8-2.2c-1.3-0.6-2.6-1-4-1.1c-1.4-0.2-2.7-0.1-3.9,0.3c-1.2,0.4-2,1-2.4,1.9c-0.2,0.5-0.3,1-0.1,1.5
			c0.2,0.5,0.5,1,1,1.5c0.5,0.5,1.2,0.9,2.1,1.4c1.4,0.7,2.8,1.1,4.3,1.2c1.5,0.1,2.8,0,3.9-0.3
			C653.1,972.6,653.8,972.1,654.2,971.4z"/>
		<path class="st25" d="M675.8,955.6c-0.9,1.9-2,3.7-3.3,5.4l-6.8-3.3c2.7-1,4.9-2.1,6.8-3.4c1.9-1.2,3.1-2.5,3.7-3.8
			c0.7-1.4,0.6-2.7-0.1-4c-0.7-1.3-2.2-2.5-4.5-3.6l-4-1.9c0.6,1.3,0.9,2.7,0.9,4.2c-0.1,1.5-0.4,2.9-1,4.2
			c-0.7,1.5-1.8,2.8-3.2,3.7c-1.4,0.9-3.1,1.5-5,1.5s-4.1-0.4-6.4-1.5c-4.4-2.1-7-4.9-7.9-8.3c-0.9-3.4-0.4-7.1,1.5-11.1
			c1.8-3.8,4.2-7,7.1-9.6l16.6,7.9c3.3,1.6,5.6,3.5,7,5.9c1.4,2.4,1.9,5.1,1.6,8C678.4,949.1,677.4,952.2,675.8,955.6z M667.1,944.2
			c0.3-0.6,0.3-1.3-0.1-2c-0.3-0.8-1-1.5-2-2.3l-14.8-7.1c-0.7,0-1.4,0.2-1.9,0.5c-0.6,0.3-1,0.7-1.2,1.3c-0.4,0.8-0.4,1.8,0,2.8
			c0.4,1.1,1.2,2.2,2.5,3.3c1.3,1.2,3,2.3,5.3,3.3c1.9,0.9,3.8,1.5,5.5,1.8c1.7,0.3,3.2,0.2,4.4-0.1
			C665.9,945.5,666.7,944.9,667.1,944.2z"/>
		<path class="st25" d="M682.1,919.2c-1.4,2.9-3.1,5.1-5.1,6.6c-2,1.5-4.1,2.3-6.4,2.5c-2.2,0.2-4.5-0.3-6.9-1.4
			c-2.2-1-3.9-2.5-5.2-4.3c-1.3-1.8-2-3.9-2-6.3c-0.1-2.4,0.5-4.9,1.8-7.7c1-2.1,2.1-3.7,3.2-5c1.1-1.3,2.3-2.1,3.5-2.4
			c1.2-0.3,2.4-0.2,3.5,0.3c1.2,0.6,2,1.6,2.4,3c0.4,1.4,0.5,3,0.2,4.7c-0.3,1.7-0.8,3.5-1.6,5.1l0.1,0c0.9-1.5,2-2.9,3.1-4.1
			c1.1-1.2,2.3-2.1,3.6-2.7c1.3-0.6,2.5-0.6,3.7,0c1.3,0.6,2.2,1.5,2.7,2.8c0.5,1.3,0.7,2.7,0.6,4.2
			C683.2,916.3,682.8,917.8,682.1,919.2z M668.4,915.8c0.5-1.1,0.7-2.2,0.5-3.4c-0.2-1.2-0.7-2.3-1.5-3.4c-0.8-1-1.9-1.9-3.1-2.5
			c-0.6-0.3-1.2-0.5-1.8-0.5c-0.5,0-1,0-1.4,0.3c-0.4,0.2-0.7,0.6-0.9,1.1c-0.4,0.9-0.5,2-0.2,3.4c0.3,1.3,1,2.7,2.1,4.1
			c1.1,1.4,2.7,2.6,4.6,3.6c0.2-0.2,0.5-0.7,0.9-1.3C667.9,916.7,668.2,916.2,668.4,915.8z M681.6,915.5c0.7-1.5,0.9-2.9,0.6-4.2
			c-0.3-1.4-1.1-2.3-2.4-3c-1.4-0.7-2.9-0.4-4.5,0.7c-1.6,1.1-3,2.6-4.3,4.4c-1.3,1.8-2.4,3.4-3.3,5c-0.1,0.1-0.1,0.2-0.1,0.3
			c0,0.1-0.1,0.1-0.2,0.2c2.1,1,4.1,1.5,6,1.5c1.9,0,3.6-0.5,5-1.4C679.9,918.1,680.9,916.9,681.6,915.5z"/>
	</g>
	<g>
		<g>
			<path class="st18" d="M783.2,737l-6-1.3c1.4-6.7,3.6-11.2,5.2-14.5c2.5-5.3,3.1-6.4-0.8-10.4c-3.4-3.6-7.9-4.9-12.2-6.1
				c-4.9-1.4-10-2.8-12.3-7.7c-2.3-4.8-1.4-11.7,3-22.6l5.7,2.3c-3.5,8.7-4.6,14.6-3.2,17.6c1.1,2.2,3.9,3.2,8.5,4.4
				c4.7,1.3,10.5,3,15,7.8c6.7,7.1,4.6,11.6,1.8,17.3C786.4,727,784.5,731,783.2,737z"/>
		</g>
		<g>
			<g>
				<polygon class="st18" points="778.7,753.8 771.1,728.3 780.6,735.1 791.2,730.3 				"/>
			</g>
		</g>
	</g>
	<g>
		<g>
			<path class="st25" d="M1310.1,171.9c-1.7,0-3.4-0.1-5-0.4c-1.6-0.3-3.2-0.7-4.6-1.2l1-7.2c2.1,1.7,4.6,3,7.5,4
				c2.8,1,5.4,1.5,7.7,1.5c2.1,0,3.8-0.4,5-1.3c1.3-0.8,1.9-2,1.9-3.6c0-1.2-0.5-2.4-1.4-3.6c-0.9-1.2-2.1-2.2-3.5-3.2
				c-1.4-1-3.4-2.2-5.9-3.6c0,0-0.1-0.1-0.1-0.1c0,0-0.1-0.1-0.3-0.1c-0.2-0.2-0.4-0.3-0.6-0.4c-0.2-0.1-0.4-0.2-0.7-0.3
				c-2.4-1.4-4.4-2.7-6-3.9c-1.6-1.2-2.9-2.4-4-3.8c-1.1-1.4-1.6-2.8-1.6-4.3c0-3.3,1.9-5.8,5.6-7.4c3.7-1.6,8.3-2.5,13.7-2.5
				c1.8,0,3.6,0.1,5.3,0.2c1.7,0.1,3.3,0.4,4.8,0.7l-0.9,7.2c-1.7-1.2-3.5-2.3-5.5-3.2c-1.9-0.9-3.8-1.7-5.7-2.2
				c-1.8-0.5-3.5-0.8-4.9-0.8c-1.6,0-2.9,0.3-3.9,0.8c-1,0.5-1.5,1.3-1.5,2.3c0,0.7,0.4,1.5,1.2,2.3c0.8,0.8,1.9,1.6,3.2,2.4
				c1.3,0.8,2.9,1.7,4.9,2.8c0.3,0.2,0.6,0.3,0.8,0.5c0.3,0.2,0.5,0.3,0.8,0.4c0.1,0,0.2,0.1,0.2,0.1s0.1,0.1,0.2,0.1
				c2.5,1.4,4.6,2.6,6.2,3.7c1.6,1.1,3,2.5,4.2,4.1c1.1,1.7,1.7,3.6,1.7,5.8c0,3-0.9,5.5-2.8,7.7c-1.9,2.2-4.3,3.8-7.4,4.9
				S1313.5,171.9,1310.1,171.9z M1309,128.2l-5.1-4.2l10.8-5.4l10.9,5.4l-4.6,4.2l-6.3-8.8L1309,128.2z"/>
			<path class="st25" d="M1342.9,171.9c-2.3,0-4.3-0.5-6-1.6c-1.7-1.1-2.9-2.4-3.8-4.1c-0.8-1.7-1.3-3.4-1.3-5.3
				c0-1.6,0.3-3.1,1-4.5c0.7-1.4,1.7-2.4,3-3.2c1.3-0.8,2.9-1.2,4.7-1.2c1,0,1.9,0.2,2.9,0.5c1,0.3,1.8,0.8,2.6,1.4l0.1-0.1
				c-0.3-0.3-0.5-0.5-0.8-0.8c-0.2-0.3-0.4-0.5-0.7-0.8c-0.9-1.1-1.5-2-1.9-2.7c-0.4-0.7-0.6-1.5-0.6-2.3c0-1.3,0.5-2.2,1.5-2.9
				c1-0.6,2.3-1,3.9-1c2.2,0,4.4,0.6,6.6,1.7c2.2,1.1,4.1,2.9,5.6,5.2c1.5,2.3,2.3,5.2,2.3,8.6v11.8h-10.1v-13.1
				c0-2.9-0.4-5.3-1.1-7.2c-0.7-1.9-1.6-3.2-2.7-4.1c-1-0.9-2.1-1.3-3.2-1.3c-0.7,0-1.2,0.2-1.6,0.6c-0.4,0.4-0.5,0.9-0.5,1.5
				c0,0.8,0.2,1.5,0.6,2.3c0.4,0.8,1.1,1.7,2.1,2.9c0.3,0.4,0.7,0.8,1.1,1.3c0.4,0.4,0.7,0.9,1.1,1.3c0.1,0,0.1,0.1,0.1,0.1
				c0,0,0,0.1,0.1,0.1c0.6,0.8,1.2,1.6,1.6,2.4c0.5,0.9,0.8,1.8,1.1,2.9c0.3,1.1,0.4,2.3,0.4,3.6c0,1.3-0.3,2.5-0.9,3.8
				c-0.6,1.2-1.5,2.2-2.8,2.9C1346.3,171.6,1344.7,171.9,1342.9,171.9z M1347.1,169.1c1,0,1.8-0.5,2.4-1.4c0.6-1,0.9-2.2,0.9-3.8
				c0-1.5-0.3-3.1-0.8-4.6c-0.5-1.5-1.2-2.7-2.2-3.7c-0.9-1-1.9-1.5-3.1-1.5c-0.6,0-1.1,0.2-1.5,0.6c-0.4,0.4-0.7,1-1,1.7
				c-0.2,0.7-0.3,1.7-0.3,2.8c0,1.7,0.3,3.3,0.8,4.9c0.6,1.5,1.3,2.8,2.2,3.7C1345.4,168.6,1346.3,169.1,1347.1,169.1z"/>
			<path class="st25" d="M1365.1,171.1v-26.6h10v4.7h0.1c0.9-1.8,2.2-3.2,3.9-4.3c1.7-1,3.5-1.6,5.3-1.6c1.6,0,3.1,0.4,4.5,1.1
				c1.4,0.7,2.5,1.8,3.3,3.2c0.8,1.4,1.3,3.1,1.3,5.1v18h-10v-18.9c0-1.6-0.3-2.9-1-3.9c-0.7-0.9-1.6-1.4-2.6-1.4
				c-0.6,0-1.3,0.2-2,0.7c-0.7,0.5-1.3,1.1-1.8,1.9c-0.5,0.8-0.9,1.8-1,3v18.8H1365.1z"/>
			<path class="st25" d="M1396.8,170.8v-39.5h10v25.3h0.1c1.1-2.1,2.7-4.2,4.7-6.3c2-2,4.1-3.7,6.2-5c2.2-1.3,4.2-1.9,6.1-1.9v6.3
				c-2.4-0.4-4.8-0.3-7.2,0.5c-1.3,0.4-2.6,1-3.9,1.7c-1.2,0.7-2.3,1.5-3.1,2.3l-0.1,0.2c1.5-0.8,2.8-1.1,4-1.1
				c1.4,0,2.6,0.6,3.8,1.7c1.1,1.1,2.1,2.5,2.8,4c0.8,1.5,1.7,3.5,2.7,5.9c0.5,1.1,0.9,2.2,1.3,3.2c0.4,1,0.9,1.9,1.3,2.5h-10
				c-0.3-0.5-0.5-1.2-0.8-2.3c-0.3-1-0.5-2.4-0.8-4c-0.4-1.6-0.8-3.2-1.1-4.6c-0.4-1.4-0.8-2.6-1.3-3.5c-0.5-0.9-1-1.4-1.5-1.4
				c-0.5,0-1,0.2-1.4,0.6c-0.4,0.4-0.8,0.8-1.1,1.4c-0.3,0.6-0.6,1.2-0.7,1.8l-0.1,0.1v0.1v11.8H1396.8z"/>
		</g>
		<g>
			<path class="st25" d="M1300.3,233.2v-39.5h10v18.6h12.6v-18.6h10v39.5h-10v-19.7h-12.6v19.7H1300.3z"/>
			<path class="st25" d="M1336.1,233.2v-26.3h10V217h0.1c0.7-1.9,1.6-3.7,2.7-5.2c1.1-1.6,2.3-2.8,3.6-3.8c1.3-1,2.7-1.5,4.3-1.6
				l0.6,6.5c-1.8,0-3.5,0.2-5.1,0.6c-1.6,0.4-3,1.3-4.2,2.5c-1.2,1.3-1.8,3-1.8,5.1v12H1336.1z"/>
			<path class="st25" d="M1364.1,234.3c-2.3,0-4.3-0.5-6-1.6c-1.7-1.1-2.9-2.4-3.8-4.1c-0.8-1.7-1.3-3.4-1.3-5.3
				c0-1.6,0.3-3.1,1-4.5c0.7-1.4,1.7-2.4,3-3.2c1.3-0.8,2.9-1.2,4.7-1.2c1,0,1.9,0.2,2.9,0.5c1,0.3,1.8,0.8,2.6,1.4l0.1-0.1
				c-0.3-0.3-0.5-0.5-0.8-0.8c-0.2-0.3-0.4-0.5-0.7-0.8c-0.9-1.1-1.5-2-1.9-2.7c-0.4-0.7-0.6-1.5-0.6-2.3c0-1.3,0.5-2.2,1.5-2.9
				c1-0.6,2.3-1,3.9-1c2.2,0,4.4,0.6,6.6,1.7c2.2,1.1,4.1,2.9,5.6,5.2c1.5,2.3,2.3,5.2,2.3,8.6v11.8h-10.1v-13.1
				c0-2.9-0.4-5.3-1.1-7.2c-0.7-1.9-1.6-3.2-2.7-4.1c-1-0.9-2.1-1.3-3.2-1.3c-0.7,0-1.2,0.2-1.6,0.6c-0.4,0.4-0.5,0.9-0.5,1.5
				c0,0.8,0.2,1.5,0.6,2.3c0.4,0.8,1.1,1.7,2.1,2.9c0.3,0.4,0.7,0.8,1.1,1.3c0.4,0.4,0.7,0.9,1.1,1.3c0.1,0,0.1,0.1,0.1,0.1
				c0,0,0,0.1,0.1,0.1c0.6,0.8,1.2,1.6,1.6,2.4c0.5,0.9,0.8,1.8,1.1,2.9c0.3,1.1,0.4,2.3,0.4,3.6c0,1.3-0.3,2.5-0.9,3.8
				c-0.6,1.2-1.5,2.2-2.8,2.9C1367.5,233.9,1366,234.3,1364.1,234.3z M1368.3,231.4c1,0,1.8-0.5,2.4-1.4c0.6-1,0.9-2.2,0.9-3.8
				c0-1.5-0.3-3.1-0.8-4.6c-0.5-1.5-1.2-2.7-2.2-3.7c-0.9-1-1.9-1.5-3.1-1.5c-0.6,0-1.1,0.2-1.5,0.6c-0.4,0.4-0.7,1-1,1.7
				c-0.2,0.7-0.3,1.7-0.3,2.8c0,1.7,0.3,3.3,0.8,4.9c0.6,1.5,1.3,2.8,2.2,3.7C1366.6,231,1367.5,231.4,1368.3,231.4z"/>
			<path class="st25" d="M1386.4,233.4v-26.6h10v4.7h0.1c0.9-1.8,2.2-3.2,3.9-4.3c1.7-1,3.5-1.6,5.3-1.6c1.6,0,3.1,0.4,4.5,1.1
				c1.4,0.7,2.5,1.8,3.3,3.2c0.8,1.4,1.3,3.1,1.3,5.1v18h-10v-18.9c0-1.6-0.3-2.9-1-3.9c-0.7-0.9-1.6-1.4-2.6-1.4
				c-0.6,0-1.3,0.2-2,0.7c-0.7,0.5-1.3,1.1-1.8,1.9c-0.5,0.8-0.9,1.8-1,3v18.8H1386.4z"/>
			<path class="st25" d="M1428.6,234.3c-2.3,0-4.3-0.5-6-1.6c-1.7-1.1-2.9-2.4-3.8-4.1c-0.8-1.7-1.3-3.4-1.3-5.3
				c0-1.6,0.3-3.1,1-4.5c0.7-1.4,1.7-2.4,3-3.2c1.3-0.8,2.9-1.2,4.7-1.2c1,0,1.9,0.2,2.9,0.5c1,0.3,1.8,0.8,2.6,1.4l0.1-0.1
				c-0.3-0.3-0.5-0.5-0.8-0.8c-0.2-0.3-0.4-0.5-0.7-0.8c-0.9-1.1-1.5-2-1.9-2.7c-0.4-0.7-0.6-1.5-0.6-2.3c0-1.3,0.5-2.2,1.5-2.9
				c1-0.6,2.3-1,3.9-1c2.2,0,4.4,0.6,6.6,1.7c2.2,1.1,4.1,2.9,5.6,5.2c1.5,2.3,2.3,5.2,2.3,8.6v11.8h-10.1v-13.1
				c0-2.9-0.4-5.3-1.1-7.2c-0.7-1.9-1.6-3.2-2.7-4.1c-1-0.9-2.1-1.3-3.2-1.3c-0.7,0-1.2,0.2-1.6,0.6c-0.4,0.4-0.5,0.9-0.5,1.5
				c0,0.8,0.2,1.5,0.6,2.3c0.4,0.8,1.1,1.7,2.1,2.9c0.3,0.4,0.7,0.8,1.1,1.3c0.4,0.4,0.7,0.9,1.1,1.3c0.1,0,0.1,0.1,0.1,0.1
				c0,0,0,0.1,0.1,0.1c0.6,0.8,1.2,1.6,1.6,2.4c0.5,0.9,0.8,1.8,1.1,2.9c0.3,1.1,0.4,2.3,0.4,3.6c0,1.3-0.3,2.5-0.9,3.8
				c-0.6,1.2-1.5,2.2-2.8,2.9C1432,233.9,1430.5,234.3,1428.6,234.3z M1432.8,231.4c1,0,1.8-0.5,2.4-1.4c0.6-1,0.9-2.2,0.9-3.8
				c0-1.5-0.3-3.1-0.8-4.6c-0.5-1.5-1.2-2.7-2.2-3.7c-0.9-1-1.9-1.5-3.1-1.5c-0.6,0-1.1,0.2-1.5,0.6c-0.4,0.4-0.7,1-1,1.7
				c-0.2,0.7-0.3,1.7-0.3,2.8c0,1.7,0.3,3.3,0.8,4.9c0.6,1.5,1.3,2.8,2.2,3.7C1431.1,231,1432,231.4,1432.8,231.4z"/>
		</g>
		<g>
			<path class="st25" d="M1322.1,358.8c-4,0-7.7-0.9-11.1-2.7c-3.4-1.8-6.1-4.3-8.1-7.5c-2-3.2-3-6.9-3-11c0-5,1.2-9,3.5-12
				c2.3-3,5.3-5.2,8.8-6.5c3.5-1.3,7.4-2,11.6-2c2.1,0,3.9,0.1,5.4,0.3c1.4,0.2,2.8,0.4,4,0.8l0.5,7.8c-2.5-2.5-4.9-4.3-7.2-5.5
				c-2.3-1.2-4.4-1.8-6.4-1.8c-2,0-3.9,0.6-5.4,1.9c-1.6,1.3-2.8,3.2-3.6,5.7c-0.8,2.5-1.2,5.6-1.1,9.2c0.1,3.2,0.6,6.3,1.6,9.5
				c1,3.2,2.4,5.8,4.3,8c1.9,2.2,4.1,3.4,6.6,3.8c0.8,0.1,1.6,0.1,2.4-0.1v-23.9h10v22.5c-2,1.1-4.1,2-6.3,2.6
				C1326.5,358.5,1324.3,358.8,1322.1,358.8z"/>
			<path class="st25" d="M1348.8,359.1c-2.3,0-4.3-0.5-6-1.6c-1.7-1.1-2.9-2.4-3.8-4.1c-0.8-1.7-1.3-3.4-1.3-5.3
				c0-1.6,0.3-3.1,1-4.5c0.7-1.4,1.7-2.4,3-3.2c1.3-0.8,2.9-1.2,4.7-1.2c1,0,1.9,0.2,2.9,0.5c1,0.3,1.8,0.8,2.6,1.4l0.1-0.1
				c-0.3-0.3-0.5-0.5-0.8-0.8c-0.2-0.3-0.4-0.5-0.7-0.8c-0.9-1.1-1.5-2-1.9-2.7c-0.4-0.7-0.6-1.5-0.6-2.3c0-1.3,0.5-2.2,1.5-2.9
				c1-0.6,2.3-1,3.9-1c2.2,0,4.4,0.6,6.6,1.7c2.2,1.1,4.1,2.9,5.6,5.2c1.5,2.3,2.3,5.2,2.3,8.6v11.8H1358v-13.1
				c0-2.9-0.4-5.3-1.1-7.2c-0.7-1.9-1.6-3.2-2.7-4.1c-1-0.9-2.1-1.3-3.2-1.3c-0.7,0-1.2,0.2-1.6,0.6c-0.4,0.4-0.5,0.9-0.5,1.5
				c0,0.8,0.2,1.5,0.6,2.3c0.4,0.8,1.1,1.7,2.1,2.9c0.3,0.4,0.7,0.8,1.1,1.3c0.4,0.4,0.7,0.9,1.1,1.3c0.1,0,0.1,0.1,0.1,0.1
				c0,0,0,0.1,0.1,0.1c0.6,0.8,1.2,1.6,1.6,2.4c0.5,0.9,0.8,1.8,1.1,2.9c0.3,1.1,0.4,2.3,0.4,3.6c0,1.3-0.3,2.5-0.9,3.8
				c-0.6,1.2-1.5,2.2-2.8,2.9C1352.2,358.7,1350.6,359.1,1348.8,359.1z M1353,356.2c1,0,1.8-0.5,2.4-1.4c0.6-1,0.9-2.2,0.9-3.8
				c0-1.5-0.3-3.1-0.8-4.6c-0.5-1.5-1.2-2.7-2.2-3.7c-0.9-1-1.9-1.5-3.1-1.5c-0.6,0-1.1,0.2-1.5,0.6c-0.4,0.4-0.7,1-1,1.7
				c-0.2,0.7-0.3,1.7-0.3,2.8c0,1.7,0.3,3.3,0.8,4.9c0.6,1.5,1.3,2.8,2.2,3.7C1351.3,355.7,1352.2,356.2,1353,356.2z"/>
			<path class="st25" d="M1371,357.9v-26.3h10v10.1h0.1c0.7-1.9,1.6-3.7,2.7-5.2c1.1-1.6,2.3-2.8,3.6-3.8c1.3-1,2.7-1.5,4.3-1.6
				l0.6,6.5c-1.8,0-3.5,0.2-5.1,0.6c-1.6,0.4-3,1.3-4.2,2.5c-1.2,1.3-1.8,3-1.8,5.1v12H1371z"/>
			<path class="st25" d="M1409.2,359.1c-3.1,0-5.9-0.5-8.3-1.6c-2.5-1.1-4.4-2.8-5.9-5.1c-1.5-2.3-2.3-5.3-2.3-8.8
				c0-2.8,0.5-5.2,1.6-7.1c1.1-1.9,2.4-3.4,4.1-4.3c1.7-1,3.5-1.4,5.5-1.4c1.5,0,3,0.3,4.4,0.8c1.4,0.5,2.7,1.3,3.7,2.2v-15.2h10.1
				v37.8c-2.2,0.9-4.3,1.6-6.5,2.1C1413.3,358.8,1411.2,359.1,1409.2,359.1z M1409.9,357.6c0.4,0,0.7,0,1.1-0.1
				c0.3-0.1,0.7-0.2,1-0.3v-21.6c-1.1-1.1-2.3-1.6-3.4-1.6c-1.2,0-2.2,0.4-3.1,1.3c-0.9,0.9-1.5,2.1-1.9,3.6c-0.4,1.5-0.7,3.2-0.7,5
				c0,2.3,0.3,4.6,0.9,6.6c0.6,2.1,1.5,3.8,2.5,5.1C1407.3,356.8,1408.5,357.5,1409.9,357.6z"/>
			<path class="st25" d="M1441.2,359.1c-3.5,0-6.5-0.6-9-1.9c-2.4-1.3-4.3-3-5.5-5.1c-1.3-2.1-1.9-4.6-1.9-7.5
				c0-2.7,0.6-5.1,1.8-7.2c1.2-2.1,3-3.8,5.3-5c2.3-1.2,5.2-1.8,8.5-1.8c2.5,0,4.7,0.3,6.5,0.8c1.8,0.5,3.2,1.3,4.1,2.3
				c0.9,1,1.4,2.2,1.4,3.7c0,1.5-0.7,2.8-1.9,3.9c-1.2,1.1-2.8,1.9-4.6,2.4c-1.9,0.5-3.8,0.8-5.9,0.8v0.1c2,0.2,3.8,0.6,5.6,1.1
				c1.8,0.5,3.2,1.3,4.4,2.3c1.2,1,1.8,2.2,1.8,3.7c0,1.5-0.5,2.9-1.5,4c-1,1.1-2.3,2-3.9,2.6
				C1444.6,358.8,1442.9,359.1,1441.2,359.1z M1444.6,356.9c1.8,0,3.3-0.5,4.5-1.4c1.2-0.9,1.8-2.2,1.8-3.8c0-1.7-0.9-3.1-2.8-4.1
				c-1.9-1-4-1.8-6.4-2.2c-2.4-0.4-4.6-0.7-6.5-0.9c-0.2,0-0.3,0-0.4,0c-0.1,0-0.2,0-0.3-0.1c0,2.6,0.4,4.8,1.4,6.7
				c1,1.9,2.2,3.3,3.8,4.3C1441.2,356.4,1442.9,356.9,1444.6,356.9z M1438,343.8c1.3,0,2.5-0.4,3.6-1.2c1.1-0.8,2-1.8,2.6-3.1
				c0.6-1.3,1-2.7,1-4.3c0-0.8-0.1-1.5-0.3-2c-0.2-0.5-0.5-0.9-0.9-1.2c-0.4-0.3-0.9-0.4-1.5-0.4c-1.1,0-2.2,0.5-3.4,1.4
				c-1.2,0.9-2.2,2.3-3.1,4.1c-0.8,1.8-1.3,3.9-1.4,6.3c0.3,0.1,0.9,0.2,1.7,0.3C1436.9,343.8,1437.5,343.8,1438,343.8z"/>
			<path class="st25" d="M1454.7,357.9v-26.3h10v10.1h0.1c0.7-1.9,1.6-3.7,2.7-5.2c1.1-1.6,2.3-2.8,3.6-3.8c1.3-1,2.7-1.5,4.3-1.6
				l0.6,6.5c-1.8,0-3.5,0.2-5.1,0.6c-1.6,0.4-3,1.3-4.2,2.5c-1.2,1.3-1.8,3-1.8,5.1v12H1454.7z"/>
			<path class="st25" d="M1492,358.9c-2.8,0-5.3-0.6-7.7-1.8c-2.4-1.2-4.3-2.9-5.8-5.1c-1.5-2.2-2.2-4.8-2.2-7.8
				c0-2.9,0.8-5.4,2.3-7.5c1.5-2.1,3.4-3.7,5.8-4.7c2.4-1.1,4.9-1.6,7.6-1.6c2.7,0,5.2,0.5,7.6,1.6c2.4,1.1,4.3,2.7,5.8,4.8
				c1.5,2.1,2.2,4.7,2.2,7.6c0,3.1-0.7,5.7-2.2,7.9c-1.4,2.2-3.4,3.8-5.7,4.9C1497.3,358.4,1494.7,358.9,1492,358.9z M1494.1,357.8
				c1.2,0,2.1-0.6,2.7-1.8c0.6-1.2,1-2.7,1.1-4.6c0.1-1.9,0-4-0.3-6.4c-0.3-2.5-0.8-4.7-1.5-6.7c-0.7-2-1.6-3.7-2.7-4.9
				c-1.1-1.2-2.2-1.8-3.5-1.8c-1.2,0-2.1,0.6-2.7,1.8c-0.6,1.2-1,2.8-1.2,4.8c-0.1,2,0,4.1,0.3,6.5c0.3,2.3,0.8,4.5,1.5,6.5
				c0.7,2,1.6,3.6,2.7,4.8C1491.6,357.2,1492.8,357.8,1494.1,357.8z"/>
			<path class="st25" d="M1522.4,358.8c-2.1,0-4.3-0.2-6.5-0.7c-2.2-0.5-4.2-1.2-6.2-2.1v-37.5h10v16c0.9-1.2,2.1-2.2,3.6-2.9
				c1.5-0.7,3.2-1.1,4.9-1.1c1.8,0,3.5,0.5,5.1,1.4c1.6,0.9,3,2.3,4,4.2c1,1.9,1.5,4.2,1.5,7.1c0,3.5-0.8,6.5-2.3,8.9
				c-1.5,2.4-3.5,4.1-5.9,5.2C1528.3,358.3,1525.5,358.8,1522.4,358.8z M1522.4,357.6c1.6,0,2.9-0.6,3.8-1.8c1-1.2,1.6-2.8,2-4.7
				c0.4-1.9,0.6-4.1,0.7-6.6c0-0.2,0-0.3,0-0.5c0-0.2,0-0.4,0-0.5c0-2.3-0.2-4.1-0.7-5.6c-0.5-1.5-1.1-2.6-1.9-3.4
				c-0.8-0.8-1.6-1.1-2.6-1.1c-0.7,0-1.4,0.2-2.1,0.7c-0.7,0.5-1.3,1.2-1.8,2.1v20.7c0.5,0.2,1,0.4,1.5,0.6c0.2,0.1,0.4,0.1,0.6,0.2
				C1522,357.6,1522.2,357.6,1522.4,357.6z"/>
			<path class="st25" d="M1552,359.1c-2.3,0-4.3-0.5-6-1.6c-1.7-1.1-2.9-2.4-3.8-4.1c-0.8-1.7-1.3-3.4-1.3-5.3c0-1.6,0.3-3.1,1-4.5
				c0.7-1.4,1.7-2.4,3-3.2c1.3-0.8,2.9-1.2,4.7-1.2c1,0,1.9,0.2,2.9,0.5c1,0.3,1.8,0.8,2.6,1.4l0.1-0.1c-0.3-0.3-0.5-0.5-0.8-0.8
				c-0.2-0.3-0.4-0.5-0.7-0.8c-0.9-1.1-1.5-2-1.9-2.7c-0.4-0.7-0.6-1.5-0.6-2.3c0-1.3,0.5-2.2,1.5-2.9c1-0.6,2.3-1,3.9-1
				c2.2,0,4.4,0.6,6.6,1.7c2.2,1.1,4.1,2.9,5.6,5.2c1.5,2.3,2.3,5.2,2.3,8.6v11.8h-10.1v-13.1c0-2.9-0.4-5.3-1.1-7.2
				c-0.7-1.9-1.6-3.2-2.7-4.1c-1-0.9-2.1-1.3-3.2-1.3c-0.7,0-1.2,0.2-1.6,0.6c-0.4,0.4-0.5,0.9-0.5,1.5c0,0.8,0.2,1.5,0.6,2.3
				c0.4,0.8,1.1,1.7,2.1,2.9c0.3,0.4,0.7,0.8,1.1,1.3c0.4,0.4,0.7,0.9,1.1,1.3c0.1,0,0.1,0.1,0.1,0.1c0,0,0,0.1,0.1,0.1
				c0.6,0.8,1.2,1.6,1.6,2.4c0.5,0.9,0.8,1.8,1.1,2.9c0.3,1.1,0.4,2.3,0.4,3.6c0,1.3-0.3,2.5-0.9,3.8c-0.6,1.2-1.5,2.2-2.8,2.9
				C1555.3,358.7,1553.8,359.1,1552,359.1z M1556.2,356.2c1,0,1.8-0.5,2.4-1.4c0.6-1,0.9-2.2,0.9-3.8c0-1.5-0.3-3.1-0.8-4.6
				c-0.5-1.5-1.2-2.7-2.2-3.7c-0.9-1-1.9-1.5-3.1-1.5c-0.6,0-1.1,0.2-1.5,0.6c-0.4,0.4-0.7,1-1,1.7c-0.2,0.7-0.3,1.7-0.3,2.8
				c0,1.7,0.3,3.3,0.8,4.9c0.6,1.5,1.3,2.8,2.2,3.7C1554.5,355.7,1555.3,356.2,1556.2,356.2z"/>
		</g>
		<g>
			<path class="st25" d="M1313.2,420.3l-13.8-39.5h10.1l12.6,36.3l5.9-15.7l-7.2-20.6h9.9l7.3,20l0.1-0.1c-0.5-4.5-0.4-8.3,0.5-11.4
				c0.9-3.1,2.2-5.5,4-7.1c1.8-1.6,3.6-2.4,5.6-2.4c1.2,0,2.3,0.3,3.3,1c1,0.6,1.8,1.6,2.4,2.9c0.6,1.3,0.9,2.8,0.9,4.6
				c0,2.5-0.6,5.3-1.9,8.3l-9.4,23.6h-8.8l-6.3-17.3l-6.5,17.3H1313.2z M1349,403.8c0.5-1.3,0.9-2.5,1.2-3.7
				c0.3-1.1,0.4-2.2,0.4-3.2c0-1.8-0.3-3.3-0.9-4.6c-0.6-1.3-1.4-2.3-2.4-2.9c-1-0.7-2-1-3-1c-1.6,0-3,0.8-4.1,2.4
				c-1.1,1.6-1.6,4-1.6,7.2c0,3.2,0.8,7.1,2.4,11.5l2.8,7.6L1349,403.8z"/>
			<path class="st25" d="M1377.4,421.2c-4.3,0-7.9-0.9-11-2.8c-3.1-1.9-5.5-4.4-7.1-7.6c-1.7-3.2-2.5-6.8-2.5-10.7
				c0-4.3,0.8-7.9,2.4-10.9c1.6-3,3.9-5.2,6.9-6.8c3-1.5,6.6-2.3,10.9-2.3c1.6,0,3.4,0.1,5.4,0.2c2,0.1,3.8,0.3,5.4,0.6l-1.4,7.2
				c-1.6-2.2-3.2-3.8-4.8-4.9c-1.6-1.1-3.1-1.6-4.5-1.6c-1.8,0-3.4,0.7-4.8,2.2c-1.4,1.4-2.5,3.5-3.2,6.2c-0.8,2.7-1.2,5.9-1.2,9.6
				c0,4.1,0.4,7.7,1.3,10.8c0.9,3.1,2.1,5.4,3.7,7c1.6,1.6,3.3,2.4,5.2,2.4c1.7,0,3.5-0.6,5.3-1.9c1.8-1.3,3.6-3.1,5.2-5.4l1.4,7.2
				c-1.9,0.5-4,0.9-6.3,1.2C1381.3,421,1379.2,421.2,1377.4,421.2z"/>
		</g>
		<g>
			<path class="st25" d="M1300.3,295.6v-39.5h10c1.4,2.2,2.6,4.4,3.8,6.7c1.1,2.3,2.1,4.4,2.9,6.5c0.8,2.1,1.5,4.2,2,6.2
				c0.2,0.8,0.4,1.5,0.6,2.2c0.2,0.7,0.4,1.4,0.5,2.1h0.1c0.1-1.3,0.5-2.6,1.3-4c0.7-1.4,1.7-3.1,2.9-4.9l0.1-0.2
				c0.4-0.6,0.8-1.3,1.2-1.9c0.4-0.6,0.8-1.3,1.2-1.9c1.7-2.7,3-4.8,3.8-6.5c0.8-1.6,1.2-3.1,1.2-4.3h8.9v39.5h-10v-32.6h-0.2
				c-0.8,1.4-1.6,2.9-2.5,4.4c-0.9,1.5-1.9,3-2.8,4.7c-0.9,1.4-1.6,2.7-2.2,3.9c-0.6,1.2-1.1,2.3-1.4,3.5c-0.4,1.2-0.5,2.3-0.5,3.4
				c0,2.1,0.4,4.3,1.1,6.5c0.8,2.2,1.8,4.3,3.3,6.4h-10c-0.5-0.7-1-1.9-1.5-3.7c-0.5-1.7-1.3-4.3-2.3-7.8c-1.3-4.5-2.4-8.2-3.3-11.1
				c-0.9-2.9-2-5.8-3.2-8.7c-1.2-2.9-2.4-5.2-3.7-6.8v38.1H1300.3z"/>
			<path class="st25" d="M1359.9,296.7c-3.5,0-6.5-0.6-9-1.9s-4.3-3-5.5-5.1c-1.3-2.1-1.9-4.6-1.9-7.5c0-2.7,0.6-5.1,1.8-7.2
				c1.2-2.1,3-3.8,5.3-5c2.3-1.2,5.2-1.8,8.5-1.8c2.5,0,4.7,0.3,6.5,0.8c1.8,0.5,3.2,1.3,4.1,2.3c0.9,1,1.4,2.2,1.4,3.7
				c0,1.5-0.7,2.8-1.9,3.9c-1.2,1.1-2.8,1.9-4.6,2.4c-1.9,0.5-3.8,0.8-5.9,0.8v0.1c2,0.2,3.8,0.6,5.6,1.1c1.8,0.5,3.2,1.3,4.4,2.3
				c1.2,1,1.8,2.2,1.8,3.7c0,1.5-0.5,2.9-1.5,4c-1,1.1-2.3,2-3.9,2.6C1363.3,296.4,1361.6,296.7,1359.9,296.7z M1363.3,294.5
				c1.8,0,3.3-0.5,4.5-1.4c1.2-0.9,1.8-2.2,1.8-3.8c0-1.7-0.9-3.1-2.8-4.1c-1.9-1-4-1.8-6.4-2.2c-2.4-0.4-4.6-0.7-6.5-0.9
				c-0.2,0-0.3,0-0.4,0s-0.2,0-0.3-0.1c0,2.6,0.4,4.8,1.4,6.7c1,1.9,2.2,3.3,3.8,4.3C1359.9,294,1361.6,294.5,1363.3,294.5z
				 M1356.7,281.5c1.3,0,2.5-0.4,3.6-1.2c1.1-0.8,2-1.8,2.6-3.1c0.6-1.3,1-2.7,1-4.3c0-0.8-0.1-1.5-0.3-2c-0.2-0.5-0.5-0.9-0.9-1.2
				c-0.4-0.3-0.9-0.4-1.5-0.4c-1.1,0-2.2,0.5-3.4,1.4c-1.2,0.9-2.2,2.3-3.1,4.1c-0.8,1.8-1.3,3.9-1.4,6.3c0.3,0.1,0.9,0.2,1.7,0.3
				C1355.6,281.4,1356.2,281.5,1356.7,281.5z"/>
			<path class="st25" d="M1373.4,295.6v-26.3h10v10.1h0.1c0.7-1.9,1.6-3.7,2.7-5.2c1.1-1.6,2.3-2.8,3.6-3.8c1.3-1,2.7-1.5,4.3-1.6
				l0.6,6.5c-1.8,0-3.5,0.2-5.1,0.6c-1.6,0.4-3,1.3-4.2,2.5c-1.2,1.3-1.8,3-1.8,5.1v12H1373.4z"/>
			<path class="st25" d="M1409.9,296.6c-3.2,0-5.9-0.7-8.1-2c-2.2-1.3-3.9-3.1-5-5.3c-1.1-2.2-1.7-4.6-1.7-7.3
				c0-2.8,0.6-5.2,1.7-7.3c1.1-2.1,2.7-3.7,4.9-4.9c2.2-1.1,4.9-1.7,8.2-1.7c2,0,3.8,0.1,5.5,0.3c1.7,0.2,3.2,0.5,4.5,0.9l-0.1,6.1
				c-1.5-2-3-3.5-4.4-4.6c-1.4-1.1-2.7-1.6-3.9-1.6c-2,0-3.6,1-4.7,3.1c-1.1,2.1-1.7,4.9-1.7,8.4c0,3.1,0.3,5.8,0.9,8
				c0.6,2.2,1.4,3.9,2.4,5c1,1.1,2.2,1.7,3.5,1.7c1.3,0,2.6-0.7,3.9-2.1c1.4-1.4,2.4-2.9,3-4.6l2.4,4.8c-1.7,1-3.4,1.8-5.3,2.3
				C1414.1,296.4,1412.1,296.6,1409.9,296.6z"/>
			<path class="st25" d="M1423.4,295.6v-39.5h10v19h0.1c0.8-2.2,2.2-3.9,4-5.1c1.8-1.3,3.8-1.9,5.9-1.9c1.6,0,3.1,0.3,4.4,1
				c1.3,0.7,2.4,1.7,3.2,3.2c0.8,1.4,1.2,3.2,1.2,5.2v18h-10v-18.9c0-1.5-0.3-2.7-1-3.5c-0.7-0.8-1.5-1.2-2.6-1.2
				c-0.9,0-1.8,0.3-2.6,0.9c-0.8,0.6-1.5,1.5-2,2.7c-0.5,1.2-0.8,2.7-0.8,4.4v15.7H1423.4z"/>
		</g>
		<g>
			<g>
				<path class="st25" d="M1298,488.2v-39.5h10c1.4,2.2,2.6,4.5,3.8,6.7c1.1,2.3,2.1,4.4,2.9,6.5c0.8,2.1,1.5,4.2,2,6.2
					c0.2,0.8,0.4,1.5,0.6,2.2c0.2,0.7,0.4,1.4,0.5,2.1h0.1c0.1-1.3,0.5-2.6,1.3-4c0.7-1.4,1.7-3.1,2.9-4.9l0.1-0.2
					c0.4-0.6,0.8-1.3,1.2-1.9c0.4-0.6,0.8-1.3,1.2-1.9c1.7-2.7,3-4.8,3.8-6.5c0.8-1.6,1.2-3.1,1.2-4.3h8.9v39.5h-10v-32.7h-0.2
					c-0.8,1.4-1.6,2.9-2.5,4.4c-0.9,1.5-1.9,3-2.9,4.7c-0.9,1.4-1.6,2.7-2.2,3.9c-0.6,1.2-1.1,2.3-1.4,3.5c-0.4,1.2-0.5,2.3-0.5,3.4
					c0,2.1,0.4,4.3,1.1,6.5c0.8,2.2,1.8,4.3,3.3,6.4h-10c-0.5-0.7-1-1.9-1.5-3.7c-0.5-1.7-1.3-4.3-2.3-7.8
					c-1.3-4.5-2.4-8.2-3.3-11.1c-0.9-2.9-2-5.8-3.2-8.7s-2.4-5.2-3.7-6.8v38.1H1298z"/>
				<path class="st25" d="M1357.7,489.4c-3.6,0-6.6-0.6-9-1.9c-2.4-1.3-4.3-3-5.6-5.1c-1.3-2.2-1.9-4.7-1.9-7.5
					c0-2.7,0.6-5.1,1.8-7.2s3-3.8,5.3-5c2.3-1.2,5.2-1.8,8.5-1.8c2.6,0,4.7,0.3,6.5,0.8c1.8,0.5,3.2,1.3,4.1,2.4
					c0.9,1,1.4,2.2,1.4,3.7c0,1.5-0.7,2.8-1.9,3.9c-1.2,1.1-2.8,1.9-4.6,2.4c-1.9,0.5-3.8,0.8-5.9,0.8v0.1c2,0.2,3.8,0.6,5.6,1.1
					c1.8,0.5,3.3,1.3,4.4,2.3c1.2,1,1.8,2.2,1.8,3.7c0,1.5-0.5,2.9-1.5,4s-2.3,2-4,2.6C1361.2,489.1,1359.5,489.4,1357.7,489.4z
					 M1361.2,487.2c1.8,0,3.3-0.5,4.5-1.4c1.2-0.9,1.8-2.2,1.8-3.8c0-1.7-0.9-3.1-2.8-4.1c-1.9-1-4-1.8-6.4-2.2
					c-2.4-0.4-4.6-0.7-6.5-0.9c-0.2,0-0.3,0-0.4,0c-0.1,0-0.2,0-0.3-0.1c0,2.6,0.4,4.8,1.4,6.7c1,1.9,2.2,3.3,3.8,4.3
					C1357.7,486.7,1359.4,487.2,1361.2,487.2z M1354.6,474.1c1.3,0,2.5-0.4,3.6-1.2c1.1-0.8,2-1.8,2.6-3.1c0.6-1.3,1-2.8,1-4.3
					c0-0.8-0.1-1.5-0.3-2c-0.2-0.5-0.5-1-0.9-1.2c-0.4-0.3-0.9-0.4-1.5-0.4c-1.1,0-2.2,0.5-3.5,1.4c-1.2,0.9-2.2,2.3-3.1,4.1
					c-0.8,1.8-1.3,3.9-1.4,6.3c0.3,0.1,0.9,0.2,1.7,0.3C1353.4,474.1,1354,474.1,1354.6,474.1z"/>
				<path class="st25" d="M1387.9,489.4c-3.1,0-5.9-0.5-8.3-1.6c-2.5-1.1-4.5-2.8-6-5.1c-1.5-2.3-2.3-5.3-2.3-8.8
					c0-2.8,0.5-5.2,1.6-7.2c1.1-1.9,2.4-3.4,4.1-4.3c1.7-1,3.5-1.4,5.5-1.4c1.5,0,3,0.3,4.4,0.8c1.4,0.5,2.7,1.3,3.7,2.2v-15.2h10.1
					v37.8c-2.2,0.9-4.4,1.6-6.5,2.1S1389.9,489.4,1387.9,489.4z M1388.6,487.9c0.4,0,0.7,0,1.1-0.1c0.3-0.1,0.7-0.2,1-0.3v-21.6
					c-1.1-1.1-2.3-1.6-3.5-1.6c-1.2,0-2.2,0.4-3.1,1.3c-0.9,0.9-1.5,2.1-1.9,3.6s-0.7,3.2-0.7,5c0,2.3,0.3,4.6,0.9,6.7
					c0.6,2.1,1.5,3.8,2.5,5.1C1386,487.1,1387.2,487.8,1388.6,487.9z"/>
				<path class="st25" d="M1409.5,459.4c-1.6,0-2.9-0.5-4-1.5c-1.1-1-1.6-2.2-1.6-3.6s0.5-2.6,1.6-3.6c1.1-1,2.4-1.5,4-1.5
					c1.4,0,2.7,0.5,3.7,1.5s1.6,2.2,1.6,3.6s-0.5,2.6-1.6,3.6C1412.1,458.9,1410.8,459.4,1409.5,459.4z M1404.3,488.5v-26.6h10v26.6
					H1404.3z"/>
				<path class="st25" d="M1432.4,489.3c-3.2,0-5.9-0.7-8.2-2c-2.2-1.3-3.9-3.1-5-5.3c-1.1-2.2-1.7-4.6-1.7-7.3
					c0-2.8,0.6-5.2,1.7-7.3c1.1-2.1,2.8-3.7,4.9-4.9c2.2-1.1,4.9-1.7,8.2-1.7c2,0,3.8,0.1,5.5,0.3c1.7,0.2,3.2,0.5,4.5,0.9l-0.1,6.1
					c-1.5-2-3-3.5-4.4-4.6c-1.4-1.1-2.7-1.6-3.9-1.6c-2,0-3.6,1-4.7,3.1c-1.1,2.1-1.7,4.9-1.7,8.4c0,3.1,0.3,5.8,0.9,8
					c0.6,2.2,1.4,3.9,2.4,5c1,1.1,2.2,1.7,3.5,1.7c1.3,0,2.6-0.7,3.9-2.1c1.4-1.4,2.4-2.9,3-4.6l2.4,4.8c-1.7,1-3.4,1.8-5.3,2.4
					C1436.6,489,1434.6,489.3,1432.4,489.3z"/>
				<path class="st25" d="M1451.5,459.4c-1.6,0-2.9-0.5-4-1.5c-1.1-1-1.6-2.2-1.6-3.6s0.5-2.6,1.6-3.6c1.1-1,2.4-1.5,4-1.5
					c1.4,0,2.7,0.5,3.7,1.5s1.6,2.2,1.6,3.6s-0.5,2.6-1.6,3.6C1454.1,458.9,1452.9,459.4,1451.5,459.4z M1446.3,488.5v-26.6h10v26.6
					H1446.3z"/>
				<path class="st25" d="M1459.9,488.5v-26.6h10v4.7h0.1c0.9-1.8,2.2-3.2,4-4.3c1.7-1,3.5-1.6,5.3-1.6c1.6,0,3.1,0.4,4.5,1.1
					c1.4,0.7,2.5,1.8,3.3,3.2c0.8,1.4,1.3,3.1,1.3,5.1v18.1h-10v-18.9c0-1.6-0.3-2.9-1-3.9c-0.7-0.9-1.6-1.4-2.6-1.4
					c-0.6,0-1.3,0.2-2,0.7c-0.7,0.5-1.3,1.1-1.8,1.9c-0.5,0.8-0.9,1.8-1,3v18.8H1459.9z"/>
				<path class="st25" d="M1499.7,489.1c-1.5,0-3-0.2-4.5-0.4c-1.4-0.2-2.6-0.5-3.6-0.9l1.3-7.2c0.9,0.8,1.9,1.6,2.9,2.4
					c1.8,1.3,3.4,2.4,4.8,3.2c1.5,0.8,2.6,1.3,3.5,1.3c0.9,0,1.7-0.3,2.2-0.6s0.8-0.9,0.8-1.7c0-0.8-0.4-1.7-1.1-2.6
					c-0.7-0.9-1.6-1.9-2.8-2.9c-1.1-1-2.6-2.1-4.3-3.4l-0.2-0.1c-0.1,0-0.2-0.1-0.3-0.2c-0.1-0.1-0.2-0.1-0.3-0.2
					c-2.4-1.8-4.2-3.3-5.2-4.4c-1.1-1.1-1.6-2.3-1.6-3.6c0-2.3,1.3-4.1,4-5.3c2.7-1.2,5.9-1.9,9.7-1.9c1.4,0,2.8,0.1,4.2,0.3
					c1.4,0.2,2.7,0.5,3.9,0.8l-1.2,7.2c-0.8-1-1.9-2.1-3.3-3.2c-1.4-1.1-2.7-2-4.1-2.8c-1.4-0.7-2.5-1.1-3.3-1.1
					c-0.7,0-1.3,0.1-1.8,0.4c-0.5,0.3-0.8,0.7-0.8,1.2c0,0.7,0.6,1.5,1.8,2.6c1.2,1.1,2.9,2.5,5.1,4.1l0.9,0.6l0.3,0.2
					c1.8,1.3,3.2,2.3,4.2,3.2c1,0.9,1.8,1.8,2.5,2.8c0.6,1,1,2,1,3.1c0,2-0.7,3.7-2.2,5c-1.4,1.3-3.3,2.3-5.6,2.9
					S1502.2,489.1,1499.7,489.1z"/>
				<path class="st25" d="M1517.4,488.2v-39.5h10v25.3h0.1c1.1-2.1,2.7-4.2,4.7-6.3c2-2,4.1-3.7,6.2-5c2.2-1.3,4.2-1.9,6.1-1.9v6.3
					c-2.4-0.4-4.8-0.3-7.2,0.5c-1.3,0.4-2.6,1-3.9,1.7c-1.2,0.7-2.3,1.5-3.1,2.4l-0.1,0.2c1.5-0.8,2.8-1.1,4-1.1
					c1.4,0,2.6,0.6,3.8,1.7c1.1,1.2,2.1,2.5,2.9,4c0.8,1.5,1.7,3.5,2.7,6c0.5,1.1,0.9,2.2,1.3,3.2c0.4,1,0.9,1.9,1.3,2.5h-10
					c-0.3-0.5-0.5-1.2-0.8-2.3c-0.3-1-0.5-2.4-0.8-4c-0.4-1.6-0.8-3.2-1.1-4.6c-0.4-1.4-0.8-2.6-1.3-3.5c-0.5-0.9-1-1.4-1.5-1.4
					c-0.5,0-1,0.2-1.4,0.6c-0.4,0.4-0.8,0.8-1.1,1.4c-0.3,0.6-0.6,1.2-0.7,1.8l-0.1,0.1v0.1v11.9H1517.4z"/>
				<path class="st25" d="M1554.1,459.4c-1.6,0-2.9-0.5-4-1.5c-1.1-1-1.6-2.2-1.6-3.6s0.5-2.6,1.6-3.6c1.1-1,2.4-1.5,4-1.5
					c1.4,0,2.7,0.5,3.7,1.5s1.6,2.2,1.6,3.6s-0.5,2.6-1.6,3.6C1556.7,458.9,1555.5,459.4,1554.1,459.4z M1548.9,488.5v-26.6h10v26.6
					H1548.9z"/>
				<path class="st25" d="M1586.5,489.3c-3.6,0-6.5-0.8-8.7-2.3c-2.2-1.5-3.3-3.7-3.3-6.7V463h-3v-1.1h1.6c1.8,0,3.5-0.6,5.1-1.9
					c1.6-1.2,2.9-2.8,3.8-4.8c1-2,1.4-4.2,1.4-6.5h1.1v13.2h7.9v1.1h-7.9v20.7c0,1.4,0.2,2.4,0.6,3.1c0.4,0.7,1,1,1.8,1
					c0.8,0,1.8-0.5,2.9-1.5c1.1-1,2.2-2.4,3.4-4.3l1.6,6.2C1591.9,488.9,1589.2,489.3,1586.5,489.3z"/>
				<path class="st25" d="M1602.6,459.4c-1.6,0-2.9-0.5-4-1.5c-1.1-1-1.6-2.2-1.6-3.6s0.5-2.6,1.6-3.6c1.1-1,2.4-1.5,4-1.5
					c1.4,0,2.7,0.5,3.7,1.5s1.6,2.2,1.6,3.6s-0.5,2.6-1.6,3.6C1605.2,458.9,1604,459.4,1602.6,459.4z M1597.4,488.5v-26.6h10v26.6
					H1597.4z"/>
				<path class="st25" d="M1611,488.5v-26.6h10v4.3h0.1c1-1.7,2.4-3,4.1-4c1.7-0.9,3.4-1.4,5.2-1.4c2.1,0,4,0.6,5.6,1.8
					c1.6,1.2,2.6,2.9,3.1,5.2h0.1c1-2.2,2.5-3.9,4.3-5.1c1.8-1.2,3.8-1.9,5.9-1.9c1.6,0,3.1,0.4,4.4,1.1c1.4,0.7,2.4,1.8,3.3,3.2
					c0.8,1.4,1.2,3.1,1.2,5.1v18.1h-10v-18.9c0-1.7-0.3-3-1-3.9c-0.7-0.9-1.5-1.4-2.5-1.4c-0.9,0-1.7,0.3-2.6,1
					c-0.8,0.7-1.5,1.6-2,2.8c-0.5,1.2-0.8,2.5-0.8,4v16.4h-10v-18.9c0-1.7-0.4-3-1.1-3.9c-0.8-0.9-1.7-1.3-2.8-1.3
					c-0.7,0-1.4,0.3-2.1,0.8c-0.7,0.6-1.3,1.3-1.7,2.3c-0.4,0.9-0.7,2-0.7,3v18.3H1611z"/>
			</g>
		</g>
		<g>
			<rect x="1194.9" y="376.8" class="st13" width="78.1" height="40.7"/>
		</g>
		<g>
			<rect x="1194.9" y="254.7" class="st15" width="78.1" height="40.7"/>
			<path class="st20" d="M1276.8,299.3H1191v-48.4h85.8V299.3z M1198.7,291.6h70.4v-33h-70.4V291.6z"/>
		</g>
		<g>
			<rect x="1194.9" y="132.6" class="st23" width="78.1" height="40.7"/>
		</g>
		<g>
			<rect x="1194.9" y="193.7" class="st24" width="78.1" height="40.7"/>
		</g>
		<g>
			<rect x="1194.9" y="315.8" class="st11" width="78.1" height="40.7"/>
			<path class="st12" d="M1276.8,360.4H1191v-48.4h85.8V360.4z M1198.7,352.6h70.4v-33h-70.4V352.6z"/>
		</g>
		<g>
			<g>
				<rect x="1222.6" y="434.3" class="st19" width="21.8" height="61.1"/>
				<path class="st19" d="M1248.3,499.2h-29.6v-68.8h29.6V499.2z M1226.4,491.5h14.1v-53.3h-14.1V491.5z"/>
			</g>
			<g>
				<rect x="1202.3" y="455.2" class="st19" width="60.6" height="17.4"/>
				<path class="st19" d="M1266.8,476.6h-68.3v-25.2h68.3V476.6z M1206.2,468.8h52.8v-9.7h-52.8V468.8z"/>
			</g>
		</g>
	</g>
</g>
</svg>
