<svg width="360" height="1774" fill="none" xmlns="http://www.w3.org/2000/svg"><g clip-path="url(#a)"><path d="M365.57 0H-22.84v1787.29h388.41V0Z" fill="url(#b)"/><path opacity=".2" d="M833.1 1179.37c-11.042 0-22.002 1.79-32.41 5.29-10.36-46.48-47.8-80.91-92.4-80.91-24.74 0-47.28 10.6-64.21 27.98-22.6-49.47-68.46-83.31-121.35-83.31-59.84 0-110.66 43.3-129 103.52-24.86-29.66-60.13-48.19-99.27-48.19-54.48 0-101.5 35.92-123.31 87.82a75.468 75.468 0 0 0-13-1.13c-14.757.06-29.153 4.33-41.32 12.26-3.65-55.34-44.78-98.95-95-98.95-7.09 0-14.15.87-21 2.61-13.92-53.72-58.07-92.97-110.39-92.97-54.7 0-100.48 42.93-112.1 100.42-16.35-12.17-36-19.25-57.05-19.25-33.06 0-62.5 17.42-81.44 44.59-37.13 2.62-69.61 24.5-89.62 56.84-18.143-10.75-39.089-16.48-60.48-16.55-50.17 0-93.76 31.59-115.89 78.02a35.536 35.536 0 0 0-6.18-.54c-1.849 0-3.696.15-5.52.44-6-37.95-35.56-66.84-71.12-66.84-15.66 0-30.14 5.61-42 15.17-12.79-44.45-49.93-76.61-93.77-76.61-48.09 0-88.13 38.7-96.79 89.89-20.62-20.36-47.66-32.71-77.28-32.71-16.1.02-31.96 3.68-46.27 10.67-9.4-32.87-36.42-56.85-68.57-57.95v152.74c-.84 4.74-1.45 9.49-1.84 14.37-.3 3.85-.45 7.75-.46 11.7-.01 8.73.76 17.45 2.3 26.07v275.3h-7.28v363.7H875v-794.52c-13.093-5.9-27.405-8.96-41.9-8.97Z" fill="#fff"/><path opacity=".2" d="M887.45 1450.97c-10.617 0-21.191 1.28-31.47 3.8-10.06-32.98-46.4-57.41-89.7-57.41-24 0-45.91 7.52-62.35 19.85-21.93-35.1-66.45-59.1-117.81-59.1-58.09 0-107.43 30.71-125.24 73.44-24.13-21.04-58.38-34.15-96.37-34.15-52.9 0-98.55 25.48-119.73 62.3-4.177-.53-8.386-.8-12.6-.8-13.898-.05-27.623 2.92-40.12 8.69-3.55-39.24-43.48-70.2-92.21-70.2-6.842.01-13.666.65-20.38 1.9C66 1361.07 23.1 1333.2-27.7 1333.2c-53.11 0-97.55 30.46-108.83 71.24-16.892-9.05-35.982-13.76-55.38-13.66-32.11 0-60.69 12.33-79.08 31.6-36.05 1.9-67.58 17.39-87 40.33-18.481-7.81-38.493-11.81-58.72-11.74-48.71 0-91 22.41-112.52 55.35a46.287 46.287 0 0 0-6-.39c-1.792 0-3.582.1-5.36.31-5.84-26.95-34.52-47.43-69-47.43-14.373-.08-28.486 3.63-40.76 10.73-12.42-31.54-48.48-54.35-91-54.35-46.69 0-85.56 27.45-94 63.77-20-14.45-46.28-23.21-75-23.21-15.327-.03-30.536 2.54-44.91 7.59-9.14-23.32-35.36-40.33-66.58-41.1v108.38c-.82 3.36-1.41 6.77-1.78 10.2-.3 2.75-.45 5.52-.45 8.29 0 6.23.75 12.43 2.23 18.5v201.4h2.18v346.07H928.09v-657.74a130.68 130.68 0 0 0-40.64-6.37Z" fill="#fff"/><path opacity=".05" d="M666.06 653.866c-3.91-35.888-31.91-63.712-65.89-63.712-29.66 0-54.78 21.193-63.28 50.45-8.23-12.475-21.64-20.605-36.82-20.605-17.79 0-33.18 11.175-40.59 27.445-16.48-15.634-38.02-25.121-61.61-25.121-38.4 0-71.41 25.159-85.91 61.17-10.72-23.356-32.85-39.351-58.43-39.351-12.482.053-24.624 3.859-34.68 10.872-11.25-31.904-39.58-54.51-72.79-54.51-27.49 0-51.64 15.51-65.52 38.895-10.78-28.232-36.35-48.097-66.18-48.097-31.91 0-58.94 22.768-68.21 54.149-13.834-6.537-29.075-9.947-44.53-9.961-28.5 0-54.52 11.536-74.37 30.538-8.34-47.784-46.87-83.909-93.15-83.909-42.19 0-77.94 30.015-90.24 71.519-11.319-9.039-25.615-14.036-40.41-14.125-34.22 0-62.64 26.932-68.44 62.403a35.21 35.21 0 0 0-5.31-.418 35.176 35.176 0 0 0-5.95.513c-21.3-43.345-63.25-72.829-111.53-72.829-20.525.036-40.652 5.376-58.22 15.444-19.26-30.196-50.51-50.611-86.24-53.068-18.23-25.32-46.57-41.59-78.39-41.59-20.29 0-39.16 6.641-54.9 17.978-11.18-53.676-55.24-93.738-107.88-93.738-50.36 0-92.85 36.657-106.24 86.812a84.785 84.785 0 0 0-20.2-2.438c-48.31 0-87.89 40.717-91.4 92.372-11.79-7.415-25.61-11.393-39.75-11.441-2.78.001-5.56.156-8.32.465V1765.96H675.29V649.265a71.39 71.39 0 0 0-9.23 4.601Z" fill="#000"/><path opacity=".05" d="M1525.55 1407.89V935.761c-2.8.867-5.54 1.897-8.2 3.083-3.47-24.01-28.34-42.632-58.53-42.632-26.35 0-48.65 14.182-56.21 33.753-7.3-8.339-19.22-13.784-32.7-13.784-15.8 0-29.47 7.485-36.05 18.366-14.64-10.435-33.78-16.829-54.73-16.829-34.11 0-63.43 16.839-76.31 40.935-9.52-15.615-29.18-26.345-51.9-26.345-10.75-.046-21.34 2.455-30.81 7.276-9.98-21.278-35.11-36.457-64.65-36.457-24.42 0-45.87 10.379-58.2 26.051-9.57-18.907-32.28-32.198-58.78-32.198-28.35 0-52.35 15.179-60.59 36.239a118.715 118.715 0 0 0-39.55-6.641c-25.31 0-48.43 7.713-66.06 20.434-7.4-31.979-41.63-56.151-82.74-56.151-37.47 0-69.22 20.093-80.16 47.86-10.8-6.266-23.229-9.552-35.89-9.486-30.39 0-55.64 18.024-60.79 41.741a40.805 40.805 0 0 0-10 .066c-18.92-29.001-56.18-48.733-99.06-48.733-17.812-.062-35.436 3.459-51.71 10.331-17.1-20.197-44.86-33.867-76.6-35.508-16.19-16.934-41.36-27.825-69.63-27.825-17.08-.087-33.888 4.06-48.76 12.03-9.94-35.907-49.07-62.717-95.83-62.717-44.73 0-82.47 24.523-94.36 58.078a99.214 99.214 0 0 0-17.94-1.623c-42.91 0-78.07 27.236-81.2 61.806-11-5.083-23.084-7.702-35.32-7.656-2.49 0-5 .104-7.39.304v478.341h-6v539.27h1712.66v-539.25h-6.01Z" fill="#000"/><path d="M337.129 135.431c.21.237 2.5-1.964 6.28-3.339 2-.712 3.84-1.366 5.87-.74a10.24 10.24 0 0 1 3.51 2.163c.45.379 1.11 1.043 2.42 2.353l1.6 1.603a9.449 9.449 0 0 0 .81-2.097 11.21 11.21 0 0 1 1.64-3.016 9.291 9.291 0 0 1 3.73-2.714 10.846 10.846 0 0 1 4.55-.673c1.506.062 2.994.344 4.41.835.673.207 1.31.508 1.89.891.06 0 .17.124.18.105a11.057 11.057 0 0 0-1.82-2.097c-2.07-1.84-5-1.897-6.36-1.897-3.91-.105-7.32 1.537-8.27 2.846l-1.07 1.47a20.977 20.977 0 0 0-3.65-2.182 10.056 10.056 0 0 0-5.16-.635c-1.2.189-2.43.626-5.09 2.163a21.575 21.575 0 0 0-4.27 3.443c-.14.114-1.33 1.347-1.2 1.518Zm-18.83-14.666c.16.19 2-1.471 5-2.448 1.56-.512 3-.948 4.61-.436a7.902 7.902 0 0 1 2.68 1.793c.34.303.84.835 1.83 1.897l1.21 1.29a8.29 8.29 0 0 0 .69-1.622 8.785 8.785 0 0 1 1.37-2.315 7.295 7.295 0 0 1 3-2.03 8.516 8.516 0 0 1 3.58-.408c1.175.088 2.328.348 3.42.769a5.44 5.44 0 0 1 1.45.74s.13.104.14.085a8.605 8.605 0 0 0-1.36-1.679 7.602 7.602 0 0 0-4.92-1.613c-3.06-.18-5.77 1.015-6.55 1.992-.07.105-.87 1.129-.87 1.129a16.284 16.284 0 0 0-2.8-1.802 7.727 7.727 0 0 0-4-.626c-1.429.26-2.789.789-4 1.556a17.207 17.207 0 0 0-3.44 2.58c-.17.085-1.16 1.015-1.04 1.148ZM-26.83 352.903c.17.189 2-1.471 5-2.448 1.55-.512 3-.949 4.61-.436a7.86 7.86 0 0 1 2.67 1.793c.34.303.84.835 1.83 1.897l1.21 1.29a7.218 7.218 0 0 0 .69-1.622 9.06 9.06 0 0 1 1.37-2.315 7.43 7.43 0 0 1 3-2.03 8.469 8.469 0 0 1 3.57-.408 12.02 12.02 0 0 1 3.43.769 5.45 5.45 0 0 1 1.45.74s.12.104.14.085a8.863 8.863 0 0 0-1.37-1.679 7.553 7.553 0 0 0-4.91-1.689c-3.06-.18-5.77 1.015-6.55 1.992l-.88 1.129a16.472 16.472 0 0 0-2.79-1.802 7.77 7.77 0 0 0-4-.626c-1.429.26-2.789.789-4 1.556a17.184 17.184 0 0 0-3.44 2.58c-.15.142-1.14 1.072-1.03 1.224Zm377.741 620.995c.16.36 3.8-1.348 8.84-1.499 2.63-.076 5.11-.114 7.23 1.394a12.185 12.185 0 0 1 3.19 3.918c.37.626.86 1.651 1.84 3.7.8 1.66 1.2 2.485 1.2 2.514.16.085 1.15-1.319 1.85-2.163a14.676 14.676 0 0 1 3.23-2.903 11.983 11.983 0 0 1 5.56-1.755 13.355 13.355 0 0 1 5.65.949 18.477 18.477 0 0 1 4.83 2.684 8.678 8.678 0 0 1 1.84 1.784c.05.076.14.209.17.19a13.313 13.313 0 0 0-1.25-3.169c-1.64-2.969-5-4.174-6.64-4.743-4.56-1.632-9.28-1.025-11 .114l-1.89 1.328a24.459 24.459 0 0 0-3.36-3.985 12.059 12.059 0 0 0-5.79-2.751c-1.5-.246-3.14-.208-6.93.569a28.449 28.449 0 0 0-6.51 2.391c-.2.19-2.17 1.167-2.06 1.433Zm-28.252 18.793c.17.313 3.3-1.575 7.87-2.173 2.38-.303 4.63-.569 6.71.617a11.21 11.21 0 0 1 3.29 3.263c.4.531 1 1.423 2.05 3.197.89 1.433 1.34 2.144 1.34 2.173.16.066.92-1.3 1.47-2.135a13.727 13.727 0 0 1 2.64-2.931 10.948 10.948 0 0 1 4.87-2.097 12.4 12.4 0 0 1 5.23.37 17.18 17.18 0 0 1 4.66 2.002 8.413 8.413 0 0 1 1.85 1.451c0 .067.15.181.17.162a11.659 11.659 0 0 0-1.45-2.761c-1.79-2.561-5-3.339-6.51-3.728-4.31-1.063-8.54-.086-9.94 1.1l-1.58 1.376a23.038 23.038 0 0 0-3.46-3.311 11.128 11.128 0 0 0-5.54-1.973c-1.38-.086-2.87.094-6.23 1.157a25.125 25.125 0 0 0-5.67 2.761c-.21.142-1.9 1.242-1.77 1.48ZM355 1015.23c.22.4 4.15-1.97 9.88-2.71 3-.39 5.8-.72 8.41.77a14.14 14.14 0 0 1 4.13 4.08c.49.68 1.18 1.79 2.57 4.02 1.11 1.79 1.67 2.68 1.68 2.72.01.04 0 0 0 0 .19.09 1.14-1.63 1.83-2.67a17.175 17.175 0 0 1 3.31-3.68 13.567 13.567 0 0 1 6.12-2.63c2.189-.32 4.425-.15 6.54.47 2.074.54 4.048 1.39 5.85 2.51.861.49 1.642 1.1 2.32 1.81.07.08.19.22.22.21a15.194 15.194 0 0 0-1.82-3.48c-2.25-3.19-6.22-4.18-8.17-4.66-5.41-1.34-10.7-.11-12.46 1.38l-2 1.73a28.734 28.734 0 0 0-4.34-4.16 13.933 13.933 0 0 0-6.94-2.47c-1.73-.11-3.61.12-7.82 1.45a31.71 31.71 0 0 0-7.11 3.46c-.28.23-2.4 1.56-2.2 1.85Zm-90.431-256.802c.21.237 2.5-1.974 6.28-3.349 2-.712 3.84-1.366 5.87-.74a10.164 10.164 0 0 1 3.51 2.172c.45.38 1.11 1.034 2.42 2.344 1.07 1.053 1.6 1.584 1.6 1.603a9.449 9.449 0 0 0 .81-2.097 11.625 11.625 0 0 1 1.64-3.007 9.265 9.265 0 0 1 3.73-2.723c1.445-.544 3-.771 4.55-.664 1.506.057 2.994.335 4.41.826.673.207 1.31.508 1.89.891.06 0 .17.124.18.105a10.678 10.678 0 0 0-1.82-2.087c-2.07-1.85-4.95-1.898-6.36-1.955-3.91-.104-7.32 1.537-8.27 2.846l-1.01 1.48a20.647 20.647 0 0 0-3.66-2.182 9.91 9.91 0 0 0-5.16-.645c-1.19.19-2.43.626-5.09 2.173a21.174 21.174 0 0 0-4.27 3.434c-.19.18-1.41 1.394-1.25 1.575Zm-18.828-14.676c.16.19 2-1.48 5-2.457 1.56-.512 3-.949 4.61-.437a7.84 7.84 0 0 1 2.68 1.793c.34.304.84.835 1.83 1.898l1.21 1.29a7.872 7.872 0 0 0 .69-1.622 8.715 8.715 0 0 1 1.37-2.315 7.2 7.2 0 0 1 3-2.021 8.215 8.215 0 0 1 3.58-.408c1.174.082 2.328.338 3.42.759a5.623 5.623 0 0 1 1.45.74s.13.105.14.095a8.63 8.63 0 0 0-1.36-1.688 7.592 7.592 0 0 0-4.92-1.689c-3.06-.171-5.77 1.015-6.55 1.992-.07.104-.87 1.129-.87 1.129a16.263 16.263 0 0 0-2.8-1.802 7.826 7.826 0 0 0-4-.627 11.144 11.144 0 0 0-4 1.566 16.678 16.678 0 0 0-3.44 2.571c-.17.17-1.16 1.1-1.04 1.233ZM286 1518.53c.15.36 3.79-1.35 8.84-1.5 2.62-.08 5.1-.12 7.22 1.39a12.08 12.08 0 0 1 3.19 3.92c.37.62.86 1.65 1.85 3.7.79 1.66 1.19 2.48 1.19 2.51.16.09 1.15-1.32 1.86-2.16a14.83 14.83 0 0 1 3.22-2.9 12.113 12.113 0 0 1 5.57-1.76c1.932-.09 3.861.23 5.64.95 1.746.65 3.376 1.56 4.83 2.68a8.637 8.637 0 0 1 1.84 1.79c.05.07.14.21.17.19-.272-1.1-.692-2.17-1.25-3.17-1.63-2.97-5-4.17-6.63-4.74-4.57-1.64-9.29-1.03-11 .11l-1.89 1.33a24.707 24.707 0 0 0-3.36-3.99 12.076 12.076 0 0 0-5.79-2.75c-1.49-.24-3.14-.21-6.93.57a28.54 28.54 0 0 0-6.5 2.39c-.24.19-2.22 1.17-2.07 1.44Zm-28.29 18.79c.17.31 3.31-1.58 7.88-2.16 2.37-.32 4.62-.58 6.7.6 1.327.86 2.451 1.97 3.3 3.27.39.53.94 1.42 2.05 3.19.88 1.44 1.33 2.15 1.33 2.18.15.06.91-1.3 1.46-2.14a13.67 13.67 0 0 1 2.64-2.93 11.052 11.052 0 0 1 4.88-2.1c1.747-.25 3.532-.12 5.22.37 1.652.44 3.224 1.11 4.66 2 .69.4 1.313.89 1.85 1.46.06.06.15.18.18.16-.36-.98-.851-1.91-1.46-2.76-1.78-2.56-5-3.34-6.51-3.73-4.31-1.06-8.54-.09-9.93 1.1l-1.59 1.37a23.436 23.436 0 0 0-3.46-3.31 11.096 11.096 0 0 0-5.53-1.97c-1.38-.09-2.88.1-6.24 1.16a25.036 25.036 0 0 0-5.67 2.76c-.2.18-1.89 1.24-1.76 1.48Zm32.29 22.54c.22.4 4.15-1.97 9.88-2.71 3-.39 5.8-.73 8.41.76a14.113 14.113 0 0 1 4.13 4.09c.5.68 1.19 1.79 2.57 4.02 1.12 1.79 1.67 2.68 1.68 2.72.01.04 0 0 0 0 .19.08 1.14-1.63 1.83-2.68.911-1.37 2.026-2.6 3.31-3.67a13.692 13.692 0 0 1 6.12-2.64c2.193-.31 4.432-.14 6.55.48 2.071.54 4.041 1.39 5.84 2.5.863.5 1.644 1.11 2.32 1.81.07.09.19.23.22.21a14.98 14.98 0 0 0-1.82-3.47c-2.24-3.2-6.22-4.18-8.17-4.67-5.4-1.33-10.7-.1-12.45 1.39l-2 1.73a28.734 28.734 0 0 0-4.34-4.16c-2.023-1.43-4.428-2.28-6.94-2.48-1.73-.1-3.6.13-7.82 1.46a31.176 31.176 0 0 0-7.1 3.46c-.22.23-2.37 1.59-2.22 1.85Z" fill="#666"/></g><defs><linearGradient id="b" x1="171.37" y1="0" x2="171.37" y2="1787.29" gradientUnits="userSpaceOnUse"><stop stop-color="#F4D51D"/><stop offset=".14" stop-color="#F4CC1E"/><stop offset=".37" stop-color="#F5B523"/><stop offset=".65" stop-color="#F68F29"/><stop offset=".69" stop-color="#F6892A"/><stop offset="1" stop-color="#FF1E4F"/></linearGradient><clipPath id="a"><path fill="#fff" d="M0 0h360v1774H0z"/></clipPath></defs></svg>