<svg width="1366" height="879" fill="none" xmlns="http://www.w3.org/2000/svg"><g clip-path="url(#a)"><path d="M1384.4-3.12H-33.32v883.338H1384.4V-3.121Z" fill="url(#b)"/><path opacity=".05" d="M-76.901 402.647c14.175-.043 28.173 2.506 40.919 7.451 3.602-33.628 44.36-60.111 94.062-60.111 6.973.008 13.929.548 20.773 1.613 13.781-32.652 57.493-56.514 109.28-56.514 54.154 0 99.485 26.08 110.98 61.03 17.228-7.783 36.709-11.842 56.512-11.774 32.733 0 61.885 10.597 80.634 27.08 36.771 1.613 68.918 14.886 88.73 34.547 18.843-6.668 39.244-10.081 59.861-10.016 49.661 0 92.827 19.201 114.744 47.418 2.012-.22 4.04-.33 6.071-.331 1.83.003 3.658.092 5.474.266 5.96-23.088 35.202-40.627 70.405-40.627 14.657-.068 29.049 3.115 41.567 9.193 12.739-27.047 49.509-46.563 92.918-46.563 47.607 0 87.251 23.524 95.821 54.635 20.43-12.37 47.2-19.878 76.52-19.878 15.63-.041 31.15 2.144 45.81 6.451 9.54-20.451 37.34-35.256 70.18-35.256 30.69 0 56.98 12.902 68.07 31.329 14.29-15.249 39.13-25.354 67.42-25.354 34.16 0 63.31 14.734 74.88 35.483 10.97-4.695 23.23-7.129 35.68-7.081 26.31 0 49.09 10.435 60.12 25.628 14.92-23.45 48.87-39.829 88.39-39.829 24.28 0 46.42 6.177 63.38 16.371 7.62-10.589 23.45-17.863 41.76-17.863 15.6 0 29.41 5.291 37.87 13.411 8.76-19.039 34.59-32.845 65.11-32.845 34.95 0 63.74 18.12 67.79 41.482a92.484 92.484 0 0 1 9.49-2.992v467.935H-85.441V402.953c2.813-.202 5.676-.306 8.54-.306Z" fill="#000"/><path opacity=".2" d="M1673.85 604.107c-13.71.002-27.32 1.87-40.25 5.524-12.87-48.49-59.34-84.408-114.72-84.408-30.72 0-58.69 11.056-79.73 29.184-28.05-51.611-85-86.9-150.67-86.9-74.29 0-137.4 45.16-160.16 107.988-30.87-30.942-74.67-50.272-123.26-50.272-67.65 0-126.024 37.466-153.101 91.609a110.84 110.84 0 0 0-16.169-1.177c-18.322.065-36.195 4.519-51.301 12.782-4.543-57.716-55.652-103.222-117.932-103.222-8.797.002-17.556.921-26.055 2.733-17.201-56.038-72.054-96.996-137.015-96.996-67.925 0-124.761 44.764-139.18 104.738-20.308-12.693-44.653-20.088-70.829-20.088-41.061 0-77.62 18.177-101.186 46.466-46.1 2.742-86.422 25.556-111.303 59.296-22.526-11.218-48.538-17.195-75.1-17.257-62.29 0-116.363 32.95-143.885 81.376a51.845 51.845 0 0 0-14.531-.105c-7.477-39.628-44.147-69.723-88.294-69.723-19.448 0-37.438 5.854-52.13 15.773-15.876-46.369-61.997-79.908-116.424-79.908-59.699 0-109.422 40.37-120.178 93.755-25.61-21.233-59.183-34.112-95.954-34.112-19.984.022-39.675 3.837-57.442 11.129-11.677-34.289-45.22-59.297-85.138-60.442v159.365c-1.012 4.903-1.811 9.911-2.286 14.992a131.1 131.1 0 0 0-.577 12.201 130.526 130.526 0 0 0 2.954 27.193v296.129H1725.81V613.461c-16.24-6.144-33.99-9.339-51.96-9.354Z" fill="#fff"/><path opacity=".05" d="M-580.743 259.297c18.908.003 37.454 4.131 53.629 11.935 4.745-53.885 58.12-96.359 123.274-96.359 9.173-.003 18.314.849 27.239 2.54 18.051-52.321 75.352-90.553 143.258-90.553 71.001 0 130.407 41.789 145.494 97.778 21.66-12.187 47.522-18.736 74.037-18.749 42.913 0 81.13 16.935 105.708 43.378 48.185 2.556 90.338 23.854 116.302 55.352 24.035-10.579 51.043-16.128 78.5-16.128 65.113 0 121.685 30.757 150.412 75.973a60.851 60.851 0 0 1 8.014-.532 61.76 61.76 0 0 1 7.174.427c7.811-36.99 46.15-65.086 92.291-65.086 19.695.022 38.838 5.195 54.488 14.725 16.604-43.289 64.809-74.602 121.695-74.602 62.421 0 114.339 37.684 125.622 87.529 26.773-19.822 61.864-31.846 100.304-31.846 20.737-.005 41.232 3.545 60.092 10.411 12.5-32.765 48.96-56.49 91.99-56.49 40.23 0 74.7 20.725 89.25 50.192 18.71-24.426 51.29-40.611 88.36-40.611 44.77 0 82.97 23.604 98.15 56.844 13.84-7.387 30.12-11.335 46.78-11.346 34.49 0 64.34 16.725 78.8 41.063 19.55-37.563 64.06-63.812 115.86-63.812 31.8 0 60.86 9.895 83.08 26.233 9.99-16.935 30.75-28.628 54.74-28.628 20.46 0 38.55 8.483 49.64 21.499 11.48-30.515 45.34-52.627 85.34-52.627 45.83 0 83.59 29.031 88.86 66.457 4-1.846 8.16-3.463 12.45-4.838v749.694H-591.934V259.781c3.717-.323 7.453-.485 11.191-.484Z" fill="#000"/><path opacity=".2" d="M2282.54 705.031a194.495 194.495 0 0 0-39.06 3.919c-12.49-34.402-57.62-59.877-111.38-59.877-29.83 0-57 7.846-77.4 20.701-27.24-36.604-82.52-61.651-146.29-61.651-72.12 0-133.39 32.047-155.49 76.61-29.97-21.959-72.49-35.668-119.66-35.668-65.68 0-122.35 26.612-148.65 64.989-5.19-.547-10.42-.816-15.65-.806-17.26-.054-34.3 3.049-49.81 9.072-4.41-40.95-53.98-73.223-114.5-73.223-8.49-.004-16.96.644-25.3 1.936-16.76-39.765-69.99-68.796-133.05-68.796-65.95 0-121.13 31.757-135.14 74.303-20.981-9.45-44.701-14.362-68.803-14.249-39.857 0-75.353 12.903-98.15 32.958-44.754 1.952-83.902 18.137-108.025 42.071-22.945-8.144-47.796-12.319-72.914-12.249-60.468 0-113.014 23.386-139.696 57.732a68.252 68.252 0 0 0-14.105-.073c-7.255-28.12-42.862-49.466-85.714-49.466-17.841-.083-35.359 3.793-50.593 11.193-15.431-32.934-60.205-56.74-113.044-56.74-57.969 0-106.244 28.636-116.667 66.514-24.871-15.064-57.463-24.193-93.16-24.193-19.034-.038-37.922 2.636-55.774 7.895-11.343-24.321-43.904-42.063-82.658-42.877v113.052a68.016 68.016 0 0 0-2.216 10.637 68.311 68.311 0 0 0-.567 8.653 68.59 68.59 0 0 0 2.783 19.289v210.083H2333.01V711.676c-16.25-4.427-33.3-6.673-50.47-6.645Z" fill="#fff"/><path d="M1107.07 562.076c.2.315 3.94-1.556 9.38-2.137 2.83-.306 5.5-.556 7.98.629 1.57.868 2.9 1.986 3.91 3.282.46.533 1.11 1.42 2.41 3.226 1.02 1.427 1.58 2.145 1.59 2.169.18.065 1.1-1.29 1.75-2.121.87-1.093 1.93-2.08 3.15-2.927 1.69-1.077 3.69-1.793 5.82-2.081 2.08-.246 4.2-.111 6.21.396 1.96.438 3.83 1.115 5.54 2.008.81.397 1.55.889 2.19 1.459.07.065.18.178.21.162a12.012 12.012 0 0 0-1.72-2.767c-2.11-2.564-5.89-3.354-7.73-3.741-5.13-1.089-10.12-.121-11.83 1.064l-1.89 1.371a24.583 24.583 0 0 0-4.05-3.33c-1.91-1.141-4.2-1.828-6.58-1.984-1.64-.097-3.42.088-7.42 1.129a32.897 32.897 0 0 0-6.76 2.742c-.3.137-2.26 1.193-2.16 1.451Zm-256.973-12.951c.222.25 3.207-1.694 7.852-2.677 2.408-.508 4.705-.968 7.022-.17 1.484.596 2.794 1.434 3.845 2.46.486.411 1.174 1.113 2.56 2.524l1.68 1.718a8.884 8.884 0 0 0 1.224-1.976 11.78 11.78 0 0 1 2.327-2.79c1.316-1.075 2.952-1.866 4.756-2.299a15.375 15.375 0 0 1 5.454-.225c1.755.205 3.461.621 5.059 1.233a8.964 8.964 0 0 1 2.105 1.049c.071.048.182.137.202.121a10.248 10.248 0 0 0-1.882-2.218c-2.195-2.008-5.585-2.347-7.245-2.516-4.604-.468-8.833.806-10.118 1.976l-1.457 1.338a24.461 24.461 0 0 0-4.048-2.483c-1.833-.804-3.909-1.189-6-1.113-1.437.072-2.955.379-6.284 1.613a27.196 27.196 0 0 0-5.484 2.951c-.131.21-1.71 1.299-1.568 1.484Zm282.523 38.023c.24.363 4.51-1.806 10.73-2.492 3.24-.363 6.3-.669 9.11.685 1.81.98 3.34 2.249 4.5 3.726.54.613 1.3 1.613 2.8 3.653 1.22 1.613 1.83 2.42 1.84 2.484.01.065 0 0 0 .048.21.073 1.24-1.491 2.02-2.419.98-1.254 2.19-2.387 3.58-3.363 1.91-1.25 4.2-2.084 6.64-2.419 2.37-.291 4.79-.15 7.08.411 2.26.495 4.41 1.265 6.37 2.283.94.447 1.78 1.004 2.52 1.653.08.072.2.201.24.185a13.764 13.764 0 0 0-2.02-3.161c-2.44-2.919-6.77-3.814-8.89-4.25-5.88-1.209-11.63-.08-13.54 1.282l-2.15 1.613a29.995 29.995 0 0 0-4.73-3.79c-2.2-1.295-4.82-2.072-7.55-2.242-1.88-.097-3.91.121-8.49 1.331-2.73.792-5.32 1.86-7.72 3.177-.21.121-2.52 1.339-2.34 1.605Zm-671.631 46.563c.334.274 3.501-2.613 8.955-4.573 2.823-1.016 5.524-1.951 8.57-1.322 1.976.5 3.799 1.324 5.353 2.419.698.435 1.73 1.201 3.794 2.734 1.649 1.233 2.479 1.854 2.499 1.879.021.024 0 0 0 0 .223 0 .638-1.613 1.012-2.654a12.93 12.93 0 0 1 2.145-3.838c1.324-1.547 3.13-2.792 5.242-3.613a18.273 18.273 0 0 1 6.638-1.145c2.222-.03 4.438.215 6.566.726 1.009.21 1.973.536 2.864.968.091.048.253.145.283.121a15.326 15.326 0 0 0-2.883-2.468c-3.208-2.137-7.458-2.032-9.532-1.976-5.778.153-10.645 2.419-11.92 4.032-.131.162-1.437 1.895-1.437 1.895a33.591 33.591 0 0 0-5.585-2.419 17.233 17.233 0 0 0-7.65-.435c-1.75.314-3.531.943-7.295 3.024a30.755 30.755 0 0 0-5.98 4.548c-.213.282-1.892 1.887-1.639 2.097Zm-29.94-16.556c.182.218 2.712-1.323 6.567-2.024 2.023-.363 3.906-.686 5.777.048 1.187.541 2.22 1.271 3.036 2.145.374.363.921.968 2.024 2.178l1.315 1.475s.678-.984 1.083-1.613a10.058 10.058 0 0 1 2.024-2.266c1.135-.862 2.528-1.478 4.047-1.79a12.517 12.517 0 0 1 4.493 0c1.45.214 2.849.606 4.148 1.161a7.238 7.238 0 0 1 1.69.928c.051 0 .142.121.162.113a8.75 8.75 0 0 0-1.457-1.904c-1.73-1.733-4.503-2.104-5.859-2.29-3.774-.508-7.305.444-8.408 1.379l-1.245 1.081a19.976 19.976 0 0 0-3.218-2.178c-1.469-.718-3.163-1.092-4.887-1.08-1.184 0-2.449.234-5.241 1.193a22.615 22.615 0 0 0-4.624 2.315c-.213.08-1.579.968-1.427 1.129Zm-324.613 82.473c.172.201 2.53-1.299 6.162-2.017 1.892-.37 3.683-.701 5.474-.048 1.152.491 2.162 1.17 2.965 1.992.364.331.89.895 1.943 2.024l1.285 1.379s.617-.944 1.012-1.54a9.085 9.085 0 0 1 1.861-2.178c1.038-.832 2.327-1.438 3.744-1.758a12.017 12.017 0 0 1 4.25-.112c1.378.181 2.713.532 3.956 1.04a6.767 6.767 0 0 1 1.619.855c.051.04.142.104.162.096a8.92 8.92 0 0 0-1.426-1.774c-1.68-1.613-4.321-1.927-5.606-2.08-3.582-.42-6.901.532-7.923 1.435l-1.153 1.04a19.706 19.706 0 0 0-3.097-2.008c-1.41-.656-3.022-.986-4.654-.951a15.53 15.53 0 0 0-4.928 1.209 21.307 21.307 0 0 0-4.321 2.275c-.182.137-1.446.975-1.325 1.121Zm-15.724 13.314c.152.185 2.297-1.194 5.616-1.863 1.72-.355 3.36-.661 4.998-.073 1.05.447 1.974 1.062 2.712 1.807.344.306.83.806 1.791 1.846a35.042 35.042 0 0 1 1.184 1.25c.01.016 0 0 0 0 .364-.444.663-.92.89-1.419a8.362 8.362 0 0 1 1.69-1.992c.945-.761 2.119-1.316 3.41-1.613a10.753 10.753 0 0 1 3.886-.113c1.257.159 2.475.472 3.612.928a6.216 6.216 0 0 1 1.487.806s.132.097.142.089a7.426 7.426 0 0 0-1.315-1.613c-1.538-1.46-3.947-1.734-5.12-1.871-3.279-.371-6.304.516-7.235 1.347l-1.012.951a18.163 18.163 0 0 0-2.843-1.822 9.795 9.795 0 0 0-4.26-.807 13.81 13.81 0 0 0-4.493 1.129 18.984 18.984 0 0 0-3.936 2.081c-.172.081-1.325.815-1.204.952Z" fill="#4D4D4D"/></g><defs><linearGradient id="b" x1="675.543" y1="-3.121" x2="675.543" y2="880.226" gradientUnits="userSpaceOnUse"><stop stop-color="#F4D51D"/><stop offset=".14" stop-color="#F4CC1E"/><stop offset=".37" stop-color="#F5B523"/><stop offset=".65" stop-color="#F68F29"/><stop offset=".69" stop-color="#F6892A"/><stop offset="1" stop-color="#FF1E4F"/></linearGradient><clipPath id="a"><path fill="#fff" d="M0 0h1366v879H0z"/></clipPath></defs></svg>