<svg width="1024" height="757" viewBox="0 0 1024 757" fill="none" xmlns="http://www.w3.org/2000/svg">
<path d="M1052.66 67.4646H-74.3545V700.765H1052.66V67.4646Z" fill="url(#paint0_linear_257_20565)"/>
<path d="M961.516 711.402C991.801 711.402 1016.35 686.876 1016.35 656.622C1016.35 626.367 991.801 601.841 961.516 601.841C931.231 601.841 906.68 626.367 906.68 656.622C906.68 686.876 931.231 711.402 961.516 711.402Z" fill="url(#paint1_radial_257_20565)"/>
<path opacity="0.49" d="M519.706 205.937C537.025 188.636 537.025 160.585 519.706 143.285C502.387 125.984 474.308 125.984 456.99 143.285C439.671 160.585 439.671 188.636 456.99 205.937C474.308 223.238 502.387 223.238 519.706 205.937Z" fill="url(#paint2_radial_257_20565)"/>
<path opacity="0.49" d="M73.0794 681.772C97.5716 681.772 117.426 661.937 117.426 637.47C117.426 613.003 97.5716 593.169 73.0794 593.169C48.5873 593.169 28.7324 613.003 28.7324 637.47C28.7324 661.937 48.5873 681.772 73.0794 681.772Z" fill="url(#paint3_radial_257_20565)"/>
<path d="M807.567 177.014C807.379 173.721 806.217 170.558 804.229 167.924C802.241 165.291 799.515 163.306 796.398 162.221C793.28 161.135 789.91 160.998 786.714 161.827C783.518 162.655 780.64 164.412 778.444 166.875C776.248 169.338 774.833 172.397 774.377 175.663C773.922 178.93 774.447 182.259 775.885 185.227C777.324 188.196 779.612 190.672 782.46 192.341C785.307 194.011 788.586 194.799 791.883 194.606C796.296 194.347 800.427 192.349 803.368 189.051C806.308 185.753 807.819 181.424 807.567 177.014Z" fill="url(#paint4_radial_257_20565)"/>
<path opacity="0.06" d="M792.909 178.879C792.571 179.245 792.103 179.467 791.605 179.496C791.106 179.526 790.615 179.362 790.236 179.038C789.856 178.714 789.617 178.255 789.568 177.759C789.519 177.262 789.665 176.766 789.974 176.375C790.667 175.566 855.899 102.865 855.922 102.888C856.181 103.105 793.602 178.064 792.909 178.879Z" fill="white"/>
<path opacity="0.13" d="M792.857 178.832C792.698 179.017 792.504 179.17 792.286 179.281C792.068 179.391 791.831 179.458 791.587 179.477C791.344 179.496 791.099 179.467 790.866 179.392C790.634 179.316 790.419 179.196 790.233 179.037C790.047 178.878 789.894 178.685 789.784 178.467C789.673 178.25 789.606 178.012 789.587 177.769C789.568 177.525 789.597 177.281 789.672 177.049C789.748 176.816 789.869 176.601 790.027 176.416C790.697 175.636 851.614 107.808 851.661 107.808C851.914 108.049 793.526 178.046 792.857 178.832Z" fill="white"/>
<path opacity="0.19" d="M792.804 178.785C792.649 178.964 792.462 179.111 792.25 179.217C792.039 179.324 791.81 179.388 791.574 179.405C791.338 179.423 791.101 179.394 790.877 179.32C790.652 179.247 790.444 179.129 790.265 178.975C790.086 178.821 789.939 178.634 789.832 178.423C789.725 178.212 789.661 177.982 789.644 177.747C789.626 177.511 789.655 177.275 789.729 177.05C789.803 176.826 789.92 176.618 790.074 176.439C790.72 175.689 847.329 112.675 847.399 112.734C847.675 112.992 793.443 178.034 792.804 178.785Z" fill="white"/>
<path opacity="0.25" d="M792.751 178.738C792.608 178.922 792.429 179.076 792.225 179.189C792.021 179.303 791.796 179.374 791.564 179.398C791.331 179.422 791.097 179.398 790.874 179.329C790.651 179.26 790.444 179.146 790.266 178.995C790.089 178.844 789.944 178.658 789.84 178.449C789.736 178.24 789.676 178.012 789.663 177.779C789.65 177.546 789.684 177.313 789.764 177.094C789.844 176.875 789.967 176.674 790.127 176.504C790.714 175.783 843.044 117.613 843.138 117.695C843.426 117.935 793.367 178.017 792.751 178.738Z" fill="white"/>
<path opacity="0.31" d="M792.698 178.697C792.406 179.003 792.007 179.185 791.585 179.206C791.162 179.228 790.747 179.087 790.425 178.812C790.103 178.537 789.899 178.149 789.855 177.729C789.81 177.308 789.929 176.887 790.186 176.551C790.773 175.859 838.765 122.533 838.906 122.632C839.17 122.879 793.291 177.999 792.698 178.697Z" fill="white"/>
<path opacity="0.38" d="M792.628 178.65C792.355 178.97 791.966 179.168 791.547 179.201C791.127 179.234 790.712 179.099 790.392 178.826C790.072 178.553 789.874 178.164 789.841 177.745C789.808 177.326 789.943 176.911 790.216 176.592C790.803 175.929 834.463 127.446 834.604 127.57C834.921 127.822 793.215 177.987 792.628 178.65Z" fill="white"/>
<path opacity="0.44" d="M792.593 178.603C792.332 178.909 791.961 179.098 791.56 179.13C791.159 179.162 790.762 179.034 790.456 178.773C790.15 178.513 789.961 178.141 789.929 177.741C789.897 177.341 790.025 176.944 790.286 176.639C790.832 176.005 830.201 132.366 830.36 132.507C830.665 132.771 793.139 177.97 792.593 178.603Z" fill="white"/>
<path opacity="0.5" d="M792.54 178.562C792.419 178.715 792.269 178.842 792.097 178.935C791.926 179.029 791.738 179.086 791.543 179.105C791.349 179.124 791.153 179.104 790.967 179.045C790.781 178.986 790.608 178.891 790.46 178.764C790.312 178.637 790.191 178.482 790.104 178.307C790.017 178.133 789.967 177.942 789.956 177.748C789.944 177.553 789.972 177.358 790.038 177.175C790.104 176.991 790.206 176.823 790.339 176.68C790.856 176.093 825.911 137.28 826.098 137.438C826.415 137.714 793.063 177.952 792.54 178.562Z" fill="white"/>
<path opacity="0.56" d="M792.487 178.515C792.241 178.743 791.919 178.873 791.583 178.881C791.247 178.889 790.92 178.775 790.663 178.559C790.406 178.343 790.236 178.04 790.186 177.709C790.136 177.377 790.209 177.038 790.392 176.756C790.885 176.17 821.631 142.229 821.837 142.411C822.165 142.657 792.98 177.94 792.487 178.515Z" fill="white"/>
<path opacity="0.63" d="M792.434 178.474C792.326 178.614 792.19 178.731 792.035 178.817C791.881 178.904 791.71 178.957 791.534 178.976C791.357 178.994 791.179 178.977 791.01 178.924C790.84 178.872 790.684 178.785 790.549 178.67C790.414 178.555 790.304 178.414 790.225 178.256C790.146 178.097 790.101 177.924 790.091 177.747C790.081 177.57 790.107 177.393 790.168 177.227C790.229 177.061 790.323 176.908 790.444 176.779C790.914 176.228 817.346 147.126 817.581 147.325C817.91 147.601 792.904 177.923 792.434 178.474Z" fill="white"/>
<path opacity="0.69" d="M792.382 178.427C792.168 178.677 791.863 178.831 791.535 178.856C791.207 178.882 790.883 178.776 790.633 178.562C790.383 178.348 790.228 178.044 790.203 177.716C790.178 177.389 790.284 177.064 790.498 176.815C790.944 176.293 813.062 152.034 813.32 152.251C813.578 152.468 792.828 177.905 792.382 178.427Z" fill="white"/>
<path opacity="0.75" d="M792.329 178.38C792.238 178.521 792.117 178.64 791.976 178.73C791.835 178.82 791.676 178.878 791.51 178.902C791.344 178.925 791.175 178.913 791.014 178.866C790.853 178.819 790.705 178.738 790.578 178.628C790.451 178.519 790.349 178.384 790.279 178.232C790.209 178.08 790.172 177.915 790.171 177.747C790.17 177.58 790.205 177.414 790.273 177.261C790.342 177.109 790.442 176.972 790.568 176.861C790.985 176.369 808.765 156.954 809.076 157.194C809.387 157.434 792.752 177.888 792.329 178.38Z" fill="white"/>
<path opacity="0.81" d="M792.276 178.339C792.084 178.556 791.815 178.688 791.527 178.709C791.238 178.729 790.953 178.635 790.733 178.448C790.513 178.26 790.375 177.994 790.35 177.706C790.325 177.418 790.413 177.132 790.597 176.908C790.991 176.445 804.491 161.873 804.796 162.131C805.102 162.389 792.675 177.876 792.276 178.339Z" fill="white"/>
<path opacity="0.88" d="M792.223 178.292C792.139 178.406 792.032 178.502 791.909 178.573C791.786 178.644 791.65 178.689 791.509 178.705C791.368 178.721 791.226 178.708 791.09 178.667C790.954 178.625 790.829 178.557 790.721 178.465C790.613 178.373 790.525 178.259 790.463 178.132C790.401 178.004 790.365 177.866 790.359 177.724C790.353 177.582 790.376 177.441 790.427 177.309C790.478 177.177 790.556 177.056 790.656 176.955C791.026 176.521 800.212 166.793 800.541 167.069C800.869 167.344 792.593 177.858 792.223 178.292Z" fill="white"/>
<path opacity="0.94" d="M792.17 178.245C792.001 178.426 791.768 178.535 791.521 178.549C791.273 178.562 791.03 178.48 790.842 178.319C790.653 178.158 790.534 177.931 790.51 177.684C790.485 177.438 790.556 177.192 790.709 176.996C791.055 176.592 795.927 171.719 796.279 172.006C796.632 172.294 792.517 177.841 792.17 178.245Z" fill="white"/>
<path d="M792.117 178.204C792.002 178.34 791.85 178.438 791.678 178.487C791.507 178.536 791.326 178.532 791.156 178.478C790.987 178.423 790.838 178.32 790.728 178.18C790.617 178.041 790.551 177.872 790.537 177.695C790.523 177.518 790.562 177.34 790.649 177.185C790.736 177.03 790.867 176.905 791.026 176.824C791.184 176.744 791.363 176.712 791.54 176.733C791.716 176.755 791.883 176.828 792.017 176.944C792.197 177.098 792.309 177.317 792.328 177.553C792.346 177.79 792.271 178.024 792.117 178.204Z" fill="white"/>
<path d="M628.728 622.975C628.47 618.569 626.91 614.338 624.245 610.817C621.58 607.297 617.929 604.645 613.756 603.197C609.582 601.748 605.072 601.569 600.796 602.681C596.52 603.794 592.671 606.147 589.734 609.445C586.797 612.743 584.905 616.837 584.297 621.209C583.69 625.58 584.393 630.034 586.319 634.007C588.245 637.979 591.306 641.292 595.117 643.526C598.927 645.761 603.315 646.816 607.726 646.559C613.641 646.213 619.177 643.534 623.116 639.112C627.054 634.689 629.073 628.884 628.728 622.975Z" fill="url(#paint5_radial_257_20565)"/>
<path opacity="0.06" d="M609.1 625.461C608.655 625.982 608.02 626.305 607.337 626.359C606.653 626.413 605.976 626.193 605.455 625.748C604.933 625.304 604.61 624.67 604.556 623.987C604.502 623.304 604.722 622.628 605.167 622.107C606.094 621.016 693.427 523.676 693.474 523.705C693.826 523.998 610.027 624.376 609.1 625.461Z" fill="white"/>
<path opacity="0.13" d="M609.029 625.402C608.819 625.661 608.56 625.875 608.266 626.031C607.972 626.188 607.65 626.284 607.319 626.315C606.987 626.345 606.653 626.309 606.335 626.208C606.018 626.107 605.724 625.944 605.471 625.728C605.218 625.511 605.01 625.247 604.861 624.949C604.712 624.652 604.624 624.328 604.602 623.996C604.58 623.664 604.625 623.331 604.734 623.017C604.843 622.702 605.014 622.413 605.237 622.166C606.129 621.122 687.709 530.261 687.774 530.314C688.143 530.618 609.921 624.353 609.029 625.402Z" fill="white"/>
<path opacity="0.19" d="M608.959 625.338C608.536 625.791 607.954 626.064 607.335 626.1C606.716 626.135 606.107 625.93 605.635 625.528C605.163 625.125 604.865 624.556 604.803 623.94C604.741 623.323 604.92 622.707 605.302 622.218C606.165 621.21 681.968 536.834 682.062 536.916C682.438 537.239 609.822 624.335 608.959 625.338Z" fill="white"/>
<path opacity="0.25" d="M608.9 625.279C608.704 625.51 608.463 625.7 608.193 625.839C607.923 625.977 607.629 626.061 607.326 626.085C607.024 626.11 606.719 626.074 606.43 625.981C606.141 625.888 605.874 625.74 605.642 625.543C605.411 625.347 605.221 625.107 605.083 624.837C604.944 624.567 604.86 624.273 604.836 623.971C604.811 623.668 604.846 623.364 604.94 623.076C605.033 622.787 605.182 622.52 605.378 622.289C606.206 621.321 676.24 543.431 676.363 543.537C676.744 543.859 609.716 624.312 608.9 625.279Z" fill="white"/>
<path opacity="0.31" d="M608.818 625.221C608.629 625.442 608.398 625.623 608.139 625.755C607.88 625.887 607.597 625.967 607.307 625.99C607.017 626.013 606.726 625.978 606.449 625.889C606.172 625.799 605.916 625.656 605.695 625.467C605.474 625.278 605.292 625.048 605.16 624.789C605.028 624.53 604.948 624.248 604.925 623.958C604.902 623.669 604.936 623.377 605.026 623.101C605.116 622.824 605.259 622.568 605.448 622.347C606.241 621.421 670.498 550.016 670.657 550.151C671.05 550.48 609.61 624.288 608.818 625.221Z" fill="white"/>
<path opacity="0.38" d="M608.747 625.162C608.57 625.386 608.349 625.572 608.098 625.709C607.847 625.846 607.571 625.931 607.287 625.959C607.002 625.987 606.715 625.957 606.442 625.871C606.17 625.785 605.917 625.645 605.7 625.46C605.482 625.274 605.305 625.047 605.177 624.791C605.05 624.535 604.976 624.256 604.959 623.971C604.942 623.686 604.983 623.401 605.079 623.132C605.175 622.863 605.325 622.616 605.519 622.406C606.282 621.515 664.764 556.596 664.951 556.73C665.357 557.1 609.487 624.271 608.747 625.162Z" fill="white"/>
<path opacity="0.44" d="M608.677 625.121C608.504 625.324 608.292 625.49 608.054 625.611C607.816 625.732 607.557 625.804 607.291 625.825C607.025 625.846 606.757 625.814 606.504 625.731C606.25 625.649 606.015 625.517 605.812 625.344C605.61 625.171 605.443 624.959 605.322 624.722C605.201 624.484 605.128 624.225 605.108 623.959C605.087 623.693 605.119 623.426 605.202 623.173C605.284 622.919 605.416 622.685 605.589 622.482C606.317 621.632 659.005 563.198 659.252 563.386C659.663 563.72 609.405 624.247 608.677 625.121Z" fill="white"/>
<path opacity="0.5" d="M608.607 625.039C608.449 625.254 608.249 625.433 608.018 625.567C607.788 625.701 607.532 625.785 607.267 625.816C607.002 625.846 606.734 625.822 606.479 625.744C606.224 625.666 605.988 625.537 605.786 625.364C605.583 625.19 605.419 624.977 605.302 624.738C605.186 624.498 605.121 624.237 605.11 623.971C605.099 623.705 605.144 623.44 605.24 623.192C605.337 622.944 605.484 622.718 605.672 622.529C606.364 621.714 653.306 569.754 653.558 569.983C653.969 570.341 609.299 624.224 608.607 625.039Z" fill="white"/>
<path opacity="0.56" d="M608.536 624.98C608.379 625.164 608.187 625.316 607.971 625.426C607.756 625.535 607.52 625.602 607.279 625.621C607.037 625.64 606.794 625.611 606.564 625.537C606.334 625.462 606.12 625.343 605.936 625.185C605.752 625.028 605.6 624.837 605.49 624.621C605.38 624.405 605.314 624.17 605.295 623.929C605.276 623.688 605.304 623.445 605.379 623.215C605.454 622.985 605.573 622.772 605.731 622.588C606.394 621.814 647.559 576.351 647.841 576.597C648.27 576.961 609.2 624.206 608.536 624.98Z" fill="white"/>
<path opacity="0.63" d="M608.465 624.922C608.325 625.123 608.143 625.292 607.933 625.419C607.723 625.546 607.488 625.627 607.245 625.658C607.001 625.689 606.754 625.669 606.519 625.598C606.283 625.528 606.065 625.41 605.879 625.25C605.692 625.091 605.541 624.894 605.435 624.673C605.329 624.452 605.27 624.211 605.263 623.966C605.255 623.72 605.299 623.476 605.392 623.249C605.484 623.022 605.624 622.817 605.8 622.646C606.428 621.913 641.824 582.936 642.135 583.206C642.575 583.581 609.093 624.183 608.465 624.922Z" fill="white"/>
<path opacity="0.69" d="M608.395 624.857C608.254 625.025 608.081 625.164 607.886 625.264C607.691 625.365 607.478 625.427 607.259 625.445C607.04 625.463 606.82 625.437 606.611 625.37C606.402 625.302 606.209 625.194 606.042 625.052C605.875 624.909 605.738 624.735 605.639 624.539C605.54 624.343 605.481 624.13 605.465 623.911C605.449 623.692 605.477 623.473 605.547 623.265C605.616 623.057 605.726 622.864 605.871 622.699C606.458 622.001 636.089 589.515 636.43 589.809C636.882 590.201 608.988 624.165 608.395 624.857Z" fill="white"/>
<path opacity="0.75" d="M608.313 624.798C608.193 624.989 608.033 625.15 607.844 625.273C607.655 625.396 607.442 625.476 607.219 625.509C606.996 625.543 606.769 625.527 606.553 625.464C606.336 625.402 606.136 625.293 605.966 625.146C605.795 624.999 605.658 624.817 605.564 624.613C605.47 624.408 605.422 624.186 605.422 623.961C605.422 623.736 605.47 623.514 605.564 623.309C605.658 623.104 605.795 622.922 605.965 622.775C606.552 622.119 630.372 596.118 630.754 596.435C631.135 596.751 608.9 624.142 608.313 624.798Z" fill="white"/>
<path opacity="0.81" d="M608.254 624.74C608.001 625.037 607.639 625.221 607.249 625.252C606.86 625.283 606.474 625.158 606.176 624.904C605.879 624.651 605.695 624.289 605.664 623.9C605.633 623.511 605.758 623.125 606.012 622.828C606.54 622.212 624.614 602.692 625.025 603.043C625.435 603.395 608.783 624.118 608.254 624.74Z" fill="white"/>
<path opacity="0.88" d="M608.184 624.681C607.946 624.96 607.607 625.132 607.241 625.161C606.876 625.189 606.514 625.072 606.235 624.834C605.956 624.596 605.784 624.257 605.755 623.892C605.727 623.527 605.844 623.165 606.082 622.887C606.576 622.3 618.879 609.277 619.319 609.652C619.759 610.027 608.677 624.101 608.184 624.681Z" fill="white"/>
<path opacity="0.94" d="M608.113 624.623C608.005 624.758 607.871 624.871 607.718 624.953C607.566 625.036 607.398 625.087 607.226 625.103C607.053 625.12 606.879 625.101 606.713 625.049C606.548 624.997 606.395 624.912 606.263 624.799C606.131 624.686 606.024 624.548 605.946 624.393C605.869 624.238 605.824 624.069 605.814 623.896C605.804 623.723 605.828 623.549 605.886 623.386C605.945 623.223 606.035 623.073 606.153 622.945C606.616 622.406 613.144 615.862 613.613 616.261C614.083 616.659 608.577 624.077 608.113 624.623Z" fill="white"/>
<path d="M608.043 624.535C607.89 624.706 607.69 624.829 607.468 624.888C607.245 624.947 607.011 624.94 606.793 624.867C606.575 624.793 606.383 624.658 606.241 624.477C606.099 624.296 606.014 624.077 605.996 623.848C605.978 623.619 606.027 623.39 606.138 623.188C606.249 622.987 606.417 622.823 606.621 622.716C606.824 622.609 607.055 622.565 607.284 622.588C607.513 622.611 607.73 622.701 607.908 622.846C608.031 622.946 608.132 623.07 608.206 623.21C608.279 623.35 608.324 623.504 608.336 623.661C608.349 623.819 608.33 623.978 608.279 624.128C608.229 624.278 608.148 624.416 608.043 624.535Z" fill="white"/>
<path d="M93.4774 450.559C93.2192 446.152 91.6588 441.922 88.9937 438.401C86.3286 434.881 82.6784 432.229 78.5046 430.78C74.3308 429.332 69.8209 429.153 65.5451 430.265C61.2694 431.378 57.4198 433.731 54.483 437.029C51.5463 440.327 49.6544 444.421 49.0465 448.792C48.4386 453.164 49.142 457.618 51.0677 461.591C52.9935 465.563 56.0552 468.876 59.8656 471.11C63.676 473.345 68.0641 474.4 72.4749 474.143C78.3904 473.797 83.9262 471.118 87.8647 466.695C91.8033 462.273 93.8222 456.468 93.4774 450.559Z" fill="url(#paint6_radial_257_20565)"/>
<path opacity="0.06" d="M73.8489 453.051C73.4036 453.572 72.7694 453.895 72.0858 453.949C71.4022 454.003 70.7252 453.783 70.2037 453.338C69.6821 452.893 69.3588 452.26 69.3049 451.577C69.251 450.894 69.4708 450.218 69.916 449.697C70.8435 448.618 158.193 351.277 158.223 351.277C158.575 351.588 74.7763 451.96 73.8489 453.051Z" fill="white"/>
<path opacity="0.13" d="M73.7776 452.986C73.3424 453.469 72.7356 453.763 72.0865 453.806C71.4374 453.848 70.7973 453.636 70.3028 453.214C69.8082 452.792 69.4983 452.193 69.4391 451.546C69.3798 450.899 69.576 450.254 69.9857 449.749C70.8779 448.706 152.458 357.845 152.522 357.897C152.88 358.208 74.6757 451.943 73.7776 452.986Z" fill="white"/>
<path opacity="0.19" d="M73.7077 452.928C73.2912 453.413 72.6989 453.713 72.0609 453.762C71.423 453.811 70.7918 453.605 70.3061 453.189C69.8203 452.773 69.5199 452.181 69.471 451.544C69.422 450.906 69.6284 450.276 70.0448 449.791C70.9077 448.782 146.711 364.406 146.805 364.488C147.187 364.829 74.5705 451.919 73.7077 452.928Z" fill="white"/>
<path opacity="0.25" d="M73.6376 452.869C73.2406 453.336 72.6743 453.626 72.0634 453.675C71.4524 453.724 70.8468 453.529 70.3798 453.133C69.9127 452.736 69.6225 452.171 69.573 451.56C69.5235 450.95 69.7186 450.345 70.1156 449.878C70.9433 448.911 140.977 371.021 141.1 371.126C141.493 371.449 74.4652 451.901 73.6376 452.869Z" fill="white"/>
<path opacity="0.31" d="M73.5667 452.81C73.3778 453.031 73.1472 453.213 72.8881 453.345C72.6289 453.477 72.3463 453.557 72.0563 453.58C71.7664 453.603 71.4747 453.568 71.198 453.478C70.9214 453.389 70.6651 453.245 70.4439 453.057C70.2226 452.868 70.0408 452.638 69.9087 452.379C69.7765 452.12 69.6968 451.838 69.6739 451.548C69.651 451.258 69.6854 450.967 69.7752 450.691C69.8651 450.414 70.0085 450.158 70.1973 449.937C70.9898 449.011 135.247 377.606 135.406 377.741C135.787 378.069 74.365 451.878 73.5667 452.81Z" fill="white"/>
<path opacity="0.38" d="M73.4966 452.722C73.1238 453.126 72.6093 453.369 72.0608 453.401C71.5124 453.434 70.9727 453.253 70.555 452.896C70.1373 452.54 69.8741 452.035 69.8206 451.489C69.7672 450.943 69.9275 450.397 70.2681 449.966C71.0312 449.075 129.513 384.156 129.701 384.291C130.106 384.701 74.2596 451.855 73.4966 452.722Z" fill="white"/>
<path opacity="0.44" d="M73.426 452.687C73.2526 452.89 73.0409 453.056 72.8031 453.177C72.5653 453.298 72.3059 453.371 72.0399 453.391C71.774 453.412 71.5065 453.38 71.2528 453.298C70.9991 453.215 70.7642 453.083 70.5615 452.91C70.3588 452.737 70.1922 452.525 70.0713 452.288C69.9503 452.05 69.8774 451.791 69.8567 451.525C69.836 451.26 69.8679 450.993 69.9505 450.739C70.0332 450.486 70.165 450.251 70.3384 450.049C71.0663 449.198 123.754 390.765 124.001 390.952C124.412 391.31 74.1539 451.837 73.426 452.687Z" fill="white"/>
<path opacity="0.5" d="M73.3557 452.629C73.011 452.975 72.5481 453.178 72.0598 453.198C71.5714 453.217 71.0936 453.052 70.7223 452.734C70.351 452.417 70.1136 451.971 70.0577 451.486C70.0017 451.001 70.1314 450.512 70.4207 450.119C71.1134 449.304 118.055 397.344 118.307 397.573C118.718 397.93 74.0542 451.814 73.3557 452.629Z" fill="white"/>
<path opacity="0.56" d="M73.2855 452.57C73.1282 452.754 72.9362 452.905 72.7204 453.015C72.5046 453.125 72.2693 453.192 72.0278 453.211C71.7864 453.23 71.5435 453.201 71.3131 453.126C71.0827 453.052 70.8693 452.932 70.6851 452.775C70.5009 452.618 70.3494 452.426 70.2394 452.211C70.1293 451.995 70.0629 451.76 70.0438 451.519C70.0247 451.278 70.0534 451.035 70.1282 450.805C70.203 450.575 70.3224 450.362 70.4797 450.177C71.1429 449.403 112.308 403.941 112.59 404.187C113.025 404.551 73.9488 451.796 73.2855 452.57Z" fill="white"/>
<path opacity="0.63" d="M73.2144 452.505C73.0736 452.706 72.8922 452.876 72.682 453.003C72.4718 453.129 72.2374 453.211 71.9938 453.242C71.7502 453.273 71.5028 453.252 71.2676 453.182C71.0323 453.112 70.8143 452.993 70.6276 452.834C70.441 452.675 70.2897 452.478 70.1836 452.257C70.0775 452.036 70.0189 451.795 70.0115 451.549C70.0042 451.304 70.0482 451.06 70.1409 450.833C70.2335 450.606 70.3727 450.401 70.5494 450.23C71.1775 449.497 106.573 410.52 106.884 410.79C107.33 411.171 73.8424 451.772 73.2144 452.505Z" fill="white"/>
<path opacity="0.69" d="M73.1439 452.447C72.856 452.776 72.4496 452.979 72.013 453.01C71.5765 453.042 71.1451 452.9 70.8125 452.616C70.48 452.332 70.2732 451.928 70.2371 451.492C70.201 451.056 70.3386 450.624 70.6198 450.289C71.2068 449.591 100.838 417.105 101.178 417.398C101.636 417.791 73.7426 451.749 73.1439 452.447Z" fill="white"/>
<path opacity="0.75" d="M73.0738 452.388C72.9401 452.545 72.7768 452.674 72.5932 452.767C72.4096 452.861 72.2093 452.918 72.0038 452.934C71.7983 452.95 71.5916 452.926 71.3955 452.863C71.1994 452.799 71.0177 452.698 70.8609 452.564C70.704 452.431 70.575 452.267 70.4813 452.084C70.3875 451.901 70.3309 451.7 70.3145 451.495C70.2982 451.29 70.3224 451.083 70.386 450.888C70.4495 450.692 70.551 450.51 70.6848 450.353C71.2718 449.697 95.0918 423.696 95.4733 424.013C95.9429 424.412 73.6373 451.731 73.0738 452.388Z" fill="white"/>
<path opacity="0.81" d="M72.9798 452.33C72.8542 452.477 72.7008 452.598 72.5283 452.685C72.3559 452.773 72.1679 452.826 71.9749 452.842C71.7819 452.857 71.5879 452.834 71.4038 452.774C71.2197 452.715 71.0491 452.619 70.9019 452.494C70.7547 452.368 70.6336 452.215 70.5457 452.043C70.4577 451.87 70.4046 451.683 70.3894 451.49C70.3741 451.297 70.397 451.103 70.4567 450.919C70.5165 450.735 70.6119 450.565 70.7375 450.418C71.2658 449.802 89.3392 430.281 89.7501 430.633C90.161 430.985 73.5316 451.708 72.9798 452.33Z" fill="white"/>
<path opacity="0.88" d="M72.9329 452.271C72.6948 452.549 72.3556 452.722 71.9901 452.75C71.6247 452.779 71.2628 452.661 70.9841 452.423C70.7055 452.185 70.5328 451.847 70.5042 451.482C70.4756 451.116 70.5933 450.755 70.8315 450.477C71.3246 449.89 83.6279 436.866 84.0681 437.242C84.5084 437.617 73.4319 451.69 72.9329 452.271Z" fill="white"/>
<path opacity="0.94" d="M72.8627 452.206C72.6362 452.452 72.323 452.601 71.9891 452.621C71.6552 452.64 71.3266 452.53 71.0725 452.313C70.8185 452.095 70.6587 451.788 70.6269 451.455C70.5952 451.123 70.6938 450.791 70.9021 450.529C71.3659 449.99 77.8932 443.446 78.3628 443.845C78.8324 444.243 73.3264 451.667 72.8627 452.206Z" fill="white"/>
<path d="M72.792 452.136C72.6391 452.308 72.439 452.431 72.2167 452.49C71.9944 452.549 71.7596 452.541 71.5416 452.468C71.3235 452.395 71.1318 452.259 70.9901 452.078C70.8485 451.897 70.7632 451.679 70.7449 451.45C70.7266 451.221 70.7761 450.991 70.8871 450.79C70.9982 450.589 71.166 450.425 71.3697 450.318C71.5734 450.211 71.804 450.166 72.0328 450.189C72.2617 450.212 72.4787 450.302 72.657 450.447C72.7798 450.547 72.8811 450.671 72.9547 450.811C73.0284 450.951 73.0728 451.105 73.0854 451.263C73.0981 451.421 73.0786 451.579 73.0281 451.729C72.9777 451.88 72.8974 452.018 72.792 452.136Z" fill="white"/>
<g opacity="0.2">
<path d="M-95.9792 377.289C-132.642 581.353 96.0483 459.255 193.811 441.792C244.439 433.073 303.789 422.611 322.996 480.16C340.453 534.225 302.046 590.026 340.453 637.113C368.153 670.613 413.239 676.166 439.906 707.808C469.308 742.727 505.273 752.174 549.931 756.173C589.201 759.692 630.214 753.007 640.879 708.523C649.59 672.167 619.038 649.949 586.289 647.539C526.094 643.117 437.987 669.393 410.275 596.998C387.606 537.749 448.682 487.155 425.989 433.096C406.788 387.756 333.468 368.593 288.076 365.075C179.841 358.097 97.7917 429.578 -6.95059 440.062C-69.7936 445.305 -80.2713 408.679 -87.2682 358.109C-97.7401 291.847 -165.825 333.691 -146.625 363.339" fill="url(#paint7_linear_257_20565)"/>
</g>
<g opacity="0.2">
<path d="M90.4426 216.155C65.9358 274.577 150.808 299.088 190.424 289.653C245.132 278.348 341.339 221.808 390.388 274.577C411.138 297.194 409.254 329.229 437.547 348.075C465.839 366.922 501.687 363.151 522.437 338.652C582.803 268.925 473.388 250.107 429.998 231.231C367.748 202.962 309.266 146.428 375.291 89.9116C396.052 72.9298 441.327 55.9714 445.095 23.9311C446.979 -13.7562 392.266 -21.2972 363.979 -25.0676C299.839 -30.7146 220.607 -11.8739 218.723 63.5065C216.839 120.04 282.863 193.538 199.857 221.832C148.924 236.908 133.833 182.256 96.1011 186.027C96.1011 204.873 84.784 263.295 111.193 263.295" fill="url(#paint8_linear_257_20565)"/>
</g>
<g opacity="0.2">
<path d="M763.067 194.981C720.363 221.955 522.577 388.073 601.246 437.47C682.156 486.868 814.763 376.85 888.935 448.694C938.383 498.091 886.686 578.919 972.093 617.087C1037.25 648.524 1149.65 592.389 1194.6 540.745C1255.29 475.656 1203.59 374.598 1118.18 423.989C1064.24 453.18 978.838 516.053 978.838 410.502C978.838 365.597 1026.04 230.88 942.879 255.578C907.982 265.834 880.423 290.762 854.508 315.091C828.856 339.18 799.167 360.7 775.088 385.974C754.726 407.348 737.521 422.67 704.902 418.677C677.566 415.328 654.943 396.98 655.442 367.843C656.27 319.553 708.078 302.847 735.42 274.02C754.925 253.438 793.167 201.965 754.08 181.511" fill="url(#paint9_linear_257_20565)"/>
</g>
<path opacity="0.83" d="M663.056 459.595L663.02 470.848C663.02 470.848 543.234 507.984 471.316 542.516C399.398 577.049 343.757 625.602 343.757 625.602L361.778 620.653C316.169 647.773 225.009 682.74 225.009 682.74V682.675C224.923 682.233 224.812 681.797 224.675 681.367C223.29 676.676 217.044 661.219 194.151 655.877C167.743 649.749 107.612 669.264 104.125 670.414C106.25 669.61 129.319 660.938 159.766 645.897C167.397 642.132 175.503 637.963 183.832 633.413C215.612 616.102 282.141 563.163 282.141 563.163L255.14 569.197L343.775 502.736L356.102 497.458C356.102 497.458 321.276 528.197 324.34 531.234C327.404 534.272 429.616 545.829 506.764 522.227C583.912 498.625 663.056 459.595 663.056 459.595Z" fill="#D64A43"/>
<path d="M486.672 535.403L369.661 568.517L390.311 569.414L301.547 601.372L312.283 590.964L233.855 633.958L293.341 611.218L343.763 625.602L307.775 639.194L248.618 646.055L290.881 647.011L256.39 664.081L219.662 661.559L225.015 682.751C225.015 682.751 340.811 636.38 361.784 620.664L343.781 625.614C343.781 625.614 414.965 564.26 486.672 535.403Z" fill="url(#paint10_linear_257_20565)"/>
<path d="M297.045 560.63L339.032 544.182L313.105 549.008L297.045 560.63Z" fill="url(#paint11_linear_257_20565)"/>
<path opacity="0.83" d="M610.702 107.808C610.702 107.808 506.553 181.623 475.554 196.523C475.554 196.523 506.183 178.257 527.015 144.012L523.616 154.76L578.828 105.539L581.91 108.87L646.221 85.7424L610.702 107.808Z" fill="url(#paint12_linear_257_20565)"/>
<path opacity="0.83" d="M578.823 105.533L565.076 124.796L581.459 115.842L520.042 160.143L523.611 154.76L578.823 105.533Z" fill="#D64A43"/>
<path opacity="0.83" d="M771.086 584.173L900.047 497.552L870.786 508.852L942.433 458.921C942.433 458.921 851.943 514.628 831.493 521.395C811.042 528.162 804.708 524.438 804.708 524.438L710.203 602.029L784.469 567.156L771.086 584.173Z" fill="url(#paint13_linear_257_20565)"/>
<path d="M942.415 458.921L965.413 436.925L994.551 421.304L942.415 458.921Z" fill="#D64A43"/>
<path d="M804.667 524.438L852.119 490.814L823.327 505.374L804.667 524.438Z" fill="#D64A43"/>
<path d="M442.895 382.784L490.341 349.16L461.549 363.72L442.895 382.784Z" fill="#D64A43"/>
<path opacity="0.83" d="M160.488 449.972L64.0511 521.512L75.8496 518.152L-2.64837 574.269L-2.68359 598.898C-2.68359 598.898 113.54 488.744 117.543 484.728C121.547 480.711 160.488 449.972 160.488 449.972Z" fill="url(#paint14_linear_257_20565)"/>
<path d="M15.5254 298.097C15.5254 298.097 81.1331 225.385 143.19 181.001C205.246 136.618 237.02 115.59 237.02 115.59C237.02 115.59 158.275 177.97 151.284 189.897C144.293 201.824 168.771 201.161 168.771 201.161L133.481 233.067L144.358 232.293L64.4333 285.338C64.4333 285.338 96.5122 258.334 101.619 249.621C106.726 240.907 90.5778 244.93 78.2393 248.155C65.9008 251.38 15.5254 298.097 15.5254 298.097Z" fill="url(#paint15_linear_257_20565)"/>
<path opacity="0.83" d="M126.272 206.844L178.397 156.009C118.271 191.193 56.6611 255.637 56.6611 255.637L92.0565 226.441L90.1371 236.11L110.547 221.925L107.77 231.712L155.14 207.84L126.736 211.945L133.698 204.445L126.272 206.844Z" fill="#D64A43"/>
<path d="M104.413 241.781L129.841 234.48L110.735 245.399L104.413 241.781Z" fill="#D64A43"/>
<path d="M60.7884 288.903L33.8984 309.462C33.8984 309.462 38.0602 299.3 42.4685 294.89C46.8768 290.48 60.7884 288.903 60.7884 288.903Z" fill="#D64A43"/>
<path d="M268.593 95.5586L237.7 115.22C237.7 115.22 243.13 104.665 248.266 100.314C253.402 95.9632 268.593 95.5586 268.593 95.5586Z" fill="#D64A43"/>
<path opacity="0.83" d="M607.016 316.833C607.016 316.833 758.459 217.375 890.244 166.916C1022.03 116.457 1088.75 93.6821 1088.75 93.6821C1088.75 93.6821 918.66 168.535 900.563 186.607C882.466 204.68 926.59 214.912 926.59 214.912L848.52 255.526L868.349 259.214L700.47 316.839C700.47 316.839 770.51 283.496 783.723 270.297C796.936 257.097 766.16 256.757 742.575 256.757C718.99 256.757 607.016 316.833 607.016 316.833Z" fill="#D64A43"/>
<defs>
<linearGradient id="paint0_linear_257_20565" x1="489.155" y1="84.6165" x2="489.155" y2="691.606" gradientUnits="userSpaceOnUse">
<stop stop-color="#DC5E88"/>
<stop offset="1" stop-color="#F6BB96"/>
</linearGradient>
<radialGradient id="paint1_radial_257_20565" cx="0" cy="0" r="1" gradientUnits="userSpaceOnUse" gradientTransform="translate(931.375 599.408) rotate(-61.3649) scale(115.305 115.369)">
<stop stop-color="#BC909B"/>
<stop offset="0.04" stop-color="#B6879A" stop-opacity="0.96"/>
<stop offset="0.27" stop-color="#955795" stop-opacity="0.73"/>
<stop offset="0.48" stop-color="#7C3190" stop-opacity="0.51"/>
<stop offset="0.68" stop-color="#6A168D" stop-opacity="0.31"/>
<stop offset="0.86" stop-color="#5F068C" stop-opacity="0.14"/>
<stop offset="0.99" stop-color="#5B008B" stop-opacity="0"/>
</radialGradient>
<radialGradient id="paint2_radial_257_20565" cx="0" cy="0" r="1" gradientUnits="userSpaceOnUse" gradientTransform="translate(544.107 174.38) rotate(54.7161) scale(93.4566 93.4885)">
<stop stop-color="#BC909B"/>
<stop offset="0.04" stop-color="#B6879A" stop-opacity="0.96"/>
<stop offset="0.27" stop-color="#955795" stop-opacity="0.73"/>
<stop offset="0.48" stop-color="#7C3190" stop-opacity="0.51"/>
<stop offset="0.68" stop-color="#6A168D" stop-opacity="0.31"/>
<stop offset="0.86" stop-color="#5F068C" stop-opacity="0.14"/>
<stop offset="0.99" stop-color="#5B008B" stop-opacity="0"/>
</radialGradient>
<radialGradient id="paint3_radial_257_20565" cx="0" cy="0" r="1" gradientUnits="userSpaceOnUse" gradientTransform="translate(98.9777 590.747) rotate(-4.0001) scale(93.3296 93.2353)">
<stop stop-color="#BC909B"/>
<stop offset="0.04" stop-color="#B6879A" stop-opacity="0.96"/>
<stop offset="0.27" stop-color="#955795" stop-opacity="0.73"/>
<stop offset="0.48" stop-color="#7C3190" stop-opacity="0.51"/>
<stop offset="0.68" stop-color="#6A168D" stop-opacity="0.31"/>
<stop offset="0.86" stop-color="#5F068C" stop-opacity="0.14"/>
<stop offset="0.99" stop-color="#5B008B" stop-opacity="0"/>
</radialGradient>
<radialGradient id="paint4_radial_257_20565" cx="0" cy="0" r="1" gradientUnits="userSpaceOnUse" gradientTransform="translate(790.908 177.977) rotate(-3.3366) scale(16.688 16.6711)">
<stop stop-color="white"/>
<stop offset="0.12" stop-color="white" stop-opacity="0.88"/>
<stop offset="1" stop-color="white" stop-opacity="0"/>
</radialGradient>
<radialGradient id="paint5_radial_257_20565" cx="0" cy="0" r="1" gradientUnits="userSpaceOnUse" gradientTransform="translate(606.451 624.279) rotate(-3.3366) scale(22.3407 22.3181)">
<stop stop-color="white"/>
<stop offset="0.12" stop-color="white" stop-opacity="0.88"/>
<stop offset="1" stop-color="white" stop-opacity="0"/>
</radialGradient>
<radialGradient id="paint6_radial_257_20565" cx="0" cy="0" r="1" gradientUnits="userSpaceOnUse" gradientTransform="translate(71.1849 451.897) rotate(-3.3366) scale(22.3407 22.3181)">
<stop stop-color="white"/>
<stop offset="0.12" stop-color="white" stop-opacity="0.88"/>
<stop offset="1" stop-color="white" stop-opacity="0"/>
</radialGradient>
<linearGradient id="paint7_linear_257_20565" x1="-150" y1="539.883" x2="642.382" y2="539.883" gradientUnits="userSpaceOnUse">
<stop stop-color="#4793FF"/>
<stop offset="0.25" stop-color="#046462" stop-opacity="0"/>
<stop offset="0.27" stop-color="#0F6B7B" stop-opacity="0.08"/>
<stop offset="0.31" stop-color="#2077A3" stop-opacity="0.22"/>
<stop offset="0.34" stop-color="#2E81C4" stop-opacity="0.36"/>
<stop offset="0.38" stop-color="#3989DE" stop-opacity="0.51"/>
<stop offset="0.42" stop-color="#418FF0" stop-opacity="0.66"/>
<stop offset="0.46" stop-color="#4592FB" stop-opacity="0.82"/>
<stop offset="0.5" stop-color="#4793FF"/>
<stop offset="0.75" stop-color="#046462" stop-opacity="0"/>
<stop offset="1" stop-color="#4793FF"/>
</linearGradient>
<linearGradient id="paint8_linear_257_20565" x1="161.562" y1="17.7974" x2="534.668" y2="423.349" gradientUnits="userSpaceOnUse">
<stop stop-color="#4793FF"/>
<stop offset="0.25" stop-color="#046462" stop-opacity="0"/>
<stop offset="0.27" stop-color="#0F6B7B" stop-opacity="0.08"/>
<stop offset="0.31" stop-color="#2077A3" stop-opacity="0.22"/>
<stop offset="0.34" stop-color="#2E81C4" stop-opacity="0.36"/>
<stop offset="0.38" stop-color="#3989DE" stop-opacity="0.51"/>
<stop offset="0.42" stop-color="#418FF0" stop-opacity="0.66"/>
<stop offset="0.46" stop-color="#4592FB" stop-opacity="0.82"/>
<stop offset="0.5" stop-color="#4793FF"/>
<stop offset="0.75" stop-color="#046462" stop-opacity="0"/>
<stop offset="1" stop-color="#4793FF"/>
</linearGradient>
<linearGradient id="paint9_linear_257_20565" x1="582.943" y1="403.841" x2="1221" y2="403.841" gradientUnits="userSpaceOnUse">
<stop stop-color="#4793FF"/>
<stop offset="0.25" stop-color="#046462" stop-opacity="0"/>
<stop offset="0.27" stop-color="#0F6B7B" stop-opacity="0.08"/>
<stop offset="0.31" stop-color="#2077A3" stop-opacity="0.22"/>
<stop offset="0.34" stop-color="#2E81C4" stop-opacity="0.36"/>
<stop offset="0.38" stop-color="#3989DE" stop-opacity="0.51"/>
<stop offset="0.42" stop-color="#418FF0" stop-opacity="0.66"/>
<stop offset="0.46" stop-color="#4592FB" stop-opacity="0.82"/>
<stop offset="0.5" stop-color="#4793FF"/>
<stop offset="0.75" stop-color="#046462" stop-opacity="0"/>
<stop offset="1" stop-color="#4793FF"/>
</linearGradient>
<linearGradient id="paint10_linear_257_20565" x1="219.65" y1="609.083" x2="486.672" y2="609.083" gradientUnits="userSpaceOnUse">
<stop stop-color="#62153D"/>
<stop offset="1" stop-color="#95294D"/>
</linearGradient>
<linearGradient id="paint11_linear_257_20565" x1="297.045" y1="552.403" x2="339.032" y2="552.403" gradientUnits="userSpaceOnUse">
<stop stop-color="#62153D"/>
<stop offset="1" stop-color="#95294D"/>
</linearGradient>
<linearGradient id="paint12_linear_257_20565" x1="475.554" y1="141.133" x2="646.221" y2="141.133" gradientUnits="userSpaceOnUse">
<stop stop-color="#62153D"/>
<stop offset="1" stop-color="#95294D"/>
</linearGradient>
<linearGradient id="paint13_linear_257_20565" x1="710.174" y1="530.472" x2="942.416" y2="530.472" gradientUnits="userSpaceOnUse">
<stop stop-color="#62153D"/>
<stop offset="1" stop-color="#95294D"/>
</linearGradient>
<linearGradient id="paint14_linear_257_20565" x1="-2.68359" y1="524.438" x2="160.488" y2="524.438" gradientUnits="userSpaceOnUse">
<stop stop-color="#62153D"/>
<stop offset="1" stop-color="#95294D"/>
</linearGradient>
<linearGradient id="paint15_linear_257_20565" x1="15.5254" y1="206.844" x2="237.02" y2="206.844" gradientUnits="userSpaceOnUse">
<stop stop-color="#62153D"/>
<stop offset="1" stop-color="#95294D"/>
</linearGradient>
</defs>
</svg>
