<?xml version="1.0" encoding="utf-8"?>
<!-- Generator: Adobe Illustrator 25.3.1, SVG Export Plug-In . SVG Version: 6.00 Build 0)  -->
<svg version="1.1" id="Layer_1" xmlns="http://www.w3.org/2000/svg" xmlns:xlink="http://www.w3.org/1999/xlink" x="0px" y="0px"
	 viewBox="0 0 1920 1080" style="enable-background:new 0 0 1920 1080;" xml:space="preserve">
<style type="text/css">
	.st0{clip-path:url(#SVGID_2_);fill:url(#SVGID_3_);}
	.st1{opacity:0.11;clip-path:url(#SVGID_2_);fill:#231F20;}
	.st2{clip-path:url(#SVGID_2_);fill:url(#SVGID_4_);}
	.st3{opacity:0.49;clip-path:url(#SVGID_2_);fill:url(#SVGID_5_);}
	.st4{opacity:0.49;clip-path:url(#SVGID_2_);fill:url(#SVGID_6_);}
	.st5{clip-path:url(#SVGID_2_);}
	.st6{fill:url(#SVGID_7_);}
	.st7{opacity:0;fill:#FFFFFF;}
	.st8{opacity:0.0625;fill:#FFFFFF;}
	.st9{opacity:0.125;fill:#FFFFFF;}
	.st10{opacity:0.1875;fill:#FFFFFF;}
	.st11{opacity:0.25;fill:#FFFFFF;}
	.st12{opacity:0.3125;fill:#FFFFFF;}
	.st13{opacity:0.375;fill:#FFFFFF;}
	.st14{opacity:0.4375;fill:#FFFFFF;}
	.st15{opacity:0.5;fill:#FFFFFF;}
	.st16{opacity:0.5625;fill:#FFFFFF;}
	.st17{opacity:0.625;fill:#FFFFFF;}
	.st18{opacity:0.6875;fill:#FFFFFF;}
	.st19{opacity:0.75;fill:#FFFFFF;}
	.st20{opacity:0.8125;fill:#FFFFFF;}
	.st21{opacity:0.875;fill:#FFFFFF;}
	.st22{opacity:0.9375;fill:#FFFFFF;}
	.st23{fill:#FFFFFF;}
	.st24{fill:url(#SVGID_8_);}
	.st25{fill:url(#SVGID_9_);}
	.st26{opacity:0.2;clip-path:url(#SVGID_2_);}
	.st27{fill:url(#SVGID_10_);}
	.st28{fill:url(#SVGID_11_);}
	.st29{fill:url(#SVGID_12_);}
	.st30{opacity:0.83;clip-path:url(#SVGID_2_);fill:#D64A43;}
	.st31{clip-path:url(#SVGID_2_);fill:url(#SVGID_13_);}
	.st32{clip-path:url(#SVGID_2_);fill:url(#SVGID_14_);}
	.st33{opacity:0.83;clip-path:url(#SVGID_2_);fill:url(#SVGID_15_);}
	.st34{opacity:0.83;clip-path:url(#SVGID_2_);fill:url(#SVGID_16_);}
	.st35{clip-path:url(#SVGID_2_);fill:#D64A43;}
	.st36{opacity:0.83;clip-path:url(#SVGID_2_);fill:url(#SVGID_17_);}
	.st37{clip-path:url(#SVGID_2_);fill:url(#SVGID_18_);}
	.st38{clip-path:url(#SVGID_2_);fill:none;}
</style>
<g>
	<defs>
		<rect id="SVGID_1_" y="0" width="1920" height="1080"/>
	</defs>
	<clipPath id="SVGID_2_">
		<use xlink:href="#SVGID_1_"  style="overflow:visible;"/>
	</clipPath>
	<linearGradient id="SVGID_3_" gradientUnits="userSpaceOnUse" x1="960" y1="27.25" x2="960" y2="1062.3755">
		<stop  offset="0" style="stop-color:#DC5E88"/>
		<stop  offset="1" style="stop-color:#F6BB96"/>
	</linearGradient>
	<rect y="-2" class="st0" width="1920" height="1080"/>
	<rect y="0" class="st1" width="1920" height="1080"/>
	
		<radialGradient id="SVGID_4_" cx="1597.6028" cy="1220.2207" r="196.115" gradientTransform="matrix(0.4788 -0.8779 0.8779 0.4788 -124.5233 1727.6576)" gradientUnits="userSpaceOnUse">
		<stop  offset="0" style="stop-color:#BC909B"/>
		<stop  offset="0.0411" style="stop-color:#B6879A;stop-opacity:0.9586"/>
		<stop  offset="0.2683" style="stop-color:#955795;stop-opacity:0.7303"/>
		<stop  offset="0.4842" style="stop-color:#7C3190;stop-opacity:0.5132"/>
		<stop  offset="0.6833" style="stop-color:#6A168D;stop-opacity:0.313"/>
		<stop  offset="0.8597" style="stop-color:#5F068C;stop-opacity:0.1357"/>
		<stop  offset="0.9947" style="stop-color:#5B008B;stop-opacity:0"/>
	</radialGradient>
	<circle class="st2" cx="1764.72" cy="1002.72" r="93.42"/>
	
		<radialGradient id="SVGID_5_" cx="1574.8495" cy="-480.4096" r="158.6103" gradientTransform="matrix(0.5779 0.8161 -0.8161 0.5779 -256.7436 -832.2256)" gradientUnits="userSpaceOnUse">
		<stop  offset="0" style="stop-color:#BC909B"/>
		<stop  offset="0.0411" style="stop-color:#B6879A;stop-opacity:0.9586"/>
		<stop  offset="0.2683" style="stop-color:#955795;stop-opacity:0.7303"/>
		<stop  offset="0.4842" style="stop-color:#7C3190;stop-opacity:0.5132"/>
		<stop  offset="0.6833" style="stop-color:#6A168D;stop-opacity:0.313"/>
		<stop  offset="0.8597" style="stop-color:#5F068C;stop-opacity:0.1357"/>
		<stop  offset="0.9947" style="stop-color:#5B008B;stop-opacity:0"/>
	</radialGradient>
	<circle class="st3" cx="958.62" cy="180.72" r="75.55"/>
	
		<radialGradient id="SVGID_6_" cx="1659.4698" cy="337.3388" r="158.6103" gradientTransform="matrix(0.9976 -0.0694 0.0694 0.9976 -1387.1342 671.8674)" gradientUnits="userSpaceOnUse">
		<stop  offset="0" style="stop-color:#BC909B"/>
		<stop  offset="0.0411" style="stop-color:#B6879A;stop-opacity:0.9586"/>
		<stop  offset="0.2683" style="stop-color:#955795;stop-opacity:0.7303"/>
		<stop  offset="0.4842" style="stop-color:#7C3190;stop-opacity:0.5132"/>
		<stop  offset="0.6833" style="stop-color:#6A168D;stop-opacity:0.313"/>
		<stop  offset="0.8597" style="stop-color:#5F068C;stop-opacity:0.1357"/>
		<stop  offset="0.9947" style="stop-color:#5B008B;stop-opacity:0"/>
	</radialGradient>
	<circle class="st4" cx="251.17" cy="970.06" r="75.55"/>
	<g class="st5">
		
			<radialGradient id="SVGID_7_" cx="328.2354" cy="1011.9003" r="28.4273" gradientTransform="matrix(0.9983 -0.0582 -0.0582 -0.9983 1205.2853 1215.766)" gradientUnits="userSpaceOnUse">
			<stop  offset="0" style="stop-color:#FFFFFF"/>
			<stop  offset="0.1227" style="stop-color:#FFFFFF;stop-opacity:0.8773"/>
			<stop  offset="1" style="stop-color:#FFFFFF;stop-opacity:0"/>
		</radialGradient>
		<path class="st6" d="M1502.45,184.82c-0.91-15.67-14.36-27.63-30.04-26.72c-15.67,0.92-27.63,14.36-26.72,30.04
			c0.92,15.67,14.36,27.64,30.04,26.72C1491.4,213.95,1503.36,200.5,1502.45,184.82z"/>
		<g>
			<path class="st7" d="M1477.57,188.07c-1.22,1.43-3.37,1.6-4.8,0.38c-1.43-1.22-1.6-3.37-0.38-4.8
				c1.22-1.43,119.7-133.67,119.7-133.67C1592.52,50.35,1478.79,186.64,1477.57,188.07z"/>
			<path class="st8" d="M1477.48,187.99c-1.18,1.38-3.26,1.55-4.64,0.37c-1.38-1.18-1.55-3.26-0.37-4.64
				c1.18-1.38,112.31-125.36,112.35-125.32C1585.27,58.78,1478.66,186.61,1477.48,187.99z"/>
			<path class="st9" d="M1477.39,187.92c-1.14,1.33-3.14,1.49-4.47,0.35c-1.33-1.14-1.49-3.14-0.35-4.47
				c1.14-1.33,104.92-117.05,105-116.98C1578.03,67.21,1478.53,186.58,1477.39,187.92z"/>
			<path class="st10" d="M1477.3,187.84c-1.1,1.28-3.02,1.43-4.31,0.34c-1.28-1.09-1.44-3.02-0.34-4.31
				c1.1-1.28,97.54-108.74,97.66-108.64C1570.78,75.64,1478.39,186.56,1477.3,187.84z"/>
			<path class="st11" d="M1477.21,187.76c-1.05,1.23-2.91,1.38-4.14,0.33c-1.23-1.05-1.38-2.91-0.33-4.14
				c1.05-1.23,90.15-100.43,90.31-100.29C1563.54,84.07,1478.26,186.53,1477.21,187.76z"/>
			<path class="st12" d="M1477.12,187.69c-1.01,1.18-2.79,1.32-3.97,0.31c-1.18-1.01-1.32-2.79-0.31-3.97
				c1.01-1.18,82.76-92.12,82.96-91.95C1556.29,92.5,1478.13,186.5,1477.12,187.69z"/>
			<path class="st13" d="M1477.03,187.61c-0.97,1.13-2.67,1.27-3.81,0.3c-1.13-0.97-1.27-2.67-0.3-3.81
				c0.97-1.13,75.38-83.81,75.62-83.6C1549.05,100.93,1478,186.48,1477.03,187.61z"/>
			<path class="st14" d="M1476.94,187.53c-0.93,1.08-2.56,1.21-3.64,0.29c-1.08-0.93-1.21-2.56-0.29-3.64
				c0.93-1.08,67.99-75.5,68.27-75.26C1541.8,109.37,1477.87,186.45,1476.94,187.53z"/>
			<path class="st15" d="M1476.85,187.46c-0.88,1.03-2.44,1.16-3.48,0.27c-1.03-0.88-1.16-2.44-0.27-3.48
				c0.88-1.03,60.6-67.19,60.92-66.92C1534.56,117.8,1477.74,186.42,1476.85,187.46z"/>
			<path class="st16" d="M1476.76,187.38c-0.84,0.99-2.32,1.1-3.31,0.26c-0.99-0.84-1.1-2.32-0.26-3.31
				c0.84-0.99,53.22-58.88,53.57-58.57C1527.32,126.23,1477.6,186.4,1476.76,187.38z"/>
			<path class="st17" d="M1476.67,187.31c-0.8,0.94-2.21,1.05-3.14,0.25c-0.94-0.8-1.05-2.21-0.25-3.14
				c0.8-0.94,45.83-50.57,46.23-50.23C1520.07,134.66,1477.47,186.37,1476.67,187.31z"/>
			<path class="st18" d="M1476.58,187.23c-0.76,0.89-2.09,0.99-2.98,0.23c-0.89-0.76-0.99-2.09-0.23-2.98
				c0.76-0.89,38.44-42.26,38.88-41.89C1512.83,143.09,1477.34,186.34,1476.58,187.23z"/>
			<path class="st19" d="M1476.49,187.15c-0.72,0.84-1.97,0.94-2.81,0.22c-0.84-0.71-0.94-1.97-0.22-2.81
				c0.71-0.84,31.05-33.95,31.53-33.54C1505.58,151.52,1477.21,186.31,1476.49,187.15z"/>
			<path class="st20" d="M1476.4,187.08c-0.67,0.79-1.86,0.88-2.65,0.21c-0.79-0.67-0.88-1.86-0.21-2.65
				c0.67-0.79,23.67-25.64,24.19-25.2C1498.34,159.95,1477.08,186.29,1476.4,187.08z"/>
			<path class="st21" d="M1476.31,187c-0.63,0.74-1.74,0.83-2.48,0.2c-0.74-0.63-0.83-1.74-0.19-2.48
				c0.63-0.74,16.28-17.33,16.84-16.86C1491.09,168.38,1476.94,186.26,1476.31,187z"/>
			<path class="st22" d="M1476.22,186.92c-0.59,0.69-1.63,0.77-2.31,0.18c-0.69-0.59-0.77-1.62-0.18-2.31
				c0.59-0.69,8.89-9.02,9.49-8.51C1483.85,176.81,1476.81,186.23,1476.22,186.92z"/>
			<path class="st23" d="M1476.13,186.85c-0.55,0.64-1.51,0.71-2.15,0.17c-0.64-0.55-0.71-1.51-0.17-2.15
				c0.54-0.64,1.51-0.71,2.15-0.17C1476.6,185.25,1476.68,186.21,1476.13,186.85z"/>
		</g>
	</g>
	<g class="st5">
		
			<radialGradient id="SVGID_8_" cx="-29.8228" cy="270.4059" r="38.066" gradientTransform="matrix(0.9983 -0.0582 -0.0582 -0.9983 1205.2853 1215.766)" gradientUnits="userSpaceOnUse">
			<stop  offset="0" style="stop-color:#FFFFFF"/>
			<stop  offset="0.1227" style="stop-color:#FFFFFF;stop-opacity:0.8773"/>
			<stop  offset="1" style="stop-color:#FFFFFF;stop-opacity:0"/>
		</radialGradient>
		<path class="st24" d="M1197.78,945.34c-1.22-20.98-19.23-37-40.22-35.78c-20.98,1.23-37,19.23-35.78,40.22
			c1.23,20.99,19.23,37.01,40.22,35.78C1182.98,984.33,1199,966.32,1197.78,945.34z"/>
		<g>
			<path class="st7" d="M1164.46,949.68c-1.64,1.92-4.52,2.14-6.43,0.51c-1.92-1.64-2.14-4.52-0.51-6.43
				c1.64-1.92,160.28-178.99,160.28-178.99C1318.38,765.26,1166.1,947.76,1164.46,949.68z"/>
			<path class="st8" d="M1164.34,949.58c-1.58,1.85-4.36,2.07-6.21,0.49c-1.85-1.58-2.07-4.36-0.49-6.21
				c1.58-1.85,150.39-167.86,150.44-167.81C1308.68,776.55,1165.92,947.73,1164.34,949.58z"/>
			<path class="st9" d="M1164.22,949.48c-1.52,1.78-4.2,1.99-5.99,0.47c-1.78-1.52-2-4.2-0.47-5.99
				c1.52-1.78,140.5-156.73,140.61-156.64C1298.98,787.84,1165.74,947.69,1164.22,949.48z"/>
			<path class="st10" d="M1164.1,949.37c-1.47,1.72-4.05,1.92-5.77,0.45c-1.72-1.47-1.92-4.05-0.46-5.77
				c1.47-1.72,130.61-145.61,130.77-145.47C1289.28,799.13,1165.57,947.66,1164.1,949.37z"/>
			<path class="st11" d="M1163.98,949.27c-1.41,1.65-3.89,1.85-5.54,0.44c-1.65-1.41-1.85-3.89-0.44-5.54
				c1.41-1.65,120.72-134.48,120.93-134.3C1279.58,810.42,1165.39,947.62,1163.98,949.27z"/>
			<path class="st12" d="M1163.86,949.17c-1.35,1.58-3.74,1.77-5.32,0.42c-1.58-1.35-1.77-3.74-0.42-5.32
				c1.35-1.58,110.82-123.35,111.09-123.12C1269.88,821.71,1165.21,947.58,1163.86,949.17z"/>
			<path class="st13" d="M1163.74,949.07c-1.3,1.52-3.58,1.7-5.1,0.4c-1.52-1.3-1.7-3.58-0.4-5.1
				c1.3-1.52,100.93-112.23,101.25-111.95C1260.18,833,1165.04,947.55,1163.74,949.07z"/>
			<path class="st14" d="M1163.62,948.96c-1.24,1.45-3.42,1.62-4.88,0.38c-1.45-1.24-1.63-3.42-0.38-4.88
				c1.24-1.45,91.04-101.1,91.42-100.78C1250.48,844.29,1164.86,947.51,1163.62,948.96z"/>
			<path class="st15" d="M1163.5,948.86c-1.18,1.39-3.27,1.55-4.65,0.37c-1.39-1.18-1.55-3.27-0.37-4.65
				c1.18-1.39,81.15-89.97,81.58-89.61C1240.78,855.58,1164.68,947.47,1163.5,948.86z"/>
			<path class="st16" d="M1163.38,948.76c-1.13,1.32-3.11,1.48-4.43,0.35c-1.32-1.13-1.48-3.11-0.35-4.43
				c1.13-1.32,71.26-78.85,71.74-78.43C1231.07,866.87,1164.51,947.44,1163.38,948.76z"/>
			<path class="st17" d="M1163.26,948.66c-1.07,1.25-2.96,1.4-4.21,0.33c-1.25-1.07-1.4-2.96-0.33-4.21
				c1.07-1.25,61.37-67.72,61.9-67.26C1221.37,878.16,1164.33,947.4,1163.26,948.66z"/>
			<path class="st18" d="M1163.14,948.55c-1.01,1.19-2.8,1.33-3.99,0.31c-1.19-1.01-1.33-2.8-0.31-3.99
				c1.01-1.19,51.48-56.59,52.06-56.09C1211.67,889.45,1164.15,947.37,1163.14,948.55z"/>
			<path class="st19" d="M1163.02,948.45c-0.96,1.12-2.64,1.25-3.77,0.3c-1.12-0.96-1.25-2.64-0.3-3.77
				c0.96-1.12,41.58-45.46,42.23-44.92C1201.97,900.74,1163.98,947.33,1163.02,948.45z"/>
			<path class="st20" d="M1162.9,948.35c-0.9,1.05-2.49,1.18-3.54,0.28c-1.05-0.9-1.18-2.49-0.28-3.54
				c0.9-1.05,31.69-34.34,32.39-33.74C1192.27,912.03,1163.8,947.29,1162.9,948.35z"/>
			<path class="st21" d="M1162.78,948.25c-0.85,0.99-2.33,1.11-3.32,0.26c-0.99-0.84-1.11-2.33-0.26-3.32
				c0.84-0.99,21.8-23.21,22.55-22.57C1182.57,923.32,1163.62,947.26,1162.78,948.25z"/>
			<path class="st22" d="M1162.66,948.15c-0.79,0.92-2.18,1.03-3.1,0.24c-0.92-0.79-1.03-2.17-0.24-3.1
				c0.79-0.92,11.91-12.08,12.71-11.4C1172.87,934.61,1163.45,947.22,1162.66,948.15z"/>
			<path class="st23" d="M1162.54,948.04c-0.73,0.86-2.02,0.96-2.88,0.23c-0.86-0.73-0.96-2.02-0.22-2.88
				c0.73-0.86,2.02-0.96,2.87-0.23C1163.17,945.9,1163.27,947.19,1162.54,948.04z"/>
		</g>
	</g>
	<g class="st5">
		
			<radialGradient id="SVGID_9_" cx="-923.0261" cy="617.0022" r="38.066" gradientTransform="matrix(0.9983 -0.0582 -0.0582 -0.9983 1205.2853 1215.766)" gradientUnits="userSpaceOnUse">
			<stop  offset="0" style="stop-color:#FFFFFF"/>
			<stop  offset="0.1227" style="stop-color:#FFFFFF;stop-opacity:0.8773"/>
			<stop  offset="1" style="stop-color:#FFFFFF;stop-opacity:0"/>
		</radialGradient>
		<path class="st25" d="M285.92,651.31c-1.22-20.98-19.23-37-40.22-35.78c-20.98,1.23-37,19.23-35.78,40.22
			c1.23,20.99,19.23,37.01,40.22,35.78C271.13,690.31,287.15,672.3,285.92,651.31z"/>
		<g>
			<path class="st7" d="M252.6,655.66c-1.64,1.92-4.52,2.14-6.43,0.51c-1.92-1.64-2.14-4.52-0.51-6.43
				c1.64-1.92,160.28-178.99,160.28-178.99C406.52,471.24,254.24,653.74,252.6,655.66z"/>
			<path class="st8" d="M252.48,655.56c-1.58,1.85-4.36,2.07-6.21,0.49c-1.85-1.58-2.07-4.36-0.49-6.21
				c1.58-1.85,150.39-167.86,150.44-167.81C396.82,482.53,254.06,653.7,252.48,655.56z"/>
			<path class="st9" d="M252.36,655.45c-1.52,1.78-4.2,1.99-5.99,0.47c-1.78-1.52-2-4.2-0.47-5.99
				c1.52-1.78,140.5-156.73,140.61-156.64C387.12,493.82,253.89,653.67,252.36,655.45z"/>
			<path class="st10" d="M252.24,655.35c-1.47,1.72-4.05,1.92-5.77,0.45c-1.72-1.47-1.92-4.05-0.46-5.77
				c1.47-1.72,130.61-145.61,130.77-145.47C377.42,505.11,253.71,653.63,252.24,655.35z"/>
			<path class="st11" d="M252.12,655.25c-1.41,1.65-3.89,1.85-5.54,0.44c-1.65-1.41-1.85-3.89-0.44-5.54
				c1.41-1.65,120.72-134.48,120.93-134.3C367.72,516.4,253.53,653.6,252.12,655.25z"/>
			<path class="st12" d="M252,655.15c-1.35,1.58-3.74,1.77-5.32,0.42c-1.58-1.35-1.77-3.74-0.42-5.32
				c1.35-1.58,110.82-123.35,111.09-123.12C358.02,527.69,253.36,653.56,252,655.15z"/>
			<path class="st13" d="M251.88,655.04c-1.3,1.52-3.58,1.7-5.1,0.4c-1.52-1.3-1.7-3.58-0.4-5.1
				c1.3-1.52,100.93-112.23,101.25-111.95C348.32,538.98,253.18,653.52,251.88,655.04z"/>
			<path class="st14" d="M251.76,654.94c-1.24,1.45-3.42,1.62-4.88,0.38c-1.45-1.24-1.63-3.42-0.38-4.88
				c1.24-1.45,91.04-101.1,91.42-100.78C338.62,550.27,253,653.49,251.76,654.94z"/>
			<path class="st15" d="M251.64,654.84c-1.18,1.39-3.27,1.55-4.65,0.37c-1.39-1.18-1.55-3.27-0.37-4.65
				c1.18-1.39,81.15-89.97,81.58-89.61C328.92,561.56,252.83,653.45,251.64,654.84z"/>
			<path class="st16" d="M251.52,654.74c-1.13,1.32-3.11,1.48-4.43,0.35c-1.32-1.13-1.48-3.11-0.35-4.43
				c1.13-1.32,71.26-78.85,71.74-78.43C319.22,572.85,252.65,653.42,251.52,654.74z"/>
			<path class="st17" d="M251.4,654.63c-1.07,1.25-2.96,1.4-4.21,0.33c-1.25-1.07-1.4-2.96-0.33-4.21
				c1.07-1.25,61.37-67.72,61.9-67.26C309.52,584.14,252.47,653.38,251.4,654.63z"/>
			<path class="st18" d="M251.28,654.53c-1.01,1.19-2.8,1.33-3.99,0.31c-1.19-1.01-1.33-2.8-0.31-3.99
				c1.01-1.19,51.48-56.59,52.06-56.09C299.82,595.43,252.3,653.34,251.28,654.53z"/>
			<path class="st19" d="M251.16,654.43c-0.96,1.12-2.64,1.25-3.77,0.3c-1.12-0.96-1.25-2.64-0.3-3.77
				c0.96-1.12,41.58-45.46,42.23-44.92C290.12,606.72,252.12,653.31,251.16,654.43z"/>
			<path class="st20" d="M251.04,654.33c-0.9,1.05-2.49,1.18-3.54,0.28c-1.05-0.9-1.18-2.49-0.28-3.54
				c0.9-1.05,31.69-34.34,32.39-33.74C280.41,618.01,251.94,653.27,251.04,654.33z"/>
			<path class="st21" d="M250.92,654.23c-0.85,0.99-2.33,1.11-3.32,0.26c-0.99-0.84-1.11-2.33-0.26-3.32
				c0.84-0.99,21.8-23.21,22.55-22.57C270.71,629.3,251.77,653.24,250.92,654.23z"/>
			<path class="st22" d="M250.8,654.12c-0.79,0.92-2.18,1.03-3.1,0.24c-0.92-0.79-1.03-2.17-0.24-3.1
				c0.79-0.92,11.91-12.08,12.71-11.4C261.01,640.59,251.59,653.2,250.8,654.12z"/>
			<path class="st23" d="M250.68,654.02c-0.73,0.86-2.02,0.96-2.88,0.23c-0.86-0.73-0.96-2.02-0.22-2.88
				c0.73-0.86,2.02-0.96,2.87-0.23C251.31,651.88,251.41,653.16,250.68,654.02z"/>
		</g>
	</g>
	<g class="st26">
		<linearGradient id="SVGID_10_" gradientUnits="userSpaceOnUse" x1="-128.871" y1="803.6414" x2="1221.0404" y2="803.6414">
			<stop  offset="0" style="stop-color:#4793FF"/>
			<stop  offset="0.2524" style="stop-color:#046462;stop-opacity:0"/>
			<stop  offset="0.2711" style="stop-color:#0F6B7B;stop-opacity:0.0754"/>
			<stop  offset="0.3061" style="stop-color:#2077A3;stop-opacity:0.2168"/>
			<stop  offset="0.3421" style="stop-color:#2E81C4;stop-opacity:0.3624"/>
			<stop  offset="0.3789" style="stop-color:#3989DE;stop-opacity:0.511"/>
			<stop  offset="0.4167" style="stop-color:#418FF0;stop-opacity:0.6637"/>
			<stop  offset="0.4562" style="stop-color:#4592FB;stop-opacity:0.8231"/>
			<stop  offset="0.5" style="stop-color:#4793FF"/>
			<stop  offset="0.7533" style="stop-color:#046462;stop-opacity:0"/>
			<stop  offset="1" style="stop-color:#4793FF"/>
		</linearGradient>
		<path class="st27" d="M-36.84,526.36C-99.3,874.32,290.3,666.14,456.85,636.4c86.25-14.87,187.36-32.71,220.08,65.43
			c29.74,92.2-35.69,187.36,29.74,267.66c47.19,57.13,124.03,66.6,169.43,120.56c50.09,59.55,111.36,75.66,187.44,82.48
			c66.9,5.99,136.77-5.4,154.94-81.26c14.84-61.96-37.21-99.89-93-104c-102.55-7.54-252.65,37.27-299.86-86.19
			c-38.66-101.11,65.43-187.36,26.77-279.55c-32.71-77.32-157.62-110.04-234.95-115.99c-184.39-11.9-324.17,110.04-502.61,127.88
			C7.77,642.35-10.08,579.89-21.97,493.65c-17.84-113.01-133.83-41.64-101.12,8.92"/>
	</g>
	<g class="st26">
		<linearGradient id="SVGID_11_" gradientUnits="userSpaceOnUse" x1="401.911" y1="-86.7017" x2="1038.2375" y2="604.2592">
			<stop  offset="0" style="stop-color:#4793FF"/>
			<stop  offset="0.2524" style="stop-color:#046462;stop-opacity:0"/>
			<stop  offset="0.2711" style="stop-color:#0F6B7B;stop-opacity:0.0754"/>
			<stop  offset="0.3061" style="stop-color:#2077A3;stop-opacity:0.2168"/>
			<stop  offset="0.3421" style="stop-color:#2E81C4;stop-opacity:0.3624"/>
			<stop  offset="0.3789" style="stop-color:#3989DE;stop-opacity:0.511"/>
			<stop  offset="0.4167" style="stop-color:#418FF0;stop-opacity:0.6637"/>
			<stop  offset="0.4562" style="stop-color:#4592FB;stop-opacity:0.8231"/>
			<stop  offset="0.5" style="stop-color:#4793FF"/>
			<stop  offset="0.7533" style="stop-color:#046462;stop-opacity:0"/>
			<stop  offset="1" style="stop-color:#4793FF"/>
		</linearGradient>
		<path class="st28" d="M280.75,251.57c-41.78,99.63,102.84,141.41,170.33,125.34c93.2-19.28,257.1-115.7,340.66-25.71
			c35.35,38.57,32.14,93.2,80.34,125.34c48.21,32.14,109.27,25.71,144.62-16.07c102.84-118.91-83.56-151.05-157.48-183.19
			c-106.05-48.21-205.68-144.62-93.2-241.03C801.39,7.32,878.52-21.6,884.94-76.24c3.21-64.27-89.99-77.13-138.19-83.56
			C637.48-169.43,502.5-137.3,499.29-8.75c-3.21,96.41,109.27,221.75-32.14,269.96c-86.77,25.71-112.48-67.49-176.76-61.06
			c0,32.14-19.28,131.77,25.71,131.77"/>
	</g>
	<g class="st26">
		<linearGradient id="SVGID_12_" gradientUnits="userSpaceOnUse" x1="1119.7814" y1="571.6417" x2="2206.7759" y2="571.6417">
			<stop  offset="0" style="stop-color:#4793FF"/>
			<stop  offset="0.2524" style="stop-color:#046462;stop-opacity:0"/>
			<stop  offset="0.2711" style="stop-color:#0F6B7B;stop-opacity:0.0754"/>
			<stop  offset="0.3061" style="stop-color:#2077A3;stop-opacity:0.2168"/>
			<stop  offset="0.3421" style="stop-color:#2E81C4;stop-opacity:0.3624"/>
			<stop  offset="0.3789" style="stop-color:#3989DE;stop-opacity:0.511"/>
			<stop  offset="0.4167" style="stop-color:#418FF0;stop-opacity:0.6637"/>
			<stop  offset="0.4562" style="stop-color:#4592FB;stop-opacity:0.8231"/>
			<stop  offset="0.5" style="stop-color:#4793FF"/>
			<stop  offset="0.7533" style="stop-color:#046462;stop-opacity:0"/>
			<stop  offset="1" style="stop-color:#4793FF"/>
		</linearGradient>
		<path class="st29" d="M1426.64,215.46c-72.75,45.95-409.7,329.29-275.68,413.53c137.84,84.24,363.75-103.38,490.11,19.14
			c84.24,84.24-3.83,222.08,141.67,287.17c111.04,53.61,302.49-42.12,379.07-130.19c103.38-111.04,15.31-283.34-130.19-199.11
			c-91.89,49.78-237.39,156.99-237.39-22.97c0-76.58,80.41-306.32-61.26-264.2c-59.45,17.49-106.4,59.98-150.55,101.49
			c-43.7,41.08-94.28,77.78-135.3,120.88c-34.69,36.45-64,62.58-119.57,55.77c-46.57-5.71-85.11-37-84.26-86.69
			c1.41-82.35,89.67-110.84,136.25-160.04c33.23-35.1,98.38-122.88,31.79-157.76"/>
	</g>
	<path class="st30" d="M1256.26,666.72l-0.06,19.19c0,0-204.07,63.33-326.59,122.22C807.11,867.03,712.3,949.82,712.3,949.82
		l30.68-8.44c-77.7,46.25-233,105.88-233,105.88l-0.02-0.11c-0.04-0.25-0.21-1.05-0.57-2.23c-2.36-8.02-12.96-34.36-52.01-43.47
		c-44.94-10.5-147.41,22.83-153.32,24.79c3.62-1.37,42.92-16.16,94.79-41.81c13-6.42,26.81-13.53,41.03-21.29
		c54.14-29.52,167.48-119.8,167.48-119.8l-45.99,10.29l150.97-113.34l21.04-9.05c0,0-59.36,52.47-54.16,57.65
		c5.18,5.18,179.35,24.89,310.81-15.36C1121.48,733.3,1256.26,666.72,1256.26,666.72z"/>
	<linearGradient id="SVGID_13_" gradientUnits="userSpaceOnUse" x1="500.8696" y1="921.6472" x2="955.7651" y2="921.6472">
		<stop  offset="0" style="stop-color:#62153D"/>
		<stop  offset="1" style="stop-color:#95294D"/>
	</linearGradient>
	<path class="st31" d="M955.77,796.04l-199.34,56.43l35.18,1.48l-151.22,54.5l18.29-17.75l-133.61,73.37l101.34-38.78l85.9,24.53
		l-61.35,23.16l-100.78,11.7l72.02,1.63l-58.76,29.11l-62.57-4.3l9.12,36.14c0,0,197.27-79.08,232.99-105.88l-30.67,8.44
		C712.3,949.82,833.61,845.21,955.77,796.04z"/>
	<linearGradient id="SVGID_14_" gradientUnits="userSpaceOnUse" x1="632.7231" y1="824.9968" x2="704.2521" y2="824.9968">
		<stop  offset="0" style="stop-color:#62153D"/>
		<stop  offset="1" style="stop-color:#95294D"/>
	</linearGradient>
	<polygon class="st32" points="632.72,839.02 704.25,810.97 660.08,819.2 	"/>
	<linearGradient id="SVGID_15_" gradientUnits="userSpaceOnUse" x1="936.8237" y1="123.6274" x2="1227.5712" y2="123.6274">
		<stop  offset="0" style="stop-color:#62153D"/>
		<stop  offset="1" style="stop-color:#95294D"/>
	</linearGradient>
	<path class="st33" d="M1167.07,66.8c0,0-177.43,125.88-230.24,151.29c0,0,52.18-31.15,87.67-89.55l-5.79,18.33l94.06-83.94
		l5.25,5.68l109.56-39.44L1167.07,66.8z"/>
	<polygon class="st30" points="1112.76,62.92 1089.34,95.77 1117.25,80.5 1012.62,156.05 1018.7,146.87 	"/>
	<linearGradient id="SVGID_16_" gradientUnits="userSpaceOnUse" x1="1336.5259" y1="787.6002" x2="1732.1768" y2="787.6002">
		<stop  offset="0" style="stop-color:#62153D"/>
		<stop  offset="1" style="stop-color:#95294D"/>
	</linearGradient>
	<path class="st34" d="M1440.3,879.17l219.67-147.72l-49.85,19.27l122.06-85.15c0,0-154.16,94.98-189.03,106.54
		c-34.87,11.55-45.63,5.19-45.63,5.19l-160.99,132.32l126.52-59.47L1440.3,879.17z"/>
	<polygon class="st35" points="1732.18,665.57 1771.36,628.06 1821,601.42 	"/>
	<polygon class="st35" points="1497.51,777.3 1578.35,719.96 1529.3,744.79 	"/>
	<polygon class="st35" points="881.19,535.73 962.02,478.39 912.97,503.22 	"/>
	<linearGradient id="SVGID_17_" gradientUnits="userSpaceOnUse" x1="122.1028" y1="777.3027" x2="400.0845" y2="777.3027">
		<stop  offset="0" style="stop-color:#62153D"/>
		<stop  offset="1" style="stop-color:#95294D"/>
	</linearGradient>
	<path class="st36" d="M400.08,650.31L235.79,772.34l20.1-5.73l-133.73,95.7l-0.06,41.98c0,0,197.97-187.85,204.82-194.7
		C333.77,702.75,400.08,650.31,400.08,650.31z"/>
	<linearGradient id="SVGID_18_" gradientUnits="userSpaceOnUse" x1="153.1215" y1="235.6917" x2="530.462" y2="235.6917">
		<stop  offset="0" style="stop-color:#62153D"/>
		<stop  offset="1" style="stop-color:#95294D"/>
	</linearGradient>
	<path class="st37" d="M153.12,391.31c0,0,111.77-123.99,217.49-199.69c105.72-75.7,159.85-111.55,159.85-111.55
		S396.31,186.45,384.4,206.79c-11.91,20.34,29.79,19.19,29.79,19.19l-60.12,54.41l18.53-1.32l-136.16,90.48
		c0,0,54.65-46.05,63.35-60.91c8.7-14.85-18.81-7.99-39.83-2.5S153.12,391.31,153.12,391.31z"/>
	<path class="st30" d="M341.79,235.69l88.8-86.68C328.16,209.03,223.2,318.9,223.2,318.9l60.3-49.79l-3.27,16.49l34.74-24.19
		l-4.73,16.69l80.7-40.71l-48.39,6.96l11.86-12.79L341.79,235.69z"/>
	<polygon class="st35" points="304.55,295.27 347.87,282.82 315.32,301.44 	"/>
	<path class="st35" d="M230.23,375.63l-45.81,35.06c0,0,7.09-17.33,14.6-24.85S230.23,375.63,230.23,375.63z"/>
	<path class="st35" d="M584.25,45.91l-52.63,33.53c0,0,9.25-18.02,18.05-25.42C558.47,46.61,584.25,45.91,584.25,45.91z"/>
	<path class="st30" d="M1160.79,423.26c0,0,257.95-169.61,482.51-255.66s338.18-124.89,338.18-124.89s-289.77,127.65-320.6,158.47
		c-30.83,30.83,44.34,48.27,44.34,48.27l-133.01,69.26l33.77,6.3l-285.94,98.26c0,0,119.32-56.86,141.83-79.37
		c22.51-22.51-29.92-23.09-70.1-23.09C1351.58,320.8,1160.79,423.26,1160.79,423.26z"/>
	<rect y="0" class="st38" width="1920" height="1080"/>
</g>
</svg>
