<svg width="1366" height="82" fill="none" xmlns="http://www.w3.org/2000/svg"><path d="M1316 58c-7-16-33-28-63-28a99 99 0 0 0-44 10c-15-17-47-28-83-28-40 0-75 14-87 35a136 136 0 0 0-68-17c-37 0-69 12-84 30a101 101 0 0 0-9-1 95 95 0 0 0-28 4c-2-18-30-33-64-33l-15 1c-9-18-39-31-75-31-37 0-68 14-76 34a113 113 0 0 0-39-7 99 99 0 0 0-55 15c-25 1-48 8-61 19a150 150 0 0 0-41-5c-34 0-64 10-79 26a46 46 0 0 0-4 0h-4c-4-13-24-23-48-23a79 79 0 0 0-29 5c-9-14-34-25-64-25-33 0-60 13-66 30a136 136 0 0 0-84-7C36 43 0 42 0 42v40h1366V42s-35-2-50 16z" fill="#f0526d"/></svg>