<svg width="360" height="640" fill="none" xmlns="http://www.w3.org/2000/svg"><g clip-path="url(#a)"><path d="M373.269 0H-12.574v652.383h385.843V0Z" fill="url(#b)"/><path opacity=".05" d="M-501.224 349.14a46.274 46.274 0 0 1 20.424 4.667c1.806-21.06 22.13-37.667 46.936-37.667 3.482 0 6.956.334 10.374 1 6.876-20.453 28.696-35.4 54.553-35.4 27.037 0 49.667 16.333 55.4 38.223a56.718 56.718 0 0 1 28.193-7.333c16.334 0 30.894 6.633 40.254 16.957 18.333 1 34.396 9.333 44.286 21.64a72.847 72.847 0 0 1 29.89-6.297c24.794 0 46.334 12.023 57.274 29.697a22.31 22.31 0 0 1 5.783-.04c2.977-14.464 17.573-25.444 35.147-25.444a39.403 39.403 0 0 1 20.746 5.757c6.334-16.923 24.667-29.163 46.334-29.163 23.766 0 43.55 14.733 47.833 34.216 10.193-7.75 23.556-12.45 38.193-12.45a65.56 65.56 0 0 1 22.864 4.06c4.76-12.81 18.64-22.08 35.026-22.08 15.334 0 28.447 8.1 34 19.62 7.13-9.55 19.53-15.876 33.65-15.876 17.05 0 31.604 9.226 37.377 22.22a37.299 37.299 0 0 1 17.81-4.434c13.137 0 24.5 6.537 30 16.05 7.443-14.666 24.393-24.943 44.117-24.943 12.11 0 23.173 3.87 31.636 10.253 3.804-6.63 11.707-11.19 20.843-11.19 7.794 0 14.667 3.334 18.907 8.404C411 337.667 423.89 329 439.12 329c17.453 0 31.83 11.35 33.84 25.98a40.36 40.36 0 0 1 4.739-1.873V646.17h-983.196V349.333a46.774 46.774 0 0 1 4.273-.193Z" fill="#000"/><path opacity=".2" d="M411 482.26a50.199 50.199 0 0 0-14 1.98c-4.477-17.407-20.667-30.3-39.917-30.3a41.62 41.62 0 0 0-27.75 10.477c-9.76-18.524-29.573-31.2-52.427-31.2-25.85 0-47.806 16.216-55.73 38.77a59.488 59.488 0 0 0-42.886-18.047c-23.54 0-43.85 13.45-53.277 32.887a37.495 37.495 0 0 0-5.61-.424 36.763 36.763 0 0 0-17.86 4.597c-1.58-20.72-19.333-37.053-41.033-37.053-3.05-.001-6.09.327-9.07.976-6-20.116-25.084-34.823-47.69-34.823-23.634 0-43.407 16.073-48.427 37.603a45.335 45.335 0 0 0-24.657-7.216 45.05 45.05 0 0 0-35.19 16.666 51.338 51.338 0 0 0-38.713 21.287 57.753 57.753 0 0 0-26.133-6.193c-21.667 0-40.507 11.826-50.067 29.213a17.632 17.632 0 0 0-2.667-.203 17.64 17.64 0 0 0-2.386.166c-2.6-14.23-15.36-25.033-30.72-25.033a31.664 31.664 0 0 0-18.14 5.667c-5.527-16.647-21.574-28.687-40.51-28.687-20.777 0-38.074 14.493-41.817 33.667a51.195 51.195 0 0 0-33.387-12.247 51.63 51.63 0 0 0-20 4c-4.063-12.307-15.733-21.287-29.623-21.7v57.21a48.14 48.14 0 0 0-.797 5.383 48.163 48.163 0 0 0 .8 14.144V650.14H429.07V485.62a49.983 49.983 0 0 0-18.07-3.36Z" fill="#fff"/><path d="M415.876 584.12c-1.174-6.333-7.507-11.157-15.15-11.157a17.606 17.606 0 0 0-4.464.57c-4.213-7.94-13.483-13.453-24.243-13.453-11.51 0-21.333 6.31-25.05 15.153a16.814 16.814 0 0 0-4.333-.56c-8.11 0-14.684 5.69-14.684 12.704 0 .434.024.868.074 1.3a11.923 11.923 0 0 0-1.74-.127c-5.637 0-10.207 3.953-10.207 8.83 0 4.523 3.933 8.25 9 8.767l-.043.06h101.5c2.42-2.334 3.89-5.437 3.89-8.827.016-7.107-6.427-12.91-14.55-13.26ZM78.413 334.443c-1.08-5.776-6.863-10.196-13.847-10.196a16.03 16.03 0 0 0-4.083.52c-3.85-7.257-12.333-12.297-22.16-12.297-10.52 0-19.486 5.767-22.896 13.85a15.418 15.418 0 0 0-3.947-.51c-7.414 0-13.42 5.2-13.42 11.613 0 .397.022.793.066 1.187a10.848 10.848 0 0 0-1.59-.117c-5.153 0-9.333 3.614-9.333 8.07 0 4.134 3.593 7.544 8.227 8l-.04.057h92.783a11.21 11.21 0 0 0 3.553-8.07c0-6.483-5.896-11.787-13.313-12.107Zm73.19 117.09c-1.256-6.786-8.053-11.973-16.253-11.973a18.752 18.752 0 0 0-4.79.613c-4.52-8.52-14.467-14.436-26-14.436-12.353 0-22.873 6.773-26.88 16.26a18 18 0 0 0-4.63-.6c-8.703 0-15.757 6.103-15.757 13.63.001.466.029.933.084 1.396a12.451 12.451 0 0 0-1.87-.14c-6.047 0-10.95 4.244-10.95 9.474 0 4.853 4.216 8.853 9.666 9.406l-.046.067h108.886c2.594-2.517 4.17-5.837 4.17-9.473 0-7.624-6.923-13.85-15.63-14.224ZM235 376.953c-.884-4.763-5.667-8.403-11.41-8.403a13.213 13.213 0 0 0-3.364.43c-3.17-5.98-10.153-10.133-18.253-10.133-8.667 0-16.057 4.753-18.867 11.413a12.64 12.64 0 0 0-3.25-.42c-6.106 0-11.056 4.283-11.056 9.567-.002.326.017.652.056.976a9.002 9.002 0 0 0-1.313-.096c-4.243 0-7.687 2.976-7.687 6.666 0 3.407 2.964 6.214 6.777 6.604l-.03.046h76.423a9.252 9.252 0 0 0 2.927-6.666c0-5.35-4.86-9.72-10.953-9.984Zm196.406 15.487c-1.17-6.333-7.503-11.153-15.14-11.153a17.573 17.573 0 0 0-4.46.573c-4.21-7.937-13.473-13.447-24.227-13.447-11.503 0-21.303 6.307-25.033 15.144a16.708 16.708 0 0 0-4.313-.557c-8.107 0-14.667 5.667-14.667 12.693-.001.435.024.869.073 1.3a11.915 11.915 0 0 0-1.74-.13c-5.633 0-10.2 3.95-10.2 8.824 0 4.52 3.93 8.246 9 8.763l-.043.06h101.437c2.413-2.333 3.883-5.433 3.883-8.823-.013-7.1-6.463-12.897-14.57-13.247ZM29.047 523.627c-1.374-7.417-8.804-13.084-17.764-13.084a20.607 20.607 0 0 0-5.237.667c-4.936-9.313-15.806-15.78-28.423-15.78-13.5 0-25 7.403-29.373 17.77a19.807 19.807 0 0 0-5.063-.667c-9.51 0-17.217 6.667-17.217 14.894 0 .51.03 1.02.09 1.526a13.835 13.835 0 0 0-2.044-.153c-6.61 0-11.966 4.637-11.966 10.353 0 5.304 4.61 9.667 10.55 10.284l-.05.07H41.57c2.833-2.75 4.556-6.377 4.556-10.354 0-8.313-7.566-15.116-17.08-15.526Z" fill="#fff"/><path d="M309.526 496.637c.117.29 2.89-1.084 6.737-1.204 2-.063 3.886-.096 5.506 1.124 1.167.88 1.894 2.183 2.43 3.143.277.497.667 1.333 1.404 2.973.606 1.334.906 2 .91 2 .003 0 0 .03.016.037.124.073.877-1.053 1.41-1.733a11.765 11.765 0 0 1 2.46-2.334 8.867 8.867 0 0 1 4.24-1.406 9.792 9.792 0 0 1 4.297.783 13.845 13.845 0 0 1 3.667 2.157 6.732 6.732 0 0 1 1.4 1.43c.04.06.106.17.13.16.08-.037-.487-1.667-.95-2.547-1.247-2.39-3.807-3.353-5.057-3.827-3.48-1.31-7.073-.823-8.333.094l-1.44 1.063a19.914 19.914 0 0 0-2.564-3.203 8.99 8.99 0 0 0-4.413-2.207c-1.137-.197-2.39-.167-5.277.46a20.713 20.713 0 0 0-4.956 1.92c-.2.12-1.704.9-1.617 1.117Zm-276.86-94.034c.164.19 1.907-1.583 4.79-2.686 1.5-.574 2.923-1.094 4.47-.597 1.12.36 2 1.157 2.667 1.743.333.307.843.834 1.846 1.887.807.847 1.214 1.273 1.22 1.287.007.013 0 .023.02.023.114.023.39-1.03.617-1.687a9.303 9.303 0 0 1 1.25-2.416 7.09 7.09 0 0 1 2.843-2.18 7.793 7.793 0 0 1 3.467-.54c1.148.048 2.281.273 3.36.666.511.168.995.409 1.437.717.047.037.127.1.14.087.013-.014-.807-1.134-1.39-1.667-1.573-1.483-3.77-1.54-4.84-1.567-2.983-.08-5.584 1.237-6.303 2.267a265.6 265.6 0 0 0-.814 1.183 15.955 15.955 0 0 0-2.786-1.753 7.19 7.19 0 0 0-3.927-.51c-.913.15-1.857.5-3.88 1.737a16.724 16.724 0 0 0-3.254 2.76c-.106.12-1.043 1.106-.933 1.246Zm-14.333-11.78c.123.154 1.533-1.186 3.816-1.97 1.187-.406 2.314-.776 3.514-.333a6.043 6.043 0 0 1 2.04 1.437c.26.246.636.666 1.393 1.523.61.667.913 1.027.92 1.04a.03.03 0 0 0 0 .02c.087.02.333-.797.523-1.303a7.369 7.369 0 0 1 1.044-1.857 5.602 5.602 0 0 1 2.283-1.63 6.108 6.108 0 0 1 2.723-.333 8.66 8.66 0 0 1 2.61.613c.396.144.77.345 1.107.597.033.03.093.08.107.07a6.885 6.885 0 0 0-1.044-1.334c-1.19-1.203-2.903-1.306-3.743-1.356-2.333-.144-4.397.816-5 1.6l-.667.906a12.475 12.475 0 0 0-2.13-1.446 5.647 5.647 0 0 0-3.056-.507c-.717.093-1.467.333-3.08 1.257a12.955 12.955 0 0 0-2.617 2.07c-.077.076-.833.823-.743.936ZM288 511.727c.133.253 2.52-1.26 6-1.737 1.81-.25 3.52-.46 5.11.49 1.143.687 1.93 1.803 2.51 2.623.3.427.72 1.14 1.56 2.567.666 1.147 1.016 1.723 1.02 1.74a.033.033 0 0 0-.004.017c0 .005.001.011.004.016.12.054.696-1.04 1.116-1.71a10.592 10.592 0 0 1 2-2.356 8.081 8.081 0 0 1 3.717-1.684 8.924 8.924 0 0 1 3.977.297c1.26.349 2.458.891 3.553 1.607.524.317.999.709 1.41 1.163.04.053.113.143.133.133.07-.04-.603-1.463-1.106-2.223-1.364-2.05-3.78-2.667-4.964-3-3.286-.857-6.503-.07-7.57.883l-1.206 1.104a18.097 18.097 0 0 0-2.634-2.667 8.17 8.17 0 0 0-4.22-1.583c-1.053-.07-2.19.076-4.75.926a18.845 18.845 0 0 0-4.316 2.217c-.15.14-1.44.99-1.34 1.177Zm24.609 18.106c.167.334 3.164-1.583 7.527-2.18 2.27-.313 4.417-.576 6.407.617 1.436.86 2.423 2.26 3.146 3.287.377.533.904 1.43 1.957 3.216.85 1.444 1.273 2.164 1.28 2.187a.062.062 0 0 0 .007.023c.004.007.01.013.016.017.147.067.874-1.306 1.397-2.147a13.473 13.473 0 0 1 2.523-2.953 10.153 10.153 0 0 1 4.667-2.11c2.113-.363 3.743.053 5 .373a15.935 15.935 0 0 1 4.457 2 7.95 7.95 0 0 1 1.763 1.46c.053.064.143.18.167.167.09-.053-.754-1.837-1.387-2.787-1.707-2.573-4.74-3.363-6.22-3.75-4.12-1.073-8.157-.086-9.493 1.11l-1.514 1.384a22.78 22.78 0 0 0-3.303-3.334 10.302 10.302 0 0 0-5.29-2c-1.333-.086-2.747.097-5.957 1.16a23.923 23.923 0 0 0-5.413 2.784c-.24.173-1.86 1.243-1.737 1.476Z" fill="#4D4D4D"/><path d="M283.217 445.127v202.68H16.547V435.9l204.48-32.14 62.19 41.367Z" fill="#33C4E1"/><path opacity=".1" d="M81.017 477.27v170.537h-64.47V435.9l64.47 41.37Z" fill="#000"/><path opacity=".2" d="m283.217 445.127-202.2 32.143-64.47-41.37 204.48-32.14 62.19 41.367Z" fill="#000"/><path d="M283.484 565.95a.286.286 0 0 1-.209-.076.276.276 0 0 1-.067-.091.28.28 0 0 1-.028-.11V445.567l-61.963-41.234-204.333 32.124a.299.299 0 0 1-.35-.224.282.282 0 0 1 .136-.298.286.286 0 0 1 .11-.035l204.477-32.143a.312.312 0 0 1 .23.05l62.18 41.393a.259.259 0 0 1 .09.096.259.259 0 0 1 .033.127v120.244a.27.27 0 0 1-.025.112.277.277 0 0 1-.068.094.272.272 0 0 1-.099.06.275.275 0 0 1-.114.017Z" fill="#000"/><path d="M265.027 448.637a.3.3 0 0 1-.297-.23.283.283 0 0 1 .05-.222.273.273 0 0 1 .086-.076.274.274 0 0 1 .111-.036l18.453-2.933a.297.297 0 0 1 .35.223.283.283 0 0 1-.05.222.273.273 0 0 1-.086.076.274.274 0 0 1-.111.036l-18.453 2.933-.053.007ZM81.283 477.843a.292.292 0 0 1-.297-.226.28.28 0 0 1 .048-.221.265.265 0 0 1 .086-.077.27.27 0 0 1 .11-.036l178.947-28.446a.3.3 0 0 1 .35.223.287.287 0 0 1-.137.297.27.27 0 0 1-.11.036L81.333 477.84l-.05.003Zm-64.469 87.24a.282.282 0 0 1-.208-.075.287.287 0 0 1-.092-.201V436.2a.275.275 0 0 1 .16-.247.342.342 0 0 1 .16-.03.343.343 0 0 1 .156.05l22.334 14.334a.269.269 0 0 1 .123.176.266.266 0 0 1-.047.21.334.334 0 0 1-.423.067l-21.873-14.037V564.8a.29.29 0 0 1-.29.283Z" fill="#000"/><path d="M81.41 540.793a.285.285 0 0 1-.209-.075.297.297 0 0 1-.094-.201l-.126-62.804-31.524-20.23a.26.26 0 0 1-.073-.386.337.337 0 0 1 .42-.067l31.783 20.393.127 63.094a.292.292 0 0 1-.094.201.285.285 0 0 1-.21.075Zm-34.97-85.306a.342.342 0 0 1-.173-.05l-1.043-.667a.265.265 0 0 1-.124-.175.263.263 0 0 1 .05-.208.333.333 0 0 1 .424-.07l1.04.666a.26.26 0 0 1 .08.075.256.256 0 0 1 .04.21.267.267 0 0 1-.047.099.312.312 0 0 1-.247.12Zm34.97 89.953a.285.285 0 0 1-.208-.075.291.291 0 0 1-.095-.202v-2a.303.303 0 0 1 .607 0v2a.287.287 0 0 1-.191.26.285.285 0 0 1-.112.017Z" fill="#000"/><path d="m117.483 488.813-29.96 4.75v44.894l29.96-4.75v-44.894Z" fill="#fff"/><path opacity=".4" d="M114.983 532.21v-43.047l2.157-.293.2 44.86-2.357-1.52Z" fill="#000"/><path opacity=".1" d="M87.73 538.13v-1.503l27.254-4.417 2.356 1.52-29.61 4.4Z" fill="#000"/><path d="M87.22 538.787v-45.454l30.446-4.83-.026 45.46-30.42 4.824Zm.606-45v44.333l29.21-4.633.03-44.334-29.24 4.634Z" fill="#000"/><path d="m149.153 483.76-29.96 4.75v44.893l29.96-4.753v-44.89Z" fill="#fff"/><path opacity=".4" d="M146.657 527.153v-43.046l2.154-.294.203 44.86-2.357-1.52Z" fill="#000"/><path opacity=".1" d="M119.4 533.073v-1.503l27.257-4.417 2.357 1.52-29.614 4.4Z" fill="#000"/><path d="M118.894 533.73v-45.453l30.44-4.83-.03 45.46-30.41 4.823Zm.603-45v44.333l29.213-4.633.027-44.333-29.24 4.633Z" fill="#000"/><path d="m181.263 478.32-29.96 4.75v44.893l29.96-4.75V478.32Z" fill="#fff"/><path opacity=".4" d="M178.763 521.713V478.67l2.153-.297.203 44.864-2.356-1.524Z" fill="#000"/><path opacity=".1" d="M151.506 527.637v-1.507l27.257-4.417 2.356 1.524-29.613 4.4Z" fill="#000"/><path d="M151 528.293v-45.456L181.45 478l-.027 45.46L151 528.293Zm.603-45v44.334L180.817 523l.026-44.333-29.24 4.626Z" fill="#000"/><path d="m213.254 472.847-29.96 4.753v44.89l29.96-4.75v-44.893Z" fill="#fff"/><path opacity=".4" d="M210.754 516.243v-43.046l2.153-.294.204 44.86-2.357-1.52Z" fill="#000"/><path opacity=".1" d="M183.497 522.163v-1.503l27.257-4.417 2.356 1.52-29.613 4.4Z" fill="#000"/><path d="M183 522.82v-45.453l30.45-4.83-.037 45.463L183 522.82Zm.607-45v44.333l29.21-4.633.026-44.333-29.236 4.633Z" fill="#000"/><path d="m245.254 467.71-29.96 4.75v44.893l29.96-4.753v-44.89Z" fill="#fff"/><path opacity=".4" d="M242.754 511.103v-43.046l2.153-.294.204 44.86-2.357-1.52Z" fill="#000"/><path opacity=".1" d="M215.497 517.023v-1.503l27.257-4.417 2.356 1.52-29.613 4.4Z" fill="#000"/><path d="M215 517.667v-45.44l30.45-4.83-.03 45.46-30.42 4.81Zm.603-45V517l29.214-4.633.026-44.334-29.24 4.634Z" fill="#000"/><path d="m276.87 462.603-29.96 4.75v44.894l29.96-4.75v-44.894Z" fill="#fff"/><path opacity=".4" d="M274.37 505.997v-43.044l2.153-.296.204 44.86-2.357-1.52Z" fill="#000"/><path opacity=".1" d="M247.113 511.92v-1.507l27.257-4.416 2.357 1.52-29.614 4.403Z" fill="#000"/><path d="M246.607 512.577V467.12l30.45-4.827-.026 45.457-30.424 4.827Zm.607-45v44.333l29.21-4.63.027-44.333-29.237 4.63Z" fill="#000"/><path d="m117.483 541.15-29.96 4.75v44.893l29.96-4.75V541.15Z" fill="#fff"/><path opacity=".4" d="M114.983 584.543V541.5l2.157-.297.2 44.86-2.357-1.52Z" fill="#000"/><path opacity=".1" d="M87.73 590.467v-1.507l27.254-4.417 2.356 1.52-29.61 4.404Z" fill="#000"/><path d="M87.22 591.123v-45.456l30.446-4.827-.026 45.457-30.42 4.826Zm.606-45v44.334l29.21-4.63.03-44.334-29.24 4.63Z" fill="#000"/><path d="m149.153 536.093-29.96 4.754v44.89l29.96-4.75v-44.894Z" fill="#fff"/><path opacity=".4" d="M146.657 579.49v-43.047l2.154-.293.203 44.86-2.357-1.52Z" fill="#000"/><path opacity=".1" d="M119.4 585.41v-1.503l27.257-4.417 2.357 1.52-29.614 4.4Z" fill="#000"/><path d="M118.894 586.067v-45.454l30.44-4.83-.03 45.46-30.41 4.824Zm.603-45V585.4l29.213-4.633.027-44.334-29.24 4.634Z" fill="#000"/><path d="m181.013 530.953-29.956 4.754V580.6l29.956-4.753v-44.894Z" fill="#fff"/><path opacity=".4" d="M178.517 574.35v-43.047l2.153-.293.203 44.86-2.356-1.52Z" fill="#000"/><path opacity=".1" d="M151.261 580.27v-1.503l27.256-4.417 2.357 1.52-29.613 4.4Z" fill="#000"/><path d="M150.754 580.927v-45.454l30.45-4.83-.03 45.46-30.42 4.824Zm.603-45v44.333l29.214-4.633.026-44.334-29.24 4.634Z" fill="#000"/><path d="m213.07 525.817-29.96 4.75v44.893l29.96-4.75v-44.893Z" fill="#fff"/><path opacity=".4" d="M210.57 569.21v-43.047l2.154-.293.203 44.86-2.357-1.52Z" fill="#000"/><path opacity=".1" d="M183.313 575.133v-1.506l27.257-4.417 2.357 1.52-29.614 4.403Z" fill="#000"/><path d="M182.807 575.787v-45.454l30.45-4.826-.03 45.456-30.42 4.824Zm.603-45v44.333l29.213-4.633.027-44.334-29.24 4.634Z" fill="#000"/><path d="m245.067 520.677-29.96 4.75v44.893l29.96-4.75v-44.893Z" fill="#fff"/><path opacity=".4" d="M242.57 564.07v-43.043l2.154-.297.2 44.863-2.354-1.523Z" fill="#000"/><path opacity=".1" d="M215.313 569.993v-1.506l27.257-4.417 2.353 1.523-29.61 4.4Z" fill="#000"/><path d="M214.807 570.667v-45.474l30.45-4.826-.03 45.456-30.42 4.844Zm.603-45V570l29.213-4.63.027-44.333-29.24 4.63Z" fill="#000"/><path d="m276.688 515.57-29.96 4.75v44.893l29.96-4.75V515.57Z" fill="#fff"/><path opacity=".4" d="M274.188 558.963V515.92l2.153-.293.203 44.86-2.356-1.524Z" fill="#000"/><path opacity=".1" d="M246.931 564.887v-1.504l27.256-4.42 2.357 1.524-29.613 4.4Z" fill="#000"/><path d="M246.424 565.543V520.09l30.45-4.83-.03 45.46-30.42 4.823Zm.603-45v44.334l29.213-4.634.027-44.333-29.24 4.633Z" fill="#000"/><path d="m116.811 594.75-29.96 4.75v44.893l29.96-4.75V594.75Z" fill="#fff"/><path opacity=".4" d="M114.311 638.143V595.1l2.153-.297.203 44.864-2.356-1.524Z" fill="#000"/><path opacity=".1" d="M87.054 644.067v-1.504l27.256-4.42 2.357 1.524-29.613 4.4Z" fill="#000"/><path d="M86.548 644.723V599.27L117 594.44l-.03 45.46-30.423 4.823Zm.603-45v44.334l29.214-4.634.026-44.333-29.24 4.633Z" fill="#000"/><path d="m148.481 589.693-29.96 4.754v44.893l29.96-4.753v-44.894Z" fill="#fff"/><path opacity=".4" d="M145.98 633.09v-43.047l2.154-.293.203 44.86-2.357-1.52Z" fill="#000"/><path opacity=".1" d="M118.727 639.01v-1.503l27.253-4.417 2.357 1.52-29.61 4.4Z" fill="#000"/><path d="M118.217 639.667v-45.454l30.45-4.83-.027 45.46-30.423 4.824Zm.606-45V639l29.21-4.633.027-44.334-29.237 4.634Z" fill="#000"/><path d="m180.523 583.923-29.96 4.75v44.894l29.96-4.75v-44.894Z" fill="#fff"/><path opacity=".4" d="M178.027 627.317v-43.044l2.154-.296.2 44.863-2.354-1.523Z" fill="#000"/><path opacity=".1" d="M150.771 633.24v-1.507l27.256-4.416 2.354 1.523-29.61 4.4Z" fill="#000"/><path d="M150.261 633.897V588.44l30.45-4.827-.027 45.457-30.423 4.827Zm.606-45v44.333l29.21-4.63.03-44.333-29.24 4.63Z" fill="#000"/><path d="m212.577 578.783-29.96 4.75v44.894l29.96-4.75v-44.894Z" fill="#fff"/><path opacity=".4" d="M210.08 622.18v-43.047l2.153-.293.2 44.86-2.353-1.52Z" fill="#000"/><path opacity=".1" d="M182.823 628.1v-1.503l27.257-4.417 2.353 1.52-29.61 4.4Z" fill="#000"/><path d="M182.313 628.757v-45.454l30.45-4.83-.026 45.46-30.424 4.824Zm.607-45v44.333l29.213-4.633.027-44.334-29.24 4.634Z" fill="#000"/><path d="m244.577 573.643-29.96 4.754v44.89l29.96-4.75v-44.894Z" fill="#fff"/><path opacity=".4" d="M242.077 617.04v-43.047l2.157-.293.2 44.86-2.357-1.52Z" fill="#000"/><path opacity=".1" d="M214.823 622.96v-1.503l27.254-4.417 2.356 1.52-29.61 4.4Z" fill="#000"/><path d="M214.313 623.617v-45.454l30.45-4.83-.026 45.46-30.424 4.824Zm.607-45v44.333l29.21-4.633.027-44.334-29.237 4.634Z" fill="#000"/><path d="m276.193 568.54-29.96 4.75v44.893l29.96-4.75V568.54Z" fill="#fff"/><path opacity=".4" d="M273.697 611.933v-43.046l2.154-.294.2 44.86-2.354-1.52Z" fill="#000"/><path opacity=".1" d="M246.44 617.857v-1.507l27.257-4.417 2.353 1.52-29.61 4.404Z" fill="#000"/><path d="M245.93 618.51v-45.453l30.45-4.83-.027 45.46-30.423 4.823Zm.606-45v44.333l29.214-4.633.026-44.333-29.24 4.633Z" fill="#000"/><path d="m180.341 636.89-29.96 4.753v44.89l29.96-4.75V636.89Z" fill="#fff"/><path opacity=".4" d="M177.84 680.287V637.24l2.156-.293.201 44.86-2.357-1.52Z" fill="#000"/><path d="M150.077 686.863V641.41l30.45-4.83-.027 45.46-30.423 4.823Zm.607-45v44.334l29.21-4.634.026-44.333-29.236 4.633Z" fill="#000"/><path d="m212.394 631.753-29.96 4.75v44.894l29.96-4.754v-44.89Z" fill="#fff"/><path opacity=".4" d="M209.894 675.147V632.1l2.153-.293.203 44.86-2.356-1.52Z" fill="#000"/><path d="M182.131 681.724V636.27l30.45-4.83-.027 45.46-30.423 4.824Zm.607-45.001v44.334l29.21-4.634.026-44.333-29.236 4.633Z" fill="#000"/><path d="m244.394 626.613-29.96 4.75v44.894l29.96-4.75v-44.894Z" fill="#fff"/><path opacity=".4" d="M241.894 670.007v-43.044l2.153-.296.203 44.86-2.356-1.52Z" fill="#000"/><path d="M214.131 676.587V631.13l30.45-4.827-.027 45.457-30.423 4.827Zm.607-45v44.333l29.209-4.63.027-44.333-29.236 4.63Z" fill="#000"/><path d="m276.011 621.507-29.96 4.75v44.893l29.96-4.75v-44.893Z" fill="#fff"/><path opacity=".4" d="M273.511 664.9v-43.043l2.156-.297.2 44.863-2.356-1.523Z" fill="#000"/><path d="M245.747 671.48v-45.457l30.45-4.826-.027 45.47-30.423 4.813Zm.607-45v44.333l29.21-4.63.03-44.333-29.24 4.63Z" fill="#000"/><path d="M87.284 390.543c.83.364 2.133.334 3.213-.08 1.08-.413 1.75-1.14 1.647-1.783-.104-.643-.937-1.08-2.053-1.113a4.714 4.714 0 0 0-3.074.98c-.713.636-.71 1.393 0 1.85.086.054.175.103.267.146Z" fill="#D8D8D8"/><path d="M87.17 390.8a1.972 1.972 0 0 1-.314-.17 1.332 1.332 0 0 1-.666-1 1.617 1.617 0 0 1 .626-1.293 4.998 4.998 0 0 1 3.27-1.054c1.264.04 2.194.584 2.334 1.35.14.767-.607 1.627-1.824 2.094-1.153.44-2.53.47-3.427.073Zm.226-.517c.76.334 2 .3 3-.083.93-.357 1.55-.977 1.467-1.477-.084-.5-.827-.846-1.784-.876a4.469 4.469 0 0 0-2.876.91 1.055 1.055 0 0 0-.437.83.792.792 0 0 0 .397.573c.074.047.152.088.233.123Z" fill="#000"/><path d="M89.297 390.263c-.29.034-.527.107-.53.16l-.06 2.91 1.05-.126.06-2.91c.003-.054-.23-.07-.52-.034Z" fill="#F8C509"/><path d="M88.593 393.59a.285.285 0 0 1-.17-.263l.063-2.91c0-.24.237-.37.773-.434.567-.07.694.044.74.087a.333.333 0 0 1 .1.233l-.063 2.907a.279.279 0 0 1-.246.273l-1.05.127a.274.274 0 0 1-.147-.02Zm.453-3L89 393l.487-.057.053-2.43h-.203a2.642 2.642 0 0 0-.29.08v-.003Z" fill="#000"/><path d="M89.297 390.263c-.29.034-.527.107-.53.16l-.06 2.91 1.05-.126.06-2.91c.003-.054-.23-.07-.52-.034Z" fill="#D8D8D8"/><path d="M89.793 390.27c.017 0 .027 0 .024.027l-.06 2.91-1.05.126.06-2.91c0-.053.24-.126.53-.16.163-.034.333-.034.496 0v.007Zm.214-.493a1.405 1.405 0 0 0-.774-.047c-.296.033-.983.117-1 .667l-.063 2.91a.528.528 0 0 0 .593.536l1.05-.126a.53.53 0 0 0 .467-.514l.06-2.91a.556.556 0 0 0-.333-.523v.007Z" fill="#000"/><path d="M94.793 392.78c0-.297-2.543-1.383-5.616-1-3.074.383-5.51 2.06-5.517 2.357v.693c0 .297 2.48.237 5.553-.133 3.074-.37 5.57-.914 5.577-1.214l.003-.703Z" fill="#D8D8D8"/><path d="M83.587 395.143a.351.351 0 0 1-.223-.33v-.693c0-.607 2.806-2.273 5.763-2.63 2.906-.353 5.306.553 5.77.973a.42.42 0 0 1 .16.334v.693c0 .253-.147.477-1.86.847-1.064.23-2.47.456-3.967.64-.82.086-4.79.543-5.643.166Zm.353-.956v.486c.49.107 2.413.074 5.237-.266 3-.36 4.943-.817 5.333-1.037v-.513c-.363-.3-2.567-1.14-5.3-.81-2.807.34-4.993 1.78-5.27 2.14Z" fill="#000"/><path d="M83.647 394.82c0 .297 2.526.733 5.603.36 3.076-.373 5.52-1.407 5.526-1.707.007-.3-2.453-.773-5.526-.403s-5.584 1.453-5.603 1.75Z" fill="#BFBFBF"/><path d="M83.666 395.26a.763.763 0 0 1-.216-.13.416.416 0 0 1-.147-.333c.017-.777 3.59-1.794 5.897-2.07 2.626-.334 5.25-.037 5.75.416a.424.424 0 0 1 .15.334c-.017.773-3.49 1.746-5.82 2.03-2.404.296-4.79.113-5.614-.247Zm10.504-1.73a14.653 14.653 0 0 0-4.89-.13 16.708 16.708 0 0 0-5.04 1.36c1.638.289 3.312.321 4.96.093a16.775 16.775 0 0 0 4.98-1.323h-.01Z" fill="#000"/><path d="m88.21 394.497-.387 34.79c0 .086 2.064-.164 2.067-.25l.387-34.79c.003-.247-2.06.013-2.067.25Z" fill="#F8C509"/><path d="M87.51 429.573v-.293l.386-34.79c0-.667 2.037-.667 2.057-.667.45 0 .667.157.667.434l-.387 34.786c0 .334-.313.384-1.13.49-.393.057-.79.093-1.187.107h-.12l-.286-.067Zm1.03-34.906-.384 34.296a15.57 15.57 0 0 0 1.404-.173l.383-34.31a5.73 5.73 0 0 0-1.403.187Z" fill="#000"/><path d="m88.21 394.497-.387 34.79c0 .086 2.064-.164 2.067-.25l.387-34.79c.003-.247-2.06.013-2.067.25Z" fill="#D8D8D8"/><path d="M87.51 429.573v-.293l.386-34.79c0-.667 2.037-.667 2.057-.667.45 0 .667.157.667.434l-.387 34.786c0 .334-.313.384-1.13.49-.393.057-.79.093-1.187.107h-.12l-.286-.067Zm1.03-34.906-.384 34.296a15.57 15.57 0 0 0 1.404-.173l.383-34.31a5.73 5.73 0 0 0-1.403.187Z" fill="#000"/><path d="m88.84 427.143.35-33c-.487.064-.947.18-.95.29l-.36 33.667c0 .083 2.067-.167 2.067-.25v-.77a4.883 4.883 0 0 1-1.107.063Z" fill="#BFBFBF"/><path d="m91.587 398.1-4.167.507.033-1.567 4.167-.503-.033 1.563Z" fill="url(#c)"/><path d="M87.51 429.573v-.293l.386-34.79c0-.667 2.037-.667 2.057-.667.45 0 .667.157.667.434l-.387 34.786c0 .334-.313.384-1.13.49-.393.057-.79.093-1.187.107h-.12l-.286-.067Zm1.03-34.906-.384 34.296a15.57 15.57 0 0 0 1.404-.173l.383-34.31a5.73 5.73 0 0 0-1.403.187Z" fill="#000"/><path d="m83.197 396.887-.393 18.19 1.82-.45.373-17.35-1.8-.39Z" fill="#F8C509"/><path d="M82.666 415.38a.313.313 0 0 1-.073-.047.331.331 0 0 1-.123-.263l.39-18.19a.334.334 0 0 1 .258-.316.34.34 0 0 1 .145-.001l1.8.39a.334.334 0 0 1 .26.334l-.373 17.35a.336.336 0 0 1-.254.313l-1.816.45a.333.333 0 0 1-.214-.02Zm.847-18.087-.37 17.374 1.153-.284.36-16.823-1.143-.267Z" fill="#000"/><path d="m83.197 396.887-.393 18.19 1.82-.45.373-17.35-1.8-.39Z" fill="#BFBFBF"/><path d="M82.666 415.38a.313.313 0 0 1-.073-.047.331.331 0 0 1-.123-.263l.39-18.19a.334.334 0 0 1 .258-.316.34.34 0 0 1 .145-.001l1.8.39a.334.334 0 0 1 .26.334l-.373 17.35a.336.336 0 0 1-.254.313l-1.816.45a.333.333 0 0 1-.214-.02Zm.847-18.087-.37 17.374 1.153-.284.36-16.823-1.143-.267Z" fill="#000"/><path d="m79.903 415.053 2.9.024.394-18.19s-2.914.516-2.93 1.37l-.364 16.796Z" fill="#D8D8D8"/><path d="M79.77 415.357a.337.337 0 0 1-.197-.31l.364-16.797c.02-1 2.246-1.52 3.2-1.69a.354.354 0 0 1 .144.006.333.333 0 0 1 .245.327l-.39 18.19a.332.332 0 0 1-.333.334l-2.9-.02a.313.313 0 0 1-.133-.04Zm3.087-18.067c-1.204.263-2.254.703-2.26.973l-.354 16.464h2.237l.377-17.437Z" fill="#000"/><path d="m95.717 395.373-.39 18.19-1.806-.013.373-17.35 1.823-.827Z" fill="#BFBFBF"/><path d="M93.386 413.853a.317.317 0 0 1-.174-.18.332.332 0 0 1-.022-.13l.373-17.35a.333.333 0 0 1 .193-.293l1.824-.83a.333.333 0 0 1 .333.027.338.338 0 0 1 .15.283l-.397 18.19a.335.335 0 0 1-.333.333h-1.81a.353.353 0 0 1-.137-.05Zm.834-17.436-.364 16.806h1.147l.373-17.333-1.156.527Z" fill="#000"/><path d="m98.244 412.837-2.917.726.394-18.19s2.903-.186 2.883.667l-.36 16.797Z" fill="#D8D8D8"/><path d="M95.193 413.863a.216.216 0 0 1-.073-.043.335.335 0 0 1-.124-.267l.39-18.19a.334.334 0 0 1 .31-.333c.394-.023 2.387-.12 3 .48a.71.71 0 0 1 .227.527l-.364 16.796a.334.334 0 0 1-.25.334l-2.916.723a.329.329 0 0 1-.2-.027Zm.85-18.173-.377 17.447 2.25-.56.357-16.544-.023-.033c-.27-.26-1.38-.333-2.207-.31Z" fill="#000"/><path d="m94.573 406.59-10.71 1.293.107-4.99 10.71-1.293-.107 4.99Z" fill="#BFBFBF"/><path d="M83.73 408.187a.328.328 0 0 1-.197-.31l.107-5a.332.332 0 0 1 .29-.334l10.71-1.296a.327.327 0 0 1 .37.336l-.107 5a.332.332 0 0 1-.29.334l-10.71 1.296a.332.332 0 0 1-.173-.026Zm.567-5-.094 4.333 10.047-1.217.09-4.333-10.043 1.217Z" fill="#000"/><path d="m94.573 406.59-10.71 1.293.697.324 9.297-1.124.716-.493Z" fill="#DAA415"/><path d="m84.427 408.51-.696-.333a.333.333 0 0 1 .1-.63l10.71-1.294a.332.332 0 0 1 .23.6l-.717.497a.34.34 0 0 1-.15.057l-9.297 1.123a.335.335 0 0 1-.18-.02Z" fill="#000"/><path d="m91.72 414-5.31.643.387-18.02c0 .577 5.3-.066 5.31-.64L91.72 414Z" fill="#D8D8D8"/><path d="M86.276 414.95a.327.327 0 0 1-.2-.31l.39-18.017a.33.33 0 0 1 .098-.235.331.331 0 0 1 .236-.098.33.33 0 0 1 .164.048.33.33 0 0 1 .119.122c.667.233 4.193-.213 4.71-.597a.331.331 0 0 1 .373-.204.33.33 0 0 1 .27.328l-.39 18a.332.332 0 0 1-.29.333l-5.31.643a.328.328 0 0 1-.17-.013Zm.84-17.81-.37 17.133 4.65-.563.367-17.11c-1.057.363-3.54.71-4.647.54Z" fill="#000"/><path d="m86.41 414.647 5.31-.644c0-.206-1.18-.233-2.647-.056-1.466.176-2.66.493-2.663.7Z" fill="#F8C509"/><path d="M86.276 414.95a.327.327 0 0 1-.2-.31c0-.167 0-.667 2.957-1.023.737-.09 2.497-.257 2.883.093a.38.38 0 0 1 .134.3.331.331 0 0 1-.29.333l-5.31.644a.336.336 0 0 1-.174-.037Z" fill="#000"/><path d="M91.443 477.087c0 .066-6.087.773-6.084.71.004-.064.437-48.437.437-48.437a4.52 4.52 0 0 1 2.983-1.263c2-.054 3.1.553 3.1.553l-.436 48.437Z" fill="#D8D8D8"/><path d="M90.08 477.437a3.777 3.777 0 0 1-2.764-.89c0-.06.823-44.667.857-48.334-.844.37-2.377 1.137-2.377 1.137l-.437 48.437c0 .063 1.85.95 3.394.77 1.543-.18 2.69-1.447 2.69-1.48v-.107a3.84 3.84 0 0 1-1.364.467Z" fill="#BFBFBF"/><path d="M85.03 477.817a.042.042 0 0 1 0-.02c0-.794.433-47.947.436-48.424v-.13l.087-.093a4.845 4.845 0 0 1 3.22-1.367c2.06-.056 3.217.567 3.267.594a.335.335 0 0 1 .17.293c-.07 8.083-.434 48.407-.434 48.44 0 .36 0 1.133-3.156 1.48-2 .223-2.21-.087-2.54-.097l-.56-.186a.708.708 0 0 1-.49-.49Zm1.093-48.167c-.05 5.667-.377 41.86-.427 47.433 0 .197.187.244.364.334 1.036.533 3.413.563 4.666-.26.192-.161.326-.38.383-.624.047-5.036.387-42.883.427-47.443a.333.333 0 0 0-.223-.313 7.114 7.114 0 0 0-2.53-.334 4.221 4.221 0 0 0-2.547.97.318.318 0 0 0-.113.254v-.017Z" fill="#000"/><path d="M87.473 369.81c.83.367 2.133.333 3.213-.08 1.08-.413 1.75-1.137 1.647-1.783-.103-.647-.933-1.077-2.053-1.114a4.728 4.728 0 0 0-3.074 1c-.71.634-.71 1.39 0 1.847.086.05.175.094.267.13Z" fill="#D8D8D8"/><path d="M87.359 370.067a2.483 2.483 0 0 1-.313-.167 1.333 1.333 0 0 1-.667-1 1.611 1.611 0 0 1 .627-1.29 5.002 5.002 0 0 1 3.27-1.053c1.263.04 2.196.58 2.333 1.333s-.603 1.627-1.823 2.09c-1.15.453-2.527.483-3.427.087Zm.227-.514c.76.334 2 .3 3-.083.933-.357 1.55-.977 1.466-1.477-.083-.5-.826-.85-1.78-.876a4.438 4.438 0 0 0-2.876.91 1.07 1.07 0 0 0-.44.826.784.784 0 0 0 .396.574c.075.047.153.09.234.126Z" fill="#000"/><path d="M89.487 369.53c-.29.037-.527.107-.527.16l-.063 2.91 1.05-.127.063-2.91c-.01-.053-.234-.066-.523-.033Z" fill="#F8C509"/><path d="M88.782 372.857a.26.26 0 0 1-.146-.146.291.291 0 0 1-.024-.118l.064-2.906c0-.24.236-.37.776-.437.564-.067.69.047.737.09a.333.333 0 0 1 .1.23l-.063 2.91a.28.28 0 0 1-.247.273l-1.05.127a.284.284 0 0 1-.147-.023Zm.454-3-.054 2.423.487-.06.053-2.43h-.203c-.096.017-.19.04-.283.07v-.003Z" fill="#000"/><path d="M89.487 369.53c-.29.037-.527.107-.527.16l-.063 2.91 1.05-.127.063-2.91c-.01-.053-.234-.066-.523-.033Z" fill="#D8D8D8"/><path d="M90 369.537c.016 0 .026.016.026.026l-.063 2.91-1.05.127.063-2.91c0-.053.237-.123.527-.16.164-.031.332-.031.496 0v.007Zm.213-.49a1.352 1.352 0 0 0-.774-.05c-.293.036-.983.12-1 .666l-.063 2.91a.533.533 0 0 0 .173.404.513.513 0 0 0 .144.09.525.525 0 0 0 .276.043L90 373a.539.539 0 0 0 .467-.517l.063-2.906a.558.558 0 0 0-.333-.524l.017-.006Z" fill="#000"/><path d="M95 372.047c0-.297-2.544-1.384-5.617-1-3.073.383-5.51 2.06-5.517 2.356v.697c0 .297 2.48.237 5.553-.137 3.074-.373 5.574-.913 5.58-1.21v-.706Z" fill="#D8D8D8"/><path d="M83.776 374.41a.349.349 0 0 1-.223-.333l.016-.697c0-.603 2.807-2.273 5.764-2.63 2.956-.357 5.306.557 5.77.973a.429.429 0 0 1 .16.334v.696c0 .25-.147.474-1.86.847-1.064.23-2.47.457-3.967.637-.837.096-4.807.55-5.66.173Zm.353-.957v.49c.494.104 2.417.074 5.237-.27 3-.36 4.943-.816 5.333-1.036v-.51c-.363-.304-2.563-1.14-5.3-.81-2.806.35-4.993 1.776-5.27 2.136Z" fill="#000"/><path d="M83.836 374.09c0 .297 2.53.73 5.603.36 3.074-.37 5.524-1.41 5.53-1.707.007-.296-2.456-.776-5.53-.403-3.073.373-5.596 1.45-5.603 1.75Z" fill="#BFBFBF"/><path d="M83.866 374.53a.925.925 0 0 1-.217-.13.396.396 0 0 1-.143-.333c0-.78 3.586-1.794 5.893-2.074 2.63-.333 5.25-.036 5.753.417a.432.432 0 0 1 .147.333c0 .77-3.49 1.747-5.82 2.027-2.413.3-4.797.12-5.613-.24Zm10.503-1.733a14.76 14.76 0 0 0-4.89-.13 16.683 16.683 0 0 0-5.04 1.363 15.9 15.9 0 0 0 4.96.09 16.707 16.707 0 0 0 4.97-1.323Z" fill="#000"/><path d="m88.399 373.763-.4 34.794c0 .083 2.063-.167 2.067-.25l.386-34.794c.02-.236-2.046.014-2.053.25Z" fill="#F8C509"/><path d="m87.7 408.84-.017-.29.386-34.793c0-.667 2.037-.667 2.057-.667.45 0 .667.157.667.437l-.387 34.786c0 .334-.313.38-1.13.487-.393.057-.79.093-1.187.107h-.116l-.274-.067Zm1.03-34.907-.38 34.3c.386-.03 1.063-.113 1.4-.176l.383-34.31a5.73 5.73 0 0 0-1.404.186Z" fill="#000"/><path d="m88.399 373.763-.4 34.794c0 .083 2.063-.167 2.067-.25l.386-34.794c.02-.236-2.046.014-2.053.25Z" fill="#D8D8D8"/><path d="m87.7 408.84-.017-.29.386-34.793c0-.667 2.037-.667 2.057-.667.45 0 .667.157.667.437l-.387 34.786c0 .334-.313.38-1.13.487-.393.057-.79.093-1.187.107h-.116l-.274-.067Zm1.03-34.907-.38 34.3c.386-.03 1.063-.113 1.4-.176l.383-34.31a5.73 5.73 0 0 0-1.404.186Z" fill="#000"/><path d="m89.03 406.41.35-33c-.483.067-.947.18-.95.293l-.357 33.667c0 .087 2.064-.163 2.064-.25v-.77a4.663 4.663 0 0 1-1.107.06Z" fill="#BFBFBF"/><path d="m91.776 377.37-4.167.503.034-1.563 4.166-.503-.033 1.563Z" fill="url(#d)"/><path d="m87.7 408.84-.017-.29.386-34.793c0-.667 2.037-.667 2.057-.667.45 0 .667.157.667.437l-.387 34.786c0 .334-.313.38-1.13.487-.393.057-.79.093-1.187.107h-.116l-.274-.067Zm1.03-34.907-.38 34.3c.386-.03 1.063-.113 1.4-.176l.383-34.31a5.73 5.73 0 0 0-1.404.186Z" fill="#000"/><path d="m83.386 376.153-.39 18.19 1.817-.45.373-17.35-1.8-.39Z" fill="#F8C509"/><path d="M82.859 394.647a.327.327 0 0 1-.197-.31l.393-18.19a.336.336 0 0 1 .124-.254.336.336 0 0 1 .276-.063l1.8.39a.332.332 0 0 1 .26.333l-.373 17.334a.331.331 0 0 1-.25.313l-1.82.45a.338.338 0 0 1-.213-.003Zm.85-18.084-.377 17.357 1.15-.287.364-16.823-1.137-.247Z" fill="#000"/><path d="m83.386 376.153-.39 18.19 1.817-.45.373-17.35-1.8-.39Z" fill="#BFBFBF"/><path d="M82.859 394.647a.327.327 0 0 1-.197-.31l.393-18.19a.336.336 0 0 1 .124-.254.336.336 0 0 1 .276-.063l1.8.39a.332.332 0 0 1 .26.333l-.373 17.334a.331.331 0 0 1-.25.313l-1.82.45a.338.338 0 0 1-.213-.003Zm.85-18.084-.377 17.357 1.15-.287.364-16.823-1.137-.247Z" fill="#000"/><path d="m80.096 394.333 2.9.02.39-18.19s-2.91.517-2.93 1.37l-.36 16.8Z" fill="#D8D8D8"/><path d="M79.963 394.627a.331.331 0 0 1-.2-.31l.363-16.8c.02-1 2.247-1.52 3.203-1.69a.339.339 0 0 1 .146.007.335.335 0 0 1 .242.326l-.384 18.19a.335.335 0 0 1-.333.333l-2.9-.023a.34.34 0 0 1-.137-.033Zm3.083-18.067c-1.203.26-2.253.703-2.26.97L80.433 394h2.236l.377-17.44Z" fill="#000"/><path d="m95.91 374.64-.393 18.19-1.807-.01.373-17.35 1.827-.83Z" fill="#BFBFBF"/><path d="M93.577 393.123a.334.334 0 0 1-.197-.31l.373-17.333a.33.33 0 0 1 .194-.297l1.826-.826a.33.33 0 0 1 .427.147.34.34 0 0 1 .04.159l-.39 18.19a.332.332 0 0 1-.333.334h-1.81a.335.335 0 0 1-.13-.064Zm.833-17.44-.36 16.807h1.143l.374-17.333-1.157.526Z" fill="#000"/><path d="m98.433 392.107-2.916.723.393-18.19s2.903-.187 2.883.667l-.36 16.8Z" fill="#D8D8D8"/><path d="m95.382 393.133-.073-.043a.335.335 0 0 1-.123-.267l.39-18.19a.333.333 0 0 1 .31-.333c.393-.027 2.386-.12 3 .48a.691.691 0 0 1 .226.523l-.363 16.8a.335.335 0 0 1-.25.314l-2.917.723a.311.311 0 0 1-.2-.007Zm.85-18.176-.376 17.446 2.25-.556.356-16.547-.02-.033c-.273-.267-1.38-.334-2.21-.31Z" fill="#000"/><path d="m94.763 385.857-10.71 1.293.106-4.987 10.71-1.296-.106 4.99Z" fill="#BFBFBF"/><path d="M83.92 387.453a.348.348 0 0 1-.09-.056.335.335 0 0 1-.107-.254l.106-5a.332.332 0 0 1 .29-.333l10.71-1.293a.327.327 0 0 1 .345.196c.02.043.03.09.029.137l-.11 5a.332.332 0 0 1-.29.333l-10.71 1.294a.343.343 0 0 1-.174-.024Zm.566-5-.093 4.334 10.046-1.214.094-4.333-10.047 1.213Z" fill="#000"/><path d="m94.763 385.857-10.71 1.293.696.327 9.3-1.124.714-.496Z" fill="#DAA415"/><path d="m84.616 387.78-.697-.333a.334.334 0 0 1-.186-.354.33.33 0 0 1 .286-.276l10.71-1.297a.332.332 0 0 1 .35.213.33.33 0 0 1-.12.39l-.716.494a.337.337 0 0 1-.147.056l-9.3 1.124a.317.317 0 0 1-.18-.017Z" fill="#000"/><path d="m91.91 393.273-5.31.64.386-18c0 .574 5.3-.066 5.314-.643l-.39 18.003Z" fill="#D8D8D8"/><path d="M86.466 394.217a.328.328 0 0 1-.197-.31l.387-18a.332.332 0 0 1 .334-.334.34.34 0 0 1 .283.17c.667.23 4.193-.213 4.71-.596a.33.33 0 0 1 .333-.217.332.332 0 0 1 .334.333l-.387 18.02a.335.335 0 0 1-.293.334l-5.31.643a.343.343 0 0 1-.194-.043Zm.84-17.807-.366 17.13 4.646-.56.367-17.11c-1.053.363-3.54.707-4.647.54Z" fill="#000"/><path d="m86.6 393.913 5.31-.64c0-.206-1.18-.236-2.647-.06-1.467.177-2.66.497-2.663.7Z" fill="#F8C509"/><path d="M86.466 394.217a.328.328 0 0 1-.197-.31c0-.164 0-.667 2.954-1.02.74-.09 2.497-.26 2.883.09a.397.397 0 0 1 .137.303.335.335 0 0 1-.293.333l-5.31.644a.348.348 0 0 1-.174-.04Z" fill="#000"/><path d="M91.632 456.357c0 .063-6.083.773-6.083.706l.45-48.436a4.531 4.531 0 0 1 3-1.26c2-.054 3.097.55 3.097.55s-.46 48.416-.464 48.44Z" fill="#D8D8D8"/><path d="M90.269 456.703a3.773 3.773 0 0 1-2.764-.886c0-.064.824-44.667.857-48.334a81.022 81.022 0 0 0-2.376 1.137l-.437 48.44c0 .067 1.853.947 3.393.767 1.54-.18 2.69-1.447 2.69-1.477v-.107a3.837 3.837 0 0 1-1.363.46Z" fill="#BFBFBF"/><path d="M85.219 457.087v-.037c0-.797.43-47.947.433-48.427v-.13l.087-.093a4.862 4.862 0 0 1 3.22-1.367c2.06-.053 3.216.567 3.266.594a.33.33 0 0 1 .174.293c-.067 8.08-.434 48.413-.434 48.443 0 .36 0 1.137-3.156 1.484-2 .22-2.21-.09-2.537-.097l-.563-.19a.702.702 0 0 1-.49-.473Zm1.093-48.17c-.05 5.666-.377 41.86-.427 47.436 0 .197.19.24.364.334 1.036.536 3.413.566 4.666-.257.192-.163.327-.382.387-.627.043-5.036.383-42.883.427-47.44a.334.334 0 0 0-.224-.316 7.226 7.226 0 0 0-2.533-.334 4.25 4.25 0 0 0-2.547.97.342.342 0 0 0-.113.234Z" fill="#000"/><path d="M89.511 390.418c1.41-.256 2.451-1.016 2.327-1.699-.123-.683-1.366-1.03-2.776-.774-1.409.256-2.45 1.016-2.327 1.699.124.683 1.367 1.03 2.776.774Z" fill="red"/><path opacity=".2" d="M89.47 409.403c11.174 0 20.233-9.058 20.233-20.233 0-11.174-9.059-20.233-20.233-20.233-11.175 0-20.234 9.059-20.234 20.233 0 11.175 9.06 20.233 20.234 20.233Z" fill="url(#e)"/><path opacity=".25" d="M294.08 81.62c-2.293 2.093-4.77 4.033-6.177 6.94l7.204-.737-1.027-6.203Zm15.2 20.33a1.66 1.66 0 0 1-.197.06 1 1 0 0 1-1.036-.367l-.404.404-.666 1.186c-1.217 2.394-1 3.834 2.35 3.424.86-.104 1.873-.104 2.356.816.464-.363.897-.793 1.36-1.156l-3.666-4.417a1.271 1.271 0 0 1-.097.05Zm16.63-3.707a117.115 117.115 0 0 1-6.794 5.117l9.334-4.297a2.336 2.336 0 0 1-2.557-.82h.017Zm102.757 13.04-.117-.25a10.697 10.697 0 0 0-.48-.95 4.144 4.144 0 0 0-.28-.416 2.502 2.502 0 0 0-.333-.357 2.14 2.14 0 0 0-1.14-.54 2.453 2.453 0 0 0-.297-.033h-.333a21.093 21.093 0 0 1-3.463-.154 19.742 19.742 0 0 1-4.817-1.256 9.297 9.297 0 0 1-.76-.334c-.37-.163-.737-.333-1.1-.526-.363-.194-.747-.39-1.113-.604-.367-.213-.754-.45-1.124-.693a24.13 24.13 0 0 1-1.936-1.4 29.301 29.301 0 0 1-1.857-1.59 22.89 22.89 0 0 1-3.217-3.667 21.104 21.104 0 0 1-1.223-2c-1.83-3.406-2.613-7.23-2.393-11.4.093-1.716.176-2.79 0-3.506a1.952 1.952 0 0 0-.177-.474 1.476 1.476 0 0 0-.393-.443 2.545 2.545 0 0 0-.514-.29 4.408 4.408 0 0 0-.423-.15 10.498 10.498 0 0 0-.507-.137c-.173-.043-.48-.11-.76-.166l-.916-.174-.414-.073-.723-.143-.71-.157c-.473-.103-.94-.21-1.41-.297a11.362 11.362 0 0 0-1.913-.21 8.323 8.323 0 0 0-1 .04c-.732.08-1.449.26-2.13.537-.397.157-.794.29-1.187.403a10.541 10.541 0 0 1-7.237-.443 9.759 9.759 0 0 1-.496-.237 10.563 10.563 0 0 1-1.857-1.197 11.795 11.795 0 0 1-1.983-2.04 13.2 13.2 0 0 1-1.977-3.743 4.258 4.258 0 0 0-.393-.883 1.56 1.56 0 0 0-.427-.47.652.652 0 0 0-.107-.06c-.38.173-.76.333-1.14.523a4158.74 4158.74 0 0 0-12.19 5.78c-4.06 1.934-8.12 3.87-12.18 5.807l-2.853 1.423c-3.863 1.86-7.713 3.744-11.58 5.597l-.48.227a77.409 77.409 0 0 1-5.14 5.056 2.337 2.337 0 0 1 .295 2.877 2.337 2.337 0 0 1-.732.727c3.971-1.825 7.936-3.66 11.894-5.504 9.466-4.44 18.883-8.976 28.296-13.52 1.857-.896 2.984-.906 4.334.784 2.846 3.52 6.806 5.42 11.923 4.976 1.04-.09 2.143 0 2.863.754 3.187 3.333 7.62 3.98 12.207 4.083 1.8.037 2 .76 1.333 1.923-1.413 2.524-1.836 5.234-2.333 7.9-1.283 6.937.873 12.847 5.603 17.854 4.424 4.666 10.334 6.646 17.057 6.983 2.667.133 4.21 1.077 5.043 3.533 1.98 5.844 21.334 16.154 27.93 16.917 1.834-7.833 13.887-12.833 15.717-20.667-.913-.216-2.84-1.03-5.31-2.196-.587.16-1.183.314-1.79.463a44.448 44.448 0 0 1-10.777 4.267c-8.286-4.447-23.23-13.7-24.353-16.084Z" fill="#D9674D"/><path opacity=".25" d="M296.26 87.703c.05-.412.201-.806.44-1.146l-1.667-2A109.335 109.335 0 0 1 308.4 74.83l.9-.897h-.093a1.173 1.173 0 0 1-1.038-.772 1.167 1.167 0 0 1 .308-1.256 1.175 1.175 0 0 1 1.277-.205 1.167 1.167 0 0 1 .686 1.097c.363-.364.73-.724 1.093-1.09 3.55-3.554 7-7.217 10.577-10.737 8.39-8.237 16.847-16.393 25.223-24.637.95-.94 2-2.116.277-3.58-6.263-5.3-8.47-16.686-.273-24.123 1.296-1.177 1.373-2.167.523-3.43-1.97-2.933-2.503-6.367-3.127-9.697-.31-1.666-.936-2.543-2.376-3.11-9.667-3.81-15.6-14.636-13.107-24.776.453-1.844.09-2.834-2-3.14-.667-.097-1.283-.217-1.907-.334 0 0-5.206 6.194-15.196 3.564 0 0-9.23 10.126-18.334 2.593 0 0-7.887 6.75-15.667 3.03l4.09 24.59c7.334.57 10.461-5.7 10.461-5.7 9.253 10.733 27.54-2.497 27.54-2.497.78 3.8 2.333 7.287 5.263 10.294 3.763 3.876 8.393 5.88 13.47 6.93 2.967.613 2.11 3.253 3.157 4.85.78 1.186-.334 1.84-1.194 2.48-8.69 6.39-8.846 15.79-4.063 22.85 1.357 2 1.04 3.373-.537 4.62-4.116 3.256-7.396 7.333-11.113 11a3834.438 3834.438 0 0 0-27.877 27.686c-.41.41-.833.807-1.263 1.197l1.026 6.203 1.154-.12v-.01Z" fill="#D9674D"/><path d="M276.163-26.693c7.777 3.72 15.667-3.03 15.667-3.03 9.093 7.533 18.333-2.594 18.333-2.594 10 2.63 15.197-3.563 15.197-3.563.623.133 1.256.253 1.906.333 2.077.307 2.44 1.297 2 3.14-2.52 10.157 3.4 20.984 13.067 24.794 1.44.566 2.067 1.45 2.377 3.11.623 3.333 1.156 6.763 3.126 9.696.85 1.264.774 2.254-.523 3.43-8.197 7.437-6 18.824.273 24.124 1.73 1.463.667 2.64-.276 3.58-8.367 8.25-16.824 16.406-25.207 24.643-3.583 3.52-7.027 7.183-10.577 10.737-.363.366-.73.726-1.093 1.09a1.162 1.162 0 0 1-1.14 1.13l-.9.896c10.567-6.556 25.563-13.31 38-9.146 0 0 1.277 9.983-11.277 23.876l7.54-3.73 2.617-1.286a5008.9 5008.9 0 0 1 11-5.364c3.671-1.784 7.338-3.562 11-5.333a79.866 79.866 0 0 1 1.547-.723c1.556-.704 3.126-1.374 4.666-2.107a3.56 3.56 0 0 1 .707-.257c.128-.028.259-.042.39-.04.155.006.308.044.447.114l.57-.264c1.72-.766 3.456-1.496 5.163-2.293a4.21 4.21 0 0 1 .783-.283c.14-.033.283-.051.427-.054.21-.004.416.05.597.157.184.116.338.273.45.46.167.277.3.574.396.883a12.079 12.079 0 0 0 2.03 3.724 11.133 11.133 0 0 0 2.09 1.997c.625.452 1.295.838 2 1.15.174.08.354.153.534.223a12.188 12.188 0 0 0 7.876.2 14.93 14.93 0 0 0 1.304-.45 10.25 10.25 0 0 1 1.203-.394 9.266 9.266 0 0 1 2.227-.296 13.33 13.33 0 0 1 2.076.15c.51.07 1.017.16 1.53.25l.77.133c.26.043.52.083.784.12l.446.063c.364.05.694.097 1 .147.307.05.577.093.824.14.246.047.38.08.546.12a3.911 3.911 0 0 1 .827.297c.066.034.129.073.19.116a1.296 1.296 0 0 1 .413.437c.084.148.143.307.177.473.16.72.03 1.81-.13 3.554-.38 4.23.333 8.076 2.22 11.463.382.685.806 1.345 1.27 1.977.233.333.48.633.737.943a22.138 22.138 0 0 0 2.643 2.667c.64.546 1.3 1.063 1.97 1.546a26.343 26.343 0 0 0 3.27 2.017c.407.213.79.393 1.193.573.404.18.78.334 1.18.497a22.124 22.124 0 0 0 3.657 1.063 22.88 22.88 0 0 0 2.373.334c1.254.107 2.515.12 3.77.036.12-.006.24-.006.36 0 .114 0 .224 0 .334.024.364.038.715.161 1.023.36a2.444 2.444 0 0 1 .53.48c.105.131.202.269.29.413.181.306.344.622.49.947.04.08.08.163.12.25 1.44 3.023 5.69 20.063 22.223 16.383a54.677 54.677 0 0 0 2-.467c40.437-23.076-11.156-99.883-3.273-141.786.08-.424-4.91-18.714-12.19-44.857L274.816-34.843l1.347 8.15ZM296.26 87.703l1.29-.12-.85-1.026c-.239.34-.39.734-.44 1.146Zm13.113 14.18-1-1.22c-.13.294-.264.584-.394.877.024.036.05.07.077.103.073-.07.143-.143.213-.213a1.064 1.064 0 0 0 1.104.453Z" fill="#FEFEFE"/><path d="M309.083 102a1.78 1.78 0 0 0 .197-.06c.036-.015.072-.031.106-.05v-.017a1.064 1.064 0 0 1-1.113-.453c-.07.07-.14.143-.213.213a.997.997 0 0 0 1.023.367Z" fill="#FEFEFE"/><path d="m313.036 106.333.573.694a134.79 134.79 0 0 0 5.507-3.65c-1.747.806-3.493 1.61-5.24 2.423-.3.143-.582.323-.84.533Z" fill="url(#f)"/><path d="M326.977 93.533a386.353 386.353 0 0 1-4.51 2.104l-1.87.856c-1.247.574-2.494 1.144-3.737 1.724-1.243.58-2.483 1.17-3.717 1.773a125.996 125.996 0 0 0-3.666 1.87 1.5 1.5 0 0 0 .213-.067c.074-.027.147-.059.217-.096a154.565 154.565 0 0 1 4.066-2.02 260.603 260.603 0 0 1 4.11-1.924c1.377-.63 2.757-1.25 4.137-1.873l2.07-.93c.69-.313 1.38-.623 2.067-.94.977-.444 1.951-.889 2.92-1.333a660.744 660.744 0 0 0 5.333-2.524c.183-.2.367-.396.543-.596-.969.484-1.94.965-2.913 1.443-1.76.85-3.51 1.7-5.263 2.533Z" fill="url(#g)"/><path d="M312.873 85.573c-5.063 1-10.19 1.534-15.333 2l10.823 13.094 6.047-13.36c.79-1.75.2-2.077-1.537-1.734Z" fill="url(#h)"/><path opacity=".25" d="M325.437 96.7a2.325 2.325 0 0 1 1.518-2.071 2.332 2.332 0 0 1 2.502.578 79.348 79.348 0 0 0 5.14-5.057c-1.778.849-3.556 1.69-5.334 2.523-.971.445-1.944.89-2.92 1.334-.686.316-1.376.626-2.066.94l-2.07.93c-1.38.623-2.76 1.243-4.137 1.873a190.688 190.688 0 0 0-8.177 3.943c-.07.037-.142.07-.216.097-.07.027-.141.05-.214.067l-.076.033 3.666 4.417c.258-.211.54-.39.84-.534 1.747-.813 3.494-1.616 5.24-2.423 2.484-1.733 4.74-3.44 6.794-5.117a2.332 2.332 0 0 1-.49-1.533Z" fill="#D9674D"/><path d="M325.437 96.7a2.325 2.325 0 0 1 1.518-2.071 2.332 2.332 0 0 1 2.502.578 79.348 79.348 0 0 0 5.14-5.057c-1.778.849-3.556 1.69-5.334 2.523-.971.445-1.944.89-2.92 1.334-.686.316-1.376.626-2.066.94l-2.07.93c-1.38.623-2.76 1.243-4.137 1.873a190.688 190.688 0 0 0-8.177 3.943c-.07.037-.142.07-.216.097-.07.027-.141.05-.214.067l-.076.033 3.666 4.417c.258-.211.54-.39.84-.534 1.747-.813 3.494-1.616 5.24-2.423 2.484-1.733 4.74-3.44 6.794-5.117a2.332 2.332 0 0 1-.49-1.533Z" fill="url(#i)"/><path opacity=".25" d="M297.782 85.36c3.54-3.515 7.081-7.028 10.624-10.537a109.345 109.345 0 0 0-13.367 9.727l1.667 2c.245-.341.523-.658.83-.947l.246-.243Z" fill="#D9674D"/><path d="M297.782 85.36c3.54-3.515 7.081-7.028 10.624-10.537a109.345 109.345 0 0 0-13.367 9.727l1.667 2c.245-.341.523-.658.83-.947l.246-.243Z" fill="url(#j)"/><path d="M309.463 101.867a138.265 138.265 0 0 1 3.667-1.87c1.23-.607 2.473-1.194 3.717-1.774 1.243-.58 2.49-1.15 3.736-1.723l1.87-.857a369.507 369.507 0 0 0 4.51-2.103 529.595 529.595 0 0 0 5.25-2.537 289.74 289.74 0 0 0 2.914-1.443c12.566-13.893 11.29-23.893 11.29-23.893-12.447-4.164-27.444 2.59-38 9.146a4754.03 4754.03 0 0 1-10.624 10.537l-.253.25a6.599 6.599 0 0 0-.83.947l.85 1.026c5.133-.476 10.26-1 15.333-2 1.737-.333 2.334-.016 1.537 1.73l-6.067 13.364 1 1.22.1-.02ZM335.26 81.75a1.51 1.51 0 1 1-.165 3.015 1.51 1.51 0 0 1 .165-3.015Zm-5.577-14.333a1.933 1.933 0 1 1-2.043 1.823 1.935 1.935 0 0 1 2.043-1.833v.01ZM319.46 76.75a1.668 1.668 0 0 1 1.528 2.08 1.667 1.667 0 1 1-1.528-2.08Z" fill="#FEFEFE"/><path d="M309.463 101.867a138.265 138.265 0 0 1 3.667-1.87c1.23-.607 2.473-1.194 3.717-1.774 1.243-.58 2.49-1.15 3.736-1.723l1.87-.857a369.507 369.507 0 0 0 4.51-2.103 529.595 529.595 0 0 0 5.25-2.537 289.74 289.74 0 0 0 2.914-1.443c12.566-13.893 11.29-23.893 11.29-23.893-12.447-4.164-27.444 2.59-38 9.146a4754.03 4754.03 0 0 1-10.624 10.537l-.253.25a6.599 6.599 0 0 0-.83.947l.85 1.026c5.133-.476 10.26-1 15.333-2 1.737-.333 2.334-.016 1.537 1.73l-6.067 13.364 1 1.22.1-.02ZM335.26 81.75a1.51 1.51 0 1 1-.165 3.015 1.51 1.51 0 0 1 .165-3.015Zm-5.577-14.333a1.933 1.933 0 1 1-2.043 1.823 1.935 1.935 0 0 1 2.043-1.833v.01ZM319.46 76.75a1.668 1.668 0 0 1 1.528 2.08 1.667 1.667 0 1 1-1.528-2.08Z" fill="url(#k)"/><path d="M309.373 101.883v.017l.077-.033-.077.016Z" fill="#FEFEFE"/><path d="M309.373 101.883v.017l.077-.033-.077.016Z" fill="url(#l)"/><path opacity=".4" d="m329.02 98.81-.553.253c.195-.06.381-.145.553-.253Z" fill="url(#m)"/><path opacity=".25" d="M330.11 96.963a2.325 2.325 0 0 0-.667-1.756 97.573 97.573 0 0 1-3.547 3.036 2.333 2.333 0 0 0 2.557.82l.554-.253a2.338 2.338 0 0 0 1.103-1.847Z" fill="#D9674D"/><path opacity=".4" d="M330.11 96.963a2.325 2.325 0 0 0-.667-1.756 97.573 97.573 0 0 1-3.547 3.036 2.333 2.333 0 0 0 2.557.82l.554-.253a2.338 2.338 0 0 0 1.103-1.847Z" fill="url(#n)"/><path opacity=".25" d="M325.436 96.7a2.33 2.33 0 0 0 .474 1.543 95.122 95.122 0 0 0 3.546-3.036 2.333 2.333 0 0 0-4.02 1.493Z" fill="#D9674D"/><path d="M325.436 96.7a2.33 2.33 0 0 0 .474 1.543 95.122 95.122 0 0 0 3.546-3.036 2.333 2.333 0 0 0-4.02 1.493Z" fill="url(#o)"/><path opacity=".4" d="M325.436 96.7a2.33 2.33 0 0 0 .474 1.543 95.122 95.122 0 0 0 3.546-3.036 2.333 2.333 0 0 0-4.02 1.493Z" fill="url(#p)"/><path opacity=".25" d="M310.446 72.797a1.17 1.17 0 1 0-1.233 1.136h.093c.38-.383.76-.756 1.14-1.136Z" fill="#D9674D"/><path opacity=".4" d="M310.446 72.797a1.17 1.17 0 1 0-1.233 1.136h.093c.38-.383.76-.756 1.14-1.136Z" fill="url(#q)"/><path d="M310.447 72.83a.094.094 0 0 1 0-.033c-.38.38-.76.753-1.14 1.13a1.165 1.165 0 0 0 1.14-1.097Z" fill="#FEFEFE"/><path opacity=".4" d="M310.447 72.83a.094.094 0 0 1 0-.033c-.38.38-.76.753-1.14 1.13a1.165 1.165 0 0 0 1.14-1.097Z" fill="url(#r)"/><path d="M319.273 80.067a1.666 1.666 0 1 0 .201-3.326 1.666 1.666 0 0 0-.201 3.326Z" fill="#FEFEFE"/><path d="M319.273 80.067a1.666 1.666 0 1 0 .201-3.326 1.666 1.666 0 0 0-.201 3.326Z" fill="url(#s)"/><path opacity=".4" d="M319.273 80.067a1.666 1.666 0 1 0 .201-3.326 1.666 1.666 0 0 0-.201 3.326Z" fill="url(#t)"/><path d="M329.923 71.235a1.933 1.933 0 1 0-.7-3.803 1.933 1.933 0 0 0 .7 3.803Z" fill="#FEFEFE"/><path d="M329.923 71.235a1.933 1.933 0 1 0-.7-3.803 1.933 1.933 0 0 0 .7 3.803Z" fill="url(#u)"/><path opacity=".4" d="M329.923 71.235a1.933 1.933 0 1 0-.7-3.803 1.933 1.933 0 0 0 .7 3.803Z" fill="url(#v)"/><path d="M335.09 84.763a1.511 1.511 0 0 0 1.215-2.512 1.506 1.506 0 0 0-1.624-.421 1.513 1.513 0 0 0-1.011 1.34 1.51 1.51 0 0 0 1.42 1.593Z" fill="#FEFEFE"/><path d="M335.09 84.763a1.511 1.511 0 0 0 1.215-2.512 1.506 1.506 0 0 0-1.624-.421 1.513 1.513 0 0 0-1.011 1.34 1.51 1.51 0 0 0 1.42 1.593Z" fill="url(#w)"/><path opacity=".4" d="M335.09 84.763a1.511 1.511 0 0 0 1.215-2.512 1.506 1.506 0 0 0-1.624-.421 1.513 1.513 0 0 0-1.011 1.34 1.51 1.51 0 0 0 1.42 1.593Z" fill="url(#x)"/><path d="m320.146 101.393-14.503-23a7.705 7.705 0 0 0-5.667-3.57c-24.666-2.64-52.103 3.45-76.763 19-30.733 19.387-50.063 48.964-54.657 78.51a11.046 11.046 0 0 0 7.75 12.287c28.667 8.587 63.667 3.883 94.397-15.493 24.667-15.557 41.97-37.667 50.22-61.09a7.687 7.687 0 0 0-.777-6.644Z" fill="#F6F6F6"/><path d="M294.524 73.8a26.933 26.933 0 0 1 5.096-34.667 3.665 3.665 0 0 0 .744-4.733l-.29-.46a3.635 3.635 0 0 0-4.354-1.473 72.267 72.267 0 0 0-43.956 47.866c14.496-4.79 29.206-6.716 43.183-5.9-.143-.213-.28-.433-.423-.633Zm24.992 39.627a26.934 26.934 0 0 0 33.49 10.333 3.665 3.665 0 0 1 4.594 1.37l.29.457a3.634 3.634 0 0 1-.547 4.563 72.253 72.253 0 0 1-62.147 19.05c10.57-11.02 18.647-23.463 23.93-36.43.13.23.254.44.39.657Zm-143.276 71.18c12.537 3.766 26.297 4.983 40.384 3.54l-33.874-53.704c-7.37 12.09-12.2 25.03-14.203 37.967a11.004 11.004 0 0 0 7.693 12.197Z" fill="#00B5DA"/><path d="M256.43 155.31c10.093-10.093 10.093-26.459 0-36.552-10.094-10.094-26.459-10.094-36.553 0-10.094 10.093-10.094 26.459 0 36.552 10.094 10.094 26.459 10.094 36.553 0Z" fill="#D1D3D4"/><path d="M259.582 149.95c6.627-12.644 1.749-28.265-10.894-34.892-12.643-6.626-28.265-1.749-34.892 10.894-6.626 12.644-1.749 28.265 10.895 34.892 12.643 6.626 28.265 1.749 34.891-10.894Z" fill="#00B5DA"/><path d="M211.543 183a1.517 1.517 0 0 1-.47 2.087 1.518 1.518 0 0 1-1.147.19 1.565 1.565 0 0 1-1.136-1.804 1.51 1.51 0 0 1 2.75-.473h.003Zm-17.247-25.14a1.515 1.515 0 0 1-2.087-.47 1.515 1.515 0 0 1 1.024-2.298 1.522 1.522 0 0 1 1.128.257 1.507 1.507 0 0 1-.065 2.511Zm24.264-6.527a1.5 1.5 0 0 1-1.139.195 1.505 1.505 0 0 1-.944-.668 1.515 1.515 0 0 1 .47-2.087 1.52 1.52 0 0 1 2.087.474 1.519 1.519 0 0 1-.474 2.086ZM257.149 127a1.51 1.51 0 0 1-2.086-.473 1.499 1.499 0 0 1-.195-1.14 1.5 1.5 0 0 1 .668-.944 1.517 1.517 0 0 1 2.087.47 1.52 1.52 0 0 1-.474 2.087Zm-54.955 44.017a1.517 1.517 0 0 1-1.678-.046 1.507 1.507 0 0 1 .065-2.511 1.513 1.513 0 0 1 2.086.47 1.516 1.516 0 0 1-.473 2.087ZM185.891 141.7a1.52 1.52 0 0 1-.74 2.216 1.508 1.508 0 0 1-.874.067 1.571 1.571 0 0 1-1.143-1.813 1.519 1.519 0 0 1 1.813-1.14c.391.091.729.331.944.67Zm31.922 46.33-34.443-54.61c-.21.333-.413.667-.62 1.023l33.873 53.704c.397-.04.794-.074 1.19-.117Z" fill="#00A3C4"/><path d="M254.36 147.212c5.115-9.759 1.35-21.816-8.409-26.931-9.759-5.115-21.816-1.35-26.931 8.409-5.115 9.759-1.35 21.816 8.409 26.931 9.759 5.115 21.816 1.35 26.931-8.409Z" fill="#fff"/><path opacity=".3" d="M219.817 148.6a19.954 19.954 0 1 0 33.756-21.288 19.954 19.954 0 0 0-33.756 21.288Zm31.95-20.153a17.819 17.819 0 0 1-.52 19.798 17.823 17.823 0 1 1 .52-19.798Z" fill="url(#y)"/><path d="M318.034 93.16c8.201-5.172 13.717-11.162 12.319-13.378-1.397-2.215-9.179.181-17.38 5.354-8.201 5.173-13.717 11.162-12.32 13.378 1.398 2.216 9.179-.181 17.381-5.354Z" fill="#00B5DA"/><path opacity=".1" d="M322.716 89.297c5.508-3.473 9.024-7.794 7.853-9.65-1.171-1.856-6.584-.545-12.092 2.929-5.507 3.473-9.023 7.794-7.852 9.65 1.17 1.856 6.584.545 12.091-2.929Z" fill="#000"/><path opacity=".6" d="M303.907 78.733c-25.45-1.896-53.82 5.137-79.43 21.667-29.854 19.267-49.497 47.283-56.02 75.453a11.006 11.006 0 0 1 .066-2.603c4.277-29.603 23.294-59.383 53.81-79.087 24.494-15.83 51.854-22.196 76.56-19.83a7.694 7.694 0 0 1 5.707 3.507l.727 1.123a8.02 8.02 0 0 0-1.42-.23Z" fill="#fff"/><path opacity=".1" d="M298.12 146.043c1.257.17 2.523.307 3.797.42a124.078 124.078 0 0 0 19.863-29.956 27.355 27.355 0 0 1-2.263-3.08c-.137-.217-.26-.437-.39-.667-4.794 11.753-11.864 23.067-21.007 33.283Z" fill="#000"/><path opacity=".1" d="M298.12 146.043c-.427.477-.86.954-1.297 1.424l-.303.333c-.445.471-.889.939-1.333 1.403.604.105 1.21.199 1.816.284l.1.016c.594.085 1.188.162 1.784.23a72.246 72.246 0 0 0 31.416-3.241 72.249 72.249 0 0 0 27.03-16.335c1.117-1.067 1.29-1.697 1.04-3.054-.133.194-7.216 6.667-11.4 9.31-13.75 8.667-29.926 11.384-45.066 10.05a83.132 83.132 0 0 1-3.797-.42h.01Zm.05-109.01c-9.69 8.334-14.11 21.974-8.893 33.354-12.334.12-23.797 2.227-36.384 6.333-.3.877-.576 1.76-.843 2.65-.097.334-.193.637-.283.957 14.496-4.79 29.206-6.717 43.183-5.9-.14-.21-.283-.417-.42-.63-.2-.334-.387-.637-.573-.957a17.37 17.37 0 0 1-.224-.403c-.073-.137-.193-.353-.286-.534-.094-.18-.184-.353-.27-.53-.064-.123-.12-.246-.18-.366-.094-.2-.19-.4-.28-.6a26.945 26.945 0 0 1 6.91-31.29 3.663 3.663 0 0 0 .743-4.733l-.29-.46a3.634 3.634 0 0 0-.56-.687 3.967 3.967 0 0 1-1.35 3.796Z" fill="#000"/><path d="M223.6 119.387a1.515 1.515 0 0 1 1.613-2.282 1.502 1.502 0 0 1 .943.668 1.52 1.52 0 0 1 .197 1.139 1.52 1.52 0 0 1-.667.945 1.507 1.507 0 0 1-1.14.198 1.51 1.51 0 0 1-.946-.668Zm24.341 38.586a1.507 1.507 0 0 1 .47-2.083 1.51 1.51 0 0 1 2.086.473 1.499 1.499 0 0 1 .195 1.14 1.5 1.5 0 0 1-.668.944 1.517 1.517 0 0 1-1.678-.046c-.162-.114-.3-.26-.405-.428Zm-7.328-42.683a1.505 1.505 0 0 1 .667-.944 1.518 1.518 0 0 1 1.14-.196 1.512 1.512 0 0 1 .9 2.349 1.499 1.499 0 0 1-.978.617 1.517 1.517 0 0 1-1.535-.684 1.52 1.52 0 0 1-.194-1.142Zm-10.077 44.497a1.505 1.505 0 0 1 .667-.945 1.517 1.517 0 0 1 1.14-.195 1.515 1.515 0 0 1 .473 2.754 1.517 1.517 0 0 1-1.679-.044 1.512 1.512 0 0 1-.601-1.57Zm29.094-18.35a1.515 1.515 0 0 1 .473 2.754 1.517 1.517 0 0 1-1.679-.044 1.512 1.512 0 0 1 1.206-2.71Zm-44.497-10.077a1.516 1.516 0 0 1 1.14 1.81 1.503 1.503 0 0 1-1.217 1.156 1.516 1.516 0 0 1-1.127-.257 1.516 1.516 0 0 1-.596-1.569 1.51 1.51 0 0 1 1.8-1.14Z" fill="#00A3C4"/><path d="M233.179 131.46a1.65 1.65 0 0 0 1.761 1.847 1.649 1.649 0 0 0 .953-2.897 1.656 1.656 0 0 0-1.519-.339 1.63 1.63 0 0 0-.574.29 1.635 1.635 0 0 0-.621 1.099Zm1.617.36a.163.163 0 0 1-.11-.062.154.154 0 0 1-.033-.121.16.16 0 0 1 .063-.112.16.16 0 0 1 .123-.035.178.178 0 0 1 .063.02.169.169 0 0 1 .049.043.16.16 0 0 1 .035.124.16.16 0 0 1-.124.141.163.163 0 0 1-.066.002Z" fill="#FAFAFB"/><path d="m232.366 124.293-3.29 2.14a3.701 3.701 0 0 0-1.076 5.104l11.06 17a3.699 3.699 0 0 0 5.103 1.076l3.29-2.14a3.7 3.7 0 0 0 1.077-5.103l-11.06-17a3.698 3.698 0 0 0-5.104-1.077Zm10.58 13.884a4.245 4.245 0 0 1 2.989 3.656 4.254 4.254 0 0 1-2.234 4.16 4.25 4.25 0 1 1-.755-7.816Zm-3.91-6a4.244 4.244 0 0 1-3.081 3.577 4.25 4.25 0 1 1 3.081-3.584v.007Z" fill="#FAFAFB"/><path d="m232.834 132.023-.173-.05-.1.134-.09.026-.097-.106-.063.15-.054.016-.123-.1-.063.15h-.03l-.14-.113-.097.177-.057.016-.116-.136-.08.186h-.044l-.133-.1-.123.134-.184-.074-.063.187c.197.729.592 1.39 1.14 1.91h.177v-.173h.173v-.167h.207l-.04-.187.21.027v-.15l.186-.087.034-.083.136-.033v-.144l.21-.083.027-.247a2.195 2.195 0 0 1-.6-1.053l-.03-.027Zm5.69 11.357-.157-.06-.077.15-.15-.083-.063.17c.253.712.698 1.34 1.287 1.813l.196.02v-.197l.17-.063-.036-.16.03-.037h.203l-.077-.163.037-.047.2-.016-.047-.174.02-.023h.16l-.04-.153.037-.047h.163l-.056-.13.06-.073.16-.037.026-.18-.026-.02a2.254 2.254 0 0 1-.724-.973l-.233-.077-.163.157-.124-.067-.086.11h-.09l-.154.137-.133-.07-.06.2h-.017l-.156-.11-.08.203Zm2.702.44a1.651 1.651 0 0 0 2.117-1.413 1.643 1.643 0 0 0-2.681-1.437 1.654 1.654 0 0 0-.533.793 1.668 1.668 0 0 0 1.097 2.057Zm.333-1.623a.166.166 0 0 1 .14-.116.166.166 0 0 1 .161.085c.015.028.022.06.019.093a.164.164 0 0 1-.21.141.159.159 0 0 1-.124-.138.177.177 0 0 1 .004-.065h.01Z" fill="#FAFAFB"/><path d="M230.6 131.143a4.25 4.25 0 1 0 8.437 1.03 4.25 4.25 0 0 0-8.437-1.03Zm2.843 1.967-.027.247-.21.083v.143l-.136.034-.034.083-.186.087v.15l-.21-.027.04.187h-.207v.166h-.173v.174h-.177a4.114 4.114 0 0 1-1.14-1.91l.063-.187.184.073.123-.133.133.1h.044l.08-.187.116.137.057-.017.097-.176.14.113h.03l.063-.15.123.1.054-.017.063-.15.097.107.09-.027.1-.133.173.05v.033c.098.401.305.766.6 1.054l.03-.007Zm3-1.253a1.654 1.654 0 0 1-1.194 1.393 1.646 1.646 0 0 1-1.743-.571 1.657 1.657 0 0 1-.347-.894 1.65 1.65 0 0 1 1.847-1.762 1.667 1.667 0 0 1 1.104.617 1.654 1.654 0 0 1 .343 1.217h-.01Zm1.196 9.143a4.257 4.257 0 0 0 1.366 4.52 4.247 4.247 0 0 0 4.698.469 4.244 4.244 0 0 0 2.232-4.161 4.247 4.247 0 0 0-6.227-3.34 4.258 4.258 0 0 0-2.069 2.512Zm2.49.76a1.65 1.65 0 0 1 2.353-.97 1.647 1.647 0 0 1-1.256 3.027 1.67 1.67 0 0 1-1.097-2.054v-.003Zm-1.353 1.533.06-.2.133.07.154-.136h.09l.086-.11.124.066.163-.156.233.076c.148.385.398.722.724.974l.026.02-.026.18-.16.036-.06.074.056.13h-.163l-.037.046.04.154h-.16l-.02.023.047.173-.2.017-.037.047.077.163h-.203l-.03.037.036.16-.17.063v.197l-.196-.02a4.082 4.082 0 0 1-1.287-1.814l.063-.17.15.084.077-.15.157.06.08-.187.156.11.017-.017Z" fill="#211B19"/><path d="M241.667 142.4a.159.159 0 0 0 .094-.001.164.164 0 0 0 .115-.14.165.165 0 0 0-.18-.178.158.158 0 0 0-.087.037.157.157 0 0 0-.052.079.135.135 0 0 0-.006.063.16.16 0 0 0 .116.14Zm-6.83-10.903a.165.165 0 0 0-.121.032.16.16 0 0 0-.062.108.165.165 0 0 0 .034.123.168.168 0 0 0 .299-.083.178.178 0 0 0-.006-.065.176.176 0 0 0-.031-.057.157.157 0 0 0-.113-.058Z" fill="#211B19"/><path d="m254.133 134.11-6.887-10.58a17.498 17.498 0 0 0-4.913-2.493l5 7.666-3.334 2.18-4.533-6.963a6 6 0 0 0-8.293-1.753l-3.517 2.286a6.004 6.004 0 0 0-1.753 8.294L237.096 150a5.997 5.997 0 0 0 8.29 1.753l3.517-2.29a6 6 0 0 0 1.763-8.3l-4.533-6.966 3.333-2.177 4.947 7.6c.198-1.84.103-3.7-.28-5.51Zm-5.607 8.253a3.7 3.7 0 0 1-1.077 5.104l-3.29 2.14a3.7 3.7 0 0 1-5.103-1.077l-11.06-17a3.698 3.698 0 0 1 1.08-5.103l3.29-2.14a3.69 3.69 0 0 1 2.773-.512 3.691 3.691 0 0 1 2.327 1.592l11.06 16.996Z" fill="#211B19"/><path opacity=".11" d="M235.687 145.097a14.521 14.521 0 0 1-15.253.146 17.815 17.815 0 0 0 15.284 10.506 17.82 17.82 0 1 0-.578-35.546 14.522 14.522 0 0 1 5.593 19.485 14.522 14.522 0 0 1-5.046 5.409Z" fill="#0CFFE1"/><path d="M86.287 257.913a7.422 7.422 0 0 1-.61 3 8 8 0 0 1-1.667 2.454 7.877 7.877 0 0 1-2.45 1.666 7.44 7.44 0 0 1-3 .61H65.684V239.88h12.88a7.44 7.44 0 0 1 3 .61 7.885 7.885 0 0 1 4.103 4.113 7.45 7.45 0 0 1 .61 3c-.002.498-.07.993-.2 1.474a7.084 7.084 0 0 1-.557 1.456 6.241 6.241 0 0 1-.86 1.274 5 5 0 0 1-1.113.953c.43.237.812.55 1.13.923a6.73 6.73 0 0 1 1.41 2.75c.127.484.194.981.2 1.48ZM70.84 250.19h7.724a2.522 2.522 0 0 0 2.37-1.57c.131-.323.198-.668.196-1.017a2.532 2.532 0 0 0-1.563-2.37 2.505 2.505 0 0 0-1-.196H70.84v5.153Zm0 10.293h7.724a2.57 2.57 0 1 0 0-5.136H70.84v5.136Zm24.494 5.154h-5.15V239.88h10.31c.922-.003 1.841.121 2.73.37.859.239 1.683.589 2.453 1.04.759.45 1.459.993 2.083 1.617a10.332 10.332 0 0 1 2.667 4.553c.249.889.373 1.807.37 2.73.001.873-.111 1.742-.333 2.587-.22.832-.54 1.635-.954 2.39a10.042 10.042 0 0 1-1.516 2.083 10.576 10.576 0 0 1-2 1.667l2.853 6.733h-5.497l-2.246-5.19-5.764.037-.006 5.14Zm0-20.6v10.296h5.153a4.945 4.945 0 0 0 2-.406 5.179 5.179 0 0 0 2.74-2.747 5.18 5.18 0 0 0 0-4 5.179 5.179 0 0 0-2.74-2.747 4.966 4.966 0 0 0-2-.403l-5.153.007Zm39.143 10.296a10.084 10.084 0 0 1-.807 4 10.37 10.37 0 0 1-2.21 3.27 10.514 10.514 0 0 1-3.28 2.2 10.376 10.376 0 0 1-8.027 0 10.263 10.263 0 0 1-5.47-5.47 10.031 10.031 0 0 1-.81-4v-15.466H119v15.466a4.96 4.96 0 0 0 .403 2 5.176 5.176 0 0 0 2.747 2.74 5.162 5.162 0 0 0 6.747-2.74 4.962 4.962 0 0 0 .406-2v-15.466h5.154l.02 15.466Zm25.04 7.667a13.309 13.309 0 0 1-12.183 2.72 13.427 13.427 0 0 1-5.884-3.44 13.683 13.683 0 0 1-2.093-2.703 13.469 13.469 0 0 1-1.333-3.18 13.326 13.326 0 0 1 0-7.067 13.243 13.243 0 0 1 1.333-3.19 13.558 13.558 0 0 1 4.81-4.807 13.351 13.351 0 0 1 3.18-1.333c1.149-.32 2.337-.48 3.53-.477a13.292 13.292 0 0 1 4.617.81 12.8 12.8 0 0 1 4.023 2.38l-2.733 4.49a7.673 7.673 0 0 0-2.667-1.876 8.21 8.21 0 0 0-3.233-.667 7.952 7.952 0 0 0-3.217.673 8.383 8.383 0 0 0-2.607 1.75 8.182 8.182 0 0 0-1.76 2.607 7.968 7.968 0 0 0-.633 3.177 7.84 7.84 0 0 0 .647 3.17 8.285 8.285 0 0 0 4.353 4.356 7.947 7.947 0 0 0 3.197.647 8.21 8.21 0 0 0 3.233-.667 7.709 7.709 0 0 0 2.667-1.876l2.753 4.503ZM187 252.867a13.04 13.04 0 0 1-.476 3.53 13.702 13.702 0 0 1-1.334 3.18 13.393 13.393 0 0 1-4.78 4.793 13.329 13.329 0 0 1-10.246 1.333 13.443 13.443 0 0 1-7.973-6.143 13.314 13.314 0 0 1-1.334-3.18 13.259 13.259 0 0 1 1.334-10.247 13.466 13.466 0 0 1 2.09-2.693 13.293 13.293 0 0 1 2.703-2.087 13.724 13.724 0 0 1 3.18-1.333 13.283 13.283 0 0 1 16.356 9.313c.32 1.151.482 2.34.48 3.534Zm-5.12 0a7.899 7.899 0 0 0-.646-3.187 8.147 8.147 0 0 0-4.357-4.347 8.2 8.2 0 0 0-6.386 0 8.37 8.37 0 0 0-2.604 1.75 8.182 8.182 0 0 0-1.76 2.607 7.899 7.899 0 0 0-.646 3.187 7.786 7.786 0 0 0 .646 3.17 8.359 8.359 0 0 0 1.76 2.596 8.269 8.269 0 0 0 2.604 1.76 8.2 8.2 0 0 0 6.386 0 8.192 8.192 0 0 0 2.603-1.76 8.422 8.422 0 0 0 1.75-2.596 7.784 7.784 0 0 0 .647-3.18h.003Zm6.983-5.264a7.394 7.394 0 0 1 .614-3 7.857 7.857 0 0 1 4.11-4.113 7.437 7.437 0 0 1 3-.61h11.82v5.157h-11.82a2.505 2.505 0 0 0-1 .196 2.525 2.525 0 0 0-1.367 1.367c-.133.316-.2.657-.197 1a2.61 2.61 0 0 0 .197 1.017 2.541 2.541 0 0 0 2.37 1.57h5.157a7.523 7.523 0 0 1 3 .603 7.644 7.644 0 0 1 4.113 4.113 7.786 7.786 0 0 1 0 6 7.786 7.786 0 0 1-1.667 2.454 7.896 7.896 0 0 1-2.463 1.666 7.474 7.474 0 0 1-3 .61H190.3v-5.15h11.443a2.531 2.531 0 0 0 1.824-.746 2.59 2.59 0 0 0 0-3.647 2.54 2.54 0 0 0-1.817-.743h-5.163a7.388 7.388 0 0 1-3-.614 7.805 7.805 0 0 1-4.11-4.12 7.435 7.435 0 0 1-.614-3.01Zm10.42-9.27-5.05-4.56 2.03-2.566 2.894 2.62 2.693-2.514 2.21 2.424-4.777 4.596ZM218 265.637h-5.156V239.88H218v25.757Zm15.624-10.304a9.994 9.994 0 0 1-.807 4 10.262 10.262 0 0 1-5.483 5.497 10.09 10.09 0 0 1-4 .807 10.55 10.55 0 0 1-2.587-.334v-5.52c.388.229.805.404 1.24.52a5.154 5.154 0 0 0 3.333-.223 5.176 5.176 0 0 0 2.747-2.74 4.95 4.95 0 0 0 .403-2v-15.467h5.137l.017 15.46Zm24.626 10.304h-5.157v-5.154h-10.31v5.154h-5.136V250.19a10 10 0 0 1 .81-4 10.578 10.578 0 0 1 2.2-3.28 10.229 10.229 0 0 1 3.27-2.207 10.336 10.336 0 0 1 8.026 0 10.297 10.297 0 0 1 5.487 5.487c.542 1.264.817 2.625.81 4v15.447Zm-5.157-10.304v-5.143a5.017 5.017 0 0 0-.403-2 5.132 5.132 0 0 0-2.747-2.747 5.18 5.18 0 0 0-4 0 5.13 5.13 0 0 0-2.746 2.747 5.021 5.021 0 0 0-.407 2v5.143h10.303Zm30.267-2.573a12.672 12.672 0 0 1-1.76 6.493 13.243 13.243 0 0 1-2 2.604 12.763 12.763 0 0 1-9.103 3.78h-7.773V239.88h7.76a12.76 12.76 0 0 1 9.103 3.787 13.131 13.131 0 0 1 2 2.603 12.672 12.672 0 0 1 1.76 6.493l.013-.003Zm-5.153 0a7.54 7.54 0 0 0-.603-3 7.759 7.759 0 0 0-4.114-4.113 7.471 7.471 0 0 0-3-.61h-2.57v15.446h2.57a7.54 7.54 0 0 0 3-.603 7.666 7.666 0 0 0 4.114-4.113 7.612 7.612 0 0 0 .603-3.007Zm28.88 12.877h-5.154v-5.154h-10.31v5.154h-5.136V250.19a9.996 9.996 0 0 1 .806-4 10.584 10.584 0 0 1 2.2-3.28 10.283 10.283 0 0 1 3.27-2.207 10.366 10.366 0 0 1 8.03 0 10.369 10.369 0 0 1 3.277 2.207 10.48 10.48 0 0 1 2.21 3.28c.539 1.264.813 2.626.807 4v15.447Zm-5.154-10.304v-5.143a5.034 5.034 0 0 0-.406-2 5.135 5.135 0 0 0-4.747-3.149 5.18 5.18 0 0 0-2 .402 5.132 5.132 0 0 0-2.747 2.747 5.017 5.017 0 0 0-.403 2v5.143h10.303ZM95.717 309.78h-5.156v-25.757h18.033v5.154H95.717v5.156h7.724v5.154h-7.724v10.293Zm33.173 0h-17.666v-25.757h17.666v5.154h-12.5v5.156h8.46v5.154h-8.46v5.14h12.5v5.153Zm8.778 0h-5.167v-25.757h10.31a10.156 10.156 0 0 1 5.19 1.41 10.47 10.47 0 0 1 3.7 3.71c.452.772.802 1.599 1.04 2.46.484 1.744.496 3.584.037 5.334a10.65 10.65 0 0 1-.95 2.39 10.16 10.16 0 0 1-1.52 2.083 10.338 10.338 0 0 1-2 1.667l2.856 6.736h-5.496l-2.247-5.19-5.763.037.01 5.12Zm0-20.603v10.31h5.153a4.947 4.947 0 0 0 2-.404 5.144 5.144 0 0 0 3.142-4.746 5.145 5.145 0 0 0-3.142-4.747 4.946 4.946 0 0 0-2-.407l-5.153-.006Zm33.686 5.156v4.887h-15.09v-4.887h15.09Zm24.893 15.447h-5.157v-5.153h-10.31v5.153h-5.136v-15.447a10 10 0 0 1 .81-4 10.514 10.514 0 0 1 2.2-3.28 10.297 10.297 0 0 1 3.27-2.21 10.393 10.393 0 0 1 8.026 0 10.32 10.32 0 0 1 5.487 5.49 10 10 0 0 1 .81 4v15.447Zm-5.157-10.293v-5.154a5.017 5.017 0 0 0-.403-2 5.126 5.126 0 0 0-2.747-2.746 5.126 5.126 0 0 0-4 0 5.128 5.128 0 0 0-2.746 2.746 5.021 5.021 0 0 0-.407 2v5.154h10.303Zm26.657 10.293h-5.157v-20.603h-2.567v-5.154h7.724v25.757Zm22.397-7.723a7.44 7.44 0 0 1-.61 3 7.85 7.85 0 0 1-4.114 4.113 7.417 7.417 0 0 1-3 .61h-10.31v-5.153h10.31a2.582 2.582 0 0 0 1.824-.747 2.581 2.581 0 0 0 0-3.647 2.57 2.57 0 0 0-1.824-.746h-7.023v-5.154h7.023a2.531 2.531 0 0 0 2.374-1.573c.13-.317.196-.657.196-1a2.53 2.53 0 0 0-.746-1.823 2.57 2.57 0 0 0-1.824-.747h-10.31v-5.167h10.31a7.434 7.434 0 0 1 3 .61 7.85 7.85 0 0 1 4.114 4.114c.409.946.617 1.968.61 3 0 .943-.176 1.878-.52 2.756a7.661 7.661 0 0 1-1.474 2.397 7.735 7.735 0 0 1 1.474 2.4c.344.878.52 1.813.52 2.757Zm9.663 5.89c.004.416-.076.828-.234 1.213a3.084 3.084 0 0 1-1.616 1.647 2.95 2.95 0 0 1-1.204.243 2.985 2.985 0 0 1-1.193-.243 3.18 3.18 0 0 1-1-.667 3.033 3.033 0 0 1-.907-2.193 2.974 2.974 0 0 1 .907-2.154 3.206 3.206 0 0 1 1-.666 3.038 3.038 0 0 1 1.193-.244 3 3 0 0 1 2.174.91c.279.277.499.607.646.97.158.375.237.778.234 1.184Zm10.543 1.833h-5.153v-20.603h-2.57v-5.154h7.723v25.757Zm11.693 0h-5.153v-20.603h-2.557v-5.154h7.723l-.013 25.757Zm10.474-1.833c.002.415-.077.828-.233 1.213-.15.366-.37.698-.647.98a3.164 3.164 0 0 1-.97.667 3.093 3.093 0 0 1-2.4 0 3.18 3.18 0 0 1-1-.667 3.08 3.08 0 0 1-.907-2.193 2.923 2.923 0 0 1 .244-1.184 3 3 0 0 1 .666-.97 3.218 3.218 0 0 1 1-.666 3.076 3.076 0 0 1 2.4 0c.363.159.692.385.97.666a3.005 3.005 0 0 1 .877 2.154Z" fill="#4D4D4D"/><path d="M88.193 260.18a7.426 7.426 0 0 1-.61 3 7.848 7.848 0 0 1-4.113 4.113 7.404 7.404 0 0 1-3 .61H67.59v-25.756h12.88a7.37 7.37 0 0 1 3 .613 7.851 7.851 0 0 1 4.113 4.113c.41.947.618 1.969.61 3a5.87 5.87 0 0 1-.193 1.46 7.197 7.197 0 0 1-.557 1.457 6.246 6.246 0 0 1-.863 1.273 5.012 5.012 0 0 1-1.114.954c.43.236.814.549 1.13.923A6.667 6.667 0 0 1 88 258.7c.124.484.19.981.193 1.48Zm-15.447-7.723h7.724a2.547 2.547 0 0 0 1.823-.744c.236-.236.421-.517.547-.826a2.596 2.596 0 0 0-.547-2.824 2.565 2.565 0 0 0-.837-.555 2.564 2.564 0 0 0-.986-.188h-7.724v5.137Zm0 10.293h7.724a2.527 2.527 0 0 0 1.823-.747 2.596 2.596 0 0 0 0-3.646 2.547 2.547 0 0 0-1.823-.744h-7.724v5.137Zm24.5 5.153H92.09v-25.756h10.31a9.959 9.959 0 0 1 2.73.37c.86.238 1.684.587 2.453 1.04.759.45 1.459.993 2.084 1.616a10.348 10.348 0 0 1 2.666 4.554 10.23 10.23 0 0 1 .037 5.333 10.446 10.446 0 0 1-.95 2.39 10.034 10.034 0 0 1-1.52 2.083 10.338 10.338 0 0 1-2 1.667l2.857 6.733h-5.5l-2.257-5.22-5.763.037.01 5.153Zm0-20.6v10.31h5.154a5 5 0 0 0 2-.403 5.239 5.239 0 0 0 1.637-1.107 5.162 5.162 0 0 0 1.103-5.643 5.138 5.138 0 0 0-2.74-2.75 4.95 4.95 0 0 0-2-.403l-5.154-.004Zm39.137 10.31a10.065 10.065 0 0 1-.806 4 10.297 10.297 0 0 1-2.21 3.27 10.518 10.518 0 0 1-3.277 2.2 10.385 10.385 0 0 1-8.03 0 10.263 10.263 0 0 1-5.47-5.47 10.084 10.084 0 0 1-.807-4v-15.466h5.137v15.466a4.96 4.96 0 0 0 .403 2c.261.61.635 1.164 1.104 1.634a5.25 5.25 0 0 0 1.643 1.106 5.162 5.162 0 0 0 4 0 5.201 5.201 0 0 0 2.75-2.74c.27-.632.408-1.312.403-2v-15.466h5.154l.006 15.466Zm25.041 7.65a13.307 13.307 0 0 1-15.35 1.404 13.429 13.429 0 0 1-6.144-8 13.428 13.428 0 0 1 1.334-10.257 13.432 13.432 0 0 1 7.973-6.143 13.038 13.038 0 0 1 3.53-.474 13.272 13.272 0 0 1 4.617.817 12.75 12.75 0 0 1 4.04 2.39l-2.73 4.49a7.744 7.744 0 0 0-2.667-1.877 8.185 8.185 0 0 0-3.233-.666 7.966 7.966 0 0 0-3.197.646 8.5 8.5 0 0 0-2.607 1.75 8.31 8.31 0 0 0-1.76 2.607 8.004 8.004 0 0 0-.646 3.187 7.856 7.856 0 0 0 .646 3.17 8.463 8.463 0 0 0 1.76 2.596 8.338 8.338 0 0 0 2.607 1.76 7.967 7.967 0 0 0 3.197.647 8.186 8.186 0 0 0 3.233-.667 7.709 7.709 0 0 0 2.667-1.876l2.73 4.496Zm27.48-10.13a12.904 12.904 0 0 1-.477 3.534 13.656 13.656 0 0 1-1.333 3.18 13.302 13.302 0 0 1-2.083 2.703 13.73 13.73 0 0 1-2.694 2.093 13.155 13.155 0 0 1-6.72 1.82 13.054 13.054 0 0 1-3.533-.463 13.371 13.371 0 0 1-3.177-1.333 13.519 13.519 0 0 1-2.703-2.094 13.326 13.326 0 0 1-3.44-5.906 13.256 13.256 0 0 1 1.333-10.247 13.364 13.364 0 0 1 2.094-2.693 12.964 12.964 0 0 1 2.703-2.084 13.337 13.337 0 0 1 10.247-1.333c1.113.305 2.182.753 3.18 1.333a13.183 13.183 0 0 1 2.693 2.084 13.197 13.197 0 0 1 3.42 5.873c.325 1.15.49 2.339.49 3.533Zm-5.12 0a7.915 7.915 0 0 0-.647-3.186 8.145 8.145 0 0 0-4.353-4.357 8.204 8.204 0 0 0-6.387 0 8.453 8.453 0 0 0-2.603 1.75 8.166 8.166 0 0 0-1.76 2.607 7.932 7.932 0 0 0-.647 3.186 7.797 7.797 0 0 0 .647 3.17 8.297 8.297 0 0 0 4.363 4.364 8.208 8.208 0 0 0 6.387 0 8.181 8.181 0 0 0 2.603-1.76 8.397 8.397 0 0 0 1.75-2.597 7.8 7.8 0 0 0 .647-3.177Zm6.99-5.263a7.404 7.404 0 0 1 .61-3 7.818 7.818 0 0 1 4.113-4.113 7.371 7.371 0 0 1 3-.614h11.817v5.157h-11.817a2.562 2.562 0 0 0-1.817.743c-.234.236-.42.514-.55.82a2.655 2.655 0 0 0 0 2c.128.309.315.59.55.827.234.235.511.42.817.547.316.133.657.199 1 .196h5.17a7.729 7.729 0 0 1 5.47 2.257 7.79 7.79 0 0 1 1.667 2.46 7.819 7.819 0 0 1 0 6 7.76 7.76 0 0 1-4.137 4.143 7.492 7.492 0 0 1-3 .61H192.21v-5.153h11.457a2.524 2.524 0 0 0 1.823-.747 2.589 2.589 0 0 0 .702-2.314 2.589 2.589 0 0 0-.702-1.332 2.544 2.544 0 0 0-1.823-.744h-5.17a7.404 7.404 0 0 1-3-.61 7.82 7.82 0 0 1-4.113-4.123 7.488 7.488 0 0 1-.61-3.01Zm10.416-9.267-5.046-4.563 2.03-2.567 2.89 2.62 2.693-2.513 2.21 2.42-4.777 4.603Zm18.717 27.3h-5.157v-25.756h5.157v25.756Zm15.627-10.29a10.031 10.031 0 0 1-.81 4 10.263 10.263 0 0 1-5.47 5.47 10 10 0 0 1-4 .807 10.597 10.597 0 0 1-2.587-.333v-5.507a5.135 5.135 0 0 0 2.573.7 5.03 5.03 0 0 0 2-.403 5.182 5.182 0 0 0 2.747-2.74 4.97 4.97 0 0 0 .407-2V242.14h5.14v15.473Zm24.623 10.29H255v-5.153h-10.306v5.153h-5.137v-15.446a9.994 9.994 0 0 1 .807-4 10.507 10.507 0 0 1 2.2-3.277 10.254 10.254 0 0 1 3.27-2.21 10.348 10.348 0 0 1 8.03 0 10.329 10.329 0 0 1 3.276 2.21 10.434 10.434 0 0 1 2.21 3.277c.539 1.264.814 2.625.807 4v15.446ZM255 257.613v-5.156a4.996 4.996 0 0 0-.406-2 5.124 5.124 0 0 0-2.747-2.75 5.165 5.165 0 0 0-4 0 5.124 5.124 0 0 0-2.747 2.75 4.993 4.993 0 0 0-.403 2v5.156H255Zm30.267-2.586a12.63 12.63 0 0 1-.457 3.42 12.766 12.766 0 0 1-1.303 3.073 13.382 13.382 0 0 1-2 2.603 12.875 12.875 0 0 1-5.687 3.324 12.63 12.63 0 0 1-3.42.456h-7.77v-25.756h7.76a12.823 12.823 0 0 1 6.5 1.76 12.717 12.717 0 0 1 2.607 2.023 13.343 13.343 0 0 1 2 2.603 12.842 12.842 0 0 1 1.77 6.494Zm-5.154 0a7.468 7.468 0 0 0-.603-3 7.81 7.81 0 0 0-1.65-2.454 7.896 7.896 0 0 0-2.463-1.666 7.478 7.478 0 0 0-3-.61h-2.57v15.446h2.57a7.547 7.547 0 0 0 3-.603 7.644 7.644 0 0 0 4.113-4.113c.404-.949.609-1.97.603-3ZM309 267.903h-5.16v-5.153h-10.31v5.153h-5.136v-15.446a10.065 10.065 0 0 1 .806-4 10.541 10.541 0 0 1 2.2-3.277 10.276 10.276 0 0 1 3.27-2.21 10.348 10.348 0 0 1 8.03 0 10.322 10.322 0 0 1 3.277 2.21 10.434 10.434 0 0 1 2.21 3.277c.542 1.263.817 2.625.81 4l.003 15.446Zm-5.156-10.29v-5.156a4.994 4.994 0 0 0-.404-2 5.223 5.223 0 0 0-1.106-1.647 5.168 5.168 0 0 0-3.644-1.506 5.17 5.17 0 0 0-3.643 1.506 5.243 5.243 0 0 0-1.107 1.647 5.01 5.01 0 0 0-.403 2v5.156h10.307Zm-206.22 54.434h-5.157V286.29H110.5v5.157H97.624v5.153h7.709v5.153h-7.71v10.294Zm33.173 0H113.13V286.29h17.667v5.157h-12.5v5.153h8.46v5.153h-8.46v5.14h12.5v5.154Zm8.766 0h-5.153V286.29h10.31a10.097 10.097 0 0 1 5.18 1.41 10.412 10.412 0 0 1 4.743 6.17c.246.889.37 1.808.367 2.73.002.873-.11 1.743-.333 2.587a10.556 10.556 0 0 1-.95 2.39 10.196 10.196 0 0 1-3.53 3.733l2.856 6.737h-5.48l-2.24-5.19-5.766.036-.004 5.154Zm0-20.6v10.306h5.157a4.96 4.96 0 0 0 2-.403 5.17 5.17 0 0 0 3.142-4.747 5.146 5.146 0 0 0-1.509-3.643 5.227 5.227 0 0 0-1.633-1.103 4.96 4.96 0 0 0-2-.404l-5.157-.006Zm33.697 5.153v4.887h-15.09V296.6h15.09Zm24.894 15.447h-5.153v-5.154h-10.31v5.154h-5.137V296.6a9.997 9.997 0 0 1 .807-4 10.474 10.474 0 0 1 2.2-3.28 10.272 10.272 0 0 1 3.27-2.207 10.366 10.366 0 0 1 8.03 0 10.336 10.336 0 0 1 5.473 5.474c.539 1.264.813 2.625.807 4l.013 15.46Zm-5.153-10.294V296.6a5.038 5.038 0 0 0-.407-2 5.135 5.135 0 0 0-4.747-3.149 5.133 5.133 0 0 0-4.746 3.149 5.035 5.035 0 0 0-.404 2v5.153h10.304Zm26.665 10.294H214.5v-20.6h-2.57v-5.157h7.736v25.757Zm22.388-7.714a7.437 7.437 0 0 1-.613 3 7.853 7.853 0 0 1-4.107 4.104 7.44 7.44 0 0 1-3 .61h-10.313v-5.154h10.313a2.581 2.581 0 0 0 1.823-.746 2.591 2.591 0 0 0 0-3.647 2.587 2.587 0 0 0-1.823-.747h-7.027V296.6h7.027a2.562 2.562 0 0 0 1.82-.747 2.53 2.53 0 0 0 .546-.823c.132-.323.199-.668.197-1.017a2.545 2.545 0 0 0-.743-1.823 2.546 2.546 0 0 0-1.82-.743h-10.313v-5.157h10.313a7.44 7.44 0 0 1 3 .61 7.852 7.852 0 0 1 4.107 4.1 7.591 7.591 0 0 1 .09 5.757 7.823 7.823 0 0 1-1.47 2.4 7.804 7.804 0 0 1 1.47 2.396c.349.885.527 1.829.523 2.78Zm9.663 5.88c.002.416-.077.828-.233 1.214a3.058 3.058 0 0 1-1.617 1.646 3.108 3.108 0 0 1-2.4 0 3.253 3.253 0 0 1-1-.666 2.972 2.972 0 0 1-.667-.98 3.016 3.016 0 0 1-.243-1.214c-.003-.407.08-.81.243-1.183.156-.365.382-.694.667-.97a3.18 3.18 0 0 1 1-.667 3.093 3.093 0 0 1 2.4 0c.362.16.691.386.97.667a3.037 3.037 0 0 1 .88 2.153Zm10.543 1.834h-5.156v-20.6h-2.567v-5.157h7.723v25.757Zm11.694 0h-5.157v-20.6h-2.567v-5.157h7.724v25.757Zm10.47-1.834c.004.416-.076.829-.233 1.214a3.004 3.004 0 0 1-.647.98c-.28.28-.609.506-.97.666a3.102 3.102 0 0 1-2.397 0 3.313 3.313 0 0 1-1-.666 3.074 3.074 0 0 1-.663-3.377 3.03 3.03 0 0 1 .667-.97 3.238 3.238 0 0 1 1-.667 3.08 3.08 0 0 1 2.396 0c.363.16.692.386.97.667a3.028 3.028 0 0 1 .88 2.153h-.003Z" fill="#fff"/></g><defs><radialGradient id="e" cx="0" cy="0" r="1" gradientUnits="userSpaceOnUse" gradientTransform="translate(89.47 389.17) scale(20.2333)"><stop stop-color="#FF0B0B"/><stop offset=".77" stop-color="red" stop-opacity=".3"/><stop offset="1" stop-color="red" stop-opacity=".1"/></radialGradient><radialGradient id="f" cx="0" cy="0" r="1" gradientUnits="userSpaceOnUse" gradientTransform="rotate(143.931 135.526 93.214) scale(85.4423 39.0539)"><stop stop-color="#D9674D"/><stop offset=".03" stop-color="#DA6350" stop-opacity=".93"/><stop offset=".12" stop-color="#DF565A" stop-opacity=".72"/><stop offset=".21" stop-color="#E34B63" stop-opacity=".52"/><stop offset=".32" stop-color="#E6416B" stop-opacity=".36"/><stop offset=".42" stop-color="#E83A71" stop-opacity=".23"/><stop offset=".54" stop-color="#EA3476" stop-opacity=".13"/><stop offset=".66" stop-color="#EC2F79" stop-opacity=".06"/><stop offset=".8" stop-color="#ED2D7B" stop-opacity=".01"/><stop offset="1" stop-color="#ED2C7C" stop-opacity="0"/></radialGradient><radialGradient id="g" cx="0" cy="0" r="1" gradientUnits="userSpaceOnUse" gradientTransform="rotate(143.931 135.526 93.214) scale(85.4421 39.0539)"><stop stop-color="#D9674D"/><stop offset=".03" stop-color="#DA6350" stop-opacity=".93"/><stop offset=".12" stop-color="#DF565A" stop-opacity=".72"/><stop offset=".21" stop-color="#E34B63" stop-opacity=".52"/><stop offset=".32" stop-color="#E6416B" stop-opacity=".36"/><stop offset=".42" stop-color="#E83A71" stop-opacity=".23"/><stop offset=".54" stop-color="#EA3476" stop-opacity=".13"/><stop offset=".66" stop-color="#EC2F79" stop-opacity=".06"/><stop offset=".8" stop-color="#ED2D7B" stop-opacity=".01"/><stop offset="1" stop-color="#ED2C7C" stop-opacity="0"/></radialGradient><radialGradient id="h" cx="0" cy="0" r="1" gradientUnits="userSpaceOnUse" gradientTransform="rotate(143.931 135.526 93.214) scale(85.4422 39.0539)"><stop stop-color="#D9674D"/><stop offset=".03" stop-color="#DA6350" stop-opacity=".93"/><stop offset=".12" stop-color="#DF565A" stop-opacity=".72"/><stop offset=".21" stop-color="#E34B63" stop-opacity=".52"/><stop offset=".32" stop-color="#E6416B" stop-opacity=".36"/><stop offset=".42" stop-color="#E83A71" stop-opacity=".23"/><stop offset=".54" stop-color="#EA3476" stop-opacity=".13"/><stop offset=".66" stop-color="#EC2F79" stop-opacity=".06"/><stop offset=".8" stop-color="#ED2D7B" stop-opacity=".01"/><stop offset="1" stop-color="#ED2C7C" stop-opacity="0"/></radialGradient><radialGradient id="i" cx="0" cy="0" r="1" gradientUnits="userSpaceOnUse" gradientTransform="rotate(143.931 135.526 93.214) scale(85.4422 39.0539)"><stop stop-color="#D9674D"/><stop offset=".03" stop-color="#DA6350" stop-opacity=".93"/><stop offset=".12" stop-color="#DF565A" stop-opacity=".72"/><stop offset=".21" stop-color="#E34B63" stop-opacity=".52"/><stop offset=".32" stop-color="#E6416B" stop-opacity=".36"/><stop offset=".42" stop-color="#E83A71" stop-opacity=".23"/><stop offset=".54" stop-color="#EA3476" stop-opacity=".13"/><stop offset=".66" stop-color="#EC2F79" stop-opacity=".06"/><stop offset=".8" stop-color="#ED2D7B" stop-opacity=".01"/><stop offset="1" stop-color="#ED2C7C" stop-opacity="0"/></radialGradient><radialGradient id="j" cx="0" cy="0" r="1" gradientUnits="userSpaceOnUse" gradientTransform="matrix(-69.0635 50.30476 -22.99334 -31.5676 299.953 88.768)"><stop stop-color="#D9674D"/><stop offset=".03" stop-color="#DA6350" stop-opacity=".93"/><stop offset=".12" stop-color="#DF565A" stop-opacity=".72"/><stop offset=".21" stop-color="#E34B63" stop-opacity=".52"/><stop offset=".32" stop-color="#E6416B" stop-opacity=".36"/><stop offset=".42" stop-color="#E83A71" stop-opacity=".23"/><stop offset=".54" stop-color="#EA3476" stop-opacity=".13"/><stop offset=".66" stop-color="#EC2F79" stop-opacity=".06"/><stop offset=".8" stop-color="#ED2D7B" stop-opacity=".01"/><stop offset="1" stop-color="#ED2C7C" stop-opacity="0"/></radialGradient><radialGradient id="k" cx="0" cy="0" r="1" gradientUnits="userSpaceOnUse" gradientTransform="rotate(2.48 -249019.309 1191284.01) scale(8212.09 6191.2)"><stop stop-color="#D9674D"/><stop offset=".03" stop-color="#DA6350" stop-opacity=".93"/><stop offset=".12" stop-color="#DF565A" stop-opacity=".72"/><stop offset=".21" stop-color="#E34B63" stop-opacity=".52"/><stop offset=".32" stop-color="#E6416B" stop-opacity=".36"/><stop offset=".42" stop-color="#E83A71" stop-opacity=".23"/><stop offset=".54" stop-color="#EA3476" stop-opacity=".13"/><stop offset=".66" stop-color="#EC2F79" stop-opacity=".06"/><stop offset=".8" stop-color="#ED2D7B" stop-opacity=".01"/><stop offset="1" stop-color="#ED2C7C" stop-opacity="0"/></radialGradient><radialGradient id="l" cx="0" cy="0" r="1" gradientUnits="userSpaceOnUse" gradientTransform="matrix(-69.3874 50.54625 -23.1044 -31.71658 299.91 88.705)"><stop stop-color="#D9674D"/><stop offset=".03" stop-color="#DA6350" stop-opacity=".93"/><stop offset=".12" stop-color="#DF565A" stop-opacity=".72"/><stop offset=".21" stop-color="#E34B63" stop-opacity=".52"/><stop offset=".32" stop-color="#E6416B" stop-opacity=".36"/><stop offset=".42" stop-color="#E83A71" stop-opacity=".23"/><stop offset=".54" stop-color="#EA3476" stop-opacity=".13"/><stop offset=".66" stop-color="#EC2F79" stop-opacity=".06"/><stop offset=".8" stop-color="#ED2D7B" stop-opacity=".01"/><stop offset="1" stop-color="#ED2C7C" stop-opacity="0"/></radialGradient><radialGradient id="m" cx="0" cy="0" r="1" gradientUnits="userSpaceOnUse" gradientTransform="rotate(-176.77 165.261 43.791) scale(2.34005)"><stop stop-color="#D9674D"/><stop offset=".11" stop-color="#DA654E" stop-opacity=".97"/><stop offset=".24" stop-color="#DB6152" stop-opacity=".9"/><stop offset=".4" stop-color="#DE5A58" stop-opacity=".77"/><stop offset=".57" stop-color="#E14F60" stop-opacity=".6"/><stop offset=".75" stop-color="#E5426A" stop-opacity=".38"/><stop offset=".93" stop-color="#EB3277" stop-opacity=".11"/><stop offset="1" stop-color="#ED2C7C" stop-opacity="0"/></radialGradient><radialGradient id="n" cx="0" cy="0" r="1" gradientUnits="userSpaceOnUse" gradientTransform="rotate(-176.77 165.261 43.791) scale(2.34002)"><stop stop-color="#D9674D"/><stop offset=".11" stop-color="#DA654E" stop-opacity=".97"/><stop offset=".24" stop-color="#DB6152" stop-opacity=".9"/><stop offset=".4" stop-color="#DE5A58" stop-opacity=".77"/><stop offset=".57" stop-color="#E14F60" stop-opacity=".6"/><stop offset=".75" stop-color="#E5426A" stop-opacity=".38"/><stop offset=".93" stop-color="#EB3277" stop-opacity=".11"/><stop offset="1" stop-color="#ED2C7C" stop-opacity="0"/></radialGradient><radialGradient id="o" cx="0" cy="0" r="1" gradientUnits="userSpaceOnUse" gradientTransform="matrix(-69.06455 50.30552 -22.99357 -31.56792 299.953 88.768)"><stop stop-color="#D9674D"/><stop offset=".03" stop-color="#DA6350" stop-opacity=".93"/><stop offset=".12" stop-color="#DF565A" stop-opacity=".72"/><stop offset=".21" stop-color="#E34B63" stop-opacity=".52"/><stop offset=".32" stop-color="#E6416B" stop-opacity=".36"/><stop offset=".42" stop-color="#E83A71" stop-opacity=".23"/><stop offset=".54" stop-color="#EA3476" stop-opacity=".13"/><stop offset=".66" stop-color="#EC2F79" stop-opacity=".06"/><stop offset=".8" stop-color="#ED2D7B" stop-opacity=".01"/><stop offset="1" stop-color="#ED2C7C" stop-opacity="0"/></radialGradient><radialGradient id="p" cx="0" cy="0" r="1" gradientUnits="userSpaceOnUse" gradientTransform="rotate(-176.77 165.26 43.791) scale(2.34004)"><stop stop-color="#D9674D"/><stop offset=".11" stop-color="#DA654E" stop-opacity=".97"/><stop offset=".24" stop-color="#DB6152" stop-opacity=".9"/><stop offset=".4" stop-color="#DE5A58" stop-opacity=".77"/><stop offset=".57" stop-color="#E14F60" stop-opacity=".6"/><stop offset=".75" stop-color="#E5426A" stop-opacity=".38"/><stop offset=".93" stop-color="#EB3277" stop-opacity=".11"/><stop offset="1" stop-color="#ED2C7C" stop-opacity="0"/></radialGradient><radialGradient id="q" cx="0" cy="0" r="1" gradientUnits="userSpaceOnUse" gradientTransform="matrix(8.21371 0 0 8.20728 -2194.22 -8170.04)"><stop stop-color="#D9674D"/><stop offset=".11" stop-color="#DA654E" stop-opacity=".97"/><stop offset=".24" stop-color="#DB6152" stop-opacity=".9"/><stop offset=".4" stop-color="#DE5A58" stop-opacity=".77"/><stop offset=".57" stop-color="#E14F60" stop-opacity=".6"/><stop offset=".75" stop-color="#E5426A" stop-opacity=".38"/><stop offset=".93" stop-color="#EB3277" stop-opacity=".11"/><stop offset="1" stop-color="#ED2C7C" stop-opacity="0"/></radialGradient><radialGradient id="r" cx="0" cy="0" r="1" gradientUnits="userSpaceOnUse" gradientTransform="matrix(4.00145 0 0 3.96632 -909.757 -3910.12)"><stop stop-color="#D9674D"/><stop offset=".11" stop-color="#DA654E" stop-opacity=".97"/><stop offset=".24" stop-color="#DB6152" stop-opacity=".9"/><stop offset=".4" stop-color="#DE5A58" stop-opacity=".77"/><stop offset=".57" stop-color="#E14F60" stop-opacity=".6"/><stop offset=".75" stop-color="#E5426A" stop-opacity=".38"/><stop offset=".93" stop-color="#EB3277" stop-opacity=".11"/><stop offset="1" stop-color="#ED2C7C" stop-opacity="0"/></radialGradient><radialGradient id="s" cx="0" cy="0" r="1" gradientUnits="userSpaceOnUse" gradientTransform="rotate(143.931 135.526 93.214) scale(85.4423 39.0539)"><stop stop-color="#D9674D"/><stop offset=".03" stop-color="#DA6350" stop-opacity=".93"/><stop offset=".12" stop-color="#DF565A" stop-opacity=".72"/><stop offset=".21" stop-color="#E34B63" stop-opacity=".52"/><stop offset=".32" stop-color="#E6416B" stop-opacity=".36"/><stop offset=".42" stop-color="#E83A71" stop-opacity=".23"/><stop offset=".54" stop-color="#EA3476" stop-opacity=".13"/><stop offset=".66" stop-color="#EC2F79" stop-opacity=".06"/><stop offset=".8" stop-color="#ED2D7B" stop-opacity=".01"/><stop offset="1" stop-color="#ED2C7C" stop-opacity="0"/></radialGradient><radialGradient id="t" cx="0" cy="0" r="1" gradientUnits="userSpaceOnUse" gradientTransform="translate(-3350.67 -11722.9) scale(16.6001)"><stop stop-color="#D9674D"/><stop offset=".11" stop-color="#DA654E" stop-opacity=".97"/><stop offset=".24" stop-color="#DB6152" stop-opacity=".9"/><stop offset=".4" stop-color="#DE5A58" stop-opacity=".77"/><stop offset=".57" stop-color="#E14F60" stop-opacity=".6"/><stop offset=".75" stop-color="#E5426A" stop-opacity=".38"/><stop offset=".93" stop-color="#EB3277" stop-opacity=".11"/><stop offset="1" stop-color="#ED2C7C" stop-opacity="0"/></radialGradient><radialGradient id="u" cx="0" cy="0" r="1" gradientUnits="userSpaceOnUse" gradientTransform="matrix(-798.43922 579.419 -264.98717 -365.15225 4983.31 26000.5)"><stop stop-color="#D9674D"/><stop offset=".03" stop-color="#DA6350" stop-opacity=".93"/><stop offset=".12" stop-color="#DF565A" stop-opacity=".72"/><stop offset=".21" stop-color="#E34B63" stop-opacity=".52"/><stop offset=".32" stop-color="#E6416B" stop-opacity=".36"/><stop offset=".42" stop-color="#E83A71" stop-opacity=".23"/><stop offset=".54" stop-color="#EA3476" stop-opacity=".13"/><stop offset=".66" stop-color="#EC2F79" stop-opacity=".06"/><stop offset=".8" stop-color="#ED2D7B" stop-opacity=".01"/><stop offset="1" stop-color="#ED2C7C" stop-opacity="0"/></radialGradient><radialGradient id="v" cx="0" cy="0" r="1" gradientUnits="userSpaceOnUse" gradientTransform="rotate(-176.77 1823.539 6250.692) scale(22.4265)"><stop stop-color="#D9674D"/><stop offset=".11" stop-color="#DA654E" stop-opacity=".97"/><stop offset=".24" stop-color="#DB6152" stop-opacity=".9"/><stop offset=".4" stop-color="#DE5A58" stop-opacity=".77"/><stop offset=".57" stop-color="#E14F60" stop-opacity=".6"/><stop offset=".75" stop-color="#E5426A" stop-opacity=".38"/><stop offset=".93" stop-color="#EB3277" stop-opacity=".11"/><stop offset="1" stop-color="#ED2C7C" stop-opacity="0"/></radialGradient><radialGradient id="w" cx="0" cy="0" r="1" gradientUnits="userSpaceOnUse" gradientTransform="rotate(143.93 135.526 93.216) scale(85.442 39.0539)"><stop stop-color="#D9674D"/><stop offset=".03" stop-color="#DA6350" stop-opacity=".93"/><stop offset=".12" stop-color="#DF565A" stop-opacity=".72"/><stop offset=".21" stop-color="#E34B63" stop-opacity=".52"/><stop offset=".32" stop-color="#E6416B" stop-opacity=".36"/><stop offset=".42" stop-color="#E83A71" stop-opacity=".23"/><stop offset=".54" stop-color="#EA3476" stop-opacity=".13"/><stop offset=".66" stop-color="#EC2F79" stop-opacity=".06"/><stop offset=".8" stop-color="#ED2D7B" stop-opacity=".01"/><stop offset="1" stop-color="#ED2C7C" stop-opacity="0"/></radialGradient><radialGradient id="x" cx="0" cy="0" r="1" gradientUnits="userSpaceOnUse" gradientTransform="translate(-3135.33 -10644.5) scale(13.6806)"><stop stop-color="#D9674D"/><stop offset=".11" stop-color="#DA654E" stop-opacity=".97"/><stop offset=".24" stop-color="#DB6152" stop-opacity=".9"/><stop offset=".4" stop-color="#DE5A58" stop-opacity=".77"/><stop offset=".57" stop-color="#E14F60" stop-opacity=".6"/><stop offset=".75" stop-color="#E5426A" stop-opacity=".38"/><stop offset=".93" stop-color="#EB3277" stop-opacity=".11"/><stop offset="1" stop-color="#ED2C7C" stop-opacity="0"/></radialGradient><linearGradient id="b" x1="180.346" y1="0" x2="180.346" y2="652.383" gradientUnits="userSpaceOnUse"><stop stop-color="#F4D51D"/><stop offset=".14" stop-color="#F4CC1E"/><stop offset=".37" stop-color="#F5B523"/><stop offset=".65" stop-color="#F68F29"/><stop offset=".69" stop-color="#F6892A"/><stop offset="1" stop-color="#FF1E4F"/></linearGradient><linearGradient id="c" x1="88.845" y1="397.969" x2="93.011" y2="398.188" gradientUnits="userSpaceOnUse"><stop stop-color="#BFBFBF"/><stop offset=".93" stop-color="#FAFAFA"/><stop offset="1" stop-color="#fff"/></linearGradient><linearGradient id="d" x1="7931.73" y1="-3399.18" x2="7971.59" y2="-3399.18" gradientUnits="userSpaceOnUse"><stop stop-color="#BFBFBF"/><stop offset=".93" stop-color="#FAFAFA"/><stop offset="1" stop-color="#fff"/></linearGradient><linearGradient id="y" x1="216.756" y1="136.937" x2="256.609" y2="139.005" gradientUnits="userSpaceOnUse"><stop stop-color="#323440"/><stop offset=".58" stop-color="#343642"/><stop offset=".92" stop-color="#3B3E4B"/><stop offset="1" stop-color="#3E414E"/></linearGradient><clipPath id="a"><path fill="#fff" d="M0 0h360v640H0z"/></clipPath></defs></svg>