<svg width="1366" height="715" fill="none" xmlns="http://www.w3.org/2000/svg"><g clip-path="url(#a)"><path d="M1417.45 0H-65.66v790.79h1483.11V0Z" fill="url(#b)"/><path opacity=".05" d="M-185.812 252.904a87.572 87.572 0 0 1 38.675 8.836c3.422-39.884 41.912-71.329 88.933-71.329 6.593-.004 13.17.627 19.643 1.885 13.02-38.731 54.348-67.039 103.318-67.039 51.225 0 94.041 30.94 104.919 72.389a107.313 107.313 0 0 1 53.359-13.88c30.949 0 58.503 12.557 76.233 32.107 34.755 1.9 65.148 17.665 83.874 40.979a138.092 138.092 0 0 1 56.61-11.924c46.957 0 87.752 22.767 108.469 56.24a42.777 42.777 0 0 1 10.95-.078c5.634-27.384 33.282-48.186 66.557-48.186a74.625 74.625 0 0 1 39.293 10.906c11.974-32.015 46.736-55.229 87.766-55.229 45.007 0 82.479 27.903 90.583 64.798 19.309-14.677 44.615-23.577 72.334-23.577a124.121 124.121 0 0 1 43.306 7.69c9.015-24.26 35.296-41.818 66.34-41.818 29.01 0 53.87 15.346 64.36 37.159 13.51-18.085 36.99-30.066 63.71-30.066 32.3 0 59.86 17.473 70.79 42.082a70.592 70.592 0 0 1 33.73-8.395c24.9 0 46.41 12.379 56.83 30.393 14.1-27.811 46.2-47.24 83.55-47.24 22.93 0 43.89 7.328 59.91 19.422 7.21-12.557 22.18-21.194 39.48-21.194 14.76 0 27.81 6.282 35.8 15.915 8.28-22.588 32.69-38.958 61.54-38.958 33.06 0 60.29 21.485 64.09 49.196a76.924 76.924 0 0 1 8.97-3.557v555.003H-193.901v-562.16a89.39 89.39 0 0 1 8.089-.37Z" fill="#000"/><path opacity=".2" d="M1631.44 495.335a120.271 120.271 0 0 0-30.05 3.778c-9.61-33.196-44.31-57.776-85.66-57.776-22.93 0-43.83 7.562-59.53 19.97-20.94-35.316-63.46-59.484-112.5-59.484-55.49 0-102.58 30.919-119.58 73.926-23.04-21.187-55.75-34.412-92.03-34.412-50.51 0-94.09 25.611-114.32 62.706a90.375 90.375 0 0 0-12.03-.811 86.743 86.743 0 0 0-38.313 8.758c-3.387-39.514-41.514-70.653-88.05-70.653a101.429 101.429 0 0 0-19.459 1.863c-12.891-38.361-53.829-66.398-102.329-66.398-50.713 0-93.151 30.641-103.922 71.699a106.346 106.346 0 0 0-52.883-13.752c-30.657 0-57.948 12.443-75.507 31.808-34.428 1.878-64.53 17.495-83.077 40.588a136.79 136.79 0 0 0-56.077-11.81c-46.501 0-86.919 22.553-107.431 55.706-1.9-.26-3.816-.391-5.734-.391-1.71.003-3.418.107-5.115.313-5.585-27.128-32.962-47.731-65.924-47.731a73.908 73.908 0 0 0-38.924 10.807c-11.86-31.745-46.287-54.703-86.926-54.703-44.587 0-81.704 27.632-89.729 64.179-19.124-14.535-44.196-23.371-71.644-23.371a122.97 122.97 0 0 0-42.894 7.62c-8.722-23.478-33.766-40.588-63.568-41.371V575.5a81.672 81.672 0 0 0-1.708 10.259 83.228 83.228 0 0 0-.427 8.353 81.825 81.825 0 0 0 2.135 18.611v202.719H1670.24V501.738a119.121 119.121 0 0 0-38.8-6.403Z" fill="#fff"/><path d="M134.679 368.221c-3.258-17.586-20.846-30.997-42.111-30.997a48.88 48.88 0 0 0-12.415 1.586c-11.704-22.09-37.466-37.421-67.347-37.421-32.015 0-59.264 17.551-69.63 42.124a46.663 46.663 0 0 0-12.002-1.551c-22.547 0-40.817 15.808-40.817 35.309 0 1.208.069 2.414.206 3.614a32.76 32.76 0 0 0-4.837-.356c-15.653 0-28.373 10.985-28.373 24.545 0 12.571 10.928 22.93 25.014 24.367l-.121.171h282.101c6.723-6.517 10.807-15.118 10.807-24.538.014-19.757-17.922-35.878-40.475-36.853Zm857.023 222.276c-2.981-16.071-19.082-28.351-38.497-28.351-3.84-.018-7.666.46-11.384 1.423-10.672-20.176-34.249-34.192-61.591-34.192-29.248 0-54.17 16.043-63.654 38.511a42.482 42.482 0 0 0-10.963-1.423c-20.633 0-37.316 14.449-37.316 32.278.001 1.103.068 2.206.199 3.301a30.31 30.31 0 0 0-4.433-.327c-14.321 0-25.932 10.045-25.932 22.439 0 11.49 9.96 20.959 22.866 22.275l-.107.157h257.92c6.15-5.962 9.88-13.824 9.88-22.432.02-18.007-16.38-32.769-36.988-33.659ZM761.168 349.439c-2.134-11.603-13.774-20.468-27.79-20.468a32.202 32.202 0 0 0-8.196 1.046c-7.726-14.57-24.73-24.687-44.473-24.687-21.123 0-39.13 11.582-45.96 27.803a30.985 30.985 0 0 0-7.919-1.024c-14.883 0-26.943 10.436-26.943 23.306.001.797.049 1.593.143 2.384a22.429 22.429 0 0 0-3.202-.235c-10.337 0-18.725 7.257-18.725 16.2 0 8.295 7.214 15.139 16.513 16.085l-.079.114h186.224a22.513 22.513 0 0 0 7.115-16.199c.021-13.063-11.824-23.677-26.708-24.325Zm653.052 144.075c-3.49-18.861-22.39-33.275-45.18-33.275-4.5-.004-8.97.568-13.32 1.701-12.56-23.677-40.21-40.126-72.3-40.126-34.33 0-63.58 18.825-74.7 45.198a49.867 49.867 0 0 0-12.87-1.672c-24.19 0-43.8 16.968-43.8 37.892 0 1.296.08 2.59.23 3.877a35.757 35.757 0 0 0-5.2-.384c-16.81 0-30.44 11.789-30.44 26.323 0 13.518 11.73 24.609 26.84 26.153l-.12.185h302.73c7.21-7.001 11.59-16.221 11.59-26.323-.02-21.194-19.26-38.504-43.46-39.549Zm-996.75 93.462c-2.448-13.24-15.716-23.357-31.71-23.357a36.912 36.912 0 0 0-9.349 1.195c-8.815-16.619-28.223-28.166-50.741-28.166-24.104 0-44.63 13.212-52.441 31.724a35.067 35.067 0 0 0-9.036-1.174c-16.975 0-30.742 11.909-30.742 26.594.001.91.055 1.82.164 2.724a24.65 24.65 0 0 0-3.65-.27c-11.803 0-21.344 8.274-21.344 18.498 0 9.469 8.232 17.273 18.839 18.348l-.092.135h212.456c5.065-4.916 8.139-11.383 8.139-18.498 0-14.876-13.511-27.02-30.493-27.753Z" fill="#fff"/><path d="M1135.49 586.4c.28.547 5.44-2.697 12.94-3.693 3.9-.526 7.58-.967 11 1.096 2.46 1.487 4.15 3.899 5.38 5.691.64.925 1.55 2.462 3.34 5.542 1.42 2.476 2.18 3.714 2.18 3.757v.071c.26.114 1.51-2.234 2.42-3.678a23.32 23.32 0 0 1 4.35-5.051 17.341 17.341 0 0 1 8.01-3.6c2.86-.414 5.78-.171 8.54.711 2.71.759 5.29 1.933 7.64 3.479 1.13.686 2.15 1.535 3.02 2.519.1.113.25.313.29.284.16-.085-1.28-3.151-2.36-4.788-2.92-4.432-8.12-5.805-10.68-6.474-7.06-1.871-14-.206-16.3 1.843l-2.61 2.369a39.045 39.045 0 0 0-5.69-5.756 17.622 17.622 0 0 0-9.07-3.436c-2.27-.157-4.72.149-10.24 1.956a40.906 40.906 0 0 0-9.31 4.746c-.31.185-3.09 2.013-2.85 2.412Zm-50.47 21.82c.26.498 4.98-2.49 11.8-3.444 3.56-.498 6.92-.918 10.05.946 2.26 1.345 3.81 3.558 4.98 5.144.59.84 1.43 2.241 3.08 5.044 1.34 2.256 2.01 3.387 2.02 3.422-.01.01-.01.021-.01.032s0 .022.01.032c.22.107 1.36-2.056 2.18-3.372a21.389 21.389 0 0 1 3.95-4.638 15.827 15.827 0 0 1 7.3-3.33c2.62-.403 5.29-.206 7.83.576a24.87 24.87 0 0 1 6.99 3.138c1.03.622 1.96 1.392 2.77 2.283.09.107.23.285.27.264.03-.022-1.19-2.882-2.19-4.369-2.69-4.026-7.45-5.257-9.77-5.855-6.46-1.672-12.8-.114-14.89 1.772l-2.37 2.134a35.714 35.714 0 0 0-5.18-5.222 16.137 16.137 0 0 0-8.31-3.095c-2.07-.135-4.31.164-9.34 1.836-3 1.094-5.85 2.567-8.48 4.382-.35.249-2.88 1.95-2.69 2.32ZM769.598 484.678c.306.434 4.419-2.925 10.822-4.625 3.329-.889 6.481-1.679 9.676-.299 2.305.996 4.041 2.846 5.314 4.269.662.711 1.615 1.935 3.557 4.368 1.537 1.964 2.305 2.946 2.313 2.981.007.036 0 .043.042.05.235.071 1.06-2.085 1.686-3.422a19.825 19.825 0 0 1 3.209-4.824 15.368 15.368 0 0 1 6.56-3.984 17.016 17.016 0 0 1 7.513-.384 24.112 24.112 0 0 1 7.029 2.134 11.913 11.913 0 0 1 2.91 1.822c.092.085.242.235.277.213.036-.021-1.473-2.568-2.589-3.849-3.038-3.464-7.706-4.055-9.961-4.347-6.353-.811-12.194 1.423-13.959 3.415l-1.999 2.32a33.928 33.928 0 0 0-5.556-4.269 15.563 15.563 0 0 0-8.275-1.928c-1.985.121-4.076.654-8.665 2.846a36.067 36.067 0 0 0-7.563 5.115c-.356.192-2.568 2.077-2.341 2.398Zm401.092 145.141c.33.626 6.21-3.123 14.8-4.319 4.46-.618 8.68-1.152 12.6 1.189 2.84 1.686 4.77 4.432 6.2 6.452.71 1.053 1.79 2.811 3.87 6.325 1.67 2.846 2.51 4.269 2.52 4.269.02 0 0 .064.04.078.3.128 1.72-2.575 2.75-4.226a25.88 25.88 0 0 1 4.98-5.82 19.825 19.825 0 0 1 9.15-4.169c4.16-.711 7.36.093 9.82.712a31.23 31.23 0 0 1 8.77 3.941c1.29.775 2.46 1.734 3.48 2.846.11.128.28.356.33.327.17-.106-1.5-3.607-2.74-5.478-3.38-5.051-9.34-6.595-12.25-7.342-8.11-2.134-16.05-.142-18.67 2.22l-2.97 2.725a44.86 44.86 0 0 0-6.51-6.553 20.196 20.196 0 0 0-10.42-3.877c-2.59-.164-5.4.199-11.71 2.305a46.946 46.946 0 0 0-10.67 5.492c-.43.335-3.61 2.441-3.37 2.903ZM16.961 558.39c.463.484 4.831-4.51 12.344-7.904 3.906-1.757 7.613-3.372 11.817-2.291 3.038.783 5.543 2.768 7.392 4.226.954.761 2.377 2.085 5.215 4.738 2.284 2.135 3.43 3.195 3.45 3.237.022.043 0 .057.065.064.299.043.875-2.81 1.373-4.588a24.823 24.823 0 0 1 2.953-6.638 18.907 18.907 0 0 1 7.235-6.261 20.875 20.875 0 0 1 9.15-1.971 29.57 29.57 0 0 1 9.056 1.245 14.69 14.69 0 0 1 3.942 1.679c.135.093.356.25.391.214.128-.142-2.333-2.896-3.97-4.269-4.425-3.706-10.28-3.557-13.147-3.422-7.962.256-14.67 4.169-16.435 7.022-.178.285-1.985 3.28-1.985 3.28a42.748 42.748 0 0 0-7.691-4.233 19.266 19.266 0 0 0-10.544-.747c-2.412.541-4.873 1.629-10.067 5.236a44.838 44.838 0 0 0-8.239 7.869c-.32.384-2.653 3.158-2.305 3.514Zm31.789-46.343c.241.37 3.727-2.291 9.049-3.501 2.767-.626 5.386-1.181 7.968.079a13.63 13.63 0 0 1 4.269 3.721c.526.619 1.273 1.664 2.76 3.756 1.203 1.686 1.808 2.533 1.815 2.561a.051.051 0 0 0 0 .043c.192.071.939-1.7 1.5-2.796a16.398 16.398 0 0 1 2.79-3.913 12.6 12.6 0 0 1 5.52-3.102 13.78 13.78 0 0 1 6.197-.071 19.49 19.49 0 0 1 5.692 2.006 9.76 9.76 0 0 1 2.334 1.608c.07.078.192.206.22.192a14.981 14.981 0 0 0-2.006-3.294c-2.383-2.988-6.211-3.635-8.075-3.955-5.2-.883-10.074.768-11.59 2.383l-1.721 1.871a28.41 28.41 0 0 0-4.433-3.764 12.722 12.722 0 0 0-6.737-1.878c-1.637.036-3.38.413-7.222 2.071a29.298 29.298 0 0 0-6.403 4.012c-.227.199-2.106 1.693-1.928 1.971Z" fill="#4D4D4D"/><path d="M688.671 400.308v432.585H119.504V380.615l436.43-68.605 132.737 88.298Z" fill="#33C4E1"/><path opacity=".1" d="M257.107 468.912v363.981H119.503V380.615l137.604 88.297Z" fill="#000"/><path opacity=".2" d="m688.671 400.308-431.564 68.604-137.603-88.297 436.43-68.605 132.737 88.298Z" fill="#000"/><path d="M689.239 658.177a.602.602 0 0 1-.443-.161.608.608 0 0 1-.197-.429V401.254L556.36 313.27l-436.181 68.562a.632.632 0 0 1-.711-.484.584.584 0 0 1 .526-.676l436.43-68.604a.712.712 0 0 1 .491.099l132.708 88.298a.587.587 0 0 1 .264.476v256.646a.63.63 0 0 1-.409.554.607.607 0 0 1-.239.036Z" fill="#000"/><path d="M649.853 407.792a.628.628 0 0 1-.633-.484.588.588 0 0 1 .527-.711l39.386-6.268a.647.647 0 0 1 .711.484.618.618 0 0 1-.108.47.603.603 0 0 1-.418.241l-39.387 6.261-.078.007Zm-392.177 62.344a.636.636 0 0 1-.64-.491.618.618 0 0 1 .108-.471.616.616 0 0 1 .418-.241l381.939-60.714a.655.655 0 0 1 .712.484.604.604 0 0 1-.527.711l-381.903 60.715-.107.007ZM120.073 656.334a.605.605 0 0 1-.446-.161.61.61 0 0 1-.202-.429V381.248a.575.575 0 0 1 .349-.519.707.707 0 0 1 .669.035l47.703 30.592a.563.563 0 0 1 .156.825.714.714 0 0 1-.896.143l-46.686-29.959v273.379a.62.62 0 0 1-.647.59Z" fill="#000"/><path d="M257.946 604.492a.627.627 0 0 1-.589-.356.62.62 0 0 1-.058-.235l-.27-134.05-67.283-43.17a.563.563 0 0 1-.157-.826.671.671 0 0 1 .897-.142l67.837 43.526.264 134.662a.609.609 0 0 1-.197.429.622.622 0 0 1-.444.162Zm-74.639-182.08a.664.664 0 0 1-.377-.107l-2.22-1.423a.559.559 0 0 1-.156-.825.713.713 0 0 1 .896-.142l2.227 1.423a.557.557 0 0 1 .157.825.669.669 0 0 1-.527.249Zm74.639 191.997a.61.61 0 0 1-.446-.161.611.611 0 0 1-.201-.429v-4.269a.648.648 0 0 1 1.288 0v4.269a.613.613 0 0 1-.641.59Z" fill="#000"/><path d="m334.94 493.549-63.946 10.138v95.817l63.946-10.138v-95.817Z" fill="#fff"/><path opacity=".4" d="M329.604 586.165v-91.869l4.597-.633.434 95.753-5.031-3.251Z" fill="#000"/><path opacity=".1" d="M271.428 598.807v-3.216l58.176-9.426 5.03 3.251-63.206 9.391Z" fill="#000"/><path d="M270.354 600.209v-97.02l64.992-10.301-.057 97.019-64.935 10.302Zm1.295-96.045v94.622l62.345-9.882.057-94.622-62.402 9.882Z" fill="#000"/><path d="m402.536 482.757-63.946 10.145v95.81l63.946-10.138v-95.817Z" fill="#fff"/><path opacity=".4" d="M397.207 575.379v-91.875l4.596-.626.427 95.746-5.023-3.245Z" fill="#000"/><path opacity=".1" d="M339.031 588.015v-3.209l58.176-9.427 5.023 3.245-63.199 9.391Z" fill="#000"/><path d="M337.942 589.416v-97.012l64.992-10.309-.057 97.019-64.935 10.302Zm1.295-96.045v94.622l62.353-9.889.056-94.622-62.409 9.889Z" fill="#000"/><path d="m470.928 471.442-63.946 10.138v95.817l63.946-10.138v-95.817Z" fill="#fff"/><path opacity=".4" d="M465.6 564.057v-91.868l4.596-.634.434 95.746-5.03-3.244Z" fill="#000"/><path opacity=".1" d="M407.423 576.699v-3.215l58.176-9.427 5.03 3.244-63.206 9.398Z" fill="#000"/><path d="M406.342 578.094v-97.012l64.992-10.302-.064 97.019-64.928 10.295Zm1.288-96.045v94.622l62.352-9.882.057-94.622-62.409 9.882Z" fill="#000"/><path d="m539.349 460.471-63.946 10.138v95.817l63.946-10.138v-95.817Z" fill="#fff"/><path opacity=".4" d="M534.014 553.087v-91.869l4.596-.633.434 95.753-5.03-3.251Z" fill="#000"/><path opacity=".1" d="M475.837 565.729v-3.216l58.176-9.426 5.03 3.251-63.206 9.391Z" fill="#000"/><path d="M474.756 567.131v-97.02l64.992-10.302-.064 97.02-64.928 10.302Zm1.288-96.045v94.622l62.352-9.882.057-94.622-62.409 9.882Z" fill="#000"/><path d="m607.642 449.501-63.946 10.138v95.817l63.946-10.138v-95.817Z" fill="#fff"/><path opacity=".4" d="M602.313 542.123v-91.875l4.596-.626.427 95.746-5.023-3.245Z" fill="#000"/><path opacity=".1" d="M544.137 554.759v-3.209l58.176-9.427 5.023 3.245-63.199 9.391Z" fill="#000"/><path d="M543.056 556.16v-96.991l64.992-10.309-.064 97.027-64.928 10.273Zm1.288-96.045v94.622l62.352-9.889.057-94.622-62.409 9.889Z" fill="#000"/><path d="m675.131 438.601-63.945 10.145v95.818l63.945-10.146v-95.817Z" fill="#fff"/><path opacity=".4" d="M669.795 531.224v-91.876l4.596-.626.434 95.746-5.03-3.244Z" fill="#000"/><path opacity=".1" d="M611.619 543.859v-3.208l58.176-9.427 5.03 3.244-63.206 9.391Z" fill="#000"/><path d="M610.538 545.254v-97.005l64.992-10.309-.064 97.026-64.928 10.288Zm1.288-96.045v94.622l62.352-9.889.057-94.622-62.409 9.889Z" fill="#000"/><path d="m334.94 605.253-63.946 10.138v95.817l63.946-10.145v-95.81Z" fill="#fff"/><path opacity=".4" d="M329.604 697.868v-91.875l4.597-.626.434 95.746-5.031-3.245Z" fill="#000"/><path opacity=".1" d="M271.428 710.504v-3.209l58.176-9.426 5.03 3.244-63.206 9.391Z" fill="#000"/><path d="M270.354 711.905v-97.012l64.992-10.309-.057 97.027-64.935 10.294Zm1.295-96.044v94.622l62.345-9.89.057-94.622-62.402 9.89Z" fill="#000"/><path d="m402.536 594.46-63.946 10.138v95.817l63.946-10.138V594.46Z" fill="#fff"/><path opacity=".4" d="M397.207 687.076v-91.869l4.596-.633.427 95.753-5.023-3.251Z" fill="#000"/><path opacity=".1" d="M339.031 699.718v-3.215l58.176-9.427 5.023 3.251-63.199 9.391Z" fill="#000"/><path d="M337.942 701.12V604.1l64.992-10.301-.057 97.012-64.935 10.309Zm1.295-96.045v94.622l62.353-9.882.056-94.622-62.409 9.882Z" fill="#000"/><path d="m470.537 583.49-63.946 10.138v95.817l63.946-10.138V583.49Z" fill="#fff"/><path opacity=".4" d="M465.208 676.113v-91.876l4.596-.626.427 95.746-5.023-3.244Z" fill="#000"/><path opacity=".1" d="M407.033 688.748v-3.209l58.176-9.426 5.023 3.244-63.199 9.391Z" fill="#000"/><path d="M405.944 690.149v-97.012l64.991-10.309-.056 97.027-64.935 10.294Zm1.295-96.044v94.622l62.323-9.868.057-94.622-62.38 9.868Z" fill="#000"/><path d="m538.951 572.519-63.946 10.145v95.811l63.946-10.139v-95.817Z" fill="#fff"/><path opacity=".4" d="M533.622 665.142v-91.876l4.596-.626.427 95.746-5.023-3.244Z" fill="#000"/><path opacity=".1" d="M475.446 677.777v-3.208l58.176-9.427 5.023 3.244-63.199 9.391Z" fill="#000"/><path d="M474.365 679.179v-97.012l64.991-10.309-.071 97.026-64.92 10.295Zm1.287-96.045v94.622l62.353-9.889.057-94.622-62.41 9.889Z" fill="#000"/><path d="m607.251 561.556-63.946 10.138v95.817l63.946-10.145v-95.81Z" fill="#fff"/><path opacity=".4" d="M601.915 654.172v-91.869l4.603-.633.427 95.746-5.03-3.244Z" fill="#000"/><path opacity=".1" d="M543.746 666.807v-3.209l58.169-9.426 5.03 3.244-63.199 9.391Z" fill="#000"/><path d="M542.658 668.208v-97.012l64.991-10.309-.064 97.027-64.927 10.294Zm1.295-96.044v94.622l62.345-9.889.064-94.622-62.409 9.889Z" fill="#000"/><path d="m674.733 550.657-63.946 10.138v95.817l63.946-10.138v-95.817Z" fill="#fff"/><path opacity=".4" d="M669.404 643.272v-91.868l4.596-.633.434 95.753-5.03-3.252Z" fill="#000"/><path opacity=".1" d="M611.228 655.915v-3.216l58.176-9.427 5.03 3.252-63.206 9.391Z" fill="#000"/><path d="M610.146 657.316v-97.019l65.028-10.302-.064 97.02-64.964 10.301Zm1.288-96.045v94.622l62.352-9.882.057-94.622-62.409 9.882Z" fill="#000"/><path d="m336.292 714.822-63.946 10.138v95.817l63.946-10.138v-95.817Z" fill="#fff"/><path opacity=".4" d="M330.956 807.438v-91.869l4.596-.633.434 95.753-5.03-3.251Z" fill="#000"/><path d="M271.699 821.482v-97.02l64.991-10.301-.057 97.026-64.934 10.295Zm1.295-96.045v94.622l62.345-9.882.057-94.622-62.402 9.882Z" fill="#000"/><path d="m403.888 704.03-63.946 10.145v95.817l63.946-10.145V704.03Z" fill="#fff"/><path opacity=".4" d="M398.552 796.652v-91.875l4.603-.626.427 95.745-5.03-3.244Z" fill="#000"/><path d="M339.294 810.689v-97.012l64.992-10.309-.057 97.005-64.935 10.316Zm1.295-96.045v94.622l62.345-9.889.064-94.622-62.409 9.889Z" fill="#000"/><path d="m472.28 691.715-63.946 10.138v95.817l63.946-10.138v-95.817Z" fill="#fff"/><path opacity=".4" d="M466.951 784.33v-91.868l4.596-.634.427 95.753-5.023-3.251Z" fill="#000"/><path d="M407.666 798.374v-97.019l64.991-10.302-.057 97.019-64.934 10.302Zm1.294-96.045v94.622l62.353-9.882.056-94.622-62.409 9.882Z" fill="#000"/><path d="m540.694 680.744-63.946 10.138v95.817l63.946-10.138v-95.817Z" fill="#fff"/><path opacity=".4" d="M535.365 773.36v-91.869l4.596-.633.427 95.753-5.023-3.251Z" fill="#000"/><path d="M476.108 787.404v-97.02l64.992-10.302-.064 97.027-64.928 10.295Zm1.288-96.045v94.622l62.352-9.882.057-94.622-62.409 9.882Z" fill="#000"/><path d="m608.994 669.774-63.946 10.138v95.817l63.946-10.138v-95.817Z" fill="#fff"/><path opacity=".4" d="M603.665 762.396v-91.875l4.596-.626.427 95.746-5.023-3.245Z" fill="#000"/><path d="M544.401 776.433v-97.005l64.992-10.309-.057 97.027-64.935 10.287Zm1.295-96.045v94.622l62.345-9.889.064-94.622-62.409 9.889Z" fill="#000"/><path d="m676.476 658.881-63.946 10.138v95.818l63.946-10.146v-95.81Z" fill="#fff"/><path opacity=".4" d="M671.147 751.497v-91.876l4.596-.626.427 95.746-5.023-3.244Z" fill="#000"/><path d="M611.89 765.513v-96.992l64.991-10.308-.064 97.026-64.927 10.274Zm1.287-96.045v94.622l62.353-9.889.056-94.622-62.409 9.889Z" fill="#000"/><path d="M273.271 308.723a7.919 7.919 0 0 0 5.549-.135c1.864-.711 3.017-1.963 2.846-3.073-.171-1.11-1.615-1.864-3.557-1.921a8.113 8.113 0 0 0-5.301 1.693c-1.23 1.096-1.23 2.398 0 3.187.147.097.302.18.463.249Z" fill="#D8D8D8"/><path d="M273.079 309.172a3.914 3.914 0 0 1-.541-.292 2.267 2.267 0 0 1-1.124-1.729 2.756 2.756 0 0 1 1.074-2.227 8.543 8.543 0 0 1 5.635-1.814c2.184.064 3.792 1.003 4.005 2.327.214 1.323-1.045 2.803-3.144 3.607a8.37 8.37 0 0 1-5.905.128Zm.391-.89c1.686.57 3.52.519 5.172-.142 1.608-.619 2.675-1.686 2.533-2.547-.142-.861-1.423-1.465-3.073-1.515a7.699 7.699 0 0 0-4.981 1.572 1.864 1.864 0 0 0-.754 1.423c.035.208.117.406.24.578.124.171.285.312.472.411.129.082.264.154.405.213l-.014.007Z" fill="#000"/><path d="M276.757 308.247c-.498.057-.903.185-.903.277l-.114 4.98 1.814-.22.107-4.98c-.007-.093-.413-.121-.904-.057Z" fill="#F8C509"/><path d="M275.533 313.988a.512.512 0 0 1-.291-.455l.106-5.023c0-.413.413-.633 1.338-.747.975-.121 1.195.078 1.273.149a.535.535 0 0 1 .171.399l-.107 5.023a.48.48 0 0 1-.123.316.48.48 0 0 1-.303.153l-1.807.221a.624.624 0 0 1-.257-.036Zm.783-5.172-.092 4.176.839-.1.093-4.197h-.349c-.166.031-.33.071-.491.121Z" fill="#000"/><path d="M276.757 308.247c-.498.057-.903.185-.903.277l-.114 4.98 1.814-.22.107-4.98c-.007-.093-.413-.121-.904-.057Z" fill="#D8D8D8"/><path d="M277.604 308.254s.043 0 .043.05l-.107 4.98-1.814.22.114-4.98c0-.092.405-.22.903-.277.285-.055.577-.055.861 0v.007Zm.37-.84a2.393 2.393 0 0 0-1.338-.085c-.505.064-1.693.206-1.714 1.167l-.107 5.015a.909.909 0 0 0 .299.712.826.826 0 0 0 .249.163c.15.064.314.088.477.072l1.807-.221a.921.921 0 0 0 .811-.889l.106-5.016a.966.966 0 0 0-.59-.903v-.015Z" fill="#000"/><path d="M286.234 312.587c0-.513-4.39-2.384-9.69-1.744-5.301.641-9.505 3.558-9.52 4.07v1.195c0 .512 4.269.413 9.584-.235 5.314-.647 9.612-1.572 9.626-2.084v-1.202Z" fill="#D8D8D8"/><path d="M266.896 316.663a.926.926 0 0 1-.185-.107.64.64 0 0 1-.199-.455v-1.202c0-1.046 4.845-3.92 9.961-4.539 5.115-.619 9.156.96 9.96 1.679a.756.756 0 0 1 .285.562v1.195c0 .434-.249.818-3.209 1.459-1.828.398-4.269.789-6.837 1.102-1.452.171-8.303.946-9.776.306Zm.612-1.65v.846c.854.178 4.169.121 9.036-.462 5.151-.626 8.537-1.423 9.199-1.793v-.882c-.626-.52-4.425-1.971-9.142-1.423-4.824.612-8.616 3.095-9.093 3.714Z" fill="#000"/><path d="M266.996 316.108c0 .512 4.368 1.267 9.669.626 5.3-.64 9.526-2.433 9.541-2.945.014-.512-4.234-1.338-9.541-.712-5.308.626-9.655 2.519-9.669 3.031Z" fill="#BFBFBF"/><path d="M267.053 316.869a1.378 1.378 0 0 1-.377-.227.714.714 0 0 1-.249-.548c0-1.338 6.189-3.088 10.174-3.557 4.532-.548 9.057-.064 9.917.711a.704.704 0 0 1 .257.555c0 1.331-6.019 3.017-10.039 3.5-4.162.498-8.274.185-9.683-.434Zm18.121-2.988a25.327 25.327 0 0 0-8.438-.22 28.456 28.456 0 0 0-8.694 2.348c2.82.493 5.701.546 8.537.156a29.002 29.002 0 0 0 8.595-2.284Z" fill="#000"/><path d="m274.872 315.546-.669 60.025a14.902 14.902 0 0 0 3.557-.427l.669-60.025c.022-.412-3.543.05-3.557.427Z" fill="#F8C509"/><path d="M273.662 376.069v-.506l.669-60.024c0-1.181 3.514-1.16 3.557-1.16.776 0 1.167.271 1.16.755l-.669 60.017c0 .59-.541.654-1.956.839-.677.1-1.359.162-2.042.185h-.207l-.512-.106Zm1.779-60.26-.655 59.178a29.5 29.5 0 0 0 2.419-.299l.655-59.199c-.818.018-1.63.135-2.419.349v-.029Z" fill="#000"/><path d="m274.872 315.546-.669 60.025a14.902 14.902 0 0 0 3.557-.427l.669-60.025c.022-.412-3.543.05-3.557.427Z" fill="#D8D8D8"/><path d="M273.662 376.069v-.506l.669-60.024c0-1.181 3.514-1.16 3.557-1.16.776 0 1.167.271 1.16.755l-.669 60.017c0 .59-.541.654-1.956.839-.677.1-1.359.162-2.042.185h-.207l-.512-.106Zm1.779-60.26-.655 59.178a29.5 29.5 0 0 0 2.419-.299l.655-59.199c-.818.018-1.63.135-2.419.349v-.029Z" fill="#000"/><path d="m275.96 371.871.605-56.915c-.84.114-1.636.306-1.636.505l-.619 58.046a14.915 14.915 0 0 0 3.557-.434v-1.323a8.128 8.128 0 0 1-1.907.121Z" fill="#BFBFBF"/><path d="m280.698 321.771-7.185.868.057-2.696 7.185-.875-.057 2.703Z" fill="url(#c)"/><path d="M273.662 376.069v-.506l.669-60.024c0-1.181 3.514-1.16 3.557-1.16.776 0 1.167.271 1.16.755l-.669 60.017c0 .59-.541.654-1.956.839-.677.1-1.359.162-2.042.185h-.207l-.512-.106Zm1.779-60.26-.655 59.178a29.5 29.5 0 0 0 2.419-.299l.655-59.199c-.818.018-1.63.135-2.419.349v-.029Z" fill="#000"/><path d="m266.22 319.672-.676 31.382 3.138-.775.647-29.931-3.109-.676Z" fill="#F8C509"/><path d="m265.317 351.581-.128-.078a.609.609 0 0 1-.213-.463l.675-31.382a.58.58 0 0 1 .221-.434.547.547 0 0 1 .47-.113l3.109.675a.574.574 0 0 1 .448.57l-.648 29.937a.561.561 0 0 1-.434.541l-3.13.775a.601.601 0 0 1-.37-.028Zm1.48-31.204-.64 29.945 1.985-.491.626-29.027-1.971-.427Z" fill="#000"/><path d="m266.22 319.672-.676 31.382 3.138-.775.647-29.931-3.109-.676Z" fill="#BFBFBF"/><path d="m265.317 351.581-.128-.078a.609.609 0 0 1-.213-.463l.675-31.382a.58.58 0 0 1 .221-.434.547.547 0 0 1 .47-.113l3.109.675a.574.574 0 0 1 .448.57l-.648 29.937a.561.561 0 0 1-.434.541l-3.13.775a.601.601 0 0 1-.37-.028Zm1.48-31.204-.64 29.945 1.985-.491.626-29.027-1.971-.427Z" fill="#000"/><path d="m260.543 351.019 4.98.035.676-31.382s-5.023.89-5.051 2.362l-.605 28.985Z" fill="#D8D8D8"/><path d="M260.315 351.538a.557.557 0 0 1-.341-.533l.626-28.985c0-1.75 3.877-2.618 5.521-2.909a.58.58 0 0 1 .476.128.597.597 0 0 1 .2.448l-.676 31.382a.572.572 0 0 1-.359.517.573.573 0 0 1-.217.037l-4.981-.035a.5.5 0 0 1-.249-.05Zm5.322-31.168c-2.077.448-3.885 1.216-3.899 1.679l-.633 28.401h3.863l.669-30.08Z" fill="#000"/><path d="m287.827 317.062-.676 31.381-3.116-.021.64-29.93 3.152-1.43Z" fill="#BFBFBF"/><path d="M283.801 348.948a.577.577 0 0 1-.178-.128.534.534 0 0 1-.157-.405l.641-29.938a.556.556 0 0 1 .334-.505l3.152-1.423a.574.574 0 0 1 .55.044c.08.054.145.127.19.212a.582.582 0 0 1 .064.278l-.676 31.382a.548.548 0 0 1-.168.397.549.549 0 0 1-.401.158h-3.124a.823.823 0 0 1-.227-.072Zm1.423-30.087-.626 28.992h1.977l.641-29.881-1.992.889Z" fill="#000"/><path d="m292.181 347.184-5.03 1.252.676-31.382s4.98-.32 4.98 1.146l-.626 28.984Z" fill="#D8D8D8"/><path d="M286.924 348.963a.463.463 0 0 1-.128-.072.577.577 0 0 1-.213-.462l.676-31.382a.558.558 0 0 1 .533-.555c.676-.042 4.112-.213 5.194.826a1.182 1.182 0 0 1 .391.903l-.626 28.963a.56.56 0 0 1-.427.541l-5.03 1.252a.553.553 0 0 1-.37-.014Zm1.466-31.354-.648 30.101 3.878-.967.619-28.543-.043-.057c-.462-.448-2.376-.576-3.806-.534Z" fill="#000"/><path d="m285.85 336.413-18.477 2.234.185-8.609 18.477-2.234-.185 8.609Z" fill="#BFBFBF"/><path d="M267.145 339.166a.526.526 0 0 1-.156-.1.551.551 0 0 1-.192-.419l.185-8.609a.58.58 0 0 1 .498-.555l18.526-2.219a.566.566 0 0 1 .452.146.591.591 0 0 1 .142.198.596.596 0 0 1 .047.239l-.185 8.608a.577.577 0 0 1-.506.555l-18.497 2.234a.606.606 0 0 1-.314-.078Zm.975-8.623-.163 7.456 17.338-2.098.156-7.449-17.331 2.091Z" fill="#000"/><path d="m285.85 336.413-18.477 2.234 1.202.562 16.044-1.942 1.231-.854Z" fill="#DAA415"/><path d="m268.348 339.728-1.203-.555a.568.568 0 0 1-.32-.612.565.565 0 0 1 .491-.476l18.498-2.234a.575.575 0 0 1 .612.736.56.56 0 0 1-.221.302l-1.231.854a.653.653 0 0 1-.256.1l-16.043 1.935a.535.535 0 0 1-.327-.05Z" fill="#000"/><path d="m280.926 349.204-9.149 1.11.669-31.09c0 .996 9.135-.114 9.156-1.102l-.676 31.082Z" fill="#D8D8D8"/><path d="M271.535 350.834a.43.43 0 0 1-.149-.1.556.556 0 0 1-.192-.434l.668-31.083c0-.127.043-.251.121-.352a.571.571 0 0 1 .954.089c1.131.398 7.235-.37 8.124-1.032a.598.598 0 0 1 .548-.377.566.566 0 0 1 .524.363c.027.07.04.145.038.221l-.668 31.09a.581.581 0 0 1-.506.555l-9.163 1.11a.626.626 0 0 1-.299-.05Zm1.423-30.72-.633 29.553 8.018-.968.633-29.517c-1.793.626-6.083 1.223-7.99.967l-.028-.035Z" fill="#000"/><path d="m271.777 350.314 9.156-1.109c0-.356-2.034-.406-4.567-.1-2.533.306-4.589.854-4.589 1.209Z" fill="#F8C509"/><path d="M271.535 350.834a.444.444 0 0 1-.149-.1.573.573 0 0 1-.193-.434c0-.284 0-1.145 5.102-1.764 1.273-.15 4.268-.441 4.98.163a.725.725 0 0 1 .172.235c.04.09.061.187.063.285a.581.581 0 0 1-.505.555l-9.164 1.109a.617.617 0 0 1-.306-.049Z" fill="#000"/><path d="M280.457 458.041c0 .114-10.501 1.338-10.501 1.224 0-.114.754-83.566.754-83.566a7.818 7.818 0 0 1 5.151-2.177 11.252 11.252 0 0 1 5.343.953l-.747 83.566Z" fill="#D8D8D8"/><path d="M278.102 458.646a6.603 6.603 0 0 1-4.774-1.53c0-.114 1.423-77.056 1.48-83.381-1.423.64-4.098 1.964-4.098 1.964l-.754 83.566c0 .106 3.194 1.636 5.855 1.33a8.272 8.272 0 0 0 4.639-2.554.817.817 0 0 0 0-.185 6.528 6.528 0 0 1-2.348.79Z" fill="#BFBFBF"/><path d="M269.386 459.3v-.064c0-1.373.712-82.719.747-83.544v-.221l.15-.164a8.35 8.35 0 0 1 5.556-2.354c1.933-.129 3.869.22 5.635 1.017a.587.587 0 0 1 .299.512c-.121 13.966-.747 83.516-.747 83.573 0 .626 0 1.964-5.443 2.561-3.472.378-3.813-.156-4.383-.17l-.967-.32a1.225 1.225 0 0 1-.847-.826Zm1.886-83.103c-.086 9.775-.648 72.218-.712 81.816 0 .341.32.419.626.576 1.786.918 5.891.975 8.061-.448.331-.28.563-.659.662-1.082.085-8.686.668-73.99.711-81.816a.562.562 0 0 0-.384-.54 12.216 12.216 0 0 0-4.368-.605 7.35 7.35 0 0 0-4.397 1.672.564.564 0 0 0-.199.427Z" fill="#000"/><path d="M273.606 272.959a7.9 7.9 0 0 0 5.542-.135c1.864-.711 3.017-1.963 2.846-3.08-.171-1.117-1.615-1.857-3.557-1.921a8.16 8.16 0 0 0-5.301 1.693c-1.231 1.096-1.223 2.405 0 3.187.151.097.307.182.47.256Z" fill="#D8D8D8"/><path d="M273.406 273.4a4.802 4.802 0 0 1-.541-.284 2.292 2.292 0 0 1-1.124-1.729 2.791 2.791 0 0 1 1.082-2.234 8.59 8.59 0 0 1 5.634-1.814c2.185.064 3.792 1.003 4.006 2.326.213 1.324-1.039 2.81-3.145 3.614a8.395 8.395 0 0 1-5.912.121Zm.391-.889a7.465 7.465 0 0 0 5.18-.142c1.608-.612 2.668-1.686 2.533-2.547-.136-.861-1.423-1.466-3.081-1.516a7.665 7.665 0 0 0-4.98 1.573 1.845 1.845 0 0 0-.761 1.423 1.357 1.357 0 0 0 .711.988c.131.08.266.151.406.214l-.008.007Z" fill="#000"/><path d="M277.077 272.483c-.505.056-.91.185-.91.277l-.107 5.016 1.807-.214.107-5.023c.007-.099-.399-.128-.897-.056Z" fill="#F8C509"/><path d="M275.861 278.217a.395.395 0 0 1-.128-.086.48.48 0 0 1-.164-.37l.114-5.015c0-.42.406-.641 1.331-.754.974-.114 1.195.078 1.273.156a.55.55 0 0 1 .178.399l-.107 5.015a.491.491 0 0 1-.427.47l-1.814.22a.45.45 0 0 1-.256-.035Zm.783-5.172-.086 4.176.833-.1.092-4.19a2.246 2.246 0 0 0-.348 0 3.398 3.398 0 0 0-.491.114Z" fill="#000"/><path d="M277.077 272.483c-.505.056-.91.185-.91.277l-.107 5.016 1.807-.214.107-5.023c.007-.099-.399-.128-.897-.056Z" fill="#D8D8D8"/><path d="M277.931 272.483s.05 0 .043.042l-.107 5.023-1.807.213.107-5.015c0-.093.405-.221.91-.278.282-.059.573-.059.854 0v.015Zm.37-.854a2.39 2.39 0 0 0-1.337-.086c-.506.064-1.694.207-1.715 1.167l-.107 5.023a.903.903 0 0 0 .14.513.9.9 0 0 0 .408.341c.15.066.314.09.477.071l1.814-.221a.916.916 0 0 0 .804-.889l.107-4.98a.98.98 0 0 0-.591-.904v-.035Z" fill="#000"/><path d="M286.561 276.822c0-.519-4.389-2.39-9.69-1.75-5.3.641-9.505 3.557-9.519 4.07v1.195c0 .519 4.269.412 9.583-.228 5.315-.64 9.612-1.579 9.619-2.091l.007-1.196Z" fill="#D8D8D8"/><path d="M267.231 280.899a.642.642 0 0 1-.185-.114.6.6 0 0 1-.206-.455v-1.203c0-1.038 4.845-3.92 9.96-4.531 5.116-.612 9.15.953 9.961 1.679a.705.705 0 0 1 .277.554v1.196c0 .441-.249.825-3.209 1.465-1.828.399-4.268.79-6.837 1.103-1.444.171-8.295.953-9.761.306Zm.605-1.651v.84c.847.178 4.162.128 9.028-.463 5.158-.626 8.538-1.422 9.207-1.792v-.883c-.627-.519-4.426-1.963-9.143-1.422-4.845.611-8.615 3.094-9.092 3.72Z" fill="#000"/><path d="M267.331 280.308c0 .52 4.361 1.267 9.661.627 5.301-.641 9.534-2.434 9.541-2.946.007-.512-4.233-1.337-9.541-.711-5.307.626-9.654 2.547-9.661 3.03Z" fill="#BFBFBF"/><path d="M267.381 281.098a1.538 1.538 0 0 1-.378-.22.714.714 0 0 1-.249-.548c0-1.345 6.19-3.095 10.174-3.557 4.532-.555 9.057-.071 9.925.711a.716.716 0 0 1 .256.555c-.035 1.33-6.019 3.009-10.046 3.5-4.162.491-8.274.192-9.682-.441Zm18.12-2.988a25.326 25.326 0 0 0-8.438-.22 28.707 28.707 0 0 0-8.694 2.347c2.821.497 5.701.55 8.538.157a28.761 28.761 0 0 0 8.594-2.284Z" fill="#000"/><path d="m275.206 279.782-.668 60.024a14.915 14.915 0 0 0 3.557-.434l.669-60.024c.014-.406-3.551.021-3.558.434Z" fill="#F8C509"/><path d="M273.99 340.297v-.505l.669-60.024c0-1.174 3.514-1.153 3.557-1.153.775 0 1.167.27 1.159.747l-.704 59.996c0 .591-.541.662-1.949.847-.68.094-1.364.154-2.049.178h-.207l-.476-.086Zm1.778-60.223-.654 59.177a29.49 29.49 0 0 0 2.419-.305l.661-59.193a9.745 9.745 0 0 0-2.426.321Z" fill="#000"/><path d="m275.206 279.782-.668 60.024a14.915 14.915 0 0 0 3.557-.434l.669-60.024c.014-.406-3.551.021-3.558.434Z" fill="#D8D8D8"/><path d="M273.99 340.297v-.505l.669-60.024c0-1.174 3.514-1.153 3.557-1.153.775 0 1.167.27 1.159.747l-.704 59.996c0 .591-.541.662-1.949.847-.68.094-1.364.154-2.049.178h-.207l-.476-.086Zm1.778-60.223-.654 59.177a29.49 29.49 0 0 0 2.419-.305l.661-59.193a9.745 9.745 0 0 0-2.426.321Z" fill="#000"/><path d="m276.288 336.107.605-56.951c-.84.114-1.63.313-1.637.505l-.633 58.075a14.902 14.902 0 0 0 3.557-.427v-1.33a8.389 8.389 0 0 1-1.892.128Z" fill="#BFBFBF"/><path d="m281.026 286-7.186.868.057-2.696 7.186-.868-.057 2.696Z" fill="url(#d)"/><path d="M273.99 340.297v-.505l.669-60.024c0-1.174 3.514-1.153 3.557-1.153.775 0 1.167.27 1.159.747l-.704 59.996c0 .591-.541.662-1.949.847-.68.094-1.364.154-2.049.178h-.207l-.476-.086Zm1.778-60.223-.654 59.177a29.49 29.49 0 0 0 2.419-.305l.661-59.193a9.745 9.745 0 0 0-2.426.321Z" fill="#000"/><path d="m266.548 283.901-.669 31.389 3.13-.783.648-29.93-3.109-.676Z" fill="#F8C509"/><path d="M265.644 315.809a.59.59 0 0 1-.341-.533l.711-31.382a.6.6 0 0 1 .221-.441.562.562 0 0 1 .476-.107l3.102.712a.568.568 0 0 1 .449.569l-.641 29.93a.564.564 0 0 1-.434.541l-3.137.775a.545.545 0 0 1-.406-.064Zm1.466-31.232-.648 29.945 1.985-.491.627-29.027-1.964-.427Z" fill="#000"/><path d="m266.548 283.901-.669 31.389 3.13-.783.648-29.93-3.109-.676Z" fill="#BFBFBF"/><path d="M265.644 315.809a.59.59 0 0 1-.341-.533l.711-31.382a.6.6 0 0 1 .221-.441.562.562 0 0 1 .476-.107l3.102.712a.568.568 0 0 1 .449.569l-.641 29.93a.564.564 0 0 1-.434.541l-3.137.775a.545.545 0 0 1-.406-.064Zm1.466-31.232-.648 29.945 1.985-.491.627-29.027-1.964-.427Z" fill="#000"/><path d="m260.871 315.247 4.98.043.711-31.389s-5.023.897-5.058 2.369l-.633 28.977Z" fill="#D8D8D8"/><path d="M260.643 315.774a.504.504 0 0 1-.178-.128.576.576 0 0 1-.164-.406l.626-28.984c.036-1.75 3.878-2.625 5.528-2.917a.598.598 0 0 1 .47.128.592.592 0 0 1 .199.448l-.676 31.382a.576.576 0 0 1-.576.562l-4.98-.035a.848.848 0 0 1-.249-.05Zm5.321-31.197c-2.077.455-3.884 1.217-3.898 1.679l-.612 28.408h3.863l.647-30.087Z" fill="#000"/><path d="m288.155 281.29-.676 31.382-3.116-.014.647-29.938 3.145-1.43Z" fill="#BFBFBF"/><path d="M284.135 313.177a.54.54 0 0 1-.178-.121.58.58 0 0 1-.163-.413l.64-29.937a.579.579 0 0 1 .334-.505l3.152-1.423a.585.585 0 0 1 .555.043.573.573 0 0 1 .256.49l-.676 31.382a.577.577 0 0 1-.576.562h-3.116a.612.612 0 0 1-.228-.078Zm1.423-30.087-.626 28.998h1.978l.64-29.916-1.992.918Z" fill="#000"/><path d="m292.509 311.427-5.03 1.245.676-31.382s5.016-.32 4.98 1.153l-.626 28.984Z" fill="#D8D8D8"/><path d="m287.251 313.198-.128-.078a.586.586 0 0 1-.213-.455l.711-31.389a.577.577 0 0 1 .534-.555c.676-.043 4.119-.206 5.201.825a1.242 1.242 0 0 1 .384.911l-.619 28.977a.562.562 0 0 1-.434.541l-5.03 1.252a.545.545 0 0 1-.406-.029Zm1.466-31.36-.648 30.101 3.885-.967.612-28.543-.043-.057c-.462-.449-2.376-.577-3.806-.534Z" fill="#000"/><path d="m286.184 300.641-18.484 2.234.185-8.608 18.484-2.234-.185 8.608Z" fill="#BFBFBF"/><path d="M267.509 303.402a.697.697 0 0 1-.157-.1.59.59 0 0 1-.185-.434l.185-8.608a.574.574 0 0 1 .505-.555l18.498-2.234a.57.57 0 0 1 .455.142.583.583 0 0 1 .185.434l-.185 8.609a.58.58 0 0 1-.149.371.582.582 0 0 1-.356.184l-18.498 2.234a.608.608 0 0 1-.298-.043Zm.974-8.623-.156 7.449 17.331-2.092.156-7.456-17.331 2.099Z" fill="#000"/><path d="m286.184 300.641-18.484 2.234 1.203.562 16.043-1.942 1.238-.854Z" fill="#DAA415"/><path d="m268.675 303.957-1.209-.562a.574.574 0 0 1-.321-.608.57.57 0 0 1 .498-.474l18.498-2.234a.571.571 0 0 1 .392 1.032l-1.231.854a.567.567 0 0 1-.256.099l-16.044 1.943a.624.624 0 0 1-.327-.05Z" fill="#000"/><path d="m281.261 313.44-9.164 1.103.669-31.083c0 .989 9.142-.121 9.164-1.11l-.669 31.09Z" fill="#D8D8D8"/><path d="M271.862 315.069a.702.702 0 0 1-.149-.099.61.61 0 0 1-.192-.434l.669-31.09a.577.577 0 0 1 .171-.401.579.579 0 0 1 .405-.161.575.575 0 0 1 .491.299c1.138.398 7.235-.37 8.125-1.032a.58.58 0 0 1 .642-.348.576.576 0 0 1 .468.561l-.669 31.083a.572.572 0 0 1-.505.555l-9.164 1.11a.544.544 0 0 1-.292-.043Zm1.423-30.727-.633 29.561 8.018-.975.634-29.518c-1.793.626-6.076 1.224-7.99.932h-.029Z" fill="#000"/><path d="m272.097 314.543 9.164-1.103c0-.355-2.042-.412-4.568-.106-2.525.305-4.589.853-4.596 1.209Z" fill="#F8C509"/><path d="M271.862 315.07a.589.589 0 0 1-.341-.534c0-.285 0-1.153 5.101-1.764 1.274-.157 4.312-.449 4.98.156a.703.703 0 0 1 .228.519.57.57 0 0 1-.505.555l-9.164 1.11a.54.54 0 0 1-.299-.042Z" fill="#000"/><path d="M280.784 422.277c0 .114-10.501 1.33-10.501 1.223l.783-83.573a7.828 7.828 0 0 1 5.151-2.177 11.24 11.24 0 0 1 5.343.954l-.776 83.573Z" fill="#D8D8D8"/><path d="M278.429 422.874a6.484 6.484 0 0 1-4.766-1.529c0-.107 1.423-77.057 1.479-83.374-1.458.64-4.105 1.956-4.105 1.956s-.754 83.46-.754 83.574c0 .113 3.195 1.636 5.856 1.323a8.272 8.272 0 0 0 4.645-2.547v-.185a6.608 6.608 0 0 1-2.355.782Z" fill="#BFBFBF"/><path d="M269.714 423.536v-.064c0-1.373.711-82.719.754-83.552v-.22l.149-.164a8.354 8.354 0 0 1 5.557-2.355c1.934-.128 3.87.223 5.635 1.025a.562.562 0 0 1 .298.505c-.128 13.944-.754 83.516-.754 83.573 0 .619 0 1.956-5.442 2.554-3.472.384-3.814-.156-4.383-.164l-.967-.327a1.203 1.203 0 0 1-.847-.811Zm1.892-83.111c-.092 9.776-.654 72.226-.711 81.816 0 .342.327.413.626.569 1.793.925 5.891.975 8.068-.441.325-.285.556-.662.662-1.081.078-8.687.661-73.99.711-81.852a.556.556 0 0 0-.384-.54 12.446 12.446 0 0 0-4.369-.598 7.31 7.31 0 0 0-4.432 1.7.576.576 0 0 0-.132.195.576.576 0 0 0-.039.232Z" fill="#000"/><path d="M277.252 308.789c2.533-.459 4.39-1.907 4.15-3.233-.241-1.326-2.488-2.028-5.021-1.569-2.532.459-4.39 1.906-4.15 3.233.241 1.326 2.489 2.028 5.021 1.569Z" fill="red"/><path opacity=".2" d="M276.835 349.553c23.851 0 43.186-19.334 43.186-43.184 0-23.851-19.335-43.185-43.186-43.185-23.85 0-43.185 19.334-43.185 43.185 0 23.85 19.335 43.184 43.185 43.184Z" fill="url(#e)"/><path opacity=".25" d="M1137.17 151.687c-4.64 3.92-9.63 7.527-12.61 13.097l14.15-.889-1.54-12.208Zm28.2 40.929a2.94 2.94 0 0 1-.39.1 1.938 1.938 0 0 1-2-.797l-.82.761-1.42 2.27c-2.57 4.588-2.25 7.42 4.32 6.872 1.7-.135 3.68-.057 4.56 1.779.93-.676 1.81-1.487 2.74-2.135l-6.8-8.907-.19.057Zm32.8-5.983c-4.14 3.125-8.7 6.289-13.68 9.49l18.59-7.69c-.53.144-1.08.192-1.62.142a4.571 4.571 0 0 1-1.86-.61 4.489 4.489 0 0 1-1.43-1.332Zm200.03 33.359a5.4 5.4 0 0 0-.21-.498c-.27-.661-.54-1.302-.86-1.892-.16-.29-.33-.57-.52-.84a4.828 4.828 0 0 0-.61-.711 2.95 2.95 0 0 0-.35-.306 4.21 4.21 0 0 0-1.83-.832 7.08 7.08 0 0 0-.59-.086 6.21 6.21 0 0 0-.64 0 40.729 40.729 0 0 1-6.75-.569 37.164 37.164 0 0 1-4.27-.96 38.282 38.282 0 0 1-5.08-1.857 20.66 20.66 0 0 1-1.47-.712c-.71-.348-1.42-.711-2.13-1.117a66.23 66.23 0 0 1-2.14-1.259c-.71-.441-1.42-.939-2.13-1.423a52.623 52.623 0 0 1-3.68-2.881c-1.2-1.017-2.37-2.134-3.51-3.258a43.695 43.695 0 0 1-4.7-5.493c-.46-.633-.9-1.273-1.31-1.928a42.902 42.902 0 0 1-2.25-3.991c-3.32-6.801-4.55-14.343-3.8-22.474.31-3.351.56-5.45.28-6.859a3.523 3.523 0 0 0-.31-.946 3.767 3.767 0 0 0-.19-.327 3.28 3.28 0 0 0-.88-.818 4.57 4.57 0 0 0-.67-.356 8.5 8.5 0 0 0-.81-.327c-.3-.107-.63-.207-.98-.306-.36-.1-.93-.249-1.47-.385l-1.78-.405-.81-.178c-.47-.107-.94-.22-1.42-.341l-1.38-.356c-.92-.242-1.82-.484-2.74-.712a23.016 23.016 0 0 0-3.72-.554c-.65-.043-1.3-.043-1.95 0-.69.043-1.37.133-2.05.27-.72.159-1.43.363-2.13.612-.77.276-1.56.513-2.35.711a20.597 20.597 0 0 1-14.12-1.423l-.96-.498c-.62-.353-1.24-.737-1.82-1.152a21.098 21.098 0 0 1-4.05-3.693c-.51-.569-.98-1.165-1.43-1.785a25.634 25.634 0 0 1-3.55-7.471c-.17-.61-.41-1.2-.71-1.757-.2-.372-.47-.698-.8-.953-.07-.049-.13-.092-.21-.128-.75.306-1.51.612-2.27.932-8.09 3.453-16.19 6.913-24.29 10.38-8.09 3.467-16.18 6.943-24.26 10.43-1.93.825-3.85 1.664-5.77 2.497-7.7 3.351-15.38 6.737-23.08 10.067l-.96.412c-3.08 3.078-6.56 6.244-10.44 9.498a4.589 4.589 0 0 1 1.11 3.774 4.564 4.564 0 0 1-.76 1.871c-.38.56-.89 1.025-1.48 1.363 7.9-3.259 15.8-6.543 23.68-9.854 18.86-7.961 37.63-16.121 56.39-24.288 3.7-1.608 5.91-1.537 8.45 1.871 5.3 7.114 12.9 11.119 22.94 10.671 2.04-.092 4.19.164 5.54 1.694 5.99 6.787 14.6 8.366 23.57 8.914 3.52.213 3.85 1.643 2.49 3.87-2.96 4.831-3.99 10.096-5.16 15.275-3.05 13.467.71 25.192 9.6 35.351 8.29 9.484 19.72 13.788 32.82 14.941 5.22.462 8.16 2.426 9.6 7.299 3.42 11.582 40.55 33.232 53.36 35.224 4.18-15.183 28.14-24.04 32.32-39.222-1.77-.491-5.48-2.227-10.22-4.703-1.16.27-2.34.527-3.56.776a87.175 87.175 0 0 1-21.41 7.52c-15.85-9.349-44.38-28.608-46.37-33.339Z" fill="#D9674D"/><path opacity=".25" d="M1140.97 163.753c.13-.805.46-1.564.96-2.213l-3.1-4.048a214.192 214.192 0 0 1 26.89-18.007c.61-.562 1.22-1.117 1.83-1.686h-.19a2.328 2.328 0 0 1-1.23-.496 2.244 2.244 0 0 1-.74-1.091c-.14-.43-.15-.89-.02-1.323.12-.433.37-.82.71-1.112.34-.293.77-.478 1.21-.533.45-.054.9.024 1.31.225.4.202.73.518.96.908.22.391.33.839.3 1.288l2.22-2.049c7.22-6.68 14.23-13.581 21.52-20.198 17.02-15.467 34.19-30.777 51.22-46.244 1.93-1.764 4.09-3.984.81-6.979-11.84-10.85-15.28-33.288 1.31-47.211 2.64-2.206 2.85-4.134 1.29-6.666-3.63-5.891-4.41-12.643-5.38-19.21-.47-3.272-1.63-5.044-4.4-6.267-18.66-8.189-29.41-29.817-23.75-49.46 1.02-3.557.39-5.542-3.65-6.296-1.26-.235-2.49-.52-3.7-.832 0 0-10.67 11.724-30 5.812 0 0-18.83 19.102-36.04 3.671 0 0-15.95 12.607-30.87 4.731l6.09 48.457c14.33 1.672 20.89-10.345 20.89-10.345 17.28 21.692 54.07-2.781 54.07-2.781 1.2 7.463 3.99 14.406 9.45 20.51 7.07 7.869 15.97 12.138 25.81 14.578 5.77 1.423 3.88 6.524 5.82 9.732 1.42 2.377-.78 3.558-2.53 4.753-17.49 11.853-18.5 30.215-9.7 44.387 2.5 4.02 1.78 6.68-1.42 9-8.3 6.061-15.03 13.794-22.58 20.631a7144.66 7144.66 0 0 0-56.65 52.021c-.82.776-1.68 1.515-2.56 2.248l1.54 12.209 2.26-.143.04.029Z" fill="#D9674D"/><path d="M1110.41-61.554c14.94 7.876 30.86-4.731 30.86-4.731 17.22 15.431 36.04-3.671 36.04-3.671 19.36 5.926 30.03-5.813 30.03-5.813 1.21.313 2.44.598 3.7.833 4.05.754 4.68 2.725 3.65 6.296-5.69 19.643 5.1 41.264 23.75 49.46 2.77 1.223 3.93 2.995 4.41 6.267.96 6.567 1.74 13.319 5.37 19.21 1.57 2.532 1.35 4.46-1.28 6.666-16.6 13.922-13.16 36.361-1.31 47.21 3.27 2.996 1.12 5.216-.81 6.98-17 15.502-34.15 30.813-51.23 46.279-7.28 6.617-14.3 13.518-21.51 20.198l-2.23 2.049v.064c-.05.571-.32 1.1-.75 1.481s-.98.587-1.55.575c-.62.569-1.23 1.124-1.84 1.686 21.17-12.016 51.02-24.082 75.05-14.99 0 0 1.74 19.629-23.87 45.846l15.02-6.723 5.22-2.313a10992.67 10992.67 0 0 1 43.87-19.251c1.02-.441 2.05-.868 3.08-1.295 3.09-1.259 6.22-2.447 9.29-3.764.46-.203.94-.353 1.43-.448.25-.048.51-.063.77-.042.3.017.59.102.86.249l1.13-.47c3.43-1.373 6.88-2.668 10.28-4.091.5-.215 1.02-.382 1.55-.498.28-.053.56-.077.84-.071.41.008.81.131 1.16.356.35.24.64.559.84.932.31.554.55 1.144.71 1.757a23.757 23.757 0 0 0 3.68 7.435 21.372 21.372 0 0 0 3.95 4.069c.59.464 1.2.899 1.83 1.302a21.798 21.798 0 0 0 2.99 1.572 23.861 23.861 0 0 0 15.4.996c.85-.213 1.72-.469 2.59-.775.77-.288 1.57-.525 2.38-.712.74-.159 1.49-.273 2.24-.341.71-.064 1.42-.085 2.13-.064 1.36.04 2.72.19 4.05.448 1 .178 1.98.391 2.98.612l1.49.32 1.52.292.88.156 1.93.356c.59.121 1.12.228 1.6.341.49.114.72.185 1.06.278a7.33 7.33 0 0 1 1.6.647c.12.073.24.154.36.242.22.155.41.343.57.555.08.105.14.214.21.327.15.296.25.613.31.939.26 1.423-.09 3.558-.53 6.944-1.07 8.239.05 15.823 3.47 22.589a35.755 35.755 0 0 0 3.7 5.869 42.58 42.58 0 0 0 4.98 5.407 59.089 59.089 0 0 0 3.75 3.18 53.55 53.55 0 0 0 3.93 2.796c.75.484 1.52.946 2.31 1.423.78.477 1.51.825 2.28 1.209.77.385 1.51.712 2.28 1.06.52.228 1.04.441 1.58.641 1.79.697 3.62 1.272 5.49 1.721 1.52.362 3.06.642 4.61.84 2.44.313 4.91.435 7.38.363h.71c.23 0 .43.042.63.071.71.103 1.39.371 1.98.782.13.093.26.2.38.306.23.217.45.455.64.712.2.263.37.541.53.832.33.611.63 1.241.89 1.885l.21.499c2.59 6.025 9.6 39.684 42.22 33.75 1.35-.241 2.68-.495 3.97-.761 80.86-42.053-14.23-196.237 4.43-277.605.19-.818-8.18-36.995-20.42-88.674l-341.65 42.893 1.97 16.05Zm30.56 225.307 2.54-.135-1.58-2.078c-.5.649-.83 1.408-.96 2.213Zm24.57 28.735-1.88-2.462-.84 1.686c.05.073.1.142.15.207l.43-.399a2.072 2.072 0 0 0 2.14.968Z" fill="#FEFEFE"/><path d="M1164.97 192.716c.13-.024.26-.057.38-.1l.22-.085v-.043c-.41.072-.84.018-1.22-.154-.38-.173-.7-.456-.92-.814l-.42.399c.21.309.51.549.86.691.35.141.73.178 1.1.106Zm254.88 20.084-.21-.498c-.26-.645-.56-1.275-.89-1.886a6.73 6.73 0 0 0-.54-.832 4.791 4.791 0 0 0-1.01-1.018 4.632 4.632 0 0 0-1.98-.782c-.2 0-.41-.057-.63-.071-.23-.014-.46 0-.72 0a47.15 47.15 0 0 1-7.37-.363 42.534 42.534 0 0 1-10.11-2.561c-.53-.199-1.05-.413-1.58-.641-.76-.327-1.53-.711-2.27-1.06-.75-.348-1.54-.782-2.29-1.209-.74-.427-1.55-.911-2.3-1.423-1.35-.868-2.66-1.8-3.94-2.796a61.862 61.862 0 0 1-3.74-3.18 42.512 42.512 0 0 1-4.98-5.407c-.48-.626-.94-1.259-1.38-1.907a37.473 37.473 0 0 1-2.33-3.962c-3.42-6.766-4.53-14.35-3.46-22.589.44-3.393.78-5.521.53-6.943a3.482 3.482 0 0 0-.32-.94 3.857 3.857 0 0 0-.2-.327 2.8 2.8 0 0 0-.57-.555 5.4 5.4 0 0 0-.36-.242 5.79 5.79 0 0 0-.72-.341 12.55 12.55 0 0 0-.88-.306c-.32-.1-.71-.185-1.06-.277-.35-.093-1.02-.221-1.6-.342l-1.93-.356-.88-.156-1.52-.292-1.5-.32a69.46 69.46 0 0 0-2.97-.612 25.326 25.326 0 0 0-4.05-.448c-.71-.021-1.42 0-2.13.064-.76.068-1.5.182-2.24.341-.81.187-1.61.425-2.39.712-.87.306-1.73.562-2.59.775a23.836 23.836 0 0 1-15.39-.996c-.35-.147-.7-.303-1.03-.469a21.63 21.63 0 0 1-3.8-2.405 21.858 21.858 0 0 1-3.94-4.069 23.543 23.543 0 0 1-3.68-7.435 8.419 8.419 0 0 0-.71-1.757 2.755 2.755 0 0 0-.84-.932 2.232 2.232 0 0 0-1.16-.356c-.29-.006-.57.018-.84.071-.54.116-1.05.283-1.55.498-3.4 1.423-6.86 2.718-10.28 4.091l-1.14.47c.08.035.15.078.21.128.33.255.6.58.8.953.3.557.54 1.146.71 1.757a25.913 25.913 0 0 0 3.56 7.47c.44.621.91 1.217 1.42 1.786.72.842 1.5 1.63 2.33 2.355a22.7 22.7 0 0 0 1.72 1.337c.59.415 1.2.8 1.83 1.153l.96.498a20.575 20.575 0 0 0 14.11 1.423c.8-.198 1.58-.435 2.35-.712.7-.248 1.41-.453 2.13-.611a15.26 15.26 0 0 1 4-.271c1.26.083 2.5.269 3.72.555.92.207 1.82.448 2.74.712l1.38.355c.46.121.93.235 1.42.342l.81.178 1.78.405c.54.135 1.03.256 1.47.384.44.128.71.2.98.306.27.107.57.214.81.328a4.033 4.033 0 0 1 1.01.604c.21.165.39.356.54.569.07.107.13.214.2.328.14.3.24.618.3.946.28 1.423 0 3.507-.28 6.858-.75 8.132.48 15.652 3.8 22.475a43.031 43.031 0 0 0 2.25 3.991c.41.654.86 1.295 1.31 1.928a45.332 45.332 0 0 0 4.7 5.492 59.074 59.074 0 0 0 3.51 3.259 52.87 52.87 0 0 0 3.68 2.881c.71.505 1.42.982 2.13 1.423.72.441 1.43.861 2.14 1.259.71.399 1.42.769 2.13 1.117.49.235.98.463 1.47.712 1.65.735 3.34 1.356 5.08 1.856 1.4.403 2.83.724 4.27.961 2.23.376 4.49.567 6.76.569.21-.011.42-.011.64 0 .2 0 .39.05.58.085.67.127 1.3.413 1.83.833.13.094.24.196.35.306.23.219.43.457.62.711.18.27.35.55.51.84.32.59.59 1.23.87 1.892.07.164.14.334.2.498 1.99 4.731 30.52 23.99 46.43 33.317a87.32 87.32 0 0 0 21.41-7.52c-1.3.266-2.62.519-3.97.761-32.64 5.941-39.65-27.718-42.24-33.743Z" fill="#FEFEFE"/><path d="m1172.37 201.438 1.07 1.423c3.91-2.248 7.58-4.489 11.05-6.716-3.48 1.423-6.96 2.881-10.43 4.34-.6.252-1.17.572-1.69.953Z" fill="url(#f)"/><path d="M1200.61 177.505c-1.75.749-3.5 1.489-5.25 2.22l-3.72 1.543-3.73 1.537c-2.48 1.025-4.96 2.054-7.44 3.088-2.48 1.038-4.98 2.091-7.4 3.187-2.42 1.096-4.9 2.206-7.32 3.372.14-.029.28-.067.42-.114l.43-.17c2.68-1.257 5.38-2.471 8.1-3.643 2.73-1.171 5.46-2.322 8.19-3.45 2.74-1.124 5.49-2.239 8.23-3.344l4.12-1.665 4.12-1.679c1.95-.797 3.88-1.601 5.82-2.412a936.68 936.68 0 0 0 10.62-4.517l1.11-1.132c-1.94.868-3.87 1.743-5.82 2.597a926.468 926.468 0 0 1-10.48 4.582Z" fill="url(#g)"/><path d="M1173.64 160.857c-9.97 1.572-20.05 2.213-30.14 2.761l20.16 26.408c4.27-8.537 8.55-17.093 12.85-25.669 1.66-3.358.55-4.041-2.87-3.5Z" fill="url(#h)"/><path opacity=".25" d="M1197.38 183.552c.09-.887.43-1.731.98-2.428a4.599 4.599 0 0 1 2.16-1.493 4.577 4.577 0 0 1 4.84 1.31c3.88-3.244 7.36-6.41 10.44-9.498a1033.568 1033.568 0 0 1-16.44 6.93l-4.12 1.679-4.12 1.665c-2.74 1.109-5.49 2.224-8.23 3.343-2.74 1.12-5.48 2.277-8.21 3.472a306.758 306.758 0 0 0-8.1 3.643l-.44.171c-.13.047-.27.085-.42.113l-.15.064 6.8 8.908a8.44 8.44 0 0 1 1.69-.975c3.47-1.423 6.95-2.896 10.43-4.34 4.99-3.201 9.55-6.365 13.68-9.49a4.599 4.599 0 0 1-.79-3.074Z" fill="#D9674D"/><path d="M1197.38 183.552c.09-.887.43-1.731.98-2.428a4.599 4.599 0 0 1 2.16-1.493 4.577 4.577 0 0 1 4.84 1.31c3.88-3.244 7.36-6.41 10.44-9.498a1033.568 1033.568 0 0 1-16.44 6.93l-4.12 1.679-4.12 1.665c-2.74 1.109-5.49 2.224-8.23 3.343-2.74 1.12-5.48 2.277-8.21 3.472a306.758 306.758 0 0 0-8.1 3.643l-.44.171c-.13.047-.27.085-.42.113l-.15.064 6.8 8.908a8.44 8.44 0 0 1 1.69-.975c3.47-1.423 6.95-2.896 10.43-4.34 4.99-3.201 9.55-6.365 13.68-9.49a4.599 4.599 0 0 1-.79-3.074Z" fill="url(#i)"/><path opacity=".25" d="M1144.14 159.285c7.18-6.612 14.38-13.212 21.58-19.8a214.192 214.192 0 0 0-26.89 18.007l3.1 4.048c.5-.649 1.07-1.247 1.69-1.786l.52-.469Z" fill="#D9674D"/><path d="M1144.14 159.285c7.18-6.612 14.38-13.212 21.58-19.8a214.192 214.192 0 0 0-26.89 18.007l3.1 4.048c.5-.649 1.07-1.247 1.69-1.786l.52-.469Z" fill="url(#j)"/><path d="M1165.72 192.467c2.42-1.167 4.86-2.284 7.32-3.373 2.45-1.088 4.92-2.134 7.4-3.187 2.47-1.053 4.98-2.063 7.44-3.088l3.73-1.536 3.72-1.544c1.75-.735 3.51-1.475 5.26-2.22 3.49-1.503 6.98-3.026 10.45-4.567 1.95-.854 3.88-1.729 5.82-2.597 25.65-26.231 23.92-45.853 23.92-45.853-24.03-9.092-53.88 2.974-75.05 14.991a9383.375 9383.375 0 0 1-21.58 19.799l-.52.47c-.62.538-1.19 1.136-1.69 1.785l1.58 2.078c10.08-.548 20.15-1.188 30.13-2.761 3.42-.54 4.55.143 2.85 3.501-4.27 8.537-8.56 17.093-12.85 25.668l1.88 2.462c.06-.005.12-.015.19-.028Zm52-37.372a2.968 2.968 0 0 1 2.54 2.074 2.968 2.968 0 0 1-.95 3.141 2.948 2.948 0 0 1-3.26.332 2.932 2.932 0 0 1-1.21-1.207 2.891 2.891 0 0 1-.34-1.68c.03-.387.14-.762.32-1.106.19-.343.43-.647.73-.895.3-.247.65-.433 1.02-.546.37-.113.76-.152 1.15-.113Zm-9.82-28.458a3.798 3.798 0 0 1 3.26 2.657c.22.716.22 1.481.01 2.198a3.81 3.81 0 0 1-1.22 1.831 3.777 3.777 0 0 1-4.18.425 3.769 3.769 0 0 1-1.56-1.549 3.758 3.758 0 0 1-.01-3.57c.23-.439.55-.828.93-1.145.38-.317.82-.554 1.3-.7.48-.145.98-.195 1.47-.147Zm-20.7 17.501a3.256 3.256 0 0 1 2.79 2.292c.18.615.18 1.271 0 1.886a3.257 3.257 0 0 1-4.64 1.927 3.22 3.22 0 0 1-1.34-1.331c-.3-.566-.43-1.21-.37-1.85a3.27 3.27 0 0 1 1.16-2.223 3.233 3.233 0 0 1 2.4-.736v.035Z" fill="#FEFEFE"/><path d="M1165.72 192.467c2.42-1.167 4.86-2.284 7.32-3.373 2.45-1.088 4.92-2.134 7.4-3.187 2.47-1.053 4.98-2.063 7.44-3.088l3.73-1.536 3.72-1.544c1.75-.735 3.51-1.475 5.26-2.22 3.49-1.503 6.98-3.026 10.45-4.567 1.95-.854 3.88-1.729 5.82-2.597 25.65-26.231 23.92-45.853 23.92-45.853-24.03-9.092-53.88 2.974-75.05 14.991a9383.375 9383.375 0 0 1-21.58 19.799l-.52.47c-.62.538-1.19 1.136-1.69 1.785l1.58 2.078c10.08-.548 20.15-1.188 30.13-2.761 3.42-.54 4.55.143 2.85 3.501-4.27 8.537-8.56 17.093-12.85 25.668l1.88 2.462c.06-.005.12-.015.19-.028Zm52-37.372a2.968 2.968 0 0 1 2.54 2.074 2.968 2.968 0 0 1-.95 3.141 2.948 2.948 0 0 1-3.26.332 2.932 2.932 0 0 1-1.21-1.207 2.891 2.891 0 0 1-.34-1.68c.03-.387.14-.762.32-1.106.19-.343.43-.647.73-.895.3-.247.65-.433 1.02-.546.37-.113.76-.152 1.15-.113Zm-9.82-28.458a3.798 3.798 0 0 1 3.26 2.657c.22.716.22 1.481.01 2.198a3.81 3.81 0 0 1-1.22 1.831 3.777 3.777 0 0 1-4.18.425 3.769 3.769 0 0 1-1.56-1.549 3.758 3.758 0 0 1-.01-3.57c.23-.439.55-.828.93-1.145.38-.317.82-.554 1.3-.7.48-.145.98-.195 1.47-.147Zm-20.7 17.501a3.256 3.256 0 0 1 2.79 2.292c.18.615.18 1.271 0 1.886a3.257 3.257 0 0 1-4.64 1.927 3.22 3.22 0 0 1-1.34-1.331c-.3-.566-.43-1.21-.37-1.85a3.27 3.27 0 0 1 1.16-2.223 3.233 3.233 0 0 1 2.4-.736v.035Z" fill="url(#k)"/><path d="M1165.54 192.488v.043l.16-.064c-.06.009-.11.017-.16.021Z" fill="#FEFEFE"/><path d="M1165.54 192.488v.043l.16-.064c-.06.009-.11.017-.16.021Z" fill="url(#l)"/><path opacity=".4" d="m1204.21 187.977-1.11.456c.39-.1.76-.253 1.11-.456Z" fill="url(#m)"/><path opacity=".25" d="M1206.48 184.449a4.682 4.682 0 0 0-.2-1.86 4.62 4.62 0 0 0-.94-1.619 228.162 228.162 0 0 1-7.17 5.691c.38.546.87 1.002 1.44 1.338a4.64 4.64 0 0 0 1.88.605c.54.05 1.09.001 1.61-.143l1.11-.455c.63-.366 1.17-.88 1.57-1.5.4-.619.64-1.325.7-2.057Z" fill="#D9674D"/><path opacity=".4" d="M1206.48 184.449a4.682 4.682 0 0 0-.2-1.86 4.62 4.62 0 0 0-.94-1.619 228.162 228.162 0 0 1-7.17 5.691c.38.546.87 1.002 1.44 1.338a4.64 4.64 0 0 0 1.88.605c.54.05 1.09.001 1.61-.143l1.11-.455c.63-.366 1.17-.88 1.57-1.5.4-.619.64-1.325.7-2.057Z" fill="url(#n)"/><path opacity=".25" d="M1197.38 183.552c-.1 1.081.19 2.162.81 3.052 2.54-1.897 4.93-3.794 7.17-5.691a4.565 4.565 0 0 0-4.86-1.303c-.84.281-1.59.803-2.15 1.504a4.625 4.625 0 0 0-.97 2.438Z" fill="#D9674D"/><path d="M1197.38 183.552c-.1 1.081.19 2.162.81 3.052 2.54-1.897 4.93-3.794 7.17-5.691a4.565 4.565 0 0 0-4.86-1.303c-.84.281-1.59.803-2.15 1.504a4.625 4.625 0 0 0-.97 2.438Z" fill="url(#o)"/><path opacity=".4" d="M1197.38 183.552c-.1 1.081.19 2.162.81 3.052 2.54-1.897 4.93-3.794 7.17-5.691a4.565 4.565 0 0 0-4.86-1.303c-.84.281-1.59.803-2.15 1.504a4.625 4.625 0 0 0-.97 2.438Z" fill="url(#p)"/><path opacity=".25" d="M1169.86 135.679c.03-.447-.08-.893-.3-1.281a2.33 2.33 0 0 0-.96-.902 2.295 2.295 0 0 0-2.51.308c-.34.291-.58.677-.71 1.108-.12.431-.11.888.02 1.316.14.427.39.806.74 1.088.35.282.77.455 1.22.498h.19l2.31-2.135Z" fill="#D9674D"/><path opacity=".4" d="M1169.86 135.679c.03-.447-.08-.893-.3-1.281a2.33 2.33 0 0 0-.96-.902 2.295 2.295 0 0 0-2.51.308c-.34.291-.58.677-.71 1.108-.12.431-.11.888.02 1.316.14.427.39.806.74 1.088.35.282.77.455 1.22.498h.19l2.31-2.135Z" fill="url(#q)"/><path d="M1169.86 135.743v-.064l-2.31 2.135c.58.011 1.14-.197 1.56-.581.43-.384.7-.917.75-1.49Z" fill="#FEFEFE"/><path opacity=".4" d="M1169.86 135.743v-.064l-2.31 2.135c.58.011 1.14-.197 1.56-.581.43-.384.7-.917.75-1.49Z" fill="url(#r)"/><path d="M1186.58 150.57c.64.061 1.28-.068 1.85-.372a3.273 3.273 0 0 0 1.33-1.336c.3-.568.43-1.212.36-1.851a3.2 3.2 0 0 0-.72-1.742 3.262 3.262 0 0 0-3.46-1.047c-.61.187-1.16.551-1.56 1.048a3.296 3.296 0 0 0-.73 1.742c-.04.426 0 .856.13 1.265.12.41.32.79.6 1.121.27.33.6.604.98.805.38.201.79.326 1.22.367Z" fill="#FEFEFE"/><path d="M1186.58 150.57c.64.061 1.28-.068 1.85-.372a3.273 3.273 0 0 0 1.33-1.336c.3-.568.43-1.212.36-1.851a3.2 3.2 0 0 0-.72-1.742 3.262 3.262 0 0 0-3.46-1.047c-.61.187-1.16.551-1.56 1.048a3.296 3.296 0 0 0-.73 1.742c-.04.426 0 .856.13 1.265.12.41.32.79.6 1.121.27.33.6.604.98.805.38.201.79.326 1.22.367Z" fill="url(#s)"/><path opacity=".4" d="M1186.58 150.57c.64.061 1.28-.068 1.85-.372a3.273 3.273 0 0 0 1.33-1.336c.3-.568.43-1.212.36-1.851a3.2 3.2 0 0 0-.72-1.742 3.262 3.262 0 0 0-3.46-1.047c-.61.187-1.16.551-1.56 1.048a3.296 3.296 0 0 0-.73 1.742c-.04.426 0 .856.13 1.265.12.41.32.79.6 1.121.27.33.6.604.98.805.38.201.79.326 1.22.367Z" fill="url(#t)"/><path d="M1208.09 134.177a3.777 3.777 0 0 0 3.2-4.285 3.775 3.775 0 0 0-4.28-3.207 3.784 3.784 0 1 0 1.08 7.492Z" fill="#FEFEFE"/><path d="M1208.09 134.177a3.777 3.777 0 0 0 3.2-4.285 3.775 3.775 0 0 0-4.28-3.207 3.784 3.784 0 1 0 1.08 7.492Z" fill="url(#u)"/><path opacity=".4" d="M1208.09 134.177a3.777 3.777 0 0 0 3.2-4.285 3.775 3.775 0 0 0-4.28-3.207 3.784 3.784 0 1 0 1.08 7.492Z" fill="url(#v)"/><path d="M1217.16 160.971a2.94 2.94 0 0 0 2.88-1.556c.28-.516.39-1.101.33-1.682a2.95 2.95 0 0 0-3.8-2.525c-.56.171-1.05.504-1.42.956-.37.452-.6 1.003-.65 1.584-.04.387 0 .776.11 1.148.11.371.3.716.55 1.015.24.3.55.547.89.729.34.182.72.294 1.11.331Z" fill="#FEFEFE"/><path d="M1217.16 160.971a2.94 2.94 0 0 0 2.88-1.556c.28-.516.39-1.101.33-1.682a2.95 2.95 0 0 0-3.8-2.525c-.56.171-1.05.504-1.42.956-.37.452-.6 1.003-.65 1.584-.04.387 0 .776.11 1.148.11.371.3.716.55 1.015.24.3.55.547.89.729.34.182.72.294 1.11.331Z" fill="url(#w)"/><path opacity=".4" d="M1217.16 160.971a2.94 2.94 0 0 0 2.88-1.556c.28-.516.39-1.101.33-1.682a2.95 2.95 0 0 0-3.8-2.525c-.56.171-1.05.504-1.42.956-.37.452-.6 1.003-.65 1.584-.04.387 0 .776.11 1.148.11.371.3.716.55 1.015.24.3.55.547.89.729.34.182.72.294 1.11.331Z" fill="url(#x)"/><path d="m1198.39 182.841-28.33-44.914a15.042 15.042 0 0 0-11.07-6.965c-48.2-5.158-101.74 6.738-149.92 37.116-60.006 37.842-97.763 95.604-106.721 153.323a21.567 21.567 0 0 0 15.133 23.997c55.956 16.776 124.348 7.584 184.358-30.257 48.15-30.379 81.96-73.585 98.07-119.302.74-2.141.99-4.423.73-6.674a14.938 14.938 0 0 0-2.25-6.324Z" fill="#F6F6F6"/><path d="M1148.35 128.963a52.608 52.608 0 0 1-7.55-35.703 52.611 52.611 0 0 1 17.51-32.019 7.145 7.145 0 0 0 2.43-4.36 7.177 7.177 0 0 0-1.01-4.889l-.56-.896a7.129 7.129 0 0 0-8.54-2.846 141.22 141.22 0 0 0-53.99 36.555 141.182 141.182 0 0 0-31.8 56.915c28.32-9.349 57.04-13.112 84.34-11.519-.28-.412-.57-.818-.83-1.238Zm48.81 77.355a52.571 52.571 0 0 0 28.96 22.194 52.597 52.597 0 0 0 36.44-1.996 7.17 7.17 0 0 1 8.98 2.675l.56.897a7.152 7.152 0 0 1 1.05 4.643 7.118 7.118 0 0 1-2.12 4.264 141.073 141.073 0 0 1-56.26 33.011 141.104 141.104 0 0 1-65.1 4.176c20.63-21.521 36.41-45.817 46.73-71.144.27.462.49.889.76 1.28ZM917.347 345.363c24.481 7.356 51.353 9.725 78.865 6.915l-66.165-104.881c-14.393 23.613-23.827 48.883-27.747 74.147a21.46 21.46 0 0 0 15.047 23.819Z" fill="#00B5DA"/><path d="M1084.41 272.904c11.3-25.487-.21-55.305-25.7-66.599-25.49-11.295-55.3.211-66.598 25.698-11.295 25.487.211 55.305 25.698 66.599 25.49 11.295 55.31-.211 66.6-25.698Z" fill="#D1D3D4"/><path d="M1080.11 277.683c12.95-24.692 3.42-55.2-21.27-68.141-24.7-12.942-55.2-3.416-68.145 21.275-12.942 24.692-3.416 55.2 21.275 68.141 24.69 12.942 55.2 3.416 68.14-21.275Z" fill="#00B5DA"/><path d="M986.295 342.24a2.95 2.95 0 0 1-.095 3.278 2.959 2.959 0 0 1-3.064 1.168 3.053 3.053 0 0 1-2.22-3.557 2.955 2.955 0 0 1 1.317-1.851 2.99 2.99 0 0 1 1.083-.411 2.985 2.985 0 0 1 1.157.035c.759.19 1.414.67 1.822 1.338Zm-33.652-49.126a2.952 2.952 0 0 1-4.484-1.999 2.934 2.934 0 0 1 .496-2.203c.224-.316.508-.585.836-.792a2.97 2.97 0 0 1 4.077.918 2.96 2.96 0 0 1-.925 4.076Zm47.354-12.756a2.952 2.952 0 0 1-4.069-.925 2.93 2.93 0 0 1-.386-2.225 2.94 2.94 0 0 1 1.303-1.844 2.958 2.958 0 0 1 4.075.925c.42.662.56 1.463.38 2.226a2.932 2.932 0 0 1-1.303 1.843Zm75.363-47.531a2.95 2.95 0 0 1-4.07-.925 2.908 2.908 0 0 1-.38-2.226 2.944 2.944 0 0 1 3.53-2.223 2.95 2.95 0 0 1 2.22 3.529 2.948 2.948 0 0 1-1.3 1.845Zm-107.328 85.992a2.954 2.954 0 0 1-4.45-3.151 2.954 2.954 0 0 1 3.531-2.223 2.949 2.949 0 0 1 2.223 3.531 2.949 2.949 0 0 1-1.304 1.843Zm-31.838-57.25a2.953 2.953 0 0 1-3.152 4.454 2.958 2.958 0 0 1-2.261-2.38 2.95 2.95 0 0 1 1.336-2.999 2.944 2.944 0 0 1 3.284.087c.317.225.586.509.793.838Zm62.345 90.474-67.24-106.652c-.412.669-.804 1.337-1.209 2.006l66.165 104.881 2.284-.235Z" fill="#00A3C4"/><path d="M1069.92 272.339c9.99-19.061 2.63-42.611-16.43-52.602-19.06-9.99-42.61-2.637-52.6 16.424-9.989 19.061-2.636 42.611 16.43 52.602 19.06 9.99 42.61 2.637 52.6-16.424Z" fill="#fff"/><path opacity=".3" d="M1002.44 275.037a39.03 39.03 0 0 0 17.11 14.808 38.96 38.96 0 0 0 42.67-7.322 38.962 38.962 0 0 0-25.79-67.223 38.968 38.968 0 0 0-32.84 16.456 38.864 38.864 0 0 0-6.192 13.888 38.962 38.962 0 0 0-.401 15.198 39.029 39.029 0 0 0 5.443 14.195Zm62.4-39.35a34.838 34.838 0 0 1 5.36 19.484 34.757 34.757 0 0 1-6.38 19.177 34.787 34.787 0 0 1-36.1 13.854 34.801 34.801 0 0 1-10.88-63.386 34.82 34.82 0 0 1 26.26-4.505c9 2.039 16.82 7.569 21.75 15.376h-.01Z" fill="url(#y)"/><path d="M1194.27 166.775c16.01-10.101 26.78-21.797 24.05-26.124-2.73-4.327-17.92.354-33.94 10.455-16.01 10.101-26.78 21.797-24.06 26.124 2.73 4.327 17.93-.354 33.95-10.455Z" fill="#00B5DA"/><path opacity=".1" d="M1203.8 160.397c10.8-6.739 17.72-15.156 15.45-18.799-2.27-3.644-12.87-1.135-23.68 5.604s-17.73 15.155-15.46 18.799c2.28 3.644 12.88 1.135 23.69-5.604Z" fill="#000"/><path opacity=".6" d="M1166.68 138.596c-49.71-3.706-105.11 10.032-155.1 42.324-58.34 37.649-96.666 92.338-109.408 147.347a21.809 21.809 0 0 1 .128-5.087c8.359-57.812 45.533-115.965 105.1-154.447 47.83-30.891 101.26-43.348 149.51-38.71 2.25.228 4.43.962 6.36 2.149a15.02 15.02 0 0 1 4.79 4.702l1.42 2.192c-.92-.242-1.86-.399-2.8-.47Z" fill="#fff"/><path opacity=".1" d="M1155.41 270.049c2.45.328 4.93.598 7.41.819a242.66 242.66 0 0 0 38.8-58.502 53.807 53.807 0 0 1-4.43-6.019c-.26-.42-.5-.847-.76-1.274a225.355 225.355 0 0 1-41.02 64.976Z" fill="#000"/><path opacity=".1" d="M1155.41 270.049c-.84.949-1.68 1.876-2.53 2.782l-.6.641c-.85.917-1.71 1.835-2.58 2.739 1.18.199 2.36.384 3.56.554h.19c1.16.171 2.33.321 3.49.456 20.65 2.441 41.59.284 61.32-6.316a141.05 141.05 0 0 0 52.77-31.86c2.18-2.078 2.52-3.308 2.03-5.962-.26.377-14.09 13.034-22.26 18.184-26.85 16.933-58.44 22.233-88.01 19.622-2.49-.221-4.98-.491-7.42-.818l.04-.022Zm.06-212.892c-18.92 16.306-27.55 42.922-17.36 65.14-24.09.235-46.48 4.347-71.06 12.379-.59 1.715-1.13 3.443-1.65 5.179-.18.619-.38 1.245-.55 1.864 28.31-9.348 57.03-13.112 84.33-11.518-.27-.413-.55-.811-.82-1.231a41.55 41.55 0 0 1-1.11-1.871c-.15-.256-.29-.519-.44-.782-.15-.264-.38-.712-.57-1.046-.18-.335-.35-.712-.52-1.032-.12-.242-.24-.476-.35-.711-.19-.392-.37-.783-.55-1.174a52.59 52.59 0 0 1-3.3-32.776 52.642 52.642 0 0 1 16.82-28.323 7.194 7.194 0 0 0 2.43-4.36 7.177 7.177 0 0 0-1.01-4.889l-.57-.896c-.3-.49-.67-.94-1.09-1.337a7.751 7.751 0 0 1-.31 4.05 7.685 7.685 0 0 1-2.32 3.334Z" fill="#000"/><path d="M1009.84 217.986a2.908 2.908 0 0 1-.38-2.226 2.94 2.94 0 0 1 3.53-2.223 2.987 2.987 0 0 1 2.26 2.379c.06.381.05.773-.03 1.151a3.11 3.11 0 0 1-.47 1.052 2.9 2.9 0 0 1-.84.792 2.95 2.95 0 0 1-4.07-.925Zm47.53 75.363a2.952 2.952 0 1 1 5.38-.924 2.954 2.954 0 0 1-1.3 1.849 2.966 2.966 0 0 1-4.08-.925Zm-14.31-83.352c.09-.381.25-.741.47-1.06.23-.318.51-.589.85-.796a2.94 2.94 0 0 1 2.24-.371c.38.085.74.245 1.06.471.32.226.59.512.79.843.21.331.35.699.41 1.084.07.385.05.779-.03 1.159-.09.38-.25.74-.48 1.058-.22.318-.51.588-.84.795-.33.207-.7.346-1.08.411a2.995 2.995 0 0 1-2.22-.51 2.822 2.822 0 0 1-.79-.843c-.21-.33-.35-.699-.42-1.083a3.01 3.01 0 0 1 .04-1.158Zm-19.68 86.895c.09-.38.25-.74.48-1.058.22-.318.51-.588.84-.795a2.966 2.966 0 0 1 2.24-.374 2.975 2.975 0 0 1 1.86 1.314c.2.331.34.7.41 1.085.06.385.05.779-.04 1.159s-.25.74-.47 1.059c-.23.318-.52.589-.85.796a2.948 2.948 0 0 1-2.24.371 2.956 2.956 0 0 1-1.86-1.314c-.2-.331-.34-.699-.41-1.084-.06-.385-.05-.779.04-1.159Zm56.83-35.835c.38.085.74.246 1.06.471.32.226.59.512.79.843.21.331.35.699.41 1.084.07.385.05.779-.04 1.159-.08.38-.24.74-.47 1.058-.22.318-.51.588-.84.795a2.965 2.965 0 0 1-2.24.374 2.99 2.99 0 0 1-1.06-.471 2.99 2.99 0 0 1-.8-.843c-.21-.331-.35-.7-.41-1.085a3.01 3.01 0 0 1 .04-1.158c.09-.381.25-.741.47-1.06.23-.318.51-.589.84-.796.33-.207.7-.346 1.09-.41.38-.064.78-.051 1.16.039Zm-86.907-19.679a2.96 2.96 0 0 1 1.858 1.313c.207.331.346.7.41 1.085.063.386.049.78-.041 1.16a2.963 2.963 0 0 1-1.314 1.855 2.945 2.945 0 0 1-2.244.371 2.944 2.944 0 0 1-1.855-1.314 2.938 2.938 0 0 1-.371-2.243 2.941 2.941 0 0 1 3.557-2.227Z" fill="#00A3C4"/><path d="M1028.55 241.563c-.08.633.03 1.274.32 1.843.29.568.74 1.039 1.29 1.351a3.225 3.225 0 0 0 3.57-.276c.5-.394.87-.929 1.07-1.535.2-.606.21-1.257.03-1.87a3.155 3.155 0 0 0-1.01-1.572 3.19 3.19 0 0 0-1.71-.744 3.219 3.219 0 0 0-3.56 2.803Zm3.16.712a.299.299 0 0 1-.21-.121.292.292 0 0 1-.07-.235.26.26 0 0 1 .04-.119c.02-.037.05-.07.08-.095a.287.287 0 0 1 .11-.056.325.325 0 0 1 .13-.007c.04.001.08.012.12.031.04.02.08.047.11.081s.05.073.06.116c.01.042.02.087.01.131 0 .044-.02.086-.04.124a.26.26 0 0 1-.09.097.316.316 0 0 1-.25.053Z" fill="#FAFAFB"/><path d="m1026.95 227.569-6.4 4.184a7.222 7.222 0 0 0-2.13 9.96l21.6 33.181a7.21 7.21 0 0 0 4.54 3.12c1.86.4 3.81.046 5.42-.985l6.4-4.184a7.222 7.222 0 0 0 2.13-9.96l-21.6-33.181a7.21 7.21 0 0 0-4.54-3.12 7.236 7.236 0 0 0-5.42.985Zm20.64 27.12a8.298 8.298 0 0 1 4 2.682 8.317 8.317 0 0 1 .9 9.183 8.335 8.335 0 0 1-3.42 3.405 8.293 8.293 0 0 1-9.18-.916 8.32 8.32 0 0 1-2.67-4.012 8.333 8.333 0 0 1 1.54-7.681 8.323 8.323 0 0 1 5.63-2.985c1.09-.103 2.19.01 3.23.332l-.03-.008Zm-7.64-11.731a8.315 8.315 0 0 1-6.02 6.992 8.316 8.316 0 0 1-8.77-2.884 8.37 8.37 0 0 1-1.74-4.495 8.388 8.388 0 0 1 1.05-4.704 8.315 8.315 0 0 1 8.24-4.158c1.09.126 2.14.466 3.09 1a8.255 8.255 0 0 1 2.47 2.111 8.154 8.154 0 0 1 1.47 2.898 8.43 8.43 0 0 1 .24 3.24h-.03Z" fill="#FAFAFB"/><path d="m1027.87 242.673-.34-.1-.19.264-.18.05-.18-.207-.13.292h-.11l-.24-.192-.12.292h-.06l-.28-.221-.18.341h-.11l-.23-.263-.15.37h-.09l-.26-.192-.24.256-.36-.142-.13.363a8.098 8.098 0 0 0 2.23 3.735h.35v-.335h.33v-.327h.4l-.07-.37.41.05v-.285l.36-.17.06-.164.27-.071v-.27l.42-.171.05-.477a4.271 4.271 0 0 1-1.17-2.063l-.06.007Zm11.12 22.176-.31-.121-.15.299-.3-.164-.12.327a8.001 8.001 0 0 0 2.51 3.558l.39.035v-.384l.34-.121-.07-.313.05-.064h.4l-.15-.32c.03-.03.05-.061.07-.093h.39l-.09-.341v-.043h.32l-.08-.306.07-.085h.32l-.11-.256.12-.143.31-.071.05-.348-.05-.043a4.3 4.3 0 0 1-1.42-1.907l-.47-.149-.31.306-.24-.135-.17.22h-.17l-.31.263-.26-.135-.12.392-.3-.221-.14.363Zm5.27.861c.61.187 1.27.19 1.88.007a3.248 3.248 0 0 0 1.56-1.034c.4-.492.65-1.093.72-1.728a3.252 3.252 0 0 0-.36-1.837 3.22 3.22 0 0 0-3.16-1.696c-.63.061-1.23.309-1.73.713-.49.404-.85.945-1.04 1.555a3.3 3.3 0 0 0-.13 1.249c.04.421.17.83.36 1.203.2.374.47.704.8.973.32.269.7.471 1.1.595Zm.64-3.173a.312.312 0 0 1 .15-.189.337.337 0 0 1 .36.03.26.26 0 0 1 .09.097c.02.038.03.08.04.123 0 .044 0 .087-.01.129-.01.042-.04.081-.06.114a.362.362 0 0 1-.11.08.262.262 0 0 1-.12.033.326.326 0 0 1-.13-.019.277.277 0 0 1-.11-.058.271.271 0 0 1-.12-.226c0-.044 0-.088.02-.129v.015Z" fill="#FAFAFB"/><path d="M1023.5 240.951a8.293 8.293 0 0 0 4.16 8.235 8.307 8.307 0 0 0 11.97-4.633c.52-1.56.55-3.237.11-4.819a8.259 8.259 0 0 0-2.58-4.069 8.307 8.307 0 0 0-10.53-.247 8.18 8.18 0 0 0-2.11 2.456 8.389 8.389 0 0 0-1.02 3.077Zm5.56 3.842-.05.477-.41.171v.27l-.27.071-.07.164-.36.171v.284l-.41-.05.08.37h-.4v.328h-.34v.334h-.35a7.996 7.996 0 0 1-2.22-3.735l.13-.363.35.142.24-.256.26.192h.09l.15-.37.23.264h.11l.19-.342.28.221h.05l.12-.292.25.192h.1l.13-.292.18.207.18-.05.19-.263.35.099v.057c.18.784.59 1.5 1.16 2.063l.06-.064Zm5.88-2.447c-.08.633-.33 1.23-.75 1.716a3.208 3.208 0 0 1-4.97-.091 3.107 3.107 0 0 1-.68-1.742c-.05-.635.09-1.271.4-1.826a3.213 3.213 0 0 1 3.19-1.614 3.21 3.21 0 0 1 2.14 1.199c.53.667.77 1.515.67 2.358Zm2.32 17.864a8.337 8.337 0 0 0-.01 4.822 8.406 8.406 0 0 0 2.67 4.014 8.299 8.299 0 0 0 9.18.922 8.333 8.333 0 0 0 3.42-3.404 8.263 8.263 0 0 0 .95-4.727 8.317 8.317 0 0 0-1.84-4.457 8.314 8.314 0 0 0-4.01-2.683 8.258 8.258 0 0 0-3.22-.324 8.314 8.314 0 0 0-5.61 2.984 8.376 8.376 0 0 0-1.53 2.853Zm4.86 1.48c.19-.608.55-1.147 1.05-1.548a3.191 3.191 0 0 1 1.72-.709 3.235 3.235 0 0 1 3.15 1.693c.3.562.42 1.199.36 1.832a3.3 3.3 0 0 1-.72 1.722c-.41.491-.95.85-1.56 1.034a3.224 3.224 0 0 1-2.97-.599c-.33-.269-.6-.599-.79-.973-.2-.373-.32-.782-.36-1.203-.04-.42 0-.845.12-1.249Zm-2.64 2.995.12-.391.25.135.31-.263h.17l.17-.221.24.135.32-.305.46.149a4.38 4.38 0 0 0 1.42 1.907l.05.042-.05.349-.31.071-.12.142.11.256h-.33l-.07.086.08.306h-.32v.042l.09.342h-.39a.457.457 0 0 1-.07.092l.15.321h-.4l-.06.064.08.313-.34.121v.384l-.39-.036a7.993 7.993 0 0 1-2.51-3.557l.12-.327.3.163.15-.298.3.12.16-.37.31.221v.007Z" fill="#211B19"/><path d="M1045.13 262.936c.04.015.09.022.13.019a.367.367 0 0 0 .13-.033.321.321 0 0 0 .16-.194c.01-.042.02-.086.01-.129a.275.275 0 0 0-.04-.124.36.36 0 0 0-.08-.097.401.401 0 0 0-.12-.055.342.342 0 0 0-.25.025.312.312 0 0 0-.15.189.526.526 0 0 0-.02.125c.01.042.02.083.04.12.02.037.05.07.08.097.03.026.07.046.11.057Zm-13.34-21.294a.325.325 0 0 0-.13.007.287.287 0 0 0-.11.056.352.352 0 0 0-.08.095.263.263 0 0 0-.04.12c-.01.063 0 .127.03.184.03.057.07.104.13.135.05.032.12.046.18.042a.354.354 0 0 0 .18-.067c.05-.04.08-.093.1-.153a.395.395 0 0 0 .01-.187.327.327 0 0 0-.1-.157.326.326 0 0 0-.17-.075Z" fill="#211B19"/><path d="m1069.47 246.743-13.45-20.632a34.156 34.156 0 0 0-9.61-4.866l9.73 14.94-6.53 4.268-8.86-13.602a11.727 11.727 0 0 0-16.19-3.422l-6.87 4.467a11.743 11.743 0 0 0-5.05 7.39c-.64 3.035-.06 6.2 1.63 8.803l21.93 33.687a11.698 11.698 0 0 0 7.39 5.053c3.03.641 6.2.055 8.8-1.631l6.86-4.468a11.72 11.72 0 0 0 5.06-7.39c.64-3.034.05-6.199-1.63-8.803l-8.85-13.595 6.53-4.269 9.67 14.869c.39-3.607.2-7.251-.56-10.799Zm-10.95 16.121a7.222 7.222 0 0 1-2.13 9.96l-6.41 4.183a7.22 7.22 0 0 1-5.42.986 7.262 7.262 0 0 1-4.54-3.12l-21.6-33.182a7.23 7.23 0 0 1-.98-5.42 7.224 7.224 0 0 1 3.12-4.54l6.4-4.183a7.24 7.24 0 0 1 5.42-.986c1.87.4 3.5 1.522 4.54 3.12l21.6 33.182Z" fill="#211B19"/><path opacity=".11" d="M1033.44 268.214a28.328 28.328 0 0 1-14.85 4.372 28.369 28.369 0 0 1-14.94-4.088 35.25 35.25 0 0 0 2.32 4.333 34.829 34.829 0 0 0 31.22 16.199 34.822 34.822 0 0 0 29.41-19.294 34.843 34.843 0 0 0 3.54-17.872 34.779 34.779 0 0 0-5.98-17.213 34.743 34.743 0 0 0-13.85-11.835 34.81 34.81 0 0 0-17.93-3.215 28.319 28.319 0 0 1 10.3 10.12 28.333 28.333 0 0 1 3.99 13.884c.1 4.895-1.06 9.734-3.37 14.046a28.413 28.413 0 0 1-9.86 10.563Z" fill="#0CFFE1"/><path d="M205.611 133.203a16.934 16.934 0 0 1-1.387 6.83 18.035 18.035 0 0 1-3.785 5.578 17.842 17.842 0 0 1-5.585 3.785 16.951 16.951 0 0 1-6.83 1.423h-29.326v-58.68h29.319a16.825 16.825 0 0 1 6.83 1.423 17.927 17.927 0 0 1 5.585 3.778 18.178 18.178 0 0 1 3.785 5.584 16.937 16.937 0 0 1 1.387 6.83 13.209 13.209 0 0 1-.448 3.351 16.438 16.438 0 0 1-1.266 3.315 14.237 14.237 0 0 1-1.964 2.903 11.176 11.176 0 0 1-2.54 2.134 9.136 9.136 0 0 1 2.576 2.135c.771.89 1.431 1.872 1.963 2.924a15.126 15.126 0 0 1 1.252 3.329c.279 1.098.425 2.226.434 3.358Zm-35.174-17.586h17.587a5.849 5.849 0 0 0 2.291-.449 5.75 5.75 0 0 0 3.109-3.13 5.99 5.99 0 0 0 .448-2.312 5.788 5.788 0 0 0-5.848-5.848H170.43l.007 11.739Zm0 23.434h17.587a5.869 5.869 0 0 0 4.155-1.7 5.908 5.908 0 0 0 1.245-1.857 5.904 5.904 0 0 0 .354-3.411 5.905 5.905 0 0 0-1.599-3.034 5.73 5.73 0 0 0-1.864-1.245 5.849 5.849 0 0 0-2.291-.449H170.43l.007 11.696Zm55.807 11.775h-11.761V92.139h23.479a23.054 23.054 0 0 1 6.218.84 23.727 23.727 0 0 1 14.008 10.821 23.881 23.881 0 0 1 2.369 5.599c.566 2.024.848 4.116.84 6.218a23.275 23.275 0 0 1-.754 5.89 24.184 24.184 0 0 1-2.135 5.436 22.673 22.673 0 0 1-3.457 4.745 23.596 23.596 0 0 1-4.582 3.764l6.46 15.374h-12.472l-5.108-11.824-13.134.085.029 11.739Zm0-46.955v23.477h11.739a11.21 11.21 0 0 0 4.539-.925 11.762 11.762 0 0 0 6.239-6.253 11.788 11.788 0 0 0 0-9.121 11.702 11.702 0 0 0-2.518-3.742 12.03 12.03 0 0 0-3.721-2.519 11.33 11.33 0 0 0-4.539-.917h-11.739Zm89.089 23.477c.022 3.14-.606 6.25-1.843 9.135a23.369 23.369 0 0 1-5.03 7.449 23.901 23.901 0 0 1-7.463 4.98 23.593 23.593 0 0 1-18.278 0 23.347 23.347 0 0 1-12.457-12.457 22.89 22.89 0 0 1-1.836-9.107V92.132h11.697v35.216c-.01 1.56.302 3.106.917 4.539a11.853 11.853 0 0 0 2.519 3.721 11.72 11.72 0 0 0 3.742 2.511 11.677 11.677 0 0 0 9.114 0 11.72 11.72 0 0 0 3.742-2.511 11.853 11.853 0 0 0 2.519-3.721c.615-1.433.927-2.979.917-4.539V92.132h11.74v35.216Zm57.009 17.423a30.201 30.201 0 0 1-27.705 6.197 30.548 30.548 0 0 1-21.229-21.222 30.474 30.474 0 0 1 0-16.093 30.586 30.586 0 0 1 13.987-18.178 30.386 30.386 0 0 1 7.242-3.066 29.467 29.467 0 0 1 8.033-1.088c3.588 0 7.148.636 10.515 1.878a28.994 28.994 0 0 1 9.157 5.421l-6.211 10.231a17.578 17.578 0 0 0-6.098-4.269 18.63 18.63 0 0 0-7.363-1.494 18.081 18.081 0 0 0-7.278 1.473 19.067 19.067 0 0 0-5.927 3.991 18.553 18.553 0 0 0-4.012 5.926 18.12 18.12 0 0 0-1.473 7.257 17.826 17.826 0 0 0 1.473 7.221 18.917 18.917 0 0 0 9.96 9.918 18.08 18.08 0 0 0 7.278 1.472 18.635 18.635 0 0 0 7.364-1.494 17.562 17.562 0 0 0 6.097-4.268l6.19 10.187Zm62.572-23.064a29.515 29.515 0 0 1-1.081 8.039 30.742 30.742 0 0 1-3.045 7.235 29.86 29.86 0 0 1-4.746 6.161 31.192 31.192 0 0 1-6.132 4.76 30.138 30.138 0 0 1-15.297 4.155 29.518 29.518 0 0 1-8.039-1.089 30.175 30.175 0 0 1-7.236-3.066 30.745 30.745 0 0 1-10.921-10.921 30.208 30.208 0 0 1-3.066-7.235 30.474 30.474 0 0 1 0-16.093 29.832 29.832 0 0 1 3.066-7.242 30.937 30.937 0 0 1 4.767-6.133 30.104 30.104 0 0 1 6.154-4.745 31.027 31.027 0 0 1 7.236-3.045 30.48 30.48 0 0 1 16.072 0 30.049 30.049 0 0 1 13.396 7.825 30.041 30.041 0 0 1 7.791 13.376 29.711 29.711 0 0 1 1.081 8.018Zm-11.654 0a18.12 18.12 0 0 0-1.472-7.257 18.59 18.59 0 0 0-9.918-9.918 18.668 18.668 0 0 0-14.535 0 19.217 19.217 0 0 0-5.934 3.992 18.532 18.532 0 0 0-4.005 5.926 18.138 18.138 0 0 0-1.473 7.257 17.846 17.846 0 0 0 1.473 7.221 18.85 18.85 0 0 0 9.96 9.917 18.67 18.67 0 0 0 14.535 0 18.776 18.776 0 0 0 5.934-4.005 19.38 19.38 0 0 0 3.984-5.912 17.836 17.836 0 0 0 1.451-7.221Zm15.909-11.981a16.831 16.831 0 0 1 1.423-6.83 17.783 17.783 0 0 1 9.363-9.363 16.821 16.821 0 0 1 6.83-1.422h26.914v11.76h-26.943a5.848 5.848 0 0 0-2.291.448 5.864 5.864 0 0 0-3.109 3.109 5.848 5.848 0 0 0-.448 2.291 6.013 6.013 0 0 0 .448 2.312 5.815 5.815 0 0 0 3.109 3.13 5.83 5.83 0 0 0 2.291.448h11.739a17.356 17.356 0 0 1 6.852 1.366 17.518 17.518 0 0 1 9.362 9.37 17.734 17.734 0 0 1 0 13.681 17.719 17.719 0 0 1-9.362 9.377 17.08 17.08 0 0 1-6.852 1.423h-26.053v-11.739h26.053a5.831 5.831 0 0 0 5.4-3.557 5.89 5.89 0 0 0-1.252-6.446 5.69 5.69 0 0 0-1.857-1.245 5.848 5.848 0 0 0-2.291-.448h-11.739a16.831 16.831 0 0 1-6.83-1.423 17.73 17.73 0 0 1-9.363-9.384 16.968 16.968 0 0 1-1.394-6.858Zm23.72-21.102-11.49-10.365 4.624-5.848 6.581 5.969 6.133-5.692 5.03 5.52-10.878 10.416Zm42.616 62.202h-11.753V92.139h11.739l.014 58.687Zm35.58-23.478a22.861 22.861 0 0 1-1.8 9.142 23.405 23.405 0 0 1-12.457 12.458 22.936 22.936 0 0 1-9.178 1.878 24.162 24.162 0 0 1-5.884-.712v-12.592c.89.522 1.848.92 2.846 1.181.999.274 2.03.413 3.066.413a11.35 11.35 0 0 0 4.561-.925 11.74 11.74 0 0 0 3.742-2.512 11.853 11.853 0 0 0 2.519-3.721c.615-1.433.927-2.979.917-4.539V92.203h11.697l-.029 35.145Zm56.07 23.478h-11.732v-11.739h-23.478v11.739h-11.696v-35.209a22.817 22.817 0 0 1 1.842-9.143 23.846 23.846 0 0 1 4.981-7.463 23.41 23.41 0 0 1 7.441-5.03 23.605 23.605 0 0 1 18.285 0 23.541 23.541 0 0 1 12.493 12.493 22.941 22.941 0 0 1 1.836 9.143l.028 35.209Zm-11.732-23.478v-11.739a11.473 11.473 0 0 0-.925-4.56 11.82 11.82 0 0 0-2.511-3.742 12.053 12.053 0 0 0-3.742-2.519 11.809 11.809 0 0 0-9.121 0 11.966 11.966 0 0 0-3.743 2.519 11.846 11.846 0 0 0-2.518 3.742 11.473 11.473 0 0 0-.918 4.56v11.739h23.478Zm68.912-5.883a28.937 28.937 0 0 1-4.012 14.783 29.642 29.642 0 0 1-4.582 5.927 28.686 28.686 0 0 1-5.926 4.603 29.457 29.457 0 0 1-7.015 2.966 28.827 28.827 0 0 1-7.826 1.046h-17.63V92.139h17.665c2.645-.012 5.278.34 7.826 1.046a29.451 29.451 0 0 1 7.015 2.966 28.912 28.912 0 0 1 5.927 4.596 29.906 29.906 0 0 1 4.581 5.934 29.012 29.012 0 0 1 2.967 6.993 28.713 28.713 0 0 1 1.01 7.791Zm-11.739 0a17.053 17.053 0 0 0-1.373-6.83 17.522 17.522 0 0 0-3.763-5.585 17.826 17.826 0 0 0-5.599-3.778 16.991 16.991 0 0 0-6.852-1.423h-5.848v35.174h5.848a17.195 17.195 0 0 0 6.852-1.373 17.532 17.532 0 0 0 9.362-9.363 17.194 17.194 0 0 0 1.373-6.822Zm65.76 29.361h-11.732v-11.739h-23.478v11.739H661.45v-35.209a22.812 22.812 0 0 1 1.842-9.142 23.838 23.838 0 0 1 4.981-7.463 23.343 23.343 0 0 1 7.441-5.03 23.593 23.593 0 0 1 18.278 0 23.628 23.628 0 0 1 7.47 5.03 23.912 23.912 0 0 1 5.03 7.463 22.933 22.933 0 0 1 1.836 9.142l.028 35.209Zm-11.732-23.478v-11.739a11.473 11.473 0 0 0-.925-4.56 11.82 11.82 0 0 0-2.511-3.742 12.053 12.053 0 0 0-3.742-2.519 11.805 11.805 0 0 0-9.121 0 11.983 11.983 0 0 0-3.743 2.519 11.702 11.702 0 0 0-2.518 3.742 11.49 11.49 0 0 0-.918 4.56v11.739h23.478ZM227.076 251.296h-11.739v-58.644h41.065v11.731h-29.326v11.739h17.587v11.739h-17.587v23.435Zm75.535 0h-40.197v-58.644h40.197v11.731h-28.458v11.739h19.266v11.739h-19.273v11.696h28.458l.007 11.739Zm19.964 0h-11.739v-58.644h23.478a23 23 0 0 1 6.218.832 23.483 23.483 0 0 1 5.585 2.376 24.183 24.183 0 0 1 4.746 3.678 23.62 23.62 0 0 1 6.047 10.366 23.41 23.41 0 0 1 .085 12.095 24.191 24.191 0 0 1-2.134 5.435 22.642 22.642 0 0 1-3.458 4.745 23.25 23.25 0 0 1-4.574 3.764l6.502 15.339h-12.543l-5.108-11.817-13.126.078.021 11.753Zm0-46.913v23.478h11.732c1.56.01 3.105-.303 4.539-.918a11.819 11.819 0 0 0 6.24-6.261 11.8 11.8 0 0 0 0-9.12 11.769 11.769 0 0 0-6.24-6.254 11.348 11.348 0 0 0-4.539-.925h-11.732Zm76.724 11.739v11.127h-34.321v-11.127h34.321Zm56.682 35.174h-11.74v-11.739h-23.478v11.739h-11.675v-35.174a22.94 22.94 0 0 1 1.843-9.142 23.976 23.976 0 0 1 4.98-7.463 23.543 23.543 0 0 1 7.442-5.03 23.695 23.695 0 0 1 18.285 0 23.547 23.547 0 0 1 12.493 12.493c1.237 2.888 1.864 6 1.842 9.142l.008 35.174Zm-11.74-23.435v-11.739a11.465 11.465 0 0 0-.917-4.56 11.716 11.716 0 0 0-6.261-6.254 11.715 11.715 0 0 0-9.121 0 11.664 11.664 0 0 0-6.254 6.254 11.49 11.49 0 0 0-.925 4.56v11.739h23.478Zm60.695 23.435h-11.739v-46.913h-5.848v-11.731h17.587v58.644Zm50.998-17.587a16.831 16.831 0 0 1-1.423 6.83 17.788 17.788 0 0 1-9.363 9.362 16.815 16.815 0 0 1-6.83 1.423H514.84v-11.738h23.478a5.797 5.797 0 0 0 5.4-3.558 6.073 6.073 0 0 0 0-4.581 5.797 5.797 0 0 0-5.4-3.558H522.36v-11.738h15.986a5.73 5.73 0 0 0 5.4-3.558 5.97 5.97 0 0 0 .449-2.312 5.849 5.849 0 0 0-.449-2.291 5.914 5.914 0 0 0-1.245-1.857 5.872 5.872 0 0 0-4.155-1.7h-23.478v-11.781h23.478a16.934 16.934 0 0 1 6.83 1.387 17.856 17.856 0 0 1 9.363 9.363 16.827 16.827 0 0 1 1.423 6.829c0 2.15-.403 4.281-1.188 6.282a17.72 17.72 0 0 1-3.394 5.457 17.662 17.662 0 0 1 3.351 5.464 17.176 17.176 0 0 1 1.203 6.275Zm22.005 13.411a7.12 7.12 0 0 1-.534 2.76 6.785 6.785 0 0 1-1.473 2.234 7.11 7.11 0 0 1-2.212 1.494 6.855 6.855 0 0 1-2.739.548 6.933 6.933 0 0 1-2.718-.548 7.305 7.305 0 0 1-2.248-1.494 6.948 6.948 0 0 1-2.064-4.98 6.653 6.653 0 0 1 .548-2.697 6.933 6.933 0 0 1 1.516-2.205 7.305 7.305 0 0 1 2.248-1.494 6.79 6.79 0 0 1 2.718-.555 6.72 6.72 0 0 1 2.739.555 7.11 7.11 0 0 1 2.212 1.494 6.898 6.898 0 0 1 2.007 4.902v-.014Zm24.005 4.176h-11.739v-46.913h-5.849v-11.731h17.588v58.644Zm26.622 0h-11.732v-46.913h-5.848v-11.731h17.588l-.008 58.644Zm23.841-4.176a7.113 7.113 0 0 1-.526 2.76 6.8 6.8 0 0 1-1.473 2.234 7.115 7.115 0 0 1-2.213 1.494 6.852 6.852 0 0 1-2.739.548 6.928 6.928 0 0 1-2.717-.548 7.31 7.31 0 0 1-2.249-1.494 6.97 6.97 0 0 1-2.07-4.98 6.657 6.657 0 0 1 .555-2.697 6.946 6.946 0 0 1 1.515-2.205 7.31 7.31 0 0 1 2.249-1.494 6.788 6.788 0 0 1 2.717-.555 6.717 6.717 0 0 1 2.739.555 7.115 7.115 0 0 1 2.213 1.494 6.865 6.865 0 0 1 1.999 4.902v-.014Z" fill="#4D4D4D"/><path d="M209.951 138.361a16.918 16.918 0 0 1-1.423 6.83 17.9 17.9 0 0 1-9.32 9.37 16.937 16.937 0 0 1-6.83 1.387h-29.34V97.304h29.326a16.94 16.94 0 0 1 6.83 1.387c2.081.9 3.973 2.184 5.578 3.785a17.842 17.842 0 0 1 3.785 5.585 16.951 16.951 0 0 1 1.423 6.83 12.953 12.953 0 0 1-.456 3.351 16.18 16.18 0 0 1-1.266 3.315 14.062 14.062 0 0 1-1.964 2.903 11.188 11.188 0 0 1-2.533 2.17 8.995 8.995 0 0 1 2.576 2.134 14.802 14.802 0 0 1 1.964 2.924 15.045 15.045 0 0 1 1.245 3.33c.271 1.093.407 2.216.405 3.343Zm-35.174-17.579h17.587a5.835 5.835 0 0 0 4.148-1.701 5.87 5.87 0 0 0 1.252-1.878 6.01 6.01 0 0 0 .448-2.312 5.77 5.77 0 0 0-.43-2.247 5.792 5.792 0 0 0-5.418-3.601h-17.587v11.739Zm0 23.427h17.587a5.848 5.848 0 0 0 2.291-.448 5.69 5.69 0 0 0 1.857-1.245 5.87 5.87 0 0 0 1.273-1.864 6.076 6.076 0 0 0 0-4.582 5.834 5.834 0 0 0-5.4-3.557h-17.608v11.696Zm55.785 11.739h-11.739V97.304h23.478c2.101.003 4.191.298 6.211.875a23.31 23.31 0 0 1 5.585 2.369 23.7 23.7 0 0 1 10.8 13.994 23.485 23.485 0 0 1 .079 12.095 23.962 23.962 0 0 1-2.17 5.442 23.13 23.13 0 0 1-3.451 4.746 23.79 23.79 0 0 1-4.582 3.763l6.503 15.332h-12.472l-5.115-11.817-13.127.078v11.767Zm0-46.905v23.477h11.739a11.372 11.372 0 0 0 4.575-.903 11.791 11.791 0 0 0 6.232-6.254 11.688 11.688 0 0 0 0-9.12 11.736 11.736 0 0 0-2.511-3.743 11.89 11.89 0 0 0-3.721-2.518 11.383 11.383 0 0 0-4.539-.918l-11.775-.021Zm89.117 23.47a22.915 22.915 0 0 1-1.842 9.142 23.487 23.487 0 0 1-5.03 7.442 24.011 24.011 0 0 1-7.464 5.016 23.692 23.692 0 0 1-18.284 0 23.427 23.427 0 0 1-12.436-12.458 22.759 22.759 0 0 1-1.843-9.142V97.304h11.696v35.209a11.173 11.173 0 0 0 .925 4.539 11.705 11.705 0 0 0 6.254 6.24 11.783 11.783 0 0 0 9.121 0 11.708 11.708 0 0 0 6.254-6.24c.621-1.431.936-2.978.924-4.539V97.304h11.739l-.014 35.209Zm57.01 17.424a30.288 30.288 0 0 1-27.747 6.196 30.547 30.547 0 0 1-21.223-21.222 30.474 30.474 0 0 1 0-16.093 30.175 30.175 0 0 1 3.109-7.264 30.552 30.552 0 0 1 18.157-13.987 29.786 29.786 0 0 1 8.039-1.081 30.144 30.144 0 0 1 10.508 1.864 29.182 29.182 0 0 1 9.164 5.414l-6.218 10.223a17.616 17.616 0 0 0-6.09-4.268 18.656 18.656 0 0 0-7.364-1.494 18.08 18.08 0 0 0-7.278 1.472 19.3 19.3 0 0 0-5.934 3.984 18.776 18.776 0 0 0-4.005 5.934 18.12 18.12 0 0 0-1.473 7.257 17.863 17.863 0 0 0 1.473 7.221 18.915 18.915 0 0 0 9.96 9.917 18.085 18.085 0 0 0 7.278 1.473 18.67 18.67 0 0 0 7.364-1.494 17.538 17.538 0 0 0 6.09-4.269l6.19 10.217Zm62.572-23.065a29.795 29.795 0 0 1-1.081 8.039 31.07 31.07 0 0 1-3.052 7.235 30.067 30.067 0 0 1-4.739 6.154 30.966 30.966 0 0 1-6.139 4.767 30.31 30.31 0 0 1-23.329 3.066 30.6 30.6 0 0 1-21.23-21.222 30.127 30.127 0 0 1 3.073-23.335 30.903 30.903 0 0 1 4.76-6.133 29.998 29.998 0 0 1 6.154-4.745 30.895 30.895 0 0 1 7.243-3.045 30.478 30.478 0 0 1 16.093 0 30.372 30.372 0 0 1 18.114 13.923 30.562 30.562 0 0 1 3.052 7.235 29.95 29.95 0 0 1 1.081 8.061Zm-11.653 0a18.138 18.138 0 0 0-1.473-7.257 18.592 18.592 0 0 0-9.932-9.918 18.684 18.684 0 0 0-14.542 0 19.227 19.227 0 0 0-5.927 3.984 18.68 18.68 0 0 0-4.012 5.934 18.12 18.12 0 0 0-1.473 7.257 17.863 17.863 0 0 0 1.473 7.221 18.977 18.977 0 0 0 9.96 9.917 18.684 18.684 0 0 0 14.542 0 18.568 18.568 0 0 0 5.927-4.012 19.144 19.144 0 0 0 3.991-5.905 17.849 17.849 0 0 0 1.444-7.221h.022Zm15.908-11.981a16.935 16.935 0 0 1 1.423-6.83 17.876 17.876 0 0 1 9.37-9.37 16.914 16.914 0 0 1 6.83-1.387h26.907v11.739h-26.943a5.807 5.807 0 0 0-4.155 1.693 5.763 5.763 0 0 0-1.245 1.864 5.848 5.848 0 0 0-.448 2.291 5.99 5.99 0 0 0 .448 2.312 5.8 5.8 0 0 0 5.4 3.557h11.732a17.33 17.33 0 0 1 6.851 1.366 17.496 17.496 0 0 1 9.37 9.37 17.786 17.786 0 0 1 0 13.674 17.69 17.69 0 0 1-9.37 9.37 17.07 17.07 0 0 1-6.851 1.387h-26.039v-11.718h26.039a5.812 5.812 0 0 0 4.155-1.693 5.752 5.752 0 0 0 1.245-1.864 5.895 5.895 0 0 0-1.245-6.403 5.856 5.856 0 0 0-4.155-1.7h-11.732a16.937 16.937 0 0 1-6.83-1.387 17.848 17.848 0 0 1-9.37-9.384 17.071 17.071 0 0 1-1.387-6.887Zm23.72-21.102-11.49-10.387 4.617-5.848 6.588 5.97 6.133-5.728 5.03 5.521-10.878 10.472Zm42.616 62.159h-11.739V97.304h11.739v58.644Zm35.58-23.435a22.758 22.758 0 0 1-1.842 9.142 23.428 23.428 0 0 1-12.451 12.458 22.936 22.936 0 0 1-9.142 1.835 24.162 24.162 0 0 1-5.891-.711v-12.621c.889.526 1.847.926 2.846 1.188 1 .269 2.031.406 3.066.405a11.473 11.473 0 0 0 4.561-.917 11.703 11.703 0 0 0 6.253-6.24c.622-1.432.937-2.978.925-4.539V97.304h11.697l-.022 35.209Zm56.07 23.435h-11.703v-11.739h-23.478v11.739h-11.732v-35.166a22.915 22.915 0 0 1 1.842-9.142 23.887 23.887 0 0 1 4.981-7.463 23.375 23.375 0 0 1 7.449-5.03 23.582 23.582 0 0 1 18.277 0 23.539 23.539 0 0 1 12.493 12.493c1.239 2.887 1.866 6 1.843 9.142l.028 35.166Zm-11.703-23.435v-11.731a11.457 11.457 0 0 0-.918-4.561 11.757 11.757 0 0 0-6.261-6.26 11.783 11.783 0 0 0-9.121 0 11.706 11.706 0 0 0-6.253 6.26 11.457 11.457 0 0 0-.918 4.561v11.731h23.471Zm68.876-5.876a28.863 28.863 0 0 1-4.005 14.784 30.378 30.378 0 0 1-4.582 5.926 28.973 28.973 0 0 1-5.933 4.603 28.96 28.96 0 0 1-14.799 4.005h-17.672V97.304h17.672a29.167 29.167 0 0 1 20.732 8.608 30.187 30.187 0 0 1 4.582 5.934 28.802 28.802 0 0 1 4.005 14.791Zm-11.739 0a17.156 17.156 0 0 0-1.366-6.83 17.795 17.795 0 0 0-3.763-5.585 18.006 18.006 0 0 0-5.607-3.785 17.037 17.037 0 0 0-6.844-1.387h-5.848v35.159h5.848a17.24 17.24 0 0 0 6.844-1.366 17.491 17.491 0 0 0 9.37-9.369 17.249 17.249 0 0 0 1.366-6.837Zm65.767 29.311h-11.739v-11.739h-23.478v11.739h-11.697v-35.166a22.933 22.933 0 0 1 1.843-9.142 23.906 23.906 0 0 1 4.98-7.464 23.415 23.415 0 0 1 7.442-5.03 23.602 23.602 0 0 1 18.285 0 23.542 23.542 0 0 1 12.493 12.494c1.238 2.887 1.866 6 1.843 9.142l.028 35.166Zm-11.739-23.435v-11.731a11.457 11.457 0 0 0-.918-4.561 11.754 11.754 0 0 0-6.261-6.26 11.783 11.783 0 0 0-9.121 0 11.706 11.706 0 0 0-6.253 6.26 11.457 11.457 0 0 0-.925 4.561v11.731h23.478ZM231.423 256.454h-11.739v-58.673h41.058v11.739h-29.319v11.739h17.587v11.739h-17.587v23.456Zm75.535 0h-40.204v-58.673h40.204v11.739H278.5v11.739h19.259v11.739h-19.266v11.738h28.458l.007 11.718Zm19.957 0h-11.739v-58.673h23.478a23.047 23.047 0 0 1 6.218.84 23.384 23.384 0 0 1 10.323 6.054 23.259 23.259 0 0 1 3.679 4.767 23.682 23.682 0 0 1 2.376 5.599 23.321 23.321 0 0 1 .078 12.094 24.18 24.18 0 0 1-2.134 5.436 23.22 23.22 0 0 1-3.458 4.745 23.554 23.554 0 0 1-4.582 3.763l6.503 15.332h-12.5l-5.08-11.774-13.162.099v11.718Zm0-46.906v23.478h11.739a11.21 11.21 0 0 0 4.539-.925 11.88 11.88 0 0 0 3.721-2.511 12.037 12.037 0 0 0 2.518-3.743 11.783 11.783 0 0 0 0-9.12 11.813 11.813 0 0 0-6.239-6.261 11.331 11.331 0 0 0-4.539-.918h-11.739Zm76.724 11.711v11.12h-34.357v-11.12h34.357Zm56.675 35.195h-11.725v-11.718h-23.478v11.732h-11.697v-35.209a22.813 22.813 0 0 1 1.843-9.142 23.844 23.844 0 0 1 4.98-7.463 23.427 23.427 0 0 1 7.442-5.03 23.582 23.582 0 0 1 18.284 0 23.539 23.539 0 0 1 12.494 12.493 22.96 22.96 0 0 1 1.857 9.142v35.195Zm-11.732-23.428v-11.767a11.491 11.491 0 0 0-.925-4.561 11.711 11.711 0 0 0-10.815-7.178c-1.566 0-3.116.312-4.56.918a11.76 11.76 0 0 0-6.261 6.26 11.491 11.491 0 0 0-.918 4.561v11.739l23.479.028Zm60.694 23.428h-11.739v-46.906h-5.848v-11.767h17.587v58.673Zm51.004-17.58a16.935 16.935 0 0 1-1.423 6.83 17.923 17.923 0 0 1-9.362 9.363 16.94 16.94 0 0 1-6.83 1.422h-23.478v-11.753h23.478a5.67 5.67 0 0 0 2.291-.455 5.779 5.779 0 0 0 3.102-3.102 5.913 5.913 0 0 0-1.246-6.446 5.8 5.8 0 0 0-4.147-1.693H526.7v-11.781h15.993a5.762 5.762 0 0 0 5.393-3.579 5.878 5.878 0 0 0 .455-2.312 5.835 5.835 0 0 0-1.7-4.148 5.946 5.946 0 0 0-1.857-1.252 5.848 5.848 0 0 0-2.291-.448h-23.478v-11.739h23.478a16.831 16.831 0 0 1 6.83 1.423 17.856 17.856 0 0 1 9.363 9.363 16.95 16.95 0 0 1 1.423 6.829c0 2.148-.403 4.277-1.188 6.275a17.715 17.715 0 0 1-3.358 5.464 17.806 17.806 0 0 1 3.358 5.457 17.21 17.21 0 0 1 1.159 6.282Zm21.998 13.411a7.098 7.098 0 0 1-.533 2.76 6.54 6.54 0 0 1-1.473 2.227 6.875 6.875 0 0 1-2.205 1.494 6.99 6.99 0 0 1-5.457 0 7.11 7.11 0 0 1-2.256-1.494 6.993 6.993 0 0 1-2.063-4.98 6.657 6.657 0 0 1 .555-2.697 7.022 7.022 0 0 1 1.508-2.212 7.192 7.192 0 0 1 2.256-1.487 6.988 6.988 0 0 1 5.457 0 6.964 6.964 0 0 1 2.205 1.487 6.698 6.698 0 0 1 1.473 2.212c.356.852.538 1.767.533 2.69Zm24.005 4.169h-11.732v-46.906h-5.848v-11.767h17.58v58.673Zm26.63 0h-11.739v-46.906h-5.848v-11.767h17.587v58.673Zm23.841-4.169a7.099 7.099 0 0 1-.534 2.76 6.868 6.868 0 0 1-3.678 3.721 6.988 6.988 0 0 1-5.457 0 7.106 7.106 0 0 1-2.255-1.494 6.74 6.74 0 0 1-1.508-2.227 6.89 6.89 0 0 1-.555-2.76 6.657 6.657 0 0 1 .555-2.697 6.896 6.896 0 0 1 1.508-2.212 7.187 7.187 0 0 1 2.255-1.487 6.99 6.99 0 0 1 5.457 0 6.853 6.853 0 0 1 3.678 3.699c.358.854.539 1.771.534 2.697Z" fill="#fff"/></g><defs><radialGradient id="e" cx="0" cy="0" r="1" gradientUnits="userSpaceOnUse" gradientTransform="matrix(43.1855 0 0 43.1846 276.835 306.369)"><stop stop-color="#FF0B0B"/><stop offset=".77" stop-color="red" stop-opacity=".3"/><stop offset="1" stop-color="red" stop-opacity=".1"/></radialGradient><radialGradient id="f" cx="0" cy="0" r="1" gradientUnits="userSpaceOnUse" gradientTransform="matrix(-138.53983 93.47092 -42.98237 -63.7072 1209.05 154.491)"><stop stop-color="#D9674D"/><stop offset=".03" stop-color="#DA6350" stop-opacity=".93"/><stop offset=".12" stop-color="#DF565A" stop-opacity=".72"/><stop offset=".21" stop-color="#E34B63" stop-opacity=".52"/><stop offset=".32" stop-color="#E6416B" stop-opacity=".36"/><stop offset=".42" stop-color="#E83A71" stop-opacity=".23"/><stop offset=".54" stop-color="#EA3476" stop-opacity=".13"/><stop offset=".66" stop-color="#EC2F79" stop-opacity=".06"/><stop offset=".8" stop-color="#ED2D7B" stop-opacity=".01"/><stop offset="1" stop-color="#ED2C7C" stop-opacity="0"/></radialGradient><radialGradient id="g" cx="0" cy="0" r="1" gradientUnits="userSpaceOnUse" gradientTransform="rotate(145.993 580.904 262.108) scale(167.123 76.8508)"><stop stop-color="#D9674D"/><stop offset=".03" stop-color="#DA6350" stop-opacity=".93"/><stop offset=".12" stop-color="#DF565A" stop-opacity=".72"/><stop offset=".21" stop-color="#E34B63" stop-opacity=".52"/><stop offset=".32" stop-color="#E6416B" stop-opacity=".36"/><stop offset=".42" stop-color="#E83A71" stop-opacity=".23"/><stop offset=".54" stop-color="#EA3476" stop-opacity=".13"/><stop offset=".66" stop-color="#EC2F79" stop-opacity=".06"/><stop offset=".8" stop-color="#ED2D7B" stop-opacity=".01"/><stop offset="1" stop-color="#ED2C7C" stop-opacity="0"/></radialGradient><radialGradient id="h" cx="0" cy="0" r="1" gradientUnits="userSpaceOnUse" gradientTransform="matrix(-138.53983 93.47092 -42.98226 -63.70703 1209.05 154.491)"><stop stop-color="#D9674D"/><stop offset=".03" stop-color="#DA6350" stop-opacity=".93"/><stop offset=".12" stop-color="#DF565A" stop-opacity=".72"/><stop offset=".21" stop-color="#E34B63" stop-opacity=".52"/><stop offset=".32" stop-color="#E6416B" stop-opacity=".36"/><stop offset=".42" stop-color="#E83A71" stop-opacity=".23"/><stop offset=".54" stop-color="#EA3476" stop-opacity=".13"/><stop offset=".66" stop-color="#EC2F79" stop-opacity=".06"/><stop offset=".8" stop-color="#ED2D7B" stop-opacity=".01"/><stop offset="1" stop-color="#ED2C7C" stop-opacity="0"/></radialGradient><radialGradient id="i" cx="0" cy="0" r="1" gradientUnits="userSpaceOnUse" gradientTransform="matrix(-138.539 93.47036 -42.9822 -63.70695 1209.05 154.491)"><stop stop-color="#D9674D"/><stop offset=".03" stop-color="#DA6350" stop-opacity=".93"/><stop offset=".12" stop-color="#DF565A" stop-opacity=".72"/><stop offset=".21" stop-color="#E34B63" stop-opacity=".52"/><stop offset=".32" stop-color="#E6416B" stop-opacity=".36"/><stop offset=".42" stop-color="#E83A71" stop-opacity=".23"/><stop offset=".54" stop-color="#EA3476" stop-opacity=".13"/><stop offset=".66" stop-color="#EC2F79" stop-opacity=".06"/><stop offset=".8" stop-color="#ED2D7B" stop-opacity=".01"/><stop offset="1" stop-color="#ED2C7C" stop-opacity="0"/></radialGradient><radialGradient id="j" cx="0" cy="0" r="1" gradientUnits="userSpaceOnUse" gradientTransform="rotate(145.993 580.904 262.108) scale(167.123 76.8508)"><stop stop-color="#D9674D"/><stop offset=".03" stop-color="#DA6350" stop-opacity=".93"/><stop offset=".12" stop-color="#DF565A" stop-opacity=".72"/><stop offset=".21" stop-color="#E34B63" stop-opacity=".52"/><stop offset=".32" stop-color="#E6416B" stop-opacity=".36"/><stop offset=".42" stop-color="#E83A71" stop-opacity=".23"/><stop offset=".54" stop-color="#EA3476" stop-opacity=".13"/><stop offset=".66" stop-color="#EC2F79" stop-opacity=".06"/><stop offset=".8" stop-color="#ED2D7B" stop-opacity=".01"/><stop offset="1" stop-color="#ED2C7C" stop-opacity="0"/></radialGradient><radialGradient id="k" cx="0" cy="0" r="1" gradientUnits="userSpaceOnUse" gradientTransform="matrix(14919.73327 1231.83984 -886.83747 10741.15155 171534 23239.5)"><stop stop-color="#D9674D"/><stop offset=".03" stop-color="#DA6350" stop-opacity=".93"/><stop offset=".12" stop-color="#DF565A" stop-opacity=".72"/><stop offset=".21" stop-color="#E34B63" stop-opacity=".52"/><stop offset=".32" stop-color="#E6416B" stop-opacity=".36"/><stop offset=".42" stop-color="#E83A71" stop-opacity=".23"/><stop offset=".54" stop-color="#EA3476" stop-opacity=".13"/><stop offset=".66" stop-color="#EC2F79" stop-opacity=".06"/><stop offset=".8" stop-color="#ED2D7B" stop-opacity=".01"/><stop offset="1" stop-color="#ED2C7C" stop-opacity="0"/></radialGradient><radialGradient id="l" cx="0" cy="0" r="1" gradientUnits="userSpaceOnUse" gradientTransform="rotate(145.977 581.041 262.123) scale(168.038 77.2893)"><stop stop-color="#D9674D"/><stop offset=".03" stop-color="#DA6350" stop-opacity=".93"/><stop offset=".12" stop-color="#DF565A" stop-opacity=".72"/><stop offset=".21" stop-color="#E34B63" stop-opacity=".52"/><stop offset=".32" stop-color="#E6416B" stop-opacity=".36"/><stop offset=".42" stop-color="#E83A71" stop-opacity=".23"/><stop offset=".54" stop-color="#EA3476" stop-opacity=".13"/><stop offset=".66" stop-color="#EC2F79" stop-opacity=".06"/><stop offset=".8" stop-color="#ED2D7B" stop-opacity=".01"/><stop offset="1" stop-color="#ED2C7C" stop-opacity="0"/></radialGradient><radialGradient id="m" cx="0" cy="0" r="1" gradientUnits="userSpaceOnUse" gradientTransform="rotate(-174.29 609.42 76.642) scale(4.60473 4.60423)"><stop stop-color="#D9674D"/><stop offset=".11" stop-color="#DA654E" stop-opacity=".97"/><stop offset=".24" stop-color="#DB6152" stop-opacity=".9"/><stop offset=".4" stop-color="#DE5A58" stop-opacity=".77"/><stop offset=".57" stop-color="#E14F60" stop-opacity=".6"/><stop offset=".75" stop-color="#E5426A" stop-opacity=".38"/><stop offset=".93" stop-color="#EB3277" stop-opacity=".11"/><stop offset="1" stop-color="#ED2C7C" stop-opacity="0"/></radialGradient><radialGradient id="n" cx="0" cy="0" r="1" gradientUnits="userSpaceOnUse" gradientTransform="rotate(-174.29 609.42 76.643) scale(4.6048 4.60454)"><stop stop-color="#D9674D"/><stop offset=".11" stop-color="#DA654E" stop-opacity=".97"/><stop offset=".24" stop-color="#DB6152" stop-opacity=".9"/><stop offset=".4" stop-color="#DE5A58" stop-opacity=".77"/><stop offset=".57" stop-color="#E14F60" stop-opacity=".6"/><stop offset=".75" stop-color="#E5426A" stop-opacity=".38"/><stop offset=".93" stop-color="#EB3277" stop-opacity=".11"/><stop offset="1" stop-color="#ED2C7C" stop-opacity="0"/></radialGradient><radialGradient id="o" cx="0" cy="0" r="1" gradientUnits="userSpaceOnUse" gradientTransform="matrix(-138.539 93.47036 -42.98226 -63.70703 1209.05 154.491)"><stop stop-color="#D9674D"/><stop offset=".03" stop-color="#DA6350" stop-opacity=".93"/><stop offset=".12" stop-color="#DF565A" stop-opacity=".72"/><stop offset=".21" stop-color="#E34B63" stop-opacity=".52"/><stop offset=".32" stop-color="#E6416B" stop-opacity=".36"/><stop offset=".42" stop-color="#E83A71" stop-opacity=".23"/><stop offset=".54" stop-color="#EA3476" stop-opacity=".13"/><stop offset=".66" stop-color="#EC2F79" stop-opacity=".06"/><stop offset=".8" stop-color="#ED2D7B" stop-opacity=".01"/><stop offset="1" stop-color="#ED2C7C" stop-opacity="0"/></radialGradient><radialGradient id="p" cx="0" cy="0" r="1" gradientUnits="userSpaceOnUse" gradientTransform="rotate(-174.289 609.42 76.638) scale(4.60459)"><stop stop-color="#D9674D"/><stop offset=".11" stop-color="#DA654E" stop-opacity=".97"/><stop offset=".24" stop-color="#DB6152" stop-opacity=".9"/><stop offset=".4" stop-color="#DE5A58" stop-opacity=".77"/><stop offset=".57" stop-color="#E14F60" stop-opacity=".6"/><stop offset=".75" stop-color="#E5426A" stop-opacity=".38"/><stop offset=".93" stop-color="#EB3277" stop-opacity=".11"/><stop offset="1" stop-color="#ED2C7C" stop-opacity="0"/></radialGradient><radialGradient id="q" cx="0" cy="0" r="1" gradientUnits="userSpaceOnUse" gradientTransform="matrix(14.7078 0 0 14.6738 -23671.4 -15193.7)"><stop stop-color="#D9674D"/><stop offset=".11" stop-color="#DA654E" stop-opacity=".97"/><stop offset=".24" stop-color="#DB6152" stop-opacity=".9"/><stop offset=".4" stop-color="#DE5A58" stop-opacity=".77"/><stop offset=".57" stop-color="#E14F60" stop-opacity=".6"/><stop offset=".75" stop-color="#E5426A" stop-opacity=".38"/><stop offset=".93" stop-color="#EB3277" stop-opacity=".11"/><stop offset="1" stop-color="#ED2C7C" stop-opacity="0"/></radialGradient><radialGradient id="r" cx="0" cy="0" r="1" gradientUnits="userSpaceOnUse" gradientTransform="matrix(7.43131 0 0 6.8739 -11381.6 -7044.17)"><stop stop-color="#D9674D"/><stop offset=".11" stop-color="#DA654E" stop-opacity=".97"/><stop offset=".24" stop-color="#DB6152" stop-opacity=".9"/><stop offset=".4" stop-color="#DE5A58" stop-opacity=".77"/><stop offset=".57" stop-color="#E14F60" stop-opacity=".6"/><stop offset=".75" stop-color="#E5426A" stop-opacity=".38"/><stop offset=".93" stop-color="#EB3277" stop-opacity=".11"/><stop offset="1" stop-color="#ED2C7C" stop-opacity="0"/></radialGradient><radialGradient id="s" cx="0" cy="0" r="1" gradientUnits="userSpaceOnUse" gradientTransform="rotate(145.994 580.904 262.102) scale(167.126 76.8513)"><stop stop-color="#D9674D"/><stop offset=".03" stop-color="#DA6350" stop-opacity=".93"/><stop offset=".12" stop-color="#DF565A" stop-opacity=".72"/><stop offset=".21" stop-color="#E34B63" stop-opacity=".52"/><stop offset=".32" stop-color="#E6416B" stop-opacity=".36"/><stop offset=".42" stop-color="#E83A71" stop-opacity=".23"/><stop offset=".54" stop-color="#EA3476" stop-opacity=".13"/><stop offset=".66" stop-color="#EC2F79" stop-opacity=".06"/><stop offset=".8" stop-color="#ED2D7B" stop-opacity=".01"/><stop offset="1" stop-color="#ED2C7C" stop-opacity="0"/></radialGradient><radialGradient id="t" cx="0" cy="0" r="1" gradientUnits="userSpaceOnUse" gradientTransform="matrix(29.7184 0 0 29.7167 -34362.3 -21816.8)"><stop stop-color="#D9674D"/><stop offset=".11" stop-color="#DA654E" stop-opacity=".97"/><stop offset=".24" stop-color="#DB6152" stop-opacity=".9"/><stop offset=".4" stop-color="#DE5A58" stop-opacity=".77"/><stop offset=".57" stop-color="#E14F60" stop-opacity=".6"/><stop offset=".75" stop-color="#E5426A" stop-opacity=".38"/><stop offset=".93" stop-color="#EB3277" stop-opacity=".11"/><stop offset="1" stop-color="#ED2C7C" stop-opacity="0"/></radialGradient><radialGradient id="u" cx="0" cy="0" r="1" gradientUnits="userSpaceOnUse" gradientTransform="matrix(-1473.29348 983.568 -449.81423 -673.77993 35643.6 44604.3)"><stop stop-color="#D9674D"/><stop offset=".03" stop-color="#DA6350" stop-opacity=".93"/><stop offset=".12" stop-color="#DF565A" stop-opacity=".72"/><stop offset=".21" stop-color="#E34B63" stop-opacity=".52"/><stop offset=".32" stop-color="#E6416B" stop-opacity=".36"/><stop offset=".42" stop-color="#E83A71" stop-opacity=".23"/><stop offset=".54" stop-color="#EA3476" stop-opacity=".13"/><stop offset=".66" stop-color="#EC2F79" stop-opacity=".06"/><stop offset=".8" stop-color="#ED2D7B" stop-opacity=".01"/><stop offset="1" stop-color="#ED2C7C" stop-opacity="0"/></radialGradient><radialGradient id="v" cx="0" cy="0" r="1" gradientUnits="userSpaceOnUse" gradientTransform="matrix(-40.08891 -3.83894 3.83883 -40.08781 35331.4 26356.6)"><stop stop-color="#D9674D"/><stop offset=".11" stop-color="#DA654E" stop-opacity=".97"/><stop offset=".24" stop-color="#DB6152" stop-opacity=".9"/><stop offset=".4" stop-color="#DE5A58" stop-opacity=".77"/><stop offset=".57" stop-color="#E14F60" stop-opacity=".6"/><stop offset=".75" stop-color="#E5426A" stop-opacity=".38"/><stop offset=".93" stop-color="#EB3277" stop-opacity=".11"/><stop offset="1" stop-color="#ED2C7C" stop-opacity="0"/></radialGradient><radialGradient id="w" cx="0" cy="0" r="1" gradientUnits="userSpaceOnUse" gradientTransform="rotate(145.993 580.904 262.108) scale(167.121 76.8505)"><stop stop-color="#D9674D"/><stop offset=".03" stop-color="#DA6350" stop-opacity=".93"/><stop offset=".12" stop-color="#DF565A" stop-opacity=".72"/><stop offset=".21" stop-color="#E34B63" stop-opacity=".52"/><stop offset=".32" stop-color="#E6416B" stop-opacity=".36"/><stop offset=".42" stop-color="#E83A71" stop-opacity=".23"/><stop offset=".54" stop-color="#EA3476" stop-opacity=".13"/><stop offset=".66" stop-color="#EC2F79" stop-opacity=".06"/><stop offset=".8" stop-color="#ED2D7B" stop-opacity=".01"/><stop offset="1" stop-color="#ED2C7C" stop-opacity="0"/></radialGradient><radialGradient id="x" cx="0" cy="0" r="1" gradientUnits="userSpaceOnUse" gradientTransform="matrix(24.5059 0 0 24.5057 -31324.1 -19851.8)"><stop stop-color="#D9674D"/><stop offset=".11" stop-color="#DA654E" stop-opacity=".97"/><stop offset=".24" stop-color="#DB6152" stop-opacity=".9"/><stop offset=".4" stop-color="#DE5A58" stop-opacity=".77"/><stop offset=".57" stop-color="#E14F60" stop-opacity=".6"/><stop offset=".75" stop-color="#E5426A" stop-opacity=".38"/><stop offset=".93" stop-color="#EB3277" stop-opacity=".11"/><stop offset="1" stop-color="#ED2C7C" stop-opacity="0"/></radialGradient><linearGradient id="b" x1="675.899" y1="0" x2="675.899" y2="790.79" gradientUnits="userSpaceOnUse"><stop stop-color="#F4D51D"/><stop offset=".14" stop-color="#F4CC1E"/><stop offset=".37" stop-color="#F5B523"/><stop offset=".65" stop-color="#F68F29"/><stop offset=".69" stop-color="#F6892A"/><stop offset="1" stop-color="#FF1E4F"/></linearGradient><linearGradient id="c" x1="278.755" y1="318.753" x2="285.941" y2="319.131" gradientUnits="userSpaceOnUse"><stop stop-color="#BFBFBF"/><stop offset=".93" stop-color="#FAFAFA"/><stop offset="1" stop-color="#fff"/></linearGradient><linearGradient id="d" x1="11045.5" y1="-8412.53" x2="11101" y2="-8412.53" gradientUnits="userSpaceOnUse"><stop stop-color="#BFBFBF"/><stop offset=".93" stop-color="#FAFAFA"/><stop offset="1" stop-color="#fff"/></linearGradient><linearGradient id="y" x1="996.479" y1="252.295" x2="1074.31" y2="256.333" gradientUnits="userSpaceOnUse"><stop stop-color="#323440"/><stop offset=".58" stop-color="#343642"/><stop offset=".92" stop-color="#3B3E4B"/><stop offset="1" stop-color="#3E414E"/></linearGradient><clipPath id="a"><path fill="#fff" d="M0 0h1366v715H0z"/></clipPath></defs></svg>