<svg width="70" height="70" viewBox="0 0 70 70" fill="none" xmlns="http://www.w3.org/2000/svg">
<path d="M50.7704 24.7358V28.163C49.0957 25.6989 46.8989 23.738 42.4693 24.0286C40.6903 24.1012 38.9683 24.6542 37.4998 25.6246C36.0312 26.5949 34.8753 27.9436 34.1638 29.5166C32.7142 32.6228 32.5972 37.447 33.9342 40.8786C35.2307 44.1931 37.8821 46.5184 41.5015 46.9132C46.1427 47.4425 48.8346 45.3428 50.8289 42.7832V47H58V24.7401L50.7704 24.7358ZM48.4565 40.3537C47.016 41.0175 44.6256 41.0478 43.3156 40.2973C42.5809 39.8816 41.9642 39.2973 41.5205 38.5964C41.0768 37.8955 40.8197 37.0998 40.7722 36.28C40.4616 32.8528 42.0327 30.3539 45.2378 30.0285C47.0385 29.842 48.6771 30.3452 49.6449 31.2823C52.2199 33.7421 51.3286 39.0218 48.4565 40.3363V40.3537Z" fill="white"/>
<path d="M57.8787 57H33.1214C30.703 56.9976 28.3843 56.0357 26.6743 54.3254C24.9642 52.6152 24.0024 50.2963 24 47.8777V23.1223C24.0024 20.7037 24.9642 18.3848 26.6743 16.6746C28.3843 14.9643 30.703 14.0024 33.1214 14H57.8787C60.297 14.0024 62.6157 14.9643 64.3257 16.6746C66.0358 18.3848 66.9976 20.7037 67 23.1223V47.8777C66.9976 50.2963 66.0358 52.6152 64.3257 54.3254C62.6157 56.0357 60.297 56.9976 57.8787 57ZM33.1214 16.2484C31.2964 16.2545 29.5482 16.9838 28.2599 18.2766C26.9715 19.5693 26.2481 21.3201 26.2482 23.1453V47.8777C26.2542 49.7029 26.9835 51.4512 28.2761 52.7397C29.5687 54.0281 31.3193 54.7516 33.1443 54.7516H57.8787C59.7037 54.7516 61.4543 54.0281 62.7469 52.7397C64.0395 51.4512 64.7687 49.7029 64.7748 47.8777V23.1223C64.7687 21.2971 64.0395 19.5488 62.7469 18.2603C61.4543 16.9719 59.7037 16.2484 57.8787 16.2484H33.1214Z" fill="white"/>
</svg>
