<svg width="30" height="30" viewBox="0 0 30 30" fill="none" xmlns="http://www.w3.org/2000/svg">
<g clip-path="url(#clip0_282_96)">
<path d="M29.6973 7.37417L22.6256 0.302403C22.432 0.108788 22.1693 0 21.8954 0C21.6215 0 21.3587 0.108788 21.1651 0.302403L0.524314 20.9432C0.338411 21.1294 0.230311 21.3792 0.222324 21.6421L0.000479617 28.9358C-0.00819588 29.2204 0.101143 29.4961 0.302469 29.6976C0.496498 29.8915 0.759241 30 1.03273 30C1.04319 30 1.05366 29.9999 1.06426 29.9995L8.35774 29.7773C8.62062 29.7693 8.87055 29.6614 9.05659 29.4755L29.6974 8.83482C30.1006 8.43148 30.1006 7.77751 29.6973 7.37417ZM7.8854 27.7252L2.09843 27.9015L2.27456 22.1143L14.8229 9.56577L20.4344 15.1763L7.8854 27.7252ZM21.8951 13.7158L16.2834 8.10539L21.8952 2.49345L27.5062 8.10457L21.8951 13.7158Z" fill="black"/>
</g>
<defs>
<clipPath id="clip0_282_96">
<rect width="30" height="30" fill="white"/>
</clipPath>
</defs>
</svg>
