<svg width="42" height="43" viewBox="0 0 42 43" fill="none" xmlns="http://www.w3.org/2000/svg">
<path d="M36.75 10.75L21 26.875L14.4375 20.1562" stroke="black" stroke-width="2" stroke-miterlimit="10"/>
<path d="M35.0438 18.1406C35.3063 19.2156 35.4375 20.2906 35.4375 21.5C35.4375 29.6969 29.0063 36.2812 21 36.2812C12.9938 36.2812 6.5625 29.6969 6.5625 21.5C6.5625 13.3031 12.9938 6.71875 21 6.71875C24.9375 6.71875 28.4813 8.33125 30.975 10.8844L32.8125 9.00312C29.7938 5.9125 25.5938 4.03125 21 4.03125C11.55 4.03125 3.9375 11.825 3.9375 21.5C3.9375 31.175 11.55 38.9688 21 38.9688C30.45 38.9688 38.0625 31.175 38.0625 21.5C38.0625 19.6187 37.8 17.7375 37.1437 15.9906L35.0438 18.1406Z" fill="black"/>
</svg>
